0
SECTION
2
HEADER
9
$INSUNITS
70
4
9
$ACADVER
1
AC1014
9
$HANDSEED
5
FFFF
0
ENDSEC
0
SECTION
2
TABLES
0
TABLE
2
VPORT
5
8
100
AcDbSymbolTable
0
ENDTAB
0
TABLE
2
LTYPE
5
5
100
AcDbSymbolTable
0
LTYPE
5
14
100
AcDbSymbolTableRecord
100
AcDbLinetypeTableRecord
2
BYBLOCK
70
0
0
LTYPE
5
15
100
AcDbSymbolTableRecord
100
AcDbLinetypeTableRecord
2
BYLAYER
70
0
0
ENDTAB
0
TABLE
2
LAYER
5
2
100
AcDbSymbolTable
70
2
0
LAYER
5
50
100
AcDbSymbolTableRecord
100
AcDbLayerTableRecord
2
0
70
0
6
CONTINUOUS
0
ENDTAB
0
TABLE
2
STYLE
5
3
100
AcDbSymbolTable
70
1
0
STYLE
5
11
100
AcDbSymbolTableRecord
100
AcDbTextStyleTableRecord
2
STANDARD
70
0
0
ENDTAB
0
TABLE
2
VIEW
5
6
100
AcDbSymbolTable
70
0
0
ENDTAB
0
TABLE
2
UCS
5
7
100
AcDbSymbolTable
70
0
0
ENDTAB
0
TABLE
2
APPID
5
9
100
AcDbSymbolTable
70
2
0
APPID
5
12
100
AcDbSymbolTableRecord
100
AcDbRegAppTableRecord
2
ACAD
70
0
0
ENDTAB
0
TABLE
2
DIMSTYLE
5
A
100
AcDbSymbolTable
70
1
0
ENDTAB
0
TABLE
2
BLOCK_RECORD
5
1
100
AcDbSymbolTable
70
1
0
BLOCK_RECORD
5
1F
100
AcDbSymbolTableRecord
100
AcDbBlockTableRecord
2
*MODEL_SPACE
0
BLOCK_RECORD
5
1B
100
AcDbSymbolTableRecord
100
AcDbBlockTableRecord
2
*PAPER_SPACE
0
ENDTAB
0
ENDSEC
0
SECTION
2
BLOCKS
0
BLOCK
5
20
100
AcDbEntity
100
AcDbBlockBegin
2
*MODEL_SPACE
0
ENDBLK
5
21
100
AcDbEntity
100
AcDbBlockEnd
0
BLOCK
5
1C
100
AcDbEntity
100
AcDbBlockBegin
2
*PAPER_SPACE
0
ENDBLK
5
1D
100
AcDbEntity
100
AcDbBlockEnd
0
ENDSEC
0
SECTION
2
ENTITIES
0
LWPOLYLINE
5
100
100
AcDbEntity
8
0
100
AcDbPolyline
90
8
70
1
43
0.0
10
269.14999999999998
20
71.489735256472414
42
-0.41421356237314705
10
268.64999999999998
20
70.9897352564724
10
255.65000000000003
20
70.989735256472315
42
-0.41421356237310542
10
255.15000000000001
20
71.489735256472414
10
255.15000000000001
20
84.489735256472201
42
-0.41421356237310542
10
255.65000000000001
20
84.989735256472301
10
268.65000000000003
20
84.989735256472301
42
-0.4142135623730846
10
269.14999999999998
20
84.489735256472201
0
LWPOLYLINE
5
101
100
AcDbEntity
8
0
100
AcDbPolyline
90
8
70
1
43
0.0
10
12.26249999999991
20
28.627235256472687
10
12.26249999999991
20
41.627235256472659
42
-0.41421356237307294
10
12.762499999999914
20
42.127235256472645
10
25.76249999999991
20
42.127235256472645
42
-0.41421356237306123
10
26.262499999999932
20
41.627235256472659
10
26.2624999999999
20
28.627235256472687
42
-0.41421356237311585
10
25.76249999999991
20
28.12723525647268
10
12.76249999999991
20
28.12723525647268
42
-0.41421356237308982
0
LWPOLYLINE
5
102
100
AcDbEntity
8
0
100
AcDbPolyline
90
8
70
1
43
0.0
10
145.61250000000001
20
-9.4727647435273923
10
145.61250000000001
20
3.527235256472645
42
-0.41421356237309243
10
146.11250000000001
20
4.0272352564726521
10
159.11250000000001
20
4.0272352564726432
42
-0.4142135623730378
10
159.61250000000001
20
3.527235256472645
10
159.61250000000001
20
-9.4727647435273923
42
-0.41421356237304041
10
159.11250000000001
20
-9.9727647435273994
10
146.11250000000001
20
-9.9727647435273994
42
-0.41421356237309503
0
LWPOLYLINE
5
103
100
AcDbEntity
8
0
100
AcDbPolyline
90
8
70
1
43
0.0
10
97.199999999999974
20
61.177235256472642
42
-0.4142135623730846
10
97.699999999999875
20
60.677235256472684
10
97.699999999999932
20
47.67723525647267
42
-0.41421356237306384
10
97.199999999999974
20
47.177235256472699
10
84.199999999999946
20
47.177235256472699
42
-0.41421356237304818
10
83.699999999999903
20
47.677235256472684
10
83.699999999999903
20
60.677235256472684
42
-0.41421356237312623
10
84.199999999999932
20
61.177235256472699
0
LWPOLYLINE
5
104
100
AcDbEntity
8
0
100
AcDbPolyline
90
8
70
1
43
0.0
10
336.11250000000013
20
41.627235256472602
42
-0.41421356237361528
10
336.61250000000001
20
42.127235256472559
10
349.61250000000001
20
42.127235256472559
42
-0.41421356237304818
10
350.11250000000013
20
41.627235256472666
10
350.11250000000013
20
28.627235256472652
42
-0.41421356237314183
10
349.61249999999995
20
28.127235256472645
10
336.61250000000001
20
28.127235256472652
42
-0.414213562373069
10
336.11250000000013
20
28.627235256472652
0
LWPOLYLINE
5
105
100
AcDbEntity
8
0
100
AcDbPolyline
90
8
70
1
43
0.0
10
101.96250000000001
20
-9.9727647435273994
10
88.962499999999977
20
-9.9727647435273923
42
-0.41421356237307944
10
88.46249999999992
20
-9.4727647435273745
10
88.462499999999949
20
3.5272352564726539
42
-0.41421356237301177
10
88.962499999999963
20
4.0272352564726521
10
101.96250000000003
20
4.0272352564726699
42
-0.41421356237302737
10
102.46250000000002
20
3.5272352564726539
10
102.46250000000001
20
-9.4727647435273923
42
-0.41421356237305862
0
LWPOLYLINE
5
106
100
AcDbEntity
8
0
100
AcDbPolyline
90
8
70
1
43
0.0
10
169.13749999999999
20
9.5772352564726404
42
-0.41421356237314444
10
168.63749999999999
20
9.0772352564726333
10
155.63749999999999
20
9.0772352564726368
42
-0.41421356237312362
10
155.13749999999999
20
9.5772352564726404
10
155.13749999999999
20
22.577235256472683
42
-0.41421356237298057
10
155.63749999999999
20
23.07723525647269
10
168.63750000000005
20
23.077235256472708
42
-0.4142135623732095
10
169.13749999999999
20
22.577235256472683
0
LWPOLYLINE
5
107
100
AcDbEntity
8
0
100
AcDbPolyline
90
8
70
1
43
0.0
10
88.175000000000026
20
28.627235256472687
42
-0.41421356237310025
10
87.674999999999898
20
28.127235256472645
10
74.674999999999898
20
28.12723525647268
42
-0.41421356237311585
10
74.174999999999898
20
28.627235256472687
10
74.174999999999898
20
41.62723525647263
42
-0.414213562373069
10
74.674999999999898
20
42.12723525647263
10
87.674999999999912
20
42.12723525647263
42
-0.41421356237305862
10
88.174999999999869
20
41.62723525647263
0
LWPOLYLINE
5
108
100
AcDbEntity
8
0
100
AcDbPolyline
90
8
70
1
43
0.0
10
212.28750000000002
20
22.577235256472683
42
-0.41421356237302737
10
212.78750000000002
20
23.077235256472708
10
225.78749999999999
20
23.07723525647269
42
-0.41421356237313667
10
226.28749999999999
20
22.577235256472683
10
226.28749999999997
20
9.5772352564726226
42
-0.41421356237298318
10
225.78749999999999
20
9.0772352564726191
10
212.78750000000002
20
9.0772352564726333
42
-0.41421356237316265
10
212.28750000000002
20
9.5772352564726138
0
LWPOLYLINE
5
109
100
AcDbEntity
8
0
100
AcDbPolyline
90
8
70
1
43
0.0
10
145.32499999999999
20
41.62723525647263
10
145.32499999999999
20
28.627235256472687
42
-0.41421356237312101
10
144.8249999999999
20
28.127235256472645
10
131.82499999999999
20
28.12723525647268
42
-0.41421356237306384
10
131.32499999999999
20
28.627235256472687
10
131.32499999999999
20
41.62723525647263
42
-0.41421356237308982
10
131.82499999999999
20
42.127235256472645
10
144.8249999999999
20
42.127235256472645
42
-0.41421356237305862
0
LWPOLYLINE
5
110
100
AcDbEntity
8
0
100
AcDbPolyline
90
8
70
1
43
0.0
10
26.2624999999999
20
-28.522764743527361
42
-0.41421356237310802
10
25.76249999999991
20
-29.022764743527382
10
10.3812499999999
20
-29.022764743527382
42
-0.41421356237309115
10
9.8812499999999055
20
-28.522764743527379
10
9.8812499999999215
20
-15.522764743527357
42
-0.4142135623730937
10
10.3812499999999
20
-15.02276474352735
10
25.76249999999991
20
-15.022764743527352
42
-0.41421356237309892
10
26.2624999999999
20
-15.522764743527349
0
LWPOLYLINE
5
111
100
AcDbEntity
8
0
100
AcDbPolyline
90
8
70
1
43
0.0
10
197.21250000000001
20
-9.9727647435273923
10
184.21250000000001
20
-9.9727647435273994
42
-0.41421356237314444
10
183.71250000000001
20
-9.4727647435273798
10
183.71250000000003
20
3.527235256472645
42
-0.41421356237298579
10
184.21250000000001
20
4.027235256472661
10
197.21250000000001
20
4.0272352564726743
42
-0.41421356237301699
10
197.71250000000003
20
3.5272352564726583
10
197.71250000000003
20
-9.4727647435273976
42
-0.41421356237304041
0
LWPOLYLINE
5
112
100
AcDbEntity
8
0
100
AcDbPolyline
90
8
70
1
43
0.0
10
169.42500000000001
20
28.627235256472687
10
169.42500000000001
20
41.62723525647263
42
-0.4142135623732251
10
169.92500000000004
20
42.12723525647263
10
182.92499999999993
20
42.127235256472687
42
-0.41421356237307944
10
183.42500000000001
20
41.62723525647263
10
183.42500000000001
20
28.627235256472687
42
-0.41421356237311585
10
182.92500000000001
20
28.127235256472645
10
169.92500000000004
20
28.127235256472652
42
-0.41421356237311063
0
LWPOLYLINE
5
113
100
AcDbEntity
8
0
100
AcDbPolyline
90
8
70
1
43
0.0
10
216.76249999999999
20
3.527235256472645
10
216.7625000000001
20
-9.4727647435273976
42
-0.41421356237310025
10
216.26249999999996
20
-9.9727647435273994
10
203.26250000000002
20
-9.9727647435272981
42
-0.41421356237307161
10
202.76250000000007
20
-9.4727647435274029
10
202.76250000000002
20
3.527235256472645
42
-0.41421356237302481
10
203.26250000000002
20
4.027235256472661
10
216.26249999999999
20
4.0272352564726388
42
-0.41421356237304563
0
LWPOLYLINE
5
114
100
AcDbEntity
8
0
100
AcDbPolyline
90
8
70
1
43
0.0
10
207.23750000000001
20
9.5772352564726226
10
207.23750000000001
20
22.577235256472683
42
0.41421356237311585
10
206.73750000000001
20
23.077235256472726
10
193.73750000000001
20
23.077235256472708
42
0.41421356237301699
10
193.23750000000004
20
22.577235256472655
10
193.23750000000004
20
9.5772352564726404
42
0.41421356237304302
10
193.73750000000001
20
9.0772352564726333
10
206.73750000000001
20
9.077235256472612
42
0.41421356237313928
0
LWPOLYLINE
5
115
100
AcDbEntity
8
0
100
AcDbPolyline
90
16
70
1
43
0.0
10
351.1115108198984
20
97.339735148534174
42
-0.41421126449290185
10
360.11151101387014
20
88.339805951925086
10
360.11246066434973
20
-32.372693940136429
42
-0.41421586657864529
10
351.1124606646282
20
-41.372764743527348
10
6.5000608704402465
20
-41.372783750640181
42
-0.41421801876939845
10
-2.4999049157240885
20
-32.37261260291433
10
-2.4976093957606169
20
88.339898858502934
42
-0.41420798628164923
10
6.5023904083618334
20
97.339727710712012
10
277.50000417179012
20
97.339733538167337
42
-0.41421356869471465
10
286.50000436604034
20
88.339733538167337
10
286.50000436604034
20
88.000001728534713
42
0.41421356237310542
10
288.50000436604029
20
86.000001728534713
10
299.50000436604023
20
86.000001728534784
42
0.41421356237312884
10
301.50000436604023
20
88.000001728534983
10
301.50000436604023
20
88.339734250418189
42
-0.41421355605147203
10
310.50000417178984
20
97.339734250418189
0
LWPOLYLINE
5
116
100
AcDbEntity
8
0
100
AcDbPolyline
90
8
70
1
43
0.0
10
131.03749999999999
20
9.5772352564726404
42
-0.41421356237313406
10
130.53750000000002
20
9.0772352564726511
10
117.53749999999999
20
9.0772352564726511
42
-0.41421356237310542
10
117.03749999999999
20
9.5772352564726404
10
117.03749999999999
20
22.577235256472683
42
-0.41421356237312101
10
117.53750000000002
20
23.077235256472708
10
130.53750000000002
20
23.07723525647269
42
-0.41421356237311585
10
131.03749999999991
20
22.577235256472719
0
LWPOLYLINE
5
117
100
AcDbEntity
8
0
100
AcDbPolyline
90
8
70
1
43
0.0
10
149.58750000000003
20
9.0772352564726422
10
136.58750000000001
20
9.0772352564726422
42
-0.41421356237310542
10
136.08750000000001
20
9.5772352564726315
10
136.08750000000001
20
22.577235256472683
42
-0.4142135623730846
10
136.58750000000001
20
23.077235256472612
10
149.58750000000003
20
23.07723525647269
42
-0.41421356237310542
10
150.08750000000001
20
22.577235256472683
10
150.08750000000003
20
9.5772352564726404
42
-0.41421356237307422
0
LWPOLYLINE
5
118
100
AcDbEntity
8
0
100
AcDbPolyline
90
8
70
1
43
0.0
10
73.387499999999903
20
-15.022764743527357
42
-0.41421356237308071
10
73.887499999999903
20
-15.522764743527357
10
73.887499999999903
20
-28.522764743527365
42
-0.41421356237309243
10
73.387499999999903
20
-29.022764743527389
10
58.006249999999895
20
-29.022764743527375
42
-0.4142135623730846
10
57.50624999999993
20
-28.522764743527361
10
57.506249999999909
20
-15.522764743527357
42
-0.41421356237308721
10
58.006249999999895
20
-15.022764743527359
0
LWPOLYLINE
5
119
100
AcDbEntity
8
0
100
AcDbPolyline
90
8
70
1
43
0.0
10
73.387499999999903
20
9.0772352564726511
10
60.387499999999896
20
9.0772352564726333
42
-0.41421356237308982
10
59.887499999999896
20
9.5772352564726404
10
59.887499999999896
20
22.577235256472719
42
-0.41421356237311063
10
60.387499999999896
20
23.077235256472708
10
73.387499999999903
20
23.077235256472708
42
-0.41421356237307422
10
73.887499999999903
20
22.577235256472719
10
73.887499999999903
20
9.5772352564726404
42
-0.41421356237308721
0
LWPOLYLINE
5
120
100
AcDbEntity
8
0
100
AcDbPolyline
90
8
70
1
43
0.0
10
54.837499999999899
20
9.5772352564726404
42
-0.41421356237307944
10
54.337499999999892
20
9.0772352564726422
10
41.33749999999992
20
9.0772352564726511
42
-0.41421356237308721
10
40.837499999999892
20
9.577235256472644
10
40.837499999999906
20
22.577235256472719
42
-0.41421356237309503
10
41.337499999999913
20
23.077235256472708
10
54.337499999999892
20
23.077235256472708
42
-0.41421356237307422
10
54.837499999999899
20
22.577235256472719
0
LWPOLYLINE
5
121
100
AcDbEntity
8
0
100
AcDbPolyline
90
8
70
1
43
0.0
10
298.51249999999999
20
-15.0227647435274
10
311.51249999999999
20
-15.022764743527368
42
-0.41421356237305212
10
312.0125000000001
20
-15.522764743527409
10
312.0125000000001
20
-28.522764743527389
42
-0.4142135623731783
10
311.51249999999999
20
-29.022764743527429
10
298.51249999999999
20
-29.022764743527432
42
-0.41421356237301177
10
298.0125000000001
20
-28.522764743527389
10
298.01249999999987
20
-15.5227647435274
42
-0.41421356237310414
0
LWPOLYLINE
5
122
100
AcDbEntity
8
0
100
AcDbPolyline
90
8
70
1
43
0.0
10
28.643749999999912
20
22.577235256472719
10
28.643749999999923
20
9.5772352564726493
42
-0.41421356237308204
10
28.143749999999912
20
9.0772352564726422
10
10.381249999999911
20
9.0772352564726493
42
-0.41421356237308593
10
9.8812499999999091
20
9.5772352564726493
10
9.8812499999999392
20
22.577235256472719
42
-0.41421356237309631
10
10.381249999999904
20
23.077235256472612
10
28.143749999999912
20
23.077235256472708
42
-0.41421356237307944
0
LWPOLYLINE
5
123
100
AcDbEntity
8
0
100
AcDbPolyline
90
8
70
1
43
0.0
10
202.47500000000002
20
41.62723525647263
10
202.47500000000008
20
28.627235256472687
42
-0.41421356237290252
10
201.97500000000002
20
28.127235256472645
10
188.97500000000002
20
28.127235256472662
42
-0.41421356237298057
10
188.47499999999999
20
28.627235256472687
10
188.47499999999999
20
41.62723525647263
42
-0.41421356237300661
10
188.97500000000002
20
42.12723525647263
10
201.97500000000008
20
42.127235256472666
42
-0.41421356237311063
0
LWPOLYLINE
5
124
100
AcDbEntity
8
0
100
AcDbPolyline
90
8
70
1
43
0.0
10
317.0625
20
47.67723525647267
10
317.06250000000006
20
60.677235256472656
42
-0.41421356237301177
10
317.5625
20
61.177235256472642
10
330.56249999999989
20
61.177235256472571
42
-0.41421356237340717
10
331.06249999999989
20
60.677235256472706
10
331.0625
20
47.67723525647267
42
-0.41421356237315227
10
330.5625
20
47.17723525647267
10
317.5625
20
47.177235256472656
42
-0.41421356237301699
0
LWPOLYLINE
5
125
100
AcDbEntity
8
0
100
AcDbPolyline
90
8
70
1
43
0.0
10
50.862499999999891
20
-9.9727647435273958
42
-0.41421356237308204
10
50.362499999999898
20
-9.4727647435273745
10
50.362499999999898
20
3.5272352564726583
42
-0.4142135623730846
10
50.862499999999898
20
4.0272352564726743
10
63.862499999999898
20
4.0272352564726566
42
-0.414213562373069
10
64.362499999999898
20
3.5272352564726583
10
64.362499999999898
20
-9.4727647435273745
42
-0.41421356237311063
10
63.862499999999898
20
-9.9727647435273781
0
LWPOLYLINE
5
126
100
AcDbEntity
8
0
100
AcDbPolyline
90
8
70
1
43
0.0
10
245.625
20
-15.522764743527379
10
245.625
20
-28.522764743527404
42
0.41421356237322249
10
246.125
20
-29.022764743527407
10
261.50625000000002
20
-29.022764743527397
42
0.4142135623730534
10
262.00625000000002
20
-28.522764743527354
10
262.00625000000002
20
-15.522764743527379
42
0.41421356237309503
10
261.50625000000002
20
-15.022764743527411
10
246.125
20
-15.02276474352737
42
0.41421356237313794
0
LWPOLYLINE
5
127
100
AcDbEntity
8
0
100
AcDbPolyline
90
8
70
1
43
0.0
10
336.61250000000001
20
-29.02276474352734
42
-0.41421356237310802
10
336.11250000000013
20
-28.522764743527418
10
336.11250000000013
20
-15.5227647435274
42
-0.4142135623733903
10
336.61250000000007
20
-15.022764743527368
10
349.61250000000001
20
-15.022764743527455
42
-0.41421356237324591
10
350.11250000000013
20
-15.5227647435274
10
350.11250000000013
20
-28.522764743527414
42
-0.41421356237320167
10
349.61250000000001
20
-29.022764743527411
0
LWPOLYLINE
5
128
100
AcDbEntity
8
0
100
AcDbPolyline
90
8
70
1
43
0.0
10
183.42500000000001
20
71.489735256472414
42
-0.41421356237314705
10
182.92500000000001
20
70.9897352564724
10
169.92500000000001
20
70.989735256472315
42
-0.4142135623730846
10
169.42500000000001
20
71.489735256472414
10
169.42500000000001
20
84.489735256472201
42
-0.41421356237306384
10
169.9250000000001
20
84.989735256472301
10
182.92500000000004
20
84.989735256472301
42
-0.4142135623730846
10
183.42500000000001
20
84.489735256472201
0
LWPOLYLINE
5
129
100
AcDbEntity
8
0
100
AcDbPolyline
90
8
70
1
43
0.0
10
245.33750000000001
20
22.577235256472683
10
245.33750000000001
20
9.5772352564726226
42
-0.41421356237298318
10
244.83750000000003
20
9.0772352564726191
10
231.83750000000003
20
9.0772352564726333
42
-0.41421356237322249
10
231.33750000000006
20
9.5772352564726084
10
231.33750000000003
20
22.577235256472683
42
-0.41421356237302737
10
231.83750000000003
20
23.077235256472708
10
244.83750000000001
20
23.07723525647269
42
-0.41421356237313667
0
LWPOLYLINE
5
130
100
AcDbEntity
8
0
100
AcDbPolyline
90
8
70
1
43
0.0
10
69.412499999999909
20
-9.4727647435273745
10
69.412499999999895
20
3.5272352564726583
42
-0.4142135623730534
10
69.912499999999923
20
4.0272352564726743
10
82.912499999999895
20
4.0272352564726832
42
-0.41421356237304302
10
83.412499999999895
20
3.5272352564726583
10
83.412499999999895
20
-9.4727647435273745
42
-0.41421356237312884
10
82.912499999999895
20
-9.9727647435273994
10
69.912499999999923
20
-9.9727647435273923
42
-0.41421356237310542
0
LWPOLYLINE
5
131
100
AcDbEntity
8
0
100
AcDbPolyline
90
8
70
1
43
0.0
10
65.14999999999992
20
84.989735256472301
10
78.14999999999992
20
84.989735256472301
42
-0.41421356237307422
10
78.64999999999992
20
84.489735256472187
10
78.649999999999949
20
71.489735256472414
42
-0.41421356237304302
10
78.14999999999992
20
70.9897352564724
10
65.14999999999992
20
70.989735256472301
42
-0.41421356237306384
10
64.649999999999935
20
71.489735256472414
10
64.649999999999935
20
84.489735256472201
42
-0.41421356237313667
0
LWPOLYLINE
5
132
100
AcDbEntity
8
0
100
AcDbPolyline
90
8
70
1
43
0.0
10
317.0625
20
84.489735256472102
42
-0.41421356237294937
10
317.5625
20
84.989735256472215
10
330.56250000000006
20
84.989735256472173
42
-0.41421356237290774
10
331.06249999999989
20
84.489735256472102
10
331.0625
20
71.489735256472414
42
-0.41421356237306384
10
330.5625
20
70.9897352564724
10
317.5625
20
70.989735256472315
42
-0.41421356237306384
10
317.0625
20
71.489735256472414
0
LWPOLYLINE
5
133
100
AcDbEntity
8
0
100
AcDbPolyline
90
8
70
1
43
0.0
10
317.5625
20
-9.9727647435273923
42
-0.41421356237305862
10
317.06250000000011
20
-9.47276474352741
10
317.0625
20
3.5272352564726317
42
-0.41421356237297796
10
317.5625
20
4.0272352564726299
10
330.5625
20
4.0272352564725455
42
-0.41421356237318607
10
331.0625
20
3.5272352564726317
10
331.06250000000011
20
-9.47276474352741
42
-0.41421356237319651
10
330.5625
20
-9.9727647435273923
0
LWPOLYLINE
5
134
100
AcDbEntity
8
0
100
AcDbPolyline
90
8
70
1
43
0.0
10
121.51250000000002
20
-9.4727647435273923
42
-0.41421356237311585
10
121.0125
20
-9.9727647435273692
10
108.01250000000002
20
-9.9727647435274172
42
-0.41421356237306384
10
107.5125
20
-9.4727647435273923
10
107.5125
20
3.5272352564726539
42
-0.414213562373069
10
108.01250000000002
20
4.0272352564726521
10
121.0125
20
4.027235256472661
42
-0.41421356237312101
10
121.51250000000002
20
3.527235256472645
0
LWPOLYLINE
5
135
100
AcDbEntity
8
0
100
AcDbPolyline
90
8
70
1
43
0.0
10
111.4875
20
23.077235256472708
42
-0.41421356237310542
10
111.98750000000001
20
22.577235256472719
10
111.98750000000001
20
9.5772352564726404
42
-0.41421356237310542
10
111.4875
20
9.0772352564726422
10
98.487499999999883
20
9.0772352564726297
42
-0.41421356237310802
10
97.987499999999926
20
9.5772352564726404
10
97.987499999999955
20
22.577235256472683
42
-0.41421356237310542
10
98.487499999999883
20
23.077235256472612
0
LWPOLYLINE
5
136
100
AcDbEntity
8
0
100
AcDbPolyline
90
8
70
1
43
0.0
10
235.8125
20
3.527235256472645
10
235.8125
20
-9.4727647435273976
42
-0.41421356237290252
10
235.3125
20
-9.9727647435274278
10
222.31250000000003
20
-9.9727647435274314
42
-0.41421356237311063
10
221.81250000000009
20
-9.4727647435273976
10
221.81250000000003
20
3.527235256472645
42
-0.41421356237302481
10
222.31250000000003
20
4.027235256472661
10
235.3125
20
4.0272352564726388
42
-0.41421356237304563
0
LWPOLYLINE
5
137
100
AcDbEntity
8
0
100
AcDbPolyline
90
8
70
1
43
0.0
10
336.11250000000013
20
47.67723525647267
10
336.11250000000013
20
60.677235256472656
42
-0.41421356237301177
10
336.61250000000001
20
61.177235256472699
10
349.61250000000007
20
61.177235256472585
42
-0.41421356237294937
10
350.11249999999984
20
60.677235256472656
10
350.11250000000013
20
47.67723525647267
42
-0.4142135623731939
10
349.61250000000001
20
47.17723525647267
10
336.61250000000001
20
47.177235256472684
42
-0.41421356237298057
0
LWPOLYLINE
5
138
100
AcDbEntity
8
0
100
AcDbPolyline
90
8
70
1
43
0.0
10
259.125
20
42.127235256472595
42
-0.41421356237315227
10
259.625
20
41.62723525647263
10
259.625
20
28.627235256472652
42
-0.41421356237292856
10
259.125
20
28.127235256472645
10
246.125
20
28.127235256472645
42
-0.41421356237313667
10
245.625
20
28.627235256472652
10
245.625
20
41.62723525647263
42
-0.4142135623732251
10
246.125
20
42.12723525647263
0
LWPOLYLINE
5
139
100
AcDbEntity
8
0
100
AcDbPolyline
90
8
70
1
43
0.0
10
317.5625
20
42.127235256472602
10
330.5625
20
42.127235256472602
42
-0.41421356237318868
10
331.06250000000011
20
41.627235256472616
10
331.0625
20
28.627235256472652
42
-0.41421356237320428
10
330.56249999999989
20
28.127235256472645
10
317.5625
20
28.127235256472645
42
-0.41421356237313667
10
317.0625
20
28.627235256472652
10
317.06250000000011
20
41.627235256472602
42
-0.41421356237298057
0
LWPOLYLINE
5
140
100
AcDbEntity
8
0
100
AcDbPolyline
90
8
70
1
43
0.0
10
150.375
20
28.627235256472687
10
150.375
20
41.62723525647263
42
-0.41421356237308982
10
150.875
20
42.127235256472645
10
163.87499999999991
20
42.127235256472687
42
-0.41421356237307944
10
164.375
20
41.62723525647263
10
164.375
20
28.627235256472687
42
-0.41421356237311585
10
163.875
20
28.127235256472645
10
150.875
20
28.12723525647268
42
-0.41421356237306384
0
LWPOLYLINE
5
141
100
AcDbEntity
8
0
100
AcDbPolyline
90
8
70
1
43
0.0
10
7.9999999999999316
20
47.177235256472699
42
-0.41421356237310997
10
7.4999999999999325
20
47.677235256472692
10
7.4999999999999218
20
60.677235256472684
42
-0.41421356237305473
10
7.9999999999999316
20
61.177235256472699
10
20.999999999999908
20
61.177235256472642
42
-0.41421356237310542
10
21.499999999999911
20
60.677235256472684
10
21.499999999999911
20
47.677235256472684
42
-0.41421356237309764
10
20.999999999999908
20
47.177235256472699
0
LWPOLYLINE
5
142
100
AcDbEntity
8
0
100
AcDbPolyline
90
8
70
1
43
0.0
10
188.97500000000002
20
70.989735256472315
42
-0.41421356237306384
10
188.47499999999999
20
71.489735256472414
10
188.47500000000002
20
84.489735256472201
42
-0.41421356237298057
10
188.97500000000002
20
84.989735256472215
10
201.97499999999997
20
84.989735256472301
42
-0.41421356237310542
10
202.47500000000002
20
84.489735256472201
10
202.47500000000002
20
71.489735256472414
42
-0.41421356237314705
10
201.97500000000002
20
70.9897352564724
0
LWPOLYLINE
5
143
100
AcDbEntity
8
0
100
AcDbPolyline
90
8
70
1
43
0.0
10
331.0625
20
-15.5227647435274
10
331.06250000000011
20
-28.522764743527414
42
-0.41421356237319651
10
330.5625
20
-29.022764743527397
10
317.5625
20
-29.022764743527407
42
-0.41421356237312884
10
317.0625
20
-28.522764743527414
10
317.0625
20
-15.5227647435274
42
-0.4142135623730222
10
317.5625
20
-15.022764743527389
10
330.5625
20
-15.02276474352745
42
-0.41421356237320689
0
LWPOLYLINE
5
144
100
AcDbEntity
8
0
100
AcDbPolyline
90
8
70
1
43
0.0
10
34.193749999999902
20
-29.022764743527368
42
-0.41421356237311063
10
33.693749999999902
20
-28.522764743527361
10
33.693749999999909
20
-15.522764743527349
42
-0.41421356237308854
10
34.193749999999909
20
-15.02276474352735
10
49.574999999999889
20
-15.022764743527347
42
-0.41421356237310281
10
50.074999999999932
20
-15.522764743527357
10
50.074999999999896
20
-28.522764743527361
42
-0.41421356237308721
10
49.574999999999896
20
-29.022764743527368
0
LWPOLYLINE
5
145
100
AcDbEntity
8
0
100
AcDbPolyline
90
8
70
1
43
0.0
10
192.45000000000002
20
47.17723525647267
10
179.44999999999999
20
47.177235256472713
42
-0.41421356237315227
10
178.94999999999999
20
47.67723525647267
10
178.95000000000005
20
60.677235256472656
42
-0.41421356237301177
10
179.44999999999999
20
61.177235256472642
10
192.44999999999999
20
61.177235256472642
42
-0.41421356237312623
10
192.95000000000002
20
60.677235256472656
10
192.95000000000002
20
47.67723525647267
42
-0.4142135623732251
0
LWPOLYLINE
5
146
100
AcDbEntity
8
0
100
AcDbPolyline
90
8
70
1
43
0.0
10
131.32499999999999
20
84.489735256472201
42
-0.41421356237311585
10
131.82499999999999
20
84.989735256472301
10
144.8249999999999
20
84.989735256472287
42
-0.41421356237313667
10
145.32499999999999
20
84.489735256472201
10
145.32499999999996
20
71.489735256472414
42
-0.41421356237306384
10
144.8249999999999
20
70.9897352564724
10
131.82499999999999
20
70.989735256472301
42
-0.4142135623730846
10
131.32499999999999
20
71.489735256472414
0
LWPOLYLINE
5
147
100
AcDbEntity
8
0
100
AcDbPolyline
90
16
70
1
43
0.0
10
256.09325000000013
20
-11.472764743527442
42
-0.41421356237321727
10
255.59325000000001
20
-11.972764743527398
10
249.59325000000007
20
-11.972764743527458
42
-0.41421356237307944
10
249.09325000000001
20
-11.472764743527442
10
249.09325000000001
20
-10.47276474352744
42
0.41421356237317308
10
248.59325000000001
20
-9.9727647435274402
10
248.50625000000002
20
-9.9727647435273958
42
-0.41421356237313145
10
248.00624999999999
20
-9.4727647435273976
10
248.00624999999999
20
3.527235256472645
42
-0.41421356237297535
10
248.50625000000002
20
4.027235256472661
10
271.03125
20
4.0272352564726344
42
-0.41421356237313406
10
271.53125
20
3.5272352564726317
10
271.53125
20
-9.4727647435273976
42
-0.4142135623732251
10
271.03125
20
-9.97276474352741
10
256.59325000000001
20
-9.9727647435274118
42
0.41421356237294155
10
256.09325000000007
20
-10.47276474352744
0
LWPOLYLINE
5
148
100
AcDbEntity
8
0
100
AcDbPolyline
90
8
70
1
43
0.0
10
174.18749999999991
20
22.577235256472683
42
-0.4142135623732251
10
174.6875
20
23.07723525647269
10
187.68749999999997
20
23.077235256472708
42
-0.41421356237323032
10
188.1875
20
22.577235256472683
10
188.1875
20
9.5772352564726404
42
-0.41421356237314444
10
187.6875
20
9.0772352564726333
10
174.6875
20
9.0772352564726191
42
-0.41421356237314444
10
174.1875
20
9.5772352564726404
0
LWPOLYLINE
5
149
100
AcDbEntity
8
0
100
AcDbPolyline
90
8
70
1
43
0.0
10
274.69999999999999
20
84.989735256472215
10
287.69999999999993
20
84.989735256472301
42
-0.41421356237310542
10
288.19999999999999
20
84.489735256472201
10
288.19999999999999
20
71.489735256472414
42
-0.41421356237314705
10
287.69999999999999
20
70.9897352564724
10
274.69999999999999
20
70.989735256472301
42
-0.41421356237313667
10
274.20000000000005
20
71.489735256472414
10
274.20000000000005
20
84.489735256472201
42
-0.41421356237294937
0
LWPOLYLINE
5
150
100
AcDbEntity
8
0
100
AcDbPolyline
90
16
70
1
43
0.0
10
201.50000000000003
20
-14.52276474352737
10
201.50000000000011
20
-13.522764743527361
42
-0.4142135623730781
10
202.00000000000003
20
-13.022764743527329
10
208
20
-13.022764743527356
42
-0.41421356237313534
10
208.5
20
-13.522764743527361
10
208.5
20
-14.52276474352737
42
0.41421356237306511
10
209.00000000000009
20
-15.022764743527329
10
213.88125000000002
20
-15.022764743527336
42
-0.4142135623730534
10
214.38124999999999
20
-15.522764743527379
10
214.38124999999999
20
-33.022764743527489
42
-0.41421356237311585
10
213.88125000000002
20
-33.522764743527418
10
200.88125000000002
20
-33.522764743527411
42
-0.41421356237309503
10
200.38125000000002
20
-33.022764743527404
10
200.38125000000002
20
-15.522764743527379
42
-0.41421356237322382
10
200.88125000000002
20
-15.022764743527368
10
201
20
-15.02276474352742
42
0.41421356237295326
0
LWPOLYLINE
5
151
100
AcDbEntity
8
0
100
AcDbPolyline
90
15
70
1
43
0.0
10
279.46924999999999
20
-11.972764743527469
10
273.46924999999999
20
-11.972764743527444
42
-0.41421356237307161
10
272.96924999999999
20
-11.472764743527442
10
272.96924999999999
20
2.5272352564726308
42
-0.41421356237298057
10
273.46924999999999
20
3.0272352564726024
10
273.69999999999999
20
3.0272352564726068
42
0.41421356237304302
10
274.2000000000001
20
3.5272352564726317
42
-0.41421356237301177
10
274.69999999999999
20
4.0272352564726432
10
287.69999999999999
20
4.0272352564726344
42
-0.41421356237313406
10
288.19999999999999
20
3.5272352564726317
10
288.19999999999999
20
-9.47276474352741
42
-0.41421356237317569
10
287.69999999999999
20
-9.97276474352741
10
280.46924999999999
20
-9.9727647435273887
42
0.41421356237295454
10
279.96924999999999
20
-10.47276474352744
10
279.96924999999999
20
-11.472764743527442
42
-0.41421356237295587
0
LWPOLYLINE
5
152
100
AcDbEntity
8
0
100
AcDbPolyline
90
8
70
1
43
0.0
10
140.0625
20
-9.9727647435273994
10
127.0625
20
-9.9727647435273994
42
-0.41421356237309503
10
126.5625
20
-9.4727647435273923
10
126.5625
20
3.5272352564726539
42
-0.41421356237309243
10
127.0625
20
4.0272352564726521
10
140.0625
20
4.0272352564726654
42
-0.41421356237304563
10
140.5625
20
3.5272352564726539
10
140.5625
20
-9.4727647435273923
42
-0.41421356237304041
0
LWPOLYLINE
5
153
100
AcDbEntity
8
0
100
AcDbPolyline
90
8
70
1
43
0.0
10
217.05000000000001
20
47.67723525647267
10
217.05000000000007
20
60.677235256472656
42
-0.41421356237301177
10
217.55000000000001
20
61.177235256472642
10
230.55000000000004
20
61.177235256472656
42
-0.41421356237311585
10
231.05000000000007
20
60.677235256472656
10
231.05000000000004
20
47.67723525647267
42
-0.41421356237299617
10
230.55000000000007
20
47.177235256472649
10
217.55000000000001
20
47.177235256472713
42
-0.41421356237315227
0
LWPOLYLINE
5
154
100
AcDbEntity
8
0
100
AcDbPolyline
90
8
70
1
43
0.0
10
165.16249999999999
20
-9.9727647435274136
42
-0.41421356237314444
10
164.66249999999999
20
-9.4727647435273923
10
164.66250000000002
20
3.527235256472645
42
-0.41421356237298579
10
165.16249999999999
20
4.027235256472661
10
178.16249999999999
20
4.027235256472661
42
-0.41421356237301699
10
178.66250000000002
20
3.527235256472645
10
178.66250000000002
20
-9.4727647435273923
42
-0.41421356237311846
10
178.16249999999999
20
-9.9727647435274278
0
LWPOLYLINE
5
155
100
AcDbEntity
8
0
100
AcDbPolyline
90
8
70
1
43
0.0
10
92.437499999999886
20
9.0772352564726511
10
79.437499999999915
20
9.0772352564726475
42
-0.41421356237310802
10
78.937499999999901
20
9.5772352564726404
10
78.937499999999901
20
22.577235256472719
42
-0.41421356237307422
10
79.437499999999915
20
23.077235256472708
10
92.437499999999886
20
23.077235256472708
42
-0.4142135623730534
10
92.937499999999901
20
22.577235256472719
10
92.937499999999901
20
9.5772352564726404
42
-0.41421356237307161
0
LWPOLYLINE
5
156
100
AcDbEntity
8
0
100
AcDbPolyline
90
8
70
1
43
0.0
10
116.75
20
47.67723525647267
42
-0.41421356237308982
10
116.25
20
47.17723525647267
10
103.25000000000001
20
47.177235256472663
42
-0.4142135623730534
10
102.75
20
47.67723525647267
10
102.75000000000003
20
60.677235256472684
42
-0.4142135623730534
10
103.25000000000001
20
61.177235256472642
10
116.25
20
61.177235256472642
42
-0.41421356237312623
10
116.75
20
60.677235256472684
0
LWPOLYLINE
5
157
100
AcDbEntity
8
0
100
AcDbPolyline
90
8
70
1
43
0.0
10
59.599999999999937
20
60.677235256472684
10
59.599999999999902
20
47.67723525647267
42
-0.414213562373069
10
59.099999999999895
20
47.17723525647267
10
46.099999999999923
20
47.177235256472699
42
-0.41421356237314183
10
45.599999999999923
20
47.677235256472692
10
45.599999999999916
20
60.677235256472684
42
-0.41421356237307422
10
46.099999999999923
20
61.177235256472699
10
59.09999999999993
20
61.177235256472642
42
-0.4142135623730846
0
LWPOLYLINE
5
158
100
AcDbEntity
8
0
100
AcDbPolyline
90
8
70
1
43
0.0
10
227.07499999999999
20
28.127235256472645
42
-0.41421356237313667
10
226.57499999999999
20
28.627235256472652
10
226.57499999999999
20
41.62723525647263
42
-0.4142135623732251
10
227.07499999999999
20
42.12723525647263
10
240.07499999999999
20
42.127235256472595
42
-0.41421356237315227
10
240.57500000000002
20
41.62723525647263
10
240.57500000000002
20
28.627235256472652
42
-0.41421356237292856
10
240.07499999999999
20
28.127235256472645
0
LWPOLYLINE
5
159
100
AcDbEntity
8
0
100
AcDbPolyline
90
8
70
1
43
0.0
10
164.375
20
71.489735256472414
42
-0.41421356237314705
10
163.875
20
70.9897352564724
10
150.875
20
70.989735256472301
42
-0.4142135623730846
10
150.375
20
71.489735256472414
10
150.375
20
84.489735256472201
42
-0.41421356237311585
10
150.875
20
84.989735256472301
10
163.87500000000003
20
84.989735256472301
42
-0.4142135623730846
10
164.375
20
84.489735256472201
0
LWPOLYLINE
5
160
100
AcDbEntity
8
0
100
AcDbPolyline
90
8
70
1
43
0.0
10
78.14999999999992
20
47.177235256472699
42
0.41421356237308982
10
78.649999999999935
20
47.67723525647267
10
78.649999999999935
20
60.677235256472684
42
0.41421356237313667
10
78.14999999999992
20
61.177235256472727
10
65.14999999999992
20
61.177235256472635
42
0.41421356237310542
10
64.64999999999992
20
60.677235256472684
10
64.64999999999992
20
47.67723525647267
42
0.41421356237311063
10
65.14999999999992
20
47.177235256472699
0
LWPOLYLINE
5
161
100
AcDbEntity
8
0
100
AcDbPolyline
90
8
70
1
43
0.0
10
222.31250000000003
20
-15.022764743527329
10
237.69374999999999
20
-15.022764743527365
42
-0.41421356237301699
10
238.19375000000008
20
-15.522764743527379
10
238.19375000000002
20
-28.5227647435274
42
-0.41421356237325113
10
237.69374999999999
20
-29.022764743527389
10
222.31250000000003
20
-29.022764743527382
42
-0.4142135623730378
10
221.81250000000009
20
-28.5227647435274
10
221.81250000000009
20
-15.522764743527379
42
-0.41421356237308204
0
LWPOLYLINE
5
162
100
AcDbEntity
8
0
100
AcDbPolyline
90
8
70
1
43
0.0
10
198.00000000000006
20
60.677235256472656
42
-0.41421356237301177
10
198.5
20
61.177235256472642
10
211.50000000000006
20
61.177235256472642
42
-0.41421356237310542
10
212.00000000000003
20
60.677235256472656
10
212.00000000000003
20
47.67723525647267
42
-0.41421356237303258
10
211.50000000000009
20
47.177235256472649
10
198.5
20
47.177235256472692
42
-0.41421356237310025
10
198.00000000000011
20
47.67723525647267
0
LWPOLYLINE
5
163
100
AcDbEntity
8
0
100
AcDbPolyline
90
8
70
1
43
0.0
10
121.8
20
47.67723525647267
10
121.8
20
60.677235256472684
42
-0.41421356237310542
10
122.30000000000001
20
61.177235256472642
10
135.30000000000001
20
61.177235256472699
42
-0.41421356237307422
10
135.80000000000001
20
60.677235256472684
10
135.80000000000001
20
47.67723525647267
42
-0.41421356237308982
10
135.30000000000001
20
47.17723525647267
10
122.30000000000001
20
47.177235256472699
42
-0.41421356237311585
0
LWPOLYLINE
5
164
100
AcDbEntity
8
0
100
AcDbPolyline
90
8
70
1
43
0.0
10
311.51249999999999
20
61.177235256472585
42
-0.41421356237311585
10
312.0125000000001
20
60.677235256472656
10
312.0125000000001
20
47.67723525647267
42
-0.41421356237303258
10
311.51249999999999
20
47.177235256472628
10
298.51249999999999
20
47.177235256472656
42
-0.41421356237301699
10
298.01249999999999
20
47.67723525647267
10
298.01250000000005
20
60.677235256472656
42
-0.41421356237301177
10
298.51249999999999
20
61.177235256472642
0
LWPOLYLINE
5
165
100
AcDbEntity
8
0
100
AcDbPolyline
90
24
70
1
43
0.0
10
256.73700000000002
20
45.177235256472663
42
-0.41421356237300661
10
256.23700000000002
20
45.677235256472663
10
256.23699999999997
20
46.677235256472677
42
0.41421356237295454
10
255.73700000000002
20
47.177235256472699
10
255.65000000000001
20
47.177235256472656
42
-0.41421356237310025
10
255.15000000000001
20
47.67723525647267
10
255.15000000000001
20
60.677235256472656
42
-0.41421356237312623
10
255.65000000000001
20
61.177235256472642
10
287.69999999999987
20
61.177235256472628
42
-0.41421356237309503
10
288.19999999999999
20
60.677235256472656
10
288.19999999999999
20
47.67723525647267
42
-0.4142135623732251
10
287.69999999999999
20
47.17723525647267
10
287.613
20
47.17723525647267
42
0.41421356237304818
10
287.113
20
46.677235256472677
10
287.113
20
45.677235256472663
42
-0.4142135623732251
10
286.613
20
45.177235256472663
10
280.61300000000006
20
45.177235256472663
42
-0.41421356237304818
10
280.113
20
45.677235256472663
10
280.113
20
46.677235256472542
42
0.41421356237294416
10
279.613
20
47.177235256472628
10
263.73700000000002
20
47.177235256472684
42
0.41421356237307422
10
263.23699999999991
20
46.677235256472677
10
263.23700000000002
20
45.677235256472663
42
-0.41421356237301177
10
262.73700000000008
20
45.17723525647267
0
LWPOLYLINE
5
166
100
AcDbEntity
8
0
100
AcDbPolyline
90
8
70
1
43
0.0
10
84.199999999999932
20
70.989735256472315
42
-0.41421356237310542
10
83.699999999999889
20
71.489735256472414
10
83.699999999999889
20
84.489735256472201
42
-0.41421356237310542
10
84.199999999999932
20
84.989735256472301
10
97.199999999999974
20
84.989735256472315
42
-0.41421356237304302
10
97.69999999999996
20
84.489735256472201
10
97.699999999999946
20
71.489735256472414
42
-0.4142135623730534
10
97.199999999999974
20
70.9897352564724
0
LWPOLYLINE
5
167
100
AcDbEntity
8
0
100
AcDbPolyline
90
8
70
1
43
0.0
10
250.09999999999997
20
71.489735256472414
42
-0.41421356237298057
10
249.60000000000002
20
70.9897352564724
10
236.59999999999997
20
70.989735256472315
42
-0.4142135623730846
10
236.09999999999999
20
71.489735256472414
10
236.09999999999999
20
84.489735256472201
42
-0.41421356237310542
10
236.59999999999999
20
84.989735256472301
10
249.60000000000002
20
84.989735256472301
42
-0.41421356237306384
10
250.10000000000008
20
84.489735256472201
0
LWPOLYLINE
5
168
100
AcDbEntity
8
0
100
AcDbPolyline
90
8
70
1
43
0.0
10
236.09999999999999
20
47.67723525647267
10
236.09999999999999
20
60.677235256472656
42
-0.41421356237312623
10
236.59999999999999
20
61.177235256472642
10
249.60000000000002
20
61.177235256472642
42
-0.41421356237304302
10
250.10000000000002
20
60.677235256472656
10
250.10000000000014
20
47.67723525647267
42
-0.41421356237315748
10
249.60000000000002
20
47.17723525647267
10
236.59999999999999
20
47.177235256472628
42
-0.41421356237311585
0
LWPOLYLINE
5
169
100
AcDbEntity
8
0
100
AcDbPolyline
90
8
70
1
43
0.0
10
312.01250000000016
20
71.489735256472414
42
-0.41421356237311585
10
311.51249999999999
20
70.989735256472315
10
298.51249999999999
20
70.989735256472315
42
-0.41421356237306384
10
298.01249999999999
20
71.489735256472414
10
298.01249999999987
20
84.489735256472102
42
-0.41421356237312623
10
298.51249999999999
20
84.989735256472215
10
311.5125000000001
20
84.989735256472187
42
-0.41421356237312623
10
312.01250000000022
20
84.489735256472102
0
LWPOLYLINE
5
170
100
AcDbEntity
8
0
100
AcDbPolyline
90
38
70
1
43
0.0
10
254.35575
20
7.0772352564725738
42
-0.41421356237305079
10
253.85575000000003
20
7.577235256472612
10
253.85575000000003
20
8.5772352564725054
42
0.41421356237318085
10
253.35575000000009
20
9.0772352564725356
10
250.88750000000002
20
9.0772352564724947
42
-0.41421356237311324
10
250.38749999999999
20
9.5772352564725338
10
250.38749999999999
20
22.57723525647247
42
-0.41421356237311063
10
250.88750000000007
20
23.077235256472495
10
271.31875000000002
20
23.077235256472697
42
0.41421356237310542
10
271.81875000000008
20
23.57723525647269
10
271.81875000000002
20
27.627235256472645
42
0.41421356237318868
10
271.31875000000002
20
28.127235256472602
10
269.93750000000006
20
28.127235256472627
42
-0.41421356237323032
10
269.4375
20
28.627235256472652
10
269.4375
20
41.62723525647263
42
-0.4142135623732251
10
269.9375
20
42.12723525647263
10
282.9375
20
42.127235256472567
42
-0.41421356237311585
10
283.43750000000011
20
41.62723525647263
10
283.4375
20
41.540235256472535
42
0.41421356237312623
10
283.9375
20
41.040235256472492
10
284.31875000000002
20
41.040235256472528
42
-0.4142135623730846
10
284.81875000000002
20
40.540235256472499
10
284.81875000000002
20
33.102235256472483
42
0.4142135623731939
10
285.31875000000002
20
32.602235256472511
42
-0.41421356237311063
10
285.81875000000002
20
32.102235256472476
10
285.81875000000002
20
19.10223525647254
42
-0.41421356237323553
10
285.31875000000002
20
18.602235256472497
42
0.41421356237311585
10
284.81875000000014
20
18.102235256472525
10
284.81874999999997
20
7.577235256472612
42
-0.4142135623730534
10
284.31875000000002
20
7.0772352564725916
10
278.23174999999998
20
7.0772352564726182
42
-0.41421356237312884
10
277.73174999999998
20
7.577235256472612
10
277.73174999999992
20
8.577235256472612
42
0.41421356237294155
10
277.23174999999998
20
9.0772352564726191
10
261.35575000000006
20
9.0772352564726067
42
0.41421356237306639
10
260.85575
20
8.577235256472612
10
260.85575
20
7.577235256472612
42
-0.41421356237298318
10
260.35575
20
7.0772352564726049
0
LWPOLYLINE
5
171
100
AcDbEntity
8
0
100
AcDbPolyline
90
8
70
1
43
0.0
10
182.44375000000008
20
-13.522764743527349
42
-0.41421356237309892
10
182.94374999999999
20
-13.022764743527366
10
188.94374999999999
20
-13.02276474352734
42
-0.41421356237301959
10
189.44375000000008
20
-13.522764743527361
10
189.44375000000008
20
-33.02276474352729
42
-0.41421356237307422
10
188.94374999999999
20
-33.522764743527411
10
182.94374999999999
20
-33.522764743527446
42
-0.41421356237311846
10
182.44374999999997
20
-33.022764743527475
0
LWPOLYLINE
5
172
100
AcDbEntity
8
0
100
AcDbPolyline
90
8
70
1
43
0.0
10
45.599999999999895
20
84.489735256472201
10
45.599999999999916
20
71.489735256472414
42
0.41421356237307422
10
46.099999999999923
20
70.9897352564724
10
59.09999999999993
20
70.989735256472414
42
0.4142135623730378
10
59.599999999999937
20
71.489735256472414
10
59.599999999999945
20
84.489735256472215
42
0.41421356237302737
10
59.09999999999993
20
84.989735256472215
10
46.099999999999923
20
84.98973525647223
42
0.41421356237312101
0
LWPOLYLINE
5
173
100
AcDbEntity
8
0
100
AcDbPolyline
90
8
70
1
43
0.0
10
93.699999999999903
20
-34.022764743527382
10
82.943749999999895
20
-34.022764743527382
42
-0.41421356237307422
10
82.443749999999895
20
-33.52276474352734
10
82.443749999999895
20
-13.522764743527338
42
-0.41421356237306511
10
82.943749999999895
20
-13.022764743527349
10
93.699999999999903
20
-13.02276474352743
42
-0.41421356237308854
10
94.199999999999861
20
-13.522764743527338
10
94.199999999999932
20
-33.522764743527368
42
-0.41421356237310802
0
LWPOLYLINE
5
174
100
AcDbEntity
8
0
100
AcDbPolyline
90
8
70
1
43
0.0
10
312.0125000000001
20
28.627235256472652
42
-0.41421356237307422
10
311.51249999999999
20
28.127235256472645
10
298.51249999999999
20
28.127235256472645
42
-0.41421356237313667
10
298.01249999999999
20
28.627235256472652
10
298.0125000000001
20
41.627235256472602
42
-0.41421356237307422
10
298.51249999999999
20
42.127235256472602
10
311.51249999999999
20
42.127235256472623
42
-0.41421356237307944
10
312.0125000000001
20
41.627235256472602
0
LWPOLYLINE
5
175
100
AcDbEntity
8
0
100
AcDbPolyline
90
8
70
1
43
0.0
10
103.25000000000001
20
84.989735256472215
42
0.41421356237299095
10
102.75
20
84.489735256472201
10
102.75000000000009
20
71.489735256472414
42
0.41421356237312623
10
103.25000000000001
20
70.9897352564724
10
116.25
20
70.9897352564724
42
0.41421356237307422
10
116.75
20
71.489735256472414
10
116.75
20
84.489735256472201
42
0.41421356237307422
10
116.25
20
84.989735256472215
0
LWPOLYLINE
5
176
100
AcDbEntity
8
0
100
AcDbPolyline
90
8
70
1
43
0.0
10
154.84999999999999
20
47.67723525647267
42
-0.41421356237312623
10
154.34999999999999
20
47.177235256472699
10
141.34999999999999
20
47.177235256472663
42
-0.41421356237306384
10
140.85000000000002
20
47.67723525647267
10
140.85000000000011
20
60.677235256472684
42
-0.41421356237310542
10
141.34999999999999
20
61.177235256472699
10
154.34999999999999
20
61.177235256472642
42
-0.41421356237309503
10
154.84999999999991
20
60.677235256472684
0
LWPOLYLINE
5
177
100
AcDbEntity
8
0
100
AcDbPolyline
90
24
70
1
43
0.0
10
9.8812499999999268
20
3.5272352564725651
42
-0.4142135623730937
10
10.381249999999902
20
4.0272352564725677
10
44.812499999999922
20
4.0272352564725544
42
-0.41421356237313406
10
45.312499999999936
20
3.5272352564725606
10
45.312499999999893
20
-9.4727647435274811
42
-0.41421356237309503
10
44.812499999999893
20
-9.9727647435274491
10
42.344249999999903
20
-9.9727647435274882
42
0.41421356237309503
10
41.844249999999903
20
-10.472764743527488
10
41.844249999999903
20
-11.472764743527399
42
-0.41421356237308982
10
41.344249999999903
20
-11.972764743527408
10
35.344249999999903
20
-11.972764743527398
42
-0.41421356237310281
10
34.84424999999991
20
-11.472764743527399
10
34.84424999999991
20
-10.472764743527376
42
0.41421356237310281
10
34.344249999999903
20
-9.9727647435273923
10
18.468249999999923
20
-9.9727647435274882
42
0.41421356237310025
10
17.968250000000012
20
-10.472764743527392
10
17.968249999999898
20
-11.472764743527399
42
-0.41421356237309243
10
17.468249999999898
20
-11.972764743527408
10
11.4682499999999
20
-11.972764743527398
42
-0.4142135623730937
10
10.9682499999999
20
-11.472764743527399
10
10.9682499999999
20
-10.472764743527481
42
0.41421356237308593
10
10.468249999999902
20
-9.9727647435274882
10
10.3812499999999
20
-9.9727647435274918
42
-0.41421356237310153
10
9.8812499999999055
20
-9.4727647435274811
0
LWPOLYLINE
5
178
100
AcDbEntity
8
0
100
AcDbPolyline
90
8
70
1
43
0.0
10
69.124999999999929
20
28.627235256472687
42
-0.41421356237310542
10
68.624999999999901
20
28.12723525647268
10
55.624999999999936
20
28.127235256472673
42
-0.41421356237307422
10
55.124999999999922
20
28.627235256472687
10
55.124999999999922
20
41.627235256472659
42
-0.41421356237310025
10
55.624999999999936
20
42.127235256472645
10
68.624999999999901
20
42.12723525647263
42
-0.41421356237307422
10
69.124999999999929
20
41.62723525647263
0
LWPOLYLINE
5
179
100
AcDbEntity
8
0
100
AcDbPolyline
90
8
70
1
43
0.0
10
126.27500000000001
20
28.627235256472687
42
-0.41421356237311063
10
125.77500000000001
20
28.127235256472645
10
112.77500000000003
20
28.127235256472673
42
-0.41421356237305862
10
112.27500000000001
20
28.627235256472687
10
112.27500000000001
20
41.62723525647263
42
-0.41421356237303258
10
112.77500000000002
20
42.127235256472602
10
125.77500000000001
20
42.12723525647263
42
-0.41421356237308982
10
126.27500000000001
20
41.62723525647263
0
LWPOLYLINE
5
180
100
AcDbEntity
8
0
100
AcDbPolyline
90
8
70
1
43
0.0
10
207.52500000000001
20
28.627235256472652
10
207.52500000000003
20
41.62723525647263
42
-0.41421356237304302
10
208.02500000000009
20
42.127235256472602
10
221.02500000000003
20
42.127235256472687
42
-0.41421356237305862
10
221.52500000000006
20
41.62723525647263
10
221.52500000000006
20
28.627235256472652
42
-0.41421356237300661
10
221.02500000000006
20
28.127235256472645
10
208.02500000000009
20
28.127235256472652
42
-0.41421356237313145
0
LWPOLYLINE
5
181
100
AcDbEntity
8
0
100
AcDbPolyline
90
8
70
1
43
0.0
10
107.22499999999999
20
28.627235256472687
42
-0.41421356237310025
10
106.72499999999999
20
28.12723525647268
10
93.724999999999952
20
28.127235256472673
42
-0.41421356237305862
10
93.224999999999923
20
28.627235256472687
10
93.224999999999937
20
41.62723525647263
42
-0.41421356237304302
10
93.724999999999937
20
42.127235256472645
10
106.72499999999999
20
42.12723525647263
42
-0.41421356237308982
10
107.22499999999999
20
41.62723525647263
0
LWPOLYLINE
5
182
100
AcDbEntity
8
0
100
AcDbPolyline
90
8
70
1
43
0.0
10
173.90000000000001
20
60.677235256472684
10
173.90000000000001
20
47.67723525647267
42
-0.41421356237324591
10
173.40000000000001
20
47.177235256472699
10
160.40000000000003
20
47.177235256472656
42
-0.41421356237310025
10
159.90000000000003
20
47.67723525647267
10
159.90000000000003
20
60.677235256472684
42
-0.41421356237313667
10
160.40000000000003
20
61.177235256472699
10
173.39999999999998
20
61.177235256472642
42
-0.41421356237300139
0
LWPOLYLINE
5
183
100
AcDbEntity
8
0
100
AcDbPolyline
90
8
70
1
43
0.0
10
7.4999999999999378
20
71.489735256472414
10
7.4999999999999192
20
84.489735256472201
42
-0.41421356237308915
10
7.9999999999999343
20
84.989735256472301
10
20.999999999999922
20
84.989735256472301
42
-0.41421356237311846
10
21.499999999999911
20
84.489735256472201
10
21.499999999999908
20
71.489735256472414
42
-0.414213562373069
10
20.999999999999908
20
70.9897352564724
10
7.9999999999999316
20
70.989735256472315
42
-0.41421356237305534
0
LWPOLYLINE
5
184
100
AcDbEntity
8
0
100
AcDbPolyline
90
8
70
1
43
0.0
10
26.549999999999901
20
60.677235256472684
42
-0.41421356237304563
10
27.04999999999993
20
61.177235256472699
10
40.049999999999912
20
61.177235256472684
42
-0.41421356237304302
10
40.549999999999926
20
60.677235256472684
10
40.549999999999891
20
47.677235256472692
42
-0.41421356237312623
10
40.049999999999898
20
47.177235256472699
10
27.04999999999993
20
47.177235256472699
42
-0.41421356237310542
10
26.549999999999923
20
47.677235256472692
0
LWPOLYLINE
5
185
100
AcDbEntity
8
0
100
AcDbPolyline
90
8
70
1
43
0.0
10
50.074999999999896
20
41.627235256472659
10
50.074999999999939
20
28.627235256472687
42
-0.41421356237312623
10
49.574999999999896
20
28.12723525647268
10
36.574999999999903
20
28.127235256472684
42
-0.41421356237307161
10
36.074999999999903
20
28.627235256472687
10
36.074999999999903
20
41.627235256472659
42
-0.41421356237307161
10
36.574999999999903
20
42.127235256472645
10
49.574999999999896
20
42.127235256472638
42
-0.41421356237307422
0
LWPOLYLINE
5
186
100
AcDbEntity
8
0
100
AcDbPolyline
90
8
70
1
43
0.0
10
269.9375
20
-29.022764743527421
42
-0.41421356237311063
10
269.4375
20
-28.522764743527386
10
269.4375
20
-15.522764743527379
42
-0.41421356237314444
10
269.9375
20
-15.022764743527368
10
285.31875000000002
20
-15.02276474352737
42
-0.41421356237310802
10
285.81875000000002
20
-15.5227647435274
10
285.81875000000002
20
-28.522764743527411
42
-0.41421356237321988
10
285.31875000000002
20
-29.022764743527411
0
LWPOLYLINE
5
187
100
AcDbEntity
8
0
100
AcDbPolyline
90
8
70
1
43
0.0
10
217.55000000000001
20
84.989735256472301
10
230.55000000000007
20
84.989735256472315
42
-0.41421356237307422
10
231.05000000000007
20
84.489735256472201
10
231.05000000000007
20
71.489735256472414
42
-0.41421356237301177
10
230.55000000000007
20
70.9897352564724
10
217.55000000000001
20
70.989735256472315
42
-0.41421356237306384
10
217.05000000000001
20
71.489735256472414
10
217.05000000000001
20
84.489735256472201
42
-0.41421356237306384
0
LWPOLYLINE
5
188
100
AcDbEntity
8
0
100
AcDbPolyline
90
8
70
1
43
0.0
10
349.61250000000007
20
70.9897352564724
42
0.41421356237315748
10
350.11250000000013
20
71.489735256472414
10
350.11249999999984
20
84.489735256472102
42
0.41421356237326151
10
349.61249999999984
20
84.989735256472088
10
336.6124999999999
20
84.989735256471988
42
0.41421356237337598
10
336.1124999999999
20
84.489735256472102
10
336.11250000000013
20
71.489735256472414
42
0.41421356237306384
10
336.61250000000001
20
70.9897352564724
0
CIRCLE
5
189
100
AcDbEntity
8
0
100
AcDbCircle
10
13.806950722046915
20
92.339731429623299
30
0
40
1.7000000000000077
210
0
220
0
230
1
0
CIRCLE
5
190
100
AcDbEntity
8
0
100
AcDbCircle
10
343.80695094675593
20
92.341029491791332
30
0
40
1.6999999999999835
210
0
220
0
230
1
0
CIRCLE
5
191
100
AcDbEntity
8
0
100
AcDbCircle
10
13.806260491759197
20
-36.372783347666399
30
0
40
1.6999999999999993
210
0
220
0
230
1
0
CIRCLE
5
192
100
AcDbEntity
8
0
100
AcDbCircle
10
178.80626049175896
20
-36.372774247083775
30
0
40
1.6999999999999924
210
0
220
0
230
1
0
CIRCLE
5
193
100
AcDbEntity
8
0
100
AcDbCircle
10
343.80625897419975
20
-36.372765146500853
30
0
40
1.6999999999999715
210
0
220
0
230
1
0
CIRCLE
5
194
100
AcDbEntity
8
0
100
AcDbCircle
10
178.80695072204691
20
92.3397314296231
30
0
40
1.6999999999999877
210
0
220
0
230
1
0
LWPOLYLINE
5
195
100
AcDbEntity
8
0
100
AcDbPolyline
90
8
70
1
43
0.0
10
155.61250000000001
20
-15.472764743527357
10
155.61250000000001
20
-28.472764743527392
42
-0.41421356237304302
10
155.11250000000001
20
-28.972764743527399
10
130.0625
20
-28.972764743527399
42
-0.41421356237309503
10
129.5625
20
-28.472764743527392
10
129.5625
20
-15.472764743527348
42
-0.41421356237309243
10
130.0625
20
-14.97276474352735
10
155.11250000000001
20
-14.972764743527359
42
-0.4142135623730378
0
ENDSEC
0
SECTION
2
OBJECTS
0
DICTIONARY
5
C
100
AcDbDictionary
3
ACAD_GROUP
350
D
3
ACAD_MLINESTYLE
350
17
0
DICTIONARY
5
D
100
AcDbDictionary
0
DICTIONARY
5
1A
330
C
100
AcDbDictionary
0
DICTIONARY
5
17
100
AcDbDictionary
0
ENDSEC
0
EOF
