0
SECTION
2
HEADER
9
$INSUNITS
70
4
9
$ACADVER
1
AC1014
9
$HANDSEED
5
FFFF
0
ENDSEC
0
SECTION
2
TABLES
0
TABLE
2
VPORT
5
8
100
AcDbSymbolTable
0
ENDTAB
0
TABLE
2
LTYPE
5
5
100
AcDbSymbolTable
0
LTYPE
5
14
100
AcDbSymbolTableRecord
100
AcDbLinetypeTableRecord
2
BYBLOCK
70
0
0
LTYPE
5
15
100
AcDbSymbolTableRecord
100
AcDbLinetypeTableRecord
2
BYLAYER
70
0
0
ENDTAB
0
TABLE
2
LAYER
5
2
100
AcDbSymbolTable
70
2
0
LAYER
5
50
100
AcDbSymbolTableRecord
100
AcDbLayerTableRecord
2
0
70
0
6
CONTINUOUS
0
ENDTAB
0
TABLE
2
STYLE
5
3
100
AcDbSymbolTable
70
1
0
STYLE
5
11
100
AcDbSymbolTableRecord
100
AcDbTextStyleTableRecord
2
STANDARD
70
0
0
ENDTAB
0
TABLE
2
VIEW
5
6
100
AcDbSymbolTable
70
0
0
ENDTAB
0
TABLE
2
UCS
5
7
100
AcDbSymbolTable
70
0
0
ENDTAB
0
TABLE
2
APPID
5
9
100
AcDbSymbolTable
70
2
0
APPID
5
12
100
AcDbSymbolTableRecord
100
AcDbRegAppTableRecord
2
ACAD
70
0
0
ENDTAB
0
TABLE
2
DIMSTYLE
5
A
100
AcDbSymbolTable
70
1
0
ENDTAB
0
TABLE
2
BLOCK_RECORD
5
1
100
AcDbSymbolTable
70
1
0
BLOCK_RECORD
5
1F
100
AcDbSymbolTableRecord
100
AcDbBlockTableRecord
2
*MODEL_SPACE
0
BLOCK_RECORD
5
1B
100
AcDbSymbolTableRecord
100
AcDbBlockTableRecord
2
*PAPER_SPACE
0
ENDTAB
0
ENDSEC
0
SECTION
2
BLOCKS
0
BLOCK
5
20
100
AcDbEntity
100
AcDbBlockBegin
2
*MODEL_SPACE
0
ENDBLK
5
21
100
AcDbEntity
100
AcDbBlockEnd
0
BLOCK
5
1C
100
AcDbEntity
100
AcDbBlockBegin
2
*PAPER_SPACE
0
ENDBLK
5
1D
100
AcDbEntity
100
AcDbBlockEnd
0
ENDSEC
0
SECTION
2
ENTITIES
0
LWPOLYLINE
5
100
100
AcDbEntity
8
0
100
AcDbPolyline
90
8
70
1
43
0.0
10
333.58949999999999
20
-162.49576474352736
10
333.58949999999999
20
-143.44576474352735
10
314.53550000000001
20
-143.44576474352735
10
314.53550000000001
20
-162.49576474352736
10
295.4855
20
-162.49576474352736
10
295.4855
20
-181.5497647435275
10
352.6395
20
-181.5497647435275
10
352.6395
20
-162.49576474352736
0
LWPOLYLINE
5
101
100
AcDbEntity
8
0
100
AcDbPolyline
90
4
70
1
43
0.0
10
290.72599999999989
20
-85.560490513780252
10
290.72599999999989
20
-181.54976474352736
10
4.9729999999999208
20
-181.54976474352736
10
4.9729999999999208
20
-85.560490513780252
0
LINE
5
102
100
AcDbEntity
8
0
100
AcDbLine
10
333.58549999999991
20
-81.5372647435278
30
0
11
333.58949999999999
21
-81.533264743527525
31
0
0
LINE
5
103
100
AcDbEntity
8
0
100
AcDbLine
10
314.53550000000001
20
-124.39576474352734
30
0
11
314.53550000000001
21
-124.3997647435274
31
0
0
LWPOLYLINE
5
104
100
AcDbEntity
8
0
100
AcDbPolyline
90
4
70
1
43
0.0
10
295.4855
20
-86.295764743527172
10
295.4855
20
-124.3997647435274
10
352.6395
20
-124.3997647435274
10
352.6395
20
-86.295764743527172
0
LWPOLYLINE
5
105
100
AcDbEntity
8
0
100
AcDbPolyline
90
22
70
1
43
0.0
10
-2.4976093957606773
20
-61.66010114149465
42
-0.41420798628157035
10
6.5023904083618334
20
-52.660272289287917
10
277.50000417179012
20
-52.660266461832705
42
-0.41421356869471465
10
286.50000436604034
20
-61.660266461832691
10
286.50000436604034
20
-61.999998271465273
42
0.061087970912251495
10
286.55926906286777
20
-62.483264743527798
10
214.52300000000002
20
-62.483264743527798
10
214.52300000000002
20
-81.5372647435278
10
290.72700000000003
20
-81.5372647435278
10
295.48550000000012
20
-81.5372647435278
10
352.63949999999988
20
-81.5372647435278
10
352.63949999999988
20
-62.483264743527798
10
301.44073966921275
20
-62.483264743527798
42
0.061087970912287001
10
301.50000436604023
20
-61.999998271464989
10
301.50000436604023
20
-61.660265749581811
42
-0.41421355605147203
10
310.50000417178984
20
-52.660265749581825
10
351.1115108198984
20
-52.660264851465783
42
-0.41421126449479745
10
360.11151101387014
20
-61.660194048133121
10
360.11246066434973
20
-182.37269394032154
42
-0.41421586657261938
10
351.1124606646282
20
-191.37276474352731
10
6.5000608704402483
20
-191.37278375064014
42
-0.41421801876948033
10
-2.4999049157240893
20
-182.37261260291177
0
LWPOLYLINE
5
106
100
AcDbEntity
8
0
100
AcDbPolyline
90
4
70
1
43
0.0
10
205.00200000000004
20
-62.483264743527798
10
205.00200000000004
20
-81.5372647435278
10
128.798
20
-81.5372647435278
10
128.798
20
-62.483264743527798
0
LWPOLYLINE
5
107
100
AcDbEntity
8
0
100
AcDbPolyline
90
4
70
1
43
0.0
10
43.072999999999922
20
-81.537264743527658
10
43.072999999999922
20
-62.483264743527656
10
119.27700000000002
20
-62.483264743527798
10
119.27700000000002
20
-81.5372647435278
0
LINE
5
108
100
AcDbEntity
8
0
100
AcDbLine
10
314.53949999999998
20
-124.3997647435274
30
0
11
314.53550000000001
21
-124.39576474352734
31
0
0
LWPOLYLINE
5
109
100
AcDbEntity
8
0
100
AcDbPolyline
90
4
70
1
43
0.0
10
4.9729999999999297
20
-62.483264743527798
10
24.026999999999923
20
-62.483264743527798
10
24.026999999999923
20
-81.5372647435278
10
4.9729999999999288
20
-81.5372647435278
0
LINE
5
110
100
AcDbEntity
8
0
100
AcDbLine
10
333.58549999999991
20
-81.533264743527525
30
0
11
333.58949999999999
21
-81.5372647435278
31
0
0
LINE
5
111
100
AcDbEntity
8
0
100
AcDbLine
10
314.53950000000009
20
-81.533264743527525
30
0
11
314.53550000000001
21
-81.5372647435278
31
0
0
CIRCLE
5
112
100
AcDbEntity
8
0
100
AcDbCircle
10
178.8069506141301
20
-57.660268570376871
30
0
40
1.7000000000000171
210
0
220
0
230
1
0
CIRCLE
5
113
100
AcDbEntity
8
0
100
AcDbCircle
10
343.80695061413007
20
-57.660268570376871
30
0
40
1.7000000000000171
210
0
220
0
230
1
0
CIRCLE
5
114
100
AcDbEntity
8
0
100
AcDbCircle
10
343.80626049175902
20
-186.37277424708373
30
0
40
1.6999999999999671
210
0
220
0
230
1
0
CIRCLE
5
115
100
AcDbEntity
8
0
100
AcDbCircle
10
178.80626049175899
20
-186.37277424708373
30
0
40
1.7000000000000171
210
0
220
0
230
1
0
CIRCLE
5
116
100
AcDbEntity
8
0
100
AcDbCircle
10
13.806260491759232
20
-186.37278334766677
30
0
40
1.7000000000000015
210
0
220
0
230
1
0
CIRCLE
5
117
100
AcDbEntity
8
0
100
AcDbCircle
10
13.806950614130109
20
-57.660268570376871
30
0
40
1.6999999999999993
210
0
220
0
230
1
0
LWPOLYLINE
5
118
100
AcDbEntity
8
0
100
AcDbPolyline
90
5
70
1
43
0.0
10
93.038895846440653
20
-121.86895875401909
10
93.024065208056584
20
-121.92242081335522
10
92.275646598132397
20
-124.62034918945328
10
94.5926530249574
20
-128.27191686120193
10
94.5926530249574
20
-116.26791473146135
0
LINE
5
119
100
AcDbEntity
8
0
100
AcDbLine
10
52.84263953362764
20
-130.12919212194475
30
0
11
57.977358469499833
21
-122.03695143902209
31
0
0
SPLINE
5
120
100
AcDbEntity
8
0
100
AcDbSpline
70
0
71
3
72
11
73
7
74
0
42
0.000000001
43
0.0000000001
44
0.0000000001
40
0.043683142893659169
40
0.043683142893659169
40
0.043683142893659169
40
0.043683142893659169
40
0.65464797408787612
40
0.65464797408787612
40
0.65464797408787612
40
0.97141732452663532
40
0.97141732452663532
40
0.97141732452663532
40
0.97141732452663532
10
101.2221447063219
20
-161.9572754731054
30
0
10
102.09792475028732
20
-162.7110540983798
30
0
10
102.77959499345766
20
-163.60936196421568
30
0
10
103.15746894906258
20
-164.65558289193623
30
0
10
103.35338675210653
20
-165.19802119078514
30
0
10
103.4754660298772
20
-165.76832228078473
30
0
10
103.54166411445345
20
-166.36287215230914
30
0
0
LINE
5
121
100
AcDbEntity
8
0
100
AcDbLine
10
97.567565132938512
20
-123.6251193847577
30
0
11
94.592653024957428
21
-112.90104106001941
31
0
0
LINE
5
122
100
AcDbEntity
8
0
100
AcDbLine
10
74.755740129634404
20
-129.62339668846033
30
0
11
81.169605272782292
21
-119.51524060545474
31
0
0
SPLINE
5
123
100
AcDbEntity
8
0
100
AcDbSpline
70
0
71
3
72
20
73
16
74
0
42
0.000000001
43
0.0000000001
44
0.0000000001
40
0.087119481077841066
40
0.087119481077841066
40
0.087119481077841066
40
0.087119481077841066
40
0.5
40
0.5
40
0.5
40
0.70878037341671651
40
0.70878037341671651
40
0.70878037341671651
40
0.82892598086067182
40
0.82892598086067182
40
0.82892598086067182
40
0.96625882604318192
40
0.96625882604318192
40
0.96625882604318192
40
1
40
1
40
1
40
1
10
103.54166411445371
20
-166.36287215230914
30
0
10
103.70283031504189
20
-166.552071502064
30
0
10
103.84287032814298
20
-166.72369640995214
30
0
10
103.95575043392121
20
-166.91025844635632
30
0
10
104.01283026587166
20
-167.00459685623707
30
0
10
104.0734180820594
20
-167.09164081241875
30
0
10
104.098793207624
20
-167.27509876657302
30
0
10
104.11339568114693
20
-167.38067223107819
30
0
10
104.1052539100389
20
-167.55181229805501
30
0
10
103.99729761850631
20
-167.70158867866527
30
0
10
103.87389781232999
20
-167.87279107988454
30
0
10
103.68450708490407
20
-167.92939688012035
30
0
10
103.56626200699267
20
-167.94165098960619
30
0
10
103.53721048812226
20
-167.94466168991823
30
0
10
103.51015225668881
20
-167.94576665007293
30
0
10
103.4844221378506
20
-167.94576665007293
30
0
0
SPLINE
5
124
100
AcDbEntity
8
0
100
AcDbSpline
70
4
71
5
72
16
73
10
74
0
42
0.000000001
43
0.0000000001
44
0.0000000001
40
0
40
0
40
0
40
0
40
0
40
0
40
0.20000000000000001
40
0.40000000000000002
40
0.60000000000000009
40
0.80000000000000004
40
1
40
1
40
1
40
1
40
1
40
1
41
1
41
1
41
1
41
1
41
1
41
1
41
1
41
1
41
1
41
1
10
81.060323231124883
20
-166.57073999208768
30
0
10
81.10813320811738
20
-166.62515238658722
30
0
10
81.200167156184207
20
-166.73172051050182
30
0
10
81.327464583593098
20
-166.88480554747446
30
0
10
81.474192934779154
20
-167.07444410756278
30
0
10
81.600512585466703
20
-167.275565209089
30
0
10
81.627116675178954
20
-167.38960985447022
30
0
10
81.58415511400915
20
-167.43555131109727
30
0
10
81.523077436929228
20
-167.4457666500729
30
0
10
81.484422137850601
20
-167.44576665007293
30
0
0
LINE
5
125
100
AcDbEntity
8
0
100
AcDbLine
10
51.5926530249574
20
-166.94576665007298
30
0
11
59.7240200090326
21
-166.94576665007384
31
0
0
SPLINE
5
126
100
AcDbEntity
8
0
100
AcDbSpline
70
4
71
5
72
21
73
15
74
0
42
0.000000001
43
0.0000000001
44
0.0000000001
40
0
40
0
40
0
40
0
40
0
40
0
40
0.10000000000000001
40
0.20000000000000001
40
0.30000000000000004
40
0.40000000000000002
40
0.5
40
0.59999999999999998
40
0.69999999999999996
40
0.79999999999999993
40
0.89999999999999991
40
1
40
1
40
1
40
1
40
1
40
1
41
1
41
1
41
1
41
1
41
1
41
1
41
1
41
1
41
1
41
1
41
1
41
1
41
1
41
1
41
1
10
66.469228290619682
20
-162.18568286863552
30
0
10
66.463299714504686
20
-162.13666318005744
30
0
10
66.45646007520385
20
-162.04159634218681
30
0
10
66.461253771151462
20
-161.90791406824232
30
0
10
66.498241651973331
20
-161.74779728014937
30
0
10
66.598664283113067
20
-161.57975391387382
30
0
10
66.757151676088412
20
-161.44611001759984
30
0
10
66.976832012341347
20
-161.34871882863882
30
0
10
67.256697826031868
20
-161.28698349117573
30
0
10
67.592089277057568
20
-161.25814336306195
30
0
10
67.977684178523219
20
-161.25904540618308
30
0
10
68.322533550572729
20
-161.28131586642758
30
0
10
68.600243804606592
20
-161.30931831592005
30
0
10
68.793721530879722
20
-161.33292605786878
30
0
10
68.892544914463684
20
-161.34596486715282
30
0
0
SPLINE
5
127
100
AcDbEntity
8
0
100
AcDbSpline
70
0
71
3
72
11
73
7
74
0
42
0.000000001
43
0.0000000001
44
0.0000000001
40
-0.089672709180060539
40
-0.089672709180060539
40
-0.089672709180060539
40
-0.089672709180060539
40
0
40
0
40
0
40
0.034975714983249771
40
0.034975714983249771
40
0.034975714983249771
40
0.034975714983249771
10
43.60777039814522
20
-166.77878745396498
30
0
10
43.57204331345558
20
-166.8194483441963
30
0
10
43.536316228765948
20
-166.86010923442757
30
0
10
43.500589144076315
20
-166.90077012465878
30
0
10
43.487293985489224
20
-166.9159013056273
30
0
10
43.474278768612677
20
-166.9308013850447
30
0
10
43.461286040882939
20
-166.94576665007281
30
0
0
SPLINE
5
128
100
AcDbEntity
8
0
100
AcDbSpline
70
0
71
3
72
11
73
7
74
0
42
0.000000001
43
0.0000000001
44
0.0000000001
40
0.043683142893329176
40
0.043683142893329176
40
0.043683142893329176
40
0.043683142893329176
40
0.65464797408119835
40
0.65464797408119835
40
0.65464797408119835
40
0.97141732452655949
40
0.97141732452655949
40
0.97141732452655949
40
0.97141732452655949
10
87.963161343593754
20
-161.95727547310491
30
0
10
87.087381299636277
20
-162.71105409837602
30
0
10
86.405711056470409
20
-163.6093619641963
30
0
10
86.027837100863067
20
-164.65558289190156
30
0
10
85.831919297811766
20
-165.19802119075939
30
0
10
85.709840020038612
20
-165.76832228077245
30
0
10
85.643641935461375
20
-166.36287215230894
30
0
0
LINE
5
129
100
AcDbEntity
8
0
100
AcDbLine
10
51.5926530249574
20
-116.26791473146135
30
0
11
51.5926530249574
21
-128.27191686120193
31
0
0
LWPOLYLINE
5
130
100
AcDbEntity
8
0
100
AcDbPolyline
90
5
70
1
43
0.0
10
71.038895846440653
20
-121.86895875401909
10
71.024065208056584
20
-121.92242081335522
10
70.275646598132383
20
-124.62034918945328
10
72.592653024957414
20
-128.27191686120193
10
72.592653024957414
20
-116.26791473146135
0
LINE
5
131
100
AcDbEntity
8
0
100
AcDbLine
10
97.668840725708534
20
-129.11760125486984
30
0
11
105.36185207606482
21
-116.99352977188731
31
0
0
LINE
5
132
100
AcDbEntity
8
0
100
AcDbLine
10
75.295103653770497
20
-124.51342507078095
30
0
11
72.592653024957414
21
-114.7715264330435
31
0
0
SPLINE
5
133
100
AcDbEntity
8
0
100
AcDbSpline
70
4
71
5
72
16
73
10
74
0
42
0.000000001
43
0.0000000001
44
0.0000000001
40
0
40
0
40
0
40
0
40
0
40
0
40
0.20000000000000001
40
0.40000000000000002
40
0.60000000000000009
40
0.80000000000000004
40
1
40
1
40
1
40
1
40
1
40
1
41
1
41
1
41
1
41
1
41
1
41
1
41
1
41
1
41
1
41
1
10
64.124982818789945
20
-166.57073999208768
30
0
10
64.077172841797434
20
-166.62515238658722
30
0
10
63.985138893730721
20
-166.73172051050182
30
0
10
63.857841466323315
20
-166.88480554747446
30
0
10
63.711113115137664
20
-167.07444410756278
30
0
10
63.584793464449632
20
-167.275565209089
30
0
10
63.55818937473633
20
-167.38960985447022
30
0
10
63.601150935905729
20
-167.43555131109727
30
0
10
63.662228612985594
20
-167.4457666500729
30
0
10
63.700883912064235
20
-167.44576665007293
30
0
0
LINE
5
134
100
AcDbEntity
8
0
100
AcDbLine
10
81.169605272782292
20
-119.51524060545474
30
0
11
75.295103653770497
21
-124.51342507078095
31
0
0
SPLINE
5
135
100
AcDbEntity
8
0
100
AcDbSpline
70
0
71
3
72
20
73
16
74
0
42
0.000000001
43
0.0000000001
44
0.0000000001
40
-0.11168944935784508
40
-0.11168944935784508
40
-0.11168944935784508
40
-0.11168944935784508
40
0
40
0
40
0
40
0.31928483418015946
40
0.31928483418015946
40
0.31928483418015946
40
0.62499743007048092
40
0.62499743007048092
40
0.62499743007048092
40
1
40
1
40
1
40
1.0855064337698308
40
1.0855064337698308
40
1.0855064337698308
40
1.0855064337698308
10
57.186586943145912
20
-162.39939806166475
30
0
10
57.197622933175211
20
-162.30814836124858
30
0
10
57.208658923204538
20
-162.21689866083224
30
0
10
57.219694913233866
20
-162.1256489604159
30
0
10
57.239275732029711
20
-161.96374741426746
30
0
10
57.216584348605849
20
-161.93815481475519
30
0
10
57.188738472618454
20
-161.90971076201743
30
0
10
57.162076275978876
20
-161.88247581607192
30
0
10
57.04558624004445
20
-161.81264176873475
30
0
10
56.778306536600311
20
-161.7814744736271
30
0
10
56.450447701115785
20
-161.74324308924767
30
0
10
55.952152004865269
20
-161.76329778669236
30
0
10
55.358164573621181
20
-161.84166880124607
30
0
10
55.217330655232288
20
-161.86025050262083
30
0
10
55.076496736843374
20
-161.8788322039955
30
0
10
54.935662818454546
20
-161.89741390537017
30
0
0
LINE
5
136
100
AcDbEntity
8
0
100
AcDbLine
10
70.429565920280425
20
-129.62339668846033
30
0
11
64.015700777132537
21
-119.51524060545474
31
0
0
LINE
5
137
100
AcDbEntity
8
0
100
AcDbLine
10
49.16266387531234
20
-125.40173075680421
30
0
11
49.347854626483837
21
-124.73414796830696
31
0
0
LINE
5
138
100
AcDbEntity
8
0
100
AcDbLine
10
72.592653024957428
20
-167.44576665007293
30
0
11
63.700883912064235
21
-167.44576665007293
31
0
0
LINE
5
139
100
AcDbEntity
8
0
100
AcDbLine
10
64.015700777132537
20
-119.51524060545474
30
0
11
69.890202396144332
21
-124.51342507078095
31
0
0
LINE
5
140
100
AcDbEntity
8
0
100
AcDbLine
10
54.02264217460246
20
-125.40173075680421
30
0
11
51.5926530249574
21
-116.6420118060676
31
0
0
LINE
5
141
100
AcDbEntity
8
0
100
AcDbLine
10
105.36185207606482
20
-116.99352977188731
30
0
11
97.567565132938512
21
-123.6251193847577
31
0
0
LINE
5
142
100
AcDbEntity
8
0
100
AcDbLine
10
94.5926530249574
20
-167.94576665007293
30
0
11
103.4844221378506
21
-167.94576665007293
31
0
0
LINE
5
143
100
AcDbEntity
8
0
100
AcDbLine
10
50.34266651628711
20
-130.12919212194475
30
0
11
45.207947580415073
21
-122.03695143902216
31
0
0
LINE
5
144
100
AcDbEntity
8
0
100
AcDbLine
10
49.27564659813239
20
-124.62034918945328
30
0
11
51.5926530249574
21
-128.27191686120193
31
0
0
SPLINE
5
145
100
AcDbEntity
8
0
100
AcDbSpline
70
0
71
3
72
17
73
13
74
0
42
0.000000001
43
0.0000000001
44
0.0000000001
40
-0.051057029250002967
40
-0.051057029250002967
40
-0.051057029250002967
40
-0.051057029250002967
40
0
40
0
40
0
40
0.70220928858722431
40
0.70220928858722431
40
0.70220928858722431
40
1
40
1
40
1
40
1.0301580061711431
40
1.0301580061711431
40
1.0301580061711431
40
1.0301580061711431
10
45.998719106767503
20
-162.39939806166532
30
0
10
45.927433228083174
20
-162.45742068140993
30
0
10
45.856147349398881
20
-162.51544330115473
30
0
10
45.784861470714588
20
-162.57346592089954
30
0
10
44.860815311958987
20
-163.32558653560858
30
0
10
44.224810327683137
20
-164.16804082065829
30
0
10
43.898202761649259
20
-165.20288134178577
30
0
10
43.759696050013886
20
-165.64173326242235
30
0
10
43.66951254352621
20
-166.1158456160544
30
0
10
43.622828358485123
20
-166.61710612849788
30
0
10
43.617809038372215
20
-166.6709999036533
30
0
10
43.612789718259307
20
-166.72489367880871
30
0
10
43.607770398146414
20
-166.77878745396427
30
0
0
LINE
5
146
100
AcDbEntity
8
0
100
AcDbLine
10
83.823453973850022
20
-116.99352977188731
30
0
11
91.617740916976317
21
-123.6251193847577
31
0
0
LINE
5
147
100
AcDbEntity
8
0
100
AcDbLine
10
69.890202396144332
20
-124.51342507078095
30
0
11
72.592653024957414
21
-114.7715264330435
31
0
0
LINE
5
148
100
AcDbEntity
8
0
100
AcDbLine
10
91.51646532420628
20
-129.11760125486978
30
0
11
83.823453973850022
21
-116.99352977188731
31
0
0
SPLINE
5
149
100
AcDbEntity
8
0
100
AcDbSpline
70
4
71
5
72
21
73
15
74
0
42
0.000000001
43
0.0000000001
44
0.0000000001
40
0
40
0
40
0
40
0
40
0
40
0
40
0.10000000000000001
40
0.20000000000000001
40
0.30000000000000004
40
0.40000000000000002
40
0.5
40
0.59999999999999998
40
0.69999999999999996
40
0.79999999999999993
40
0.89999999999999991
40
1
40
1
40
1
40
1
40
1
40
1
41
1
41
1
41
1
41
1
41
1
41
1
41
1
41
1
41
1
41
1
41
1
41
1
41
1
41
1
41
1
10
78.716077759295146
20
-162.18568286863552
30
0
10
78.722006335410143
20
-162.13666318005744
30
0
10
78.728845974710367
20
-162.04159634218681
30
0
10
78.724052278760027
20
-161.90791406824232
30
0
10
78.687064397935671
20
-161.74779728014937
30
0
10
78.586641766797129
20
-161.57975391387382
30
0
10
78.428154373825208
20
-161.44611001759984
30
0
10
78.208474037575428
20
-161.34871882863882
30
0
10
77.928608223886556
20
-161.28698349117573
30
0
10
77.593216772860728
20
-161.25814336306195
30
0
10
77.207621871393812
20
-161.25904540618308
30
0
10
76.862772499343066
20
-161.28131586642758
30
0
10
76.585062245308421
20
-161.30931831592005
30
0
10
76.391584519035106
20
-161.33292605786878
30
0
10
76.292761135451144
20
-161.34596486715282
30
0
0
LINE
5
150
100
AcDbEntity
8
0
100
AcDbLine
10
94.5926530249574
20
-167.94576665007293
30
0
11
85.700883912064242
21
-167.94576665007293
31
0
0
LINE
5
151
100
AcDbEntity
8
0
100
AcDbLine
10
91.617740916976317
20
-123.6251193847577
30
0
11
94.592653024957428
21
-112.90104106001941
31
0
0
SPLINE
5
152
100
AcDbEntity
8
0
100
AcDbSpline
70
4
71
5
72
21
73
15
74
0
42
0.000000001
43
0.0000000001
44
0.0000000001
40
0
40
0
40
0
40
0
40
0
40
0
40
0.10000000000000001
40
0.20000000000000001
40
0.30000000000000004
40
0.40000000000000002
40
0.5
40
0.59999999999999998
40
0.69999999999999996
40
0.79999999999999993
40
0.89999999999999991
40
1
40
1
40
1
40
1
40
1
40
1
41
1
41
1
41
1
41
1
41
1
41
1
41
1
41
1
41
1
41
1
41
1
41
1
41
1
41
1
41
1
10
78.716077759295146
20
-162.18568286863552
30
0
10
78.799849823277057
20
-162.25386852760991
30
0
10
78.96417332919205
20
-162.39194374482219
30
0
10
79.200997021572576
20
-162.60416810989631
30
0
10
79.497118319224683
20
-162.89752656801309
30
0
10
79.832307998066085
20
-163.2827215735287
30
0
10
80.129408795816261
20
-163.68806784685518
30
0
10
80.385308571967499
20
-164.11521189425545
30
0
10
80.598301432468716
20
-164.56505623453444
30
0
10
80.770076289801978
20
-165.0367073332815
30
0
10
80.903739539449973
20
-165.52852172382839
30
0
10
80.982680334300113
20
-165.93678149648207
30
0
10
81.027142019835537
20
-166.25077672565658
30
0
10
81.050337186123585
20
-166.46351717069251
30
0
10
81.060323231124883
20
-166.57073999208768
30
0
0
SPLINE
5
153
100
AcDbEntity
8
0
100
AcDbSpline
70
4
71
5
72
21
73
15
74
0
42
0.000000001
43
0.0000000001
44
0.0000000001
40
0
40
0
40
0
40
0
40
0
40
0
40
0.10000000000000001
40
0.20000000000000001
40
0.30000000000000004
40
0.40000000000000002
40
0.5
40
0.59999999999999998
40
0.69999999999999996
40
0.79999999999999993
40
0.89999999999999991
40
1
40
1
40
1
40
1
40
1
40
1
41
1
41
1
41
1
41
1
41
1
41
1
41
1
41
1
41
1
41
1
41
1
41
1
41
1
41
1
41
1
10
66.469228290619682
20
-162.18568286863552
30
0
10
66.385456226637771
20
-162.25386852760991
30
0
10
66.221132720722125
20
-162.39194374482213
30
0
10
65.984309028339197
20
-162.60416810989619
30
0
10
65.68818773068395
20
-162.89752656801278
30
0
10
65.352998051842349
20
-163.28272157352839
30
0
10
65.055897254095029
20
-163.68806784685492
30
0
10
64.799997477947585
20
-164.11521189425548
30
0
10
64.587004617448997
20
-164.5650562345345
30
0
10
64.415229760116233
20
-165.03670733328164
30
0
10
64.281566510467215
20
-165.52852172382848
30
0
10
64.202625715615696
20
-165.93678149648213
30
0
10
64.158164030079476
20
-166.25077672565658
30
0
10
64.134968863791244
20
-166.46351717069251
30
0
10
64.124982818789945
20
-166.57073999208768
30
0
0
LINE
5
154
100
AcDbEntity
8
0
100
AcDbLine
10
72.5926530249574
20
-167.44576665007293
30
0
11
81.484422137850601
21
-167.44576665007293
31
0
0
SPLINE
5
155
100
AcDbEntity
8
0
100
AcDbSpline
70
0
71
3
72
11
73
7
74
0
42
0.000000001
43
0.0000000001
44
0.0000000001
40
-0.089672709181254806
40
-0.089672709181254806
40
-0.089672709181254806
40
-0.089672709181254806
40
0
40
0
40
0
40
0.034975714983092078
40
0.034975714983092078
40
0.034975714983092078
40
0.034975714983092078
10
59.577535651768287
20
-166.77878745396333
30
0
10
59.61326273645831
20
-166.81944834419517
30
0
10
59.64898982114839
20
-166.86010923442694
30
0
10
59.684716905838485
20
-166.90077012465872
30
0
10
59.698012064425505
20
-166.91590130562716
30
0
10
59.711027281302975
20
-166.93080138504584
30
0
10
59.724020009032621
20
-166.94576665007384
30
0
0
LINE
5
156
100
AcDbEntity
8
0
100
AcDbLine
10
57.977358469499833
20
-122.03695143902209
30
0
11
54.02264217460246
21
-125.40173075680421
31
0
0
LINE
5
157
100
AcDbEntity
8
0
100
AcDbLine
10
51.5926530249574
20
-166.94576665007298
30
0
11
43.461286040882939
21
-166.94576665007298
31
0
0
SPLINE
5
158
100
AcDbEntity
8
0
100
AcDbSpline
70
0
71
3
72
20
73
16
74
0
42
0.000000001
43
0.0000000001
44
0.0000000001
40
-0.11168944935790948
40
-0.11168944935790948
40
-0.11168944935790948
40
-0.11168944935790948
40
0
40
0
40
0
40
0.31928483424211218
40
0.31928483424211218
40
0.31928483424211218
40
0.62499743016498943
40
0.62499743016498943
40
0.62499743016498943
40
1
40
1
40
1
40
1.0855064337698486
40
1.0855064337698486
40
1.0855064337698486
40
1.0855064337698486
10
45.998719106768974
20
-162.39939806166512
30
0
10
45.987683116739611
20
-162.30814836124864
30
0
10
45.976647126710276
20
-162.21689866083224
30
0
10
45.965611136680948
20
-162.1256489604159
30
0
10
45.946030317882602
20
-161.96374741424677
30
0
10
45.968721701312703
20
-161.93815481474326
30
0
10
45.996567577319013
20
-161.90971076199716
30
0
10
46.023229773974364
20
-161.88247581604614
30
0
10
46.139719810006845
20
-161.81264176868899
30
0
10
46.406999513558986
20
-161.78147447359953
30
0
10
46.734858349058456
20
-161.74324308925611
30
0
10
47.233154045200351
20
-161.76329778671226
30
0
10
47.827141476293619
20
-161.84166880124607
30
0
10
47.967975394682526
20
-161.86025050262083
30
0
10
48.108809313071447
20
-161.87883220399556
30
0
10
48.249643231460354
20
-161.89741390537029
30
0
0
SPLINE
5
159
100
AcDbEntity
8
0
100
AcDbSpline
70
0
71
3
72
17
73
13
74
0
42
0.000000001
43
0.0000000001
44
0.0000000001
40
-0.05105702925057598
40
-0.05105702925057598
40
-0.05105702925057598
40
-0.05105702925057598
40
0
40
0
40
0
40
0.70220928850490572
40
0.70220928850490572
40
0.70220928850490572
40
1
40
1
40
1
40
1.0301580061710409
40
1.0301580061710409
40
1.0301580061710409
40
1.0301580061710409
10
57.186586943144988
20
-162.39939806166325
30
0
10
57.257872821830063
20
-162.45742068140862
30
0
10
57.329158700515137
20
-162.51544330115399
30
0
10
57.400444579200212
20
-162.57346592089945
30
0
10
58.324490737856074
20
-163.32558653552718
30
0
10
58.960495722084417
20
-164.16804082045545
30
0
10
59.28710328814573
20
-165.20288134142169
30
0
10
59.425609999847246
20
-165.64173326216263
30
0
10
59.515793506376085
20
-166.11584561591968
30
0
10
59.562477691429706
20
-166.61710612849788
30
0
10
59.567497011542599
20
-166.67099990365307
30
0
10
59.572516331655493
20
-166.72489367880829
30
0
10
59.577535651768358
20
-166.7787874539635
30
0
0
LINE
5
160
100
AcDbEntity
8
0
100
AcDbLine
10
45.207947580415073
20
-122.03695143902216
30
0
11
49.16266387531234
21
-125.40173075680421
31
0
0
SPLINE
5
161
100
AcDbEntity
8
0
100
AcDbSpline
70
0
71
3
72
20
73
16
74
0
42
0.000000001
43
0.0000000001
44
0.0000000001
40
0.087119481078608493
40
0.087119481078608493
40
0.087119481078608493
40
0.087119481078608493
40
0.5
40
0.5
40
0.5
40
0.7087803734173288
40
0.7087803734173288
40
0.7087803734173288
40
0.828925980863779
40
0.828925980863779
40
0.828925980863779
40
0.96625882604954083
40
0.96625882604954083
40
0.96625882604954083
40
1
40
1
40
1
40
1
10
85.643641935461133
20
-166.36287215230914
30
0
10
85.482475734872963
20
-166.55207150206274
30
0
10
85.342435721770215
20
-166.72369640995171
30
0
10
85.229555615991671
20
-166.91025844635681
30
0
10
85.172475784040785
20
-167.00459685623849
30
0
10
85.111887967852269
20
-167.09164081242244
30
0
10
85.086512842289238
20
-167.27509876657814
30
0
10
85.071910368766936
20
-167.38067223108601
30
0
10
85.08005213988082
20
-167.55181229807312
30
0
10
85.188008431419121
20
-167.70158867868048
30
0
10
85.311408237602365
20
-167.8727910798969
30
0
10
85.500798965026945
20
-167.92939688012453
30
0
10
85.61904404293729
20
-167.94165098960789
30
0
10
85.648095561801256
20
-167.94466168991869
30
0
10
85.675153793230862
20
-167.94576665007293
30
0
10
85.700883912064242
20
-167.94576665007293
30
0
0
SPLINE
5
162
100
AcDbEntity
8
0
100
AcDbSpline
70
4
71
5
72
16
73
10
74
0
42
0.000000001
43
0.0000000001
44
0.0000000001
40
0
40
0
40
0
40
0
40
0
40
0
40
0.20000000000000001
40
0.40000000000000002
40
0.60000000000000009
40
0.80000000000000004
40
1
40
1
40
1
40
1
40
1
40
1
41
1
41
1
41
1
41
1
41
1
41
1
41
1
41
1
41
1
41
1
10
69.03632309690596
20
-129.61456911375245
30
0
10
69.092052809844418
20
-129.61492221677258
30
0
10
69.203512235720467
20
-129.6156284228035
30
0
10
69.370701374532445
20
-129.61668773182257
30
0
10
69.593620226275377
20
-129.61810014379603
30
0
10
69.872268790947487
20
-129.61986565870808
30
0
10
70.095187642681665
20
-129.62127807061424
30
0
10
70.262376781481436
20
-129.62233737953864
30
0
10
70.373836207347495
20
-129.6230435854867
30
0
10
70.429565920280425
20
-129.62339668846033
30
0
0
LINE
5
163
100
AcDbEntity
8
0
100
AcDbLine
10
55.128803728932638
20
-130.11470700525427
30
0
11
52.84263953362764
21
-130.12919212194475
31
0
0
CIRCLE
5
164
100
AcDbEntity
8
0
100
AcDbCircle
10
72.592653024957414
20
-134.48798612072176
30
0
40
1.6999999999999891
210
0
220
0
230
1
0
SPLINE
5
165
100
AcDbEntity
8
0
100
AcDbSpline
70
0
71
3
72
17
73
13
74
0
42
0.000000001
43
0.0000000001
44
0.0000000001
40
-0.0096702696672808196
40
-0.0096702696672808196
40
-0.0096702696672808196
40
-0.0096702696672808196
40
0
40
0
40
0
40
0.59892724810855769
40
0.59892724810855769
40
0.59892724810855769
40
1
40
1
40
1
40
1.0188065567380975
40
1.0188065567380975
40
1.0188065567380975
40
1.0188065567380975
10
49.860867077937087
20
-138.28015748124017
30
0
10
49.871917422661305
20
-138.35689725151207
30
0
10
49.882967767385566
20
-138.43363702178402
30
0
10
49.894018112109819
20
-138.51037679205598
30
0
10
50.583281958186618
20
-143.29701019803466
30
0
10
50.772760049370106
20
-147.99044383605789
30
0
10
50.24671561274122
20
-152.53804908642564
30
0
10
49.894448971872535
20
-155.58336144788689
30
0
10
49.246289776644176
20
-158.56114955597826
30
0
10
48.371625020917847
20
-161.48908108426275
30
0
10
48.330964424432032
20
-161.62519202463193
30
0
10
48.290303827946204
20
-161.76130296500111
30
0
10
48.249643231460396
20
-161.89741390537029
30
0
0
SPLINE
5
166
100
AcDbEntity
8
0
100
AcDbSpline
70
0
71
3
72
17
73
13
74
0
42
0.000000001
43
0.0000000001
44
0.0000000001
40
-0.009670269667261696
40
-0.009670269667261696
40
-0.009670269667261696
40
-0.009670269667261696
40
0
40
0
40
0
40
0.59892724812195619
40
0.59892724812195619
40
0.59892724812195619
40
1
40
1
40
1
40
1.0188065567381057
40
1.0188065567381057
40
1.0188065567381057
40
1.0188065567381057
10
53.324438971977685
20
-138.28015748124068
30
0
10
53.313388627253424
20
-138.35689725151235
30
0
10
53.302338282529206
20
-138.43363702178414
30
0
10
53.291287937804967
20
-138.51037679205604
30
0
10
52.602024091712494
20
-143.29701019814351
30
0
10
52.412546000538725
20
-147.99044383626764
30
0
10
52.938590437208148
20
-152.53804908672925
30
0
10
53.290857078084329
20
-155.58336144808351
30
0
10
53.93901627329992
20
-158.56114955607632
30
0
10
54.813681028996953
20
-161.48908108426275
30
0
10
54.854341625482789
20
-161.62519202463193
30
0
10
54.89500222196861
20
-161.76130296500111
30
0
10
54.93566281845446
20
-161.89741390537046
30
0
0
LINE
5
167
100
AcDbEntity
8
0
100
AcDbLine
10
70.399122693110243
20
-138.58164055741548
30
0
11
67.673523500701677
21
-136.88435714323674
31
0
0
CIRCLE
5
168
100
AcDbEntity
8
0
100
AcDbCircle
10
51.5926530249574
20
-134.48798612072176
30
0
40
1.1000000000000001
210
0
220
0
230
1
0
SPLINE
5
169
100
AcDbEntity
8
0
100
AcDbSpline
70
4
71
5
72
21
73
15
74
0
42
0.000000001
43
0.0000000001
44
0.0000000001
40
0
40
0
40
0
40
0
40
0
40
0
40
0.10000000000000001
40
0.20000000000000001
40
0.30000000000000004
40
0.40000000000000002
40
0.5
40
0.59999999999999998
40
0.69999999999999996
40
0.79999999999999993
40
0.89999999999999991
40
1
40
1
40
1
40
1
40
1
40
1
41
1
41
1
41
1
41
1
41
1
41
1
41
1
41
1
41
1
41
1
41
1
41
1
41
1
41
1
41
1
10
70.399122693110243
20
-138.58164055741548
30
0
10
70.467685484662866
20
-139.05777890461138
30
0
10
70.596246454614771
20
-140.00824609187961
30
0
10
70.763395112832086
20
-141.42851857172087
30
0
10
70.93401998937172
20
-143.31117809257191
30
0
10
71.054278220380723
20
-145.64484888725295
30
0
10
71.073018878409769
20
-147.95707133778851
30
0
10
70.98166983106259
20
-150.24603434847992
30
0
10
70.775037283893909
20
-152.51064058925689
30
0
10
70.457015209290986
20
-154.75171276756467
30
0
10
70.035735124910573
20
-156.97096888735049
30
0
10
69.622742067246293
20
-158.73032327110059
30
0
10
69.272960211168638
20
-160.04138014220817
30
0
10
69.022267533182443
20
-160.91171969745588
30
0
10
68.892544914463684
20
-161.34596486715282
30
0
0
LINE
5
170
100
AcDbEntity
8
0
100
AcDbLine
10
53.324438971977571
20
-138.28015748124116
30
0
11
56.007215619247965
21
-136.60954049542732
31
0
0
SPLINE
5
171
100
AcDbEntity
8
0
100
AcDbSpline
70
4
71
5
72
16
73
10
74
0
42
0.000000001
43
0.0000000001
44
0.0000000001
40
0
40
0
40
0
40
0
40
0
40
0
40
0.20000000000000001
40
0.40000000000000002
40
0.60000000000000009
40
0.80000000000000004
40
1
40
1
40
1
40
1
40
1
40
1
41
1
41
1
41
1
41
1
41
1
41
1
41
1
41
1
41
1
41
1
10
76.148982953008868
20
-129.61456911375245
30
0
10
76.09325324007041
20
-129.61492221677258
30
0
10
75.981793814194504
20
-129.6156284228035
30
0
10
75.81460467538426
20
-129.61668773182257
30
0
10
75.591685823641669
20
-129.61810014379603
30
0
10
75.313037258968961
20
-129.61986565870808
30
0
10
75.090118407233589
20
-129.62127807061424
30
0
10
74.922929268433464
20
-129.62233737953864
30
0
10
74.811469842567334
20
-129.6230435854867
30
0
10
74.755740129634404
20
-129.62339668846033
30
0
0
SPLINE
5
172
100
AcDbEntity
8
0
100
AcDbSpline
70
0
71
3
72
20
73
16
74
0
42
0.000000001
43
0.0000000001
44
0.0000000001
40
-0.021357865534255727
40
-0.021357865534255727
40
-0.021357865534255727
40
-0.021357865534255727
40
0
40
0
40
0
40
0.5
40
0.5
40
0.5
40
0.79815950573803685
40
0.79815950573803685
40
0.79815950573803685
40
1
40
1
40
1
40
1.0050985815217086
40
1.0050985815217086
40
1.0050985815217086
40
1.0050985815217086
10
89.169403044775379
20
-137.15945181907847
30
0
10
89.170794730677869
20
-137.06529056044138
30
0
10
89.172186416580374
20
-136.97112930180438
30
0
10
89.173578102482878
20
-136.87696804316744
30
0
10
89.206338729272545
20
-134.66038896687883
30
0
10
89.304525322279915
20
-132.79516400774247
30
0
10
89.52752186948571
20
-131.46145750843397
30
0
10
89.660498950077994
20
-130.66614296716716
30
0
10
89.826330568311462
20
-130.07248702324966
30
0
10
90.128860522124597
20
-129.64621831282165
30
0
10
90.333659611979357
20
-129.35765368367043
30
0
10
90.651576807742131
20
-129.13320283551235
30
0
10
91.011325188015135
20
-129.11519440018446
30
0
10
91.01601660482423
20
-129.11495955527386
30
0
10
91.020708021633226
20
-129.11472471036325
30
0
10
91.025399438441355
20
-129.11448986545281
30
0
0
LINE
5
173
100
AcDbEntity
8
0
100
AcDbLine
10
91.93694939776293
20
-138.88285654270044
30
0
11
89.169403044775351
21
-137.1594518190787
31
0
0
SPLINE
5
174
100
AcDbEntity
8
0
100
AcDbSpline
70
0
71
3
72
11
73
7
74
0
42
0.000000001
43
0.0000000001
44
0.0000000001
40
0.0097318879816928744
40
0.0097318879816928744
40
0.0097318879816928744
40
0.0097318879816928744
40
0.63723143529929216
40
0.63723143529929216
40
0.63723143529929216
40
0.98136488140250955
40
0.98136488140250955
40
0.98136488140250955
40
0.98136488140250955
10
91.93694939776293
20
-138.88285654270044
30
0
10
92.631540951428633
20
-143.823041890166
30
0
10
92.772713315340539
20
-148.63122533171639
30
0
10
92.14661027673074
20
-153.27515262535621
30
0
10
91.80324270425433
20
-155.82197630012166
30
0
10
91.250771521334116
20
-158.32858813255774
30
0
10
90.531777354982879
20
-160.80143645821394
30
0
0
SPLINE
5
175
100
AcDbEntity
8
0
100
AcDbSpline
70
4
71
5
72
21
73
15
74
0
42
0.000000001
43
0.0000000001
44
0.0000000001
40
0
40
0
40
0
40
0
40
0
40
0
40
0.10000000000000001
40
0.20000000000000001
40
0.30000000000000004
40
0.40000000000000002
40
0.5
40
0.59999999999999998
40
0.69999999999999996
40
0.79999999999999993
40
0.89999999999999991
40
1
40
1
40
1
40
1
40
1
40
1
41
1
41
1
41
1
41
1
41
1
41
1
41
1
41
1
41
1
41
1
41
1
41
1
41
1
41
1
41
1
10
67.673523500701677
20
-136.88435714323674
30
0
10
67.677433121446143
20
-136.61983279228238
30
0
10
67.68705488213898
20
-136.09998173270719
30
0
10
67.706895017441212
20
-135.34779774709659
30
0
10
67.744341956103497
20
-134.40098147404814
30
0
10
67.810927486875286
20
-133.31837570877215
30
0
10
67.89966456081504
20
-132.34880173297051
30
0
10
68.013600765958103
20
-131.50781035166872
30
0
10
68.155857926594877
20
-130.81133117225039
30
0
10
68.328965025570469
20
-130.27226873387727
30
0
10
68.533200093067592
20
-129.89204172999902
30
0
10
68.720370844746839
20
-129.70921514296498
30
0
10
68.87347942984411
20
-129.63705472252133
30
0
10
68.981114602674566
20
-129.61733276371569
30
0
10
69.03632309690596
20
-129.61456911375245
30
0
0
SPLINE
5
176
100
AcDbEntity
8
0
100
AcDbSpline
70
0
71
3
72
14
73
10
74
0
42
0.000000001
43
0.0000000001
44
0.0000000001
40
0.021621037182396882
40
0.021621037182396882
40
0.021621037182396882
40
0.021621037182396882
40
0.5
40
0.5
40
0.5
40
0.79132182923004468
40
0.79132182923004468
40
0.79132182923004468
40
0.95505910692865337
40
0.95505910692865337
40
0.95505910692865337
40
0.95505910692865337
10
47.178090430666799
20
-136.60954049542715
30
0
10
47.215318433972442
20
-134.54111845177081
30
0
10
47.317908021602634
20
-132.79814828582056
30
0
10
47.513830259482468
20
-131.62636887804112
30
0
10
47.633142413992374
20
-130.91278206285585
30
0
10
47.803330568841687
20
-130.43205314720979
30
0
10
47.935179879880891
20
-130.23819233727102
30
0
10
48.009285714356302
20
-130.12923297313512
30
0
10
48.043857603079125
20
-130.11843579959958
30
0
10
48.05650232098786
20
-130.11470700525342
30
0
0
SPLINE
5
177
100
AcDbEntity
8
0
100
AcDbSpline
70
0
71
3
72
11
73
7
74
0
42
0.000000001
43
0.0000000001
44
0.0000000001
40
0.0097318879816950359
40
0.0097318879816950359
40
0.0097318879816950359
40
0.0097318879816950359
40
0.63723143528020076
40
0.63723143528020076
40
0.63723143528020076
40
0.98136488140250544
40
0.98136488140250544
40
0.98136488140250544
40
0.98136488140250544
10
97.248356652151898
20
-138.88285654270049
30
0
10
96.553765098507284
20
-143.82304189001621
30
0
10
96.412592734579277
20
-148.63122533142621
30
0
10
97.038695773127699
20
-153.27515262493236
30
0
10
97.382063345599903
20
-155.8219762998433
30
0
10
97.934534528541036
20
-158.32858813242063
30
0
10
98.653528694931907
20
-160.80143645821394
30
0
0
SPLINE
5
178
100
AcDbEntity
8
0
100
AcDbSpline
70
0
71
3
72
14
73
10
74
0
42
0.000000001
43
0.0000000001
44
0.0000000001
40
0.085220111792551886
40
0.085220111792551886
40
0.085220111792551886
40
0.085220111792551886
40
0.30620564164877168
40
0.30620564164877168
40
0.30620564164877168
40
0.64928968652167418
40
0.64928968652167418
40
0.64928968652167418
40
0.91422646823008458
40
0.91422646823008458
40
0.91422646823008458
40
0.91422646823008458
10
87.963161343594081
20
-161.95727547310463
30
0
10
87.978670599158221
20
-161.70231822970641
30
0
10
88.069335780513313
20
-161.44547898232366
30
0
10
88.249275025971372
20
-161.24504601475758
30
0
10
88.528633969533402
20
-160.93387019576525
30
0
10
88.941436424507089
20
-160.81807176746111
30
0
10
89.384304247406376
20
-160.77865705981935
30
0
10
89.726296180504335
20
-160.74822018596683
30
0
10
90.107206425212652
20
-160.76077131683263
30
0
10
90.531777354982552
20
-160.80143645821386
30
0
0
LINE
5
179
100
AcDbEntity
8
0
100
AcDbLine
10
97.248356652151898
20
-138.88285654270049
30
0
11
100.01590300513948
21
-137.15945181907921
31
0
0
LINE
5
180
100
AcDbEntity
8
0
100
AcDbLine
10
48.056502320987882
20
-130.11470700525342
30
0
11
50.34266651628711
21
-130.12919212194475
31
0
0
LINE
5
181
100
AcDbEntity
8
0
100
AcDbLine
10
74.786183356804585
20
-138.58164055741548
30
0
11
77.511782549213152
21
-136.88435714323674
31
0
0
LINE
5
182
100
AcDbEntity
8
0
100
AcDbLine
10
98.159906611241354
20
-129.11448986544215
30
0
11
97.668840725708534
21
-129.11760125486984
31
0
0
CIRCLE
5
183
100
AcDbEntity
8
0
100
AcDbCircle
10
94.5926530249574
20
-134.48798612072176
30
0
40
1.6999999999999891
210
0
220
0
230
1
0
SPLINE
5
184
100
AcDbEntity
8
0
100
AcDbSpline
70
4
71
5
72
21
73
15
74
0
42
0.000000001
43
0.0000000001
44
0.0000000001
40
0
40
0
40
0
40
0
40
0
40
0
40
0.10000000000000001
40
0.20000000000000001
40
0.30000000000000004
40
0.40000000000000002
40
0.5
40
0.59999999999999998
40
0.69999999999999996
40
0.79999999999999993
40
0.89999999999999991
40
1
40
1
40
1
40
1
40
1
40
1
41
1
41
1
41
1
41
1
41
1
41
1
41
1
41
1
41
1
41
1
41
1
41
1
41
1
41
1
41
1
10
77.511782549213152
20
-136.88435714323674
30
0
10
77.507872928468686
20
-136.61983279228238
30
0
10
77.498251167776203
20
-136.09998173270719
30
0
10
77.478411032476203
20
-135.34779774709659
30
0
10
77.440964093815722
20
-134.40098147404814
30
0
10
77.374378563045127
20
-133.31837570877215
30
0
10
77.285641489104364
20
-132.34880173297051
30
0
10
77.171705283958985
20
-131.50781035166872
30
0
10
77.029448123320122
20
-130.81133117225039
30
0
10
76.856341024343621
20
-130.27226873387727
30
0
10
76.652105956846839
20
-129.89204172999902
30
0
10
76.464935205168047
20
-129.70921514296498
30
0
10
76.311826620070747
20
-129.63705472252133
30
0
10
76.204191447240262
20
-129.61733276371569
30
0
10
76.148982953008868
20
-129.61456911375245
30
0
0
SPLINE
5
185
100
AcDbEntity
8
0
100
AcDbSpline
70
0
71
3
72
14
73
10
74
0
42
0.000000001
43
0.0000000001
44
0.0000000001
40
0.085220111793573375
40
0.085220111793573375
40
0.085220111793573375
40
0.085220111793573375
40
0.30620564165087438
40
0.30620564165087438
40
0.30620564165087438
40
0.64928968654447972
40
0.64928968654447972
40
0.64928968654447972
40
0.91422646823008669
40
0.91422646823008669
40
0.91422646823008669
40
0.91422646823008669
10
101.2221447063218
20
-161.95727547310531
30
0
10
101.20663545075919
20
-161.70231822970641
30
0
10
101.11597026940203
20
-161.44547898231778
30
0
10
100.93603102393925
20
-161.24504601475067
30
0
10
100.65667208035443
20
-160.93387019573959
30
0
10
100.24386962535907
20
-160.81807176744633
30
0
10
99.801001802418654
20
-160.77865705981154
30
0
10
99.459009869339042
20
-160.7482201859689
30
0
10
99.078099624663466
20
-160.76077131683627
30
0
10
98.653528694931907
20
-160.80143645821386
30
0
0
SPLINE
5
186
100
AcDbEntity
8
0
100
AcDbSpline
70
4
71
5
72
21
73
15
74
0
42
0.000000001
43
0.0000000001
44
0.0000000001
40
0
40
0
40
0
40
0
40
0
40
0
40
0.10000000000000001
40
0.20000000000000001
40
0.30000000000000004
40
0.40000000000000002
40
0.5
40
0.59999999999999998
40
0.69999999999999996
40
0.79999999999999993
40
0.89999999999999991
40
1
40
1
40
1
40
1
40
1
40
1
41
1
41
1
41
1
41
1
41
1
41
1
41
1
41
1
41
1
41
1
41
1
41
1
41
1
41
1
41
1
10
74.786183356804585
20
-138.58164055741548
30
0
10
74.717620565251963
20
-139.05777890461138
30
0
10
74.5890595953001
20
-140.00824609187961
30
0
10
74.421910937083311
20
-141.42851857172087
30
0
10
74.25128606054453
20
-143.31117809257191
30
0
10
74.131027829535896
20
-145.64484888725295
30
0
10
74.11228717150594
20
-147.95707133778851
30
0
10
74.203636218852125
20
-150.24603434847992
30
0
10
74.41026876602038
20
-152.51064058925689
30
0
10
74.728290840623458
20
-154.75171276756467
30
0
10
75.14957092500444
20
-156.97096888735049
30
0
10
75.562563982668848
20
-158.73032327110059
30
0
10
75.91234583874629
20
-160.04138014220817
30
0
10
76.163038516732385
20
-160.91171969745588
30
0
10
76.292761135451144
20
-161.34596486715282
30
0
0
LINE
5
187
100
AcDbEntity
8
0
100
AcDbLine
10
49.860867077937087
20
-138.28015748124017
30
0
11
47.178090430666742
21
-136.60954049542724
31
0
0
LINE
5
188
100
AcDbEntity
8
0
100
AcDbLine
10
91.025399438441355
20
-129.11448986545275
30
0
11
91.51646532420628
21
-129.11760125486978
31
0
0
SPLINE
5
189
100
AcDbEntity
8
0
100
AcDbSpline
70
0
71
3
72
14
73
10
74
0
42
0.000000001
43
0.0000000001
44
0.0000000001
40
0.021621037182389571
40
0.021621037182389571
40
0.021621037182389571
40
0.021621037182389571
40
0.5
40
0.5
40
0.5
40
0.79132182922833594
40
0.79132182922833594
40
0.79132182922833594
40
0.95505910686691331
40
0.95505910686691331
40
0.95505910686691331
40
0.95505910686691331
10
56.007215619247965
20
-136.60954049542732
30
0
10
55.969987615942159
20
-134.54111845177061
30
0
10
55.867398028312039
20
-132.79814828581431
30
0
10
55.671475790432524
20
-131.62636887803785
30
0
10
55.552163635923471
20
-130.91278206285892
30
0
10
55.381975481077248
20
-130.43205314722044
30
0
10
55.250126170035472
20
-130.23819233727545
30
0
10
55.176020335585335
20
-130.12923297317528
30
0
10
55.141448446848983
20
-130.11843579960816
30
0
10
55.128803728932724
20
-130.1147070052553
30
0
0
SPLINE
5
190
100
AcDbEntity
8
0
100
AcDbSpline
70
0
71
3
72
20
73
16
74
0
42
0.000000001
43
0.0000000001
44
0.0000000001
40
-0.021357865534304132
40
-0.021357865534304132
40
-0.021357865534304132
40
-0.021357865534304132
40
0
40
0
40
0
40
0.5
40
0.5
40
0.5
40
0.79815950573792604
40
0.79815950573792604
40
0.79815950573792604
40
1
40
1
40
1
40
1.0050985816064575
40
1.0050985816064575
40
1.0050985816064575
40
1.0050985816064575
10
100.01590300513948
20
-137.15945181907921
30
0
10
100.01451131923699
20
-137.06529056044189
30
0
10
100.01311963333447
20
-136.97112930180467
30
0
10
100.01172794743196
20
-136.87696804316744
30
0
10
99.978967320642269
20
-134.66038896687849
30
0
10
99.880780727633152
20
-132.7951640077427
30
0
10
99.657784180428536
20
-131.46145750843436
30
0
10
99.524807099836963
20
-130.66614296716784
30
0
10
99.358975481603437
20
-130.07248702325023
30
0
10
99.056445527790544
20
-129.64621831282216
30
0
10
98.851646437935784
20
-129.35765368367072
30
0
10
98.533729242172939
20
-129.13320283551235
30
0
10
98.173980861899707
20
-129.11519440018446
30
0
10
98.169289445012595
20
-129.11495955526993
30
0
10
98.164598028125667
20
-129.11472471035546
30
0
10
98.159906611239123
20
-129.11448986544093
30
0
0
LINE
5
191
100
AcDbEntity
8
0
100
AcDbLine
10
24.592653024957407
20
-167.94576665007293
30
0
11
33.484422137850594
21
-167.94576665007293
31
0
0
SPLINE
5
192
100
AcDbEntity
8
0
100
AcDbSpline
70
0
71
3
72
20
73
16
74
0
42
0.000000001
43
0.0000000001
44
0.0000000001
40
0.087119481078608493
40
0.087119481078608493
40
0.087119481078608493
40
0.087119481078608493
40
0.5
40
0.5
40
0.5
40
0.7087803734173288
40
0.7087803734173288
40
0.7087803734173288
40
0.828925980863779
40
0.828925980863779
40
0.828925980863779
40
0.96625882604954083
40
0.96625882604954083
40
0.96625882604954083
40
1
40
1
40
1
40
1
10
15.643641935461137
20
-166.36287215230914
30
0
10
15.482475734872967
20
-166.55207150206274
30
0
10
15.342435721770222
20
-166.72369640995171
30
0
10
15.229555615991668
20
-166.91025844635681
30
0
10
15.172475784040778
20
-167.00459685623849
30
0
10
15.111887967852269
20
-167.09164081242244
30
0
10
15.086512842289235
20
-167.27509876657814
30
0
10
15.071910368766943
20
-167.38067223108601
30
0
10
15.080052139880813
20
-167.55181229807312
30
0
10
15.188008431419124
20
-167.70158867868048
30
0
10
15.311408237602357
20
-167.8727910798969
30
0
10
15.500798965026945
20
-167.92939688012453
30
0
10
15.619044042937293
20
-167.94165098960789
30
0
10
15.648095561801263
20
-167.94466168991869
30
0
10
15.675153793230869
20
-167.94576665007293
30
0
10
15.700883912064239
20
-167.94576665007293
30
0
0
CIRCLE
5
193
100
AcDbEntity
8
0
100
AcDbCircle
10
24.592653024957407
20
-134.48798612072176
30
0
40
1.6999999999999891
210
0
220
0
230
1
0
LINE
5
194
100
AcDbEntity
8
0
100
AcDbLine
10
13.823453973850022
20
-116.99352977188731
30
0
11
21.61774091697632
21
-123.6251193847577
31
0
0
SPLINE
5
195
100
AcDbEntity
8
0
100
AcDbSpline
70
0
71
3
72
14
73
10
74
0
42
0.000000001
43
0.0000000001
44
0.0000000001
40
0.085220111793573375
40
0.085220111793573375
40
0.085220111793573375
40
0.085220111793573375
40
0.30620564165087438
40
0.30620564165087438
40
0.30620564165087438
40
0.64928968654447972
40
0.64928968654447972
40
0.64928968654447972
40
0.91422646823008669
40
0.91422646823008669
40
0.91422646823008669
40
0.91422646823008669
10
31.222144706321799
20
-161.95727547310531
30
0
10
31.20663545075919
20
-161.70231822970641
30
0
10
31.115970269402027
20
-161.44547898231778
30
0
10
30.936031023939243
20
-161.24504601475067
30
0
10
30.656672080354426
20
-160.93387019573959
30
0
10
30.243869625359068
20
-160.81807176744633
30
0
10
29.801001802418661
20
-160.77865705981154
30
0
10
29.459009869339035
20
-160.7482201859689
30
0
10
29.078099624663469
20
-160.76077131683627
30
0
10
28.6535286949319
20
-160.80143645821386
30
0
0
SPLINE
5
196
100
AcDbEntity
8
0
100
AcDbSpline
70
0
71
3
72
11
73
7
74
0
42
0.000000001
43
0.0000000001
44
0.0000000001
40
0.0097318879816928744
40
0.0097318879816928744
40
0.0097318879816928744
40
0.0097318879816928744
40
0.63723143529929216
40
0.63723143529929216
40
0.63723143529929216
40
0.98136488140250955
40
0.98136488140250955
40
0.98136488140250955
40
0.98136488140250955
10
21.93694939776293
20
-138.88285654270044
30
0
10
22.631540951428626
20
-143.823041890166
30
0
10
22.772713315340543
20
-148.63122533171639
30
0
10
22.14661027673074
20
-153.27515262535621
30
0
10
21.803242704254338
20
-155.82197630012166
30
0
10
21.250771521334109
20
-158.32858813255774
30
0
10
20.531777354982879
20
-160.80143645821394
30
0
0
SPLINE
5
197
100
AcDbEntity
8
0
100
AcDbSpline
70
0
71
3
72
11
73
7
74
0
42
0.000000001
43
0.0000000001
44
0.0000000001
40
0.043683142893329176
40
0.043683142893329176
40
0.043683142893329176
40
0.043683142893329176
40
0.65464797408119835
40
0.65464797408119835
40
0.65464797408119835
40
0.97141732452655949
40
0.97141732452655949
40
0.97141732452655949
40
0.97141732452655949
10
17.963161343593761
20
-161.95727547310491
30
0
10
17.087381299636277
20
-162.71105409837602
30
0
10
16.405711056470409
20
-163.6093619641963
30
0
10
16.027837100863067
20
-164.65558289190156
30
0
10
15.831919297811758
20
-165.19802119075939
30
0
10
15.709840020038612
20
-165.76832228077245
30
0
10
15.643641935461368
20
-166.36287215230894
30
0
0
SPLINE
5
198
100
AcDbEntity
8
0
100
AcDbSpline
70
0
71
3
72
11
73
7
74
0
42
0.000000001
43
0.0000000001
44
0.0000000001
40
0.0097318879816950359
40
0.0097318879816950359
40
0.0097318879816950359
40
0.0097318879816950359
40
0.63723143528020076
40
0.63723143528020076
40
0.63723143528020076
40
0.98136488140250544
40
0.98136488140250544
40
0.98136488140250544
40
0.98136488140250544
10
27.248356652151902
20
-138.88285654270049
30
0
10
26.553765098507291
20
-143.82304189001621
30
0
10
26.412592734579281
20
-148.63122533142621
30
0
10
27.038695773127692
20
-153.27515262493236
30
0
10
27.382063345599903
20
-155.8219762998433
30
0
10
27.93453452854104
20
-158.32858813242063
30
0
10
28.6535286949319
20
-160.80143645821394
30
0
0
LINE
5
199
100
AcDbEntity
8
0
100
AcDbLine
10
35.361852076064828
20
-116.99352977188731
30
0
11
27.567565132938512
21
-123.6251193847577
31
0
0
SPLINE
5
200
100
AcDbEntity
8
0
100
AcDbSpline
70
0
71
3
72
11
73
7
74
0
42
0.000000001
43
0.0000000001
44
0.0000000001
40
0.043683142893659169
40
0.043683142893659169
40
0.043683142893659169
40
0.043683142893659169
40
0.65464797408787612
40
0.65464797408787612
40
0.65464797408787612
40
0.97141732452663532
40
0.97141732452663532
40
0.97141732452663532
40
0.97141732452663532
10
31.222144706321906
20
-161.9572754731054
30
0
10
32.097924750287312
20
-162.7110540983798
30
0
10
32.779594993457657
20
-163.60936196421568
30
0
10
33.157468949062583
20
-164.65558289193623
30
0
10
33.353386752106537
20
-165.19802119078514
30
0
10
33.475466029877197
20
-165.76832228078473
30
0
10
33.541664114453447
20
-166.36287215230914
30
0
0
LINE
5
201
100
AcDbEntity
8
0
100
AcDbLine
10
21.61774091697632
20
-123.6251193847577
30
0
11
24.592653024957425
21
-112.90104106001941
31
0
0
SPLINE
5
202
100
AcDbEntity
8
0
100
AcDbSpline
70
0
71
3
72
14
73
10
74
0
42
0.000000001
43
0.0000000001
44
0.0000000001
40
0.085220111792551886
40
0.085220111792551886
40
0.085220111792551886
40
0.085220111792551886
40
0.30620564164877168
40
0.30620564164877168
40
0.30620564164877168
40
0.64928968652167418
40
0.64928968652167418
40
0.64928968652167418
40
0.91422646823008458
40
0.91422646823008458
40
0.91422646823008458
40
0.91422646823008458
10
17.963161343594081
20
-161.95727547310463
30
0
10
17.978670599158217
20
-161.70231822970641
30
0
10
18.06933578051332
20
-161.44547898232366
30
0
10
18.249275025971379
20
-161.24504601475758
30
0
10
18.528633969533406
20
-160.93387019576525
30
0
10
18.941436424507092
20
-160.81807176746111
30
0
10
19.384304247406376
20
-160.77865705981935
30
0
10
19.726296180504335
20
-160.74822018596683
30
0
10
20.107206425212656
20
-160.76077131683263
30
0
10
20.531777354982559
20
-160.80143645821386
30
0
0
LINE
5
203
100
AcDbEntity
8
0
100
AcDbLine
10
21.93694939776293
20
-138.88285654270044
30
0
11
19.169403044775351
21
-137.1594518190787
31
0
0
SPLINE
5
204
100
AcDbEntity
8
0
100
AcDbSpline
70
0
71
3
72
20
73
16
74
0
42
0.000000001
43
0.0000000001
44
0.0000000001
40
-0.021357865534304132
40
-0.021357865534304132
40
-0.021357865534304132
40
-0.021357865534304132
40
0
40
0
40
0
40
0.5
40
0.5
40
0.5
40
0.79815950573792604
40
0.79815950573792604
40
0.79815950573792604
40
1
40
1
40
1
40
1.0050985816064575
40
1.0050985816064575
40
1.0050985816064575
40
1.0050985816064575
10
30.015903005139482
20
-137.15945181907921
30
0
10
30.014511319236981
20
-137.06529056044189
30
0
10
30.013119633334462
20
-136.97112930180467
30
0
10
30.011727947431961
20
-136.87696804316744
30
0
10
29.978967320642269
20
-134.66038896687849
30
0
10
29.880780727633152
20
-132.7951640077427
30
0
10
29.657784180428539
20
-131.46145750843436
30
0
10
29.524807099836963
20
-130.66614296716784
30
0
10
29.358975481603444
20
-130.07248702325023
30
0
10
29.056445527790551
20
-129.64621831282216
30
0
10
28.851646437935781
20
-129.35765368367072
30
0
10
28.533729242172932
20
-129.13320283551235
30
0
10
28.173980861899715
20
-129.11519440018446
30
0
10
28.169289445012602
20
-129.11495955526993
30
0
10
28.164598028125667
20
-129.11472471035546
30
0
10
28.159906611239123
20
-129.11448986544093
30
0
0
LINE
5
205
100
AcDbEntity
8
0
100
AcDbLine
10
21.51646532420628
20
-129.11760125486978
30
0
11
13.823453973850022
21
-116.99352977188731
31
0
0
LINE
5
206
100
AcDbEntity
8
0
100
AcDbLine
10
27.668840725708534
20
-129.11760125486984
30
0
11
35.361852076064828
21
-116.99352977188731
31
0
0
LINE
5
207
100
AcDbEntity
8
0
100
AcDbLine
10
27.567565132938512
20
-123.6251193847577
30
0
11
24.592653024957425
21
-112.90104106001941
31
0
0
LINE
5
208
100
AcDbEntity
8
0
100
AcDbLine
10
28.159906611241361
20
-129.11448986544215
30
0
11
27.668840725708534
21
-129.11760125486984
31
0
0
SPLINE
5
209
100
AcDbEntity
8
0
100
AcDbSpline
70
0
71
3
72
20
73
16
74
0
42
0.000000001
43
0.0000000001
44
0.0000000001
40
0.087119481077841066
40
0.087119481077841066
40
0.087119481077841066
40
0.087119481077841066
40
0.5
40
0.5
40
0.5
40
0.70878037341671651
40
0.70878037341671651
40
0.70878037341671651
40
0.82892598086067182
40
0.82892598086067182
40
0.82892598086067182
40
0.96625882604318192
40
0.96625882604318192
40
0.96625882604318192
40
1
40
1
40
1
40
1
10
33.54166411445371
20
-166.36287215230914
30
0
10
33.702830315041901
20
-166.552071502064
30
0
10
33.842870328142979
20
-166.72369640995214
30
0
10
33.95575043392121
20
-166.91025844635632
30
0
10
34.012830265871656
20
-167.00459685623707
30
0
10
34.073418082059405
20
-167.09164081241875
30
0
10
34.098793207623999
20
-167.27509876657302
30
0
10
34.113395681146926
20
-167.38067223107819
30
0
10
34.105253910038904
20
-167.55181229805501
30
0
10
33.997297618506309
20
-167.70158867866527
30
0
10
33.873897812329986
20
-167.87279107988454
30
0
10
33.68450708490407
20
-167.92939688012035
30
0
10
33.566262006992673
20
-167.94165098960619
30
0
10
33.537210488122255
20
-167.94466168991823
30
0
10
33.510152256688812
20
-167.94576665007293
30
0
10
33.484422137850594
20
-167.94576665007293
30
0
0
LINE
5
210
100
AcDbEntity
8
0
100
AcDbLine
10
24.592653024957407
20
-167.94576665007293
30
0
11
15.700883912064239
21
-167.94576665007293
31
0
0
SPLINE
5
211
100
AcDbEntity
8
0
100
AcDbSpline
70
0
71
3
72
20
73
16
74
0
42
0.000000001
43
0.0000000001
44
0.0000000001
40
-0.021357865534255727
40
-0.021357865534255727
40
-0.021357865534255727
40
-0.021357865534255727
40
0
40
0
40
0
40
0.5
40
0.5
40
0.5
40
0.79815950573803685
40
0.79815950573803685
40
0.79815950573803685
40
1
40
1
40
1
40
1.0050985815217086
40
1.0050985815217086
40
1.0050985815217086
40
1.0050985815217086
10
19.169403044775386
20
-137.15945181907847
30
0
10
19.170794730677869
20
-137.06529056044138
30
0
10
19.17218641658037
20
-136.97112930180438
30
0
10
19.173578102482871
20
-136.87696804316744
30
0
10
19.206338729272545
20
-134.66038896687883
30
0
10
19.304525322279922
20
-132.79516400774247
30
0
10
19.527521869485707
20
-131.46145750843397
30
0
10
19.660498950077994
20
-130.66614296716716
30
0
10
19.826330568311459
20
-130.07248702324966
30
0
10
20.128860522124601
20
-129.64621831282165
30
0
10
20.333659611979353
20
-129.35765368367043
30
0
10
20.651576807742131
20
-129.13320283551235
30
0
10
21.011325188015135
20
-129.11519440018446
30
0
10
21.01601660482423
20
-129.11495955527386
30
0
10
21.020708021633219
20
-129.11472471036325
30
0
10
21.025399438441355
20
-129.11448986545281
30
0
0
LINE
5
212
100
AcDbEntity
8
0
100
AcDbLine
10
27.248356652151902
20
-138.88285654270049
30
0
11
30.015903005139482
21
-137.15945181907921
31
0
0
LINE
5
213
100
AcDbEntity
8
0
100
AcDbLine
10
21.025399438441355
20
-129.11448986545275
30
0
11
21.51646532420628
21
-129.11760125486978
31
0
0
ENDSEC
0
SECTION
2
OBJECTS
0
DICTIONARY
5
C
100
AcDbDictionary
3
ACAD_GROUP
350
D
3
ACAD_MLINESTYLE
350
17
0
DICTIONARY
5
D
100
AcDbDictionary
0
DICTIONARY
5
1A
330
C
100
AcDbDictionary
0
DICTIONARY
5
17
100
AcDbDictionary
0
ENDSEC
0
EOF
