0
SECTION
2
HEADER
9
$INSUNITS
70
4
9
$ACADVER
1
AC1014
9
$HANDSEED
5
FFFF
0
ENDSEC
0
SECTION
2
TABLES
0
TABLE
2
VPORT
5
8
100
AcDbSymbolTable
0
ENDTAB
0
TABLE
2
LTYPE
5
5
100
AcDbSymbolTable
0
LTYPE
5
14
100
AcDbSymbolTableRecord
100
AcDbLinetypeTableRecord
2
BYBLOCK
70
0
0
LTYPE
5
15
100
AcDbSymbolTableRecord
100
AcDbLinetypeTableRecord
2
BYLAYER
70
0
0
ENDTAB
0
TABLE
2
LAYER
5
2
100
AcDbSymbolTable
70
2
0
LAYER
5
50
100
AcDbSymbolTableRecord
100
AcDbLayerTableRecord
2
0
70
0
6
CONTINUOUS
0
ENDTAB
0
TABLE
2
STYLE
5
3
100
AcDbSymbolTable
70
1
0
STYLE
5
11
100
AcDbSymbolTableRecord
100
AcDbTextStyleTableRecord
2
STANDARD
70
0
0
ENDTAB
0
TABLE
2
VIEW
5
6
100
AcDbSymbolTable
70
0
0
ENDTAB
0
TABLE
2
UCS
5
7
100
AcDbSymbolTable
70
0
0
ENDTAB
0
TABLE
2
APPID
5
9
100
AcDbSymbolTable
70
2
0
APPID
5
12
100
AcDbSymbolTableRecord
100
AcDbRegAppTableRecord
2
ACAD
70
0
0
ENDTAB
0
TABLE
2
DIMSTYLE
5
A
100
AcDbSymbolTable
70
1
0
ENDTAB
0
TABLE
2
BLOCK_RECORD
5
1
100
AcDbSymbolTable
70
1
0
BLOCK_RECORD
5
1F
100
AcDbSymbolTableRecord
100
AcDbBlockTableRecord
2
*MODEL_SPACE
0
BLOCK_RECORD
5
1B
100
AcDbSymbolTableRecord
100
AcDbBlockTableRecord
2
*PAPER_SPACE
0
ENDTAB
0
ENDSEC
0
SECTION
2
BLOCKS
0
BLOCK
5
20
100
AcDbEntity
100
AcDbBlockBegin
2
*MODEL_SPACE
0
ENDBLK
5
21
100
AcDbEntity
100
AcDbBlockEnd
0
BLOCK
5
1C
100
AcDbEntity
100
AcDbBlockBegin
2
*PAPER_SPACE
0
ENDBLK
5
1D
100
AcDbEntity
100
AcDbBlockEnd
0
ENDSEC
0
SECTION
2
ENTITIES
0
LWPOLYLINE
5
100
100
AcDbEntity
8
0
100
AcDbPolyline
90
4
70
1
43
0.0
10
119.27700000000002
20
593.46273525647223
10
119.27700000000002
20
612.5167352564722
10
43.072999999999922
20
612.51673525647232
10
43.072999999999922
20
593.46273525647234
0
LWPOLYLINE
5
101
100
AcDbEntity
8
0
100
AcDbPolyline
90
4
70
1
43
0.0
10
24.026999999999923
20
612.5167352564722
10
24.026999999999923
20
593.46273525647223
10
4.9729999999999288
20
593.46273525647223
10
4.9729999999999297
20
612.5167352564722
0
CIRCLE
5
102
100
AcDbEntity
8
0
100
AcDbCircle
10
13.806950614130109
20
617.33973142962316
30
0
40
1.1000000000000092
210
0
220
0
230
1
0
LWPOLYLINE
5
103
100
AcDbEntity
8
0
100
AcDbPolyline
90
8
70
1
43
0.0
10
333.58949999999999
20
531.55423525647268
10
314.53550000000001
20
531.55423525647268
10
314.53550000000001
20
512.50423525647261
10
295.4855
20
512.50423525647261
10
295.4855
20
493.45023525647252
10
352.6395
20
493.45023525647252
10
352.6395
20
512.50423525647261
10
333.58949999999999
20
512.50423525647261
0
LWPOLYLINE
5
104
100
AcDbEntity
8
0
100
AcDbPolyline
90
4
70
1
43
0.0
10
295.4855
20
588.70423525647288
10
352.6395
20
588.70423525647288
10
352.6395
20
550.60023525647262
10
295.4855
20
550.60023525647262
0
LINE
5
105
100
AcDbEntity
8
0
100
AcDbLine
10
314.53950000000009
20
593.46673525647248
30
0
11
314.53550000000001
21
593.46273525647223
31
0
0
LWPOLYLINE
5
106
100
AcDbEntity
8
0
100
AcDbPolyline
90
4
70
1
43
0.0
10
205.00200000000004
20
612.5167352564722
10
205.00200000000004
20
593.46273525647223
10
128.798
20
593.46273525647223
10
128.798
20
612.5167352564722
0
LWPOLYLINE
5
107
100
AcDbEntity
8
0
100
AcDbPolyline
90
18
70
1
43
0.0
10
352.63949999999988
20
593.46273525647223
10
295.48550000000012
20
593.46273525647223
10
290.72700000000003
20
593.46273525647223
10
214.52300000000002
20
593.46273525647223
10
214.52300000000002
20
612.5167352564722
10
286.49826366391102
20
612.5167352564722
42
0.40846457070752673
10
277.50000417179012
20
621.33973353816737
10
6.5023904299451951
20
621.33972771071217
42
0.41420798628158928
10
-1.49760939594149
20
613.33987984208329
10
-1.4999049159049005
20
492.62736838066786
42
0.41421811075232839
10
6.5000671841803381
20
484.62721624936023
10
351.11246044400798
20
484.62723525647266
42
0.41421587465141013
10
359.11246066438071
20
492.6272981926968
10
359.11151101390112
20
613.3397980848041
42
0.41421126449574236
10
351.11151084148173
20
621.33973514853426
10
310.50000417178984
20
621.33973425041813
42
0.40846458120548923
10
301.50174505415907
20
612.5167352564722
10
352.63949999999988
20
612.5167352564722
0
CIRCLE
5
108
100
AcDbEntity
8
0
100
AcDbCircle
10
178.80626049175899
20
488.62722575291627
30
0
40
1.1000000000000087
210
0
220
0
230
1
0
CIRCLE
5
109
100
AcDbEntity
8
0
100
AcDbCircle
10
178.8069506141301
20
617.33973142962316
30
0
40
1.0999999999999917
210
0
220
0
230
1
0
LINE
5
110
100
AcDbEntity
8
0
100
AcDbLine
10
314.53949999999998
20
550.60023525647262
30
0
11
314.53550000000001
21
550.60423525647263
31
0
0
LINE
5
111
100
AcDbEntity
8
0
100
AcDbLine
10
314.53550000000001
20
550.60423525647263
30
0
11
314.53550000000001
21
550.60023525647262
31
0
0
LWPOLYLINE
5
112
100
AcDbEntity
8
0
100
AcDbPolyline
90
4
70
1
43
0.0
10
290.72599999999989
20
589.43950948621978
10
290.72599999999989
20
493.45023525647264
10
4.9729999999999208
20
493.45023525647264
10
4.9729999999999208
20
589.43950948621978
0
LINE
5
113
100
AcDbEntity
8
0
100
AcDbLine
10
333.58549999999991
20
593.46273525647223
30
0
11
333.58949999999999
21
593.46673525647248
31
0
0
CIRCLE
5
114
100
AcDbEntity
8
0
100
AcDbCircle
10
343.80695061413007
20
617.33973142962316
30
0
40
1.1000000000000061
210
0
220
0
230
1
0
CIRCLE
5
115
100
AcDbEntity
8
0
100
AcDbCircle
10
13.806260491759232
20
488.62721665233323
30
0
40
1.100000000000001
210
0
220
0
230
1
0
LINE
5
116
100
AcDbEntity
8
0
100
AcDbLine
10
333.58549999999991
20
593.46673525647248
30
0
11
333.58949999999999
21
593.46273525647223
31
0
0
CIRCLE
5
117
100
AcDbEntity
8
0
100
AcDbCircle
10
343.80626049175902
20
488.62722575291627
30
0
40
1.0999999999999943
210
0
220
0
230
1
0
LINE
5
118
100
AcDbEntity
8
0
100
AcDbLine
10
-5.015545624917439
20
623.34005099911587
30
0
11
276.50000436044132
21
623.34005099911587
31
0
0
LINE
5
119
100
AcDbEntity
8
0
100
AcDbLine
10
-5.0155456249174302
20
562.98362017481804
30
0
11
-5.015545624917439
21
623.34005099911587
31
0
0
LINE
5
120
100
AcDbEntity
8
0
100
AcDbLine
10
276.50000436604034
20
623.0000017285347
30
0
11
276.50000436604034
21
623.33973353816737
31
0
0
ARC
5
121
100
AcDbEntity
8
0
100
AcDbCircle
10
267.50000436604034
20
623.33973353816737
30
0
40
8.9999999999999858
210
0
220
0
230
1
100
AcDbArc
50
0
51
90.000001236635313
0
LINE
5
122
100
AcDbEntity
8
0
100
AcDbLine
10
267.50000417179012
20
632.33973353816737
30
0
11
-3.4976095916381644
21
632.33972771071194
31
0
0
ARC
5
123
100
AcDbEntity
8
0
100
AcDbCircle
10
-3.4976093973879396
20
623.33972771071205
30
0
40
8.9999999999999165
210
0
220
0
230
1
100
AcDbArc
50
90.000001236635342
51
179.99891043930751
0
LINE
5
124
100
AcDbEntity
8
0
100
AcDbLine
10
-12.497609395760616
20
623.33989885850292
30
0
11
-12.519654473447872
21
562.92831869924169
31
0
0
ARC
5
125
100
AcDbEntity
8
0
100
AcDbCircle
10
-8.7678038210936577
20
562.98362017481804
30
0
40
3.7522581961762262
210
0
220
0
230
1
100
AcDbArc
50
-179.1555336265379
51
0
0
CIRCLE
5
126
100
AcDbEntity
8
0
100
AcDbCircle
10
3.8069507220469156
20
627.33973142962327
30
0
40
1.7000000000000077
210
0
220
0
230
1
0
CIRCLE
5
127
100
AcDbEntity
8
0
100
AcDbCircle
10
168.80695072204691
20
627.33973142962316
30
0
40
1.6999999999999877
210
0
220
0
230
1
0
LWPOLYLINE
5
128
100
AcDbEntity
8
0
100
AcDbPolyline
90
7
70
1
43
0.0
10
-5.015545624917408
20
482.62718085120099
10
171.71198921766262
20
482.62718085117507
42
-0.73077387167653196
10
168.82872602984409
20
473.5739323210156
10
-3.5442994565896324
20
473.52057957248854
42
-0.41400400488035299
10
-12.541699551135126
20
482.51673853998045
10
-12.519654473447872
20
542.92831869924169
42
0.99265766161658198
10
-5.0155456249174302
20
542.98362017481804
0
CIRCLE
5
129
100
AcDbEntity
8
0
100
AcDbCircle
10
168.82718269189951
20
478.56017648283569
30
0
40
1.6999999999999924
210
0
220
0
230
1
0
CIRCLE
5
130
100
AcDbEntity
8
0
100
AcDbCircle
10
3.8062604917591969
20
478.62721665233352
30
0
40
1.6999999999999993
210
0
220
0
230
1
0
ARC
5
131
100
AcDbEntity
8
0
100
AcDbCircle
10
361.11248343013278
20
482.62719207194596
30
0
40
9.0000000001683436
210
0
220
0
230
1
100
AcDbArc
50
-90.000004667162472
51
0.00044631951354462336
0
LINE
5
132
100
AcDbEntity
8
0
100
AcDbLine
10
370.11248342984902
20
482.62726217967725
30
0
11
370.11198583351734
21
542.98429027435168
31
0
0
LINE
5
133
100
AcDbEntity
8
0
100
AcDbLine
10
188.82833344891998
20
473.57336701390494
30
0
11
361.11248269701662
21
473.62719207177759
31
0
0
ARC
5
134
100
AcDbEntity
8
0
100
AcDbCircle
10
366.36538967214528
20
542.98389455940992
30
0
40
3.7465961822610416
210
0
220
0
230
1
100
AcDbArc
50
-0.0051774161594862885
51
180.10753467434111
0
LINE
5
135
100
AcDbEntity
8
0
100
AcDbLine
10
362.61879348988424
20
542.98389455941674
30
0
11
362.61880008848749
21
482.61371251952312
31
0
0
LINE
5
136
100
AcDbEntity
8
0
100
AcDbLine
10
362.61880008848749
20
482.61371251952312
30
0
11
191.70522589184029
21
482.61371251952312
31
0
0
ARC
5
137
100
AcDbEntity
8
0
100
AcDbCircle
10
188.82677808911242
20
478.55178880872938
30
0
40
4.9784220377874187
210
0
220
0
230
1
100
AcDbArc
50
-89.982099638525952
51
54.677029919413698
0
CIRCLE
5
138
100
AcDbEntity
8
0
100
AcDbCircle
10
353.80625897419975
20
478.6272348534992
30
0
40
1.6999999999999715
210
0
220
0
230
1
0
LINE
5
139
100
AcDbEntity
8
0
100
AcDbLine
10
370.11198583351734
20
562.98429027435168
30
0
11
370.11153273724983
21
623.33980600167888
31
0
0
LINE
5
140
100
AcDbEntity
8
0
100
AcDbLine
10
361.11153247940484
20
632.3397351485346
30
0
11
320.50000417178984
21
632.33973425041825
31
0
0
ARC
5
141
100
AcDbEntity
8
0
100
AcDbCircle
10
320.50000436604023
20
623.33973425041813
30
0
40
9.0000000000000586
210
0
220
0
230
1
100
AcDbArc
50
90.000001236636393
51
180
0
ARC
5
142
100
AcDbEntity
8
0
100
AcDbCircle
10
361.11153273752871
20
623.3397351485346
30
0
40
9.0000000000000675
210
0
220
-0
230
1
100
AcDbArc
50
0.00045106486668060049
51
90.000001643267538
0
LINE
5
143
100
AcDbEntity
8
0
100
AcDbLine
10
362.61880008870469
20
623.34001312840064
30
0
11
362.61879348988424
21
562.98389455941674
31
0
0
LINE
5
144
100
AcDbEntity
8
0
100
AcDbLine
10
311.50000437036095
20
623.34001312840201
30
0
11
362.61880008870469
21
623.34001312840064
31
0
0
ARC
5
145
100
AcDbEntity
8
0
100
AcDbCircle
10
366.36538967214528
20
562.98389455940992
30
0
40
3.7465961822610416
210
0
220
0
230
1
100
AcDbArc
50
-0.0051774161594862885
51
180.10753467434111
0
CIRCLE
5
146
100
AcDbEntity
8
0
100
AcDbCircle
10
353.80695094675593
20
627.34102949179135
30
0
40
1.6999999999999835
210
0
220
0
230
1
0
SPLINE
5
147
100
AcDbEntity
8
0
100
AcDbSpline
70
4
71
3
72
8
73
4
74
0
42
0.000000001
43
0.0000000001
44
0.0000000001
40
0
40
0
40
0
40
0
40
1
40
1
40
1
40
1
41
1
41
1
41
1
41
1
10
325.73147173884331
20
541.80875487179742
30
0
10
325.77716038354907
20
541.0562504970037
30
0
10
326.49443732391234
20
538.79843950013867
30
0
10
326.01844422988643
20
538.15909991407636
30
0
0
SPLINE
5
148
100
AcDbEntity
8
0
100
AcDbSpline
70
0
71
2
72
6
73
3
74
0
42
0.000000001
43
0.0000000001
44
0.0000000001
40
0
40
0
40
0
40
1
40
1
40
1
10
326.01844422988643
20
538.15909991407636
30
0
10
325.54245113586046
20
537.51976032801394
30
0
10
324.01026642723559
20
536.90695814800029
30
0
0
SPLINE
5
149
100
AcDbEntity
8
0
100
AcDbSpline
70
0
71
2
72
6
73
3
74
0
42
0.000000001
43
0.0000000001
44
0.0000000001
40
0
40
0
40
0
40
1
40
1
40
1
10
324.01026642723559
20
536.90695814800029
30
0
10
322.47808350227831
20
537.5197656790167
30
0
10
322.00209219191993
20
538.15909991407636
30
0
0
SPLINE
5
150
100
AcDbEntity
8
0
100
AcDbSpline
70
4
71
3
72
8
73
4
74
0
42
0.000000001
43
0.0000000001
44
0.0000000001
40
0
40
0
40
0
40
0
40
1
40
1
40
1
40
1
41
1
41
1
41
1
41
1
10
322.00209219191993
20
538.15909991407636
30
0
10
321.52610088156155
20
538.79843414913591
30
0
10
322.24337247092205
20
541.05609888526055
30
0
10
322.28906111562787
20
541.80859612538416
30
0
0
SPLINE
5
151
100
AcDbEntity
8
0
100
AcDbSpline
70
4
71
3
72
8
73
4
74
0
42
0.000000001
43
0.0000000001
44
0.0000000001
40
0
40
0
40
0
40
0
40
1
40
1
40
1
40
1
41
1
41
1
41
1
41
1
10
322.28906111562787
20
541.80859612538416
30
0
10
322.33475154400128
20
542.56109693284293
30
0
10
314.16544528751808
20
545.19181128124956
30
0
10
310.76215495319627
20
549.7736207191889
30
0
0
SPLINE
5
152
100
AcDbEntity
8
0
100
AcDbSpline
70
4
71
3
72
8
73
4
74
0
42
0.000000001
43
0.0000000001
44
0.0000000001
40
0
40
0
40
0
40
0
40
1
40
1
40
1
40
1
41
1
41
1
41
1
41
1
10
310.76215495319627
20
549.7736207191889
30
0
10
312.32688624389982
20
545.19165253483607
30
0
10
319.70068390057031
20
540.51665895224062
30
0
10
319.88970539538695
20
540.07711332126064
30
0
0
SPLINE
5
153
100
AcDbEntity
8
0
100
AcDbSpline
70
4
71
3
72
8
73
4
74
0
42
0.000000001
43
0.0000000001
44
0.0000000001
40
0
40
0
40
0
40
0
40
1
40
1
40
1
40
1
41
1
41
1
41
1
41
1
10
319.88970539538695
20
540.07711332126064
30
0
10
320.07872689020365
20
539.63756769028032
30
0
10
319.38773764242961
20
537.59968290431607
30
0
10
319.55078091097971
20
536.96034510192135
30
0
0
SPLINE
5
154
100
AcDbEntity
8
0
100
AcDbSpline
70
4
71
3
72
8
73
4
74
0
42
0.000000001
43
0.0000000001
44
0.0000000001
40
0
40
0
40
0
40
0
40
1
40
1
40
1
40
1
41
1
41
1
41
1
41
1
10
319.55078091097971
20
536.96034510192135
30
0
10
319.71382417952987
20
536.32100729952663
30
0
10
324.01026821090318
20
533.09746873968038
30
0
10
324.01026821090318
20
533.0976239187587
30
0
0
SPLINE
5
155
100
AcDbEntity
8
0
100
AcDbSpline
70
0
71
2
72
6
73
3
74
0
42
0.000000001
43
0.0000000001
44
0.0000000001
40
0
40
0
40
0
40
1
40
1
40
1
10
324.01026821090318
20
533.0976239187587
30
0
10
328.30670956677517
20
536.32100373219146
30
0
10
328.46975283532527
20
536.96034510192135
30
0
0
SPLINE
5
156
100
AcDbEntity
8
0
100
AcDbSpline
70
4
71
3
72
8
73
4
74
0
42
0.000000001
43
0.0000000001
44
0.0000000001
40
0
40
0
40
0
40
0
40
1
40
1
40
1
40
1
41
1
41
1
41
1
41
1
10
328.46975283532527
20
536.96034510192135
30
0
10
328.63279610387536
20
537.59968647165124
30
0
10
327.94181220710408
20
539.63756947394791
30
0
10
328.13083281008693
20
540.07711332126064
30
0
0
SPLINE
5
157
100
AcDbEntity
8
0
100
AcDbSpline
70
4
71
3
72
8
73
4
74
0
42
0.000000001
43
0.0000000001
44
0.0000000001
40
0
40
0
40
0
40
0
40
1
40
1
40
1
40
1
41
1
41
1
41
1
41
1
10
328.13083281008693
20
540.07711332126064
30
0
10
328.31985341306972
20
540.51665716857315
30
0
10
335.69364928607274
20
545.19181128124956
30
0
10
337.25838057677629
20
549.77378214110354
30
0
0
SPLINE
5
158
100
AcDbEntity
8
0
100
AcDbSpline
70
4
71
3
72
8
73
4
74
0
42
0.000000001
43
0.0000000001
44
0.0000000001
40
0
40
0
40
0
40
0
40
1
40
1
40
1
40
1
41
1
41
1
41
1
41
1
10
337.25838057677629
20
549.77378214110354
30
0
10
333.85508578328552
20
545.19181128124956
30
0
10
325.68578309413749
20
542.56125924659136
30
0
10
325.73147173884331
20
541.80875487179742
30
0
0
LINE
5
159
100
AcDbEntity
8
0
100
AcDbLine
10
73.670430446437706
20
531.3653692811821
30
0
11
76.396029638846258
21
533.06265269536084
31
0
0
SPLINE
5
160
100
AcDbEntity
8
0
100
AcDbSpline
70
4
71
5
72
21
73
15
74
0
42
0.000000001
43
0.0000000001
44
0.0000000001
40
0
40
0
40
0
40
0
40
0
40
0
40
0.10000000000000001
40
0.20000000000000001
40
0.30000000000000004
40
0.40000000000000002
40
0.5
40
0.59999999999999998
40
0.69999999999999996
40
0.79999999999999993
40
0.89999999999999991
40
1
40
1
40
1
40
1
40
1
40
1
41
1
41
1
41
1
41
1
41
1
41
1
41
1
41
1
41
1
41
1
41
1
41
1
41
1
41
1
41
1
10
65.353475380252803
20
507.76132696996206
30
0
10
65.269703316270892
20
507.6931413109877
30
0
10
65.105379810355274
20
507.55506609377136
30
0
10
64.868556117972275
20
507.34284172868081
30
0
10
64.572434820316971
20
507.04948327054353
30
0
10
64.237245141475398
20
506.66428826502704
30
0
10
63.940144343728079
20
506.25894199171876
30
0
10
63.68424456758072
20
505.83179794434398
30
0
10
63.471251707082111
20
505.38195360408258
30
0
10
63.29947684974934
20
504.91030250533953
30
0
10
63.165813600100307
20
504.41848811478576
30
0
10
63.086872805248824
20
504.01022834212222
30
0
10
63.042411119712597
20
503.69623311294225
30
0
10
63.019215953424357
20
503.48349266790507
30
0
10
63.009229908423059
20
503.3762698465099
30
0
0
LINE
5
161
100
AcDbEntity
8
0
100
AcDbLine
10
62.899947866765658
20
550.43176923314286
30
0
11
68.774449485777453
21
545.43358476781668
31
0
0
LINE
5
162
100
AcDbEntity
8
0
100
AcDbLine
10
68.774449485777453
20
545.43358476781668
30
0
11
71.476900114590535
21
555.17548340555413
31
0
0
SPLINE
5
163
100
AcDbEntity
8
0
100
AcDbSpline
70
4
71
5
72
21
73
15
74
0
42
0.000000001
43
0.0000000001
44
0.0000000001
40
0
40
0
40
0
40
0
40
0
40
0
40
0.10000000000000001
40
0.20000000000000001
40
0.30000000000000004
40
0.40000000000000002
40
0.5
40
0.59999999999999998
40
0.69999999999999996
40
0.79999999999999993
40
0.89999999999999991
40
1
40
1
40
1
40
1
40
1
40
1
41
1
41
1
41
1
41
1
41
1
41
1
41
1
41
1
41
1
41
1
41
1
41
1
41
1
41
1
41
1
10
73.670430446437706
20
531.3653692811821
30
0
10
73.601867654885083
20
530.88923093398625
30
0
10
73.473306684933164
20
529.938763746718
30
0
10
73.306158026716105
20
528.51849126687762
30
0
10
73.135533150177125
20
526.63583174602832
30
0
10
73.015274919168661
20
524.30216095134961
30
0
10
72.996534261138933
20
521.98993850081183
30
0
10
73.087883308485317
20
519.70097549011768
30
0
10
73.294515855653458
20
517.43636924933821
30
0
10
73.612537930256181
20
515.19529707102902
30
0
10
74.033818014637021
20
512.97604095124473
30
0
10
74.446811072301728
20
511.21668656749671
30
0
10
74.796592928379354
20
509.9056296963895
30
0
10
75.047285606365492
20
509.03529014114167
30
0
10
75.177008225084251
20
508.60104497144476
30
0
0
LINE
5
164
100
AcDbEntity
8
0
100
AcDbLine
10
80.053852362415398
20
550.43176923314286
30
0
11
74.179350743403617
21
545.43358476781668
31
0
0
SPLINE
5
165
100
AcDbEntity
8
0
100
AcDbSpline
70
4
71
5
72
16
73
10
74
0
42
0.000000001
43
0.0000000001
44
0.0000000001
40
0
40
0
40
0
40
0
40
0
40
0
40
0.20000000000000001
40
0.40000000000000002
40
0.60000000000000009
40
0.80000000000000004
40
1
40
1
40
1
40
1
40
1
40
1
41
1
41
1
41
1
41
1
41
1
41
1
41
1
41
1
41
1
41
1
10
79.944570320758004
20
503.3762698465099
30
0
10
79.992380297750515
20
503.32185745201036
30
0
10
80.084414245817342
20
503.21528932809662
30
0
10
80.211711673226475
20
503.06220429113171
30
0
10
80.358440024412587
20
502.87256573104577
30
0
10
80.484759675100179
20
502.67144462951734
30
0
10
80.511363764812302
20
502.55739998412969
30
0
10
80.468402203642313
20
502.51145852750057
30
0
10
80.407324526562348
20
502.50124318852465
30
0
10
80.368669227483707
20
502.50124318852465
30
0
0
LINE
5
166
100
AcDbEntity
8
0
100
AcDbLine
10
74.179350743403617
20
545.43358476781668
30
0
11
71.476900114590535
21
555.17548340555413
31
0
0
LINE
5
167
100
AcDbEntity
8
0
100
AcDbLine
10
71.476900114590535
20
502.50124318852465
30
0
11
62.585131001697356
21
502.50124318852465
31
0
0
LINE
5
168
100
AcDbEntity
8
0
100
AcDbLine
10
69.283369782743364
20
531.3653692811821
30
0
11
66.557770590334798
21
533.06265269536084
31
0
0
SPLINE
5
169
100
AcDbEntity
8
0
100
AcDbSpline
70
4
71
5
72
21
73
15
74
0
42
0.000000001
43
0.0000000001
44
0.0000000001
40
0
40
0
40
0
40
0
40
0
40
0
40
0.10000000000000001
40
0.20000000000000001
40
0.30000000000000004
40
0.40000000000000002
40
0.5
40
0.59999999999999998
40
0.69999999999999996
40
0.79999999999999993
40
0.89999999999999991
40
1
40
1
40
1
40
1
40
1
40
1
41
1
41
1
41
1
41
1
41
1
41
1
41
1
41
1
41
1
41
1
41
1
41
1
41
1
41
1
41
1
10
66.557770590334798
20
533.06265269536084
30
0
10
66.561680211079263
20
533.32717704631523
30
0
10
66.571301971771732
20
533.84702810589044
30
0
10
66.591142107072272
20
534.59921209150275
30
0
10
66.62858904573244
20
535.54602836454865
30
0
10
66.695174576502993
20
536.62863412982279
30
0
10
66.783911650443557
20
537.59820810562292
30
0
10
66.897847855588637
20
538.4391994869253
30
0
10
67.040105016227656
20
539.13567866634617
30
0
10
67.213212115204541
20
539.67474110472199
30
0
10
67.41744718270175
20
540.05496810860245
30
0
10
67.604617934380443
20
540.23779469563578
30
0
10
67.757726519477316
20
540.30995511607659
30
0
10
67.865361692307687
20
540.32967707488194
30
0
10
67.920570186539081
20
540.33244072484513
30
0
0
LINE
5
170
100
AcDbEntity
8
0
100
AcDbLine
10
73.63998721926751
20
540.32361315013725
30
0
11
80.053852362415398
21
550.43176923314286
31
0
0
SPLINE
5
171
100
AcDbEntity
8
0
100
AcDbSpline
70
4
71
5
72
16
73
10
74
0
42
0.000000001
43
0.0000000001
44
0.0000000001
40
0
40
0
40
0
40
0
40
0
40
0
40
0.20000000000000001
40
0.40000000000000002
40
0.60000000000000009
40
0.80000000000000004
40
1
40
1
40
1
40
1
40
1
40
1
41
1
41
1
41
1
41
1
41
1
41
1
41
1
41
1
41
1
41
1
10
75.033230042641989
20
540.33244072484513
30
0
10
74.977500329703531
20
540.33208762182494
30
0
10
74.866040903827681
20
540.33138141579593
30
0
10
74.69885176501765
20
540.33032210679028
30
0
10
74.47593291327513
20
540.32890969482173
30
0
10
74.197284348602295
20
540.32714417990519
30
0
10
73.97436549686671
20
540.32573176798849
30
0
10
73.807176358066584
20
540.3246724590598
30
0
10
73.69571693220044
20
540.32396625311083
30
0
10
73.63998721926751
20
540.32361315013725
30
0
0
SPLINE
5
172
100
AcDbEntity
8
0
100
AcDbSpline
70
4
71
5
72
16
73
10
74
0
42
0.000000001
43
0.0000000001
44
0.0000000001
40
0
40
0
40
0
40
0
40
0
40
0
40
0.20000000000000001
40
0.40000000000000002
40
0.60000000000000009
40
0.80000000000000004
40
1
40
1
40
1
40
1
40
1
40
1
41
1
41
1
41
1
41
1
41
1
41
1
41
1
41
1
41
1
41
1
10
63.009229908423059
20
503.3762698465099
30
0
10
62.961419931430555
20
503.32185745201036
30
0
10
62.869385983363827
20
503.21528932809662
30
0
10
62.742088555956322
20
503.06220429113171
30
0
10
62.595360204770607
20
502.87256573104577
30
0
10
62.469040554082504
20
502.67144462951734
30
0
10
62.442436464369237
20
502.55739998412969
30
0
10
62.4853980255388
20
502.51145852750057
30
0
10
62.546475702618707
20
502.50124318852465
30
0
10
62.585131001697356
20
502.50124318852465
30
0
0
SPLINE
5
173
100
AcDbEntity
8
0
100
AcDbSpline
70
4
71
5
72
21
73
15
74
0
42
0.000000001
43
0.0000000001
44
0.0000000001
40
0
40
0
40
0
40
0
40
0
40
0
40
0.10000000000000001
40
0.20000000000000001
40
0.30000000000000004
40
0.40000000000000002
40
0.5
40
0.59999999999999998
40
0.69999999999999996
40
0.79999999999999993
40
0.89999999999999991
40
1
40
1
40
1
40
1
40
1
40
1
41
1
41
1
41
1
41
1
41
1
41
1
41
1
41
1
41
1
41
1
41
1
41
1
41
1
41
1
41
1
10
69.283369782743364
20
531.3653692811821
30
0
10
69.351932574295986
20
530.88923093398625
30
0
10
69.480493544247821
20
529.938763746718
30
0
10
69.647642202464766
20
528.51849126687762
30
0
10
69.818267079003846
20
526.63583174602832
30
0
10
69.93852531001292
20
524.30216095134961
30
0
10
69.957265968042421
20
521.98993850081183
30
0
10
69.865916920695753
20
519.70097549011768
30
0
10
69.659284373527285
20
517.43636924933821
30
0
10
69.341262298924335
20
515.19529707102902
30
0
10
68.919982214543793
20
512.97604095124473
30
0
10
68.506989156879456
20
511.21668656749671
30
0
10
68.157207300801758
20
509.9056296963895
30
0
10
67.906514622815564
20
509.03529014114167
30
0
10
67.776792004096805
20
508.60104497144476
30
0
0
SPLINE
5
174
100
AcDbEntity
8
0
100
AcDbSpline
70
4
71
5
72
21
73
15
74
0
42
0.000000001
43
0.0000000001
44
0.0000000001
40
0
40
0
40
0
40
0
40
0
40
0
40
0.10000000000000001
40
0.20000000000000001
40
0.30000000000000004
40
0.40000000000000002
40
0.5
40
0.59999999999999998
40
0.69999999999999996
40
0.79999999999999993
40
0.89999999999999991
40
1
40
1
40
1
40
1
40
1
40
1
41
1
41
1
41
1
41
1
41
1
41
1
41
1
41
1
41
1
41
1
41
1
41
1
41
1
41
1
41
1
10
77.600324848928267
20
507.76132696996206
30
0
10
77.606253425043249
20
507.81034665854014
30
0
10
77.613093064343403
20
507.9054134964079
30
0
10
77.608299368392636
20
508.03909577034
30
0
10
77.571311487567854
20
508.1992125584211
30
0
10
77.470888856429582
20
508.36725592470151
30
0
10
77.31240146345823
20
508.50089982099149
30
0
10
77.09272112720879
20
508.59829100996842
30
0
10
76.812855313519663
20
508.66002634743973
30
0
10
76.477463862493465
20
508.68886647555314
30
0
10
76.091868961026364
20
508.68796443242547
30
0
10
75.74701958897586
20
508.66569397217518
30
0
10
75.469309334941443
20
508.63769152267832
30
0
10
75.275831608668227
20
508.61408378072883
30
0
10
75.177008225084251
20
508.60104497144476
30
0
0
SPLINE
5
175
100
AcDbEntity
8
0
100
AcDbSpline
70
4
71
5
72
21
73
15
74
0
42
0.000000001
43
0.0000000001
44
0.0000000001
40
0
40
0
40
0
40
0
40
0
40
0
40
0.10000000000000001
40
0.20000000000000001
40
0.30000000000000004
40
0.40000000000000002
40
0.5
40
0.59999999999999998
40
0.69999999999999996
40
0.79999999999999993
40
0.89999999999999991
40
1
40
1
40
1
40
1
40
1
40
1
41
1
41
1
41
1
41
1
41
1
41
1
41
1
41
1
41
1
41
1
41
1
41
1
41
1
41
1
41
1
10
76.396029638846258
20
533.06265269536084
30
0
10
76.392120018101807
20
533.32717704631523
30
0
10
76.382498257409082
20
533.84702810589044
30
0
10
76.362658122108058
20
534.59921209150275
30
0
10
76.325211183446385
20
535.54602836454865
30
0
10
76.258625652675065
20
536.62863412982279
30
0
10
76.1698885787347
20
537.59820810562292
30
0
10
76.055952373590515
20
538.4391994869253
30
0
10
75.913695212953002
20
539.13567866634617
30
0
10
75.740588113977381
20
539.67474110472199
30
0
10
75.536353046480784
20
540.05496810860245
30
0
10
75.349182294801565
20
540.23779469563578
30
0
10
75.196073709703938
20
540.30995511607659
30
0
10
75.088438536873369
20
540.32967707488194
30
0
10
75.033230042641989
20
540.33244072484513
30
0
0
SPLINE
5
176
100
AcDbEntity
8
0
100
AcDbSpline
70
4
71
5
72
16
73
10
74
0
42
0.000000001
43
0.0000000001
44
0.0000000001
40
0
40
0
40
0
40
0
40
0
40
0
40
0.20000000000000001
40
0.40000000000000002
40
0.60000000000000009
40
0.80000000000000004
40
1
40
1
40
1
40
1
40
1
40
1
41
1
41
1
41
1
41
1
41
1
41
1
41
1
41
1
41
1
41
1
10
67.920570186539081
20
540.33244072484513
30
0
10
67.976299899477539
20
540.33208762182494
30
0
10
68.087759325353488
20
540.33138141579593
30
0
10
68.254948464165082
20
540.33032210679028
30
0
10
68.477867315907901
20
540.32890969482173
30
0
10
68.756515880580181
20
540.32714417990519
30
0
10
68.979434732314701
20
540.32573176798849
30
0
10
69.146623871114528
20
540.3246724590598
30
0
10
69.258083296980615
20
540.32396625311083
30
0
10
69.313813009913545
20
540.32361315013725
30
0
0
LINE
5
177
100
AcDbEntity
8
0
100
AcDbLine
10
69.313813009913545
20
540.32361315013725
30
0
11
62.899947866765658
21
550.43176923314286
31
0
0
SPLINE
5
178
100
AcDbEntity
8
0
100
AcDbSpline
70
4
71
5
72
21
73
15
74
0
42
0.000000001
43
0.0000000001
44
0.0000000001
40
0
40
0
40
0
40
0
40
0
40
0
40
0.10000000000000001
40
0.20000000000000001
40
0.30000000000000004
40
0.40000000000000002
40
0.5
40
0.59999999999999998
40
0.69999999999999996
40
0.79999999999999993
40
0.89999999999999991
40
1
40
1
40
1
40
1
40
1
40
1
41
1
41
1
41
1
41
1
41
1
41
1
41
1
41
1
41
1
41
1
41
1
41
1
41
1
41
1
41
1
10
65.353475380252803
20
507.76132696996206
30
0
10
65.347546804137806
20
507.81034665854014
30
0
10
65.340707164837056
20
507.9054134964079
30
0
10
65.345500860785222
20
508.03909577034
30
0
10
65.382488741607517
20
508.1992125584211
30
0
10
65.482911372746855
20
508.36725592470151
30
0
10
65.641398765721533
20
508.50089982099149
30
0
10
65.861079101974298
20
508.59829100996842
30
0
10
66.140944915665003
20
508.66002634743973
30
0
10
66.476336366691015
20
508.68886647555314
30
0
10
66.861931268156752
20
508.68796443242547
30
0
10
67.206780640206091
20
508.66569397217518
30
0
10
67.484490894239769
20
508.63769152267832
30
0
10
67.677968620512843
20
508.61408378072883
30
0
10
67.776792004096805
20
508.60104497144476
30
0
0
LINE
5
179
100
AcDbEntity
8
0
100
AcDbLine
10
71.476900114590521
20
502.50124318852465
30
0
11
80.368669227483707
21
502.50124318852465
31
0
0
SPLINE
5
180
100
AcDbEntity
8
0
100
AcDbSpline
70
4
71
5
72
21
73
15
74
0
42
0.000000001
43
0.0000000001
44
0.0000000001
40
0
40
0
40
0
40
0
40
0
40
0
40
0.10000000000000001
40
0.20000000000000001
40
0.30000000000000004
40
0.40000000000000002
40
0.5
40
0.59999999999999998
40
0.69999999999999996
40
0.79999999999999993
40
0.89999999999999991
40
1
40
1
40
1
40
1
40
1
40
1
41
1
41
1
41
1
41
1
41
1
41
1
41
1
41
1
41
1
41
1
41
1
41
1
41
1
41
1
41
1
10
77.600324848928267
20
507.76132696996206
30
0
10
77.684096912910178
20
507.6931413109877
30
0
10
77.848420418824816
20
507.55506609377136
30
0
10
78.085244111203636
20
507.34284172868081
30
0
10
78.38136540885381
20
507.04948327054353
30
0
10
78.716555087695269
20
506.66428826502704
30
0
10
79.01365588544715
20
506.25894199171876
30
0
10
79.269555661600862
20
505.83179794434398
30
0
10
79.482548522103599
20
505.38195360408258
30
0
10
79.65432337943723
20
504.91030250533953
30
0
10
79.787986629084557
20
504.41848811478576
30
0
10
79.866927423933845
20
504.01022834212222
30
0
10
79.911389109468757
20
503.69623311294225
30
0
10
79.934584275756706
20
503.48349266790507
30
0
10
79.944570320758004
20
503.3762698465099
30
0
0
CIRCLE
5
181
100
AcDbEntity
8
0
100
AcDbCircle
10
71.476900114590535
20
535.45902371787588
30
0
40
1.6999999999999891
210
0
220
0
230
1
0
LWPOLYLINE
5
182
100
AcDbEntity
8
0
100
AcDbPolyline
90
5
70
1
43
0.0
10
71.476900114590535
20
541.67509297739559
10
71.476900114590535
20
553.67909510713628
10
69.923142936073774
20
548.07805108457853
10
69.908312297689704
20
548.02458902524234
10
69.159893687765504
20
545.32666064914429
0
LWPOLYLINE
5
183
100
AcDbEntity
8
0
100
AcDbPolyline
90
5
70
1
43
0.0
10
93.476900114590535
20
541.67509297739559
10
93.476900114590535
20
553.67909510713628
10
91.923142936073788
20
548.07805108457853
10
91.908312297689719
20
548.02458902524234
10
91.159893687765504
20
545.32666064914429
0
CIRCLE
5
184
100
AcDbEntity
8
0
100
AcDbCircle
10
93.476900114590535
20
535.45902371787588
30
0
40
1.6999999999999891
210
0
220
0
230
1
0
LINE
5
185
100
AcDbEntity
8
0
100
AcDbLine
10
93.476900114590521
20
502.00124318852465
30
0
11
84.585131001697363
21
502.00124318852465
31
0
0
SPLINE
5
186
100
AcDbEntity
8
0
100
AcDbSpline
70
0
71
3
72
20
73
16
74
0
42
0.000000001
43
0.0000000001
44
0.0000000001
40
0.087119481078608493
40
0.087119481078608493
40
0.087119481078608493
40
0.087119481078608493
40
0.5
40
0.5
40
0.5
40
0.7087803734173288
40
0.7087803734173288
40
0.7087803734173288
40
0.828925980863779
40
0.828925980863779
40
0.828925980863779
40
0.96625882604954083
40
0.96625882604954083
40
0.96625882604954083
40
1
40
1
40
1
40
1
10
84.527889025094254
20
503.58413768628844
30
0
10
84.366722824506084
20
503.39493833653484
30
0
10
84.226682811403322
20
503.22331342864584
30
0
10
84.113802705624778
20
503.03675139224077
30
0
10
84.056722873673877
20
502.94241298235909
30
0
10
83.996135057485404
20
502.85536902617514
30
0
10
83.970759931922345
20
502.67191107201944
30
0
10
83.956157458400057
20
502.56633760751157
30
0
10
83.964299229513955
20
502.39519754052446
30
0
10
84.072255521052242
20
502.2454211599171
30
0
10
84.195655327235457
20
502.07421875870068
30
0
10
84.385046054660066
20
502.01761295847302
30
0
10
84.503291132570411
20
502.00535884898966
30
0
10
84.532342651434391
20
502.00234814867889
30
0
10
84.559400882863983
20
502.00124318852465
30
0
10
84.585131001697363
20
502.00124318852465
30
0
0
SPLINE
5
187
100
AcDbEntity
8
0
100
AcDbSpline
70
0
71
3
72
11
73
7
74
0
42
0.000000001
43
0.0000000001
44
0.0000000001
40
0.043683142893329176
40
0.043683142893329176
40
0.043683142893329176
40
0.043683142893329176
40
0.65464797408119835
40
0.65464797408119835
40
0.65464797408119835
40
0.97141732452655949
40
0.97141732452655949
40
0.97141732452655949
40
0.97141732452655949
10
86.84740843322686
20
507.98973436549267
30
0
10
85.971628389269398
20
507.23595574022158
30
0
10
85.289958146103515
20
506.33764787440128
30
0
10
84.912084190496202
20
505.29142694669599
30
0
10
84.716166387444858
20
504.74898864783819
30
0
10
84.594087109671733
20
504.17868755782513
30
0
10
84.527889025094481
20
503.58413768628861
30
0
0
SPLINE
5
188
100
AcDbEntity
8
0
100
AcDbSpline
70
0
71
3
72
14
73
10
74
0
42
0.000000001
43
0.0000000001
44
0.0000000001
40
0.085220111792551886
40
0.085220111792551886
40
0.085220111792551886
40
0.085220111792551886
40
0.30620564164877168
40
0.30620564164877168
40
0.30620564164877168
40
0.64928968652167418
40
0.64928968652167418
40
0.64928968652167418
40
0.91422646823008458
40
0.91422646823008458
40
0.91422646823008458
40
0.91422646823008458
10
86.847408433227173
20
507.98973436549295
30
0
10
86.862917688791327
20
508.24469160889117
30
0
10
86.953582870146434
20
508.50153085627392
30
0
10
87.133522115604492
20
508.70196382384
30
0
10
87.412881059166523
20
509.01313964283236
30
0
10
87.825683514140209
20
509.12893807113647
30
0
10
88.268551337039497
20
509.16835277877823
30
0
10
88.610543270137441
20
509.19878965263075
30
0
10
88.991453514845773
20
509.18623852176495
30
0
10
89.416024444615658
20
509.14557338038372
30
0
0
SPLINE
5
189
100
AcDbEntity
8
0
100
AcDbSpline
70
0
71
3
72
11
73
7
74
0
42
0.000000001
43
0.0000000001
44
0.0000000001
40
0.0097318879816928744
40
0.0097318879816928744
40
0.0097318879816928744
40
0.0097318879816928744
40
0.63723143529929216
40
0.63723143529929216
40
0.63723143529929216
40
0.98136488140250955
40
0.98136488140250955
40
0.98136488140250955
40
0.98136488140250955
10
90.821196487396051
20
531.0641532958972
30
0
10
91.515788041061739
20
526.12396794843153
30
0
10
91.65696040497366
20
521.31578450688119
30
0
10
91.030857366363861
20
516.67185721324142
30
0
10
90.687489793887437
20
514.12503353847592
30
0
10
90.135018610967251
20
511.61842170603984
30
0
10
89.416024444615999
20
509.14557338038367
30
0
0
LINE
5
190
100
AcDbEntity
8
0
100
AcDbLine
10
90.821196487396051
20
531.0641532958972
30
0
11
88.053650134408471
21
532.78755801951888
31
0
0
SPLINE
5
191
100
AcDbEntity
8
0
100
AcDbSpline
70
0
71
3
72
20
73
16
74
0
42
0.000000001
43
0.0000000001
44
0.0000000001
40
-0.021357865534255727
40
-0.021357865534255727
40
-0.021357865534255727
40
-0.021357865534255727
40
0
40
0
40
0
40
0.5
40
0.5
40
0.5
40
0.79815950573803685
40
0.79815950573803685
40
0.79815950573803685
40
1
40
1
40
1
40
1.0050985815217086
40
1.0050985815217086
40
1.0050985815217086
40
1.0050985815217086
10
88.053650134408485
20
532.78755801951911
30
0
10
88.05504182031099
20
532.8817192781562
30
0
10
88.056433506213494
20
532.97588053679317
30
0
10
88.057825192115985
20
533.07004179543014
30
0
10
88.09058581890568
20
535.2866208717187
30
0
10
88.188772411913021
20
537.15184583085511
30
0
10
88.411768959118831
20
538.48555233016361
30
0
10
88.544746039711114
20
539.28086687143048
30
0
10
88.710577657944583
20
539.87452281534797
30
0
10
89.013107611757718
20
540.30079152577594
30
0
10
89.217906701612463
20
540.58935615492715
30
0
10
89.535823897375252
20
540.81380700308523
30
0
10
89.895572277648228
20
540.83181543841317
30
0
10
89.900263694457365
20
540.83205028332372
30
0
10
89.904955111266332
20
540.83228512823428
30
0
10
89.909646528074461
20
540.83251997314483
30
0
0
LINE
5
192
100
AcDbEntity
8
0
100
AcDbLine
10
89.909646528074475
20
540.83251997314483
30
0
11
90.400712413839386
21
540.82940858372785
31
0
0
LINE
5
193
100
AcDbEntity
8
0
100
AcDbLine
10
90.400712413839386
20
540.82940858372785
30
0
11
82.707701063483114
21
552.95348006671031
31
0
0
LINE
5
194
100
AcDbEntity
8
0
100
AcDbLine
10
82.707701063483114
20
552.95348006671031
30
0
11
90.501988006609437
21
546.32189045383984
31
0
0
LINE
5
195
100
AcDbEntity
8
0
100
AcDbLine
10
90.501988006609437
20
546.32189045383984
30
0
11
93.476900114590535
21
557.04596877857819
31
0
0
LINE
5
196
100
AcDbEntity
8
0
100
AcDbLine
10
96.451812222571647
20
546.32189045383984
30
0
11
93.476900114590535
21
557.04596877857819
31
0
0
LINE
5
197
100
AcDbEntity
8
0
100
AcDbLine
10
104.24609916569794
20
552.95348006671031
30
0
11
96.451812222571647
21
546.32189045383984
31
0
0
LINE
5
198
100
AcDbEntity
8
0
100
AcDbLine
10
96.553087815341669
20
540.82940858372774
30
0
11
104.24609916569794
21
552.95348006671031
31
0
0
LINE
5
199
100
AcDbEntity
8
0
100
AcDbLine
10
97.044153700874475
20
540.8325199731554
30
0
11
96.553087815341669
21
540.82940858372774
31
0
0
SPLINE
5
200
100
AcDbEntity
8
0
100
AcDbSpline
70
0
71
3
72
20
73
16
74
0
42
0.000000001
43
0.0000000001
44
0.0000000001
40
-0.021357865534304132
40
-0.021357865534304132
40
-0.021357865534304132
40
-0.021357865534304132
40
0
40
0
40
0
40
0.5
40
0.5
40
0.5
40
0.79815950573792604
40
0.79815950573792604
40
0.79815950573792604
40
1
40
1
40
1
40
1.0050985816064575
40
1.0050985816064575
40
1.0050985816064575
40
1.0050985816064575
10
98.900150094772599
20
532.78755801951843
30
0
10
98.89875840887008
20
532.88171927815574
30
0
10
98.897366722967575
20
532.97588053679294
30
0
10
98.895975037065085
20
533.07004179543014
30
0
10
98.86321441027539
20
535.28662087171915
30
0
10
98.765027817266258
20
537.15184583085488
30
0
10
98.542031270061656
20
538.48555233016316
30
0
10
98.409054189470055
20
539.28086687142968
30
0
10
98.243222571236558
20
539.8745228153474
30
0
10
97.940692617423665
20
540.30079152577537
30
0
10
97.735893527568891
20
540.58935615492692
30
0
10
97.417976331806031
20
540.81380700308523
30
0
10
97.058227951532814
20
540.83181543841317
30
0
10
97.05353653464573
20
540.83205028332759
30
0
10
97.048845117758759
20
540.83228512824212
30
0
10
97.044153700872215
20
540.83251997315665
30
0
0
LINE
5
201
100
AcDbEntity
8
0
100
AcDbLine
10
96.132603741785019
20
531.06415329589709
30
0
11
98.900150094772599
21
532.78755801951843
31
0
0
SPLINE
5
202
100
AcDbEntity
8
0
100
AcDbSpline
70
0
71
3
72
11
73
7
74
0
42
0.000000001
43
0.0000000001
44
0.0000000001
40
0.0097318879816950359
40
0.0097318879816950359
40
0.0097318879816950359
40
0.0097318879816950359
40
0.63723143528020076
40
0.63723143528020076
40
0.63723143528020076
40
0.98136488140250544
40
0.98136488140250544
40
0.98136488140250544
40
0.98136488140250544
10
96.132603741785019
20
531.06415329589709
30
0
10
95.438012188140419
20
526.12396794858137
30
0
10
95.296839824212398
20
521.31578450717132
30
0
10
95.922942862760792
20
516.67185721366525
30
0
10
96.266310435233024
20
514.12503353875434
30
0
10
96.818781618174157
20
511.61842170617695
30
0
10
97.537775784565014
20
509.14557338038367
30
0
0
SPLINE
5
203
100
AcDbEntity
8
0
100
AcDbSpline
70
0
71
3
72
14
73
10
74
0
42
0.000000001
43
0.0000000001
44
0.0000000001
40
0.085220111793573375
40
0.085220111793573375
40
0.085220111793573375
40
0.085220111793573375
40
0.30620564165087438
40
0.30620564165087438
40
0.30620564165087438
40
0.64928968654447972
40
0.64928968654447972
40
0.64928968654447972
40
0.91422646823008669
40
0.91422646823008669
40
0.91422646823008669
40
0.91422646823008669
10
100.10639179595493
20
507.98973436549227
30
0
10
100.0908825403923
20
508.24469160889117
30
0
10
100.00021735903513
20
508.50153085627983
30
0
10
99.820278113572385
20
508.70196382384688
30
0
10
99.540919169987561
20
509.01313964285799
30
0
10
99.128116714992188
20
509.12893807115125
30
0
10
98.685248892051774
20
509.16835277878602
30
0
10
98.343256958972148
20
509.19878965262865
30
0
10
97.962346714296586
20
509.18623852176131
30
0
10
97.537775784565014
20
509.14557338038372
30
0
0
SPLINE
5
204
100
AcDbEntity
8
0
100
AcDbSpline
70
0
71
3
72
11
73
7
74
0
42
0.000000001
43
0.0000000001
44
0.0000000001
40
0.043683142893659169
40
0.043683142893659169
40
0.043683142893659169
40
0.043683142893659169
40
0.65464797408787612
40
0.65464797408787612
40
0.65464797408787612
40
0.97141732452663532
40
0.97141732452663532
40
0.97141732452663532
40
0.97141732452663532
10
100.10639179595502
20
507.98973436549215
30
0
10
100.98217183992043
20
507.23595574021778
30
0
10
101.6638420830908
20
506.3376478743819
30
0
10
102.0417160386957
20
505.29142694666132
30
0
10
102.23763384173965
20
504.74898864781244
30
0
10
102.35971311951032
20
504.17868755781285
30
0
10
102.42591120408656
20
503.58413768628844
30
0
0
SPLINE
5
205
100
AcDbEntity
8
0
100
AcDbSpline
70
0
71
3
72
20
73
16
74
0
42
0.000000001
43
0.0000000001
44
0.0000000001
40
0.087119481077841066
40
0.087119481077841066
40
0.087119481077841066
40
0.087119481077841066
40
0.5
40
0.5
40
0.5
40
0.70878037341671651
40
0.70878037341671651
40
0.70878037341671651
40
0.82892598086067182
40
0.82892598086067182
40
0.82892598086067182
40
0.96625882604318192
40
0.96625882604318192
40
0.96625882604318192
40
1
40
1
40
1
40
1
10
102.42591120408683
20
503.58413768628844
30
0
10
102.58707740467503
20
503.39493833653358
30
0
10
102.7271174177761
20
503.22331342864544
30
0
10
102.8399975235543
20
503.03675139224129
30
0
10
102.89707735550479
20
502.94241298236051
30
0
10
102.95766517169253
20
502.85536902617883
30
0
10
102.98304029725712
20
502.67191107202456
30
0
10
102.99764277078005
20
502.56633760751936
30
0
10
102.989500999672
20
502.39519754054254
30
0
10
102.88154470813943
20
502.24542115993233
30
0
10
102.75814490196311
20
502.07421875871307
30
0
10
102.56875417453719
20
502.01761295847723
30
0
10
102.45050909662578
20
502.00535884899136
30
0
10
102.42145757775538
20
502.00234814867935
30
0
10
102.39439934632193
20
502.00124318852465
30
0
10
102.36866922748371
20
502.00124318852465
30
0
0
LINE
5
206
100
AcDbEntity
8
0
100
AcDbLine
10
93.476900114590521
20
502.00124318852465
30
0
11
102.36866922748371
21
502.00124318852465
31
0
0
LINE
5
207
100
AcDbEntity
8
0
100
AcDbLine
10
50.476900114590521
20
553.67909510713628
30
0
11
50.476900114590521
21
541.67509297739559
31
0
0
LINE
5
208
100
AcDbEntity
8
0
100
AcDbLine
10
48.159893687765504
20
545.32666064914429
30
0
11
50.476900114590521
21
541.67509297739559
31
0
0
CIRCLE
5
209
100
AcDbEntity
8
0
100
AcDbCircle
10
50.476900114590521
20
535.45902371787588
30
0
40
1.1000000000000001
210
0
220
0
230
1
0
LINE
5
210
100
AcDbEntity
8
0
100
AcDbLine
10
48.046910964945454
20
544.54527908179341
30
0
11
48.232101716116951
21
545.21286187029068
31
0
0
LINE
5
211
100
AcDbEntity
8
0
100
AcDbLine
10
52.906889264235573
20
544.54527908179341
30
0
11
50.476900114590521
21
553.30499803252997
31
0
0
LINE
5
212
100
AcDbEntity
8
0
100
AcDbLine
10
56.861605559132954
20
547.91005839957552
30
0
11
52.906889264235573
21
544.54527908179341
31
0
0
LINE
5
213
100
AcDbEntity
8
0
100
AcDbLine
10
51.726886623260754
20
539.81781771665283
30
0
11
56.861605559132954
21
547.91005839957552
31
0
0
LINE
5
214
100
AcDbEntity
8
0
100
AcDbLine
10
54.013050818565759
20
539.83230283334331
30
0
11
51.726886623260754
21
539.81781771665283
31
0
0
SPLINE
5
215
100
AcDbEntity
8
0
100
AcDbSpline
70
0
71
3
72
14
73
10
74
0
42
0.000000001
43
0.0000000001
44
0.0000000001
40
0.021621037182389571
40
0.021621037182389571
40
0.021621037182389571
40
0.021621037182389571
40
0.5
40
0.5
40
0.5
40
0.79132182922833594
40
0.79132182922833594
40
0.79132182922833594
40
0.95505910686691331
40
0.95505910686691331
40
0.95505910686691331
40
0.95505910686691331
10
54.891462708881079
20
533.33746934317026
30
0
10
54.85423470557528
20
535.40589138682697
30
0
10
54.751645117945159
20
537.14886155278327
30
0
10
54.555722880065645
20
538.32064096055979
30
0
10
54.436410725556584
20
539.0342277757386
30
0
10
54.266222570710369
20
539.51495669137717
30
0
10
54.134373259668592
20
539.70881750132219
30
0
10
54.060267425218456
20
539.81777686542227
30
0
10
54.025695536482097
20
539.82857403898936
30
0
10
54.013050818565844
20
539.83230283334228
30
0
0
LINE
5
216
100
AcDbEntity
8
0
100
AcDbLine
10
52.208686061610692
20
531.66685235735645
30
0
11
54.891462708881079
21
533.33746934317026
31
0
0
SPLINE
5
217
100
AcDbEntity
8
0
100
AcDbSpline
70
0
71
3
72
17
73
13
74
0
42
0.000000001
43
0.0000000001
44
0.0000000001
40
-0.009670269667261696
40
-0.009670269667261696
40
-0.009670269667261696
40
-0.009670269667261696
40
0
40
0
40
0
40
0.59892724812195619
40
0.59892724812195619
40
0.59892724812195619
40
1
40
1
40
1
40
1.0188065567381057
40
1.0188065567381057
40
1.0188065567381057
40
1.0188065567381057
10
52.208686061610798
20
531.6668523573569
30
0
10
52.197635716886538
20
531.59011258708529
30
0
10
52.18658537216232
20
531.51337281681344
30
0
10
52.17553502743808
20
531.4366330465416
30
0
10
51.486271181345614
20
526.6499996404541
30
0
10
51.296793090171846
20
521.95656600232996
30
0
10
51.822837526841269
20
517.40896075186834
30
0
10
52.17510416771745
20
514.36364839051407
30
0
10
52.823263362933034
20
511.38586028252126
30
0
10
53.697928118630074
20
508.45792875433483
30
0
10
53.738588715115903
20
508.32181781396565
30
0
10
53.779249311601731
20
508.18570687359647
30
0
10
53.819909908087581
20
508.04959593322712
30
0
0
SPLINE
5
218
100
AcDbEntity
8
0
100
AcDbSpline
70
0
71
3
72
20
73
16
74
0
42
0.000000001
43
0.0000000001
44
0.0000000001
40
-0.11168944935784508
40
-0.11168944935784508
40
-0.11168944935784508
40
-0.11168944935784508
40
0
40
0
40
0
40
0.31928483418015946
40
0.31928483418015946
40
0.31928483418015946
40
0.62499743007048092
40
0.62499743007048092
40
0.62499743007048092
40
1
40
1
40
1
40
1.0855064337698308
40
1.0855064337698308
40
1.0855064337698308
40
1.0855064337698308
10
56.070834032779032
20
507.54761177693285
30
0
10
56.081870022808324
20
507.638861477349
30
0
10
56.092906012837659
20
507.73011117776537
30
0
10
56.103942002866987
20
507.82136087818168
30
0
10
56.123522821662831
20
507.98326242433012
30
0
10
56.100831438238963
20
508.00885502384239
30
0
10
56.072985562251567
20
508.03729907658015
30
0
10
56.04632336561199
20
508.06453402252566
30
0
10
55.929833329677564
20
508.13436806986283
30
0
10
55.662553626233432
20
508.16553536497048
30
0
10
55.334694790748898
20
508.20376674934994
30
0
10
54.836399094498383
20
508.18371205190522
30
0
10
54.242411663254302
20
508.10534103735154
30
0
10
54.101577744865409
20
508.08675933597675
30
0
10
53.960743826476488
20
508.06817763460208
30
0
10
53.819909908087666
20
508.04959593322741
30
0
0
SPLINE
5
219
100
AcDbEntity
8
0
100
AcDbSpline
70
0
71
3
72
17
73
13
74
0
42
0.000000001
43
0.0000000001
44
0.0000000001
40
-0.05105702925057598
40
-0.05105702925057598
40
-0.05105702925057598
40
-0.05105702925057598
40
0
40
0
40
0
40
0.70220928850490572
40
0.70220928850490572
40
0.70220928850490572
40
1
40
1
40
1
40
1.0301580061710409
40
1.0301580061710409
40
1.0301580061710409
40
1.0301580061710409
10
56.070834032778109
20
507.54761177693433
30
0
10
56.142119911463183
20
507.48958915718896
30
0
10
56.213405790148258
20
507.43156653744359
30
0
10
56.284691668833332
20
507.37354391769816
30
0
10
57.208737827489188
20
506.6214233030704
30
0
10
57.844742811717538
20
505.77896901814211
30
0
10
58.171350377778843
20
504.74412849717589
30
0
10
58.30985708948036
20
504.30527657643495
30
0
10
58.400040596009205
20
503.8311642226779
30
0
10
58.446724781062827
20
503.3299037100997
30
0
10
58.45174410117572
20
503.27600993494451
30
0
10
58.456763421288613
20
503.22211615978927
30
0
10
58.461782741401471
20
503.16822238463408
30
0
0
SPLINE
5
220
100
AcDbEntity
8
0
100
AcDbSpline
70
0
71
3
72
11
73
7
74
0
42
0.000000001
43
0.0000000001
44
0.0000000001
40
-0.089672709181254806
40
-0.089672709181254806
40
-0.089672709181254806
40
-0.089672709181254806
40
0
40
0
40
0
40
0.034975714983092078
40
0.034975714983092078
40
0.034975714983092078
40
0.034975714983092078
10
58.4617827414014
20
503.16822238463425
30
0
10
58.497509826091431
20
503.12756149440241
30
0
10
58.533236910781511
20
503.08690060417064
30
0
10
58.568963995471606
20
503.04623971393886
30
0
10
58.582259154058619
20
503.03110853297039
30
0
10
58.595274370936096
20
503.01620845355171
30
0
10
58.608267098665735
20
503.00124318852374
30
0
0
LINE
5
221
100
AcDbEntity
8
0
100
AcDbLine
10
50.476900114590521
20
503.0012431885246
30
0
11
58.608267098665721
21
503.00124318852374
31
0
0
LINE
5
222
100
AcDbEntity
8
0
100
AcDbLine
10
50.476900114590521
20
503.0012431885246
30
0
11
42.34553313051606
21
503.0012431885246
31
0
0
SPLINE
5
223
100
AcDbEntity
8
0
100
AcDbSpline
70
0
71
3
72
11
73
7
74
0
42
0.000000001
43
0.0000000001
44
0.0000000001
40
-0.089672709180060539
40
-0.089672709180060539
40
-0.089672709180060539
40
-0.089672709180060539
40
0
40
0
40
0
40
0.034975714983249771
40
0.034975714983249771
40
0.034975714983249771
40
0.034975714983249771
10
42.492017487778341
20
503.1682223846326
30
0
10
42.456290403088701
20
503.12756149440128
30
0
10
42.420563318399061
20
503.08690060417001
30
0
10
42.384836233709429
20
503.0462397139388
30
0
10
42.371541075122337
20
503.03110853297028
30
0
10
42.358525858245798
20
503.01620845355285
30
0
10
42.34553313051606
20
503.00124318852477
30
0
0
SPLINE
5
224
100
AcDbEntity
8
0
100
AcDbSpline
70
0
71
3
72
17
73
13
74
0
42
0.000000001
43
0.0000000001
44
0.0000000001
40
-0.051057029250002967
40
-0.051057029250002967
40
-0.051057029250002967
40
-0.051057029250002967
40
0
40
0
40
0
40
0.70220928858722431
40
0.70220928858722431
40
0.70220928858722431
40
1
40
1
40
1
40
1.0301580061711431
40
1.0301580061711431
40
1.0301580061711431
40
1.0301580061711431
10
44.882966196400616
20
507.54761177693229
30
0
10
44.811680317716295
20
507.48958915718765
30
0
10
44.740394439032002
20
507.43156653744285
30
0
10
44.669108560347709
20
507.37354391769804
30
0
10
43.745062401592101
20
506.621423302989
30
0
10
43.109057417316251
20
505.77896901793929
30
0
10
42.782449851282379
20
504.74412849681181
30
0
10
42.643943139647007
20
504.30527657617523
30
0
10
42.553759633159331
20
503.83116422254318
30
0
10
42.507075448118243
20
503.3299037100997
30
0
10
42.502056128005336
20
503.27600993494428
30
0
10
42.497036807892421
20
503.22211615978887
30
0
10
42.492017487779528
20
503.16822238463328
30
0
0
SPLINE
5
225
100
AcDbEntity
8
0
100
AcDbSpline
70
0
71
3
72
20
73
16
74
0
42
0.000000001
43
0.0000000001
44
0.0000000001
40
-0.11168944935790948
40
-0.11168944935790948
40
-0.11168944935790948
40
-0.11168944935790948
40
0
40
0
40
0
40
0.31928483424211218
40
0.31928483424211218
40
0.31928483424211218
40
0.62499743016498943
40
0.62499743016498943
40
0.62499743016498943
40
1
40
1
40
1
40
1.0855064337698486
40
1.0855064337698486
40
1.0855064337698486
40
1.0855064337698486
10
44.882966196402094
20
507.54761177693246
30
0
10
44.871930206372724
20
507.63886147734894
30
0
10
44.860894216343397
20
507.73011117776537
30
0
10
44.849858226314069
20
507.82136087818168
30
0
10
44.830277407515723
20
507.98326242435081
30
0
10
44.852968790945823
20
508.00885502385432
30
0
10
44.880814666952134
20
508.03729907660045
30
0
10
44.907476863607485
20
508.06453402255147
30
0
10
45.023966899639959
20
508.13436806990859
30
0
10
45.291246603192107
20
508.16553536499805
30
0
10
45.61910543869157
20
508.20376674934147
30
0
10
46.117401134833464
20
508.18371205188532
30
0
10
46.711388565926732
20
508.10534103735154
30
0
10
46.852222484315647
20
508.08675933597675
30
0
10
46.993056402704561
20
508.06817763460202
30
0
10
47.133890321093475
20
508.04959593322729
30
0
0
SPLINE
5
226
100
AcDbEntity
8
0
100
AcDbSpline
70
0
71
3
72
17
73
13
74
0
42
0.000000001
43
0.0000000001
44
0.0000000001
40
-0.0096702696672808196
40
-0.0096702696672808196
40
-0.0096702696672808196
40
-0.0096702696672808196
40
0
40
0
40
0
40
0.59892724810855769
40
0.59892724810855769
40
0.59892724810855769
40
1
40
1
40
1
40
1.0188065567380975
40
1.0188065567380975
40
1.0188065567380975
40
1.0188065567380975
10
48.7451141675702
20
531.66685235735736
30
0
10
48.756164512294419
20
531.59011258708551
30
0
10
48.767214857018679
20
531.51337281681356
30
0
10
48.77826520174294
20
531.4366330465416
30
0
10
49.467529047819738
20
526.6499996405629
30
0
10
49.65700713900322
20
521.95656600253972
30
0
10
49.130962702374333
20
517.40896075217188
30
0
10
48.778696061505649
20
514.36364839071064
30
0
10
48.130536866277289
20
511.38586028261932
30
0
10
47.25587211055096
20
508.45792875433483
30
0
10
47.215211514065146
20
508.32181781396565
30
0
10
47.174550917579325
20
508.18570687359647
30
0
10
47.13389032109351
20
508.04959593322729
30
0
0
LINE
5
227
100
AcDbEntity
8
0
100
AcDbLine
10
48.7451141675702
20
531.66685235735736
30
0
11
46.062337520299863
21
533.33746934317037
31
0
0
SPLINE
5
228
100
AcDbEntity
8
0
100
AcDbSpline
70
0
71
3
72
14
73
10
74
0
42
0.000000001
43
0.0000000001
44
0.0000000001
40
0.021621037182396882
40
0.021621037182396882
40
0.021621037182396882
40
0.021621037182396882
40
0.5
40
0.5
40
0.5
40
0.79132182923004468
40
0.79132182923004468
40
0.79132182923004468
40
0.95505910692865337
40
0.95505910692865337
40
0.95505910692865337
40
0.95505910692865337
10
46.06233752029992
20
533.33746934317037
30
0
10
46.099565523605563
20
535.40589138682674
30
0
10
46.202155111235754
20
537.14886155277702
30
0
10
46.398077349115582
20
538.32064096055649
30
0
10
46.517389503625495
20
539.03422777574167
30
0
10
46.687577658474808
20
539.51495669138785
30
0
10
46.819426969514012
20
539.70881750132651
30
0
10
46.893532803989416
20
539.81777686546241
30
0
10
46.928104692712239
20
539.828574038998
30
0
10
46.940749410620981
20
539.8323028333441
30
0
0
LINE
5
229
100
AcDbEntity
8
0
100
AcDbLine
10
46.940749410620995
20
539.8323028333441
30
0
11
49.226913605920224
21
539.81781771665283
31
0
0
LINE
5
230
100
AcDbEntity
8
0
100
AcDbLine
10
49.226913605920224
20
539.81781771665283
30
0
11
44.092194670048187
21
547.91005839957541
31
0
0
LINE
5
231
100
AcDbEntity
8
0
100
AcDbLine
10
44.092194670048187
20
547.91005839957541
30
0
11
48.046910964945454
21
544.54527908179341
31
0
0
SPLINE
5
232
100
AcDbEntity
8
0
100
AcDbSpline
70
0
71
3
72
11
73
7
74
0
42
0.000000001
43
0.0000000001
44
0.0000000001
40
0.0097318879816928744
40
0.0097318879816928744
40
0.0097318879816928744
40
0.0097318879816928744
40
0.63723143529929216
40
0.63723143529929216
40
0.63723143529929216
40
0.98136488140250955
40
0.98136488140250955
40
0.98136488140250955
40
0.98136488140250955
10
20.821196487396048
20
531.0641532958972
30
0
10
21.515788041061743
20
526.12396794843153
30
0
10
21.65696040497366
20
521.31578450688119
30
0
10
21.030857366363858
20
516.67185721324142
30
0
10
20.687489793887455
20
514.12503353847592
30
0
10
20.135018610967226
20
511.61842170603984
30
0
10
19.416024444615996
20
509.14557338038367
30
0
0
SPLINE
5
233
100
AcDbEntity
8
0
100
AcDbSpline
70
0
71
3
72
11
73
7
74
0
42
0.000000001
43
0.0000000001
44
0.0000000001
40
0.0097318879816950359
40
0.0097318879816950359
40
0.0097318879816950359
40
0.0097318879816950359
40
0.63723143528020076
40
0.63723143528020076
40
0.63723143528020076
40
0.98136488140250544
40
0.98136488140250544
40
0.98136488140250544
40
0.98136488140250544
10
26.132603741785019
20
531.06415329589709
30
0
10
25.438012188140409
20
526.12396794858137
30
0
10
25.296839824212398
20
521.31578450717132
30
0
10
25.922942862760809
20
516.67185721366525
30
0
10
26.26631043523302
20
514.12503353875434
30
0
10
26.818781618174157
20
511.61842170617695
30
0
10
27.537775784565017
20
509.14557338038367
30
0
0
SPLINE
5
234
100
AcDbEntity
8
0
100
AcDbSpline
70
0
71
3
72
14
73
10
74
0
42
0.000000001
43
0.0000000001
44
0.0000000001
40
0.085220111792551886
40
0.085220111792551886
40
0.085220111792551886
40
0.085220111792551886
40
0.30620564164877168
40
0.30620564164877168
40
0.30620564164877168
40
0.64928968652167418
40
0.64928968652167418
40
0.64928968652167418
40
0.91422646823008458
40
0.91422646823008458
40
0.91422646823008458
40
0.91422646823008458
10
16.847408433227198
20
507.98973436549295
30
0
10
16.862917688791335
20
508.24469160889117
30
0
10
16.953582870146438
20
508.50153085627392
30
0
10
17.133522115604496
20
508.70196382384
30
0
10
17.412881059166523
20
509.01313964283236
30
0
10
17.825683514140209
20
509.12893807113647
30
0
10
18.268551337039494
20
509.16835277877823
30
0
10
18.610543270137452
20
509.19878965263075
30
0
10
18.991453514845773
20
509.18623852176495
30
0
10
19.416024444615676
20
509.14557338038372
30
0
0
LINE
5
235
100
AcDbEntity
8
0
100
AcDbLine
10
26.451812222571629
20
546.32189045383984
30
0
11
23.476900114590542
21
557.04596877857819
31
0
0
SPLINE
5
236
100
AcDbEntity
8
0
100
AcDbSpline
70
0
71
3
72
14
73
10
74
0
42
0.000000001
43
0.0000000001
44
0.0000000001
40
0.085220111793573375
40
0.085220111793573375
40
0.085220111793573375
40
0.085220111793573375
40
0.30620564165087438
40
0.30620564165087438
40
0.30620564165087438
40
0.64928968654447972
40
0.64928968654447972
40
0.64928968654447972
40
0.91422646823008669
40
0.91422646823008669
40
0.91422646823008669
40
0.91422646823008669
10
30.106391795954917
20
507.98973436549227
30
0
10
30.090882540392307
20
508.24469160889117
30
0
10
30.000217359035144
20
508.50153085627983
30
0
10
29.82027811357236
20
508.70196382384688
30
0
10
29.540919169987543
20
509.01313964285799
30
0
10
29.128116714992185
20
509.12893807115125
30
0
10
28.685248892051778
20
509.16835277878602
30
0
10
28.343256958972152
20
509.19878965262865
30
0
10
27.962346714296586
20
509.18623852176131
30
0
10
27.537775784565017
20
509.14557338038372
30
0
0
LINE
5
237
100
AcDbEntity
8
0
100
AcDbLine
10
20.501988006609437
20
546.32189045383984
30
0
11
23.476900114590542
21
557.04596877857819
31
0
0
SPLINE
5
238
100
AcDbEntity
8
0
100
AcDbSpline
70
0
71
3
72
11
73
7
74
0
42
0.000000001
43
0.0000000001
44
0.0000000001
40
0.043683142893329176
40
0.043683142893329176
40
0.043683142893329176
40
0.043683142893329176
40
0.65464797408119835
40
0.65464797408119835
40
0.65464797408119835
40
0.97141732452655949
40
0.97141732452655949
40
0.97141732452655949
40
0.97141732452655949
10
16.847408433226878
20
507.98973436549267
30
0
10
15.971628389269394
20
507.23595574022158
30
0
10
15.289958146103526
20
506.33764787440128
30
0
10
14.912084190496184
20
505.29142694669599
30
0
10
14.716166387444876
20
504.74898864783819
30
0
10
14.59408710967173
20
504.17868755782513
30
0
10
14.527889025094485
20
503.58413768628861
30
0
0
SPLINE
5
239
100
AcDbEntity
8
0
100
AcDbSpline
70
0
71
3
72
20
73
16
74
0
42
0.000000001
43
0.0000000001
44
0.0000000001
40
0.087119481078608493
40
0.087119481078608493
40
0.087119481078608493
40
0.087119481078608493
40
0.5
40
0.5
40
0.5
40
0.7087803734173288
40
0.7087803734173288
40
0.7087803734173288
40
0.828925980863779
40
0.828925980863779
40
0.828925980863779
40
0.96625882604954083
40
0.96625882604954083
40
0.96625882604954083
40
1
40
1
40
1
40
1
10
14.527889025094254
20
503.58413768628844
30
0
10
14.366722824506084
20
503.39493833653484
30
0
10
14.226682811403339
20
503.22331342864584
30
0
10
14.113802705624785
20
503.03675139224077
30
0
10
14.056722873673895
20
502.94241298235909
30
0
10
13.996135057485386
20
502.85536902617514
30
0
10
13.970759931922352
20
502.67191107201944
30
0
10
13.95615745840006
20
502.56633760751157
30
0
10
13.96429922951393
20
502.39519754052446
30
0
10
14.072255521052242
20
502.2454211599171
30
0
10
14.195655327235475
20
502.07421875870068
30
0
10
14.385046054660062
20
502.01761295847302
30
0
10
14.503291132570411
20
502.00535884898966
30
0
10
14.53234265143438
20
502.00234814867889
30
0
10
14.559400882863986
20
502.00124318852465
30
0
10
14.585131001697356
20
502.00124318852465
30
0
0
LINE
5
240
100
AcDbEntity
8
0
100
AcDbLine
10
23.476900114590524
20
502.00124318852465
30
0
11
32.368669227483707
21
502.00124318852465
31
0
0
LINE
5
241
100
AcDbEntity
8
0
100
AcDbLine
10
23.476900114590524
20
502.00124318852465
30
0
11
14.585131001697356
21
502.00124318852465
31
0
0
SPLINE
5
242
100
AcDbEntity
8
0
100
AcDbSpline
70
0
71
3
72
20
73
16
74
0
42
0.000000001
43
0.0000000001
44
0.0000000001
40
0.087119481077841066
40
0.087119481077841066
40
0.087119481077841066
40
0.087119481077841066
40
0.5
40
0.5
40
0.5
40
0.70878037341671651
40
0.70878037341671651
40
0.70878037341671651
40
0.82892598086067182
40
0.82892598086067182
40
0.82892598086067182
40
0.96625882604318192
40
0.96625882604318192
40
0.96625882604318192
40
1
40
1
40
1
40
1
10
32.42591120408683
20
503.58413768628844
30
0
10
32.587077404675014
20
503.39493833653358
30
0
10
32.727117417776093
20
503.22331342864544
30
0
10
32.839997523554331
20
503.03675139224129
30
0
10
32.897077355504777
20
502.94241298236051
30
0
10
32.957665171692518
20
502.85536902617883
30
0
10
32.983040297257119
20
502.67191107202456
30
0
10
32.997642770780047
20
502.56633760751936
30
0
10
32.989500999672018
20
502.39519754054254
30
0
10
32.88154470813943
20
502.24542115993233
30
0
10
32.758144901963107
20
502.07421875871307
30
0
10
32.56875417453719
20
502.01761295847723
30
0
10
32.450509096625794
20
502.00535884899136
30
0
10
32.421457577755376
20
502.00234814867935
30
0
10
32.394399346321933
20
502.00124318852465
30
0
10
32.368669227483707
20
502.00124318852465
30
0
0
SPLINE
5
243
100
AcDbEntity
8
0
100
AcDbSpline
70
0
71
3
72
11
73
7
74
0
42
0.000000001
43
0.0000000001
44
0.0000000001
40
0.043683142893659169
40
0.043683142893659169
40
0.043683142893659169
40
0.043683142893659169
40
0.65464797408787612
40
0.65464797408787612
40
0.65464797408787612
40
0.97141732452663532
40
0.97141732452663532
40
0.97141732452663532
40
0.97141732452663532
10
30.106391795955023
20
507.98973436549215
30
0
10
30.982171839920429
20
507.23595574021778
30
0
10
31.663842083090774
20
506.3376478743819
30
0
10
32.041716038695697
20
505.29142694666132
30
0
10
32.237633841739651
20
504.74898864781244
30
0
10
32.359713119510317
20
504.17868755781285
30
0
10
32.42591120408656
20
503.58413768628844
30
0
0
SPLINE
5
244
100
AcDbEntity
8
0
100
AcDbSpline
70
0
71
3
72
20
73
16
74
0
42
0.000000001
43
0.0000000001
44
0.0000000001
40
-0.021357865534304132
40
-0.021357865534304132
40
-0.021357865534304132
40
-0.021357865534304132
40
0
40
0
40
0
40
0.5
40
0.5
40
0.5
40
0.79815950573792604
40
0.79815950573792604
40
0.79815950573792604
40
1
40
1
40
1
40
1.0050985816064575
40
1.0050985816064575
40
1.0050985816064575
40
1.0050985816064575
10
28.900150094772599
20
532.78755801951843
30
0
10
28.898758408870098
20
532.88171927815574
30
0
10
28.897366722967579
20
532.97588053679294
30
0
10
28.895975037065078
20
533.07004179543014
30
0
10
28.863214410275386
20
535.28662087171915
30
0
10
28.765027817266269
20
537.15184583085488
30
0
10
28.542031270061656
20
538.48555233016316
30
0
10
28.40905418947008
20
539.28086687142968
30
0
10
28.243222571236561
20
539.8745228153474
30
0
10
27.940692617423668
20
540.30079152577537
30
0
10
27.735893527568898
20
540.58935615492692
30
0
10
27.417976331806049
20
540.81380700308523
30
0
10
27.058227951532832
20
540.83181543841317
30
0
10
27.053536534645719
20
540.83205028332759
30
0
10
27.048845117758784
20
540.83228512824212
30
0
10
27.04415370087224
20
540.83251997315665
30
0
0
LINE
5
245
100
AcDbEntity
8
0
100
AcDbLine
10
20.821196487396048
20
531.0641532958972
30
0
11
18.053650134408468
21
532.78755801951888
31
0
0
LINE
5
246
100
AcDbEntity
8
0
100
AcDbLine
10
26.553087815341652
20
540.82940858372774
30
0
11
34.246099165697942
21
552.95348006671031
31
0
0
LINE
5
247
100
AcDbEntity
8
0
100
AcDbLine
10
20.400712413839397
20
540.82940858372785
30
0
11
12.707701063483139
21
552.95348006671031
31
0
0
LINE
5
248
100
AcDbEntity
8
0
100
AcDbLine
10
34.246099165697942
20
552.95348006671031
30
0
11
26.451812222571629
21
546.32189045383984
31
0
0
CIRCLE
5
249
100
AcDbEntity
8
0
100
AcDbCircle
10
23.476900114590524
20
535.45902371787588
30
0
40
1.6999999999999891
210
0
220
0
230
1
0
LINE
5
250
100
AcDbEntity
8
0
100
AcDbLine
10
26.132603741785019
20
531.06415329589709
30
0
11
28.900150094772599
21
532.78755801951843
31
0
0
SPLINE
5
251
100
AcDbEntity
8
0
100
AcDbSpline
70
0
71
3
72
20
73
16
74
0
42
0.000000001
43
0.0000000001
44
0.0000000001
40
-0.021357865534255727
40
-0.021357865534255727
40
-0.021357865534255727
40
-0.021357865534255727
40
0
40
0
40
0
40
0.5
40
0.5
40
0.5
40
0.79815950573803685
40
0.79815950573803685
40
0.79815950573803685
40
1
40
1
40
1
40
1.0050985815217086
40
1.0050985815217086
40
1.0050985815217086
40
1.0050985815217086
10
18.053650134408503
20
532.78755801951911
30
0
10
18.055041820310986
20
532.8817192781562
30
0
10
18.056433506213487
20
532.97588053679317
30
0
10
18.057825192115988
20
533.07004179543014
30
0
10
18.090585818905662
20
535.2866208717187
30
0
10
18.188772411913039
20
537.15184583085511
30
0
10
18.411768959118824
20
538.48555233016361
30
0
10
18.544746039711111
20
539.28086687143048
30
0
10
18.710577657944576
20
539.87452281534797
30
0
10
19.013107611757718
20
540.30079152577594
30
0
10
19.21790670161247
20
540.58935615492715
30
0
10
19.535823897375248
20
540.81380700308523
30
0
10
19.895572277648252
20
540.83181543841317
30
0
10
19.900263694457347
20
540.83205028332372
30
0
10
19.904955111266336
20
540.83228512823428
30
0
10
19.909646528074472
20
540.83251997314483
30
0
0
LINE
5
252
100
AcDbEntity
8
0
100
AcDbLine
10
19.909646528074472
20
540.83251997314483
30
0
11
20.400712413839397
21
540.82940858372785
31
0
0
LINE
5
253
100
AcDbEntity
8
0
100
AcDbLine
10
27.044153700874478
20
540.8325199731554
30
0
11
26.553087815341652
21
540.82940858372774
31
0
0
LINE
5
254
100
AcDbEntity
8
0
100
AcDbLine
10
12.707701063483139
20
552.95348006671031
30
0
11
20.501988006609437
21
546.32189045383984
31
0
0
ENDSEC
0
SECTION
2
OBJECTS
0
DICTIONARY
5
C
100
AcDbDictionary
3
ACAD_GROUP
350
D
3
ACAD_MLINESTYLE
350
17
0
DICTIONARY
5
D
100
AcDbDictionary
0
DICTIONARY
5
1A
330
C
100
AcDbDictionary
0
DICTIONARY
5
17
100
AcDbDictionary
0
ENDSEC
0
EOF
