0
SECTION
2
HEADER
9
$INSUNITS
70
4
9
$ACADVER
1
AC1014
9
$HANDSEED
5
FFFF
0
ENDSEC
0
SECTION
2
TABLES
0
TABLE
2
VPORT
5
8
100
AcDbSymbolTable
0
ENDTAB
0
TABLE
2
LTYPE
5
5
100
AcDbSymbolTable
0
LTYPE
5
14
100
AcDbSymbolTableRecord
100
AcDbLinetypeTableRecord
2
BYBLOCK
70
0
0
LTYPE
5
15
100
AcDbSymbolTableRecord
100
AcDbLinetypeTableRecord
2
BYLAYER
70
0
0
ENDTAB
0
TABLE
2
LAYER
5
2
100
AcDbSymbolTable
70
2
0
LAYER
5
50
100
AcDbSymbolTableRecord
100
AcDbLayerTableRecord
2
0
70
0
6
CONTINUOUS
0
ENDTAB
0
TABLE
2
STYLE
5
3
100
AcDbSymbolTable
70
1
0
STYLE
5
11
100
AcDbSymbolTableRecord
100
AcDbTextStyleTableRecord
2
STANDARD
70
0
0
ENDTAB
0
TABLE
2
VIEW
5
6
100
AcDbSymbolTable
70
0
0
ENDTAB
0
TABLE
2
UCS
5
7
100
AcDbSymbolTable
70
0
0
ENDTAB
0
TABLE
2
APPID
5
9
100
AcDbSymbolTable
70
2
0
APPID
5
12
100
AcDbSymbolTableRecord
100
AcDbRegAppTableRecord
2
ACAD
70
0
0
ENDTAB
0
TABLE
2
DIMSTYLE
5
A
100
AcDbSymbolTable
70
1
0
ENDTAB
0
TABLE
2
BLOCK_RECORD
5
1
100
AcDbSymbolTable
70
1
0
BLOCK_RECORD
5
1F
100
AcDbSymbolTableRecord
100
AcDbBlockTableRecord
2
*MODEL_SPACE
0
BLOCK_RECORD
5
1B
100
AcDbSymbolTableRecord
100
AcDbBlockTableRecord
2
*PAPER_SPACE
0
ENDTAB
0
ENDSEC
0
SECTION
2
BLOCKS
0
BLOCK
5
20
100
AcDbEntity
100
AcDbBlockBegin
2
*MODEL_SPACE
0
ENDBLK
5
21
100
AcDbEntity
100
AcDbBlockEnd
0
BLOCK
5
1C
100
AcDbEntity
100
AcDbBlockBegin
2
*PAPER_SPACE
0
ENDBLK
5
1D
100
AcDbEntity
100
AcDbBlockEnd
0
ENDSEC
0
SECTION
2
ENTITIES
0
LWPOLYLINE
5
100
100
AcDbEntity
8
0
100
AcDbPolyline
90
4
70
1
43
0.0
10
290.72599999999989
20
648.45023525647264
10
4.9729999999999208
20
648.45023525647264
10
4.9729999999999208
20
744.43950948621978
10
290.72599999999989
20
744.43950948621978
0
LWPOLYLINE
5
101
100
AcDbEntity
8
0
100
AcDbPolyline
90
8
70
1
43
0.0
10
352.6395
20
648.45023525647252
10
295.4855
20
648.45023525647252
10
295.4855
20
667.50423525647261
10
314.53550000000001
20
667.50423525647261
10
314.53550000000001
20
686.55423525647268
10
333.58949999999999
20
686.55423525647268
10
333.58949999999999
20
667.50423525647261
10
352.6395
20
667.50423525647261
0
LWPOLYLINE
5
102
100
AcDbEntity
8
0
100
AcDbPolyline
90
4
70
1
43
0.0
10
295.4855
20
705.60023525647262
10
352.6395
20
705.60023525647262
10
352.6395
20
743.70423525647288
10
295.4855
20
743.70423525647288
0
LINE
5
103
100
AcDbEntity
8
0
100
AcDbLine
10
314.53949999999998
20
705.60023525647262
30
0
11
314.53550000000001
21
705.60423525647263
31
0
0
LINE
5
104
100
AcDbEntity
8
0
100
AcDbLine
10
314.53550000000001
20
705.60423525647263
30
0
11
314.53550000000001
21
705.60023525647262
31
0
0
LWPOLYLINE
5
105
100
AcDbEntity
8
0
100
AcDbPolyline
90
4
70
1
43
0.0
10
290.72700000000003
20
748.46273525647223
10
214.52300000000002
20
748.46273525647223
10
214.52300000000002
20
767.5167352564722
10
290.72700000000003
20
767.5167352564722
0
LWPOLYLINE
5
106
100
AcDbEntity
8
0
100
AcDbPolyline
90
4
70
1
43
0.0
10
43.072999999999922
20
767.51673525647232
10
119.27700000000002
20
767.5167352564722
10
119.27700000000002
20
748.46273525647223
10
43.072999999999922
20
748.46273525647234
0
LINE
5
107
100
AcDbEntity
8
0
100
AcDbLine
10
333.58549999999991
20
748.46673525647248
30
0
11
333.58949999999999
21
748.46273525647223
31
0
0
LWPOLYLINE
5
108
100
AcDbEntity
8
0
100
AcDbPolyline
90
4
70
1
43
0.0
10
205.00200000000004
20
767.5167352564722
10
205.00200000000004
20
748.46273525647223
10
128.798
20
748.46273525647223
10
128.798
20
767.5167352564722
0
LWPOLYLINE
5
109
100
AcDbEntity
8
0
100
AcDbPolyline
90
4
70
1
43
0.0
10
352.63949999999988
20
748.46273525647223
10
352.63949999999988
20
767.5167352564722
10
295.48550000000012
20
767.5167352564722
10
295.48550000000012
20
748.46273525647223
0
LWPOLYLINE
5
110
100
AcDbEntity
8
0
100
AcDbPolyline
90
4
70
1
43
0.0
10
4.9729999999999297
20
767.5167352564722
10
24.026999999999923
20
767.5167352564722
10
24.026999999999923
20
748.46273525647223
10
4.9729999999999288
20
748.46273525647223
0
LINE
5
111
100
AcDbEntity
8
0
100
AcDbLine
10
333.58549999999991
20
748.46273525647223
30
0
11
333.58949999999999
21
748.46673525647248
31
0
0
LINE
5
112
100
AcDbEntity
8
0
100
AcDbLine
10
314.53950000000009
20
748.46673525647248
30
0
11
314.53550000000001
21
748.46273525647223
31
0
0
CIRCLE
5
113
100
AcDbEntity
8
0
100
AcDbCircle
10
343.80695061413007
20
772.33973142962316
30
0
40
1.1000000000000061
210
0
220
0
230
1
0
CIRCLE
5
114
100
AcDbEntity
8
0
100
AcDbCircle
10
178.8069506141301
20
772.33973142962316
30
0
40
1.0999999999999917
210
0
220
0
230
1
0
CIRCLE
5
115
100
AcDbEntity
8
0
100
AcDbCircle
10
13.806950614130109
20
772.33973142962316
30
0
40
1.1000000000000092
210
0
220
0
230
1
0
CIRCLE
5
116
100
AcDbEntity
8
0
100
AcDbCircle
10
13.806260491759232
20
643.62721665233323
30
0
40
1.100000000000001
210
0
220
0
230
1
0
CIRCLE
5
117
100
AcDbEntity
8
0
100
AcDbCircle
10
178.80626049175899
20
643.62722575291627
30
0
40
1.1000000000000087
210
0
220
0
230
1
0
CIRCLE
5
118
100
AcDbEntity
8
0
100
AcDbCircle
10
343.80626049175902
20
643.62722575291627
30
0
40
1.0999999999999943
210
0
220
0
230
1
0
LWPOLYLINE
5
119
100
AcDbEntity
8
0
100
AcDbPolyline
90
8
70
1
43
0.0
10
351.11151088464845
20
774.33973514853415
42
-0.41421126449574319
10
357.11151101396297
20
768.33978235073664
10
357.11246066444261
20
647.62728245861001
42
-0.41421587464990045
10
351.11246049916303
20
641.62723525647266
10
6.5000670738702198
20
641.62721624936023
42
-0.41421776489673617
10
0.50009508373347444
20
647.62733034782457
10
0.5023906036968584
20
768.33984180924085
42
-0.41420798628157024
10
6.5023904731118876
20
774.33972771071217
0
SPLINE
5
120
100
AcDbEntity
8
0
100
AcDbSpline
70
4
71
3
72
8
73
4
74
0
42
0.000000001
43
0.0000000001
44
0.0000000001
40
0
40
0
40
0
40
0
40
1
40
1
40
1
40
1
41
1
41
1
41
1
41
1
10
328.13083281008693
20
695.07711332126064
30
0
10
328.31985341306972
20
695.51665716857315
30
0
10
335.69364928607274
20
700.19181128124956
30
0
10
337.25838057677629
20
704.77378214110354
30
0
0
SPLINE
5
121
100
AcDbEntity
8
0
100
AcDbSpline
70
4
71
3
72
8
73
4
74
0
42
0.000000001
43
0.0000000001
44
0.0000000001
40
0
40
0
40
0
40
0
40
1
40
1
40
1
40
1
41
1
41
1
41
1
41
1
10
337.25838057677629
20
704.77378214110354
30
0
10
333.85508578328552
20
700.19181128124956
30
0
10
325.68578309413749
20
697.56125924659136
30
0
10
325.73147173884331
20
696.80875487179742
30
0
0
SPLINE
5
122
100
AcDbEntity
8
0
100
AcDbSpline
70
4
71
3
72
8
73
4
74
0
42
0.000000001
43
0.0000000001
44
0.0000000001
40
0
40
0
40
0
40
0
40
1
40
1
40
1
40
1
41
1
41
1
41
1
41
1
10
325.73147173884331
20
696.80875487179742
30
0
10
325.77716038354907
20
696.0562504970037
30
0
10
326.49443732391234
20
693.79843950013867
30
0
10
326.01844422988643
20
693.15909991407636
30
0
0
SPLINE
5
123
100
AcDbEntity
8
0
100
AcDbSpline
70
0
71
2
72
6
73
3
74
0
42
0.000000001
43
0.0000000001
44
0.0000000001
40
0
40
0
40
0
40
1
40
1
40
1
10
326.01844422988643
20
693.15909991407636
30
0
10
325.54245113586046
20
692.51976032801394
30
0
10
324.01026642723559
20
691.90695814800029
30
0
0
SPLINE
5
124
100
AcDbEntity
8
0
100
AcDbSpline
70
0
71
2
72
6
73
3
74
0
42
0.000000001
43
0.0000000001
44
0.0000000001
40
0
40
0
40
0
40
1
40
1
40
1
10
324.01026642723559
20
691.90695814800029
30
0
10
322.47808350227831
20
692.5197656790167
30
0
10
322.00209219191993
20
693.15909991407636
30
0
0
SPLINE
5
125
100
AcDbEntity
8
0
100
AcDbSpline
70
4
71
3
72
8
73
4
74
0
42
0.000000001
43
0.0000000001
44
0.0000000001
40
0
40
0
40
0
40
0
40
1
40
1
40
1
40
1
41
1
41
1
41
1
41
1
10
322.00209219191993
20
693.15909991407636
30
0
10
321.52610088156155
20
693.79843414913591
30
0
10
322.24337247092205
20
696.05609888526055
30
0
10
322.28906111562787
20
696.80859612538416
30
0
0
SPLINE
5
126
100
AcDbEntity
8
0
100
AcDbSpline
70
4
71
3
72
8
73
4
74
0
42
0.000000001
43
0.0000000001
44
0.0000000001
40
0
40
0
40
0
40
0
40
1
40
1
40
1
40
1
41
1
41
1
41
1
41
1
10
322.28906111562787
20
696.80859612538416
30
0
10
322.33475154400128
20
697.56109693284293
30
0
10
314.16544528751808
20
700.19181128124956
30
0
10
310.76215495319627
20
704.7736207191889
30
0
0
SPLINE
5
127
100
AcDbEntity
8
0
100
AcDbSpline
70
4
71
3
72
8
73
4
74
0
42
0.000000001
43
0.0000000001
44
0.0000000001
40
0
40
0
40
0
40
0
40
1
40
1
40
1
40
1
41
1
41
1
41
1
41
1
10
310.76215495319627
20
704.7736207191889
30
0
10
312.32688624389982
20
700.19165253483607
30
0
10
319.70068390057031
20
695.51665895224062
30
0
10
319.88970539538695
20
695.07711332126064
30
0
0
SPLINE
5
128
100
AcDbEntity
8
0
100
AcDbSpline
70
4
71
3
72
8
73
4
74
0
42
0.000000001
43
0.0000000001
44
0.0000000001
40
0
40
0
40
0
40
0
40
1
40
1
40
1
40
1
41
1
41
1
41
1
41
1
10
319.88970539538695
20
695.07711332126064
30
0
10
320.07872689020365
20
694.63756769028032
30
0
10
319.38773764242961
20
692.59968290431607
30
0
10
319.55078091097971
20
691.96034510192135
30
0
0
SPLINE
5
129
100
AcDbEntity
8
0
100
AcDbSpline
70
4
71
3
72
8
73
4
74
0
42
0.000000001
43
0.0000000001
44
0.0000000001
40
0
40
0
40
0
40
0
40
1
40
1
40
1
40
1
41
1
41
1
41
1
41
1
10
319.55078091097971
20
691.96034510192135
30
0
10
319.71382417952987
20
691.32100729952663
30
0
10
324.01026821090318
20
688.09746873968038
30
0
10
324.01026821090318
20
688.0976239187587
30
0
0
SPLINE
5
130
100
AcDbEntity
8
0
100
AcDbSpline
70
0
71
2
72
6
73
3
74
0
42
0.000000001
43
0.0000000001
44
0.0000000001
40
0
40
0
40
0
40
1
40
1
40
1
10
324.01026821090318
20
688.0976239187587
30
0
10
328.30670956677517
20
691.32100373219146
30
0
10
328.46975283532527
20
691.96034510192135
30
0
0
SPLINE
5
131
100
AcDbEntity
8
0
100
AcDbSpline
70
4
71
3
72
8
73
4
74
0
42
0.000000001
43
0.0000000001
44
0.0000000001
40
0
40
0
40
0
40
0
40
1
40
1
40
1
40
1
41
1
41
1
41
1
41
1
10
328.46975283532527
20
691.96034510192135
30
0
10
328.63279610387536
20
692.59968647165124
30
0
10
327.94181220710408
20
694.63756947394791
30
0
10
328.13083281008693
20
695.07711332126064
30
0
0
ENDSEC
0
SECTION
2
OBJECTS
0
DICTIONARY
5
C
100
AcDbDictionary
3
ACAD_GROUP
350
D
3
ACAD_MLINESTYLE
350
17
0
DICTIONARY
5
D
100
AcDbDictionary
0
DICTIONARY
5
1A
330
C
100
AcDbDictionary
0
DICTIONARY
5
17
100
AcDbDictionary
0
ENDSEC
0
EOF
