  0
SECTION
  2
HEADER
  9
$ACADVER
  1
AC1032
  9
$ACADMAINTVER
 90
      198
  9
$DWGCODEPAGE
  3
ANSI_1252
  9
$LASTSAVEDBY
  1
Mauricio
  9
$REQUIREDVERSIONS
160
                 0
  9
$INSBASE
 10
0.0
 20
0.0
 30
0.0
  9
$EXTMIN
 10
0.0710678118654551
 20
0.0710678118654462
 30
0.0
  9
$EXTMAX
 10
366.6835678118657
 20
150.0835678118652
 30
0.0
  9
$LIMMIN
 10
0.0
 20
0.0
  9
$LIMMAX
 10
12.0
 20
9.0
  9
$ORTHOMODE
 70
     0
  9
$REGENMODE
 70
     1
  9
$FILLMODE
 70
     1
  9
$QTEXTMODE
 70
     0
  9
$MIRRTEXT
 70
     0
  9
$LTSCALE
 40
1.0
  9
$ATTMODE
 70
     1
  9
$TEXTSIZE
 40
0.2
  9
$TRACEWID
 40
0.05
  9
$TEXTSTYLE
  7
STANDARD
  9
$CLAYER
  8
0
  9
$CELTYPE
  6
Continuous
  9
$CECOLOR
 62
   256
  9
$CELTSCALE
 40
1.0
  9
$DISPSILH
 70
     0
  9
$DIMSCALE
 40
1.0
  9
$DIMASZ
 40
0.18
  9
$DIMEXO
 40
0.0625
  9
$DIMDLI
 40
0.38
  9
$DIMRND
 40
0.0
  9
$DIMDLE
 40
0.0
  9
$DIMEXE
 40
0.18
  9
$DIMTP
 40
0.0
  9
$DIMTM
 40
0.0
  9
$DIMTXT
 40
0.18
  9
$DIMCEN
 40
0.09
  9
$DIMTSZ
 40
0.0
  9
$DIMTOL
 70
     0
  9
$DIMLIM
 70
     0
  9
$DIMTIH
 70
     1
  9
$DIMTOH
 70
     1
  9
$DIMSE1
 70
     0
  9
$DIMSE2
 70
     0
  9
$DIMTAD
 70
     0
  9
$DIMZIN
 70
     0
  9
$DIMBLK
  1

  9
$DIMASO
 70
     1
  9
$DIMSHO
 70
     1
  9
$DIMPOST
  1

  9
$DIMAPOST
  1

  9
$DIMALT
 70
     0
  9
$DIMALTD
 70
     2
  9
$DIMALTF
 40
25.4
  9
$DIMLFAC
 40
1.0
  9
$DIMTOFL
 70
     0
  9
$DIMTVP
 40
0.0
  9
$DIMTIX
 70
     0
  9
$DIMSOXD
 70
     0
  9
$DIMSAH
 70
     0
  9
$DIMBLK1
  1

  9
$DIMBLK2
  1

  9
$DIMSTYLE
  2
Standard
  9
$DIMCLRD
 70
     0
  9
$DIMCLRE
 70
     0
  9
$DIMCLRT
 70
     0
  9
$DIMTFAC
 40
1.0
  9
$DIMGAP
 40
0.09
  9
$DIMJUST
 70
     0
  9
$DIMSD1
 70
     0
  9
$DIMSD2
 70
     0
  9
$DIMTOLJ
 70
     1
  9
$DIMTZIN
 70
     0
  9
$DIMALTZ
 70
     0
  9
$DIMALTTZ
 70
     0
  9
$DIMUPT
 70
     0
  9
$DIMDEC
 70
     4
  9
$DIMTDEC
 70
     4
  9
$DIMALTU
 70
     2
  9
$DIMALTTD
 70
     2
  9
$DIMTXSTY
  7
STANDARD
  9
$DIMAUNIT
 70
     0
  9
$DIMADEC
 70
     0
  9
$DIMALTRND
 40
0.0
  9
$DIMAZIN
 70
     0
  9
$DIMDSEP
 70
    46
  9
$DIMATFIT
 70
     3
  9
$DIMFRAC
 70
     0
  9
$DIMLDRBLK
  1

  9
$DIMLUNIT
 70
     2
  9
$DIMLWD
 70
    -2
  9
$DIMLWE
 70
    -2
  9
$DIMTMOVE
 70
     0
  9
$DIMFXL
 40
1.0
  9
$DIMFXLON
 70
     0
  9
$DIMJOGANG
 40
0.7853981633974483
  9
$DIMTFILL
 70
     0
  9
$DIMTFILLCLR
 70
     0
  9
$DIMARCSYM
 70
     0
  9
$DIMLTYPE
  6

  9
$DIMLTEX1
  6

  9
$DIMLTEX2
  6

  9
$DIMTXTDIRECTION
 70
     0
  9
$LUNITS
 70
     2
  9
$LUPREC
 70
     4
  9
$SKETCHINC
 40
0.1
  9
$FILLETRAD
 40
0.0
  9
$AUNITS
 70
     0
  9
$AUPREC
 70
     0
  9
$MENU
  1
.
  9
$ELEVATION
 40
0.0
  9
$PELEVATION
 40
0.0
  9
$THICKNESS
 40
0.0
  9
$LIMCHECK
 70
     0
  9
$CHAMFERA
 40
0.0
  9
$CHAMFERB
 40
0.0
  9
$CHAMFERC
 40
0.0
  9
$CHAMFERD
 40
0.0
  9
$SKPOLY
 70
     0
  9
$TDCREATE
 40
2459335.046481481
  9
$TDUCREATE
 40
2459335.254814815
  9
$TDUPDATE
 40
2459335.050474537
  9
$TDUUPDATE
 40
2459335.258807871
  9
$TDINDWG
 40
0.0039930556
  9
$TDUSRTIMER
 40
0.0039930556
  9
$USRTIMER
 70
     1
  9
$ANGBASE
 50
0.0
  9
$ANGDIR
 70
     0
  9
$PDMODE
 70
     0
  9
$PDSIZE
 40
0.0
  9
$PLINEWID
 40
0.0
  9
$SPLFRAME
 70
     0
  9
$SPLINETYPE
 70
     6
  9
$SPLINESEGS
 70
     8
  9
$HANDSEED
  5
1008D
  9
$SURFTAB1
 70
     6
  9
$SURFTAB2
 70
     6
  9
$SURFTYPE
 70
     6
  9
$SURFU
 70
     6
  9
$SURFV
 70
     6
  9
$UCSBASE
  2

  9
$UCSNAME
  2

  9
$UCSORG
 10
0.0
 20
0.0
 30
0.0
  9
$UCSXDIR
 10
1.0
 20
0.0
 30
0.0
  9
$UCSYDIR
 10
0.0
 20
1.0
 30
0.0
  9
$UCSORTHOREF
  2

  9
$UCSORTHOVIEW
 70
     0
  9
$UCSORGTOP
 10
0.0
 20
0.0
 30
0.0
  9
$UCSORGBOTTOM
 10
0.0
 20
0.0
 30
0.0
  9
$UCSORGLEFT
 10
0.0
 20
0.0
 30
0.0
  9
$UCSORGRIGHT
 10
0.0
 20
0.0
 30
0.0
  9
$UCSORGFRONT
 10
0.0
 20
0.0
 30
0.0
  9
$UCSORGBACK
 10
0.0
 20
0.0
 30
0.0
  9
$PUCSBASE
  2

  9
$PUCSNAME
  2

  9
$PUCSORG
 10
0.0
 20
0.0
 30
0.0
  9
$PUCSXDIR
 10
1.0
 20
0.0
 30
0.0
  9
$PUCSYDIR
 10
0.0
 20
1.0
 30
0.0
  9
$PUCSORTHOREF
  2

  9
$PUCSORTHOVIEW
 70
     0
  9
$PUCSORGTOP
 10
0.0
 20
0.0
 30
0.0
  9
$PUCSORGBOTTOM
 10
0.0
 20
0.0
 30
0.0
  9
$PUCSORGLEFT
 10
0.0
 20
0.0
 30
0.0
  9
$PUCSORGRIGHT
 10
0.0
 20
0.0
 30
0.0
  9
$PUCSORGFRONT
 10
0.0
 20
0.0
 30
0.0
  9
$PUCSORGBACK
 10
0.0
 20
0.0
 30
0.0
  9
$USERI1
 70
     0
  9
$USERI2
 70
     0
  9
$USERI3
 70
     0
  9
$USERI4
 70
     0
  9
$USERI5
 70
     0
  9
$USERR1
 40
0.0
  9
$USERR2
 40
0.0
  9
$USERR3
 40
0.0
  9
$USERR4
 40
0.0
  9
$USERR5
 40
0.0
  9
$WORLDVIEW
 70
     1
  9
$SHADEDGE
 70
     3
  9
$SHADEDIF
 70
    70
  9
$TILEMODE
 70
     1
  9
$MAXACTVP
 70
    64
  9
$PINSBASE
 10
0.0
 20
0.0
 30
0.0
  9
$PLIMCHECK
 70
     0
  9
$PEXTMIN
 10
1.000000000000000E+20
 20
1.000000000000000E+20
 30
1.000000000000000E+20
  9
$PEXTMAX
 10
-1.000000000000000E+20
 20
-1.000000000000000E+20
 30
-1.000000000000000E+20
  9
$PLIMMIN
 10
0.0
 20
0.0
  9
$PLIMMAX
 10
12.0
 20
9.0
  9
$UNITMODE
 70
     0
  9
$VISRETAIN
 70
     1
  9
$PLINEGEN
 70
     0
  9
$PSLTSCALE
 70
     1
  9
$TREEDEPTH
 70
  3020
  9
$CMLSTYLE
  2
Standard
  9
$CMLJUST
 70
     0
  9
$CMLSCALE
 40
1.0
  9
$PROXYGRAPHICS
 70
     1
  9
$MEASUREMENT
 70
     0
  9
$CELWEIGHT
370
    -1
  9
$ENDCAPS
280
     0
  9
$JOINSTYLE
280
     0
  9
$LWDISPLAY
290
     0
  9
$INSUNITS
 70
     4
  9
$HYPERLINKBASE
  1

  9
$STYLESHEET
  1

  9
$XEDIT
290
     1
  9
$CEPSNTYPE
380
     0
  9
$PSTYLEMODE
290
     1
  9
$FINGERPRINTGUID
  2
{4883E874-3C52-9748-A5AE-47EA75EFE623}
  9
$VERSIONGUID
  2
{92B2F9AC-1C89-AF4F-8902-6827CAC17DFE}
  9
$EXTNAMES
290
     1
  9
$PSVPSCALE
 40
0.0
  9
$OLESTARTUP
290
     0
  9
$SORTENTS
280
   127
  9
$INDEXCTL
280
     0
  9
$HIDETEXT
280
     0
  9
$XCLIPFRAME
280
     2
  9
$HALOGAP
280
     0
  9
$OBSCOLOR
 70
   257
  9
$OBSLTYPE
280
     0
  9
$INTERSECTIONDISPLAY
280
     0
  9
$INTERSECTIONCOLOR
 70
   257
  9
$DIMASSOC
280
     1
  9
$PROJECTNAME
  1

  9
$CAMERADISPLAY
290
     0
  9
$LENSLENGTH
 40
50.0
  9
$CAMERAHEIGHT
 40
0.0
  9
$STEPSPERSEC
 40
2.0
  9
$STEPSIZE
 40
6.0
  9
$3DDWFPREC
 40
2.0
  9
$PSOLWIDTH
 40
0.25
  9
$PSOLHEIGHT
 40
4.0
  9
$LOFTANG1
 40
1.570796326794896
  9
$LOFTANG2
 40
1.570796326794896
  9
$LOFTMAG1
 40
0.0
  9
$LOFTMAG2
 40
0.0
  9
$LOFTPARAM
 70
     7
  9
$LOFTNORMALS
280
     1
  9
$LATITUDE
 40
37.795
  9
$LONGITUDE
 40
-122.394
  9
$NORTHDIRECTION
 40
0.0
  9
$TIMEZONE
 70
 -8000
  9
$LIGHTGLYPHDISPLAY
280
     1
  9
$TILEMODELIGHTSYNCH
280
     1
  9
$CMATERIAL
347
10005
  9
$SOLIDHIST
280
     0
  9
$SHOWHIST
280
     1
  9
$DWFFRAME
280
     2
  9
$DGNFRAME
280
     0
  9
$REALWORLDSCALE
290
     1
  9
$INTERFERECOLOR
 62
     1
  9
$INTERFEREOBJVS
345
10027
  9
$INTERFEREVPVS
346
10024
  9
$CSHADOW
280
     0
  9
$SHADOWPLANELOCATION
 40
0.0
  0
ENDSEC
  0
SECTION
  2
CLASSES
  0
CLASS
  1
ACDBDICTIONARYWDFLT
  2
AcDbDictionaryWithDefault
  3
ObjectDBX Classes
 90
        0
 91
        1
280
     0
281
     0
  0
CLASS
  1
MATERIAL
  2
AcDbMaterial
  3
ObjectDBX Classes
 90
     1153
 91
        3
280
     0
281
     0
  0
CLASS
  1
VISUALSTYLE
  2
AcDbVisualStyle
  3
ObjectDBX Classes
 90
     4095
 91
       24
280
     0
281
     0
  0
CLASS
  1
TABLESTYLE
  2
AcDbTableStyle
  3
ObjectDBX Classes
 90
     4095
 91
        1
280
     0
281
     0
  0
CLASS
  1
SCALE
  2
AcDbScale
  3
ObjectDBX Classes
 90
     1153
 91
       17
280
     0
281
     0
  0
CLASS
  1
MLEADERSTYLE
  2
AcDbMLeaderStyle
  3
ACDB_MLEADERSTYLE_CLASS
 90
     4095
 91
        1
280
     0
281
     0
  0
CLASS
  1
ACDBSECTIONVIEWSTYLE
  2
AcDbSectionViewStyle
  3
ObjectDBX Classes
 90
     1025
 91
        1
280
     0
281
     0
  0
CLASS
  1
ACDBDETAILVIEWSTYLE
  2
AcDbDetailViewStyle
  3
ObjectDBX Classes
 90
     1025
 91
        1
280
     0
281
     0
  0
CLASS
  1
SORTENTSTABLE
  2
AcDbSortentsTable
  3
ObjectDBX Classes
 90
        0
 91
        1
280
     0
281
     0
  0
CLASS
  1
DICTIONARYVAR
  2
AcDbDictionaryVar
  3
ObjectDBX Classes
 90
        0
 91
        9
280
     0
281
     0
  0
CLASS
  1
CELLSTYLEMAP
  2
AcDbCellStyleMap
  3
ObjectDBX Classes
 90
     1152
 91
        1
280
     0
281
     0
  0
ENDSEC
  0
SECTION
  2
TABLES
  0
TABLE
  2
VPORT
  5
8
330
0
100
AcDbSymbolTable
 70
     1
  0
VPORT
  5
10059
330
8
100
AcDbSymbolTableRecord
100
AcDbViewportTableRecord
  2
*Active
 70
     0
 10
0.0
 20
0.0
 11
1.0
 21
1.0
 12
237.7255702801649
 22
78.05221382589832
 13
0.0
 23
0.0
 14
1.0
 24
1.0
 15
0.0
 25
0.0
 16
0.0
 26
0.0
 36
1.0
 17
0.0
 27
0.0
 37
0.0
 40
262.1754019792823
 41
2.183162684869169
 42
50.0
 43
0.0
 44
0.0
 50
0.0
 51
0.0
 71
     0
 72
  1000
 73
     1
 74
     3
 75
     0
 76
     1
 77
     0
 78
     0
281
     0
 65
     1
110
0.0
120
0.0
130
0.0
111
1.0
121
0.0
131
0.0
112
0.0
122
1.0
132
0.0
 79
     0
146
0.0
348
10023
 60
     3
 61
     5
292
     1
282
     1
141
0.0
142
0.0
 63
   250
421
  3355443
1001
ACAD_NAV_VCDISPLAY
1070
     1
  0
ENDTAB
  0
TABLE
  2
LTYPE
  5
5
330
0
100
AcDbSymbolTable
 70
     1
  0
LTYPE
  5
14
330
5
100
AcDbSymbolTableRecord
100
AcDbLinetypeTableRecord
  2
BYBLOCK
 70
     0
  3

 72
    65
 73
     0
 40
0.0
  0
LTYPE
  5
15
330
5
100
AcDbSymbolTableRecord
100
AcDbLinetypeTableRecord
  2
BYLAYER
 70
     0
  3

 72
    65
 73
     0
 40
0.0
  0
LTYPE
  5
10001
330
5
100
AcDbSymbolTableRecord
100
AcDbLinetypeTableRecord
  2
Continuous
 70
     0
  3
Solid line
 72
    65
 73
     0
 40
0.0
  0
ENDTAB
  0
TABLE
  2
LAYER
  5
2
330
0
100
AcDbSymbolTable
 70
     1
  0
LAYER
  5
50
102
{ACAD_XDICTIONARY
360
1007E
102
}
330
2
100
AcDbSymbolTableRecord
100
AcDbLayerTableRecord
  2
0
 70
     0
 62
     7
  6
Continuous
370
    -3
390
10003
347
10015
348
0
  0
ENDTAB
  0
TABLE
  2
STYLE
  5
3
330
0
100
AcDbSymbolTable
 70
     1
  0
STYLE
  5
11
330
3
100
AcDbSymbolTableRecord
100
AcDbTextStyleTableRecord
  2
STANDARD
 70
     0
 40
0.0
 41
1.0
 50
0.0
 71
     0
 42
0.2
  3

  4

  0
ENDTAB
  0
TABLE
  2
VIEW
  5
6
330
0
100
AcDbSymbolTable
 70
     0
  0
ENDTAB
  0
TABLE
  2
UCS
  5
7
330
0
100
AcDbSymbolTable
 70
     0
  0
ENDTAB
  0
TABLE
  2
APPID
  5
9
330
0
100
AcDbSymbolTable
 70
     2
  0
APPID
  5
12
330
9
100
AcDbSymbolTableRecord
100
AcDbRegAppTableRecord
  2
ACAD
 70
     0
  0
APPID
  5
10058
330
9
100
AcDbSymbolTableRecord
100
AcDbRegAppTableRecord
  2
ACAD_NAV_VCDISPLAY
 70
     0
  0
ENDTAB
  0
TABLE
  2
DIMSTYLE
  5
A
330
0
100
AcDbSymbolTable
 70
     1
100
AcDbDimStyleTable
 71
     0
  0
DIMSTYLE
105
10053
330
A
100
AcDbSymbolTableRecord
100
AcDbDimStyleTableRecord
  2
Standard
 70
     0
340
11
  0
ENDTAB
  0
TABLE
  2
BLOCK_RECORD
  5
1
330
0
100
AcDbSymbolTable
 70
     0
  0
BLOCK_RECORD
  5
1F
330
1
100
AcDbSymbolTableRecord
100
AcDbBlockTableRecord
  2
*MODEL_SPACE
340
10055
 70
     0
280
     1
281
     0
  0
BLOCK_RECORD
  5
1B
330
1
100
AcDbSymbolTableRecord
100
AcDbBlockTableRecord
  2
*PAPER_SPACE
340
10056
 70
     0
280
     1
281
     0
  0
ENDTAB
  0
ENDSEC
  0
SECTION
  2
BLOCKS
  0
BLOCK
  5
20
330
1F
100
AcDbEntity
  8
0
100
AcDbBlockBegin
  2
*MODEL_SPACE
 70
     0
 10
0.0
 20
0.0
 30
0.0
  3
*MODEL_SPACE
  1

  0
ENDBLK
  5
21
330
1F
100
AcDbEntity
  8
0
100
AcDbBlockEnd
  0
BLOCK
  5
1C
330
1B
100
AcDbEntity
 67
     1
  8
0
100
AcDbBlockBegin
  2
*PAPER_SPACE
 70
     0
 10
0.0
 20
0.0
 30
0.0
  3
*PAPER_SPACE
  1

  0
ENDBLK
  5
1D
330
1B
100
AcDbEntity
 67
     1
  8
0
100
AcDbBlockEnd
  0
ENDSEC
  0
SECTION
  2
ENTITIES
  0
LWPOLYLINE
  5
150
330
1F
100
AcDbEntity
  8
0
100
AcDbPolyline
 90
        8
 70
     1
 43
0.0
 10
77.95856781186548
 20
18.07106781186547
 42
0.4142135623730703
 10
78.45856781186547
 20
18.5710678118655
 10
78.45856781186547
 20
31.57106781186551
 42
0.4142135623730822
 10
77.95856781186545
 20
32.07106781186552
 10
62.57731781186546
 20
32.07106781186552
 42
0.4142135623730508
 10
62.0773178118655
 20
31.57106781186549
 10
62.07731781186552
 20
18.57106781186547
 42
0.4142135623730808
 10
62.57731781186547
 20
18.07106781186546
  0
LWPOLYLINE
  5
151
330
1F
100
AcDbEntity
  8
0
100
AcDbPolyline
 90
        8
 70
     1
 43
0.0
 10
316.0835678118657
 20
94.27106781186544
 10
303.0835678118657
 20
94.2710678118655
 42
-0.4142135623729181
 10
302.5835678118657
 20
94.77106781186556
 10
302.5835678118657
 20
107.7710678118655
 42
-0.4142135623731888
 10
303.0835678118656
 20
108.2710678118655
 10
316.0835678118656
 20
108.2710678118654
 42
-0.4142135623730118
 10
316.5835678118657
 20
107.7710678118655
 10
316.5835678118657
 20
94.77106781186556
 42
-0.4142135623728558
  0
LWPOLYLINE
  5
152
330
1F
100
AcDbEntity
  8
0
100
AcDbPolyline
 90
        8
 70
     1
 43
0.0
 10
159.4210678118655
 20
107.7710678118655
 10
159.4210678118655
 20
94.77106781186556
 42
-0.4142135623731055
 10
158.9210678118656
 20
94.27106781186557
 10
145.9210678118656
 20
94.2710678118655
 42
-0.4142135623730118
 10
145.4210678118656
 20
94.77106781186556
 10
145.4210678118657
 20
107.7710678118655
 42
-0.4142135623730639
 10
145.9210678118656
 20
108.2710678118655
 10
158.9210678118656
 20
108.2710678118655
 42
-0.4142135623731055
  0
LWPOLYLINE
  5
153
330
1F
100
AcDbEntity
  8
0
100
AcDbPolyline
 90
        8
 70
     1
 43
0.0
 10
26.0710678118655
 20
94.77106781186556
 42
-0.4142135623731081
 10
25.57106781186549
 20
94.27106781186557
 10
12.57106781186551
 20
94.27106781186557
 42
-0.4142135623730586
 10
12.07106781186551
 20
94.77106781186556
 10
12.0710678118655
 20
107.7710678118655
 42
-0.4142135623730456
 10
12.57106781186551
 20
108.2710678118655
 10
25.57106781186549
 20
108.2710678118655
 42
-0.4142135623730508
 10
26.07106781186552
 20
107.7710678118655
  0
LWPOLYLINE
  5
154
330
1F
100
AcDbEntity
  8
0
100
AcDbPolyline
 90
        8
 70
     1
 43
0.0
 10
69.22106781186551
 20
107.7710678118655
 10
69.22106781186553
 20
94.77106781186556
 42
0.4142135623731159
 10
69.72106781186551
 20
94.27106781186557
 10
82.72106781186549
 20
94.27106781186557
 42
0.4142135623730534
 10
83.22106781186546
 20
94.77106781186556
 10
83.22106781186551
 20
107.7710678118655
 42
0.4142135623731055
 10
82.72106781186549
 20
108.2710678118655
 10
69.72106781186551
 20
108.2710678118655
 42
0.4142135623730586
  0
LWPOLYLINE
  5
155
330
1F
100
AcDbEntity
  8
0
100
AcDbPolyline
 90
        8
 70
     1
 43
0.0
 10
31.62106781186551
 20
94.27106781186557
 42
-0.4142135623730586
 10
31.12106781186551
 20
94.77106781186556
 10
31.12106781186549
 20
107.7710678118655
 42
-0.4142135623730196
 10
31.62106781186551
 20
108.2710678118655
 10
44.62106781186547
 20
108.2710678118655
 42
-0.4142135623730222
 10
45.12106781186552
 20
107.7710678118655
 10
45.12106781186546
 20
94.77106781186556
 42
-0.4142135623731159
 10
44.62106781186547
 20
94.27106781186557
  0
LWPOLYLINE
  5
156
330
1F
100
AcDbEntity
  8
0
100
AcDbPolyline
 90
        8
 70
     1
 43
0.0
 10
98.29606781186555
 20
75.22106781186555
 42
-0.4142135623731159
 10
97.79606781186553
 20
75.72106781186555
 10
97.79606781186553
 20
88.72106781186552
 42
-0.4142135623729286
 10
98.29606781186548
 20
89.22106781186554
 10
111.2960678118656
 20
89.22106781186547
 42
-0.4142135623731262
 10
111.7960678118656
 20
88.72106781186552
 10
111.7960678118656
 20
75.72106781186555
 42
-0.4142135623731159
 10
111.2960678118656
 20
75.22106781186555
  0
LWPOLYLINE
  5
157
330
1F
100
AcDbEntity
  8
0
100
AcDbPolyline
 90
        8
 70
     1
 43
0.0
 10
241.1710678118656
 20
108.2710678118655
 10
254.1710678118656
 20
108.2710678118655
 42
-0.4142135623729389
 10
254.6710678118656
 20
107.7710678118655
 10
254.6710678118657
 20
94.77106781186556
 42
-0.4142135623731888
 10
254.1710678118656
 20
94.27106781186552
 10
241.1710678118656
 20
94.27106781186548
 42
-0.4142135623731159
 10
240.6710678118656
 20
94.77106781186556
 10
240.6710678118656
 20
107.7710678118655
 42
-0.4142135623731368
  0
LWPOLYLINE
  5
158
330
1F
100
AcDbEntity
  8
0
100
AcDbPolyline
 90
        8
 70
     1
 43
0.0
 10
63.67106781186551
 20
132.083567811865
 10
50.6710678118655
 20
132.0835678118651
 42
0.4142135623731262
 10
50.17106781186547
 20
131.583567811865
 10
50.17106781186552
 20
118.5835678118652
 42
0.4142135623731575
 10
50.6710678118655
 20
118.0835678118653
 10
63.67106781186551
 20
118.0835678118653
 42
0.4142135623730793
 10
64.1710678118655
 20
118.5835678118652
 10
64.17106781186553
 20
131.583567811865
 42
0.4142135623730118
  0
LWPOLYLINE
  5
159
330
1F
100
AcDbEntity
  8
0
100
AcDbPolyline
 90
        8
 70
     1
 43
0.0
 10
168.4460678118656
 20
132.0835678118652
 42
-0.4142135623730534
 10
168.9460678118656
 20
131.583567811865
 10
168.9460678118656
 20
118.5835678118652
 42
-0.4142135623731368
 10
168.4460678118656
 20
118.0835678118652
 10
155.4460678118656
 20
118.0835678118651
 42
-0.4142135623730847
 10
154.9460678118656
 20
118.5835678118652
 10
154.9460678118656
 20
131.583567811865
 42
-0.4142135623732199
 10
155.4460678118656
 20
132.0835678118652
  0
LWPOLYLINE
  5
160
330
1F
100
AcDbEntity
  8
0
100
AcDbPolyline
 90
        8
 70
     1
 43
0.0
 10
88.77106781186553
 20
132.0835678118652
 10
101.7710678118655
 20
132.0835678118652
 42
-0.4142135623731055
 10
102.2710678118655
 20
131.583567811865
 10
102.2710678118655
 20
118.5835678118652
 42
-0.4142135623730013
 10
101.7710678118656
 20
118.0835678118652
 10
88.77106781186553
 20
118.0835678118651
 42
-0.4142135623731262
 10
88.27106781186545
 20
118.5835678118652
 10
88.27106781186545
 20
131.583567811865
 42
-0.4142135623730222
  0
LWPOLYLINE
  5
161
330
1F
100
AcDbEntity
  8
0
100
AcDbPolyline
 90
        8
 70
     1
 43
0.0
 10
14.45231781186548
 20
56.67106781186551
 10
14.45231781186552
 20
69.67106781186561
 42
-0.4142135623730847
 10
14.95231781186548
 20
70.17106781186547
 10
32.71481781186549
 20
70.17106781186561
 42
-0.4142135623730976
 10
33.21481781186549
 20
69.67106781186558
 10
33.21481781186551
 20
56.67106781186551
 42
-0.4142135623730612
 10
32.71481781186549
 20
56.17106781186549
 10
14.9523178118655
 20
56.17106781186551
 42
-0.414213562373069
  0
LWPOLYLINE
  5
162
330
1F
100
AcDbEntity
  8
0
100
AcDbPolyline
 90
        8
 70
     1
 43
0.0
 10
212.5960678118655
 20
89.22106781186554
 10
225.5960678118657
 20
89.22106781186554
 42
-0.4142135623728662
 10
226.0960678118656
 20
88.72106781186552
 10
226.0960678118656
 20
75.72106781186551
 42
-0.4142135623729441
 10
225.5960678118657
 20
75.22106781186547
 10
212.5960678118655
 20
75.22106781186547
 42
-0.4142135623732407
 10
212.0960678118656
 20
75.72106781186551
 10
212.0960678118656
 20
88.72106781186552
 42
-0.4142135623731368
  0
LWPOLYLINE
  5
163
330
1F
100
AcDbEntity
  8
0
100
AcDbPolyline
 90
        8
 70
     1
 43
0.0
 10
103.0585678118654
 20
56.17106781186547
 42
-0.4142135623730847
 10
102.5585678118655
 20
56.67106781186551
 10
102.5585678118655
 20
69.67106781186555
 42
-0.4142135623731523
 10
103.0585678118654
 20
70.1710678118655
 10
116.0585678118655
 20
70.17106781186561
 42
-0.4142135623731262
 10
116.5585678118655
 20
69.67106781186558
 10
116.5585678118655
 20
56.67106781186551
 42
-0.4142135623730898
 10
116.0585678118655
 20
56.17106781186551
  0
LWPOLYLINE
  5
164
330
1F
100
AcDbEntity
  8
0
100
AcDbPolyline
 90
        8
 70
     1
 43
0.0
 10
59.6960678118655
 20
75.72106781186555
 10
59.69606781186552
 20
88.72106781186552
 42
-0.4142135623730274
 10
60.19606781186553
 20
89.22106781186554
 10
73.19606781186547
 20
89.22106781186544
 42
-0.4142135623730639
 10
73.69606781186551
 20
88.72106781186552
 10
73.69606781186551
 20
75.72106781186555
 42
-0.4142135623731055
 10
73.19606781186547
 20
75.22106781186555
 10
60.19606781186553
 20
75.22106781186555
 42
-0.4142135623731055
  0
LWPOLYLINE
  5
165
330
1F
100
AcDbEntity
  8
0
100
AcDbPolyline
 90
        8
 70
     1
 43
0.0
 10
231.6460678118656
 20
89.22106781186547
 10
244.6460678118656
 20
89.22106781186554
 42
-0.4142135623729598
 10
245.1460678118656
 20
88.72106781186552
 10
245.1460678118656
 20
75.72106781186551
 42
-0.4142135623727933
 10
244.6460678118656
 20
75.22106781186547
 10
231.6460678118656
 20
75.22106781186547
 42
-0.4142135623732407
 10
231.1460678118656
 20
75.72106781186551
 10
231.1460678118656
 20
88.72106781186552
 42
-0.4142135623730951
  0
LWPOLYLINE
  5
166
330
1F
100
AcDbEntity
  8
0
100
AcDbPolyline
 90
        8
 70
     1
 43
0.0
 10
107.3210678118656
 20
94.77106781186556
 10
107.3210678118656
 20
107.7710678118655
 42
-0.4142135623731159
 10
107.8210678118656
 20
108.2710678118655
 10
120.8210678118656
 20
108.2710678118655
 42
-0.4142135623731159
 10
121.3210678118656
 20
107.7710678118655
 10
121.3210678118656
 20
94.77106781186556
 42
-0.4142135623731368
 10
120.8210678118656
 20
94.27106781186559
 10
107.8210678118656
 20
94.27106781186552
 42
-0.4142135623730431
  0
LWPOLYLINE
  5
167
330
1F
100
AcDbEntity
  8
0
100
AcDbPolyline
 90
        8
 70
     1
 43
0.0
 10
63.67106781186547
 20
94.27106781186552
 10
50.6710678118655
 20
94.27106781186557
 42
-0.4142135623731472
 10
50.17106781186551
 20
94.77106781186556
 10
50.17106781186552
 20
107.7710678118655
 42
-0.4142135623730639
 10
50.6710678118655
 20
108.2710678118655
 10
63.67106781186551
 20
108.2710678118655
 42
-0.4142135623730534
 10
64.17106781186551
 20
107.7710678118655
 10
64.17106781186546
 20
94.77106781186556
 42
-0.4142135623730274
  0
LWPOLYLINE
  5
168
330
1F
100
AcDbEntity
  8
0
100
AcDbPolyline
 90
        8
 70
     1
 43
0.0
 10
207.0460678118656
 20
131.583567811865
 10
207.0460678118656
 20
118.5835678118652
 42
-0.4142135623732303
 10
206.5460678118656
 20
118.0835678118652
 10
193.5460678118656
 20
118.0835678118651
 42
-0.414213562372887
 10
193.0460678118656
 20
118.5835678118652
 10
193.0460678118656
 20
131.583567811865
 42
-0.4142135623729077
 10
193.5460678118656
 20
132.0835678118651
 10
206.5460678118656
 20
132.0835678118652
 42
-0.4142135623731159
  0
LWPOLYLINE
  5
169
330
1F
100
AcDbEntity
  8
0
100
AcDbPolyline
 90
        8
 70
     1
 43
0.0
 10
121.3210678118656
 20
118.5835678118652
 10
121.3210678118656
 20
131.583567811865
 42
0.4142135623731159
 10
120.8210678118656
 20
132.083567811865
 10
107.8210678118656
 20
132.083567811865
 42
0.4142135623730639
 10
107.3210678118656
 20
131.583567811865
 10
107.3210678118656
 20
118.5835678118652
 42
0.4142135623731784
 10
107.8210678118656
 20
118.0835678118652
 10
120.8210678118656
 20
118.0835678118652
 42
0.4142135623730951
  0
LWPOLYLINE
  5
170
330
1F
100
AcDbEntity
  8
0
100
AcDbPolyline
 90
        8
 70
     1
 43
0.0
 10
316.5835678118657
 20
88.72106781186543
 10
316.5835678118657
 20
75.72106781186551
 42
-0.4142135623730482
 10
316.0835678118656
 20
75.22106781186547
 10
303.0835678118656
 20
75.22106781186545
 42
-0.4142135623731888
 10
302.5835678118657
 20
75.72106781186551
 10
302.5835678118657
 20
88.72106781186543
 42
-0.4142135623731472
 10
303.0835678118657
 20
89.22106781186544
 10
316.0835678118657
 20
89.22106781186547
 42
-0.4142135623729286
  0
LWPOLYLINE
  5
171
330
1F
100
AcDbEntity
  8
0
100
AcDbPolyline
 90
        8
 70
     1
 43
0.0
 10
54.14606781186547
 20
75.22106781186555
 10
41.14606781186547
 20
75.22106781186555
 42
-0.4142135623730431
 10
40.64606781186546
 20
75.72106781186555
 10
40.64606781186549
 20
88.72106781186552
 42
-0.4142135623730326
 10
41.14606781186547
 20
89.22106781186554
 10
54.14606781186547
 20
89.22106781186554
 42
-0.4142135623731159
 10
54.64606781186547
 20
88.72106781186552
 10
54.64606781186554
 20
75.72106781186555
 42
-0.4142135623731419
  0
LWPOLYLINE
  5
172
330
1F
100
AcDbEntity
  8
0
100
AcDbPolyline
 90
        8
 70
     1
 43
0.0
 10
354.6835678118652
 20
107.7710678118655
 10
354.6835678118657
 20
94.77106781186556
 42
-0.4142135623731888
 10
354.1835678118656
 20
94.27106781186557
 10
341.1835678118656
 20
94.27106781186559
 42
-0.4142135623731368
 10
340.6835678118657
 20
94.77106781186556
 10
340.6835678118658
 20
107.7710678118655
 42
-0.4142135623730326
 10
341.1835678118656
 20
108.2710678118655
 10
354.1835678118657
 20
108.2710678118654
 42
-0.4142135623729701
  0
LWPOLYLINE
  5
173
330
1F
100
AcDbEntity
  8
0
100
AcDbPolyline
 90
        8
 70
     1
 43
0.0
 10
226.3835678118657
 20
18.57106781186547
 10
226.3835678118657
 20
31.57106781186549
 42
-0.4142135623730586
 10
226.8835678118656
 20
32.07106781186557
 10
242.2648178118656
 20
32.07106781186547
 42
-0.4142135623729104
 10
242.7648178118657
 20
31.57106781186549
 10
242.7648178118656
 20
18.57106781186547
 42
-0.4142135623732108
 10
242.2648178118656
 20
18.0710678118654
 10
226.8835678118656
 20
18.07106781186546
 42
-0.4142135623729481
  0
LWPOLYLINE
  5
174
330
1F
100
AcDbEntity
  8
0
100
AcDbPolyline
 90
        8
 70
     1
 43
0.0
 10
239.8835678118656
 20
51.12106781186556
 42
-0.4142135623728766
 10
240.3835678118656
 20
50.6210678118655
 10
240.3835678118656
 20
37.62106781186548
 42
-0.4142135623728089
 10
239.8835678118656
 20
37.12106781186541
 10
226.8835678118656
 20
37.12106781186542
 42
-0.4142135623730456
 10
226.3835678118657
 20
37.62106781186548
 10
226.3835678118657
 20
50.6210678118655
 42
-0.4142135623730793
 10
226.8835678118656
 20
51.12106781186557
  0
LWPOLYLINE
  5
175
330
1F
100
AcDbEntity
  8
0
100
AcDbPolyline
 90
        8
 70
     1
 43
0.0
 10
192.2585678118656
 20
56.17106781186549
 10
179.2585678118656
 20
56.17106781186547
 42
-0.4142135623731159
 10
178.7585678118656
 20
56.67106781186551
 10
178.7585678118654
 20
69.67106781186555
 42
-0.4142135623731939
 10
179.2585678118656
 20
70.17106781186555
 10
192.2585678118656
 20
70.17106781186564
 42
-0.4142135623731835
 10
192.7585678118656
 20
69.67106781186555
 10
192.7585678118656
 20
56.67106781186551
 42
-0.4142135623732303
  0
LWPOLYLINE
  5
192
330
1F
100
AcDbEntity
  8
0
100
AcDbPolyline
 90
        8
 70
     1
 43
0.0
 10
173.9960678118655
 20
118.5835678118652
 10
173.9960678118656
 20
131.583567811865
 42
-0.4142135623728973
 10
174.4960678118657
 20
132.0835678118652
 10
187.4960678118656
 20
132.0835678118652
 42
-0.4142135623731159
 10
187.9960678118655
 20
131.583567811865
 10
187.9960678118655
 20
118.5835678118652
 42
-0.4142135623732303
 10
187.4960678118656
 20
118.0835678118652
 10
174.4960678118656
 20
118.0835678118651
 42
-0.4142135623730326
  0
LINE
  5
193
330
1F
100
AcDbEntity
  8
0
100
AcDbLine
 10
183.2335678118656
 20
38.1210678118655
 30
0.0
 11
183.2335678118656
 21
50.6210678118655
 31
0.0
  0
LWPOLYLINE
  5
194
330
1F
100
AcDbEntity
  8
0
100
AcDbPolyline
 90
        8
 70
     1
 43
0.0
 10
183.5210678118656
 20
94.77106781186556
 10
183.5210678118656
 20
107.7710678118655
 42
-0.4142135623731055
 10
184.0210678118656
 20
108.2710678118655
 10
197.0210678118656
 20
108.2710678118655
 42
-0.4142135623730118
 10
197.5210678118656
 20
107.7710678118655
 10
197.5210678118656
 20
94.77106781186556
 42
-0.4142135623729701
 10
197.0210678118656
 20
94.2710678118655
 10
184.0210678118656
 20
94.27106781186564
 42
-0.4142135623732823
  0
LWPOLYLINE
  5
195
330
1F
100
AcDbEntity
  8
0
100
AcDbPolyline
 90
        8
 70
     1
 43
0.0
 10
235.6210678118656
 20
107.7710678118655
 10
235.6210678118656
 20
94.77106781186556
 42
-0.4142135623729389
 10
235.1210678118657
 20
94.27106781186548
 10
222.1210678118656
 20
94.27106781186564
 42
-0.4142135623731888
 10
221.6210678118656
 20
94.77106781186556
 10
221.6210678118657
 20
107.7710678118655
 42
-0.4142135623730639
 10
222.1210678118656
 20
108.2710678118655
 10
235.1210678118657
 20
108.2710678118655
 42
-0.4142135623731159
  0
LWPOLYLINE
  5
196
330
1F
100
AcDbEntity
  8
0
100
AcDbPolyline
 90
       45
 70
     1
 43
0.0
 10
289.8898178118656
 20
18.0710678118654
 10
274.5085678118656
 20
18.07106781186543
 42
-0.4142135623731757
 10
274.0085678118656
 20
18.57106781186547
 10
274.0085678118656
 20
30.57106781186548
 42
0.4142135623730898
 10
273.0085678118656
 20
31.57106781186548
 10
267.5773178118655
 20
31.5710678118655
 42
0.4142135623730586
 10
266.5773178118655
 20
30.57106781186551
 10
266.5773178118655
 20
18.57106781186551
 42
-0.4142135623729637
 10
266.0773178118656
 20
18.07106781186544
 10
250.6960678118656
 20
18.07106781186542
 42
-0.4142135623732355
 10
250.1960678118656
 20
18.57106781186545
 10
250.1960678118656
 20
31.57106781186549
 42
-0.4142135623731419
 10
250.6960678118656
 20
32.07106781186551
 10
252.0773666398657
 20
32.07106781186551
 10
252.0773666398657
 20
38.62109832986556
 10
252.0773666398656
 20
50.62109832986558
 42
-0.414213848882746
 10
253.0773676180706
 20
51.62109832986511
 10
253.4585560245243
 20
51.62109795698469
 10
253.4585678118656
 20
63.67106782286558
 10
253.4585678118656
 20
74.22106781186546
 42
0.4142135623730898
 10
252.4585678118656
 20
75.22106781186547
 10
250.6960678118656
 20
75.22106781186547
 42
-0.4142135623732407
 10
250.1960678118656
 20
75.72106781186551
 10
250.1960678118656
 20
88.72106781186552
 42
-0.4142135623730951
 10
250.6960678118656
 20
89.22106781186547
 10
258.2210495008655
 20
89.22106781186554
 42
0.4142135623730898
 10
259.2210495008655
 20
90.22106781186552
 10
259.2210495008655
 20
95.77107391586556
 10
259.2210495008655
 20
110.7773117083651
 42
0.4142135623730898
 10
258.2210495008655
 20
111.7773117083651
 10
223.021055604866
 20
111.7773117083651
 42
-1.0
 10
223.021055604866
 20
115.5773117083652
 10
290.3749252337659
 20
115.5773117083653
 10
297.1792523407772
 20
115.5773117083651
 42
-0.4142136063978168
 10
299.0792526263658
 20
113.6773117083652
 10
299.0792526262902
 20
20.47107463216539
 42
-0.4142090632204202
 10
297.1792818124416
 20
18.57107463246521
 42
-0.4142135626811517
 10
295.279281239266
 20
20.47107406128792
 10
295.2792763804957
 20
36.62109863071778
 42
0.4142134742555218
 10
294.2792763804958
 20
37.62109832986558
 10
293.2711166398657
 20
37.6210983298656
 10
291.3898178118659
 20
37.62109832986558
 42
0.4142135623731237
 10
290.3898178118659
 20
36.62109832986565
 10
290.3898178118657
 20
31.57106781186547
 10
290.3898178118657
 20
18.57106781186545
 42
-0.4142135623731498
  0
LWPOLYLINE
  5
197
330
1F
100
AcDbEntity
  8
0
100
AcDbPolyline
 90
        8
 70
     1
 43
0.0
 10
130.3460678118656
 20
75.2210678118655
 10
117.3460678118656
 20
75.22106781186555
 42
-0.4142135623731159
 10
116.8460678118656
 20
75.72106781186555
 10
116.8460678118656
 20
88.72106781186552
 42
-0.4142135623731262
 10
117.3460678118656
 20
89.22106781186547
 10
130.3460678118656
 20
89.22106781186547
 42
-0.4142135623731055
 10
130.8460678118656
 20
88.72106781186552
 10
130.8460678118655
 20
75.72106781186555
 42
-0.4142135623731003
  0
LWPOLYLINE
  5
198
330
1F
100
AcDbEntity
  8
0
100
AcDbPolyline
 90
        8
 70
     1
 43
0.0
 10
126.3710678118656
 20
107.7710678118655
 42
-0.4142135623731368
 10
126.8710678118655
 20
108.2710678118655
 10
139.8710678118656
 20
108.2710678118655
 42
-0.4142135623731159
 10
140.3710678118656
 20
107.7710678118655
 10
140.3710678118656
 20
94.77106781186556
 42
-0.4142135623731368
 10
139.8710678118656
 20
94.27106781186557
 10
126.8710678118655
 20
94.27106781186557
 42
-0.4142135623730639
 10
126.3710678118656
 20
94.77106781186556
  0
LWPOLYLINE
  5
199
330
1F
100
AcDbEntity
  8
0
100
AcDbPolyline
 90
        8
 70
     1
 43
0.0
 10
335.1335678118656
 20
75.2210678118655
 10
322.1335678118656
 20
75.22106781186545
 42
-0.4142135623730274
 10
321.6335678118656
 20
75.72106781186551
 10
321.6335678118658
 20
88.72106781186543
 42
-0.4142135623730326
 10
322.1335678118656
 20
89.22106781186547
 10
335.1335678118656
 20
89.22106781186547
 42
-0.4142135623730744
 10
335.6335678118656
 20
88.72106781186543
 10
335.6335678118656
 20
75.72106781186551
 42
-0.414213562373324
  0
LWPOLYLINE
  5
200
330
1F
100
AcDbEntity
  8
0
100
AcDbPolyline
 90
        8
 70
     1
 43
0.0
 10
12.57106781186552
 20
132.0835678118652
 10
25.57106781186551
 20
132.0835678118652
 42
-0.4142135623731445
 10
26.07106781186547
 20
131.583567811865
 10
26.07106781186549
 20
118.5835678118652
 42
-0.4142135623731237
 10
25.57106781186549
 20
118.0835678118652
 10
12.57106781186551
 20
118.0835678118651
 42
-0.4142135623730951
 10
12.07106781186551
 20
118.5835678118652
 10
12.0710678118655
 20
131.583567811865
 42
-0.4142135623730326
  0
LINE
  5
201
330
1F
100
AcDbEntity
  8
0
100
AcDbLine
 10
93.03356781186554
 20
50.6210678118655
 30
0.0
 11
93.03356781186549
 21
38.1210678118655
 31
0.0
  0
LWPOLYLINE
  5
202
330
1F
100
AcDbEntity
  8
0
100
AcDbPolyline
 90
        8
 70
     1
 43
0.0
 10
178.4710678118655
 20
107.7710678118655
 10
178.4710678118656
 20
94.77106781186556
 42
-0.414213562373324
 10
177.9710678118656
 20
94.27106781186557
 10
164.9710678118655
 20
94.27106781186552
 42
-0.4142135623731262
 10
164.4710678118656
 20
94.77106781186556
 10
164.4710678118656
 20
107.7710678118655
 42
-0.414213562373168
 10
164.9710678118656
 20
108.2710678118655
 10
177.9710678118655
 20
108.2710678118655
 42
-0.4142135623728453
  0
ARC
  5
203
330
1F
100
AcDbEntity
  8
0
100
AcDbCircle
 10
93.5335678118656
 20
50.62106781186543
 30
0.0
 40
0.5000000000000604
100
AcDbArc
 50
90.00000000000815
 51
180.0
  0
LWPOLYLINE
  5
204
330
1F
100
AcDbEntity
  8
0
100
AcDbPolyline
 90
        8
 70
     1
 43
0.0
 10
69.72106781186551
 20
132.0835678118652
 10
82.72106781186549
 20
132.0835678118652
 42
-0.4142135623730744
 10
83.22106781186551
 20
131.583567811865
 10
83.22106781186555
 20
118.5835678118652
 42
-0.4142135623730951
 10
82.72106781186549
 20
118.0835678118652
 10
69.72106781186551
 20
118.0835678118651
 42
-0.4142135623730431
 10
69.22106781186553
 20
118.5835678118652
 10
69.22106781186551
 20
131.583567811865
 42
-0.4142135623731003
  0
LWPOLYLINE
  5
205
330
1F
100
AcDbEntity
  8
0
100
AcDbPolyline
 90
        8
 70
     1
 43
0.0
 10
149.3960678118654
 20
132.0835678118652
 42
-0.4142135623731262
 10
149.8960678118654
 20
131.583567811865
 10
149.8960678118654
 20
118.5835678118652
 42
-0.4142135623730431
 10
149.3960678118654
 20
118.0835678118652
 10
136.3960678118655
 20
118.0835678118651
 42
-0.4142135623731368
 10
135.8960678118656
 20
118.5835678118652
 10
135.8960678118656
 20
131.583567811865
 42
-0.4142135623732095
 10
136.3960678118655
 20
132.0835678118652
  0
ARC
  5
206
330
1F
100
AcDbEntity
  8
0
100
AcDbCircle
 10
106.5335678118655
 20
50.6210678118655
 30
0.0
 40
0.5000000000000427
100
AcDbArc
 50
0.0
 51
89.99999999999673
  0
LWPOLYLINE
  5
207
330
1F
100
AcDbEntity
  8
0
100
AcDbPolyline
 90
        8
 70
     1
 43
0.0
 10
216.0710678118658
 20
94.27106781186552
 10
203.0710678118656
 20
94.2710678118655
 42
-0.4142135623730222
 10
202.5710678118657
 20
94.77106781186556
 10
202.5710678118657
 20
107.7710678118655
 42
-0.4142135623731055
 10
203.0710678118656
 20
108.2710678118655
 10
216.0710678118658
 20
108.2710678118655
 42
-0.4142135623730639
 10
216.5710678118656
 20
107.7710678118655
 10
216.5710678118656
 20
94.77106781186556
 42
-0.4142135623729806
  0
ARC
  5
208
330
1F
100
AcDbEntity
  8
0
100
AcDbCircle
 10
144.6335678118654
 20
50.62106781186539
 30
0.0
 40
0.5000000000001137
100
AcDbArc
 50
0.0
 51
89.99999999999673
  0
LWPOLYLINE
  5
209
330
1F
100
AcDbEntity
  8
0
100
AcDbPolyline
 90
        8
 70
     1
 43
0.0
 10
235.6210678118656
 20
118.5835678118652
 42
-0.4142135623728662
 10
235.1210678118657
 20
118.0835678118652
 10
222.1210678118656
 20
118.0835678118652
 42
-0.4142135623728662
 10
221.6210678118657
 20
118.5835678118652
 10
221.6210678118656
 20
131.583567811865
 42
-0.4142135623730639
 10
222.1210678118656
 20
132.0835678118652
 10
235.1210678118657
 20
132.0835678118652
 42
-0.4142135623730534
 10
235.6210678118657
 20
131.583567811865
  0
LINE
  5
210
330
1F
100
AcDbEntity
  8
0
100
AcDbLine
 10
145.1335678118656
 20
38.12106781186548
 30
0.0
 11
145.1335678118656
 21
50.6210678118655
 31
0.0
  0
LINE
  5
211
330
1F
100
AcDbEntity
  8
0
100
AcDbLine
 10
144.6335678118655
 20
51.1210678118655
 30
0.0
 11
131.6335678118656
 21
51.12106781186553
 31
0.0
  0
LINE
  5
212
330
1F
100
AcDbEntity
  8
0
100
AcDbLine
 10
106.5335678118656
 20
51.12106781186554
 30
0.0
 11
93.53356781186553
 21
51.1210678118655
 31
0.0
  0
LWPOLYLINE
  5
213
330
1F
100
AcDbEntity
  8
0
100
AcDbPolyline
 90
        8
 70
     1
 43
0.0
 10
30.83356781186552
 20
88.72106781186552
 10
30.83356781186548
 20
75.72106781186555
 42
-0.4142135623731393
 10
30.3335678118655
 20
75.22106781186555
 10
17.33356781186548
 20
75.22106781186555
 42
-0.414213562373125
 10
16.83356781186548
 20
75.72106781186555
 10
16.83356781186551
 20
88.72106781186552
 42
-0.4142135623730496
 10
17.33356781186548
 20
89.22106781186554
 10
30.3335678118655
 20
89.22106781186554
 42
-0.4142135623730482
  0
LWPOLYLINE
  5
214
330
1F
100
AcDbEntity
  8
0
100
AcDbPolyline
 90
        8
 70
     1
 43
0.0
 10
321.6335678118656
 20
31.57106781186547
 42
-0.4142135623729286
 10
322.1335678118656
 20
32.07106781186551
 10
335.1335678118656
 20
32.07106781186535
 42
-0.4142135623734124
 10
335.6335678118656
 20
31.57106781186547
 10
335.6335678118656
 20
18.57106781186545
 42
-0.4142135623730261
 10
335.1335678118656
 20
18.07106781186542
 10
322.1335678118656
 20
18.07106781186546
 42
-0.4142135623731458
 10
321.6335678118657
 20
18.57106781186545
  0
ARC
  5
215
330
1F
100
AcDbEntity
  8
0
100
AcDbCircle
 10
131.6335678118656
 20
50.62106781186552
 30
0.0
 40
0.5000000000000071
100
AcDbArc
 50
90.00000000000325
 51
180.0
  0
LINE
  5
216
330
1F
100
AcDbEntity
  8
0
100
AcDbLine
 10
131.1335678118656
 20
50.6210678118655
 30
0.0
 11
131.1335678118656
 21
38.12106781186548
 31
0.0
  0
LWPOLYLINE
  5
217
330
1F
100
AcDbEntity
  8
0
100
AcDbPolyline
 90
       25
 70
     1
 43
0.0
 10
38.26481781186549
 20
18.5710678118655
 10
38.26481781186549
 20
30.57106781186553
 42
0.4142135623730898
 10
37.26481781186549
 20
31.57106781186552
 10
31.83356781186548
 20
31.57106781186552
 42
0.4142135623730898
 10
30.83356781186548
 20
30.57106781186553
 10
30.83356781186548
 20
18.5710678118655
 42
-0.4142135623731029
 10
30.3335678118655
 20
18.07106781186547
 10
14.95231781186548
 20
18.07106781186547
 42
-0.4142135623730729
 10
14.45231781186548
 20
18.5710678118655
 10
14.4523178118655
 20
31.57106781186551
 10
14.45231781186494
 20
52.70606707515209
 42
-0.4142135623731087
 10
15.45231781186493
 20
53.70606707515211
 10
22.04532721181117
 20
53.7060670751521
 10
39.92156914653467
 20
53.70606707515239
 10
49.38356781186663
 20
53.70606707514885
 42
-0.4142135623730925
 10
50.38356781186625
 20
52.70606707514847
 10
50.38356781186547
 20
50.62106781186553
 10
50.38356781186547
 20
37.62106781186547
 10
50.38356781186532
 20
33.76606534900184
 10
50.38356781186525
 20
32.07106781186552
 10
54.14606781186547
 20
32.07106781186553
 42
-0.4142135623730925
 10
54.64606781186553
 20
31.57106781186551
 10
54.64606781186547
 20
18.5710678118655
 42
-0.4142135623730625
 10
54.14606781186547
 20
18.0710678118655
 10
38.76481781186548
 20
18.0710678118655
 42
-0.4142135623731015
  0
LWPOLYLINE
  5
218
330
1F
100
AcDbEntity
  8
0
100
AcDbPolyline
 90
        8
 70
     1
 43
0.0
 10
354.6835678118657
 20
118.5835678118652
 10
354.6835678118652
 20
131.5835678118649
 42
0.4142135623734802
 10
354.1835678118654
 20
132.0835678118649
 10
341.1835678118655
 20
132.0835678118648
 42
0.4142135623732823
 10
340.6835678118655
 20
131.5835678118649
 10
340.6835678118657
 20
118.5835678118652
 42
0.4142135623728973
 10
341.1835678118656
 20
118.0835678118653
 10
354.1835678118657
 20
118.0835678118652
 42
0.4142135623729077
  0
LWPOLYLINE
  5
219
330
1F
100
AcDbEntity
  8
0
100
AcDbPolyline
 90
        8
 70
     1
 43
0.0
 10
173.7085678118654
 20
56.67106781186551
 42
-0.4142135623732721
 10
173.2085678118654
 20
56.17106781186551
 10
160.2085678118656
 20
56.17106781186554
 42
-0.4142135623731575
 10
159.7085678118656
 20
56.67106781186551
 10
159.7085678118656
 20
69.67106781186555
 42
-0.4142135623728922
 10
160.2085678118656
 20
70.17106781186557
 10
173.2085678118657
 20
70.17106781186561
 42
-0.4142135623731315
 10
173.7085678118656
 20
69.67106781186555
  0
ARC
  5
220
330
1F
100
AcDbEntity
  8
0
100
AcDbCircle
 10
182.7335678118656
 20
50.6210678118655
 30
0.0
 40
0.5000000000000071
100
AcDbArc
 50
0.0
 51
89.99999999999021
  0
LWPOLYLINE
  5
221
330
1F
100
AcDbEntity
  8
0
100
AcDbPolyline
 90
        8
 70
     1
 43
0.0
 10
302.5835678118657
 20
31.57106781186547
 42
-0.4142135623730561
 10
303.0835678118656
 20
32.07106781186548
 10
316.0835678118656
 20
32.07106781186557
 42
-0.414213562373004
 10
316.5835678118657
 20
31.57106781186547
 10
316.5835678118658
 20
18.57106781186547
 42
-0.4142135623732394
 10
316.0835678118656
 20
18.07106781186544
 10
303.0835678118656
 20
18.07106781186544
 42
-0.4142135623730274
 10
302.5835678118657
 20
18.57106781186547
  0
LINE
  5
222
330
1F
100
AcDbEntity
  8
0
100
AcDbLine
 10
107.0335678118656
 20
38.12106781186548
 30
0.0
 11
107.0335678118656
 21
50.6210678118655
 31
0.0
  0
LINE
  5
223
330
1F
100
AcDbEntity
  8
0
100
AcDbLine
 10
182.7335678118656
 20
51.12106781186549
 30
0.0
 11
169.7335678118656
 21
51.1210678118655
 31
0.0
  0
LINE
  5
224
330
1F
100
AcDbEntity
  8
0
100
AcDbLine
 10
169.2335678118656
 20
50.6210678118655
 30
0.0
 11
169.2335678118656
 21
38.1210678118655
 31
0.0
  0
ARC
  5
225
330
1F
100
AcDbEntity
  8
0
100
AcDbCircle
 10
74.4835678118655
 20
37.62106781186549
 30
0.0
 40
0.5000000000000249
100
AcDbArc
 50
180.0
 51
270.0
  0
ARC
  5
226
330
1F
100
AcDbEntity
  8
0
100
AcDbCircle
 10
169.7335678118657
 20
50.62106781186539
 30
0.0
 40
0.5000000000001048
100
AcDbArc
 50
90.00000000000978
 51
180.0
  0
LINE
  5
227
330
1F
100
AcDbEntity
  8
0
100
AcDbLine
 10
87.98356781186544
 20
38.1210678118655
 30
0.0
 11
87.98356781186544
 21
50.62106781186553
 31
0.0
  0
LWPOLYLINE
  5
228
330
1F
100
AcDbEntity
  8
0
100
AcDbPolyline
 90
        8
 70
     1
 43
0.0
 10
102.2710678118654
 20
107.7710678118655
 10
102.2710678118655
 20
94.77106781186556
 42
-0.4142135623730118
 10
101.7710678118655
 20
94.27106781186559
 10
88.77106781186553
 20
94.27106781186557
 42
-0.4142135623730013
 10
88.27106781186548
 20
94.77106781186556
 10
88.2710678118655
 20
107.7710678118655
 42
-0.4142135623731575
 10
88.77106781186546
 20
108.2710678118655
 10
101.7710678118656
 20
108.2710678118655
 42
-0.4142135623730639
  0
LINE
  5
229
330
1F
100
AcDbEntity
  8
0
100
AcDbLine
 10
62.07731781186552
 20
18.57106781186547
 30
0.0
 11
62.0773178118655
 21
31.57106781186549
 31
0.0
  0
LWPOLYLINE
  5
230
330
1F
100
AcDbEntity
  8
0
100
AcDbPolyline
 90
        8
 70
     1
 43
0.0
 10
174.4960678118655
 20
75.22106781186548
 42
-0.4142135623730639
 10
173.9960678118655
 20
75.72106781186555
 10
173.9960678118656
 20
88.72106781186552
 42
-0.414213562373168
 10
174.4960678118656
 20
89.22106781186554
 10
187.4960678118656
 20
89.22106781186554
 42
-0.4142135623731055
 10
187.9960678118655
 20
88.72106781186552
 10
187.9960678118655
 20
75.72106781186555
 42
-0.4142135623732721
 10
187.4960678118656
 20
75.2210678118655
  0
LWPOLYLINE
  5
231
330
1F
100
AcDbEntity
  8
0
100
AcDbPolyline
 90
        8
 70
     1
 43
0.0
 10
240.6710678118656
 20
118.5835678118652
 10
240.6710678118656
 20
131.583567811865
 42
-0.4142135623731368
 10
241.1710678118656
 20
132.0835678118652
 10
254.1710678118656
 20
132.0835678118652
 42
-0.4142135623732199
 10
254.6710678118656
 20
131.583567811865
 10
254.6710678118656
 20
118.5835678118652
 42
-0.4142135623728662
 10
254.1710678118656
 20
118.0835678118652
 10
241.1710678118656
 20
118.0835678118651
 42
-0.4142135623731159
  0
ARC
  5
232
330
1F
100
AcDbEntity
  8
0
100
AcDbCircle
 10
-62.57731781186551
 20
31.57106781186549
 30
0.0
 40
0.500000000000016
210
0.0
220
0.0
230
-1.0
100
AcDbArc
 50
0.0
 51
89.99999999999429
  0
LWPOLYLINE
  5
233
330
1F
100
AcDbEntity
  8
0
100
AcDbPolyline
 90
        4
 70
     1
 43
0.0
 10
13.97106781186544
 20
115.0773178118651
 10
24.17106781186538
 20
115.0773178118652
 42
-1.0
 10
24.17106781186536
 20
111.277317811865
 10
13.97106781186541
 20
111.2773178118651
 42
-1.0
  0
LWPOLYLINE
  5
234
330
1F
100
AcDbEntity
  8
0
100
AcDbPolyline
 90
        8
 70
     1
 43
0.0
 10
135.1085678118655
 20
70.17106781186557
 42
-0.414213562373121
 10
135.6085678118655
 20
69.67106781186558
 10
135.6085678118656
 20
56.67106781186551
 42
-0.414213562373121
 10
135.1085678118655
 20
56.17106781186551
 10
122.1085678118656
 20
56.17106781186551
 42
-0.4142135623730744
 10
121.6085678118655
 20
56.67106781186551
 10
121.6085678118655
 20
69.67106781186555
 42
-0.4142135623730534
 10
122.1085678118656
 20
70.17106781186559
  0
LINE
  5
235
330
1F
100
AcDbEntity
  8
0
100
AcDbLine
 10
188.2835678118656
 20
50.6210678118655
 30
0.0
 11
188.2835678118656
 21
38.1210678118655
 31
0.0
  0
LWPOLYLINE
  5
236
330
1F
100
AcDbEntity
  8
0
100
AcDbPolyline
 90
        8
 70
     1
 43
0.0
 10
230.3585678118656
 20
70.17106781186561
 42
-0.4142135623728713
 10
230.8585678118656
 20
69.67106781186555
 10
230.8585678118656
 20
56.67106781186546
 42
-0.4142135623728609
 10
230.3585678118656
 20
56.17106781186542
 10
217.3585678118656
 20
56.17106781186546
 42
-0.4142135623730118
 10
216.8585678118656
 20
56.67106781186546
 10
216.8585678118656
 20
69.67106781186555
 42
-0.4142135623730118
 10
217.3585678118656
 20
70.17106781186559
  0
LWPOLYLINE
  5
237
330
1F
100
AcDbEntity
  8
0
100
AcDbPolyline
 90
        8
 70
     1
 43
0.0
 10
354.1835678118655
 20
89.22106781186542
 42
-0.414213562373168
 10
354.6835678118657
 20
88.72106781186554
 10
354.6835678118657
 20
75.72106781186551
 42
-0.4142135623731315
 10
354.1835678118655
 20
75.22106781186555
 10
341.1835678118656
 20
75.22106781186555
 42
-0.4142135623731419
 10
340.6835678118657
 20
75.72106781186551
 10
340.6835678118658
 20
88.72106781186543
 42
-0.4142135623734385
 10
341.1835678118656
 20
89.22106781186544
  0
LWPOLYLINE
  5
238
330
1F
100
AcDbEntity
  8
0
100
AcDbPolyline
 90
        8
 70
     1
 43
0.0
 10
149.8960678118654
 20
75.72106781186555
 42
-0.4142135623730951
 10
149.3960678118654
 20
75.2210678118655
 10
136.3960678118656
 20
75.22106781186555
 42
-0.4142135623731055
 10
135.8960678118656
 20
75.72106781186555
 10
135.8960678118656
 20
88.72106781186552
 42
-0.4142135623730744
 10
136.3960678118655
 20
89.22106781186554
 10
149.3960678118654
 20
89.22106781186554
 42
-0.4142135623730431
 10
149.8960678118654
 20
88.72106781186552
  0
LWPOLYLINE
  5
239
330
1F
100
AcDbEntity
  8
0
100
AcDbPolyline
 90
        8
 70
     1
 43
0.0
 10
260.2210678118656
 20
118.0835678118652
 42
-0.4142135623731159
 10
259.7210678118656
 20
118.5835678118652
 10
259.7210678118656
 20
131.583567811865
 42
-0.4142135623731159
 10
260.2210678118656
 20
132.0835678118652
 10
273.2210678118656
 20
132.0835678118652
 42
-0.4142135623730534
 10
273.7210678118656
 20
131.583567811865
 10
273.7210678118656
 20
118.5835678118652
 42
-0.4142135623731888
 10
273.2210678118656
 20
118.0835678118652
  0
ARC
  5
240
330
1F
100
AcDbEntity
  8
0
100
AcDbCircle
 10
188.7835678118656
 20
50.62106781186539
 30
0.0
 40
0.500000000000096
100
AcDbArc
 50
90.00000000000978
 51
180.0
  0
LWPOLYLINE
  5
241
330
1F
100
AcDbEntity
  8
0
100
AcDbPolyline
 90
        8
 70
     1
 43
0.0
 10
92.24606781186544
 20
89.22106781186544
 42
-0.4142135623730326
 10
92.74606781186545
 20
88.72106781186552
 10
92.74606781186561
 20
75.72106781186555
 42
-0.414213562373017
 10
92.24606781186549
 20
75.22106781186547
 10
79.24606781186547
 20
75.22106781186555
 42
-0.4142135623731368
 10
78.74606781186547
 20
75.72106781186555
 10
78.74606781186547
 20
88.72106781186552
 42
-0.4142135623730898
 10
79.24606781186547
 20
89.22106781186544
  0
LINE
  5
242
330
1F
100
AcDbEntity
  8
0
100
AcDbLine
 10
164.1835678118656
 20
38.12106781186548
 30
0.0
 11
164.1835678118656
 21
50.6210678118655
 31
0.0
  0
LINE
  5
243
330
1F
100
AcDbEntity
  8
0
100
AcDbLine
 10
150.1835678118656
 20
50.6210678118655
 30
0.0
 11
150.1835678118656
 21
38.12106781186548
 31
0.0
  0
LINE
  5
244
330
1F
100
AcDbEntity
  8
0
100
AcDbLine
 10
163.6835678118656
 20
51.1210678118655
 30
0.0
 11
150.6835678118656
 21
51.12106781186553
 31
0.0
  0
LINE
  5
245
330
1F
100
AcDbEntity
  8
0
100
AcDbLine
 10
202.2835678118656
 20
38.12106781186548
 30
0.0
 11
202.2835678118656
 21
50.62106781186553
 31
0.0
  0
ARC
  5
246
330
1F
100
AcDbEntity
  8
0
100
AcDbCircle
 10
201.7835678118654
 20
50.62106781186543
 30
0.0
 40
0.5000000000001137
100
AcDbArc
 50
0.0
 51
89.99999999999021
  0
ARC
  5
247
330
1F
100
AcDbEntity
  8
0
100
AcDbCircle
 10
163.6835678118655
 20
50.62106781186543
 30
0.0
 40
0.5000000000000782
100
AcDbArc
 50
0.0
 51
89.99999999999021
  0
CIRCLE
  5
249
330
1F
100
AcDbEntity
  8
0
100
AcDbCircle
 10
136.3780185339124
 20
143.8460678118651
 30
0.0
 40
1.699999999999949
  0
CIRCLE
  5
254
330
1F
100
AcDbEntity
  8
0
100
AcDbCircle
 10
16.3671668077451
 20
6.308567811865302
 30
0.0
 40
1.700000000000017
  0
CIRCLE
  5
257
330
1F
100
AcDbEntity
  8
0
100
AcDbCircle
 10
230.3780187586216
 20
143.8460678118651
 30
0.0
 40
1.700000000000017
  0
CIRCLE
  5
260
330
1F
100
AcDbEntity
  8
0
100
AcDbCircle
 10
350.3780187586216
 20
143.8460678118651
 30
0.0
 40
1.700000000000012
  0
CIRCLE
  5
261
330
1F
100
AcDbEntity
  8
0
100
AcDbCircle
 10
230.3773267860652
 20
6.29718451622966
 30
0.0
 40
1.700000000000019
  0
CIRCLE
  5
263
330
1F
100
AcDbEntity
  8
0
100
AcDbCircle
 10
350.3773267860652
 20
6.29718451622966
 30
0.0
 40
1.699999999999968
  0
CIRCLE
  5
264
330
1F
100
AcDbEntity
  8
0
100
AcDbCircle
 10
16.3780185339125
 20
143.8460678118651
 30
0.0
 40
1.700000000000017
  0
LINE
  5
265
330
1F
100
AcDbEntity
  8
0
100
AcDbLine
 10
201.7835678118656
 20
51.12106781186556
 30
0.0
 11
188.7835678118655
 21
51.1210678118655
 31
0.0
  0
ARC
  5
268
330
1F
100
AcDbEntity
  8
0
100
AcDbCircle
 10
150.6835678118656
 20
50.6210678118655
 30
0.0
 40
0.5000000000000338
100
AcDbArc
 50
90.00000000000325
 51
180.0
  0
CIRCLE
  5
282
330
1F
100
AcDbEntity
  8
0
100
AcDbCircle
 10
136.367166807745
 20
6.308567811865302
 30
0.0
 40
1.700000000000019
  0
LWPOLYLINE
  5
300
330
1F
100
AcDbEntity
  8
0
100
AcDbPolyline
 90
        8
 70
     1
 43
0.0
 10
68.93356781186549
 20
37.62106781186549
 42
-0.4142135623730847
 10
68.43356781186549
 20
37.12106781186551
 10
55.43356781186547
 20
37.12106781186547
 42
-0.4142135623730793
 10
54.93356781186547
 20
37.62106781186549
 10
54.93356781186549
 20
50.62106781186553
 42
-0.4142135623730639
 10
55.43356781186547
 20
51.12106781186554
 10
68.43356781186549
 20
51.12106781186554
 42
-0.4142135623730847
 10
68.93356781186549
 20
50.62106781186553
  0
LWPOLYLINE
  5
301
330
1F
100
AcDbEntity
  8
0
100
AcDbPolyline
 90
        8
 70
     1
 43
0.0
 10
354.1835678118656
 20
18.07106781186543
 10
341.1835678118656
 20
18.07106781186556
 42
-0.4142135623730013
 10
340.6835678118657
 20
18.57106781186545
 10
340.6835678118657
 20
31.57106781186547
 42
-0.4142135623734697
 10
341.1835678118657
 20
32.07106781186552
 10
354.1835678118656
 20
32.07106781186543
 42
-0.4142135623732538
 10
354.6835678118657
 20
31.57106781186547
 10
354.6835678118657
 20
18.57106781186545
 42
-0.4142135623732056
  0
LWPOLYLINE
  5
302
330
1F
100
AcDbEntity
  8
0
100
AcDbPolyline
 90
        8
 70
     1
 43
0.0
 10
335.6335678118654
 20
107.7710678118656
 10
335.6335678118656
 20
94.77106781186556
 42
-0.4142135623730222
 10
335.1335678118656
 20
94.2710678118655
 10
322.1335678118656
 20
94.2710678118655
 42
-0.4142135623730222
 10
321.6335678118657
 20
94.77106781186556
 10
321.6335678118657
 20
107.7710678118655
 42
-0.4142135623731262
 10
322.1335678118656
 20
108.2710678118655
 10
335.1335678118656
 20
108.2710678118653
 42
-0.4142135623736986
  0
LWPOLYLINE
  5
303
330
1F
100
AcDbEntity
  8
0
100
AcDbPolyline
 90
        8
 70
     1
 43
0.0
 10
236.4085678118656
 20
70.17106781186561
 10
249.4085678118656
 20
70.17106781186559
 42
-0.4142135623729858
 10
249.9085678118656
 20
69.67106781186555
 10
249.9085678118656
 20
56.67106781186546
 42
-0.414213562373017
 10
249.4085678118656
 20
56.17106781186551
 10
236.4085678118656
 20
56.17106781186547
 42
-0.4142135623731939
 10
235.9085678118657
 20
56.67106781186546
 10
235.9085678118657
 20
69.67106781186555
 42
-0.4142135623729962
  0
LWPOLYLINE
  5
304
330
1F
100
AcDbEntity
  8
0
100
AcDbPolyline
 90
        8
 70
     1
 43
0.0
 10
97.50856781186556
 20
69.67106781186558
 10
97.50856781186548
 20
56.67106781186551
 42
-0.4142135623731106
 10
97.00856781186544
 20
56.17106781186554
 10
84.00856781186547
 20
56.17106781186553
 42
-0.4142135623731055
 10
83.50856781186541
 20
56.67106781186551
 10
83.50856781186548
 20
69.67106781186558
 42
-0.4142135623731003
 10
84.00856781186547
 20
70.17106781186561
 10
97.00856781186544
 20
70.17106781186561
 42
-0.4142135623731315
  0
LWPOLYLINE
  5
305
330
1F
100
AcDbEntity
  8
0
100
AcDbPolyline
 90
        8
 70
     1
 43
0.0
 10
59.40856781186547
 20
69.67106781186558
 10
59.40856781186547
 20
56.67106781186551
 42
-0.4142135623730847
 10
58.90856781186547
 20
56.17106781186549
 10
45.90856781186552
 20
56.17106781186554
 42
-0.4142135623731003
 10
45.40856781186547
 20
56.67106781186551
 10
45.4085678118655
 20
69.67106781186558
 42
-0.414213562373069
 10
45.90856781186547
 20
70.17106781186561
 10
58.90856781186547
 20
70.17106781186561
 42
-0.414213562373121
  0
LINE
  5
306
330
1F
100
AcDbEntity
  8
0
100
AcDbLine
 10
73.98356781186547
 20
50.62106781186553
 30
0.0
 11
73.98356781186547
 21
37.62106781186549
 31
0.0
  0
LWPOLYLINE
  5
307
330
1F
100
AcDbEntity
  8
0
100
AcDbPolyline
 90
        8
 70
     1
 43
0.0
 10
64.45856781186549
 20
56.67106781186551
 10
64.45856781186548
 20
69.67106781186558
 42
-0.414213562373121
 10
64.95856781186548
 20
70.17106781186561
 10
77.95856781186548
 20
70.17106781186561
 42
-0.4142135623730951
 10
78.45856781186547
 20
69.67106781186558
 10
78.45856781186547
 20
56.67106781186551
 42
-0.4142135623730847
 10
77.95856781186548
 20
56.17106781186554
 10
64.95856781186548
 20
56.17106781186549
 42
-0.4142135623731003
  0
LWPOLYLINE
  5
308
330
1F
100
AcDbEntity
  8
0
100
AcDbPolyline
 90
        8
 70
     1
 43
0.0
 10
335.6335678118656
 20
50.6210678118655
 10
335.6335678118656
 20
37.62106781186547
 42
-0.4142135623730249
 10
335.1335678118656
 20
37.12106781186544
 10
322.1335678118656
 20
37.12106781186553
 42
-0.4142135623728662
 10
321.6335678118656
 20
37.62106781186547
 10
321.6335678118656
 20
50.6210678118655
 42
-0.4142135623727518
 10
322.1335678118656
 20
51.12106781186554
 10
335.1335678118656
 20
51.12106781186543
 42
-0.4142135623733657
  0
ARC
  5
309
330
1F
100
AcDbEntity
  8
0
100
AcDbCircle
 10
87.48356781186537
 20
50.62106781186547
 30
0.0
 40
0.5000000000000782
100
AcDbArc
 50
0.0
 51
89.99999999998861
  0
LINE
  5
310
330
1F
100
AcDbEntity
  8
0
100
AcDbLine
 10
87.48356781186547
 20
51.12106781186555
 30
0.0
 11
74.4835678118655
 21
51.12106781186555
 31
0.0
  0
LWPOLYLINE
  5
311
330
1F
100
AcDbEntity
  8
0
100
AcDbPolyline
 90
        8
 70
     1
 43
0.0
 10
335.1335678118656
 20
132.083567811865
 42
-0.4142135623727829
 10
335.6335678118655
 20
131.5835678118649
 10
335.6335678118656
 20
118.5835678118652
 42
-0.4142135623732616
 10
335.1335678118656
 20
118.0835678118653
 10
322.1335678118656
 20
118.0835678118652
 42
-0.4142135623728558
 10
321.6335678118657
 20
118.5835678118652
 10
321.6335678118656
 20
131.5835678118649
 42
-0.41421356237271
 10
322.1335678118656
 20
132.083567811865
  0
ARC
  5
312
330
1F
100
AcDbEntity
  8
0
100
AcDbCircle
 10
74.48356781186562
 20
50.62106781186543
 30
0.0
 40
0.5000000000001315
100
AcDbArc
 50
90.000000000013
 51
180.0
  0
LWPOLYLINE
  5
313
330
1F
100
AcDbEntity
  8
0
100
AcDbPolyline
 90
        8
 70
     1
 43
0.0
 10
154.6585678118656
 20
69.67106781186555
 10
154.6585678118656
 20
56.67106781186551
 42
-0.4142135623730326
 10
154.1585678118656
 20
56.17106781186549
 10
141.1585678118655
 20
56.17106781186549
 42
-0.4142135623731315
 10
140.6585678118656
 20
56.67106781186551
 10
140.6585678118656
 20
69.67106781186555
 42
-0.414213562373017
 10
141.1585678118656
 20
70.17106781186547
 10
154.1585678118656
 20
70.17106781186557
 42
-0.4142135623730639
  0
LWPOLYLINE
  5
314
330
1F
100
AcDbEntity
  8
0
100
AcDbPolyline
 90
        8
 70
     1
 43
0.0
 10
193.0460678118656
 20
75.72106781186555
 10
193.0460678118656
 20
88.72106781186552
 42
-0.4142135623729077
 10
193.5460678118656
 20
89.22106781186547
 10
206.5460678118657
 20
89.22106781186554
 42
-0.4142135623730118
 10
207.0460678118656
 20
88.72106781186552
 10
207.0460678118656
 20
75.72106781186555
 42
-0.4142135623728401
 10
206.5460678118656
 20
75.22106781186547
 10
193.5460678118656
 20
75.22106781186548
 42
-0.4142135623728713
  0
LWPOLYLINE
  5
315
330
1F
100
AcDbEntity
  8
0
100
AcDbPolyline
 90
       24
 70
     1
 43
0.0
 10
316.5835678118658
 20
131.5835678118649
 10
316.5835678118658
 20
118.5835678118652
 42
-0.4142135623731262
 10
316.0835678118656
 20
118.0835678118652
 10
303.0835678118656
 20
118.0835678118651
 10
292.2710678118656
 20
118.0835678118652
 10
279.2710678118656
 20
118.0835678118652
 42
-0.4142135623733448
 10
278.7710678118656
 20
118.5835678118652
 10
278.7710678118656
 20
131.583567811865
 42
-0.4142135623728662
 10
279.2710678118656
 20
132.083567811865
 10
292.2710678118655
 20
132.0835678118652
 10
292.2710678118657
 20
150.0835678118652
 10
10.07106781186546
 20
150.0835678118652
 42
0.4142135623730954
 10
0.0710678118654551
 20
140.0835678118651
 10
0.0710678118654817
 20
125.0835678118651
 10
0.0710678118654817
 20
10.07106781186545
 42
0.4142135623730951
 10
10.07106781186545
 20
0.0710678118654817
 10
22.64294281186551
 20
0.0710678118654826
 10
356.6835678118656
 20
0.0710678118654462
 42
0.4142135623730895
 10
366.6835678118657
 20
10.07106781186554
 10
366.6835678118657
 20
140.083567811865
 42
0.4142135623730919
 10
356.6835678118656
 20
150.0835678118652
 10
303.0835678118656
 20
150.083567811865
 10
303.0835678118656
 20
132.083567811865
 10
316.0835678118657
 20
132.0835678118651
 42
-0.4142135623730951
  0
LINE
  5
316
330
1F
100
AcDbEntity
  8
0
100
AcDbLine
 10
78.45856781186547
 20
31.57106781186551
 30
0.0
 11
78.45856781186547
 21
18.5710678118655
 31
0.0
  0
LWPOLYLINE
  5
317
330
1F
100
AcDbEntity
  8
0
100
AcDbPolyline
 90
        8
 70
     1
 43
0.0
 10
211.3085678118656
 20
70.17106781186561
 10
198.3085678118655
 20
70.17106781186561
 42
0.4142135623729441
 10
197.8085678118656
 20
69.67106781186551
 10
197.8085678118656
 20
56.67106781186551
 42
0.4142135623731106
 10
198.3085678118655
 20
56.17106781186549
 10
211.3085678118656
 20
56.17106781186549
 42
0.4142135623732199
 10
211.8085678118656
 20
56.67106781186546
 10
211.8085678118656
 20
69.67106781186555
 42
0.4142135623730847
  0
ARC
  5
318
330
1F
100
AcDbEntity
  8
0
100
AcDbCircle
 10
207.8335678118657
 20
50.62106781186543
 30
0.0
 40
0.5000000000001315
100
AcDbArc
 50
90.000000000013
 51
180.0
  0
ARC
  5
319
330
1F
100
AcDbEntity
  8
0
100
AcDbCircle
 10
112.5835678118656
 20
50.62106781186543
 30
0.0
 40
0.5000000000000693
100
AcDbArc
 50
90.0
 51
180.0
  0
ARC
  5
320
330
1F
100
AcDbEntity
  8
0
100
AcDbCircle
 10
220.8335678118657
 20
37.62106781186556
 30
0.0
 40
0.5000000000000338
100
AcDbArc
 50
269.9999999999869
 51
360.0
  0
ARC
  5
321
330
1F
100
AcDbEntity
  8
0
100
AcDbCircle
 10
-77.95856781186548
 20
31.57106781186549
 30
0.0
 40
0.500000000000016
210
0.0
220
0.0
230
-1.0
100
AcDbArc
 50
89.99999999999673
 51
180.0
  0
LINE
  5
322
330
1F
100
AcDbEntity
  8
0
100
AcDbLine
 10
220.8335678118656
 20
51.12106781186554
 30
0.0
 11
207.8335678118656
 21
51.12106781186554
 31
0.0
  0
LWPOLYLINE
  5
323
330
1F
100
AcDbEntity
  8
0
100
AcDbPolyline
 90
        8
 70
     1
 43
0.0
 10
168.4460678118656
 20
75.22106781186547
 10
155.4460678118656
 20
75.22106781186555
 42
-0.4142135623730534
 10
154.9460678118656
 20
75.72106781186555
 10
154.9460678118656
 20
88.72106781186552
 42
-0.4142135623729598
 10
155.4460678118656
 20
89.22106781186554
 10
168.4460678118655
 20
89.22106781186554
 42
-0.4142135623729806
 10
168.9460678118656
 20
88.72106781186552
 10
168.9460678118655
 20
75.72106781186555
 42
-0.4142135623731939
  0
ARC
  5
324
330
1F
100
AcDbEntity
  8
0
100
AcDbCircle
 10
-62.57731781186547
 20
18.57106781186546
 30
0.0
 40
0.4999999999999849
210
0.0
220
0.0
230
-1.0
100
AcDbArc
 50
-90.0
 51
0.0
  0
ARC
  5
325
330
1F
100
AcDbEntity
  8
0
100
AcDbCircle
 10
220.8335678118654
 20
50.62106781186535
 30
0.0
 40
0.5000000000002202
100
AcDbArc
 50
0.0
 51
89.9999999999772
  0
ARC
  5
326
330
1F
100
AcDbEntity
  8
0
100
AcDbCircle
 10
-77.95856781186548
 20
18.5710678118655
 30
0.0
 40
0.500000000000016
210
0.0
220
0.0
230
-1.0
100
AcDbArc
 50
180.0
 51
270.0
  0
LINE
  5
327
330
1F
100
AcDbEntity
  8
0
100
AcDbLine
 10
62.57731781186546
 20
32.07106781186552
 30
0.0
 11
77.95856781186545
 21
32.07106781186552
 31
0.0
  0
LINE
  5
328
330
1F
100
AcDbEntity
  8
0
100
AcDbLine
 10
207.3335678118656
 20
50.6210678118655
 30
0.0
 11
207.3335678118656
 21
38.12106781186546
 31
0.0
  0
ARC
  5
329
330
1F
100
AcDbEntity
  8
0
100
AcDbCircle
 10
125.5835678118656
 20
50.62106781186553
 30
0.0
 40
0.4999999999999893
100
AcDbArc
 50
0.0
 51
90.00000000000815
  0
LINE
  5
330
330
1F
100
AcDbEntity
  8
0
100
AcDbLine
 10
126.0835678118656
 20
38.12106781186548
 30
0.0
 11
126.0835678118656
 21
50.6210678118655
 31
0.0
  0
LINE
  5
331
330
1F
100
AcDbEntity
  8
0
100
AcDbLine
 10
219.0000032633543
 20
37.12106781186553
 30
0.0
 11
220.8335678118656
 21
37.12106781186552
 31
0.0
  0
LINE
  5
332
330
1F
100
AcDbEntity
  8
0
100
AcDbLine
 10
221.3335678118657
 20
37.62106781186548
 30
0.0
 11
221.3335678118656
 21
50.6210678118655
 31
0.0
  0
LINE
  5
333
330
1F
100
AcDbEntity
  8
0
100
AcDbLine
 10
77.95856781186548
 20
18.07106781186547
 30
0.0
 11
62.57731781186547
 21
18.07106781186546
 31
0.0
  0
LINE
  5
334
330
1F
100
AcDbEntity
  8
0
100
AcDbLine
 10
125.5835678118655
 20
51.12106781186554
 30
0.0
 11
112.5835678118656
 21
51.1210678118655
 31
0.0
  0
LINE
  5
335
330
1F
100
AcDbEntity
  8
0
100
AcDbLine
 10
112.0835678118655
 20
50.6210678118655
 30
0.0
 11
112.0835678118655
 21
38.1210678118655
 31
0.0
  0
LINE
  5
336
330
1F
100
AcDbEntity
  8
0
100
AcDbLine
 10
87.20005207373835
 20
13.96669597432244
 30
0.0
 11
87.20005207373835
 21
35.40674723961863
 31
0.0
  0
LINE
  5
337
330
1F
100
AcDbEntity
  8
0
100
AcDbLine
 10
218.9261696875846
 20
35.40674723961863
 30
0.0
 11
218.9261696875846
 21
13.96669597432244
 31
0.0
  0
SPLINE
  5
338
330
1F
100
AcDbEntity
  8
0
100
AcDbSpline
210
0.0
220
0.0
230
1.0
 70
     8
 71
     3
 72
     8
 73
     4
 74
     0
 42
0.000000001
 43
0.0000000001
 40
22.0
 40
22.0
 40
22.0
 40
22.0
 40
23.0
 40
23.0
 40
23.0
 40
23.0
 10
218.9261696875846
 20
13.96669597432244
 30
0.0
 10
218.9261696875846
 20
13.45664958773107
 30
0.0
 10
218.5112079363863
 20
13.04168783653275
 30
0.0
 10
218.001161549795
 20
13.04168783653275
 30
0.0
  0
LINE
  5
339
330
1F
100
AcDbEntity
  8
0
100
AcDbLine
 10
218.001161549795
 20
13.04168783653275
 30
0.0
 11
88.1252324663022
 21
13.04168783653275
 31
0.0
  0
SPLINE
  5
340
330
1F
100
AcDbEntity
  8
0
100
AcDbSpline
210
0.0
220
0.0
230
1.0
 70
     8
 71
     3
 72
     8
 73
     4
 74
     0
 42
0.000000001
 43
0.0000000001
 40
0.0
 40
0.0
 40
0.0
 40
0.0
 40
1.0
 40
1.0
 40
1.0
 40
1.0
 10
88.1252324663022
 20
13.04168783653275
 30
0.0
 10
87.61518607971096
 20
13.04168783653275
 30
0.0
 10
87.20005207373835
 20
13.45664958773107
 30
0.0
 10
87.20005207373835
 20
13.96669597432244
 30
0.0
  0
LINE
  5
341
330
1F
100
AcDbEntity
  8
0
100
AcDbLine
 10
221.3335678118657
 20
37.62106781186548
 30
0.0
 11
221.3335678118656
 21
50.6210678118655
 31
0.0
  0
ARC
  5
342
330
1F
100
AcDbEntity
  8
0
100
AcDbCircle
 10
220.8335678118654
 20
50.62106781186535
 30
0.0
 40
0.5000000000002202
100
AcDbArc
 50
0.0
 51
89.9999999999772
  0
LINE
  5
343
330
1F
100
AcDbEntity
  8
0
100
AcDbLine
 10
220.8335678118656
 20
51.12106781186554
 30
0.0
 11
207.8335678118656
 21
51.12106781186554
 31
0.0
  0
ARC
  5
344
330
1F
100
AcDbEntity
  8
0
100
AcDbCircle
 10
207.8335678118657
 20
50.62106781186543
 30
0.0
 40
0.5000000000001315
100
AcDbArc
 50
90.000000000013
 51
180.0
  0
LINE
  5
345
330
1F
100
AcDbEntity
  8
0
100
AcDbLine
 10
207.3335678118656
 20
50.6210678118655
 30
0.0
 11
207.3335678118656
 21
37.62106781186547
 31
0.0
  0
LINE
  5
346
330
1F
100
AcDbEntity
  8
0
100
AcDbLine
 10
219.0000032633543
 20
37.12106781186553
 30
0.0
 11
220.8335678118656
 21
37.12106781186552
 31
0.0
  0
ARC
  5
347
330
1F
100
AcDbEntity
  8
0
100
AcDbCircle
 10
220.8335678118657
 20
37.62106781186556
 30
0.0
 40
0.5000000000000338
100
AcDbArc
 50
269.9999999999869
 51
360.0
  0
LINE
  5
348
330
1F
100
AcDbEntity
  8
0
100
AcDbLine
 10
87.20005207373835
 20
35.40674723961863
 30
0.0
 11
87.20005207373835
 21
36.62106781186547
 31
0.0
  0
LINE
  5
349
330
1F
100
AcDbEntity
  8
0
100
AcDbLine
 10
74.4835678118655
 20
37.12106781186547
 30
0.0
 11
86.70005207373835
 21
37.12106781186547
 31
0.0
  0
LINE
  5
350
330
1F
100
AcDbEntity
  8
0
100
AcDbLine
 10
92.53356781186552
 20
37.62106781186549
 30
0.0
 11
88.48356781186543
 21
37.62106781186549
 31
0.0
  0
LINE
  5
351
330
1F
100
AcDbEntity
  8
0
100
AcDbLine
 10
111.5835678118655
 20
37.62106781186549
 30
0.0
 11
107.5335678118656
 21
37.62106781186549
 31
0.0
  0
LINE
  5
352
330
1F
100
AcDbEntity
  8
0
100
AcDbLine
 10
130.6335678118656
 20
37.62106781186547
 30
0.0
 11
126.5835678118655
 21
37.62106781186549
 31
0.0
  0
LINE
  5
353
330
1F
100
AcDbEntity
  8
0
100
AcDbLine
 10
149.6835678118656
 20
37.62106781186547
 30
0.0
 11
145.6335678118656
 21
37.62106781186549
 31
0.0
  0
LINE
  5
354
330
1F
100
AcDbEntity
  8
0
100
AcDbLine
 10
168.7335678118656
 20
37.62106781186547
 30
0.0
 11
164.6835678118656
 21
37.62106781186549
 31
0.0
  0
LINE
  5
355
330
1F
100
AcDbEntity
  8
0
100
AcDbLine
 10
206.8335678118656
 20
37.62106781186547
 30
0.0
 11
202.7835678118655
 21
37.62106781186547
 31
0.0
  0
LINE
  5
356
330
1F
100
AcDbEntity
  8
0
100
AcDbLine
 10
187.7835678118655
 20
37.62106781186547
 30
0.0
 11
183.7335678118656
 21
37.62106781186547
 31
0.0
  0
ARC
  5
357
330
1F
100
AcDbEntity
  8
0
100
AcDbCircle
 10
92.53356781186544
 20
38.12106781186552
 30
0.0
 40
0.5000000000000249
100
AcDbArc
 50
270.0000000000049
 51
360.0
  0
ARC
  5
358
330
1F
100
AcDbEntity
  8
0
100
AcDbCircle
 10
107.5335678118656
 20
38.1210678118655
 30
0.0
 40
0.5000000000000071
100
AcDbArc
 50
180.0
 51
270.0
  0
ARC
  5
359
330
1F
100
AcDbEntity
  8
0
100
AcDbCircle
 10
111.5835678118655
 20
38.1210678118655
 30
0.0
 40
0.5000000000000071
100
AcDbArc
 50
270.0
 51
360.0
  0
ARC
  5
360
330
1F
100
AcDbEntity
  8
0
100
AcDbCircle
 10
145.6335678118656
 20
38.1210678118655
 30
0.0
 40
0.5000000000000071
100
AcDbArc
 50
180.0
 51
270.0
  0
ARC
  5
361
330
1F
100
AcDbEntity
  8
0
100
AcDbCircle
 10
149.6835678118656
 20
38.12106781186551
 30
0.0
 40
0.5000000000000427
100
AcDbArc
 50
270.0000000000033
 51
360.0
  0
ARC
  5
362
330
1F
100
AcDbEntity
  8
0
100
AcDbCircle
 10
130.6335678118656
 20
38.12106781186551
 30
0.0
 40
0.5000000000000427
100
AcDbArc
 50
270.0000000000033
 51
360.0
  0
ARC
  5
363
330
1F
100
AcDbEntity
  8
0
100
AcDbCircle
 10
126.5835678118655
 20
38.1210678118655
 30
0.0
 40
0.5000000000000071
100
AcDbArc
 50
180.0
 51
270.0
  0
ARC
  5
364
330
1F
100
AcDbEntity
  8
0
100
AcDbCircle
 10
164.6835678118655
 20
38.12106781186546
 30
0.0
 40
0.4999999999999716
100
AcDbArc
 50
180.0
 51
270.0000000000033
  0
ARC
  5
365
330
1F
100
AcDbEntity
  8
0
100
AcDbCircle
 10
168.7335678118656
 20
38.12106781186548
 30
0.0
 40
0.5000000000000071
100
AcDbArc
 50
-90.0
 51
0.0
  0
ARC
  5
366
330
1F
100
AcDbEntity
  8
0
100
AcDbCircle
 10
183.7335678118656
 20
38.12106781186548
 30
0.0
 40
0.5000000000000071
100
AcDbArc
 50
180.0
 51
270.0
  0
ARC
  5
367
330
1F
100
AcDbEntity
  8
0
100
AcDbCircle
 10
187.7835678118655
 20
38.12106781186546
 30
0.0
 40
0.5000000000000071
100
AcDbArc
 50
-89.99999999999673
 51
0.0
  0
ARC
  5
368
330
1F
100
AcDbEntity
  8
0
100
AcDbCircle
 10
202.7835678118655
 20
38.1210678118655
 30
0.0
 40
0.5000000000000071
100
AcDbArc
 50
180.0
 51
270.0
  0
LINE
  5
369
330
1F
100
AcDbEntity
  8
0
100
AcDbLine
 10
218.9261696875846
 20
35.40674723961863
 30
0.0
 11
218.9261696875846
 21
36.62106781186553
 31
0.0
  0
LINE
  5
370
330
1F
100
AcDbEntity
  8
0
100
AcDbLine
 10
219.4261696875846
 20
37.12106781186553
 30
0.0
 11
219.0000032633543
 21
37.12106781186553
 31
0.0
  0
ARC
  5
371
330
1F
100
AcDbEntity
  8
0
100
AcDbCircle
 10
219.4261696875846
 20
36.62106781186552
 30
0.0
 40
0.5000000000000071
100
AcDbArc
 50
90.0
 51
180.0
  0
ARC
  5
372
330
1F
100
AcDbEntity
  8
0
100
AcDbCircle
 10
206.8335678118656
 20
38.12106781186544
 30
0.0
 40
0.4999999999999716
100
AcDbArc
 50
-90.00000000000325
 51
0.0
  0
ARC
  5
373
330
1F
100
AcDbEntity
  8
0
100
AcDbCircle
 10
86.70005207373835
 20
36.62106781186545
 30
0.0
 40
0.5000000000000071
100
AcDbArc
 50
0.0
 51
90.0
  0
ARC
  5
374
330
1F
100
AcDbEntity
  8
0
100
AcDbCircle
 10
88.48356781186543
 20
38.12106781186551
 30
0.0
 40
0.5000000000000071
100
AcDbArc
 50
180.0
 51
270.0
  0
LWPOLYLINE
  5
375
330
1F
100
AcDbEntity
  8
0
100
AcDbPolyline
 90
        8
 70
     1
 43
0.0
 10
68.93356781186549
 20
50.62106781186553
 10
68.93356781186549
 20
37.62106781186549
 42
-0.4142135623730847
 10
68.43356781186549
 20
37.12106781186551
 10
55.43356781186547
 20
37.12106781186547
 42
-0.4142135623730793
 10
54.93356781186547
 20
37.62106781186549
 10
54.93356781186549
 20
50.62106781186553
 42
-0.4142135623730639
 10
55.43356781186547
 20
51.12106781186554
 10
68.43356781186549
 20
51.12106781186554
 42
-0.4142135623730847
  0
LWPOLYLINE
  5
403
330
1F
100
AcDbEntity
  8
0
100
AcDbPolyline
 90
        8
 70
     1
 43
0.0
 10
245.1460678118656
 20
88.72106781186552
 10
245.1460678118656
 20
75.72106781186551
 42
-0.4142135623727933
 10
244.6460678118656
 20
75.22106781186547
 10
231.6460678118656
 20
75.22106781186547
 42
-0.4142135623732407
 10
231.1460678118656
 20
75.72106781186551
 10
231.1460678118656
 20
88.72106781186552
 42
-0.4142135623730951
 10
231.6460678118656
 20
89.22106781186547
 10
244.6460678118656
 20
89.22106781186554
 42
-0.4142135623729598
  0
ARC
  5
404
330
1F
100
AcDbEntity
  8
0
100
AcDbCircle
 10
260.2210495008655
 20
111.7710739158655
 30
0.0
 40
0.9999999999999788
100
AcDbArc
 50
179.6425984985183
 51
180.0
  0
ARC
  5
405
330
1F
100
AcDbEntity
  8
0
100
AcDbCircle
 10
267.0773178118655
 20
31.0710678118655
 30
0.0
 40
0.5000000000000071
100
AcDbArc
 50
90.0
 51
180.0
  0
ARC
  5
406
330
1F
100
AcDbEntity
  8
0
100
AcDbCircle
 10
273.5085678118656
 20
31.07106781186552
 30
0.0
 40
0.4999999999999716
100
AcDbArc
 50
0.0
 51
90.00000000000651
  0
LINE
  5
407
330
1F
100
AcDbEntity
  8
0
100
AcDbLine
 10
253.4585678118656
 20
70.67106783386558
 30
0.0
 11
253.4585678118656
 21
75.22106781186547
 31
0.0
  0
LWPOLYLINE
  5
417
330
1F
100
AcDbEntity
  8
0
100
AcDbPolyline
 90
        4
 70
     1
 43
0.0
 10
118.9210678118659
 20
115.5773117083655
 10
51.57104339786599
 20
115.5773117083652
 42
1.0
 10
51.57104339786599
 20
111.7773117083651
 10
118.9210678118658
 20
111.7773117083649
 42
1.0
  0
LWPOLYLINE
  5
418
330
1F
100
AcDbEntity
  8
0
100
AcDbPolyline
 90
        4
 70
     1
 43
0.0
 10
204.646043397866
 20
115.5773117083653
 10
137.2960495013659
 20
115.5773117083651
 42
1.0
 10
137.2960495013659
 20
111.7773117083652
 10
204.646043397866
 20
111.777311708365
 42
1.0
  0
LWPOLYLINE
  5
419
330
1F
100
AcDbEntity
  8
0
100
AcDbPolyline
 90
        4
 70
     1
 43
0.0
 10
352.283555604866
 20
115.5773117083652
 10
303.983580018966
 20
115.5773117083653
 42
1.0
 10
303.983580018966
 20
111.777311708365
 10
352.283555604866
 20
111.7773117083652
 42
1.0
  0
LINE
  5
420
330
1F
100
AcDbEntity
  8
0
100
AcDbLine
 10
295.0000043958425
 20
37.6210983298656
 30
0.0
 11
295.2792760796437
 21
37.6210984138851
 31
0.0
  0
LINE
  5
421
330
1F
100
AcDbEntity
  8
0
100
AcDbLine
 10
48.88356781186607
 20
53.70606707514921
 30
0.0
 11
48.42156843127654
 21
53.70606707514921
 31
0.0
  0
LINE
  5
422
330
1F
100
AcDbEntity
  8
0
100
AcDbLine
 10
14.45231781186491
 20
53.70606707515211
 30
0.0
 11
14.95231781186548
 21
53.70606707515211
 31
0.0
  0
ENDSEC
  0
SECTION
  2
OBJECTS
  0
DICTIONARY
  5
C
330
0
100
AcDbDictionary
281
     1
  3
ACAD_CIP_PREVIOUS_PRODUCT_INFO
350
1005A
  3
ACAD_COLOR
350
10036
  3
ACAD_DETAILVIEWSTYLE
350
10051
  3
ACAD_GROUP
350
D
  3
ACAD_LAYOUT
350
10037
  3
ACAD_MATERIAL
350
10004
  3
ACAD_MLEADERSTYLE
350
1004D
  3
ACAD_MLINESTYLE
350
17
  3
ACAD_PLOTSETTINGS
350
10054
  3
ACAD_PLOTSTYLENAME
350
10002
  3
ACAD_SCALELIST
350
1003B
  3
ACAD_SECTIONVIEWSTYLE
350
1004F
  3
ACAD_TABLESTYLE
350
10038
  3
ACAD_VISUALSTYLE
350
1001D
  3
ACDB_RECOMPOSE_DATA
350
1008C
  3
AcDbVariableDictionary
350
10080
  0
DICTIONARY
  5
1007E
330
50
100
AcDbDictionary
280
     1
281
     1
  3
ADSK_XREC_LAYER_RECONCILED
360
1007F
  0
XRECORD
  5
1005A
102
{ACAD_REACTORS
330
C
102
}
330
C
100
AcDbXrecord
280
     1
300
ACD
300
2022
300

  0
DICTIONARY
  5
10036
102
{ACAD_REACTORS
330
C
102
}
330
C
100
AcDbDictionary
281
     1
  0
DICTIONARY
  5
10051
102
{ACAD_REACTORS
330
C
102
}
330
C
100
AcDbDictionary
281
     1
  3
Imperial24
350
10052
  0
DICTIONARY
  5
D
330
C
100
AcDbDictionary
281
     1
  0
DICTIONARY
  5
10037
102
{ACAD_REACTORS
330
C
102
}
330
C
100
AcDbDictionary
281
     1
  3
Layout1
350
10056
  3
Model
350
10055
  0
DICTIONARY
  5
10004
102
{ACAD_REACTORS
330
C
102
}
330
C
100
AcDbDictionary
281
     1
  3
ByBlock
350
1000D
  3
ByLayer
350
10005
  3
Global
350
10015
  0
DICTIONARY
  5
1004D
102
{ACAD_REACTORS
330
C
102
}
330
C
100
AcDbDictionary
281
     1
  3
Standard
350
1004E
  0
DICTIONARY
  5
17
330
C
100
AcDbDictionary
281
     1
  3
Standard
350
1003A
  0
DICTIONARY
  5
10054
102
{ACAD_REACTORS
330
C
102
}
330
C
100
AcDbDictionary
281
     1
  0
ACDBDICTIONARYWDFLT
  5
10002
102
{ACAD_REACTORS
330
C
102
}
330
C
100
AcDbDictionary
281
     1
  3
Normal
350
10003
100
AcDbDictionaryWithDefault
340
10003
  0
DICTIONARY
  5
1003B
102
{ACAD_REACTORS
330
C
102
}
330
C
100
AcDbDictionary
281
     1
  3
A0
350
1003C
  3
A1
350
1003D
  3
A2
350
1003E
  3
A3
350
1003F
  3
A4
350
10040
  3
A5
350
10041
  3
A6
350
10042
  3
A7
350
10043
  3
A8
350
10044
  3
A9
350
10045
  3
B0
350
10046
  3
B1
350
10047
  3
B2
350
10048
  3
B3
350
10049
  3
B4
350
1004A
  3
B5
350
1004B
  3
B6
350
1004C
  0
DICTIONARY
  5
1004F
102
{ACAD_REACTORS
330
C
102
}
330
C
100
AcDbDictionary
281
     1
  3
Imperial24
350
10050
  0
DICTIONARY
  5
10038
102
{ACAD_REACTORS
330
C
102
}
330
C
100
AcDbDictionary
281
     1
  3
Standard
350
10039
  0
DICTIONARY
  5
1001D
102
{ACAD_REACTORS
330
C
102
}
330
C
100
AcDbDictionary
281
     1
  3
2dWireframe
350
10023
  3
Basic
350
10022
  3
Brighten
350
10029
  3
ColorChange
350
1002D
  3
Conceptual
350
10026
  3
Dim
350
10028
  3
EdgeColorOff
350
10035
  3
Facepattern
350
1002C
  3
Flat
350
1001E
  3
FlatWithEdges
350
1001F
  3
Gouraud
350
10020
  3
GouraudWithEdges
350
10021
  3
Hidden
350
10025
  3
JitterOff
350
10033
  3
Linepattern
350
1002B
  3
OverhangOff
350
10034
  3
Realistic
350
10027
  3
Shaded
350
10032
  3
Shaded with edges
350
10031
  3
Shades of Gray
350
1002E
  3
Sketchy
350
1002F
  3
Thicken
350
1002A
  3
Wireframe
350
10024
  3
X-Ray
350
10030
  0
XRECORD
  5
1008C
102
{ACAD_REACTORS
330
C
102
}
330
C
100
AcDbXrecord
280
     1
 90
        1
330
10039
  0
DICTIONARY
  5
10080
102
{ACAD_REACTORS
330
C
102
}
330
C
100
AcDbDictionary
281
     1
  3
CANNOSCALE
350
10086
  3
CMLEADERSTYLE
350
10082
  3
CTABLESTYLE
350
10081
  3
CVIEWDETAILSTYLE
350
10083
  3
CVIEWSECTIONSTYLE
350
10084
  3
LAYEREVAL
350
10088
  3
LAYERNOTIFY
350
10089
  3
LIGHTINGUNITS
350
10087
  3
MSLTSCALE
350
10085
  0
XRECORD
  5
1007F
102
{ACAD_REACTORS
330
1007E
102
}
330
1007E
100
AcDbXrecord
280
     1
290
     1
  0
ACDBDETAILVIEWSTYLE
  5
10052
102
{ACAD_REACTORS
330
10051
102
}
330
10051
100
AcDbModelDocViewStyle
 70
     0
  3
Imperial24
290
     0
300
Imperial24
 90
        0
100
AcDbDetailViewStyle
 70
     0
 71
     0
 90
        3
 71
     1
340
11
 62
   256
 40
0.24
340
0
 62
   256
 40
0.24
300

 40
0.36
280
     3
 71
     2
340
0
 90
       25
 62
   256
 71
     3
340
11
 62
   256
 40
0.24
 90
        1
 40
0.75
 90
        1
300
%<\AcVar ViewType \f "%tc1">% %<\AcVar ViewDetailId>%\PSCALE %<\AcVar ViewScale \f "%sn">%
 71
     4
340
0
 90
       25
 62
   256
340
0
 90
       25
 62
   256
280
     0
  0
LAYOUT
  5
10056
102
{ACAD_REACTORS
330
10037
102
}
330
10037
100
AcDbPlotSettings
  1

  2
Microsoft Print to PDF
  4

  6

 40
0.0
 41
0.0
 42
0.0
 43
0.0
 44
0.0
 45
0.0
 46
0.0
 47
0.0
 48
0.0
 49
0.0
140
0.0
141
0.0
142
1.0
143
1.0
 70
   688
 72
     0
 73
     0
 74
     5
  7

 75
    16
147
1.0
 76
     0
 77
     2
 78
   300
148
0.0
149
0.0
100
AcDbLayout
  1
Layout1
 70
     1
 71
     1
 10
0.0
 20
0.0
 11
12.0
 21
9.0
 12
0.0
 22
0.0
 32
0.0
 14
1.000000000000000E+20
 24
1.000000000000000E+20
 34
1.000000000000000E+20
 15
-1.000000000000000E+20
 25
-1.000000000000000E+20
 35
-1.000000000000000E+20
146
0.0
 13
0.0
 23
0.0
 33
0.0
 16
1.0
 26
0.0
 36
0.0
 17
0.0
 27
1.0
 37
0.0
 76
     0
330
1B
  0
LAYOUT
  5
10055
102
{ACAD_REACTORS
330
10037
102
}
330
10037
100
AcDbPlotSettings
  1

  2
Microsoft Print to PDF
  4

  6

 40
0.0
 41
0.0
 42
0.0
 43
0.0
 44
0.0
 45
0.0
 46
0.0
 47
0.0
 48
0.0
 49
0.0
140
0.0
141
0.0
142
1.0
143
1.0
 70
  1712
 72
     0
 73
     0
 74
     0
  7

 75
     0
147
1.0
 76
     0
 77
     2
 78
   300
148
0.0
149
0.0
100
AcDbLayout
  1
Model
 70
     1
 71
     0
 10
0.0
 20
0.0
 11
12.0
 21
9.0
 12
0.0
 22
0.0
 32
0.0
 14
0.0
 24
0.0
 34
0.0
 15
0.0
 25
0.0
 35
0.0
146
0.0
 13
0.0
 23
0.0
 33
0.0
 16
1.0
 26
0.0
 36
0.0
 17
0.0
 27
1.0
 37
0.0
 76
     0
330
1F
331
10059
  0
MATERIAL
  5
1000D
102
{ACAD_XDICTIONARY
360
1000E
102
}
102
{ACAD_REACTORS
330
10004
102
}
330
10004
100
AcDbMaterial
  1
ByBlock
 72
     0
 43
0.0008202099737533
 43
0.0
 43
0.0
 43
0.0
 43
0.0
 43
0.0008202099737533
 43
0.0
 43
0.0
 43
0.0
 43
0.0
 43
1.0
 43
0.0
 43
0.0
 43
0.0
 43
0.0
 43
1.0
 77
     0
 47
0.0008202099737533
 47
0.0
 47
0.0
 47
0.0
 47
0.0
 47
0.0008202099737533
 47
0.0
 47
0.0
 47
0.0
 47
0.0
 47
1.0
 47
0.0
 47
0.0
 47
0.0
 47
0.0
 47
1.0
171
     0
 49
0.0008202099737533
 49
0.0
 49
0.0
 49
0.0
 49
0.0
 49
0.0008202099737533
 49
0.0
 49
0.0
 49
0.0
 49
0.0
 49
1.0
 49
0.0
 49
0.0
 49
0.0
 49
0.0
 49
1.0
175
     0
142
0.0008202099737533
142
0.0
142
0.0
142
0.0
142
0.0
142
0.0008202099737533
142
0.0
142
0.0
142
0.0
142
0.0
142
1.0
142
0.0
142
0.0
142
0.0
142
0.0
142
1.0
179
     0
144
0.0008202099737533
144
0.0
144
0.0
144
0.0
144
0.0
144
0.0008202099737533
144
0.0
144
0.0
144
0.0
144
0.0
144
1.0
144
0.0
144
0.0
144
0.0
144
0.0
144
1.0
147
0.0008202099737533
147
0.0
147
0.0
147
0.0
147
0.0
147
0.0008202099737533
147
0.0
147
0.0
147
0.0
147
0.0
147
1.0
147
0.0
147
0.0
147
0.0
147
0.0
147
1.0
  0
MATERIAL
  5
10005
102
{ACAD_XDICTIONARY
360
10006
102
}
102
{ACAD_REACTORS
330
10004
102
}
330
10004
100
AcDbMaterial
  1
ByLayer
 72
     0
 43
0.0008202099737533
 43
0.0
 43
0.0
 43
0.0
 43
0.0
 43
0.0008202099737533
 43
0.0
 43
0.0
 43
0.0
 43
0.0
 43
1.0
 43
0.0
 43
0.0
 43
0.0
 43
0.0
 43
1.0
 77
     0
 47
0.0008202099737533
 47
0.0
 47
0.0
 47
0.0
 47
0.0
 47
0.0008202099737533
 47
0.0
 47
0.0
 47
0.0
 47
0.0
 47
1.0
 47
0.0
 47
0.0
 47
0.0
 47
0.0
 47
1.0
171
     0
 49
0.0008202099737533
 49
0.0
 49
0.0
 49
0.0
 49
0.0
 49
0.0008202099737533
 49
0.0
 49
0.0
 49
0.0
 49
0.0
 49
1.0
 49
0.0
 49
0.0
 49
0.0
 49
0.0
 49
1.0
175
     0
142
0.0008202099737533
142
0.0
142
0.0
142
0.0
142
0.0
142
0.0008202099737533
142
0.0
142
0.0
142
0.0
142
0.0
142
1.0
142
0.0
142
0.0
142
0.0
142
0.0
142
1.0
179
     0
144
0.0008202099737533
144
0.0
144
0.0
144
0.0
144
0.0
144
0.0008202099737533
144
0.0
144
0.0
144
0.0
144
0.0
144
1.0
144
0.0
144
0.0
144
0.0
144
0.0
144
1.0
147
0.0008202099737533
147
0.0
147
0.0
147
0.0
147
0.0
147
0.0008202099737533
147
0.0
147
0.0
147
0.0
147
0.0
147
1.0
147
0.0
147
0.0
147
0.0
147
0.0
147
1.0
  0
MATERIAL
  5
10015
102
{ACAD_XDICTIONARY
360
10016
102
}
102
{ACAD_REACTORS
330
10004
102
}
330
10004
100
AcDbMaterial
  1
Global
 72
     0
 43
0.0008202099737533
 43
0.0
 43
0.0
 43
0.0
 43
0.0
 43
0.0008202099737533
 43
0.0
 43
0.0
 43
0.0
 43
0.0
 43
1.0
 43
0.0
 43
0.0
 43
0.0
 43
0.0
 43
1.0
 77
     0
 47
0.0008202099737533
 47
0.0
 47
0.0
 47
0.0
 47
0.0
 47
0.0008202099737533
 47
0.0
 47
0.0
 47
0.0
 47
0.0
 47
1.0
 47
0.0
 47
0.0
 47
0.0
 47
0.0
 47
1.0
171
     0
 49
0.0008202099737533
 49
0.0
 49
0.0
 49
0.0
 49
0.0
 49
0.0008202099737533
 49
0.0
 49
0.0
 49
0.0
 49
0.0
 49
1.0
 49
0.0
 49
0.0
 49
0.0
 49
0.0
 49
1.0
175
     0
142
0.0008202099737533
142
0.0
142
0.0
142
0.0
142
0.0
142
0.0008202099737533
142
0.0
142
0.0
142
0.0
142
0.0
142
1.0
142
0.0
142
0.0
142
0.0
142
0.0
142
1.0
179
     0
144
0.0008202099737533
144
0.0
144
0.0
144
0.0
144
0.0
144
0.0008202099737533
144
0.0
144
0.0
144
0.0
144
0.0
144
1.0
144
0.0
144
0.0
144
0.0
144
0.0
144
1.0
147
0.0008202099737533
147
0.0
147
0.0
147
0.0
147
0.0
147
0.0008202099737533
147
0.0
147
0.0
147
0.0
147
0.0
147
1.0
147
0.0
147
0.0
147
0.0
147
0.0
147
1.0
  0
MLEADERSTYLE
  5
1004E
102
{ACAD_REACTORS
330
1004D
102
}
330
1004D
100
AcDbMLeaderStyle
179
     2
170
     2
171
     1
172
     0
 90
        2
 40
0.0
 41
0.0
173
     1
 91
-1056964608
340
14
 92
       -2
290
     1
 42
0.09
291
     1
 43
0.36
  3
Standard
 44
0.18
300

342
11
174
     1
178
     6
175
     1
176
     0
 93
-1056964608
 45
0.18
292
     0
297
     0
 46
0.18
 94
-1056964608
 47
1.0
 49
1.0
140
1.0
293
     1
141
0.0
294
     1
177
     0
142
1.0
295
     0
296
     0
143
0.125
271
     0
272
     9
273
     9
298
     0
  0
MLINESTYLE
  5
1003A
102
{ACAD_REACTORS
330
17
102
}
330
17
100
AcDbMlineStyle
  2
STANDARD
 70
     0
  3

 62
   256
 51
90.0
 52
90.0
 71
     2
 49
0.5
 62
   256
  6
BYLAYER
 49
-0.5
 62
   256
  6
BYLAYER
  0
ACDBPLACEHOLDER
  5
10003
102
{ACAD_REACTORS
330
10002
102
}
330
10002
  0
SCALE
  5
1003C
102
{ACAD_REACTORS
330
1003B
102
}
330
1003B
100
AcDbScale
 70
     0
300
1:1
140
1.0
141
1.0
290
     1
  0
SCALE
  5
1003D
102
{ACAD_REACTORS
330
1003B
102
}
330
1003B
100
AcDbScale
 70
     0
300
1/128" = 1'-0"
140
0.0078125
141
12.0
290
     0
  0
SCALE
  5
1003E
102
{ACAD_REACTORS
330
1003B
102
}
330
1003B
100
AcDbScale
 70
     0
300
1/64" = 1'-0"
140
0.015625
141
12.0
290
     0
  0
SCALE
  5
1003F
102
{ACAD_REACTORS
330
1003B
102
}
330
1003B
100
AcDbScale
 70
     0
300
1/32" = 1'-0"
140
0.03125
141
12.0
290
     0
  0
SCALE
  5
10040
102
{ACAD_REACTORS
330
1003B
102
}
330
1003B
100
AcDbScale
 70
     0
300
1/16" = 1'-0"
140
0.0625
141
12.0
290
     0
  0
SCALE
  5
10041
102
{ACAD_REACTORS
330
1003B
102
}
330
1003B
100
AcDbScale
 70
     0
300
3/32" = 1'-0"
140
0.09375
141
12.0
290
     0
  0
SCALE
  5
10042
102
{ACAD_REACTORS
330
1003B
102
}
330
1003B
100
AcDbScale
 70
     0
300
1/8" = 1'-0"
140
0.125
141
12.0
290
     0
  0
SCALE
  5
10043
102
{ACAD_REACTORS
330
1003B
102
}
330
1003B
100
AcDbScale
 70
     0
300
3/16" = 1'-0"
140
0.1875
141
12.0
290
     0
  0
SCALE
  5
10044
102
{ACAD_REACTORS
330
1003B
102
}
330
1003B
100
AcDbScale
 70
     0
300
1/4" = 1'-0"
140
0.25
141
12.0
290
     0
  0
SCALE
  5
10045
102
{ACAD_REACTORS
330
1003B
102
}
330
1003B
100
AcDbScale
 70
     0
300
3/8" = 1'-0"
140
0.375
141
12.0
290
     0
  0
SCALE
  5
10046
102
{ACAD_REACTORS
330
1003B
102
}
330
1003B
100
AcDbScale
 70
     0
300
1/2" = 1'-0"
140
0.5
141
12.0
290
     0
  0
SCALE
  5
10047
102
{ACAD_REACTORS
330
1003B
102
}
330
1003B
100
AcDbScale
 70
     0
300
3/4" = 1'-0"
140
0.75
141
12.0
290
     0
  0
SCALE
  5
10048
102
{ACAD_REACTORS
330
1003B
102
}
330
1003B
100
AcDbScale
 70
     0
300
1" = 1'-0"
140
1.0
141
12.0
290
     0
  0
SCALE
  5
10049
102
{ACAD_REACTORS
330
1003B
102
}
330
1003B
100
AcDbScale
 70
     0
300
1-1/2" = 1'-0"
140
1.5
141
12.0
290
     0
  0
SCALE
  5
1004A
102
{ACAD_REACTORS
330
1003B
102
}
330
1003B
100
AcDbScale
 70
     0
300
3" = 1'-0"
140
3.0
141
12.0
290
     0
  0
SCALE
  5
1004B
102
{ACAD_REACTORS
330
1003B
102
}
330
1003B
100
AcDbScale
 70
     0
300
6" = 1'-0"
140
6.0
141
12.0
290
     0
  0
SCALE
  5
1004C
102
{ACAD_REACTORS
330
1003B
102
}
330
1003B
100
AcDbScale
 70
     0
300
1'-0" = 1'-0"
140
12.0
141
12.0
290
     0
  0
ACDBSECTIONVIEWSTYLE
  5
10050
102
{ACAD_REACTORS
330
1004F
102
}
330
1004F
100
AcDbModelDocViewStyle
 70
     0
  3
Imperial24
290
     0
300
Imperial24
 90
        0
100
AcDbSectionViewStyle
 70
     0
 71
     0
 90
       78
 71
     1
340
11
 62
   256
 40
0.24
340
0
340
0
 62
   256
 40
0.24
300
I, O, Q, S, X, Z
 40
0.48
 90
        3
 40
0.18
 90
        1
 71
     2
340
0
 90
       25
 62
   256
340
0
 90
       50
 62
   256
 40
0.24
 40
0.0
 40
0.24
 71
     3
340
11
 62
   256
 40
0.24
 90
        1
 40
0.75
 90
        1
300
%<\AcVar ViewType \f "%tc1">% %<\AcVar ViewSectionStartId>%-%<\AcVar ViewSectionEndId>%\PSCALE %<\AcVar ViewScale \f "%sn">%
 71
     4
 62
   256
 62
   257
300
ANSI31
 40
1.0
 90
        0
290
     0
290
     0
 90
        6
 40
0.0
 40
1.570796326794896
 40
0.2617993877991494
 40
1.308996938995747
 40
-0.2617993877991494
 40
1.832595714594046
  0
TABLESTYLE
  5
10039
102
{ACAD_XDICTIONARY
360
1008A
102
}
102
{ACAD_REACTORS
330
10038
102
}
330
10038
100
AcDbTableStyle
280
     0
  3
Standard
 70
     0
 71
     0
 40
0.06
 41
0.06
280
     0
281
     0
  7
STANDARD
140
0.18
170
     2
 62
     0
 63
     7
283
     0
 90
      512
 91
        0
  1

274
    -2
284
     1
 64
     0
275
    -2
285
     1
 65
     0
276
    -2
286
     1
 66
     0
277
    -2
287
     1
 67
     0
278
    -2
288
     1
 68
     0
279
    -2
289
     1
 69
     0
  7
STANDARD
140
0.25
170
     5
 62
     0
 63
     7
283
     0
 90
      512
 91
        0
  1

274
    -2
284
     1
 64
     0
275
    -2
285
     1
 65
     0
276
    -2
286
     1
 66
     0
277
    -2
287
     1
 67
     0
278
    -2
288
     1
 68
     0
279
    -2
289
     1
 69
     0
  7
STANDARD
140
0.18
170
     5
 62
     0
 63
     7
283
     0
 90
      512
 91
        0
  1

274
    -2
284
     1
 64
     0
275
    -2
285
     1
 65
     0
276
    -2
286
     1
 66
     0
277
    -2
287
     1
 67
     0
278
    -2
288
     1
 68
     0
279
    -2
289
     1
 69
     0
  0
VISUALSTYLE
  5
10023
102
{ACAD_REACTORS
330
1001D
102
}
330
1001D
100
AcDbVisualStyle
  2
2dWireframe
 70
     4
177
     3
291
     0
 70
    58
 90
        0
176
     1
 90
        2
176
     1
 90
        0
176
     1
 90
        0
176
     1
 40
0.6
176
     1
 40
30.0
176
     1
 62
     7
420
 16777215
176
     1
 90
        1
176
     1
 90
        4
176
     1
 62
     7
176
     1
 62
   257
176
     1
 90
        1
176
     1
 90
        1
176
     1
 40
1.0
176
     1
 90
        0
176
     1
 62
   257
176
     1
 40
1.0
176
     1
 90
        1
176
     1
 90
        6
176
     1
 90
        2
176
     1
 62
     7
176
     1
 90
        5
176
     1
 90
        0
176
     1
 90
        0
176
     1
290
     0
176
     1
 90
        1
176
     1
 40
0.0
176
     1
 90
        0
176
     1
290
     1
176
     1
290
     1
176
     1
290
     0
176
     1
290
     0
176
     1
290
     0
176
     1
290
     0
176
     1
290
     0
176
     1
290
     0
176
     1
290
     0
176
     1
 90
       50
176
     1
 40
0.0
176
     1
 40
1.0
176
     1
 90
        0
176
     1
 62
    18
420
        0
176
     1
 90
       50
176
     1
 90
        3
176
     1
 62
     5
420
      255
176
     1
290
     0
176
     1
 90
       50
176
     1
 90
       50
176
     1
 90
       50
176
     1
290
     0
176
     1
 90
       50
176
     1
 62
   256
176
     0
 40
1.0
176
     0
 90
        2
176
     1
  1
strokes_ogs.tif
176
     1
290
     0
176
     1
 40
1.0
176
     1
 40
1.0
176
     1
  0
VISUALSTYLE
  5
10022
102
{ACAD_REACTORS
330
1001D
102
}
330
1001D
100
AcDbVisualStyle
  2
Basic
 70
     7
177
     3
291
     1
 70
    58
 90
        1
176
     1
 90
        0
176
     1
 90
        1
176
     1
 90
        0
176
     1
 40
0.6
176
     1
 40
30.0
176
     1
 62
     7
420
 16777215
176
     1
 90
        0
176
     1
 90
        4
176
     1
 62
     7
176
     1
 62
   257
176
     1
 90
        1
176
     1
 90
        1
176
     1
 40
1.0
176
     1
 90
        8
176
     1
 62
     7
176
     1
 40
1.0
176
     1
 90
        1
176
     1
 90
        6
176
     1
 90
        2
176
     1
 62
     7
176
     1
 90
        5
176
     1
 90
        0
176
     1
 90
        0
176
     1
290
     0
176
     1
 90
        1
176
     1
 40
0.0
176
     1
 90
        0
176
     1
290
     0
176
     1
290
     1
176
     1
290
     1
176
     1
290
     0
176
     1
290
     0
176
     1
290
     0
176
     1
290
     0
176
     1
290
     0
176
     1
290
     0
176
     1
 90
       50
176
     1
 40
0.0
176
     1
 40
1.0
176
     1
 90
        0
176
     1
 62
    18
420
        0
176
     1
 90
       50
176
     1
 90
        3
176
     1
 62
     5
420
      255
176
     1
290
     0
176
     1
 90
       50
176
     1
 90
       50
176
     1
 90
       50
176
     1
290
     0
176
     1
 90
       50
176
     1
 62
   256
176
     0
 40
1.0
176
     0
 90
        2
176
     1
  1
strokes_ogs.tif
176
     1
290
     0
176
     1
 40
1.0
176
     1
 40
1.0
176
     1
  0
VISUALSTYLE
  5
10029
102
{ACAD_REACTORS
330
1001D
102
}
330
1001D
100
AcDbVisualStyle
  2
Brighten
 70
    12
177
     3
291
     1
 70
    58
 90
        2
176
     1
 90
        2
176
     1
 90
        0
176
     1
 90
        0
176
     1
 40
0.6
176
     1
 40
30.0
176
     1
 62
     7
420
 16777215
176
     1
 90
        1
176
     1
 90
        4
176
     1
 62
     7
176
     1
 62
   257
176
     1
 90
        1
176
     1
 90
        1
176
     1
 40
1.0
176
     1
 90
        8
176
     1
 62
     7
176
     1
 40
1.0
176
     1
 90
        1
176
     1
 90
        6
176
     1
 90
        2
176
     1
 62
     7
176
     1
 90
        5
176
     1
 90
        0
176
     1
 90
        0
176
     1
290
     0
176
     1
 90
        1
176
     1
 40
50.0
176
     1
 90
        0
176
     1
290
     0
176
     1
290
     1
176
     1
290
     1
176
     1
290
     0
176
     1
290
     0
176
     1
290
     0
176
     1
290
     0
176
     1
290
     0
176
     1
290
     0
176
     1
 90
       50
176
     1
 40
0.0
176
     1
 40
1.0
176
     1
 90
        0
176
     1
 62
    18
420
        0
176
     1
 90
       50
176
     1
 90
        3
176
     1
 62
     5
420
      255
176
     1
290
     0
176
     1
 90
       50
176
     1
 90
       50
176
     1
 90
       50
176
     1
290
     0
176
     1
 90
       50
176
     1
 62
   256
176
     0
 40
1.0
176
     0
 90
        2
176
     1
  1
strokes_ogs.tif
176
     1
290
     0
176
     1
 40
1.0
176
     1
 40
1.0
176
     1
  0
VISUALSTYLE
  5
1002D
102
{ACAD_REACTORS
330
1001D
102
}
330
1001D
100
AcDbVisualStyle
  2
ColorChange
 70
    16
177
     3
291
     1
 70
    58
 90
        2
176
     1
 90
        2
176
     1
 90
        3
176
     1
 90
        0
176
     1
 40
0.6
176
     1
 40
30.0
176
     1
 62
     8
420
  8421504
176
     1
 90
        1
176
     1
 90
        4
176
     1
 62
     7
176
     1
 62
   257
176
     1
 90
        1
176
     1
 90
        1
176
     1
 40
1.0
176
     1
 90
        8
176
     1
 62
     8
420
  8421504
176
     1
 40
1.0
176
     1
 90
        1
176
     1
 90
        6
176
     1
 90
        2
176
     1
 62
     7
176
     1
 90
        5
176
     1
 90
        0
176
     1
 90
        0
176
     1
290
     0
176
     1
 90
        1
176
     1
 40
0.0
176
     1
 90
        0
176
     1
290
     0
176
     1
290
     1
176
     1
290
     1
176
     1
290
     0
176
     1
290
     0
176
     1
290
     0
176
     1
290
     0
176
     1
290
     0
176
     1
290
     0
176
     1
 90
       50
176
     1
 40
0.0
176
     1
 40
1.0
176
     1
 90
        0
176
     1
 62
    18
420
        0
176
     1
 90
       50
176
     1
 90
        3
176
     1
 62
     5
420
      255
176
     1
290
     0
176
     1
 90
       50
176
     1
 90
       50
176
     1
 90
       50
176
     1
290
     0
176
     1
 90
       50
176
     1
 62
   256
176
     0
 40
1.0
176
     0
 90
        2
176
     1
  1
strokes_ogs.tif
176
     1
290
     0
176
     1
 40
1.0
176
     1
 40
1.0
176
     1
  0
VISUALSTYLE
  5
10026
102
{ACAD_REACTORS
330
1001D
102
}
330
1001D
100
AcDbVisualStyle
  2
Conceptual
 70
     9
177
     3
291
     0
 70
    58
 90
        3
176
     1
 90
        2
176
     1
 90
        0
176
     1
 90
        0
176
     1
 40
0.6
176
     1
 40
30.0
176
     1
 62
     7
420
 16777215
176
     1
 90
        2
176
     1
 90
        2
176
     1
 62
     7
176
     1
 62
   257
176
     1
 90
        1
176
     1
 90
        1
176
     1
 40
179.0
176
     1
 90
        8
176
     1
 62
     7
176
     1
 40
1.0
176
     1
 90
        1
176
     1
 90
        6
176
     1
 90
        2
176
     1
 62
     7
176
     1
 90
        3
176
     1
 90
        0
176
     1
 90
        0
176
     1
290
     0
176
     1
 90
        1
176
     1
 40
0.0
176
     1
 90
        0
176
     1
290
     0
176
     1
290
     1
176
     1
290
     1
176
     1
290
     0
176
     1
290
     0
176
     1
290
     0
176
     1
290
     0
176
     1
290
     0
176
     1
290
     0
176
     1
 90
       50
176
     1
 40
0.0
176
     1
 40
1.0
176
     1
 90
        0
176
     1
 62
    18
420
        0
176
     1
 90
       50
176
     1
 90
        3
176
     1
 62
     5
420
      255
176
     1
290
     0
176
     1
 90
       50
176
     1
 90
       50
176
     1
 90
       50
176
     1
290
     0
176
     1
 90
       50
176
     1
 62
   256
176
     0
 40
1.0
176
     0
 90
        2
176
     1
  1
strokes_ogs.tif
176
     1
290
     0
176
     1
 40
1.0
176
     1
 40
1.0
176
     1
  0
VISUALSTYLE
  5
10028
102
{ACAD_REACTORS
330
1001D
102
}
330
1001D
100
AcDbVisualStyle
  2
Dim
 70
    11
177
     3
291
     1
 70
    58
 90
        2
176
     1
 90
        2
176
     1
 90
        0
176
     1
 90
        0
176
     1
 40
0.6
176
     1
 40
30.0
176
     1
 62
     7
420
 16777215
176
     1
 90
        1
176
     1
 90
        4
176
     1
 62
     7
176
     1
 62
   257
176
     1
 90
        1
176
     1
 90
        1
176
     1
 40
1.0
176
     1
 90
        8
176
     1
 62
     7
176
     1
 40
1.0
176
     1
 90
        1
176
     1
 90
        6
176
     1
 90
        2
176
     1
 62
     7
176
     1
 90
        5
176
     1
 90
        0
176
     1
 90
        0
176
     1
290
     0
176
     1
 90
        1
176
     1
 40
-50.0
176
     1
 90
        0
176
     1
290
     0
176
     1
290
     1
176
     1
290
     1
176
     1
290
     0
176
     1
290
     0
176
     1
290
     0
176
     1
290
     0
176
     1
290
     0
176
     1
290
     0
176
     1
 90
       50
176
     1
 40
0.0
176
     1
 40
1.0
176
     1
 90
        0
176
     1
 62
    18
420
        0
176
     1
 90
       50
176
     1
 90
        3
176
     1
 62
     5
420
      255
176
     1
290
     0
176
     1
 90
       50
176
     1
 90
       50
176
     1
 90
       50
176
     1
290
     0
176
     1
 90
       50
176
     1
 62
   256
176
     0
 40
1.0
176
     0
 90
        2
176
     1
  1
strokes_ogs.tif
176
     1
290
     0
176
     1
 40
1.0
176
     1
 40
1.0
176
     1
  0
VISUALSTYLE
  5
10035
102
{ACAD_REACTORS
330
1001D
102
}
330
1001D
100
AcDbVisualStyle
  2
EdgeColorOff
 70
    22
177
     3
291
     1
 70
    58
 90
        2
176
     0
 90
        2
176
     0
 90
        0
176
     0
 90
        0
176
     0
 40
0.6
176
     0
 40
30.0
176
     0
 62
     7
420
 16777215
176
     0
 90
        1
176
     0
 90
        4
176
     0
 62
     7
176
     0
 62
   257
176
     0
 90
        1
176
     0
 90
        1
176
     0
 40
1.0
176
     0
 90
        8
176
     2
 62
     7
176
     0
 40
1.0
176
     0
 90
        1
176
     0
 90
        6
176
     0
 90
        2
176
     0
 62
     7
176
     0
 90
        5
176
     0
 90
        0
176
     0
 90
        0
176
     0
290
     0
176
     0
 90
        1
176
     0
 40
0.0
176
     0
 90
        0
176
     0
290
     0
176
     1
290
     1
176
     1
290
     1
176
     1
290
     0
176
     1
290
     0
176
     1
290
     0
176
     1
290
     0
176
     1
290
     0
176
     1
290
     0
176
     1
 90
       50
176
     0
 40
0.0
176
     0
 40
1.0
176
     0
 90
        0
176
     0
 62
    18
420
        0
176
     0
 90
       50
176
     0
 90
        3
176
     0
 62
     5
420
      255
176
     0
290
     0
176
     1
 90
       50
176
     0
 90
       50
176
     0
 90
       50
176
     0
290
     0
176
     1
 90
       50
176
     0
 62
   256
176
     0
 40
1.0
176
     0
 90
        2
176
     0
  1
strokes_ogs.tif
176
     0
290
     0
176
     1
 40
1.0
176
     0
 40
1.0
176
     0
  0
VISUALSTYLE
  5
1002C
102
{ACAD_REACTORS
330
1001D
102
}
330
1001D
100
AcDbVisualStyle
  2
Facepattern
 70
    15
177
     3
291
     1
 70
    58
 90
        2
176
     1
 90
        2
176
     1
 90
        0
176
     1
 90
        0
176
     1
 40
0.6
176
     1
 40
30.0
176
     1
 62
     7
420
 16777215
176
     1
 90
        1
176
     1
 90
        4
176
     1
 62
     7
176
     1
 62
   257
176
     1
 90
        1
176
     1
 90
        1
176
     1
 40
1.0
176
     1
 90
        8
176
     1
 62
     7
176
     1
 40
1.0
176
     1
 90
        1
176
     1
 90
        6
176
     1
 90
        2
176
     1
 62
     7
176
     1
 90
        5
176
     1
 90
        0
176
     1
 90
        0
176
     1
290
     0
176
     1
 90
        1
176
     1
 40
0.0
176
     1
 90
        0
176
     1
290
     0
176
     1
290
     1
176
     1
290
     1
176
     1
290
     0
176
     1
290
     0
176
     1
290
     0
176
     1
290
     0
176
     1
290
     0
176
     1
290
     0
176
     1
 90
       50
176
     1
 40
0.0
176
     1
 40
1.0
176
     1
 90
        0
176
     1
 62
    18
420
        0
176
     1
 90
       50
176
     1
 90
        3
176
     1
 62
     5
420
      255
176
     1
290
     0
176
     1
 90
       50
176
     1
 90
       50
176
     1
 90
       50
176
     1
290
     0
176
     1
 90
       50
176
     1
 62
   256
176
     0
 40
1.0
176
     0
 90
        2
176
     1
  1
strokes_ogs.tif
176
     1
290
     0
176
     1
 40
1.0
176
     1
 40
1.0
176
     1
  0
VISUALSTYLE
  5
1001E
102
{ACAD_REACTORS
330
1001D
102
}
330
1001D
100
AcDbVisualStyle
  2
Flat
 70
     0
177
     3
291
     1
 70
    58
 90
        2
176
     1
 90
        1
176
     1
 90
        1
176
     1
 90
        2
176
     1
 40
0.6
176
     1
 40
30.0
176
     1
 62
     7
420
 16777215
176
     1
 90
        0
176
     1
 90
        0
176
     1
 62
     7
176
     1
 62
   257
176
     1
 90
        1
176
     1
 90
        1
176
     1
 40
1.0
176
     1
 90
        8
176
     1
 62
     7
176
     1
 40
1.0
176
     1
 90
        1
176
     1
 90
        6
176
     1
 90
        2
176
     1
 62
     7
176
     1
 90
        5
176
     1
 90
        0
176
     1
 90
        0
176
     1
290
     0
176
     1
 90
       13
176
     1
 40
0.0
176
     1
 90
        0
176
     1
290
     0
176
     1
290
     1
176
     1
290
     1
176
     1
290
     0
176
     1
290
     0
176
     1
290
     0
176
     1
290
     0
176
     1
290
     0
176
     1
290
     0
176
     1
 90
       50
176
     1
 40
0.0
176
     1
 40
1.0
176
     1
 90
        0
176
     1
 62
    18
420
        0
176
     1
 90
       50
176
     1
 90
        3
176
     1
 62
     5
420
      255
176
     1
290
     0
176
     1
 90
       50
176
     1
 90
       50
176
     1
 90
       50
176
     1
290
     0
176
     1
 90
       50
176
     1
 62
   256
176
     0
 40
1.0
176
     0
 90
        2
176
     1
  1
strokes_ogs.tif
176
     1
290
     0
176
     1
 40
1.0
176
     1
 40
1.0
176
     1
  0
VISUALSTYLE
  5
1001F
102
{ACAD_REACTORS
330
1001D
102
}
330
1001D
100
AcDbVisualStyle
  2
FlatWithEdges
 70
     1
177
     3
291
     1
 70
    58
 90
        2
176
     1
 90
        1
176
     1
 90
        1
176
     1
 90
        2
176
     1
 40
0.6
176
     1
 40
30.0
176
     1
 62
     7
420
 16777215
176
     1
 90
        1
176
     1
 90
        0
176
     1
 62
     7
176
     1
 62
   257
176
     1
 90
        1
176
     1
 90
        1
176
     1
 40
1.0
176
     1
 90
        0
176
     1
 62
   257
176
     1
 40
1.0
176
     1
 90
        1
176
     1
 90
        6
176
     1
 90
        2
176
     1
 62
     7
176
     1
 90
        5
176
     1
 90
        0
176
     1
 90
        0
176
     1
290
     0
176
     1
 90
       13
176
     1
 40
0.0
176
     1
 90
        0
176
     1
290
     0
176
     1
290
     1
176
     1
290
     1
176
     1
290
     0
176
     1
290
     0
176
     1
290
     0
176
     1
290
     0
176
     1
290
     0
176
     1
290
     0
176
     1
 90
       50
176
     1
 40
0.0
176
     1
 40
1.0
176
     1
 90
        0
176
     1
 62
    18
420
        0
176
     1
 90
       50
176
     1
 90
        3
176
     1
 62
     5
420
      255
176
     1
290
     0
176
     1
 90
       50
176
     1
 90
       50
176
     1
 90
       50
176
     1
290
     0
176
     1
 90
       50
176
     1
 62
   256
176
     0
 40
1.0
176
     0
 90
        2
176
     1
  1
strokes_ogs.tif
176
     1
290
     0
176
     1
 40
1.0
176
     1
 40
1.0
176
     1
  0
VISUALSTYLE
  5
10020
102
{ACAD_REACTORS
330
1001D
102
}
330
1001D
100
AcDbVisualStyle
  2
Gouraud
 70
     2
177
     3
291
     1
 70
    58
 90
        2
176
     1
 90
        2
176
     1
 90
        1
176
     1
 90
        2
176
     1
 40
0.6
176
     1
 40
30.0
176
     1
 62
     7
420
 16777215
176
     1
 90
        0
176
     1
 90
        0
176
     1
 62
     7
176
     1
 62
   257
176
     1
 90
        1
176
     1
 90
        1
176
     1
 40
1.0
176
     1
 90
        0
176
     1
 62
     7
176
     1
 40
1.0
176
     1
 90
        1
176
     1
 90
        6
176
     1
 90
        2
176
     1
 62
     7
176
     1
 90
        5
176
     1
 90
        0
176
     1
 90
        0
176
     1
290
     0
176
     1
 90
       13
176
     1
 40
0.0
176
     1
 90
        0
176
     1
290
     0
176
     1
290
     1
176
     1
290
     1
176
     1
290
     0
176
     1
290
     0
176
     1
290
     0
176
     1
290
     0
176
     1
290
     0
176
     1
290
     0
176
     1
 90
       50
176
     1
 40
0.0
176
     1
 40
1.0
176
     1
 90
        0
176
     1
 62
    18
420
        0
176
     1
 90
       50
176
     1
 90
        3
176
     1
 62
     5
420
      255
176
     1
290
     0
176
     1
 90
       50
176
     1
 90
       50
176
     1
 90
       50
176
     1
290
     0
176
     1
 90
       50
176
     1
 62
   256
176
     0
 40
1.0
176
     0
 90
        2
176
     1
  1
strokes_ogs.tif
176
     1
290
     0
176
     1
 40
1.0
176
     1
 40
1.0
176
     1
  0
VISUALSTYLE
  5
10021
102
{ACAD_REACTORS
330
1001D
102
}
330
1001D
100
AcDbVisualStyle
  2
GouraudWithEdges
 70
     3
177
     3
291
     1
 70
    58
 90
        2
176
     1
 90
        2
176
     1
 90
        1
176
     1
 90
        2
176
     1
 40
0.6
176
     1
 40
30.0
176
     1
 62
     7
420
 16777215
176
     1
 90
        1
176
     1
 90
        0
176
     1
 62
     7
176
     1
 62
   257
176
     1
 90
        1
176
     1
 90
        1
176
     1
 40
1.0
176
     1
 90
        0
176
     1
 62
   257
176
     1
 40
1.0
176
     1
 90
        1
176
     1
 90
        6
176
     1
 90
        2
176
     1
 62
     7
176
     1
 90
        5
176
     1
 90
        0
176
     1
 90
        0
176
     1
290
     0
176
     1
 90
       13
176
     1
 40
0.0
176
     1
 90
        0
176
     1
290
     0
176
     1
290
     1
176
     1
290
     1
176
     1
290
     0
176
     1
290
     0
176
     1
290
     0
176
     1
290
     0
176
     1
290
     0
176
     1
290
     0
176
     1
 90
       50
176
     1
 40
0.0
176
     1
 40
1.0
176
     1
 90
        0
176
     1
 62
    18
420
        0
176
     1
 90
       50
176
     1
 90
        3
176
     1
 62
     5
420
      255
176
     1
290
     0
176
     1
 90
       50
176
     1
 90
       50
176
     1
 90
       50
176
     1
290
     0
176
     1
 90
       50
176
     1
 62
   256
176
     0
 40
1.0
176
     0
 90
        2
176
     1
  1
strokes_ogs.tif
176
     1
290
     0
176
     1
 40
1.0
176
     1
 40
1.0
176
     1
  0
VISUALSTYLE
  5
10025
102
{ACAD_REACTORS
330
1001D
102
}
330
1001D
100
AcDbVisualStyle
  2
Hidden
 70
     6
177
     3
291
     0
 70
    58
 90
        1
176
     1
 90
        2
176
     1
 90
        2
176
     1
 90
        0
176
     1
 40
0.6
176
     1
 40
30.0
176
     1
 62
     7
420
 16777215
176
     1
 90
        2
176
     1
 90
        2
176
     1
 62
     7
176
     1
 62
   257
176
     1
 90
        2
176
     1
 90
        1
176
     1
 40
40.0
176
     1
 90
        0
176
     1
 62
   257
176
     1
 40
1.0
176
     1
 90
        1
176
     1
 90
        6
176
     1
 90
        2
176
     1
 62
     7
176
     1
 90
        3
176
     1
 90
        0
176
     1
 90
        0
176
     1
290
     0
176
     1
 90
        1
176
     1
 40
0.0
176
     1
 90
        0
176
     1
290
     0
176
     1
290
     1
176
     1
290
     1
176
     1
290
     0
176
     1
290
     0
176
     1
290
     0
176
     1
290
     0
176
     1
290
     0
176
     1
290
     0
176
     1
 90
       50
176
     1
 40
0.0
176
     1
 40
1.0
176
     1
 90
        0
176
     1
 62
    18
420
        0
176
     1
 90
       50
176
     1
 90
        3
176
     1
 62
     5
420
      255
176
     1
290
     0
176
     1
 90
       50
176
     1
 90
       50
176
     1
 90
       50
176
     1
290
     0
176
     1
 90
       50
176
     1
 62
   256
176
     0
 40
1.0
176
     0
 90
        2
176
     1
  1
strokes_ogs.tif
176
     1
290
     0
176
     1
 40
1.0
176
     1
 40
1.0
176
     1
  0
VISUALSTYLE
  5
10033
102
{ACAD_REACTORS
330
1001D
102
}
330
1001D
100
AcDbVisualStyle
  2
JitterOff
 70
    20
177
     3
291
     1
 70
    58
 90
        2
176
     0
 90
        2
176
     0
 90
        0
176
     0
 90
        0
176
     0
 40
0.6
176
     0
 40
30.0
176
     0
 62
     7
420
 16777215
176
     0
 90
        1
176
     0
 90
        4
176
     0
 62
     7
176
     0
 62
   257
176
     0
 90
        1
176
     0
 90
        1
176
     0
 40
1.0
176
     0
 90
       10
176
     2
 62
     7
176
     0
 40
1.0
176
     0
 90
        1
176
     0
 90
        6
176
     0
 90
        2
176
     0
 62
     7
176
     0
 90
        5
176
     0
 90
        0
176
     0
 90
        0
176
     0
290
     0
176
     0
 90
        1
176
     0
 40
0.0
176
     0
 90
        0
176
     0
290
     0
176
     1
290
     1
176
     1
290
     1
176
     1
290
     0
176
     1
290
     0
176
     1
290
     0
176
     1
290
     0
176
     1
290
     0
176
     1
290
     0
176
     1
 90
       50
176
     0
 40
0.0
176
     0
 40
1.0
176
     0
 90
        0
176
     0
 62
    18
420
        0
176
     0
 90
       50
176
     0
 90
        3
176
     0
 62
     5
420
      255
176
     0
290
     0
176
     1
 90
       50
176
     0
 90
       50
176
     0
 90
       50
176
     0
290
     0
176
     1
 90
       50
176
     0
 62
   256
176
     0
 40
1.0
176
     0
 90
        2
176
     0
  1
strokes_ogs.tif
176
     0
290
     0
176
     1
 40
1.0
176
     0
 40
1.0
176
     0
  0
VISUALSTYLE
  5
1002B
102
{ACAD_REACTORS
330
1001D
102
}
330
1001D
100
AcDbVisualStyle
  2
Linepattern
 70
    14
177
     3
291
     1
 70
    58
 90
        2
176
     1
 90
        2
176
     1
 90
        0
176
     1
 90
        0
176
     1
 40
0.6
176
     1
 40
30.0
176
     1
 62
     7
420
 16777215
176
     1
 90
        1
176
     1
 90
        4
176
     1
 62
     7
176
     1
 62
   257
176
     1
 90
        7
176
     1
 90
        7
176
     1
 40
1.0
176
     1
 90
        8
176
     1
 62
     7
176
     1
 40
1.0
176
     1
 90
        1
176
     1
 90
        6
176
     1
 90
        2
176
     1
 62
     7
176
     1
 90
        5
176
     1
 90
        0
176
     1
 90
        0
176
     1
290
     0
176
     1
 90
        1
176
     1
 40
0.0
176
     1
 90
        0
176
     1
290
     0
176
     1
290
     1
176
     1
290
     1
176
     1
290
     0
176
     1
290
     0
176
     1
290
     0
176
     1
290
     0
176
     1
290
     0
176
     1
290
     0
176
     1
 90
       50
176
     1
 40
0.0
176
     1
 40
1.0
176
     1
 90
        0
176
     1
 62
    18
420
        0
176
     1
 90
       50
176
     1
 90
        3
176
     1
 62
     5
420
      255
176
     1
290
     0
176
     1
 90
       50
176
     1
 90
       50
176
     1
 90
       50
176
     1
290
     0
176
     1
 90
       50
176
     1
 62
   256
176
     0
 40
1.0
176
     0
 90
        2
176
     1
  1
strokes_ogs.tif
176
     1
290
     0
176
     1
 40
1.0
176
     1
 40
1.0
176
     1
  0
VISUALSTYLE
  5
10034
102
{ACAD_REACTORS
330
1001D
102
}
330
1001D
100
AcDbVisualStyle
  2
OverhangOff
 70
    21
177
     3
291
     1
 70
    58
 90
        2
176
     0
 90
        2
176
     0
 90
        0
176
     0
 90
        0
176
     0
 40
0.6
176
     0
 40
30.0
176
     0
 62
     7
420
 16777215
176
     0
 90
        1
176
     0
 90
        4
176
     0
 62
     7
176
     0
 62
   257
176
     0
 90
        1
176
     0
 90
        1
176
     0
 40
1.0
176
     0
 90
        9
176
     2
 62
     7
176
     0
 40
1.0
176
     0
 90
        1
176
     0
 90
        6
176
     0
 90
        2
176
     0
 62
     7
176
     0
 90
        5
176
     0
 90
        0
176
     0
 90
        0
176
     0
290
     0
176
     0
 90
        1
176
     0
 40
0.0
176
     0
 90
        0
176
     0
290
     0
176
     1
290
     1
176
     1
290
     1
176
     1
290
     0
176
     1
290
     0
176
     1
290
     0
176
     1
290
     0
176
     1
290
     0
176
     1
290
     0
176
     1
 90
       50
176
     0
 40
0.0
176
     0
 40
1.0
176
     0
 90
        0
176
     0
 62
    18
420
        0
176
     0
 90
       50
176
     0
 90
        3
176
     0
 62
     5
420
      255
176
     0
290
     0
176
     1
 90
       50
176
     0
 90
       50
176
     0
 90
       50
176
     0
290
     0
176
     1
 90
       50
176
     0
 62
   256
176
     0
 40
1.0
176
     0
 90
        2
176
     0
  1
strokes_ogs.tif
176
     0
290
     0
176
     1
 40
1.0
176
     0
 40
1.0
176
     0
  0
VISUALSTYLE
  5
10027
102
{ACAD_REACTORS
330
1001D
102
}
330
1001D
100
AcDbVisualStyle
  2
Realistic
 70
     8
177
     3
291
     0
 70
    58
 90
        2
176
     1
 90
        3
176
     1
 90
        0
176
     1
 90
        2
176
     1
 40
0.6
176
     1
 40
30.0
176
     1
 62
     7
420
 16777215
176
     1
 90
        0
176
     1
 90
        0
176
     1
 62
     7
176
     1
 62
   257
176
     1
 90
        1
176
     1
 90
        1
176
     1
 40
1.0
176
     1
 90
        8
176
     1
 62
   257
176
     1
 40
1.0
176
     1
 90
        1
176
     1
 90
        6
176
     1
 90
        2
176
     1
 62
     7
176
     1
 90
        3
176
     1
 90
        0
176
     1
 90
        0
176
     1
290
     0
176
     1
 90
       13
176
     1
 40
0.0
176
     1
 90
        0
176
     1
290
     0
176
     1
290
     1
176
     1
290
     1
176
     1
290
     0
176
     1
290
     0
176
     1
290
     0
176
     1
290
     0
176
     1
290
     0
176
     1
290
     0
176
     1
 90
       50
176
     1
 40
0.0
176
     1
 40
1.0
176
     1
 90
        0
176
     1
 62
    18
420
        0
176
     1
 90
       50
176
     1
 90
        3
176
     1
 62
     5
420
      255
176
     1
290
     0
176
     1
 90
       50
176
     1
 90
       50
176
     1
 90
       50
176
     1
290
     0
176
     1
 90
       50
176
     1
 62
   256
176
     0
 40
1.0
176
     0
 90
        2
176
     1
  1
strokes_ogs.tif
176
     1
290
     0
176
     1
 40
1.0
176
     1
 40
1.0
176
     1
  0
VISUALSTYLE
  5
10032
102
{ACAD_REACTORS
330
1001D
102
}
330
1001D
100
AcDbVisualStyle
  2
Shaded
 70
    27
177
     3
291
     0
 70
    58
 90
        2
176
     1
 90
        2
176
     1
 90
        1
176
     1
 90
        2
176
     1
 40
0.6
176
     1
 40
30.0
176
     1
 62
     7
420
 16777215
176
     1
 90
        0
176
     1
 90
        4
176
     1
 62
     7
176
     1
 62
   257
176
     1
 90
        1
176
     1
 90
        1
176
     1
 40
1.0
176
     1
 90
        8
176
     1
 62
   257
176
     1
 40
1.0
176
     1
 90
        1
176
     1
 90
        6
176
     1
 90
        2
176
     1
 62
     8
420
  7895160
176
     1
 90
        3
176
     1
 90
        0
176
     1
 90
        0
176
     1
290
     0
176
     1
 90
        5
176
     1
 40
0.0
176
     1
 90
        0
176
     1
290
     0
176
     1
290
     1
176
     1
290
     1
176
     1
290
     0
176
     1
290
     0
176
     1
290
     0
176
     1
290
     0
176
     1
290
     0
176
     1
290
     0
176
     1
 90
       50
176
     1
 40
0.0
176
     1
 40
1.0
176
     1
 90
        0
176
     1
 62
    18
420
        0
176
     1
 90
       50
176
     1
 90
        3
176
     1
 62
     5
420
      255
176
     1
290
     0
176
     1
 90
       50
176
     1
 90
       50
176
     1
 90
       50
176
     1
290
     0
176
     1
 90
       50
176
     1
 62
   256
176
     0
 40
1.0
176
     0
 90
        2
176
     1
  1
strokes_ogs.tif
176
     1
290
     0
176
     1
 40
1.0
176
     1
 40
1.0
176
     1
  0
VISUALSTYLE
  5
10031
102
{ACAD_REACTORS
330
1001D
102
}
330
1001D
100
AcDbVisualStyle
  2
Shaded with edges
 70
    26
177
     3
291
     0
 70
    58
 90
        2
176
     1
 90
        2
176
     1
 90
        1
176
     1
 90
        2
176
     1
 40
0.6
176
     1
 40
30.0
176
     1
 62
     7
420
 16777215
176
     1
 90
        1
176
     1
 90
        2
176
     1
 62
     7
176
     1
 62
   257
176
     1
 90
        2
176
     1
 90
        1
176
     1
 40
1.0
176
     1
 90
        8
176
     1
 62
   257
176
     1
 40
1.0
176
     1
 90
        1
176
     1
 90
        6
176
     1
 90
        2
176
     1
 62
     7
176
     1
 90
        3
176
     1
 90
        0
176
     1
 90
        0
176
     1
290
     0
176
     1
 90
        5
176
     1
 40
0.0
176
     1
 90
        0
176
     1
290
     0
176
     1
290
     1
176
     1
290
     1
176
     1
290
     0
176
     1
290
     0
176
     1
290
     0
176
     1
290
     0
176
     1
290
     0
176
     1
290
     0
176
     1
 90
       50
176
     1
 40
0.0
176
     1
 40
1.0
176
     1
 90
        0
176
     1
 62
    18
420
        0
176
     1
 90
       50
176
     1
 90
        3
176
     1
 62
     5
420
      255
176
     1
290
     0
176
     1
 90
       50
176
     1
 90
       50
176
     1
 90
       50
176
     1
290
     0
176
     1
 90
       50
176
     1
 62
   256
176
     0
 40
1.0
176
     0
 90
        2
176
     1
  1
strokes_ogs.tif
176
     1
290
     0
176
     1
 40
1.0
176
     1
 40
1.0
176
     1
  0
VISUALSTYLE
  5
1002E
102
{ACAD_REACTORS
330
1001D
102
}
330
1001D
100
AcDbVisualStyle
  2
Shades of Gray
 70
    23
177
     3
291
     0
 70
    58
 90
        2
176
     1
 90
        2
176
     1
 90
        3
176
     1
 90
        0
176
     1
 40
0.6
176
     1
 40
30.0
176
     1
 62
     7
420
 16777215
176
     1
 90
        2
176
     1
 90
        2
176
     1
 62
     7
176
     1
 62
     7
176
     1
 90
        1
176
     1
 90
        1
176
     1
 40
40.0
176
     1
 90
        8
176
     1
 62
     7
176
     1
 40
1.0
176
     1
 90
        1
176
     1
 90
        6
176
     1
 90
        2
176
     1
 62
     7
176
     1
 90
        3
176
     1
 90
        0
176
     1
 90
        0
176
     1
290
     0
176
     1
 90
        1
176
     1
 40
0.0
176
     1
 90
        0
176
     1
290
     0
176
     1
290
     1
176
     1
290
     1
176
     1
290
     0
176
     1
290
     0
176
     1
290
     0
176
     1
290
     0
176
     1
290
     0
176
     1
290
     0
176
     1
 90
       50
176
     1
 40
0.0
176
     1
 40
1.0
176
     1
 90
        0
176
     1
 62
    18
420
        0
176
     1
 90
       50
176
     1
 90
        3
176
     1
 62
     5
420
      255
176
     1
290
     0
176
     1
 90
       50
176
     1
 90
       50
176
     1
 90
       50
176
     1
290
     0
176
     1
 90
       50
176
     1
 62
   256
176
     0
 40
1.0
176
     0
 90
        2
176
     1
  1
strokes_ogs.tif
176
     1
290
     0
176
     1
 40
1.0
176
     1
 40
1.0
176
     1
  0
VISUALSTYLE
  5
1002F
102
{ACAD_REACTORS
330
1001D
102
}
330
1001D
100
AcDbVisualStyle
  2
Sketchy
 70
    24
177
     3
291
     0
 70
    58
 90
        1
176
     1
 90
        2
176
     1
 90
        2
176
     1
 90
        0
176
     1
 40
0.6
176
     1
 40
30.0
176
     1
 62
     7
420
 16777215
176
     1
 90
        2
176
     1
 90
        2
176
     1
 62
     7
176
     1
 62
     7
176
     1
 90
        1
176
     1
 90
        1
176
     1
 40
40.0
176
     1
 90
       11
176
     1
 62
     7
176
     1
 40
1.0
176
     1
 90
        1
176
     1
 90
        6
176
     1
 90
        2
176
     1
 62
     7
176
     1
 90
        6
176
     1
 90
        0
176
     1
 90
        0
176
     1
290
     0
176
     1
 90
        1
176
     1
 40
0.0
176
     1
 90
        0
176
     1
290
     0
176
     1
290
     1
176
     1
290
     1
176
     1
290
     0
176
     1
290
     0
176
     1
290
     0
176
     1
290
     0
176
     1
290
     0
176
     1
290
     0
176
     1
 90
       50
176
     1
 40
0.0
176
     1
 40
1.0
176
     1
 90
        0
176
     1
 62
    18
420
        0
176
     1
 90
       50
176
     1
 90
        3
176
     1
 62
     5
420
      255
176
     1
290
     0
176
     1
 90
       50
176
     1
 90
       50
176
     1
 90
       50
176
     1
290
     0
176
     1
 90
       50
176
     1
 62
   256
176
     0
 40
1.0
176
     0
 90
        2
176
     1
  1
strokes_ogs.tif
176
     1
290
     0
176
     1
 40
1.0
176
     1
 40
1.0
176
     1
  0
VISUALSTYLE
  5
1002A
102
{ACAD_REACTORS
330
1001D
102
}
330
1001D
100
AcDbVisualStyle
  2
Thicken
 70
    13
177
     3
291
     1
 70
    58
 90
        2
176
     1
 90
        2
176
     1
 90
        0
176
     1
 90
        0
176
     1
 40
0.6
176
     1
 40
30.0
176
     1
 62
     7
420
 16777215
176
     1
 90
        1
176
     1
 90
        4
176
     1
 62
     7
176
     1
 62
   257
176
     1
 90
        1
176
     1
 90
        1
176
     1
 40
1.0
176
     1
 90
       12
176
     1
 62
     7
176
     1
 40
1.0
176
     1
 90
        1
176
     1
 90
        6
176
     1
 90
        2
176
     1
 62
     7
176
     1
 90
        5
176
     1
 90
        0
176
     1
 90
        0
176
     1
290
     0
176
     1
 90
        1
176
     1
 40
0.0
176
     1
 90
        0
176
     1
290
     0
176
     1
290
     1
176
     1
290
     1
176
     1
290
     0
176
     1
290
     0
176
     1
290
     0
176
     1
290
     0
176
     1
290
     0
176
     1
290
     0
176
     1
 90
       50
176
     1
 40
0.0
176
     1
 40
1.0
176
     1
 90
        0
176
     1
 62
    18
420
        0
176
     1
 90
       50
176
     1
 90
        3
176
     1
 62
     5
420
      255
176
     1
290
     0
176
     1
 90
       50
176
     1
 90
       50
176
     1
 90
       50
176
     1
290
     0
176
     1
 90
       50
176
     1
 62
   256
176
     0
 40
1.0
176
     0
 90
        2
176
     1
  1
strokes_ogs.tif
176
     1
290
     0
176
     1
 40
1.0
176
     1
 40
1.0
176
     1
  0
VISUALSTYLE
  5
10024
102
{ACAD_REACTORS
330
1001D
102
}
330
1001D
100
AcDbVisualStyle
  2
Wireframe
 70
     5
177
     3
291
     0
 70
    58
 90
        0
176
     1
 90
        2
176
     1
 90
        0
176
     1
 90
        0
176
     1
 40
0.6
176
     1
 40
30.0
176
     1
 62
     7
420
 16777215
176
     1
 90
        1
176
     1
 90
        4
176
     1
 62
     7
176
     1
 62
   257
176
     1
 90
        1
176
     1
 90
        1
176
     1
 40
1.0
176
     1
 90
        0
176
     1
 62
   257
176
     1
 40
1.0
176
     1
 90
        1
176
     1
 90
        6
176
     1
 90
        2
176
     1
 62
     7
176
     1
 90
        3
176
     1
 90
        0
176
     1
 90
        0
176
     1
290
     0
176
     1
 90
        1
176
     1
 40
0.0
176
     1
 90
        0
176
     1
290
     0
176
     1
290
     1
176
     1
290
     1
176
     1
290
     0
176
     1
290
     0
176
     1
290
     0
176
     1
290
     0
176
     1
290
     0
176
     1
290
     0
176
     1
 90
       50
176
     1
 40
0.0
176
     1
 40
1.0
176
     1
 90
        0
176
     1
 62
    18
420
        0
176
     1
 90
       50
176
     1
 90
        3
176
     1
 62
     5
420
      255
176
     1
290
     0
176
     1
 90
       50
176
     1
 90
       50
176
     1
 90
       50
176
     1
290
     0
176
     1
 90
       50
176
     1
 62
   256
176
     0
 40
1.0
176
     0
 90
        2
176
     1
  1
strokes_ogs.tif
176
     1
290
     0
176
     1
 40
1.0
176
     1
 40
1.0
176
     1
  0
VISUALSTYLE
  5
10030
102
{ACAD_REACTORS
330
1001D
102
}
330
1001D
100
AcDbVisualStyle
  2
X-Ray
 70
    25
177
     3
291
     0
 70
    58
 90
        2
176
     1
 90
        2
176
     1
 90
        1
176
     1
 90
        1
176
     1
 40
0.5
176
     1
 40
30.0
176
     1
 62
     7
420
 16777215
176
     1
 90
        1
176
     1
 90
        0
176
     1
 62
     7
176
     1
 62
   257
176
     1
 90
        1
176
     1
 90
        1
176
     1
 40
1.0
176
     1
 90
        8
176
     1
 62
     7
176
     1
 40
1.0
176
     1
 90
        1
176
     1
 90
        6
176
     1
 90
        2
176
     1
 62
     7
176
     1
 90
        3
176
     1
 90
        0
176
     1
 90
        0
176
     1
290
     0
176
     1
 90
       13
176
     1
 40
0.0
176
     1
 90
        0
176
     1
290
     0
176
     1
290
     1
176
     1
290
     1
176
     1
290
     0
176
     1
290
     0
176
     1
290
     0
176
     1
290
     0
176
     1
290
     0
176
     1
290
     0
176
     1
 90
       50
176
     1
 40
0.0
176
     1
 40
1.0
176
     1
 90
        0
176
     1
 62
    18
420
        0
176
     1
 90
       50
176
     1
 90
        3
176
     1
 62
     5
420
      255
176
     1
290
     0
176
     1
 90
       50
176
     1
 90
       50
176
     1
 90
       50
176
     1
290
     0
176
     1
 90
       50
176
     1
 62
   256
176
     0
 40
1.0
176
     0
 90
        2
176
     1
  1
strokes_ogs.tif
176
     1
290
     0
176
     1
 40
1.0
176
     1
 40
1.0
176
     1
  0
DICTIONARYVAR
  5
10086
102
{ACAD_REACTORS
330
10080
102
}
330
10080
100
DictionaryVariables
280
     0
  1
1:1
  0
DICTIONARYVAR
  5
10082
102
{ACAD_REACTORS
330
10080
102
}
330
10080
100
DictionaryVariables
280
     0
  1
STANDARD
  0
DICTIONARYVAR
  5
10081
102
{ACAD_REACTORS
330
10080
102
}
330
10080
100
DictionaryVariables
280
     0
  1
STANDARD
  0
DICTIONARYVAR
  5
10083
102
{ACAD_REACTORS
330
10080
102
}
330
10080
100
DictionaryVariables
280
     0
  1
Imperial24
  0
DICTIONARYVAR
  5
10084
102
{ACAD_REACTORS
330
10080
102
}
330
10080
100
DictionaryVariables
280
     0
  1
Imperial24
  0
DICTIONARYVAR
  5
10088
102
{ACAD_REACTORS
330
10080
102
}
330
10080
100
DictionaryVariables
280
     0
  1
1
  0
DICTIONARYVAR
  5
10089
102
{ACAD_REACTORS
330
10080
102
}
330
10080
100
DictionaryVariables
280
     0
  1
15
  0
DICTIONARYVAR
  5
10087
102
{ACAD_REACTORS
330
10080
102
}
330
10080
100
DictionaryVariables
280
     0
  1
0
  0
DICTIONARYVAR
  5
10085
102
{ACAD_REACTORS
330
10080
102
}
330
10080
100
DictionaryVariables
280
     0
  1
0
  0
DICTIONARY
  5
1000E
330
1000D
100
AcDbDictionary
280
     1
281
     1
  3
BUMPTILE
360
10010
  3
DIFFUSETILE
360
1000F
  3
OPACITYTILE
360
10013
  3
REFLECTIONTILE
360
10012
  3
REFRACTIONTILE
360
10014
  3
SPECULARTILE
360
10011
  0
DICTIONARY
  5
10006
330
10005
100
AcDbDictionary
280
     1
281
     1
  3
BUMPTILE
360
10008
  3
DIFFUSETILE
360
10007
  3
OPACITYTILE
360
1000B
  3
REFLECTIONTILE
360
1000A
  3
REFRACTIONTILE
360
1000C
  3
SPECULARTILE
360
10009
  0
DICTIONARY
  5
10016
330
10015
100
AcDbDictionary
280
     1
281
     1
  3
BUMPTILE
360
10018
  3
DIFFUSETILE
360
10017
  3
OPACITYTILE
360
1001B
  3
REFLECTIONTILE
360
1001A
  3
REFRACTIONTILE
360
1001C
  3
SPECULARTILE
360
10019
  0
DICTIONARY
  5
1008A
330
10039
100
AcDbDictionary
280
     1
281
     1
  3
ACAD_ROUNDTRIP_2008_TABLESTYLE_CELLSTYLEMAP
360
1008B
  0
XRECORD
  5
10010
102
{ACAD_REACTORS
330
1000E
102
}
330
1000E
100
AcDbXrecord
280
     1
270
     1
271
     1
  0
XRECORD
  5
1000F
102
{ACAD_REACTORS
330
1000E
102
}
330
1000E
100
AcDbXrecord
280
     1
270
     1
271
     1
  0
XRECORD
  5
10013
102
{ACAD_REACTORS
330
1000E
102
}
330
1000E
100
AcDbXrecord
280
     1
270
     1
271
     1
  0
XRECORD
  5
10012
102
{ACAD_REACTORS
330
1000E
102
}
330
1000E
100
AcDbXrecord
280
     1
270
     1
271
     1
  0
XRECORD
  5
10014
102
{ACAD_REACTORS
330
1000E
102
}
330
1000E
100
AcDbXrecord
280
     1
270
     1
271
     1
  0
XRECORD
  5
10011
102
{ACAD_REACTORS
330
1000E
102
}
330
1000E
100
AcDbXrecord
280
     1
270
     1
271
     1
  0
XRECORD
  5
10008
102
{ACAD_REACTORS
330
10006
102
}
330
10006
100
AcDbXrecord
280
     1
270
     1
271
     1
  0
XRECORD
  5
10007
102
{ACAD_REACTORS
330
10006
102
}
330
10006
100
AcDbXrecord
280
     1
270
     1
271
     1
  0
XRECORD
  5
1000B
102
{ACAD_REACTORS
330
10006
102
}
330
10006
100
AcDbXrecord
280
     1
270
     1
271
     1
  0
XRECORD
  5
1000A
102
{ACAD_REACTORS
330
10006
102
}
330
10006
100
AcDbXrecord
280
     1
270
     1
271
     1
  0
XRECORD
  5
1000C
102
{ACAD_REACTORS
330
10006
102
}
330
10006
100
AcDbXrecord
280
     1
270
     1
271
     1
  0
XRECORD
  5
10009
102
{ACAD_REACTORS
330
10006
102
}
330
10006
100
AcDbXrecord
280
     1
270
     1
271
     1
  0
XRECORD
  5
10018
102
{ACAD_REACTORS
330
10016
102
}
330
10016
100
AcDbXrecord
280
     1
270
     1
271
     1
  0
XRECORD
  5
10017
102
{ACAD_REACTORS
330
10016
102
}
330
10016
100
AcDbXrecord
280
     1
270
     1
271
     1
  0
XRECORD
  5
1001B
102
{ACAD_REACTORS
330
10016
102
}
330
10016
100
AcDbXrecord
280
     1
270
     1
271
     1
  0
XRECORD
  5
1001A
102
{ACAD_REACTORS
330
10016
102
}
330
10016
100
AcDbXrecord
280
     1
270
     1
271
     1
  0
XRECORD
  5
1001C
102
{ACAD_REACTORS
330
10016
102
}
330
10016
100
AcDbXrecord
280
     1
270
     1
271
     1
  0
XRECORD
  5
10019
102
{ACAD_REACTORS
330
10016
102
}
330
10016
100
AcDbXrecord
280
     1
270
     1
271
     1
  0
CELLSTYLEMAP
  5
1008B
102
{ACAD_REACTORS
330
1008A
102
}
330
1008A
100
AcDbCellStyleMap
 90
        3
300
CELLSTYLE
  1
TABLEFORMAT_BEGIN
 90
        5
170
     1
 91
        0
 92
    32768
 62
   257
 93
        1
300
CONTENTFORMAT
  1
CONTENTFORMAT_BEGIN
 90
        0
 91
        0
 92
      512
 93
        0
300

 40
0.0
140
1.0
 94
        5
 62
     0
340
11
144
0.25
309
CONTENTFORMAT_END
171
     0
 94
        0
309
TABLEFORMAT_END
  1
CELLSTYLE_BEGIN
 90
        1
 91
        1
300
_TITLE
309
CELLSTYLE_END
300
CELLSTYLE
  1
TABLEFORMAT_BEGIN
 90
        5
170
     1
 91
        0
 92
        0
 62
   257
 93
        1
300
CONTENTFORMAT
  1
CONTENTFORMAT_BEGIN
 90
        0
 91
        0
 92
      512
 93
        0
300

 40
0.0
140
1.0
 94
        5
 62
     0
340
11
144
0.18
309
CONTENTFORMAT_END
171
     0
 94
        0
309
TABLEFORMAT_END
  1
CELLSTYLE_BEGIN
 90
        2
 91
        1
300
_HEADER
309
CELLSTYLE_END
300
CELLSTYLE
  1
TABLEFORMAT_BEGIN
 90
        5
170
     1
 91
        0
 92
        0
 62
   257
 93
        1
300
CONTENTFORMAT
  1
CONTENTFORMAT_BEGIN
 90
        0
 91
        0
 92
      512
 93
        0
300

 40
0.0
140
1.0
 94
        2
 62
     0
340
11
144
0.18
309
CONTENTFORMAT_END
171
     0
 94
        0
309
TABLEFORMAT_END
  1
CELLSTYLE_BEGIN
 90
        3
 91
        2
300
_DATA
309
CELLSTYLE_END
  0
ENDSEC
  0
EOF
