0
SECTION
2
HEADER
9
$INSUNITS
70
4
9
$ACADVER
1
AC1014
9
$HANDSEED
5
FFFF
0
ENDSEC
0
SECTION
2
TABLES
0
TABLE
2
VPORT
5
8
100
AcDbSymbolTable
0
ENDTAB
0
TABLE
2
LTYPE
5
5
100
AcDbSymbolTable
0
LTYPE
5
14
100
AcDbSymbolTableRecord
100
AcDbLinetypeTableRecord
2
BYBLOCK
70
0
0
LTYPE
5
15
100
AcDbSymbolTableRecord
100
AcDbLinetypeTableRecord
2
BYLAYER
70
0
0
ENDTAB
0
TABLE
2
LAYER
5
2
100
AcDbSymbolTable
70
2
0
LAYER
5
50
100
AcDbSymbolTableRecord
100
AcDbLayerTableRecord
2
0
70
0
6
CONTINUOUS
0
ENDTAB
0
TABLE
2
STYLE
5
3
100
AcDbSymbolTable
70
1
0
STYLE
5
11
100
AcDbSymbolTableRecord
100
AcDbTextStyleTableRecord
2
STANDARD
70
0
0
ENDTAB
0
TABLE
2
VIEW
5
6
100
AcDbSymbolTable
70
0
0
ENDTAB
0
TABLE
2
UCS
5
7
100
AcDbSymbolTable
70
0
0
ENDTAB
0
TABLE
2
APPID
5
9
100
AcDbSymbolTable
70
2
0
APPID
5
12
100
AcDbSymbolTableRecord
100
AcDbRegAppTableRecord
2
ACAD
70
0
0
ENDTAB
0
TABLE
2
DIMSTYLE
5
A
100
AcDbSymbolTable
70
1
0
ENDTAB
0
TABLE
2
BLOCK_RECORD
5
1
100
AcDbSymbolTable
70
1
0
BLOCK_RECORD
5
1F
100
AcDbSymbolTableRecord
100
AcDbBlockTableRecord
2
*MODEL_SPACE
0
BLOCK_RECORD
5
1B
100
AcDbSymbolTableRecord
100
AcDbBlockTableRecord
2
*PAPER_SPACE
0
ENDTAB
0
ENDSEC
0
SECTION
2
BLOCKS
0
BLOCK
5
20
100
AcDbEntity
100
AcDbBlockBegin
2
*MODEL_SPACE
0
ENDBLK
5
21
100
AcDbEntity
100
AcDbBlockEnd
0
BLOCK
5
1C
100
AcDbEntity
100
AcDbBlockBegin
2
*PAPER_SPACE
0
ENDBLK
5
1D
100
AcDbEntity
100
AcDbBlockEnd
0
ENDSEC
0
SECTION
2
ENTITIES
0
LWPOLYLINE
5
100
100
AcDbEntity
8
0
100
AcDbPolyline
90
8
70
1
43
0.0
10
436.00624999999991
20
-29.022764743527361
10
451.38749999999993
20
-29.022764743527375
42
0.41421356237316009
10
451.88749999999999
20
-28.522764743527365
10
451.88749999999999
20
-15.522764743527357
42
0.41421356237290774
10
451.38749999999993
20
-15.022764743527333
10
436.00624999999991
20
-15.022764743527308
42
0.41421356237306639
10
435.50624999999997
20
-15.522764743527373
10
435.50625000000014
20
-28.522764743527411
42
0.41421356237301177
0
LWPOLYLINE
5
101
100
AcDbEntity
8
0
100
AcDbPolyline
90
8
70
1
43
0.0
10
714.11250000000018
20
60.677235256472663
42
-0.41421356237285573
10
714.61250000000018
20
61.177235256472727
10
727.61250000000018
20
61.177235256472564
42
-0.41421356237280366
10
728.11249999999984
20
60.677235256472663
10
728.1125000000003
20
47.67723525647267
42
-0.41421356237307944
10
727.61250000000007
20
47.17723525647272
10
714.61250000000018
20
47.177235256472756
42
-0.41421356237306384
10
714.11250000000018
20
47.67723525647267
0
LWPOLYLINE
5
102
100
AcDbEntity
8
0
100
AcDbPolyline
90
4
70
1
43
0.0
10
578.57499084479991
20
67.983485256472349
42
-0.99999999999999989
10
578.57499084479991
20
64.183485256472338
10
511.22499694830003
20
64.183485256472338
42
-0.99999999999999989
10
511.22499694830003
20
67.983485256472335
0
LWPOLYLINE
5
103
100
AcDbEntity
8
0
100
AcDbPolyline
90
78
70
1
43
0.0
10
426.36137237554976
20
8.0962385524127978
42
-0.4150012691720727
10
427.36137237554999
20
7.0962385523127915
10
427.36137237554999
20
-9.9537644993874288
42
0.41400146486112671
10
428.36137237549002
20
-10.953764499387242
10
613.81137695314931
20
-10.953764499390237
42
0.4150089039877119
10
614.81137695314999
20
-9.9537644993873187
10
614.81137695314999
20
7.0962385523722924
42
-0.41400146486124217
10
615.81137695314987
20
8.0962385523126912
10
623.33637084964994
20
8.0962385523126912
42
0.41500890398668644
10
624.33637084965005
20
9.0962385523099165
10
624.33637084958968
20
26.14623397467259
42
-0.414001464843754
10
625.33637084959014
20
27.146233974672693
10
631.73799976194675
20
27.14623397469202
10
631.7380020499246
20
26.0172363865736
42
0
10
631.7380020499246
20
26.0172363865736
10
631.73800204992472
20
8.0772366869827295
42
0.41421415593783056
10
632.73800407648173
20
7.0772366869841292
10
638.23800133466636
20
7.0772366869820758
42
0.41421356237309503
10
639.23800133466807
20
8.0772366869837242
10
639.23800133466796
20
23.662234519757924
10
640.17600436806958
20
23.662234519757924
10
640.17600266933619
20
10.662235950268908
42
0.41421356237309503
10
641.17600266933607
20
9.662235950268963
10
653.17600266933607
20
9.6622359502689648
42
0.41421356237309503
10
654.17600266933607
20
10.662235950268908
10
654.17600293755697
20
23.662234519757209
10
655.11400266933208
20
23.662234519757209
10
655.11400221661802
20
8.0772367167894608
42
0.41428416707678578
10
656.11424326939061
20
7.0772366869824443
10
661.61400322914278
20
7.0772366869823617
42
0.414213610381303
10
662.61400339305783
20
8.0772366869871366
10
662.61400339305533
20
26.017236386572613
42
0.41421420394710318
10
661.61400322914301
20
27.017238413132652
10
638.62589767874124
20
27.01723841313261
10
638.62436523435269
20
28.146233974709958
10
638.62436523435213
20
42.146233974711926
10
638.62596147871022
20
43.322232793608997
10
664.11924859285352
20
43.322232793608997
42
0.41421474950306497
10
665.11925061941133
20
44.322234820166919
10
665.11925061941133
20
47.177235256472613
10
665.70000000000039
20
47.177235256472628
42
0.41421356237309503
10
666.2000000000005
20
47.677235256472741
10
666.2000000000005
20
60.677235256472528
42
0.41421356237301177
10
665.7000000000005
20
61.177235256472642
10
665.11925061941133
20
61.177235256472642
10
665.11925061941133
20
62.26223451975887
42
0.41421415593780975
10
664.11924859285421
20
63.262234519759524
10
658.619251334669
20
63.262234519759531
42
0.41421356237309503
10
657.6192513346673
20
62.262234519757882
10
657.61925133466775
20
60.677235256472713
10
655.68124999999964
20
60.677235256472713
10
643.68124999999964
20
60.677235256472642
10
641.74325040667668
20
60.677235256472642
10
641.7432504527178
20
62.262234489952142
42
0.41428416707666027
10
640.74300939994555
20
63.262234519759289
10
635.24324944019304
20
63.26223451975924
42
0.41421361038126137
10
634.24324927627811
20
62.262234519754465
10
634.24324927628027
20
61.177235256472606
10
633.6500000000002
20
61.177235256472599
42
0.41421356237309503
10
633.15000000000032
20
60.67723525647267
10
633.15000000000043
20
47.677235256472656
10
633.14999999999964
20
43.146233974677884
10
630.09937133789037
20
43.146233974652766
42
-0.41400146484373579
10
629.09937133789049
20
44.14623397465305
10
629.09937133786241
20
60.907235561651866
42
0.41416732502588371
10
627.82938232418917
20
62.177232204722685
10
404.54937591551368
20
62.177232204642138
42
0.41399922941876888
10
403.54937591551328
20
61.17723983403323
10
403.54937591558996
20
47.17723983405304
42
0.4140014648319601
10
404.54937591554994
20
46.177239834052642
10
412.07437362672647
20
46.177239834112655
42
-0.41499364518119103
10
413.07437362674989
20
45.177239834112754
10
413.07437362674995
20
28.146233974712601
42
0.41400146484941081
10
414.07437362675012
20
27.146233974812581
10
416.83637084960844
20
27.146233974671716
42
-0.4150012691671135
10
417.83637084960907
20
26.146233974671134
10
417.83637084965
20
9.0972380030127127
42
0.41358083964605691
10
418.83737030035007
20
8.0962385524125562
0
LWPOLYLINE
5
104
100
AcDbEntity
8
0
100
AcDbPolyline
90
8
70
1
43
0.0
10
424.10000000000002
20
70.989735256472429
10
437.09999999999991
20
70.9897352564724
42
0.41421356237295975
10
437.60000000000002
20
71.489735256472429
10
437.59999999999997
20
84.489735256472187
42
0.41421356237291812
10
437.09999999999991
20
84.98973525647223
10
424.10000000000002
20
84.989735256472215
42
0.4142135623732095
10
423.59999999999991
20
84.489735256472187
10
423.60000000000014
20
71.489735256472429
42
0.41421356237332396
0
LWPOLYLINE
5
105
100
AcDbEntity
8
0
100
AcDbPolyline
90
8
70
1
43
0.0
10
462.19999999999999
20
70.989735256472358
42
-0.41421356237307422
10
461.70000000000016
20
71.489735256472429
10
461.70000000000005
20
84.489735256472187
42
-0.41421356237293894
10
462.19999999999999
20
84.989735256472358
10
475.20000000000016
20
84.989735256472301
42
-0.41421356237297013
10
475.69999999999993
20
84.489735256472187
10
475.69999999999999
20
71.489735256472429
42
-0.41421356237318868
10
475.20000000000016
20
70.989735256472429
0
LWPOLYLINE
5
106
100
AcDbEntity
8
0
100
AcDbPolyline
90
8
70
1
43
0.0
10
547.92500000000007
20
70.989735256472301
42
-0.41421356237306384
10
547.42500000000007
20
71.489735256472429
10
547.42500000000007
20
84.489735256472187
42
-0.41421356237281409
10
547.92500000000018
20
84.989735256472358
10
560.92500000000007
20
84.989735256472315
42
-0.41421356237310542
10
561.42500000000018
20
84.489735256472187
10
561.42500000000018
20
71.489735256472429
42
-0.41421356237309503
10
560.92499999999995
20
70.989735256472372
0
LWPOLYLINE
5
107
100
AcDbEntity
8
0
100
AcDbPolyline
90
8
70
1
43
0.0
10
456.15000000000003
20
70.9897352564724
10
443.14999999999998
20
70.989735256472301
42
-0.4142135623730222
10
442.64999999999998
20
71.489735256472429
10
442.64999999999998
20
84.489735256472187
42
-0.4142135623730846
10
443.14999999999998
20
84.989735256472301
10
456.15000000000003
20
84.989735256472372
42
-0.41421356237313667
10
456.64999999999998
20
84.489735256472187
10
456.65000000000009
20
71.489735256472429
42
-0.41421356237326673
0
LWPOLYLINE
5
108
100
AcDbEntity
8
0
100
AcDbPolyline
90
8
70
1
43
0.0
10
236.59999999999999
20
61.177235256472656
10
249.60000000000002
20
61.177235256472642
42
-0.41421356237299617
10
250.10000000000002
20
60.677235256472663
10
250.10000000000014
20
47.67723525647267
42
-0.4142135623732095
10
249.60000000000002
20
47.177235256472656
10
236.59999999999999
20
47.177235256472628
42
-0.41421356237315748
10
236.09999999999999
20
47.67723525647267
10
236.09999999999999
20
60.677235256472663
42
-0.41421356237313667
0
LWPOLYLINE
5
109
100
AcDbEntity
8
0
100
AcDbPolyline
90
8
70
1
43
0.0
10
93.724999999999966
20
28.127235256472684
42
-0.41421356237307422
10
93.224999999999923
20
28.627235256472691
10
93.224999999999923
20
41.62723525647263
42
-0.41421356237296497
10
93.724999999999937
20
42.127235256472666
10
106.72499999999999
20
42.127235256472616
42
-0.41421356237310025
10
107.22499999999999
20
41.62723525647263
10
107.22499999999999
20
28.627235256472691
42
-0.41421356237309503
10
106.72499999999999
20
28.127235256472684
0
LWPOLYLINE
5
110
100
AcDbEntity
8
0
100
AcDbPolyline
90
8
70
1
43
0.0
10
73.887499999999903
20
-28.522764743527365
10
73.887499999999903
20
-15.522764743527357
42
0.41421356237307944
10
73.387499999999903
20
-15.022764743527357
10
58.006249999999902
20
-15.022764743527359
42
0.41421356237307944
10
57.506249999999916
20
-15.522764743527375
10
57.506249999999937
20
-28.522764743527389
42
0.4142135623730846
10
58.006249999999909
20
-29.022764743527382
10
73.387499999999918
20
-29.022764743527386
42
0.41421356237308721
0
LWPOLYLINE
5
111
100
AcDbEntity
8
0
100
AcDbPolyline
90
8
70
1
43
0.0
10
207.52500000000003
20
41.62723525647263
42
-0.41421356237307422
10
208.02500000000009
20
42.127235256472638
10
221.02500000000006
20
42.127235256472694
42
-0.4142135623728973
10
221.52500000000003
20
41.62723525647263
10
221.52500000000003
20
28.627235256472652
42
-0.41421356237294676
10
221.02500000000006
20
28.127235256472648
10
208.02500000000009
20
28.127235256472648
42
-0.4142135623732589
10
207.52500000000001
20
28.627235256472652
0
LWPOLYLINE
5
112
100
AcDbEntity
8
0
100
AcDbPolyline
90
8
70
1
43
0.0
10
26.549999999999912
20
60.677235256472684
42
-0.4142135623730378
10
27.04999999999993
20
61.177235256472713
10
40.049999999999912
20
61.177235256472684
42
-0.4142135623730846
10
40.549999999999926
20
60.677235256472684
10
40.549999999999891
20
47.677235256472692
42
-0.41421356237312623
10
40.049999999999898
20
47.177235256472699
10
27.04999999999993
20
47.177235256472699
42
-0.41421356237310542
10
26.549999999999923
20
47.677235256472692
0
LWPOLYLINE
5
113
100
AcDbEntity
8
0
100
AcDbPolyline
90
8
70
1
43
0.0
10
7.4999999999999334
20
47.677235256472692
10
7.499999999999921
20
60.677235256472684
42
-0.41421356237303453
10
7.9999999999999316
20
61.177235256472713
10
20.999999999999908
20
61.177235256472642
42
-0.41421356237310542
10
21.499999999999915
20
60.677235256472684
10
21.499999999999915
20
47.677235256472692
42
-0.41421356237309503
10
20.999999999999908
20
47.177235256472699
10
7.9999999999999316
20
47.177235256472699
42
-0.4142135623731113
0
LWPOLYLINE
5
114
100
AcDbEntity
8
0
100
AcDbPolyline
90
8
70
1
43
0.0
10
84.199999999999932
20
84.989735256472301
10
97.199999999999974
20
84.989735256472301
42
-0.41421356237316787
10
97.69999999999996
20
84.489735256472187
10
97.69999999999996
20
71.489735256472429
42
-0.41421356237302737
10
97.200000000000003
20
70.9897352564724
10
84.199999999999932
20
70.989735256472315
42
-0.41421356237311585
10
83.699999999999889
20
71.489735256472429
10
83.699999999999889
20
84.489735256472187
42
-0.4142135623730534
0
LWPOLYLINE
5
115
100
AcDbEntity
8
0
100
AcDbPolyline
90
8
70
1
43
0.0
10
509.82500000000016
20
84.989735256472301
10
522.82500000000005
20
84.989735256472315
42
-0.41421356237323032
10
523.32500000000005
20
84.489735256472187
10
523.32500000000016
20
71.489735256472429
42
-0.41421356237312101
10
522.82500000000005
20
70.989735256472429
10
509.82500000000016
20
70.989735256472258
42
-0.41421356237304818
10
509.32500000000016
20
71.489735256472429
10
509.3250000000001
20
84.489735256472187
42
-0.41421356237321988
0
ARC
5
116
100
AcDbEntity
8
0
100
AcDbCircle
10
671.1082286861996
20
-27.12275181950368
30
0
40
1.900000000000063
210
0
220
0
230
1
100
AcDbArc
50
180.00001722423531
51
270.00001728403032
0
LWPOLYLINE
5
117
100
AcDbEntity
8
0
100
AcDbPolyline
90
8
70
1
43
0.0
10
646.6500000000002
20
84.989735256472187
42
-0.41421356237328233
10
647.1500000000002
20
84.489735256472187
10
647.1500000000002
20
71.489735256472429
42
-0.41421356237291812
10
646.6500000000002
20
70.989735256472429
10
633.6500000000002
20
70.989735256472343
42
-0.4142135623730378
10
633.15000000000043
20
71.489735256472429
10
633.15000000000043
20
84.489735256472187
42
-0.41421356237319906
10
633.6500000000002
20
84.989735256472301
0
LWPOLYLINE
5
118
100
AcDbEntity
8
0
100
AcDbPolyline
90
8
70
1
43
0.0
10
78.649999999999935
20
60.677235256472684
42
0.41421356237313145
10
78.14999999999992
20
61.17723525647277
10
65.14999999999992
20
61.177235256472642
42
0.41421356237311063
10
64.64999999999992
20
60.677235256472684
10
64.64999999999992
20
47.67723525647267
42
0.41421356237311063
10
65.14999999999992
20
47.177235256472699
10
78.14999999999992
20
47.177235256472699
42
0.414213562373069
10
78.649999999999935
20
47.67723525647267
0
LWPOLYLINE
5
119
100
AcDbEntity
8
0
100
AcDbPolyline
90
8
70
1
43
0.0
10
312.0125000000001
20
60.677235256472663
10
312.0125000000001
20
47.67723525647267
42
-0.41421356237293372
10
311.5125000000001
20
47.177235256472613
10
298.51249999999999
20
47.177235256472649
42
-0.41421356237295975
10
298.0125000000001
20
47.67723525647267
10
298.0125000000001
20
60.677235256472663
42
-0.41421356237309503
10
298.51249999999999
20
61.177235256472642
10
311.51249999999999
20
61.177235256472585
42
-0.41421356237311063
0
LWPOLYLINE
5
120
100
AcDbEntity
8
0
100
AcDbPolyline
90
8
70
1
43
0.0
10
141.35000000000005
20
61.177235256472713
10
154.34999999999999
20
61.177235256472642
42
-0.41421356237309503
10
154.84999999999991
20
60.677235256472684
10
154.84999999999999
20
47.67723525647267
42
-0.41421356237312623
10
154.34999999999999
20
47.177235256472699
10
141.35000000000005
20
47.177235256472656
42
-0.41421356237304818
10
140.85000000000005
20
47.67723525647267
10
140.85000000000014
20
60.677235256472684
42
-0.41421356237305862
0
ARC
5
121
100
AcDbEntity
8
0
100
AcDbCircle
10
293.10820007329983
20
-27.122751819727675
30
0
40
1.9000000000001436
210
0
220
0
230
1
100
AcDbArc
50
-89.999119874701549
51
0
0
LWPOLYLINE
5
122
100
AcDbEntity
8
0
100
AcDbPolyline
90
8
70
1
43
0.0
10
298.0125000000001
20
41.627235256472602
42
-0.41421356237310025
10
298.51249999999999
20
42.127235256472602
10
311.5125000000001
20
42.12723525647263
42
-0.41421356237298057
10
312.0125000000001
20
41.627235256472602
10
312.0125000000001
20
28.627235256472652
42
-0.41421356237302998
10
311.51249999999999
20
28.127235256472613
10
298.51249999999999
20
28.127235256472627
42
-0.41421356237314705
10
298.01249999999999
20
28.627235256472652
0
LWPOLYLINE
5
123
100
AcDbEntity
8
0
100
AcDbPolyline
90
8
70
1
43
0.0
10
116.75
20
71.489735256472429
10
116.75
20
84.489735256472187
42
0.4142135623730846
10
116.25
20
84.989735256472215
10
103.25000000000001
20
84.989735256472215
42
0.41421356237304302
10
102.75
20
84.489735256472187
10
102.75000000000009
20
71.489735256472429
42
0.41421356237313145
10
103.25000000000004
20
70.9897352564724
10
116.25
20
70.9897352564724
42
0.4142135623730846
0
LWPOLYLINE
5
124
100
AcDbEntity
8
0
100
AcDbPolyline
90
8
70
1
43
0.0
10
59.599999999999945
20
84.489735256472187
42
0.41421356237299617
10
59.09999999999993
20
84.989735256472187
10
46.099999999999923
20
84.98973525647223
42
0.41421356237311063
10
45.599999999999895
20
84.489735256472187
10
45.599999999999923
20
71.489735256472429
42
0.41421356237313667
10
46.099999999999923
20
70.989735256472429
10
59.09999999999993
20
70.989735256472429
42
0.4142135623730378
10
59.599999999999937
20
71.489735256472429
0
LWPOLYLINE
5
125
100
AcDbEntity
8
0
100
AcDbPolyline
90
8
70
1
43
0.0
10
102.75000000000006
20
47.67723525647267
10
102.75000000000006
20
60.677235256472684
42
-0.41421356237309503
10
103.25000000000004
20
61.177235256472642
10
116.25
20
61.177235256472642
42
-0.41421356237312623
10
116.75
20
60.677235256472684
10
116.75
20
47.67723525647267
42
-0.41421356237310542
10
116.25
20
47.177235256472684
10
103.25000000000001
20
47.177235256472663
42
-0.41421356237306384
0
LWPOLYLINE
5
126
100
AcDbEntity
8
0
100
AcDbPolyline
90
8
70
1
43
0.0
10
69.124999999999943
20
28.627235256472691
42
-0.41421356237308721
10
68.624999999999901
20
28.127235256472684
10
55.624999999999943
20
28.127235256472673
42
-0.41421356237307683
10
55.124999999999922
20
28.627235256472691
10
55.124999999999922
20
41.627235256472652
42
-0.41421356237308982
10
55.624999999999936
20
42.127235256472659
10
68.624999999999901
20
42.12723525647263
42
-0.41421356237306384
10
69.124999999999929
20
41.62723525647263
0
LWPOLYLINE
5
127
100
AcDbEntity
8
0
100
AcDbPolyline
90
8
70
1
43
0.0
10
45.599999999999923
20
60.677235256472684
42
-0.4142135623730378
10
46.099999999999923
20
61.177235256472713
10
59.09999999999993
20
61.177235256472649
42
-0.41421356237307944
10
59.599999999999937
20
60.677235256472684
10
59.599999999999902
20
47.67723525647267
42
-0.414213562373069
10
59.099999999999895
20
47.17723525647267
10
46.099999999999923
20
47.177235256472699
42
-0.41421356237314183
10
45.599999999999923
20
47.677235256472692
0
LWPOLYLINE
5
128
100
AcDbEntity
8
0
100
AcDbPolyline
90
8
70
1
43
0.0
10
28.643749999999912
20
22.577235256472722
10
28.643749999999923
20
9.5772352564726475
42
-0.41421356237307749
10
28.143749999999912
20
9.0772352564726404
10
10.381249999999916
20
9.0772352564726475
42
-0.41421356237308266
10
9.8812499999999091
20
9.5772352564726493
10
9.8812499999999392
20
22.577235256472733
42
-0.41421356237308721
10
10.381249999999905
20
23.077235256472616
10
28.143749999999912
20
23.077235256472711
42
-0.4142135623730846
0
LWPOLYLINE
5
129
100
AcDbEntity
8
0
100
AcDbPolyline
90
8
70
1
43
0.0
10
150.875
20
70.989735256472315
42
-0.41421356237306384
10
150.375
20
71.489735256472429
10
150.37500000000003
20
84.489735256472187
42
-0.41421356237319906
10
150.875
20
84.989735256472301
10
163.87500000000003
20
84.989735256472315
42
-0.41421356237310542
10
164.375
20
84.489735256472187
10
164.375
20
71.489735256472429
42
-0.4142135623731783
10
163.875
20
70.989735256472358
0
LWPOLYLINE
5
130
100
AcDbEntity
8
0
100
AcDbPolyline
90
8
70
1
43
0.0
10
240.07499999999999
20
42.127235256472638
42
-0.41421356237297013
10
240.57500000000002
20
41.62723525647263
10
240.57500000000002
20
28.627235256472652
42
-0.41421356237282708
10
240.07499999999999
20
28.127235256472613
10
227.0750000000001
20
28.127235256472627
42
-0.41421356237325113
10
226.57499999999999
20
28.627235256472652
10
226.57499999999999
20
41.62723525647263
42
-0.41421356237312623
10
227.0750000000001
20
42.127235256472602
0
LWPOLYLINE
5
131
100
AcDbEntity
8
0
100
AcDbPolyline
90
8
70
1
43
0.0
10
36.574999999999903
20
28.127235256472684
42
-0.41421356237307422
10
36.074999999999903
20
28.627235256472691
10
36.074999999999903
20
41.627235256472659
42
-0.41421356237306639
10
36.574999999999903
20
42.127235256472659
10
49.574999999999896
20
42.127235256472638
42
-0.41421356237311063
10
50.074999999999896
20
41.627235256472652
10
50.074999999999932
20
28.627235256472691
42
-0.41421356237313406
10
49.574999999999896
20
28.12723525647268
0
LWPOLYLINE
5
132
100
AcDbEntity
8
0
100
AcDbPolyline
90
8
70
1
43
0.0
10
238.19375000000002
20
-28.5227647435274
42
-0.41421356237323809
10
237.69374999999999
20
-29.022764743527425
10
222.31250000000003
20
-29.022764743527386
42
-0.41421356237299878
10
221.81250000000009
20
-28.5227647435274
10
221.81250000000009
20
-15.522764743527384
42
-0.41421356237302998
10
222.31250000000003
20
-15.022764743527288
10
237.69374999999999
20
-15.022764743527402
42
-0.41421356237291423
10
238.19375000000008
20
-15.522764743527384
0
ARC
5
133
100
AcDbEntity
8
0
100
AcDbCircle
10
-436.00625000000008
20
-15.522764743527429
30
0
40
0.50000000000004263
210
0
220
0
230
-1
100
AcDbArc
50
0
51
89.99999999998046
0
LINE
5
134
100
AcDbEntity
8
0
100
AcDbLine
10
436.00624999999991
20
-15.022764743527359
30
0
11
451.38749999999993
21
-15.022764743527333
31
0
0
LWPOLYLINE
5
135
100
AcDbEntity
8
0
100
AcDbPolyline
90
8
70
1
43
0.0
10
98.487499999999883
20
9.0772352564726049
42
-0.41421356237308071
10
97.987499999999926
20
9.5772352564726404
10
97.987499999999983
20
22.577235256472683
42
-0.41421356237312884
10
98.487499999999883
20
23.077235256472612
10
111.4875
20
23.077235256472711
42
-0.41421356237310542
10
111.98750000000001
20
22.577235256472722
10
111.98750000000001
20
9.5772352564726404
42
-0.41421356237310608
10
111.4875
20
9.0772352564726475
0
LWPOLYLINE
5
136
100
AcDbEntity
8
0
100
AcDbPolyline
90
8
70
1
43
0.0
10
221.81250000000009
20
3.5272352564726455
42
-0.4142135623730524
10
222.31250000000003
20
4.0272352564727072
10
235.3125
20
4.0272352564726566
42
-0.41421356237288887
10
235.8125
20
3.5272352564726459
10
235.8125
20
-9.4727647435273958
42
-0.41421356237274515
10
235.3125
20
-9.9727647435274545
10
222.31250000000003
20
-9.9727647435274651
42
-0.41421356237304818
10
221.81250000000009
20
-9.4727647435273976
0
LINE
5
137
100
AcDbEntity
8
0
100
AcDbLine
10
451.88749999999999
20
-15.522764743527357
30
0
11
451.88749999999999
21
-28.522764743527365
31
0
0
LINE
5
138
100
AcDbEntity
8
0
100
AcDbLine
10
451.38749999999993
20
-29.022764743527389
30
0
11
436.00624999999991
21
-29.022764743527361
31
0
0
LWPOLYLINE
5
139
100
AcDbEntity
8
0
100
AcDbPolyline
90
8
70
1
43
0.0
10
188.47499999999999
20
71.489735256472429
10
188.47500000000002
20
84.489735256472187
42
-0.41421356237293894
10
188.97500000000002
20
84.989735256472272
10
201.97500000000002
20
84.989735256472301
42
-0.41421356237311585
10
202.47500000000002
20
84.489735256472187
10
202.47500000000002
20
71.489735256472429
42
-0.4142135623731783
10
201.97500000000002
20
70.989735256472358
10
188.97500000000002
20
70.989735256472301
42
-0.41421356237291296
0
LWPOLYLINE
5
140
100
AcDbEntity
8
0
100
AcDbPolyline
90
8
70
1
43
0.0
10
336.61250000000001
20
47.177235256472692
42
-0.41421356237305862
10
336.11250000000013
20
47.67723525647267
10
336.11250000000013
20
60.677235256472663
42
-0.41421356237294416
10
336.61250000000001
20
61.177235256472727
10
349.61250000000007
20
61.177235256472542
42
-0.41421356237316787
10
350.11249999999984
20
60.677235256472663
10
350.11250000000013
20
47.67723525647267
42
-0.4142135623731939
10
349.61250000000001
20
47.17723525647267
0
LWPOLYLINE
5
141
100
AcDbEntity
8
0
100
AcDbPolyline
90
8
70
1
43
0.0
10
188.1875
20
22.577235256472683
10
188.18749999999997
20
9.5772352564726404
42
-0.41421356237323226
10
187.6875
20
9.0772352564726404
10
174.6875
20
9.0772352564726209
42
-0.41421356237314383
10
174.1875
20
9.5772352564726404
10
174.18749999999989
20
22.577235256472683
42
-0.41421356237320167
10
174.6875
20
23.077235256472697
10
187.6875
20
23.07723525647274
42
-0.41421356237320689
0
LWPOLYLINE
5
142
100
AcDbEntity
8
0
100
AcDbPolyline
90
8
70
1
43
0.0
10
245.625
20
41.62723525647263
42
-0.41421356237320428
10
246.12500000000011
20
42.127235256472638
10
259.125
20
42.127235256472638
42
-0.41421356237297013
10
259.625
20
41.62723525647263
10
259.625
20
28.627235256472652
42
-0.41421356237282708
10
259.125
20
28.127235256472613
10
246.12500000000011
20
28.127235256472623
42
-0.41421356237321211
10
245.625
20
28.627235256472652
0
LWPOLYLINE
5
143
100
AcDbEntity
8
0
100
AcDbPolyline
90
8
70
1
43
0.0
10
122.30000000000001
20
61.177235256472642
10
135.30000000000001
20
61.177235256472706
42
-0.41421356237312101
10
135.80000000000001
20
60.677235256472684
10
135.80000000000001
20
47.67723525647267
42
-0.41421356237310542
10
135.30000000000001
20
47.177235256472684
10
122.30000000000001
20
47.177235256472699
42
-0.41421356237311585
10
121.8
20
47.67723525647267
10
121.8
20
60.677235256472684
42
-0.41421356237314183
0
ARC
5
144
100
AcDbEntity
8
0
100
AcDbCircle
10
-451.38749999999987
20
-15.522764743527535
30
0
40
0.5000000000002025
210
0
220
0
230
-1
100
AcDbArc
50
90.000000000006523
51
180
0
LWPOLYLINE
5
145
100
AcDbEntity
8
0
100
AcDbPolyline
90
8
70
1
43
0.0
10
126.27500000000001
20
41.62723525647263
10
126.27500000000001
20
28.627235256472691
42
-0.41421356237311324
10
125.77500000000001
20
28.127235256472648
10
112.77500000000003
20
28.12723525647268
42
-0.41421356237308721
10
112.27500000000001
20
28.627235256472691
10
112.27499999999999
20
41.62723525647263
42
-0.414213562373069
10
112.77500000000003
20
42.127235256472623
10
125.77500000000001
20
42.127235256472616
42
-0.41421356237310025
0
LWPOLYLINE
5
146
100
AcDbEntity
8
0
100
AcDbPolyline
90
8
70
1
43
0.0
10
160.40000000000003
20
61.177235256472713
10
173.39999999999998
20
61.177235256472699
42
-0.41421356237290774
10
173.90000000000001
20
60.677235256472684
10
173.90000000000001
20
47.67723525647267
42
-0.41421356237323553
10
173.40000000000003
20
47.177235256472684
10
160.39999999999995
20
47.177235256472656
42
-0.41421356237302737
10
159.90000000000003
20
47.67723525647267
10
159.90000000000003
20
60.677235256472684
42
-0.41421356237315748
0
LWPOLYLINE
5
147
100
AcDbEntity
8
0
100
AcDbPolyline
90
8
70
1
43
0.0
10
21.499999999999893
20
84.489735256472187
10
21.499999999999908
20
71.489735256472429
42
-0.41421356237308982
10
20.999999999999908
20
70.9897352564724
10
7.9999999999999316
20
70.989735256472315
42
-0.4142135623730534
10
7.4999999999999423
20
71.489735256472429
10
7.4999999999999165
20
84.489735256472187
42
-0.41421356237306056
10
7.9999999999999361
20
84.989735256472301
10
20.999999999999922
20
84.989735256472301
42
-0.41421356237317308
0
CIRCLE
5
148
100
AcDbEntity
8
0
100
AcDbCircle
10
332.80625000000043
20
-187.66026474352759
30
0
40
1.0999999999999943
210
0
220
0
230
1
0
LWPOLYLINE
5
149
100
AcDbEntity
8
0
100
AcDbPolyline
90
28
70
1
43
0.0
10
257.24324944019264
20
43.322232793608954
10
286.11924859285324
20
43.32223279360899
42
0.4142147495030884
10
287.11925061941122
20
44.322234820166919
10
287.11925061941122
20
47.177235256472613
10
287.69999999999993
20
47.177235256472649
42
0.4142135623730534
10
288.2000000000001
20
47.677235256472656
10
288.2000000000001
20
60.677235256472606
42
0.41421356237298579
10
287.70000000000027
20
61.177235256472642
10
287.11925061941122
20
61.177235256472642
10
287.11925061941122
20
62.26223451975887
42
0.41421415593781236
10
286.11924859285409
20
63.262234519757612
10
280.61925133466872
20
63.262234519759531
42
0.41421356237309503
10
279.61925133466707
20
62.262234519757882
10
279.61925133466764
20
60.677235256472713
10
277.68124999999952
20
60.677235256472713
10
265.68124999999952
20
60.677235256472642
10
263.74325040667657
20
60.677235256472642
10
263.7432504527178
20
62.262234489952142
42
0.41428416707672011
10
262.74300939994532
20
63.262234519759289
10
257.24324944019293
20
63.26223451975924
42
0.41421361038122495
10
256.24324927627805
20
62.262234519754465
10
256.24324927628004
20
61.177235256472606
10
255.64999999999998
20
61.177235256472599
42
0.41421356237314705
10
255.15000000000009
20
60.677235256472606
10
255.15000000000001
20
47.677235256472613
42
0.41421356237311585
10
255.65000000000001
20
47.177235256472649
10
256.24324927628015
20
47.177235256472649
10
256.24324927628015
20
44.322234820166919
42
0.41421420394653735
0
CIRCLE
5
150
100
AcDbEntity
8
0
100
AcDbCircle
10
332.80625000000043
20
-137.66026474352748
30
0
40
1.0999999999999943
210
0
220
0
230
1
0
CIRCLE
5
151
100
AcDbEntity
8
0
100
AcDbCircle
10
-1.1937499999997225
20
-137.66026474352748
30
0
40
1.1000000000000023
210
0
220
0
230
1
0
LWPOLYLINE
5
152
100
AcDbEntity
8
0
100
AcDbPolyline
90
8
70
1
43
0.0
10
78.64999999999992
20
84.489735256472187
10
78.649999999999949
20
71.489735256472429
42
-0.41421356237307422
10
78.14999999999992
20
70.9897352564724
10
65.14999999999992
20
70.989735256472301
42
-0.41421356237300661
10
64.649999999999935
20
71.489735256472429
10
64.649999999999949
20
84.489735256472187
42
-0.41421356237316265
10
65.14999999999992
20
84.989735256472301
10
78.14999999999992
20
84.989735256472301
42
-0.41421356237307422
0
CIRCLE
5
153
100
AcDbEntity
8
0
100
AcDbCircle
10
-1.1937499999997225
20
-187.66026474352759
30
0
40
1.1000000000000023
210
0
220
0
230
1
0
LWPOLYLINE
5
154
100
AcDbEntity
8
0
100
AcDbPolyline
90
11
70
1
43
0.0
10
285.51249102580039
20
-102.01026434055409
10
-7.5000089741997709
20
-102.01026434055393
42
0.41421356237309515
10
-17.500008974199758
20
-112.01026434055392
10
-17.500008974199762
20
-127.010264340554
10
-17.500008974199762
20
-242.02276434055366
42
0.41421356237309503
10
-7.5000089741997256
20
-252.02276434055369
10
5.0718660258002757
20
-252.02276434055369
10
339.11249102580052
20
-252.02276434055369
42
0.41421356237309503
10
349.11249102580052
20
-242.02276434055369
10
349.11249102580052
20
-112.01026434055414
42
0.41421356237309503
10
339.11249102580035
20
-102.010264340554
0
LWPOLYLINE
5
155
100
AcDbEntity
8
0
100
AcDbPolyline
90
8
70
1
43
0.0
10
714.61250000000018
20
-15.022764743527475
10
727.61250000000007
20
-15.02276474352735
42
-0.41421356237347873
10
728.1125000000003
20
-15.522764743527409
10
728.1125000000003
20
-28.522764743527414
42
-0.41421356237307683
10
727.61250000000007
20
-29.022764743527372
10
714.61250000000018
20
-29.022764743527347
42
-0.41421356237307161
10
714.11250000000018
20
-28.522764743527414
10
714.11250000000018
20
-15.522764743527409
42
-0.41421356237323159
0
LWPOLYLINE
5
156
100
AcDbEntity
8
0
100
AcDbPolyline
90
8
70
1
43
0.0
10
689.51250000000016
20
47.177235256472578
10
676.51250000000016
20
47.177235256472642
42
-0.41421356237304818
10
676.01250000000039
20
47.67723525647267
10
676.01250000000039
20
60.677235256472663
42
-0.41421356237271523
10
676.51250000000016
20
61.177235256472642
10
689.51250000000016
20
61.177235256472585
42
-0.41421356237340201
10
690.01250000000016
20
60.677235256472663
10
690.01250000000016
20
47.67723525647267
42
-0.4142135623731783
0
LWPOLYLINE
5
157
100
AcDbEntity
8
0
100
AcDbPolyline
90
8
70
1
43
0.0
10
695.06250000000011
20
41.627235256472602
42
-0.41421356237279844
10
695.5625
20
42.12723525647263
10
708.5625
20
42.127235256472488
42
-0.41421356237328755
10
709.06250000000011
20
41.627235256472616
10
709.06250000000011
20
28.627235256472652
42
-0.41421356237342022
10
708.56249999999989
20
28.127235256472733
10
695.5625
20
28.127235256472613
42
-0.41421356237280105
10
695.06250000000011
20
28.627235256472652
0
LWPOLYLINE
5
158
100
AcDbEntity
8
0
100
AcDbPolyline
90
8
70
1
43
0.0
10
695.06250000000011
20
-28.522764743527414
10
695.06250000000011
20
-15.522764743527409
42
-0.4142135623728167
10
695.5625
20
-15.022764743527331
10
708.5625
20
-15.022764743527507
42
-0.41421356237322121
10
709.0625
20
-15.522764743527409
10
709.06250000000023
20
-28.522764743527414
42
-0.4142135623733838
10
708.5625
20
-29.022764743527301
10
695.5625
20
-29.022764743527539
42
-0.41421356237318607
0
LWPOLYLINE
5
159
100
AcDbEntity
8
0
100
AcDbPolyline
90
8
70
1
43
0.0
10
709.0625
20
3.5272352564726317
10
709.06250000000023
20
-9.47276474352741
42
-0.41421356237338053
10
708.5625
20
-9.9727647435272875
10
695.5625
20
-9.9727647435274243
42
-0.4142135623732856
10
695.06250000000011
20
-9.47276474352741
10
695.06250000000011
20
3.5272352564726321
42
-0.41421356237303875
10
695.5625
20
4.0272352564725615
10
708.5625
20
4.0272352564725367
42
-0.41421356237322249
0
LWPOLYLINE
5
160
100
AcDbEntity
8
0
100
AcDbPolyline
90
8
70
1
43
0.0
10
714.11250000000018
20
28.627235256472652
10
714.11250000000018
20
41.627235256472602
42
-0.41421356237382861
10
714.61250000000041
20
42.127235256472495
10
727.61250000000007
20
42.127235256472403
42
-0.41421356237312101
10
728.1125000000003
20
41.627235256472666
10
728.1125000000003
20
28.627235256472652
42
-0.41421356237320689
10
727.61249999999995
20
28.12723525647263
10
714.61250000000018
20
28.127235256472861
42
-0.41421356237315488
0
LWPOLYLINE
5
161
100
AcDbEntity
8
0
100
AcDbPolyline
90
8
70
1
43
0.0
10
624.12500000000011
20
-29.022764743527432
10
639.50625000000014
20
-29.022764743527492
42
0.41421356237285828
10
640.00625000000014
20
-28.522764743527354
10
640.00625000000002
20
-15.522764743527384
42
0.41421356237304818
10
639.50625000000014
20
-15.022764743527466
10
624.12500000000011
20
-15.022764743527366
42
0.41421356237320561
10
623.625
20
-15.522764743527384
10
623.625
20
-28.522764743527414
42
0.41421356237320428
0
LWPOLYLINE
5
162
100
AcDbEntity
8
0
100
AcDbPolyline
90
8
70
1
43
0.0
10
615.69375000000014
20
-29.022764743527372
10
600.31250000000011
20
-29.022764743527333
42
-0.41421356237299356
10
599.81250000000023
20
-28.522764743527389
10
599.81250000000023
20
-15.522764743527384
42
-0.41421356237307294
10
600.31250000000011
20
-15.022764743527306
10
615.69375000000014
20
-15.022764743527359
42
-0.41421356237283491
10
616.19375000000014
20
-15.522764743527384
10
616.19375000000014
20
-28.5227647435274
42
-0.41421356237344364
0
LWPOLYLINE
5
163
100
AcDbEntity
8
0
100
AcDbPolyline
90
8
70
1
43
0.0
10
714.61250000000018
20
70.989735256472386
10
727.6125000000003
20
70.989735256472372
42
0.41421356237298057
10
728.1125000000003
20
71.489735256472429
10
728.11249999999984
20
84.489735256472102
42
0.41421356237343843
10
727.61249999999995
20
84.989735256472073
10
714.61250000000018
20
84.98973525647196
42
0.41421356237353207
10
714.11249999999995
20
84.489735256472102
10
714.11250000000018
20
71.489735256472429
42
0.41421356237297013
0
LWPOLYLINE
5
164
100
AcDbEntity
8
0
100
AcDbPolyline
90
8
70
1
43
0.0
10
285.31875000000002
20
-29.022764743527432
10
269.9375
20
-29.022764743527425
42
-0.41421356237311063
10
269.4375
20
-28.522764743527389
10
269.4375
20
-15.522764743527384
42
-0.41421356237322249
10
269.9375
20
-15.022764743527382
10
285.31875000000002
20
-15.022764743527379
42
-0.41421356237310802
10
285.81875000000002
20
-15.522764743527409
10
285.81875000000002
20
-28.522764743527414
42
-0.41421356237323292
0
LWPOLYLINE
5
165
100
AcDbEntity
8
0
100
AcDbPolyline
90
4
70
1
43
0.0
10
677.91252746589976
20
64.183485256472338
42
-0.99999999999999989
10
677.91252746589976
20
67.983485256472335
10
726.21250305180001
20
67.983485256472349
42
-0.99999999999999989
10
726.21250305180001
20
64.183485256472338
0
LWPOLYLINE
5
166
100
AcDbEntity
8
0
100
AcDbPolyline
90
8
70
1
43
0.0
10
88.962499999999963
20
4.0272352564726539
10
101.96250000000005
20
4.0272352564726646
42
-0.4142135623730453
10
102.46250000000003
20
3.5272352564726539
10
102.46250000000003
20
-9.4727647435273923
42
-0.41421356237298057
10
101.96250000000001
20
-9.97276474352741
10
88.962499999999963
20
-9.9727647435273958
42
-0.41421356237306123
10
88.46249999999992
20
-9.4727647435273745
10
88.462499999999963
20
3.5272352564726539
42
-0.41421356237300722
0
LWPOLYLINE
5
167
100
AcDbEntity
8
0
100
AcDbPolyline
90
8
70
1
43
0.0
10
695.5625
20
84.98973525647223
10
708.56250000000023
20
84.989735256472173
42
-0.41421356237307422
10
709.0625
20
84.489735256472102
10
709.06250000000023
20
71.489735256472429
42
-0.41421356237327195
10
708.5625
20
70.989735256472457
10
695.5625
20
70.989735256472287
42
-0.41421356237269441
10
695.06250000000011
20
71.489735256472429
10
695.06250000000011
20
84.489735256472102
42
-0.41421356237282447
0
LWPOLYLINE
5
168
100
AcDbEntity
8
0
100
AcDbPolyline
90
8
70
1
43
0.0
10
230.55000000000007
20
70.9897352564724
10
217.55000000000001
20
70.989735256472329
42
-0.41421356237290252
10
217.0500000000001
20
71.489735256472429
10
217.04999999999998
20
84.489735256472187
42
-0.41421356237306384
10
217.55000000000001
20
84.989735256472301
10
230.55000000000007
20
84.989735256472315
42
-0.41421356237312623
10
231.05000000000015
20
84.489735256472187
10
231.05000000000004
20
71.489735256472429
42
-0.41421356237288692
0
LWPOLYLINE
5
169
100
AcDbEntity
8
0
100
AcDbPolyline
90
8
70
1
43
0.0
10
331.06250000000011
20
-28.522764743527414
42
-0.41421356237320428
10
330.5625
20
-29.022764743527443
10
317.5625
20
-29.022764743527407
42
-0.414213562373004
10
317.06250000000006
20
-28.522764743527414
10
317.0625
20
-15.522764743527409
42
-0.4142135623728726
10
317.5625
20
-15.022764743527359
10
330.5625
20
-15.022764743527542
42
-0.41421356237328361
10
331.06250000000011
20
-15.522764743527409
0
LWPOLYLINE
5
170
100
AcDbEntity
8
0
100
AcDbPolyline
90
8
70
1
43
0.0
10
25.76249999999991
20
42.127235256472659
42
-0.41421356237306123
10
26.262499999999932
20
41.627235256472652
10
26.2624999999999
20
28.627235256472691
42
-0.41421356237310802
10
25.76249999999991
20
28.12723525647268
10
12.76249999999991
20
28.12723525647268
42
-0.41421356237310802
10
12.262499999999914
20
28.627235256472691
10
12.26249999999991
20
41.627235256472652
42
-0.41421356237307294
10
12.762499999999914
20
42.127235256472659
0
LWPOLYLINE
5
171
100
AcDbEntity
8
0
100
AcDbPolyline
90
8
70
1
43
0.0
10
331.0625
20
28.627235256472652
42
-0.41421356237320167
10
330.56249999999989
20
28.127235256472645
10
317.5625
20
28.127235256472627
42
-0.41421356237314705
10
317.0625
20
28.627235256472652
10
317.06250000000006
20
41.627235256472602
42
-0.41421356237297013
10
317.5625
20
42.127235256472602
10
330.56249999999989
20
42.127235256472602
42
-0.41421356237306384
10
331.06250000000011
20
41.627235256472616
0
LWPOLYLINE
5
172
100
AcDbEntity
8
0
100
AcDbPolyline
90
8
70
1
43
0.0
10
145.32499999999999
20
84.489735256472187
10
145.32499999999996
20
71.489735256472429
42
-0.41421356237307422
10
144.8249999999999
20
70.9897352564724
10
131.82499999999999
20
70.989735256472315
42
-0.41421356237306384
10
131.32499999999999
20
71.489735256472429
10
131.32500000000002
20
84.489735256472187
42
-0.41421356237319906
10
131.82499999999999
20
84.989735256472301
10
144.8249999999999
20
84.989735256472301
42
-0.41421356237315748
0
LWPOLYLINE
5
173
100
AcDbEntity
8
0
100
AcDbPolyline
90
8
70
1
43
0.0
10
192.95000000000002
20
60.677235256472663
10
192.94999999999999
20
47.67723525647267
42
-0.41421356237305862
10
192.45000000000005
20
47.177235256472649
10
179.44999999999999
20
47.177235256472763
42
-0.41421356237320428
10
178.94999999999999
20
47.67723525647267
10
178.95000000000007
20
60.677235256472663
42
-0.41421356237303258
10
179.44999999999999
20
61.177235256472642
10
192.45000000000002
20
61.177235256472642
42
-0.41421356237316265
0
LWPOLYLINE
5
174
100
AcDbEntity
8
0
100
AcDbPolyline
90
8
70
1
43
0.0
10
127.0625
20
-9.9727647435273976
42
-0.41421356237309309
10
126.5625
20
-9.4727647435273923
10
126.5625
20
3.5272352564726539
42
-0.41421356237310608
10
127.0625
20
4.0272352564726441
10
140.0625
20
4.027235256472653
42
-0.41421356237297602
10
140.5625
20
3.5272352564726539
10
140.5625
20
-9.4727647435273923
42
-0.41421356237298185
10
140.0625
20
-9.9727647435273941
0
LWPOLYLINE
5
175
100
AcDbEntity
8
0
100
AcDbPolyline
90
8
70
1
43
0.0
10
49.574999999999903
20
-15.022764743527347
42
-0.41421356237309764
10
50.074999999999932
20
-15.522764743527357
10
50.074999999999896
20
-28.522764743527365
42
-0.41421356237306639
10
49.574999999999896
20
-29.022764743527372
10
34.193749999999902
20
-29.022764743527372
42
-0.41421356237311585
10
33.693749999999902
20
-28.522764743527365
10
33.693749999999909
20
-15.522764743527349
42
-0.4142135623730937
10
34.193749999999923
20
-15.02276474352735
0
LWPOLYLINE
5
176
100
AcDbEntity
8
0
100
AcDbPolyline
90
8
70
1
43
0.0
10
349.61250000000007
20
70.989735256472358
42
0.41421356237294937
10
350.11250000000013
20
71.489735256472429
10
350.11249999999984
20
84.489735256472102
42
0.41421356237340717
10
349.61249999999984
20
84.989735256472017
10
336.6124999999999
20
84.989735256472002
42
0.41421356237338641
10
336.1124999999999
20
84.489735256472102
10
336.11250000000013
20
71.489735256472429
42
0.41421356237306384
10
336.61250000000001
20
70.989735256472429
0
LWPOLYLINE
5
177
100
AcDbEntity
8
0
100
AcDbPolyline
90
8
70
1
43
0.0
10
178.66250000000005
20
-9.4727647435273923
42
-0.41421356237307422
10
178.16249999999999
20
-9.9727647435273994
10
165.16249999999999
20
-9.9727647435274331
42
-0.41421356237298967
10
164.66249999999999
20
-9.4727647435273923
10
164.66250000000005
20
3.527235256472645
42
-0.41421356237300233
10
165.16249999999999
20
4.0272352564726361
10
178.16249999999999
20
4.0272352564726379
42
-0.41421356237298285
10
178.66250000000005
20
3.527235256472645
0
LWPOLYLINE
5
178
100
AcDbEntity
8
0
100
AcDbPolyline
90
8
70
1
43
0.0
10
155.13749999999999
20
9.5772352564726404
10
155.13749999999999
20
22.577235256472683
42
-0.41421356237288692
10
155.63749999999999
20
23.077235256472704
10
168.6375000000001
20
23.077235256472733
42
-0.41421356237314183
10
169.13749999999999
20
22.577235256472683
10
169.13749999999996
20
9.5772352564726404
42
-0.41421356237323226
10
168.63749999999999
20
9.0772352564726404
10
155.63749999999999
20
9.0772352564726599
42
-0.41421356237315227
0
LWPOLYLINE
5
179
100
AcDbEntity
8
0
100
AcDbPolyline
90
8
70
1
43
0.0
10
212.00000000000003
20
60.677235256472663
10
212.00000000000003
20
47.67723525647267
42
-0.41421356237298579
10
211.50000000000009
20
47.177235256472656
10
198.5
20
47.177235256472663
42
-0.41421356237307422
10
198.00000000000011
20
47.67723525647267
10
198.00000000000011
20
60.677235256472663
42
-0.41421356237309503
10
198.5
20
61.177235256472642
10
211.50000000000009
20
61.17723525647267
42
-0.41421356237301177
0
LWPOLYLINE
5
180
100
AcDbEntity
8
0
100
AcDbPolyline
90
8
70
1
43
0.0
10
230.55000000000007
20
47.177235256472642
10
217.55000000000001
20
47.177235256472763
42
-0.41421356237320428
10
217.05000000000001
20
47.67723525647267
10
217.0500000000001
20
60.677235256472663
42
-0.41421356237303258
10
217.55000000000001
20
61.177235256472642
10
230.55000000000007
20
61.177235256472699
42
-0.41421356237304818
10
231.05000000000004
20
60.677235256472663
10
231.05000000000001
20
47.67723525647267
42
-0.4142135623730222
0
LWPOLYLINE
5
181
100
AcDbEntity
8
0
100
AcDbPolyline
90
8
70
1
43
0.0
10
92.937499999999943
20
22.577235256472722
10
92.937499999999901
20
9.5772352564726404
42
-0.41421356237312951
10
92.437499999999886
20
9.0772352564726582
10
79.437499999999915
20
9.0772352564726511
42
-0.41421356237310025
10
78.937499999999872
20
9.5772352564726404
10
78.937499999999901
20
22.577235256472722
42
-0.4142135623730846
10
79.437499999999915
20
23.077235256472711
10
92.437499999999886
20
23.077235256472708
42
-0.41421356237311324
0
LWPOLYLINE
5
182
100
AcDbEntity
8
0
100
AcDbPolyline
90
8
70
1
43
0.0
10
331.06250000000011
20
-9.47276474352741
42
-0.41421356237320495
10
330.5625
20
-9.9727647435274278
10
317.5625
20
-9.9727647435273674
42
-0.41421356237302415
10
317.06250000000006
20
-9.47276474352741
10
317.0625
20
3.5272352564726321
42
-0.41421356237285278
10
317.5625
20
4.0272352564726432
10
330.5625
20
4.0272352564725491
42
-0.41421356237318835
10
331.0625
20
3.5272352564726317
0
ARC
5
183
100
AcDbEntity
8
0
100
AcDbCircle
10
293.10822868619982
20
-27.122751819427684
30
0
40
1.900000000000063
210
0
220
0
230
1
100
AcDbArc
50
180.00001722423531
51
270.00001728403032
0
LINE
5
184
100
AcDbEntity
8
0
100
AcDbLine
10
295.00820007329997
20
-27.122751819727675
30
0
11
295.0082000732998
21
66.083485256472329
31
0
0
LINE
5
185
100
AcDbEntity
8
0
100
AcDbLine
10
291.20820064489976
20
66.083484684872332
30
0
11
291.20822868619985
21
-27.122752390604955
31
0
0
LWPOLYLINE
5
186
100
AcDbEntity
8
0
100
AcDbPolyline
90
8
70
1
43
0.0
10
182.92500000000001
20
70.989735256472358
10
169.92500000000004
20
70.989735256472315
42
-0.41421356237307422
10
169.42500000000001
20
71.489735256472429
10
169.42500000000001
20
84.489735256472187
42
-0.4142135623728973
10
169.9250000000001
20
84.989735256472301
10
182.92500000000004
20
84.989735256472315
42
-0.41421356237310542
10
183.42500000000001
20
84.489735256472187
10
183.42500000000001
20
71.489735256472429
42
-0.4142135623731783
0
LWPOLYLINE
5
187
100
AcDbEntity
8
0
100
AcDbPolyline
90
8
70
1
43
0.0
10
82.912499999999895
20
4.0272352564726797
42
-0.41421356237304102
10
83.412499999999895
20
3.5272352564726583
10
83.412499999999895
20
-9.4727647435273745
42
-0.41421356237312756
10
82.912499999999895
20
-9.9727647435274029
10
69.912499999999923
20
-9.9727647435273905
42
-0.4142135623731048
10
69.412499999999909
20
-9.4727647435273745
10
69.412499999999895
20
3.5272352564726583
42
-0.41421356237299095
10
69.912499999999923
20
4.027235256472677
0
LWPOLYLINE
5
188
100
AcDbEntity
8
0
100
AcDbPolyline
90
8
70
1
43
0.0
10
245.33750000000001
20
9.5772352564726226
42
-0.41421356237294221
10
244.83750000000003
20
9.0772352564726262
10
231.83750000000003
20
9.0772352564726191
42
-0.41421356237323032
10
231.33750000000006
20
9.5772352564726084
10
231.33750000000006
20
22.577235256472683
42
-0.41421356237302481
10
231.83750000000003
20
23.077235256472743
10
244.83750000000001
20
23.077235256472722
42
-0.41421356237294676
10
245.33750000000001
20
22.577235256472683
0
LWPOLYLINE
5
189
100
AcDbEntity
8
0
100
AcDbPolyline
90
8
70
1
43
0.0
10
336.61250000000007
20
-15.022764743527368
10
349.61250000000001
20
-15.022764743527455
42
-0.41421356237325113
10
350.11250000000013
20
-15.522764743527409
10
350.11250000000013
20
-28.522764743527414
42
-0.41421356237320689
10
349.61250000000001
20
-29.022764743527425
10
336.61250000000001
20
-29.022764743527347
42
-0.41421356237311324
10
336.11250000000013
20
-28.522764743527414
10
336.11250000000013
20
-15.522764743527409
42
-0.41421356237346962
0
LWPOLYLINE
5
190
100
AcDbEntity
8
0
100
AcDbPolyline
90
8
70
1
43
0.0
10
330.5625
20
47.17723525647267
10
317.5625
20
47.177235256472642
42
-0.41421356237294416
10
317.06250000000006
20
47.67723525647267
10
317.06250000000006
20
60.677235256472663
42
-0.41421356237303258
10
317.5625
20
61.177235256472642
10
330.56249999999989
20
61.177235256472507
42
-0.41421356237365692
10
331.06249999999989
20
60.677235256472713
10
331.0625
20
47.67723525647267
42
-0.41421356237315227
0
LWPOLYLINE
5
191
100
AcDbEntity
8
0
100
AcDbPolyline
90
8
70
1
43
0.0
10
298.51249999999999
20
-29.022764743527425
42
-0.41421356237304818
10
298.0125000000001
20
-28.522764743527389
10
298.01249999999987
20
-15.522764743527409
42
-0.41421356237309764
10
298.51249999999999
20
-15.022764743527429
10
311.51249999999999
20
-15.022764743527308
42
-0.414213562373004
10
312.0125000000001
20
-15.522764743527409
10
312.0125000000001
20
-28.522764743527389
42
-0.41421356237318085
10
311.51249999999999
20
-29.022764743527443
0
LWPOLYLINE
5
192
100
AcDbEntity
8
0
100
AcDbPolyline
90
8
70
1
43
0.0
10
331.06249999999989
20
84.489735256472102
10
331.06250000000011
20
71.489735256472429
42
-0.41421356237319906
10
330.5625
20
70.989735256472429
10
317.5625
20
70.989735256472329
42
-0.41421356237290252
10
317.06250000000006
20
71.489735256472429
10
317.0625
20
84.489735256472102
42
-0.41421356237282447
10
317.5625
20
84.989735256472215
10
330.56250000000006
20
84.989735256472173
42
-0.41421356237290774
0
LWPOLYLINE
5
193
100
AcDbEntity
8
0
100
AcDbPolyline
90
8
70
1
43
0.0
10
50.862499999999898
20
-9.9727647435273976
42
-0.4142135623730781
10
50.362499999999898
20
-9.4727647435273745
10
50.362499999999898
20
3.5272352564726583
42
-0.41421356237306706
10
50.862499999999898
20
4.0272352564726646
10
63.862499999999898
20
4.0272352564726557
42
-0.4142135623730791
10
64.362499999999898
20
3.5272352564726583
10
64.362499999999912
20
-9.4727647435273745
42
-0.41421356237312301
10
63.862499999999898
20
-9.9727647435273639
0
LWPOLYLINE
5
194
100
AcDbEntity
8
0
100
AcDbPolyline
90
8
70
1
43
0.0
10
54.337499999999892
20
23.077235256472711
42
-0.4142135623730846
10
54.837499999999899
20
22.577235256472722
10
54.837499999999899
20
9.5772352564726404
42
-0.41421356237308005
10
54.337499999999892
20
9.0772352564726422
10
41.33749999999992
20
9.0772352564726546
42
-0.4142135623730957
10
40.837499999999892
20
9.577235256472644
10
40.837499999999906
20
22.577235256472722
42
-0.4142135623730846
10
41.337499999999913
20
23.077235256472711
0
LWPOLYLINE
5
195
100
AcDbEntity
8
0
100
AcDbPolyline
90
8
70
1
43
0.0
10
25.76249999999991
20
-15.022764743527352
42
-0.41421356237309892
10
26.2624999999999
20
-15.522764743527349
10
26.262499999999896
20
-28.522764743527365
42
-0.41421356237310281
10
25.76249999999991
20
-29.022764743527397
10
10.3812499999999
20
-29.022764743527389
42
-0.41421356237307422
10
9.8812499999999037
20
-28.522764743527368
10
9.8812499999999215
20
-15.522764743527357
42
-0.4142135623730937
10
10.3812499999999
20
-15.02276474352735
0
LWPOLYLINE
5
196
100
AcDbEntity
8
0
100
AcDbPolyline
90
8
70
1
43
0.0
10
136.58750000000001
20
23.077235256472616
10
149.58750000000003
20
23.077235256472697
42
-0.41421356237305862
10
150.08750000000001
20
22.577235256472683
10
150.08750000000003
20
9.5772352564726404
42
-0.4142135623730534
10
149.58750000000003
20
9.0772352564726315
10
136.58750000000001
20
9.0772352564726422
42
-0.41421356237310542
10
136.08750000000001
20
9.5772352564726315
10
136.08750000000001
20
22.577235256472683
42
-0.414213562373069
0
LWPOLYLINE
5
197
100
AcDbEntity
8
0
100
AcDbPolyline
90
8
70
1
43
0.0
10
193.73750000000001
20
23.077235256472711
42
0.41421356237295975
10
193.23750000000007
20
22.577235256472651
10
193.23750000000004
20
9.5772352564726404
42
0.41421356237304885
10
193.73750000000001
20
9.0772352564726067
10
206.73750000000001
20
9.0772352564726084
42
0.41421356237322443
10
207.23750000000001
20
9.5772352564726226
10
207.23750000000001
20
22.577235256472683
42
0.41421356237309503
10
206.73750000000001
20
23.077235256472754
0
LWPOLYLINE
5
198
100
AcDbEntity
8
0
100
AcDbPolyline
90
8
70
1
43
0.0
10
188.97500000000002
20
42.127235256472623
10
201.97500000000008
20
42.127235256472687
42
-0.41421356237299617
10
202.47500000000002
20
41.62723525647263
10
202.47500000000008
20
28.627235256472691
42
-0.41421356237286089
10
201.97500000000002
20
28.127235256472645
10
188.97500000000002
20
28.127235256472641
42
-0.41421356237287132
10
188.47499999999999
20
28.627235256472691
10
188.47499999999999
20
41.62723525647263
42
-0.41421356237291812
0
LWPOLYLINE
5
199
100
AcDbEntity
8
0
100
AcDbPolyline
90
8
70
1
43
0.0
10
60.387499999999896
20
9.0772352564726368
42
-0.41421356237309764
10
59.887499999999896
20
9.5772352564726404
10
59.887499999999896
20
22.577235256472722
42
-0.41421356237311063
10
60.387499999999896
20
23.077235256472711
10
73.387499999999903
20
23.077235256472711
42
-0.4142135623730846
10
73.887499999999903
20
22.577235256472722
10
73.887499999999903
20
9.5772352564726404
42
-0.41421356237309243
10
73.387499999999903
20
9.0772352564726546
0
LINE
5
200
100
AcDbEntity
8
0
100
AcDbLine
10
73.887499999999903
20
-15.522764743527357
30
0
11
73.887499999999903
21
-28.522764743527365
31
0
0
ARC
5
201
100
AcDbEntity
8
0
100
AcDbCircle
10
-58.006249999999937
20
-15.522764743527375
30
0
40
0.50000000000001599
210
0
220
0
230
-1
100
AcDbArc
50
0
51
89.999999999995936
0
ARC
5
202
100
AcDbEntity
8
0
100
AcDbCircle
10
-73.387499999999889
20
-15.522764743527373
30
0
40
0.50000000000001377
210
0
220
0
230
-1
100
AcDbArc
50
90.000000000001634
51
180
0
LWPOLYLINE
5
203
100
AcDbEntity
8
0
100
AcDbPolyline
90
8
70
1
43
0.0
10
261.50625000000002
20
-29.022764743527425
42
0.41421356237302737
10
262.00625000000002
20
-28.522764743527354
10
262.00624999999997
20
-15.522764743527384
42
0.41421356237307555
10
261.50625000000002
20
-15.022764743527407
10
246.125
20
-15.022764743527379
42
0.41421356237313534
10
245.625
20
-15.522764743527384
10
245.625
20
-28.522764743527414
42
0.41421356237326151
10
246.125
20
-29.022764743527425
0
ARC
5
204
100
AcDbEntity
8
0
100
AcDbCircle
10
-58.006249999999909
20
-28.522764743527404
30
0
40
0.4999999999999849
210
-0
220
-0
230
-1
100
AcDbArc
50
-90
51
0
0
LINE
5
205
100
AcDbEntity
8
0
100
AcDbLine
10
57.506249999999937
20
-28.522764743527389
30
0
11
57.506249999999916
21
-15.522764743527375
31
0
0
LINE
5
206
100
AcDbEntity
8
0
100
AcDbLine
10
73.387499999999918
20
-29.022764743527386
30
0
11
58.006249999999909
21
-29.022764743527382
31
0
0
ARC
5
207
100
AcDbEntity
8
0
100
AcDbCircle
10
-73.387499999999889
20
-28.522764743527375
30
0
40
0.50000000000001599
210
0
220
0
230
-1
100
AcDbArc
50
180
51
269.99999999999676
0
LINE
5
208
100
AcDbEntity
8
0
100
AcDbLine
10
58.006249999999902
20
-15.022764743527359
30
0
11
73.387499999999903
21
-15.022764743527357
31
0
0
LWPOLYLINE
5
209
100
AcDbEntity
8
0
100
AcDbPolyline
90
8
70
1
43
0.0
10
385.50000000000006
20
84.489735256472187
42
-0.41421356237292856
10
386
20
84.989735256472301
10
399.00000000000006
20
84.989735256472358
42
-0.41421356237304302
10
399.5
20
84.489735256472187
10
399.5
20
71.489735256472429
42
-0.41421356237316787
10
399.00000000000006
20
70.989735256472471
10
386
20
70.989735256472301
42
-0.41421356237297535
10
385.50000000000011
20
71.489735256472429
0
LWPOLYLINE
5
210
100
AcDbEntity
8
0
100
AcDbPolyline
90
8
70
1
43
0.0
10
403.76249999999999
20
-15.022764743527333
42
-0.41421356237312101
10
404.26249999999993
20
-15.522764743527349
10
404.26249999999993
20
-28.522764743527365
42
-0.41421356237312362
10
403.76249999999999
20
-29.022764743527389
10
388.38124999999991
20
-29.022764743527443
42
-0.41421356237307161
10
387.88124999999991
20
-28.522764743527368
10
387.88125000000008
20
-15.522764743527357
42
-0.41421356237300266
10
388.38124999999991
20
-15.022764743527368
0
LWPOLYLINE
5
211
100
AcDbEntity
8
0
100
AcDbPolyline
90
8
70
1
43
0.0
10
663.31875000000014
20
-29.022764743527336
10
647.93750000000023
20
-29.022764743527432
42
-0.41421356237297013
10
647.4375
20
-28.522764743527389
10
647.4375
20
-15.522764743527384
42
-0.41421356237294804
10
647.9375
20
-15.022764743527413
10
663.31875000000014
20
-15.022764743527368
42
-0.41421356237271911
10
663.81875000000025
20
-15.522764743527409
10
663.81875000000025
20
-28.522764743527414
42
-0.41421356237330836
0
LWPOLYLINE
5
212
100
AcDbEntity
8
0
100
AcDbPolyline
90
20
70
1
43
0.0
10
419.85050061941132
20
5.1122345197588732
10
419.85050061941132
20
-12.827765179833087
42
-0.41421474950316511
10
418.85049859285346
20
-13.827767206390975
10
389.9744994401928
20
-13.827767206391052
42
-0.41421420394653607
10
388.97449927628031
20
-12.827765179833081
10
388.97449927627815
20
5.1122345197544572
42
-0.4142136103812214
10
389.97449944019303
20
6.1122345197593013
10
395.47425939994559
20
6.112234519759264
42
-0.41428416685570496
10
396.47450045271796
20
5.1122344907063884
10
396.47450000000367
20
-10.472763313015603
10
397.41249973177901
20
-10.472763313015603
10
397.41249999999991
20
2.5272352564726934
42
-0.41421356237300971
10
398.41249999999974
20
3.5272352564726495
10
410.41249999999991
20
3.5272352564727267
42
-0.41421356237307994
10
411.41249999999985
20
2.527235256472693
10
411.41249830126645
20
-10.472763313016317
10
412.35050133466802
20
-10.472763313016317
10
412.35050133466729
20
5.1122345197578767
42
-0.41421356237309859
10
413.35050133466893
20
6.1122345197595349
10
418.85049859285431
20
6.1122345197575125
42
-0.41421415593792521
0
LWPOLYLINE
5
213
100
AcDbEntity
8
0
100
AcDbPolyline
90
4
70
1
43
0.0
10
387.40000000000003
20
67.983485256472306
10
397.59999999999991
20
67.983485256472306
42
-0.99999999999999989
10
397.59999999999991
20
64.183485256472011
10
387.39999999999986
20
64.183485256472295
42
-0.99999999999999989
0
LWPOLYLINE
5
214
100
AcDbEntity
8
0
100
AcDbPolyline
90
8
70
1
43
0.0
10
399.5
20
47.677235256472692
42
-0.41421356237316265
10
399.00000000000006
20
47.177235256472763
10
385.99999999999994
20
47.177235256472756
42
-0.41421356237299095
10
385.50000000000011
20
47.677235256472692
10
385.50000000000011
20
60.677235256472684
42
-0.41421356237300661
10
386
20
61.17723525647272
10
399.00000000000006
20
61.17723525647267
42
-0.41421356237293372
10
399.5
20
60.677235256472684
0
ARC
5
215
100
AcDbEntity
8
0
100
AcDbCircle
10
671.1082000732996
20
66.083485256472329
30
0
40
1.8999999999999773
210
0
220
0
230
1
100
AcDbArc
50
0
51
180.00001722423531
0
ARC
5
216
100
AcDbEntity
8
0
100
AcDbCircle
10
671.1082000732996
20
-27.122751819727675
30
0
40
1.9000000000001436
210
0
220
0
230
1
100
AcDbArc
50
-89.999119874701549
51
0
0
LWPOLYLINE
5
217
100
AcDbEntity
8
0
100
AcDbPolyline
90
4
70
1
43
0.0
10
596.95000305179997
20
67.983485256472392
10
664.30387268069933
20
67.983485256472449
42
-0.99999999999999989
10
664.30387268070024
20
64.183485256472437
10
596.95000305179997
20
64.183485256472295
42
-0.99999999999999989
0
LWPOLYLINE
5
218
100
AcDbEntity
8
0
100
AcDbPolyline
90
8
70
1
43
0.0
10
163.875
20
28.127235256472645
10
150.87500000000003
20
28.127235256472677
42
-0.414213562373069
10
150.375
20
28.627235256472691
10
150.375
20
41.62723525647263
42
-0.41421356237301699
10
150.87500000000003
20
42.127235256472666
10
163.87499999999991
20
42.127235256472673
42
-0.41421356237294937
10
164.375
20
41.62723525647263
10
164.375
20
28.627235256472691
42
-0.4142135623732433
0
LWPOLYLINE
5
219
100
AcDbEntity
8
0
100
AcDbPolyline
90
8
70
1
43
0.0
10
676.51250000000016
20
-29.022764743527361
42
-0.4142135623731783
10
676.01250000000039
20
-28.522764743527389
10
676.01249999999982
20
-15.522764743527409
42
-0.4142135623731939
10
676.51250000000016
20
-15.022764743527437
10
689.51250000000016
20
-15.022764743527388
42
-0.41421356237295714
10
690.01250000000016
20
-15.522764743527409
10
690.01250000000016
20
-28.522764743527389
42
-0.41421356237321727
10
689.51250000000016
20
-29.022764743527517
0
LWPOLYLINE
5
220
100
AcDbEntity
8
0
100
AcDbPolyline
90
24
70
1
43
0.0
10
5.4999999999998739
20
-47.022764743527389
10
18.071874999999906
20
-47.022764743527389
10
352.11250000000007
20
-47.022764743527397
42
0.41421356237309503
10
362.11250000000013
20
-37.022764743527325
10
362.11250000000007
20
92.98973525647213
42
0.41421356237309503
10
352.11249999999995
20
102.9897352564723
10
298.51249999999999
20
102.9897352564722
10
298.51249999999999
20
84.989735256472187
10
311.5125000000001
20
84.98973525647223
42
-0.41421356237306384
10
312.01250000000027
20
84.489735256472102
10
312.01250000000027
20
71.489735256472429
42
-0.41421356237318868
10
311.51249999999999
20
70.989735256472329
10
298.51249999999999
20
70.989735256472301
10
287.69999999999999
20
70.989735256472386
10
274.69999999999999
20
70.989735256472358
42
-0.41421356237334478
10
274.20000000000005
20
71.489735256472429
10
274.20000000000005
20
84.489735256472187
42
-0.41421356237297013
10
274.69999999999999
20
84.989735256472187
10
287.69999999999993
20
84.989735256472301
10
287.7000000000001
20
102.9897352564723
10
5.4999999999998934
20
102.9897352564723
42
0.41421356237309553
10
-4.500000000000119
20
92.989735256472272
10
-4.5000000000001013
20
77.989735256472301
10
-4.5000000000000995
20
-37.022764743527418
42
0.41421356237309503
0
LWPOLYLINE
5
221
100
AcDbEntity
8
0
100
AcDbPolyline
90
8
70
1
43
0.0
10
542.375
20
71.489735256472429
42
-0.41421356237329271
10
541.875
20
70.989735256472358
10
528.875
20
70.989735256472244
42
-0.41421356237301177
10
528.37500000000011
20
71.489735256472429
10
528.375
20
84.489735256472187
42
-0.4142135623730846
10
528.875
20
84.989735256472301
10
541.87500000000011
20
84.989735256472329
42
-0.41421356237299095
10
542.375
20
84.489735256472187
0
LWPOLYLINE
5
222
100
AcDbEntity
8
0
100
AcDbPolyline
90
8
70
1
43
0.0
10
250.10000000000002
20
71.489735256472429
42
-0.41421356237287132
10
249.60000000000002
20
70.989735256472372
10
236.59999999999999
20
70.989735256472315
42
-0.41421356237307422
10
236.09999999999999
20
71.489735256472429
10
236.09999999999999
20
84.489735256472187
42
-0.41421356237311585
10
236.59999999999999
20
84.989735256472301
10
249.60000000000002
20
84.989735256472301
42
-0.4142135623731783
10
250.10000000000005
20
84.489735256472187
0
LWPOLYLINE
5
223
100
AcDbEntity
8
0
100
AcDbPolyline
90
8
70
1
43
0.0
10
580.47500000000002
20
71.489735256472429
42
-0.41421356237329271
10
579.97500000000002
20
70.989735256472358
10
566.97500000000002
20
70.989735256472287
42
-0.41421356237298579
10
566.47500000000014
20
71.489735256472429
10
566.47500000000014
20
84.489735256472187
42
-0.41421356237286611
10
566.97500000000002
20
84.989735256472272
10
579.97500000000002
20
84.989735256472287
42
-0.41421356237329271
10
580.47500000000002
20
84.489735256472187
0
LINE
5
224
100
AcDbEntity
8
0
100
AcDbLine
10
673.0082000732998
20
-27.122751819727675
30
0
11
673.00820007329958
21
66.083485256472329
31
0
0
LINE
5
225
100
AcDbEntity
8
0
100
AcDbLine
10
669.20820064489988
20
66.083484684872332
30
0
11
669.20822868619962
21
-27.122752390680951
31
0
0
LWPOLYLINE
5
226
100
AcDbEntity
8
0
100
AcDbPolyline
90
8
70
1
43
0.0
10
202.76250000000005
20
3.5272352564726446
42
-0.4142135623729204
10
203.26250000000002
20
4.0272352564726832
10
216.26249999999999
20
4.0272352564726566
42
-0.41421356237288887
10
216.76249999999999
20
3.5272352564726459
10
216.7625000000001
20
-9.4727647435273958
42
-0.41421356237309764
10
216.26249999999999
20
-9.9727647435273745
10
203.26250000000002
20
-9.9727647435273106
42
-0.41421356237316265
10
202.76250000000007
20
-9.4727647435274029
0
LWPOLYLINE
5
227
100
AcDbEntity
8
0
100
AcDbPolyline
90
8
70
1
43
0.0
10
406.64375000000007
20
22.577235256472722
10
406.64375000000007
20
9.5772352564726475
42
-0.414213562373136
10
406.14375000000001
20
9.0772352564726848
10
388.38125000000002
20
9.077235256472644
42
-0.41421356237319712
10
387.88124999999991
20
9.5772352564726493
10
387.88125000000008
20
22.577235256472733
42
-0.41421356237304563
10
388.38125000000002
20
23.07723525647264
10
406.14375000000001
20
23.077235256472648
42
-0.41421356237319129
0
LWPOLYLINE
5
228
100
AcDbEntity
8
0
100
AcDbPolyline
90
8
70
1
43
0.0
10
107.5125
20
-9.4727647435273923
10
107.5125
20
3.5272352564726539
42
-0.41421356237305634
10
108.01250000000003
20
4.0272352564726486
10
121.0125
20
4.0272352564726717
42
-0.41421356237312756
10
121.51250000000005
20
3.527235256472645
10
121.51250000000005
20
-9.4727647435273923
42
-0.41421356237309764
10
121.0125
20
-9.9727647435273674
10
108.01250000000003
20
-9.9727647435273976
42
-0.41421356237308266
0
LWPOLYLINE
5
229
100
AcDbEntity
8
0
100
AcDbPolyline
90
8
70
1
43
0.0
10
97.199999999999974
20
47.177235256472727
10
84.199999999999932
20
47.177235256472699
42
-0.4142135623730534
10
83.699999999999903
20
47.677235256472692
10
83.699999999999903
20
60.677235256472684
42
-0.41421356237312101
10
84.199999999999903
20
61.177235256472713
10
97.200000000000003
20
61.177235256472642
42
-0.4142135623730846
10
97.699999999999875
20
60.677235256472684
10
97.699999999999932
20
47.67723525647267
42
-0.41421356237304818
0
LWPOLYLINE
5
230
100
AcDbEntity
8
0
100
AcDbPolyline
90
17
70
1
43
0.0
10
287.05342428909216
20
4.1733333673820656
42
-0.41500890398690754
10
288.05342428909597
20
3.1733333673818076
10
288.05342428909597
20
-8.8266666326236649
42
-0.4150089039869177
10
287.05342428909216
20
-9.8266666326238727
10
279.8234133026931
20
-9.8266666326209382
10
279.82341330287306
20
-12.826666135031701
42
-0.4140016105445819
10
278.82341330269298
20
-13.826666632620928
10
273.82341330273329
20
-13.826666632680949
10
254.94740622265289
20
-13.826666632680919
10
249.94740622267315
20
-13.826666632620848
42
-0.41397094759917863
10
248.9474062226931
20
-12.826666632620396
10
248.9474062226931
20
-9.8266666326209382
10
248.86043112503319
20
-9.8266666326809755
42
-0.41400146484367634
10
247.86043112503293
20
-8.8266666326807908
10
247.86043112499297
20
3.1733333673389335
42
-0.41400146483195066
10
248.86043112499308
20
4.1733333673790254
10
273.81840841986246
20
4.1733333673269737
0
LWPOLYLINE
5
231
100
AcDbEntity
8
0
100
AcDbPolyline
90
4
70
1
43
0.0
10
114.8500152587998
20
64.183485256472295
10
47.499990844799811
20
64.183485256472295
42
-0.99999999999999989
10
47.499990844799811
20
67.983485256472306
10
114.8500152587998
20
67.983485256472306
42
-0.99999999999999989
0
LWPOLYLINE
5
232
100
AcDbEntity
8
0
100
AcDbPolyline
90
36
70
1
43
0.0
10
128.8036533905931
20
-15.876299823520913
42
-0.41421356237309503
10
129.80365339059304
20
-14.876299823520933
10
153.703605270493
20
-14.876299823521819
42
-0.41421356237309631
10
154.70360527049209
20
-15.876299823520913
10
154.70360527049209
20
-29.52276331301633
10
182.38800133466796
20
-29.52276331301633
10
182.38800133466725
20
-13.937765480242135
42
-0.41421356237306384
10
183.38800133466893
20
-12.937765480240476
10
188.88799859285425
20
-12.937765480242515
42
-0.41421415593781824
10
189.88800061941132
20
-13.937765480241143
10
189.88800061941123
20
-29.52276331301633
10
200.38124999999997
20
-29.522764743527414
10
200.38125000000002
20
-15.522764743527366
42
-0.41421356237294282
10
200.88124999999997
20
-15.022764743527372
10
201.3880013346679
20
-15.022764743527357
10
201.38800133466731
20
-13.937765480242135
42
-0.41421356237309959
10
202.38800133466896
20
-12.937765480240472
10
207.8879985928543
20
-12.93776548024255
42
-0.41421415593782862
10
208.88800061941129
20
-13.937765480241143
10
208.88800061941129
20
-15.02276474352735
10
213.88124999999988
20
-15.022764743527318
42
-0.41421356237292595
10
214.38124999999999
20
-15.522764743527357
10
214.38124999999997
20
-28.522764743527414
42
-0.41421356237304041
10
213.88125000000002
20
-29.022764743527411
10
208.88800061941129
20
-29.022764743527411
10
208.8880006194093
20
-31.877765179833091
42
-0.41421415593795025
10
207.88800061941018
20
-32.87776720639102
10
84.011999276280392
20
-32.877767206391077
42
-0.41421415593767447
10
83.011999276280307
20
-31.877765179833091
10
83.011999276278047
20
-13.937765480245554
42
-0.41421361038122756
10
84.011999440192952
20
-12.937765480240779
10
92.511759399917949
20
-12.937765480240774
42
-0.41428416686383185
10
93.512000452717814
20
-13.937765509293625
10
93.512000000003624
20
-29.522763313015616
10
128.80365339059281
20
-29.522763313015616
10
128.80365339059281
20
-27.899063817767953
0
LWPOLYLINE
5
233
100
AcDbEntity
8
0
100
AcDbPolyline
90
4
70
1
43
0.0
10
133.22499694829986
20
64.183485256472338
42
-0.99999999999999989
10
133.22499694829986
20
67.983485256472335
10
200.5749908447998
20
67.983485256472349
42
-0.99999999999999989
10
200.57499084479986
20
64.183485256472338
0
LWPOLYLINE
5
234
100
AcDbEntity
8
0
100
AcDbPolyline
90
4
70
1
43
0.0
10
348.21250305179979
20
67.983485256472349
42
-0.99999999999999989
10
348.21250305179979
20
64.183485256472338
10
299.91252746589993
20
64.183485256472338
42
-0.99999999999999989
10
299.91252746589964
20
67.983485256472335
0
LWPOLYLINE
5
235
100
AcDbEntity
8
0
100
AcDbPolyline
90
4
70
1
43
0.0
10
286.30387268069973
20
67.983485256472349
42
-0.99999999999999989
10
286.3038726806999
20
64.183485256472338
10
218.95000305179991
20
64.183485256472295
42
-0.99999999999999989
10
218.95000305179991
20
67.983485256472392
0
ARC
5
236
100
AcDbEntity
8
0
100
AcDbCircle
10
293.10820007329983
20
66.083485256472329
30
0
40
1.8999999999999773
210
0
220
0
230
1
100
AcDbArc
50
0
51
180.00001722423531
0
LWPOLYLINE
5
237
100
AcDbEntity
8
0
100
AcDbPolyline
90
8
70
1
43
0.0
10
608.55000000000018
20
84.989735256472301
42
-0.41421356237321988
10
609.05000000000018
20
84.489735256472187
10
609.05000000000018
20
71.489735256472429
42
-0.41421356237275164
10
608.55000000000018
20
70.989735256472372
10
595.55000000000018
20
70.989735256472301
42
-0.4142135623730222
10
595.05000000000018
20
71.489735256472429
10
595.05000000000018
20
84.489735256472187
42
-0.4142135623730222
10
595.55000000000018
20
84.989735256472301
0
LWPOLYLINE
5
238
100
AcDbEntity
8
0
100
AcDbPolyline
90
24
70
1
43
0.0
10
373.5
20
77.989735256472301
10
373.5
20
92.989735256472287
42
-0.41421356237309503
10
383.50000000000011
20
102.98973525647239
10
665.70000000000039
20
102.98973525647267
10
665.69999999999982
20
84.989735256472613
10
652.70000000000027
20
84.989735256472159
42
0.4142135623731783
10
652.20000000000016
20
84.489735256472187
10
652.20000000000005
20
71.489735256472429
42
0.41421356237328233
10
652.70000000000027
20
70.989735256472429
10
665.70000000000039
20
70.989735256472386
10
676.51250000000016
20
70.989735256472301
10
689.51250000000016
20
70.989735256472386
42
0.41421356237297013
10
690.01250000000016
20
71.489735256472429
10
690.01250000000016
20
84.489735256472059
42
0.41421356237293894
10
689.51250000000016
20
84.989735256472358
10
676.51250000000016
20
84.989735256472429
10
676.51249999999982
20
102.98973525647244
10
730.11250000000007
20
102.9897352564725
42
-0.41421356237309503
10
740.1125000000003
20
92.989735256472215
10
740.1125000000003
20
-37.022764743527489
42
-0.41421356237309503
10
730.1125000000003
20
-47.022764743527439
10
396.07187500000003
20
-47.022764743527389
10
383.5
20
-47.022764743527439
42
-0.41421356237309503
10
373.5
20
-37.022764743527432
0
LWPOLYLINE
5
239
100
AcDbEntity
8
0
100
AcDbPolyline
90
8
70
1
43
0.0
10
428.0750000000001
20
-28.522764743527365
42
-0.414213562373069
10
427.57499999999993
20
-29.022764743527389
10
412.19374999999991
20
-29.022764743527361
42
-0.414213562373069
10
411.69375000000002
20
-28.522764743527365
10
411.69375000000002
20
-15.522764743527349
42
-0.41421356237323809
10
412.19375000000014
20
-15.022764743527382
10
427.57499999999993
20
-15.022764743527301
42
-0.41421356237310281
10
428.0750000000001
20
-15.522764743527357
0
LWPOLYLINE
5
240
100
AcDbEntity
8
0
100
AcDbPolyline
90
4
70
1
43
0.0
10
492.85001525880006
20
64.183485256472295
10
425.4999908448001
20
64.183485256472295
42
-0.99999999999999989
10
425.4999908448001
20
67.983485256472306
10
492.85001525879977
20
67.983485256472264
42
-0.99999999999999989
0
LWPOLYLINE
5
241
100
AcDbEntity
8
0
100
AcDbPolyline
90
8
70
1
43
0.0
10
614.10000000000002
20
84.489735256472187
42
-0.41421356237310542
10
614.60000000000014
20
84.989735256472301
10
627.60000000000002
20
84.989735256472287
42
-0.41421356237316787
10
628.10000000000014
20
84.489735256472187
10
628.10000000000002
20
71.489735256472429
42
-0.41421356237288692
10
627.60000000000002
20
70.9897352564724
10
614.60000000000014
20
70.989735256472343
42
-0.41421356237316265
10
614.10000000000002
20
71.489735256472429
0
LINE
5
242
100
AcDbEntity
8
0
100
AcDbLine
10
65.471150844250133
20
200.08251975847884
30
0
11
64.471150844250118
21
200.08251975847884
31
0
0
LINE
5
243
100
AcDbEntity
8
0
100
AcDbLine
10
61.008782682278493
20
213.87347767317382
30
0
11
65.471150844250147
21
229.95959516028131
31
0
0
LINE
5
244
100
AcDbEntity
8
0
100
AcDbLine
10
21.995641204012607
20
212.38063296613046
30
0
11
25.471150844250129
21
206.90328145850742
31
0
0
LINE
5
245
100
AcDbEntity
8
0
100
AcDbLine
10
45.471150844250097
20
147.39250677520096
30
0
11
38.701574315752225
21
147.39250677520096
31
0
0
LINE
5
246
100
AcDbEntity
8
0
100
AcDbLine
10
81.995641204012614
20
212.38063296613046
30
0
11
85.471150844250147
21
206.90328145850742
31
0
0
SPLINE
5
247
100
AcDbEntity
8
0
100
AcDbSpline
70
0
71
3
72
20
73
16
74
0
42
0.000000001
43
0.0000000001
44
0.0000000001
40
-0.021357865534255727
40
-0.021357865534255727
40
-0.021357865534255727
40
-0.021357865534255727
40
0
40
0
40
0
40
0.5
40
0.5
40
0.5
40
0.79815950573803685
40
0.79815950573803685
40
0.79815950573803685
40
1
40
1
40
1
40
1.0050985815217086
40
1.0050985815217086
40
1.0050985815217086
40
1.0050985815217086
10
57.336275873977101
20
193.57197902169273
30
0
10
57.338363402830808
20
193.71322090964844
30
0
10
57.340450931684579
20
193.85446279760379
30
0
10
57.342538460538321
20
193.99570468555925
30
0
10
57.391679400722822
20
197.32057329999213
30
0
10
57.538959290233898
20
200.1184107386967
30
0
10
57.873454111042584
20
202.11897048765945
30
0
10
58.072919731931023
20
203.31194229955966
30
0
10
58.321667159281219
20
204.20242621543599
30
0
10
58.7754620900009
20
204.84182928107799
30
0
10
59.082660724783061
20
205.27467622480472
30
0
10
59.559536518427201
20
205.61135249704199
30
0
10
60.099159088836707
20
205.63836515003368
30
0
10
60.10619621405035
20
205.63871741739959
30
0
10
60.113233339263843
20
205.63906968476556
30
0
10
60.120270464476064
20
205.63942195213119
30
0
0
LINE
5
248
100
AcDbEntity
8
0
100
AcDbLine
10
85.471150844250147
20
150.08251975847892
30
0
11
85.471150844250147
21
147.39250677520096
31
0
0
LINE
5
249
100
AcDbEntity
8
0
100
AcDbLine
10
69.31735226758903
20
223.82086209247939
30
0
11
81.008782682278479
21
213.87347767317382
31
0
0
LINE
5
250
100
AcDbEntity
8
0
100
AcDbLine
10
37.38544580243083
20
158.11151333147845
30
0
11
38.703078575881811
21
147.38025555958785
31
0
0
LWPOLYLINE
5
251
100
AcDbEntity
8
0
100
AcDbPolyline
90
10
70
1
43
0.0
10
333.58749999999998
20
174.55223525647261
10
333.58749999999998
20
155.50223525647266
10
352.63750000000016
20
155.50223525647257
10
352.63750000000016
20
136.45223525647259
10
333.58749999999998
20
136.45223525647259
10
314.53750000000002
20
136.45223525647262
10
295.4874999999999
20
136.45223525647262
10
295.4874999999999
20
155.50223525647266
10
314.53750000000002
20
155.50223525647266
10
314.53750000000002
20
174.55223525647261
0
LINE
5
252
100
AcDbEntity
8
0
100
AcDbLine
10
25.471150844250129
20
224.90928465311839
30
0
11
25.471150844250161
21
229.95959516028131
31
0
0
LINE
5
253
100
AcDbEntity
8
0
100
AcDbLine
10
45.471150844250097
20
152.0825197584789
30
0
11
45.471150844250097
21
150.08251975847884
31
0
0
LINE
5
254
100
AcDbEntity
8
0
100
AcDbLine
10
101.00878268227848
20
213.87347767317382
30
0
11
105.47115084425016
21
229.95959516028131
31
0
0
LWPOLYLINE
5
255
100
AcDbEntity
8
0
100
AcDbPolyline
90
8
70
1
43
0.0
10
119.27500000000002
20
236.46473525647235
10
119.27500000000002
20
255.51473525647236
10
100.22500000000001
20
255.51473525647236
10
62.124999999999943
20
255.51473525647236
10
43.074999999999932
20
255.51473525647236
10
43.074999999999932
20
236.46473525647235
10
62.124999999999943
20
236.46473525647235
10
100.22500000000001
20
236.46473525647235
0
LWPOLYLINE
5
256
100
AcDbEntity
8
0
100
AcDbPolyline
90
8
70
1
43
0.0
10
147.84999999999997
20
236.46473525647235
10
185.94999999999999
20
236.46473525647235
10
205
20
236.46473525647235
10
205
20
255.51473525647236
10
185.94999999999999
20
255.51473525647236
10
147.84999999999997
20
255.51473525647236
10
128.79999999999995
20
255.51473525647236
10
128.79999999999995
20
236.46473525647235
0
LWPOLYLINE
5
257
100
AcDbEntity
8
0
100
AcDbPolyline
90
6
70
1
43
0.0
10
41.444709803926969
20
152.68251975847878
10
44.471150844250104
20
152.68251975847886
10
44.471150844250104
20
152.0825197584789
10
44.471150844250104
20
150.08251975847884
10
44.471150844250104
20
149.48251975847882
10
41.444709803926969
20
149.48251975847882
0
CIRCLE
5
258
100
AcDbEntity
8
0
100
AcDbCircle
10
82.23223001819153
20
156.98997203321699
30
0
40
1.7000000000000004
210
0
220
0
230
1
0
LINE
5
259
100
AcDbEntity
8
0
100
AcDbLine
10
105.47115084425016
20
224.90928465311839
30
0
11
105.47115084425016
21
229.95959516028131
31
0
0
SPLINE
5
260
100
AcDbEntity
8
0
100
AcDbSpline
70
0
71
3
72
11
73
7
74
0
42
0.000000001
43
0.0000000001
44
0.0000000001
40
0.60174227844747885
40
0.60174227844747885
40
0.60174227844747885
40
0.60174227844747885
40
0.64928968652167418
40
0.64928968652167418
40
0.64928968652167418
40
0.91422646823008435
40
0.91422646823008435
40
0.91422646823008435
40
0.91422646823008435
10
77.385445802430837
20
158.11151333147845
30
0
10
77.475365068848106
20
158.12458329942228
30
0
10
77.566563281110291
20
158.13497753915073
30
0
10
77.658627677923548
20
158.14317116058132
30
0
10
78.171615577570492
20
158.18882647136013
30
0
10
78.74298094463299
20
158.16999977506148
30
0
10
79.37983733928786
20
158.10900206298962
30
0
0
LINE
5
261
100
AcDbEntity
8
0
100
AcDbLine
10
65.471150844250133
20
206.90328145850742
30
0
11
65.471150844250133
21
202.0825197584789
31
0
0
LINE
5
262
100
AcDbEntity
8
0
100
AcDbLine
10
25.471150844250129
20
150.08251975847892
30
0
11
25.471150844250129
21
147.39250677520096
31
0
0
LINE
5
263
100
AcDbEntity
8
0
100
AcDbLine
10
65.471150844250133
20
224.90928465311839
30
0
11
65.471150844250133
21
206.90328145850742
31
0
0
LINE
5
264
100
AcDbEntity
8
0
100
AcDbLine
10
83.11826911889888
20
216.42752553027759
30
0
11
83.140515076474983
21
216.50771861928172
31
0
0
LINE
5
265
100
AcDbEntity
8
0
100
AcDbLine
10
63.118269118898873
20
216.42752553027759
30
0
11
63.140515076474983
21
216.50771861928172
31
0
0
LINE
5
266
100
AcDbEntity
8
0
100
AcDbLine
10
100.85686929312345
20
205.63475486800567
30
0
11
89.31735226758903
21
223.82086209247939
31
0
0
LINE
5
267
100
AcDbEntity
8
0
100
AcDbLine
10
80.120270464476008
20
205.63942195213119
30
0
11
80.856869293123438
21
205.63475486800567
31
0
0
LWPOLYLINE
5
268
100
AcDbEntity
8
0
100
AcDbPolyline
90
6
70
1
43
0.0
10
81.444709803926983
20
202.68251975847886
10
84.471150844250104
20
202.68251975847886
10
84.471150844250104
20
202.0825197584789
10
84.471150844250104
20
200.08251975847884
10
84.471150844250104
20
199.48251975847882
10
81.444709803926983
20
199.48251975847882
0
LWPOLYLINE
5
269
100
AcDbEntity
8
0
100
AcDbPolyline
90
4
70
1
43
0.0
10
4.9749999999999117
20
255.51473525647236
10
24.024999999999913
20
255.51473525647236
10
24.024999999999913
20
236.46473525647235
10
4.9749999999999117
20
236.46473525647235
0
LINE
5
270
100
AcDbEntity
8
0
100
AcDbLine
10
105.47115084425016
20
200.08251975847884
30
0
11
105.47115084425016
21
152.08251975847884
31
0
0
LINE
5
271
100
AcDbEntity
8
0
100
AcDbLine
10
61.444709803926976
20
202.68251975847886
30
0
11
64.471150844250118
21
202.68251975847886
31
0
0
LINE
5
272
100
AcDbEntity
8
0
100
AcDbLine
10
105.47115084425016
20
152.08251975847884
30
0
11
105.47115084425016
21
150.08251975847884
31
0
0
LINE
5
273
100
AcDbEntity
8
0
100
AcDbLine
10
97.385445802430851
20
158.11151333147845
30
0
11
98.703078575881804
21
147.38025555958785
31
0
0
LINE
5
274
100
AcDbEntity
8
0
100
AcDbLine
10
85.471150844250147
20
202.0825197584789
30
0
11
85.471150844250147
21
200.08251975847884
31
0
0
SPLINE
5
275
100
AcDbEntity
8
0
100
AcDbSpline
70
0
71
3
72
11
73
7
74
0
42
0.000000001
43
0.0000000001
44
0.0000000001
40
0.0097318879816928727
40
0.0097318879816928727
40
0.0097318879816928727
40
0.0097318879816928727
40
0.63723143529929216
40
0.63723143529929216
40
0.63723143529929216
40
0.98136488140250955
40
0.98136488140250955
40
0.98136488140250955
40
0.98136488140250955
10
41.487595403458393
20
190.98687193625972
30
0
10
42.529482733956961
20
183.57659391506138
30
0
10
42.741241279824813
20
176.36431875273587
30
0
10
41.802086721910101
20
169.39842781227605
30
0
10
41.2870353631955
20
165.57819230012802
30
0
10
40.458328588815171
20
161.81827455147385
30
0
10
39.379837339288322
20
158.1090020629895
30
0
0
LINE
5
276
100
AcDbEntity
8
0
100
AcDbLine
10
103.11826911889888
20
216.42752553027759
30
0
11
103.140515076475
21
216.50771861928172
31
0
0
LINE
5
277
100
AcDbEntity
8
0
100
AcDbLine
10
41.487595403458393
20
190.98687193625972
30
0
11
37.336275873977073
21
193.57197902169273
31
0
0
CIRCLE
5
278
100
AcDbEntity
8
0
100
AcDbCircle
10
42.23223001819153
20
194.61686216138958
30
0
40
1.7000000000000004
210
0
220
0
230
1
0
SPLINE
5
279
100
AcDbEntity
8
0
100
AcDbSpline
70
0
71
3
72
20
73
16
74
0
42
0.000000001
43
0.0000000001
44
0.0000000001
40
-0.021357865534255727
40
-0.021357865534255727
40
-0.021357865534255727
40
-0.021357865534255727
40
0
40
0
40
0
40
0.5
40
0.5
40
0.5
40
0.79815950573803685
40
0.79815950573803685
40
0.79815950573803685
40
1
40
1
40
1
40
1.0050985815217086
40
1.0050985815217086
40
1.0050985815217086
40
1.0050985815217086
10
17.336275873977097
20
193.57197902169273
30
0
10
17.338363402830819
20
193.71322090964844
30
0
10
17.340450931684579
20
193.85446279760379
30
0
10
17.342538460538321
20
193.99570468555925
30
0
10
17.391679400722833
20
197.32057329999213
30
0
10
17.538959290233898
20
200.1184107386967
30
0
10
17.873454111042584
20
202.11897048765945
30
0
10
18.072919731931005
20
203.31194229955966
30
0
10
18.321667159281205
20
204.20242621543599
30
0
10
18.775462090000907
20
204.84182928107799
30
0
10
19.08266072478305
20
205.27467622480472
30
0
10
19.559536518427208
20
205.61135249704199
30
0
10
20.099159088836718
20
205.63836515003368
30
0
10
20.10619621405036
20
205.63871741739959
30
0
10
20.113233339263843
20
205.63906968476556
30
0
10
20.120270464476047
20
205.63942195213119
30
0
0
LINE
5
280
100
AcDbEntity
8
0
100
AcDbLine
10
85.471150844250147
20
224.90928465311839
30
0
11
85.471150844250161
21
229.95959516028131
31
0
0
LINE
5
281
100
AcDbEntity
8
0
100
AcDbLine
10
65.471150844250133
20
152.08251975847884
30
0
11
64.471150844250118
21
152.0825197584789
31
0
0
SPLINE
5
282
100
AcDbEntity
8
0
100
AcDbSpline
70
0
71
3
72
20
73
16
74
0
42
0.000000001
43
0.0000000001
44
0.0000000001
40
-0.021357865534255727
40
-0.021357865534255727
40
-0.021357865534255727
40
-0.021357865534255727
40
0
40
0
40
0
40
0.5
40
0.5
40
0.5
40
0.79815950573803685
40
0.79815950573803685
40
0.79815950573803685
40
1
40
1
40
1
40
1.0050985815217086
40
1.0050985815217086
40
1.0050985815217086
40
1.0050985815217086
10
37.336275873977073
20
193.57197902169273
30
0
10
37.338363402830794
20
193.71322090964844
30
0
10
37.340450931684558
20
193.85446279760379
30
0
10
37.342538460538321
20
193.99570468555925
30
0
10
37.391679400722815
20
197.32057329999213
30
0
10
37.538959290233883
20
200.1184107386967
30
0
10
37.873454111042562
20
202.11897048765945
30
0
10
38.072919731930988
20
203.31194229955966
30
0
10
38.321667159281191
20
204.20242621543599
30
0
10
38.775462090000893
20
204.84182928107799
30
0
10
39.08266072478304
20
205.27467622480472
30
0
10
39.559536518427208
20
205.61135249704199
30
0
10
40.0991590888367
20
205.63836515003368
30
0
10
40.106196214050335
20
205.63871741739959
30
0
10
40.113233339263843
20
205.63906968476556
30
0
10
40.120270464476022
20
205.63942195213119
30
0
0
LINE
5
283
100
AcDbEntity
8
0
100
AcDbLine
10
105.47115084425016
20
202.0825197584789
30
0
11
105.47115084425016
21
200.08251975847884
31
0
0
SPLINE
5
284
100
AcDbEntity
8
0
100
AcDbSpline
70
0
71
3
72
11
73
7
74
0
42
0.000000001
43
0.0000000001
44
0.0000000001
40
0.0097318879816928727
40
0.0097318879816928727
40
0.0097318879816928727
40
0.0097318879816928727
40
0.63723143529929216
40
0.63723143529929216
40
0.63723143529929216
40
0.98136488140250955
40
0.98136488140250955
40
0.98136488140250955
40
0.98136488140250955
10
21.48759540345841
20
190.98687193625972
30
0
10
22.529482733956954
20
183.57659391506138
30
0
10
22.74124127982482
20
176.36431875273587
30
0
10
21.802086721910129
20
169.39842781227605
30
0
10
21.287035363195521
20
165.57819230012802
30
0
10
20.458328588815178
20
161.81827455147385
30
0
10
19.379837339288333
20
158.1090020629895
30
0
0
LINE
5
285
100
AcDbEntity
8
0
100
AcDbLine
10
65.471150844250133
20
200.08251975847884
30
0
11
65.471150844250133
21
152.08251975847884
31
0
0
LINE
5
286
100
AcDbEntity
8
0
100
AcDbLine
10
25.471150844250129
20
224.90928465311839
30
0
11
25.471150844250129
21
206.90328145850742
31
0
0
LINE
5
287
100
AcDbEntity
8
0
100
AcDbLine
10
105.47115084425016
20
206.90328145850742
30
0
11
105.47115084425016
21
202.0825197584789
31
0
0
SPLINE
5
288
100
AcDbEntity
8
0
100
AcDbSpline
70
0
71
3
72
11
73
7
74
0
42
0.000000001
43
0.0000000001
44
0.0000000001
40
0.0097318879816928727
40
0.0097318879816928727
40
0.0097318879816928727
40
0.0097318879816928727
40
0.63723143529929216
40
0.63723143529929216
40
0.63723143529929216
40
0.98136488140250955
40
0.98136488140250955
40
0.98136488140250955
40
0.98136488140250955
10
61.487595403458393
20
190.98687193625972
30
0
10
62.529482733956954
20
183.57659391506138
30
0
10
62.74124127982482
20
176.36431875273587
30
0
10
61.802086721910115
20
169.39842781227605
30
0
10
61.287035363195521
20
165.57819230012802
30
0
10
60.458328588815185
20
161.81827455147385
30
0
10
59.379837339288322
20
158.1090020629895
30
0
0
LINE
5
289
100
AcDbEntity
8
0
100
AcDbLine
10
103.140515076475
20
216.50771861928172
30
0
11
105.47115084425016
21
224.90928465311839
31
0
0
CIRCLE
5
290
100
AcDbEntity
8
0
100
AcDbCircle
10
22.232230018191533
20
156.98997203321699
30
0
40
1.1000000000000001
210
0
220
0
230
1
0
LINE
5
291
100
AcDbEntity
8
0
100
AcDbLine
10
105.47115084425016
20
224.90928465311839
30
0
11
105.47115084425016
21
206.90328145850742
31
0
0
LINE
5
292
100
AcDbEntity
8
0
100
AcDbLine
10
89.31735226758903
20
223.82086209247939
30
0
11
101.00878268227848
21
213.87347767317382
31
0
0
LINE
5
293
100
AcDbEntity
8
0
100
AcDbLine
10
77.385445802430837
20
158.11151333147845
30
0
11
78.703078575881818
21
147.38025555958785
31
0
0
LINE
5
294
100
AcDbEntity
8
0
100
AcDbLine
10
61.487595403458393
20
190.98687193625972
30
0
11
57.336275873977101
21
193.57197902169273
31
0
0
LINE
5
295
100
AcDbEntity
8
0
100
AcDbLine
10
85.471150844250147
20
152.0825197584789
30
0
11
85.471150844250147
21
150.08251975847892
31
0
0
LINE
5
296
100
AcDbEntity
8
0
100
AcDbLine
10
64.471150844250118
20
150.08251975847884
30
0
11
64.471150844250118
21
149.48251975847882
31
0
0
LINE
5
297
100
AcDbEntity
8
0
100
AcDbLine
10
25.471150844250129
20
147.39250677520096
30
0
11
18.701574315752229
21
147.39250677520096
31
0
0
LINE
5
298
100
AcDbEntity
8
0
100
AcDbLine
10
43.118269118898873
20
216.42752553027759
30
0
11
41.995641204012593
21
212.38063296613046
31
0
0
LINE
5
299
100
AcDbEntity
8
0
100
AcDbLine
10
83.140515076474983
20
216.50771861928172
30
0
11
85.471150844250147
21
224.90928465311839
31
0
0
LINE
5
300
100
AcDbEntity
8
0
100
AcDbLine
10
40.120270464476022
20
205.63942195213119
30
0
11
40.85686929312341
21
205.63475486800567
31
0
0
LINE
5
301
100
AcDbEntity
8
0
100
AcDbLine
10
64.471150844250118
20
152.0825197584789
30
0
11
64.471150844250118
21
152.68251975847886
31
0
0
LINE
5
302
100
AcDbEntity
8
0
100
AcDbLine
10
105.47115084425016
20
147.39250677520096
30
0
11
98.701574315752225
21
147.39250677520096
31
0
0
LINE
5
303
100
AcDbEntity
8
0
100
AcDbLine
10
65.471150844250133
20
150.08251975847884
30
0
11
65.471150844250133
21
147.39250677520096
31
0
0
LINE
5
304
100
AcDbEntity
8
0
100
AcDbLine
10
41.995641204012593
20
212.38063296613046
30
0
11
45.471150844250097
21
206.90328145850742
31
0
0
LINE
5
305
100
AcDbEntity
8
0
100
AcDbLine
10
21.48759540345841
20
190.98687193625972
30
0
11
17.336275873977097
21
193.57197902169273
31
0
0
LINE
5
306
100
AcDbEntity
8
0
100
AcDbLine
10
100.12027046447599
20
205.63942195213119
30
0
11
100.85686929312345
21
205.63475486800567
31
0
0
LINE
5
307
100
AcDbEntity
8
0
100
AcDbLine
10
20.120270464476047
20
205.63942195213119
30
0
11
20.856869293123435
21
205.63475486800567
31
0
0
LINE
5
308
100
AcDbEntity
8
0
100
AcDbLine
10
40.85686929312341
20
205.63475486800567
30
0
11
29.317352267589012
21
223.82086209247939
31
0
0
LINE
5
309
100
AcDbEntity
8
0
100
AcDbLine
10
29.317352267589012
20
223.82086209247939
30
0
11
41.008782682278479
21
213.87347767317382
31
0
0
LINE
5
310
100
AcDbEntity
8
0
100
AcDbLine
10
85.471150844250147
20
147.39250677520096
30
0
11
78.701574315752225
21
147.39250677520096
31
0
0
CIRCLE
5
311
100
AcDbEntity
8
0
100
AcDbCircle
10
102.23223001819152
20
194.61686216138958
30
0
40
1.1000000000000001
210
0
220
0
230
1
0
LINE
5
312
100
AcDbEntity
8
0
100
AcDbLine
10
81.008782682278479
20
213.87347767317382
30
0
11
85.471150844250161
21
229.95959516028131
31
0
0
LINE
5
313
100
AcDbEntity
8
0
100
AcDbLine
10
23.11826911889888
20
216.42752553027759
30
0
11
21.995641204012607
21
212.38063296613046
31
0
0
LINE
5
314
100
AcDbEntity
8
0
100
AcDbLine
10
9.3173522675890297
20
223.82086209247939
30
0
11
21.008782682278486
21
213.87347767317382
31
0
0
CIRCLE
5
315
100
AcDbEntity
8
0
100
AcDbCircle
10
82.23223001819153
20
194.61686216138958
30
0
40
1.7000000000000004
210
0
220
0
230
1
0
LINE
5
316
100
AcDbEntity
8
0
100
AcDbLine
10
25.471150844250129
20
200.08251975847884
30
0
11
25.471150844250129
21
152.0825197584789
31
0
0
LINE
5
317
100
AcDbEntity
8
0
100
AcDbLine
10
41.008782682278479
20
213.87347767317382
30
0
11
45.471150844250154
21
229.95959516028131
31
0
0
LINE
5
318
100
AcDbEntity
8
0
100
AcDbLine
10
61.995641204012621
20
212.38063296613046
30
0
11
65.471150844250133
21
206.90328145850742
31
0
0
LINE
5
319
100
AcDbEntity
8
0
100
AcDbLine
10
23.140515076474987
20
216.50771861928172
30
0
11
25.471150844250129
21
224.90928465311839
31
0
0
SPLINE
5
320
100
AcDbEntity
8
0
100
AcDbSpline
70
0
71
3
72
20
73
16
74
0
42
0.000000001
43
0.0000000001
44
0.0000000001
40
-0.021357865534255727
40
-0.021357865534255727
40
-0.021357865534255727
40
-0.021357865534255727
40
0
40
0
40
0
40
0.5
40
0.5
40
0.5
40
0.79815950573803685
40
0.79815950573803685
40
0.79815950573803685
40
1
40
1
40
1
40
1.0050985815217086
40
1.0050985815217086
40
1.0050985815217086
40
1.0050985815217086
10
97.336275873977073
20
193.57197902169273
30
0
10
97.338363402830794
20
193.71322090964844
30
0
10
97.340450931684586
20
193.85446279760379
30
0
10
97.342538460538321
20
193.99570468555925
30
0
10
97.391679400722808
20
197.32057329999213
30
0
10
97.538959290233876
20
200.1184107386967
30
0
10
97.873454111042562
20
202.11897048765945
30
0
10
98.072919731931023
20
203.31194229955966
30
0
10
98.321667159281247
20
204.20242621543599
30
0
10
98.775462090000943
20
204.84182928107799
30
0
10
99.082660724783054
20
205.27467622480472
30
0
10
99.559536518427194
20
205.61135249704199
30
0
10
100.09915908883673
20
205.63836515003368
30
0
10
100.10619621405036
20
205.63871741739959
30
0
10
100.11323333926384
20
205.63906968476556
30
0
10
100.12027046447599
20
205.63942195213119
30
0
0
LINE
5
321
100
AcDbEntity
8
0
100
AcDbLine
10
85.471150844250147
20
200.08251975847884
30
0
11
85.471150844250147
21
152.0825197584789
31
0
0
LINE
5
322
100
AcDbEntity
8
0
100
AcDbLine
10
85.471150844250147
20
206.90328145850742
30
0
11
85.471150844250147
21
202.0825197584789
31
0
0
LINE
5
323
100
AcDbEntity
8
0
100
AcDbLine
10
25.471150844250129
20
152.0825197584789
30
0
11
25.471150844250129
21
150.08251975847892
31
0
0
LINE
5
324
100
AcDbEntity
8
0
100
AcDbLine
10
85.471150844250147
20
224.90928465311839
30
0
11
85.471150844250147
21
206.90328145850742
31
0
0
LINE
5
325
100
AcDbEntity
8
0
100
AcDbLine
10
23.11826911889888
20
216.42752553027759
30
0
11
23.140515076474987
21
216.50771861928172
31
0
0
LINE
5
326
100
AcDbEntity
8
0
100
AcDbLine
10
57.385445802430837
20
158.11151333147845
30
0
11
58.703078575881833
21
147.38025555958785
31
0
0
LINE
5
327
100
AcDbEntity
8
0
100
AcDbLine
10
25.471150844250129
20
206.90328145850742
30
0
11
25.471150844250129
21
202.0825197584789
31
0
0
LINE
5
328
100
AcDbEntity
8
0
100
AcDbLine
10
45.471150844250097
20
224.90928465311839
30
0
11
45.471150844250154
21
229.95959516028131
31
0
0
CIRCLE
5
329
100
AcDbEntity
8
0
100
AcDbCircle
10
22.232230018191533
20
194.61686216138958
30
0
40
1.1000000000000001
210
0
220
0
230
1
0
LINE
5
330
100
AcDbEntity
8
0
100
AcDbLine
10
20.856869293123435
20
205.63475486800567
30
0
11
9.3173522675890297
21
223.82086209247939
31
0
0
LINE
5
331
100
AcDbEntity
8
0
100
AcDbLine
10
60.120270464476064
20
205.63942195213119
30
0
11
60.856869293123424
21
205.63475486800567
31
0
0
CIRCLE
5
332
100
AcDbEntity
8
0
100
AcDbCircle
10
42.23223001819153
20
156.98997203321699
30
0
40
1.7000000000000004
210
0
220
0
230
1
0
SPLINE
5
333
100
AcDbEntity
8
0
100
AcDbSpline
70
0
71
3
72
11
73
7
74
0
42
0.000000001
43
0.0000000001
44
0.0000000001
40
0.60174227844747885
40
0.60174227844747885
40
0.60174227844747885
40
0.60174227844747885
40
0.64928968652167418
40
0.64928968652167418
40
0.64928968652167418
40
0.91422646823008435
40
0.91422646823008435
40
0.91422646823008435
40
0.91422646823008435
10
97.385445802430851
20
158.11151333147845
30
0
10
97.475365068848106
20
158.12458329942228
30
0
10
97.566563281110291
20
158.13497753915073
30
0
10
97.658627677923562
20
158.14317116058132
30
0
10
98.171615577570478
20
158.18882647136013
30
0
10
98.742980944633004
20
158.16999977506148
30
0
10
99.379837339287889
20
158.10900206298962
30
0
0
LINE
5
334
100
AcDbEntity
8
0
100
AcDbLine
10
80.856869293123438
20
205.63475486800567
30
0
11
69.31735226758903
21
223.82086209247939
31
0
0
LINE
5
335
100
AcDbEntity
8
0
100
AcDbLine
10
21.008782682278486
20
213.87347767317382
30
0
11
25.471150844250161
21
229.95959516028131
31
0
0
LINE
5
336
100
AcDbEntity
8
0
100
AcDbLine
10
83.11826911889888
20
216.42752553027759
30
0
11
81.995641204012614
21
212.38063296613046
31
0
0
CIRCLE
5
337
100
AcDbEntity
8
0
100
AcDbCircle
10
102.23223001819152
20
156.98997203321699
30
0
40
1.1000000000000001
210
0
220
0
230
1
0
CIRCLE
5
338
100
AcDbEntity
8
0
100
AcDbCircle
10
62.232230018191537
20
156.98997203321699
30
0
40
1.7000000000000004
210
0
220
0
230
1
0
LINE
5
339
100
AcDbEntity
8
0
100
AcDbLine
10
81.487595403458371
20
190.98687193625972
30
0
11
77.336275873977101
21
193.57197902169273
31
0
0
LINE
5
340
100
AcDbEntity
8
0
100
AcDbLine
10
25.471150844250129
20
202.0825197584789
30
0
11
25.471150844250129
21
200.08251975847884
31
0
0
LINE
5
341
100
AcDbEntity
8
0
100
AcDbLine
10
45.471150844250097
20
224.90928465311839
30
0
11
45.471150844250097
21
206.90328145850742
31
0
0
LINE
5
342
100
AcDbEntity
8
0
100
AcDbLine
10
101.48759540345841
20
190.98687193625972
30
0
11
97.336275873977073
21
193.57197902169273
31
0
0
CIRCLE
5
343
100
AcDbEntity
8
0
100
AcDbCircle
10
62.232230018191537
20
194.61686216138958
30
0
40
1.7000000000000004
210
0
220
0
230
1
0
LINE
5
344
100
AcDbEntity
8
0
100
AcDbLine
10
65.471150844250133
20
150.08251975847884
30
0
11
64.471150844250118
21
150.08251975847884
31
0
0
LINE
5
345
100
AcDbEntity
8
0
100
AcDbLine
10
45.471150844250097
20
150.08251975847884
30
0
11
45.471150844250097
21
147.39250677520096
31
0
0
SPLINE
5
346
100
AcDbEntity
8
0
100
AcDbSpline
70
0
71
3
72
11
73
7
74
0
42
0.000000001
43
0.0000000001
44
0.0000000001
40
0.60174227844747885
40
0.60174227844747885
40
0.60174227844747885
40
0.60174227844747885
40
0.64928968652167418
40
0.64928968652167418
40
0.64928968652167418
40
0.91422646823008435
40
0.91422646823008435
40
0.91422646823008435
40
0.91422646823008435
10
57.385445802430837
20
158.11151333147845
30
0
10
57.475365068848106
20
158.12458329942228
30
0
10
57.566563281110284
20
158.13497753915073
30
0
10
57.658627677923576
20
158.14317116058132
30
0
10
58.171615577570499
20
158.18882647136013
30
0
10
58.742980944632983
20
158.16999977506148
30
0
10
59.379837339287853
20
158.10900206298962
30
0
0
LINE
5
347
100
AcDbEntity
8
0
100
AcDbLine
10
45.471150844250097
20
202.0825197584789
30
0
11
45.471150844250097
21
200.08251975847884
31
0
0
LINE
5
348
100
AcDbEntity
8
0
100
AcDbLine
10
63.118269118898873
20
216.42752553027759
30
0
11
61.995641204012621
21
212.38063296613046
31
0
0
LINE
5
349
100
AcDbEntity
8
0
100
AcDbLine
10
105.47115084425016
20
150.08251975847884
30
0
11
105.47115084425016
21
147.39250677520096
31
0
0
SPLINE
5
350
100
AcDbEntity
8
0
100
AcDbSpline
70
0
71
3
72
11
73
7
74
0
42
0.000000001
43
0.0000000001
44
0.0000000001
40
0.60174227844747885
40
0.60174227844747885
40
0.60174227844747885
40
0.60174227844747885
40
0.64928968652167418
40
0.64928968652167418
40
0.64928968652167418
40
0.91422646823008435
40
0.91422646823008435
40
0.91422646823008435
40
0.91422646823008435
10
17.385445802430848
20
158.11151333147845
30
0
10
17.475365068848117
20
158.12458329942228
30
0
10
17.566563281110312
20
158.13497753915073
30
0
10
17.65862767792358
20
158.14317116058132
30
0
10
18.17161557757052
20
158.18882647136013
30
0
10
18.742980944632983
20
158.16999977506148
30
0
10
19.37983733928785
20
158.10900206298962
30
0
0
SPLINE
5
351
100
AcDbEntity
8
0
100
AcDbSpline
70
0
71
3
72
11
73
7
74
0
42
0.000000001
43
0.0000000001
44
0.0000000001
40
0.0097318879816928727
40
0.0097318879816928727
40
0.0097318879816928727
40
0.0097318879816928727
40
0.63723143529929216
40
0.63723143529929216
40
0.63723143529929216
40
0.98136488140250955
40
0.98136488140250955
40
0.98136488140250955
40
0.98136488140250955
10
81.487595403458371
20
190.98687193625972
30
0
10
82.529482733956939
20
183.57659391506138
30
0
10
82.741241279824806
20
176.36431875273587
30
0
10
81.802086721910115
20
169.39842781227605
30
0
10
81.2870353631955
20
165.57819230012802
30
0
10
80.458328588815178
20
161.81827455147385
30
0
10
79.379837339288343
20
158.1090020629895
30
0
0
LINE
5
352
100
AcDbEntity
8
0
100
AcDbLine
10
101.9956412040126
20
212.38063296613046
30
0
11
105.47115084425016
21
206.90328145850742
31
0
0
SPLINE
5
353
100
AcDbEntity
8
0
100
AcDbSpline
70
0
71
3
72
11
73
7
74
0
42
0.000000001
43
0.0000000001
44
0.0000000001
40
0.0097318879816928727
40
0.0097318879816928727
40
0.0097318879816928727
40
0.0097318879816928727
40
0.63723143529929216
40
0.63723143529929216
40
0.63723143529929216
40
0.98136488140250955
40
0.98136488140250955
40
0.98136488140250955
40
0.98136488140250955
10
101.48759540345841
20
190.98687193625972
30
0
10
102.52948273395695
20
183.57659391506138
30
0
10
102.74124127982482
20
176.36431875273587
30
0
10
101.80208672191014
20
169.39842781227605
30
0
10
101.28703536319551
20
165.57819230012802
30
0
10
100.45832858881522
20
161.81827455147385
30
0
10
99.379837339288315
20
158.1090020629895
30
0
0
LINE
5
354
100
AcDbEntity
8
0
100
AcDbLine
10
65.471150844250133
20
202.0825197584789
30
0
11
64.471150844250118
21
202.0825197584789
31
0
0
LINE
5
355
100
AcDbEntity
8
0
100
AcDbLine
10
64.471150844250118
20
200.08251975847884
30
0
11
64.471150844250118
21
199.48251975847882
31
0
0
LINE
5
356
100
AcDbEntity
8
0
100
AcDbLine
10
103.11826911889888
20
216.42752553027759
30
0
11
101.9956412040126
21
212.38063296613046
31
0
0
LINE
5
357
100
AcDbEntity
8
0
100
AcDbLine
10
43.140515076474983
20
216.50771861928172
30
0
11
45.471150844250097
21
224.90928465311839
31
0
0
LWPOLYLINE
5
358
100
AcDbEntity
8
0
100
AcDbPolyline
90
12
70
1
43
0.0
10
4.9749999999999206
20
136.45223525647236
10
7.3562499999998954
20
136.45223525647236
10
26.406249999999893
20
136.45223525647236
10
269.29374999999987
20
136.45223525647231
10
288.34374999999989
20
136.45223525647231
10
290.72500000000002
20
136.45223525647231
10
290.72500000000002
20
212.6522352564723
10
290.72500000000002
20
231.70223525647231
10
271.67499999999995
20
231.70223525647231
10
24.024999999999928
20
231.7022352564727
10
4.9749999999999206
20
231.7022352564727
10
4.9749999999999206
20
212.65223525647269
0
LINE
5
359
100
AcDbEntity
8
0
100
AcDbLine
10
60.856869293123424
20
205.63475486800567
30
0
11
49.317352267589037
21
223.82086209247939
31
0
0
LWPOLYLINE
5
360
100
AcDbEntity
8
0
100
AcDbPolyline
90
28
70
1
43
0.0
10
271.67499999999995
20
236.46473525647235
10
233.57500000000005
20
236.46473525647235
10
214.52500000000003
20
236.46473525647235
10
214.52500000000003
20
255.51473525647236
10
233.57500000000005
20
255.51473525647236
10
271.67499999999995
20
255.51473525647236
10
287.69999999999999
20
255.51473525647236
10
287.70000000000016
20
270.98973525647239
10
5.4999999999998597
20
270.98973525647239
42
0.41421356237309503
10
-4.5000000000001155
20
260.98973525647244
10
-4.5000000000001013
20
245.98973525647236
10
-4.5000000000001013
20
130.9772352564726
42
0.41421356237309503
10
5.499999999999881
20
120.97723525647261
10
18.071874999999906
20
120.97723525647261
10
352.11250000000001
20
120.97723525647254
42
0.41421356237309503
10
362.11250000000013
20
130.97723525647268
10
362.11250000000007
20
260.98973525647216
42
0.41421356237309503
10
352.11249999999984
20
270.98973525647239
10
298.51249999999999
20
270.98973525647227
10
298.51249999999999
20
255.51473525647231
10
314.53750000000008
20
255.51473525647231
10
333.58749999999981
20
255.51473525647231
10
352.63749999999987
20
255.51473525647231
10
352.63749999999987
20
236.46473525647235
10
333.58749999999981
20
236.46473525647235
10
314.53750000000008
20
236.46473525647235
10
295.48750000000007
20
236.46473525647235
10
290.72500000000002
20
236.46473525647235
0
LWPOLYLINE
5
361
100
AcDbEntity
8
0
100
AcDbPolyline
90
8
70
1
43
0.0
10
270.29106864939308
20
28.273694072978998
42
-0.41421356875820026
10
269.29106864939297
20
29.273694094779053
10
269.29106864939217
20
41.273694072979055
42
-0.41421356237312623
10
270.29106864939308
20
42.273694072980064
10
282.29106864939303
20
42.273694072978991
42
-0.41421355597192738
10
283.29106864939308
20
41.27369409483407
10
283.29106864939308
20
29.273694072979069
42
-0.41421356237310542
10
282.29106864939303
20
28.273694072979087
0
LWPOLYLINE
5
362
100
AcDbEntity
8
0
100
AcDbPolyline
90
5
70
1
43
0.0
10
295.4874999999999
20
231.7022352564727
10
295.4874999999999
20
212.65223525647269
10
295.4874999999999
20
194.00000038743019
10
352.63750000000016
20
194.00000038743019
10
352.63750000000016
20
231.7022352564727
0
LINE
5
363
100
AcDbEntity
8
0
100
AcDbLine
10
45.471150844250097
20
206.90328145850742
30
0
11
45.471150844250097
21
202.0825197584789
31
0
0
LWPOLYLINE
5
364
100
AcDbEntity
8
0
100
AcDbPolyline
90
6
70
1
43
0.0
10
41.444709803926969
20
202.68251975847886
10
44.471150844250104
20
202.68251975847886
10
44.471150844250104
20
202.0825197584789
10
44.471150844250104
20
200.08251975847884
10
44.471150844250104
20
199.48251975847882
10
41.444709803926969
20
199.48251975847882
0
SPLINE
5
365
100
AcDbEntity
8
0
100
AcDbSpline
70
0
71
3
72
20
73
16
74
0
42
0.000000001
43
0.0000000001
44
0.0000000001
40
-0.021357865534255727
40
-0.021357865534255727
40
-0.021357865534255727
40
-0.021357865534255727
40
0
40
0
40
0
40
0.5
40
0.5
40
0.5
40
0.79815950573803685
40
0.79815950573803685
40
0.79815950573803685
40
1
40
1
40
1
40
1.0050985815217086
40
1.0050985815217086
40
1.0050985815217086
40
1.0050985815217086
10
77.336275873977101
20
193.57197902169273
30
0
10
77.338363402830808
20
193.71322090964844
30
0
10
77.340450931684586
20
193.85446279760379
30
0
10
77.342538460538307
20
193.99570468555925
30
0
10
77.391679400722808
20
197.32057329999213
30
0
10
77.53895929023389
20
200.1184107386967
30
0
10
77.873454111042577
20
202.11897048765945
30
0
10
78.072919731930995
20
203.31194229955966
30
0
10
78.321667159281233
20
204.20242621543599
30
0
10
78.7754620900009
20
204.84182928107799
30
0
10
79.082660724783054
20
205.27467622480472
30
0
10
79.559536518427194
20
205.61135249704199
30
0
10
80.0991590888367
20
205.63836515003368
30
0
10
80.106196214050343
20
205.63871741739959
30
0
10
80.113233339263843
20
205.63906968476556
30
0
10
80.120270464476008
20
205.63942195213119
30
0
0
LINE
5
366
100
AcDbEntity
8
0
100
AcDbLine
10
61.444709803926976
20
199.48251975847882
30
0
11
61.444709803926976
21
202.68251975847886
31
0
0
LINE
5
367
100
AcDbEntity
8
0
100
AcDbLine
10
64.471150844250118
20
199.48251975847882
30
0
11
61.444709803926976
21
199.48251975847882
31
0
0
LINE
5
368
100
AcDbEntity
8
0
100
AcDbLine
10
43.118269118898873
20
216.42752553027759
30
0
11
43.140515076474983
21
216.50771861928172
31
0
0
LINE
5
369
100
AcDbEntity
8
0
100
AcDbLine
10
65.471150844250133
20
224.90928465311839
30
0
11
65.471150844250147
21
229.95959516028131
31
0
0
LINE
5
370
100
AcDbEntity
8
0
100
AcDbLine
10
45.471150844250097
20
200.08251975847884
30
0
11
45.471150844250097
21
152.0825197584789
31
0
0
SPLINE
5
371
100
AcDbEntity
8
0
100
AcDbSpline
70
0
71
3
72
11
73
7
74
0
42
0.000000001
43
0.0000000001
44
0.0000000001
40
0.60174227844747885
40
0.60174227844747885
40
0.60174227844747885
40
0.60174227844747885
40
0.64928968652167418
40
0.64928968652167418
40
0.64928968652167418
40
0.91422646823008435
40
0.91422646823008435
40
0.91422646823008435
40
0.91422646823008435
10
37.38544580243083
20
158.11151333147845
30
0
10
37.475365068848092
20
158.12458329942228
30
0
10
37.566563281110284
20
158.13497753915073
30
0
10
37.658627677923562
20
158.14317116058132
30
0
10
38.171615577570492
20
158.18882647136013
30
0
10
38.742980944632976
20
158.16999977506148
30
0
10
39.379837339287832
20
158.10900206298962
30
0
0
LINE
5
372
100
AcDbEntity
8
0
100
AcDbLine
10
64.471150844250118
20
202.0825197584789
30
0
11
64.471150844250118
21
202.68251975847886
31
0
0
LWPOLYLINE
5
373
100
AcDbEntity
8
0
100
AcDbPolyline
90
8
70
1
43
0.0
10
695.06250000000011
20
47.67723525647267
10
695.06250000000011
20
60.677235256472663
42
-0.41421356237328233
10
695.5625
20
61.177235256472656
10
708.56249999999989
20
61.177235256472628
42
-0.4142135623738078
10
709.0625
20
60.677235256472713
10
709.06250000000023
20
47.67723525647267
42
-0.41421356237337598
10
708.5625
20
47.177235256472827
10
695.5625
20
47.177235256472599
42
-0.41421356237331874
0
LWPOLYLINE
5
374
100
AcDbEntity
8
0
100
AcDbPolyline
90
8
70
1
43
0.0
10
494.75000000000011
20
84.489735256472187
42
0.41421356237307422
10
494.25000000000011
20
84.989735256472272
10
481.25
20
84.989735256472187
42
0.41421356237311585
10
480.75
20
84.489735256472187
10
480.75
20
71.489735256472429
42
0.41421356237326673
10
481.25000000000006
20
70.9897352564724
10
494.25000000000011
20
70.989735256472343
42
0.41421356237307944
10
494.75000000000011
20
71.489735256472429
0
LWPOLYLINE
5
375
100
AcDbEntity
8
0
100
AcDbPolyline
90
36
70
1
43
0.0
10
532.70360527049218
20
-29.52276331301633
10
560.38800133466793
20
-29.52276331301633
10
560.38800133466725
20
-13.937765480242135
42
-0.4142135623730866
10
561.38800133466907
20
-12.937765480240502
10
566.88799859285439
20
-12.937765480242543
42
-0.41421415593785205
10
567.88800061941129
20
-13.937765480241143
10
567.88800061941129
20
-29.52276331301633
10
578.3812499999998
20
-29.522764743527414
10
578.38125000000002
20
-15.522764743527366
42
-0.41421356237300266
10
578.8812499999998
20
-15.02276474352735
10
579.38800133466793
20
-15.022764743527357
10
579.38800133466725
20
-13.937765480242135
42
-0.41421356237315682
10
580.38800133466907
20
-12.937765480240513
10
585.8879985928545
20
-12.937765480242536
42
-0.41421415593777072
10
586.88800061941129
20
-13.937765480241143
10
586.88800061941129
20
-15.02276474352735
10
591.88125000000002
20
-15.022764743527365
42
-0.41421356237294155
10
592.38125000000002
20
-15.522764743527357
10
592.38125000000002
20
-28.522764743527414
42
-0.41421356237294155
10
591.88125000000002
20
-29.022764743527411
10
586.88800061941129
20
-29.022764743527411
10
586.88800061940935
20
-31.877765179833091
42
-0.41421415593799576
10
585.88800061941038
20
-32.877767206391013
10
462.01199927628039
20
-32.877767206391063
42
-0.41421415593767968
10
461.01199927628033
20
-31.877765179833091
10
461.01199927627817
20
-13.937765480245554
42
-0.41421361038118987
10
462.01199944019294
20
-12.937765480240738
10
470.51175939991799
20
-12.937765480240682
42
-0.41428416686373948
10
471.51200045271798
20
-13.937765509293625
10
471.51200000000364
20
-29.522763313015616
10
506.80365339059279
20
-29.522763313015616
10
506.80365339059279
20
-27.899063817767953
10
506.80365339059313
20
-15.876299823520913
42
-0.4142135623730534
10
507.80365339059301
20
-14.876299823520895
10
531.70360527049309
20
-14.876299823521837
42
-0.41421356237304952
10
532.70360527049218
20
-15.876299823520913
0
LWPOLYLINE
5
376
100
AcDbEntity
8
0
100
AcDbPolyline
90
8
70
1
43
0.0
10
661.29106864939308
20
29.273694072979069
42
-0.41421356237295975
10
660.29106864939297
20
28.273694072979122
10
648.2910686493932
20
28.273694072978806
42
-0.41421356875808968
10
647.29106864939297
20
29.273694094779053
10
647.29106864939297
20
41.273694072979055
42
-0.41421356237308721
10
648.29106864939399
20
42.273694072980128
10
660.29106864939297
20
42.273694072979026
42
-0.41421355597175052
10
661.29106864939286
20
41.27369409483407
0
LWPOLYLINE
5
377
100
AcDbEntity
8
0
100
AcDbPolyline
90
8
70
1
43
0.0
10
390.26249999999999
20
41.627235256472652
42
-0.41421356237336038
10
390.76249999999993
20
42.12723525647263
10
403.76249999999999
20
42.127235256472659
42
-0.41421356237294937
10
404.26249999999993
20
41.627235256472652
10
404.26249999999993
20
28.627235256472691
42
-0.41421356237311324
10
403.76249999999999
20
28.127235256472694
10
390.76249999999993
20
28.127235256472698
42
-0.41421356237306639
10
390.26250000000005
20
28.627235256472691
0
LWPOLYLINE
5
378
100
AcDbEntity
8
0
100
AcDbPolyline
90
17
70
1
43
0.0
10
651.81840841986264
20
4.1733333673269737
10
665.05342428909205
20
4.1733333673820479
42
-0.41500890398681917
10
666.0534242890958
20
3.1733333673818076
10
666.0534242890958
20
-8.8266666326236649
42
-0.4150089039868981
10
665.05342428909205
20
-9.8266666326239012
10
657.82341330269321
20
-9.8266666326209382
10
657.82341330287284
20
-12.826666135031701
42
-0.41400161054446105
10
656.8234133026931
20
-13.826666632621061
10
651.82341330273312
20
-13.826666632680949
10
632.94740622265272
20
-13.826666632680919
10
627.94740622267329
20
-13.826666632620864
42
-0.41397094759914155
10
626.94740622269353
20
-12.826666632620396
10
626.94740622269353
20
-9.8266666326209382
10
626.8604311250333
20
-9.8266666326809489
42
-0.41400146484369943
10
625.86043112503307
20
-8.8266666326807925
10
625.86043112499294
20
3.1733333673389335
42
-0.41400146483198819
10
626.86043112499328
20
4.1733333673790165
0
LWPOLYLINE
5
379
100
AcDbEntity
8
0
100
AcDbPolyline
90
4
70
1
43
0.0
10
19.599999999999799
20
64.183485256472153
10
9.3999999999998263
20
64.183485256472295
42
-0.99999999999999989
10
9.3999999999998529
20
67.983485256472306
10
19.599999999999788
20
67.983485256472449
42
-0.99999999999999989
0
LWPOLYLINE
5
380
100
AcDbEntity
8
0
100
AcDbPolyline
90
20
70
1
43
0.0
10
18.47450000000363
20
-10.472763313015603
10
19.412499731778851
20
-10.472763313015603
10
19.412499999999785
20
2.5272352564726934
42
-0.41421356237309653
10
20.412499999999728
20
3.5272352564726339
10
32.41249999999976
20
3.5272352564727094
42
-0.41421356237309048
10
33.412499999999774
20
2.527235256472693
10
33.412498301266453
20
-10.472763313016317
10
34.350501334667875
20
-10.472763313016317
10
34.350501334667236
20
5.1122345197578767
42
-0.41421356237309859
10
35.350501334668891
20
6.1122345197595243
10
40.850498592854223
20
6.112234519757469
42
-0.4142141559378319
10
41.850500619411221
20
5.1122345197588732
10
41.850500619411292
20
-12.827765179833087
42
-0.41421474950307996
10
40.850498592853441
20
-13.827767206391005
10
11.974499440192785
20
-13.827767206391057
42
-0.41421420394653607
10
10.974499276280294
20
-12.827765179833081
10
10.974499276278083
20
5.1122345197544572
42
-0.41421361038124321
10
11.974499440192929
20
6.1122345197592409
10
17.474259399945598
20
6.11223451975924
42
-0.41428416685574398
10
18.474500452717848
20
5.1122344907063884
0
LWPOLYLINE
5
381
100
AcDbEntity
8
0
100
AcDbPolyline
90
8
70
1
43
0.0
10
182.92499999999995
20
42.127235256472709
42
-0.41421356237303258
10
183.42500000000001
20
41.62723525647263
10
183.42500000000001
20
28.627235256472691
42
-0.4142135623732433
10
182.92500000000001
20
28.127235256472645
10
169.92500000000004
20
28.127235256472652
42
-0.41421356237311324
10
169.42500000000001
20
28.627235256472691
10
169.42500000000001
20
41.62723525647263
42
-0.4142135623732251
10
169.92500000000004
20
42.127235256472638
0
LWPOLYLINE
5
382
100
AcDbEntity
8
0
100
AcDbPolyline
90
8
70
1
43
0.0
10
255.15000000000001
20
84.489735256472187
42
-0.41421356237311585
10
255.65000000000001
20
84.989735256472301
10
268.65000000000003
20
84.989735256472287
42
-0.41421356237310542
10
269.14999999999998
20
84.489735256472187
10
269.14999999999998
20
71.489735256472429
42
-0.4142135623731783
10
268.64999999999998
20
70.989735256472358
10
255.65000000000003
20
70.989735256472329
42
-0.41421356237317308
10
255.15000000000001
20
71.489735256472429
0
LWPOLYLINE
5
383
100
AcDbEntity
8
0
100
AcDbPolyline
90
20
70
1
43
0.0
10
261.23800133466858
20
8.0772366869837242
42
-0.41421356237306445
10
260.23800133466688
20
7.0772366869820633
10
254.73800407648159
20
7.0772366869841239
42
-0.41421415593784261
10
253.73800204992455
20
8.0772366869827295
10
253.73800204992452
20
26.01723638657468
42
-0.41421474950306109
10
254.73800407648241
20
27.017238413132624
10
283.61400322914301
20
27.017238413132656
42
-0.41421420394653735
10
284.6140033930555
20
26.01723638657468
10
284.61400339305783
20
8.0772366869871366
42
-0.41421361038129034
10
283.6140032291429
20
7.077236686982368
10
278.11424326939027
20
7.0772366869823964
42
-0.41428416685578429
10
277.11400221661802
20
8.0772367160352232
10
277.11400266933214
20
23.662234519757209
10
276.17600293755697
20
23.662234519757209
10
276.17600266933601
20
10.662235950268908
42
-0.41421356237309764
10
275.17600266933607
20
9.6622359502689612
10
263.17600266933607
20
9.6622359502688973
42
-0.4142135623730937
10
262.17600266933607
20
10.662235950268908
10
262.17600436806936
20
23.662234519757924
10
261.23800133466801
20
23.662234519757924
0
LWPOLYLINE
5
384
100
AcDbEntity
8
0
100
AcDbPolyline
90
8
70
1
43
0.0
10
159.61250000000001
20
3.527235256472645
10
159.61250000000001
20
-9.4727647435273923
42
-0.41421356237298185
10
159.11250000000001
20
-9.9727647435273941
10
146.11250000000001
20
-9.9727647435273976
42
-0.41421356237309309
10
145.61250000000001
20
-9.4727647435273923
10
145.61250000000001
20
3.527235256472645
42
-0.4142135623730947
10
146.11250000000001
20
4.0272352564726512
10
159.11250000000001
20
4.0272352564726477
42
-0.41421356237295714
0
LWPOLYLINE
5
385
100
AcDbEntity
8
0
100
AcDbPolyline
90
8
70
1
43
0.0
10
689.51250000000016
20
42.127235256472673
42
-0.41421356237331874
10
690.01250000000016
20
41.627235256472602
10
690.01250000000016
20
28.627235256472652
42
-0.41421356237327711
10
689.51250000000016
20
28.12723525647268
10
676.51250000000016
20
28.12723525647263
42
-0.41421356237304041
10
676.01250000000039
20
28.627235256472652
10
676.01250000000039
20
41.627235256472602
42
-0.41421356237271523
10
676.51250000000016
20
42.127235256472588
0
LWPOLYLINE
5
386
100
AcDbEntity
8
0
100
AcDbPolyline
90
8
70
1
43
0.0
10
197.21250000000001
20
-9.9727647435273887
10
184.21250000000001
20
-9.9727647435273994
42
-0.41421356237314444
10
183.71250000000001
20
-9.4727647435273798
10
183.71250000000003
20
3.527235256472645
42
-0.41421356237294121
10
184.21250000000001
20
4.0272352564726397
10
197.21250000000001
20
4.0272352564726681
42
-0.41421356237301243
10
197.71250000000009
20
3.5272352564726592
10
197.71250000000009
20
-9.4727647435273958
42
-0.4142135623729214
0
LWPOLYLINE
5
387
100
AcDbEntity
8
0
100
AcDbPolyline
90
8
70
1
43
0.0
10
117.03749999999999
20
9.5772352564726404
10
117.03750000000001
20
22.577235256472683
42
-0.41421356237310542
10
117.53750000000004
20
23.077235256472729
10
130.53750000000005
20
23.077235256472687
42
-0.41421356237313145
10
131.03749999999994
20
22.577235256472722
10
131.03749999999999
20
9.5772352564726404
42
-0.41421356237315093
10
130.53750000000002
20
9.077235256472644
10
117.53749999999999
20
9.0772352564726493
42
-0.41421356237310608
0
LWPOLYLINE
5
388
100
AcDbEntity
8
0
100
AcDbPolyline
90
8
70
1
43
0.0
10
336.61250000000001
20
28.127235256472723
42
-0.41421356237302737
10
336.11250000000013
20
28.627235256472652
10
336.11250000000013
20
41.627235256472602
42
-0.41421356237365692
10
336.61250000000001
20
42.127235256472588
10
349.61249999999995
20
42.127235256472531
42
-0.41421356237303258
10
350.11250000000013
20
41.627235256472666
10
350.11250000000013
20
28.627235256472652
42
-0.41421356237311846
10
349.61249999999995
20
28.12723525647268
0
LWPOLYLINE
5
389
100
AcDbEntity
8
0
100
AcDbPolyline
90
8
70
1
43
0.0
10
145.32499999999999
20
41.62723525647263
10
145.32499999999999
20
28.627235256472691
42
-0.41421356237311585
10
144.8249999999999
20
28.127235256472648
10
131.82500000000002
20
28.127235256472677
42
-0.414213562373069
10
131.32499999999999
20
28.627235256472691
10
131.32499999999999
20
41.62723525647263
42
-0.41421356237306384
10
131.82499999999999
20
42.127235256472666
10
144.8249999999999
20
42.127235256472659
42
-0.41421356237304302
0
LWPOLYLINE
5
390
100
AcDbEntity
8
0
100
AcDbPolyline
90
8
70
1
43
0.0
10
74.674999999999898
20
42.12723525647263
10
87.674999999999869
20
42.12723525647263
42
-0.41421356237305862
10
88.174999999999869
20
41.62723525647263
10
88.175000000000011
20
28.627235256472691
42
-0.41421356237302998
10
87.674999999999898
20
28.127235256472613
10
74.674999999999898
20
28.127235256472677
42
-0.41421356237312623
10
74.174999999999869
20
28.627235256472691
10
74.174999999999898
20
41.62723525647263
42
-0.414213562373069
0
LWPOLYLINE
5
391
100
AcDbEntity
8
0
100
AcDbPolyline
90
8
70
1
43
0.0
10
212.78750000000002
20
23.077235256472722
10
225.78749999999999
20
23.077235256472722
42
-0.41421356237294676
10
226.28749999999999
20
22.577235256472683
10
226.28749999999999
20
9.5772352564726226
42
-0.4142135623728635
10
225.78749999999999
20
9.0772352564725765
10
212.78750000000002
20
9.0772352564726049
42
-0.41421356237295065
10
212.28750000000005
20
9.5772352564726138
10
212.28750000000002
20
22.577235256472683
42
-0.41421356237294676
0
LWPOLYLINE
5
392
100
AcDbEntity
8
0
100
AcDbPolyline
90
6
70
1
43
0.0
10
84.471150844250104
20
150.08251975847884
10
84.471150844250104
20
149.48251975847882
10
81.444709803926983
20
149.48251975847882
10
81.444709803926983
20
152.68251975847878
10
84.471150844250104
20
152.68251975847886
10
84.471150844250104
20
152.08251975847884
0
LINE
5
393
100
AcDbEntity
8
0
100
AcDbLine
10
63.140515076474983
20
216.50771861928172
30
0
11
65.471150844250133
21
224.90928465311839
31
0
0
LINE
5
394
100
AcDbEntity
8
0
100
AcDbLine
10
65.471150844250133
20
147.39250677520096
30
0
11
58.701574315752232
21
147.39250677520096
31
0
0
LINE
5
395
100
AcDbEntity
8
0
100
AcDbLine
10
49.317352267589037
20
223.82086209247939
30
0
11
61.008782682278493
21
213.87347767317382
31
0
0
ARC
5
396
100
AcDbEntity
8
0
100
AcDbCircle
10
451.38749999999993
20
-28.522764743527368
30
0
40
0.50000000000001599
210
0
220
0
230
1
100
AcDbArc
50
-90
51
0
0
LINE
5
397
100
AcDbEntity
8
0
100
AcDbLine
10
17.385445802430848
20
158.11151333147845
30
0
11
18.703078575881825
21
147.38025555958785
31
0
0
ARC
5
398
100
AcDbEntity
8
0
100
AcDbCircle
10
-436.00625000000002
20
-28.522764743527418
30
0
40
0.49999999999994493
210
-0
220
0
230
-1
100
AcDbArc
50
-89.999999999986969
51
0
0
LINE
5
399
100
AcDbEntity
8
0
100
AcDbLine
10
435.50625000000014
20
-28.522764743527411
30
0
11
435.50624999999997
21
-15.522764743527373
31
0
0
LWPOLYLINE
5
400
100
AcDbEntity
8
0
100
AcDbPolyline
90
4
70
1
43
0.0
10
395.02499999999992
20
255.51473525647236
10
395.02499999999992
20
236.46473525647235
10
375.97499999999991
20
236.46473525647235
10
375.97499999999991
20
255.51473525647236
0
LWPOLYLINE
5
401
100
AcDbEntity
8
0
100
AcDbPolyline
90
12
70
1
43
0.0
10
395.02499999999998
20
231.7022352564727
10
375.97499999999997
20
231.7022352564727
10
375.97499999999997
20
212.65223525647269
10
375.97499999999997
20
136.45223525647236
10
378.35624999999993
20
136.45223525647236
10
397.40624999999994
20
136.45223525647236
10
640.29374999999982
20
136.45223525647231
10
659.34374999999989
20
136.45223525647231
10
661.72500000000014
20
136.45223525647231
10
661.72500000000014
20
212.6522352564723
10
661.72500000000014
20
231.70223525647231
10
642.67499999999995
20
231.70223525647231
0
LWPOLYLINE
5
402
100
AcDbEntity
8
0
100
AcDbPolyline
90
8
70
1
43
0.0
10
433.12499999999994
20
255.51473525647236
10
414.07499999999993
20
255.51473525647236
10
414.07499999999993
20
236.46473525647235
10
433.12499999999994
20
236.46473525647235
10
471.22500000000002
20
236.46473525647235
10
490.27500000000003
20
236.46473525647235
10
490.27500000000003
20
255.51473525647236
10
471.22500000000002
20
255.51473525647236
0
LWPOLYLINE
5
403
100
AcDbEntity
8
0
100
AcDbPolyline
90
10
70
1
43
0.0
10
704.58750000000009
20
155.50223525647266
10
723.63750000000005
20
155.50223525647257
10
723.63750000000005
20
136.45223525647259
10
704.58750000000009
20
136.45223525647259
10
685.53750000000014
20
136.45223525647262
10
666.48749999999995
20
136.45223525647262
10
666.48749999999995
20
155.50223525647266
10
685.53750000000014
20
155.50223525647266
10
685.53750000000014
20
174.55223525647261
10
704.58750000000009
20
174.55223525647261
0
LWPOLYLINE
5
404
100
AcDbEntity
8
0
100
AcDbPolyline
90
8
70
1
43
0.0
10
556.95000000000005
20
255.51473525647236
10
518.85000000000002
20
255.51473525647236
10
499.79999999999995
20
255.51473525647236
10
499.79999999999995
20
236.46473525647235
10
518.85000000000002
20
236.46473525647235
10
556.95000000000005
20
236.46473525647235
10
576
20
236.46473525647235
10
576
20
255.51473525647236
0
LWPOLYLINE
5
405
100
AcDbEntity
8
0
100
AcDbPolyline
90
8
70
1
43
0.0
10
604.57500000000005
20
236.46473525647235
10
585.52500000000009
20
236.46473525647235
10
585.52500000000009
20
255.51473525647236
10
604.57500000000005
20
255.51473525647236
10
642.67499999999995
20
255.51473525647236
10
661.72500000000014
20
255.51473525647214
10
661.72500000000014
20
236.46473525647235
10
642.67499999999995
20
236.46473525647235
0
LWPOLYLINE
5
406
100
AcDbEntity
8
0
100
AcDbPolyline
90
5
70
1
43
0.0
10
666.48749999999995
20
194.00000038743019
10
723.63750000000005
20
194.00000038743019
10
723.63750000000005
20
231.7022352564727
10
666.48749999999995
20
231.7022352564727
10
666.48749999999995
20
212.65223525647269
0
LWPOLYLINE
5
407
100
AcDbEntity
8
0
100
AcDbPolyline
90
9
70
1
43
0.0
10
669.51250000000005
20
255.51473525647231
10
685.53750000000014
20
255.51473525647231
10
704.58749999999986
20
255.51473525647231
10
723.63749999999982
20
255.51473525647231
10
723.63749999999982
20
236.46473525647235
10
704.58749999999986
20
236.46473525647235
10
685.53750000000014
20
236.46473525647235
10
666.48750000000041
20
236.46473525647235
10
666.48750000000041
20
255.51473525647208
0
LINE
5
408
100
AcDbEntity
8
0
100
AcDbLine
10
661.72500000000014
20
236.46473525647235
30
0
11
642.67500000000018
21
236.46473525647235
31
0
0
LINE
5
409
100
AcDbEntity
8
0
100
AcDbLine
10
642.67500000000018
20
255.51473525647214
30
0
11
661.72500000000014
21
255.51473525647214
31
0
0
CIRCLE
5
410
100
AcDbEntity
8
0
100
AcDbCircle
10
382.79609899587956
20
127.21473525647248
30
0
40
1.7000000000000171
210
0
220
0
230
1
0
CIRCLE
5
411
100
AcDbEntity
8
0
100
AcDbCircle
10
716.80625897419975
20
127.20335196083684
30
0
40
1.699999999999968
210
0
220
0
230
1
0
CIRCLE
5
412
100
AcDbEntity
8
0
100
AcDbCircle
10
716.80695094675593
20
264.75223525647232
30
0
40
1.7000000000000128
210
0
220
0
230
1
0
CIRCLE
5
413
100
AcDbEntity
8
0
100
AcDbCircle
10
382.80695072204696
20
264.75223525647237
30
0
40
1.7000000000000173
210
0
220
0
230
1
0
CIRCLE
5
414
100
AcDbEntity
8
0
100
AcDbCircle
10
345.80695094675599
20
264.75223525647232
30
0
40
1.7000000000000128
210
0
220
0
230
1
0
CIRCLE
5
415
100
AcDbEntity
8
0
100
AcDbCircle
10
11.806950722046921
20
264.75223525647237
30
0
40
1.7000000000000173
210
0
220
0
230
1
0
CIRCLE
5
416
100
AcDbEntity
8
0
100
AcDbCircle
10
11.796098995879518
20
127.21473525647248
30
0
40
1.7000000000000171
210
0
220
0
230
1
0
CIRCLE
5
417
100
AcDbEntity
8
0
100
AcDbCircle
10
345.80625897419969
20
127.20335196083684
30
0
40
1.699999999999968
210
0
220
0
230
1
0
CIRCLE
5
418
100
AcDbEntity
8
0
100
AcDbCircle
10
723.80695094675616
20
96.752235256472289
30
0
40
1.7000000000000128
210
0
220
0
230
1
0
CIRCLE
5
419
100
AcDbEntity
8
0
100
AcDbCircle
10
389.80695072204702
20
96.752235256472332
30
0
40
1.7000000000000173
210
0
220
0
230
1
0
CIRCLE
5
420
100
AcDbEntity
8
0
100
AcDbCircle
10
389.79609899587962
20
-40.785264743527563
30
0
40
1.7000000000000171
210
0
220
0
230
1
0
CIRCLE
5
421
100
AcDbEntity
8
0
100
AcDbCircle
10
723.80625897419975
20
-40.796648039163195
30
0
40
1.699999999999968
210
0
220
0
230
1
0
CIRCLE
5
422
100
AcDbEntity
8
0
100
AcDbCircle
10
345.80695094675599
20
96.752235256472289
30
0
40
1.7000000000000128
210
0
220
0
230
1
0
CIRCLE
5
423
100
AcDbEntity
8
0
100
AcDbCircle
10
11.806950722046921
20
96.752235256472332
30
0
40
1.7000000000000173
210
0
220
0
230
1
0
CIRCLE
5
424
100
AcDbEntity
8
0
100
AcDbCircle
10
11.796098995879518
20
-40.785264743527563
30
0
40
1.7000000000000171
210
0
220
0
230
1
0
CIRCLE
5
425
100
AcDbEntity
8
0
100
AcDbCircle
10
345.80625897419969
20
-40.796648039163195
30
0
40
1.699999999999968
210
0
220
0
230
1
0
LWPOLYLINE
5
426
100
AcDbEntity
8
0
100
AcDbPolyline
90
8
70
1
43
0.0
10
518.99731625861637
20
-111.18400515404642
10
499.9473162586163
20
-111.18400515404642
10
461.84731625861616
20
-111.18400515404642
10
442.79731625861615
20
-111.18400515404642
10
442.79731625861615
20
-130.23400515404643
10
461.84731625861616
20
-130.23400515404643
10
499.9473162586163
20
-130.23400515404643
10
518.99731625861637
20
-130.23400515404643
0
LWPOLYLINE
5
427
100
AcDbEntity
8
0
100
AcDbPolyline
90
8
70
1
43
0.0
10
528.52231625861634
20
-130.23400515404643
10
547.57231625861641
20
-130.23400515404643
10
585.67231625861632
20
-130.23400515404643
10
604.72231625861639
20
-130.23400515404643
10
604.72231625861639
20
-111.18400515404642
10
585.67231625861632
20
-111.18400515404642
10
547.57231625861641
20
-111.18400515404642
10
528.52231625861634
20
-111.18400515404642
0
LWPOLYLINE
5
428
100
AcDbEntity
8
0
100
AcDbPolyline
90
10
70
1
43
0.0
10
714.25981625861641
20
-230.24650515404616
10
695.20981625861623
20
-230.24650515404616
10
695.20981625861623
20
-211.19650515404612
10
714.25981625861641
20
-211.19650515404612
10
714.25981625861641
20
-192.14650515404614
10
733.30981625861637
20
-192.14650515404614
10
733.30981625861637
20
-211.19650515404612
10
752.35981625861643
20
-211.19650515404618
10
752.35981625861643
20
-230.24650515404616
10
733.30981625861637
20
-230.24650515404616
0
LWPOLYLINE
5
429
100
AcDbEntity
8
0
100
AcDbPolyline
90
9
70
1
43
0.0
10
695.20981625861668
20
-111.1840051540467
10
698.23481625861632
20
-111.18400515404645
10
714.25981625861641
20
-111.18400515404645
10
733.30981625861614
20
-111.18400515404645
10
752.35981625861609
20
-111.18400515404645
10
752.35981625861609
20
-130.23400515404643
10
733.30981625861614
20
-130.23400515404643
10
714.25981625861641
20
-130.23400515404643
10
695.20981625861668
20
-130.23400515404643
0
LINE
5
430
100
AcDbEntity
8
0
100
AcDbLine
10
671.39731625861646
20
-111.18400515404662
30
0
11
690.44731625861641
21
-111.18400515404662
31
0
0
LWPOLYLINE
5
431
100
AcDbEntity
8
0
100
AcDbPolyline
90
12
70
1
43
0.0
10
688.06606625861616
20
-230.24650515404645
10
690.44731625861641
20
-230.24650515404645
10
690.44731625861641
20
-154.04650515404649
10
690.44731625861641
20
-134.99650515404647
10
671.39731625861623
20
-134.99650515404647
10
423.74731625861625
20
-134.99650515404608
10
404.6973162586163
20
-134.99650515404608
10
404.6973162586163
20
-154.04650515404609
10
404.6973162586163
20
-230.24650515404642
10
407.07856625861621
20
-230.24650515404642
10
426.12856625861627
20
-230.24650515404642
10
669.01606625861621
20
-230.24650515404645
0
LWPOLYLINE
5
432
100
AcDbEntity
8
0
100
AcDbPolyline
90
5
70
1
43
0.0
10
695.20981625861623
20
-154.04650515404609
10
695.20981625861623
20
-172.69874002308856
10
752.35981625861643
20
-172.69874002308856
10
752.35981625861643
20
-134.99650515404608
10
695.20981625861623
20
-134.99650515404608
0
LWPOLYLINE
5
433
100
AcDbEntity
8
0
100
AcDbPolyline
90
7
70
1
43
0.0
10
671.39731625861623
20
-111.18400515404642
10
690.44731625861641
20
-111.18400515404662
10
690.44731625861641
20
-130.23400515404643
10
671.39731625861623
20
-130.23400515404643
10
614.24731625861637
20
-130.23400515404643
10
614.24731625861637
20
-111.18400515404642
10
633.29731625861643
20
-111.18400515404642
0
LWPOLYLINE
5
434
100
AcDbEntity
8
0
100
AcDbPolyline
90
4
70
1
43
0.0
10
423.74731625861614
20
-130.23400515404643
10
404.69731625861613
20
-130.23400515404643
10
404.69731625861613
20
-111.18400515404642
10
423.74731625861614
20
-111.18400515404642
0
LWPOLYLINE
5
435
100
AcDbEntity
8
0
100
AcDbPolyline
90
10
70
1
43
0.0
10
731.11250000000018
20
132.97723525647254
10
731.11250000000018
20
258.98973525647239
42
0.41421356237310125
10
721.11250000000018
20
268.98973525647239
10
378.49999999999994
20
268.98973525647233
42
0.41421356237309398
10
368.49999999999994
20
258.98973525647239
10
368.49999999999994
20
245.98973525647236
10
368.49999999999994
20
132.9772352564726
42
0.41421356237309453
10
378.49999999999994
20
122.9772352564726
10
389.07187499999992
20
122.9772352564726
10
721.11250000000018
20
122.97723525647258
42
0.41421356237310181
0
LWPOLYLINE
5
436
100
AcDbEntity
8
0
100
AcDbPolyline
90
10
70
1
43
0.0
10
757.83481625861646
20
-231.72150515404624
10
757.83481625861646
20
-109.70900515404637
42
0.41421356237310125
10
747.83481625861646
20
-99.709005154046366
10
409.22231625861627
20
-99.709005154046395
42
0.41421356237310125
10
399.22231625861627
20
-109.70900515404634
10
399.22231625861627
20
-120.70900515404642
10
399.22231625861627
20
-231.72150515404616
42
0.41421356237310125
10
409.22231625861627
20
-241.72150515404616
10
417.79419125861625
20
-241.72150515404616
10
747.83481625861646
20
-241.72150515404624
42
0.41421356237310125
0
SPLINE
5
437
100
AcDbEntity
8
0
100
AcDbSpline
70
4
71
3
72
8
73
4
74
0
42
0.000000001
43
0.0000000001
44
0.0000000001
40
0
40
0
40
0
40
0
40
1
40
1
40
1
40
1
41
1
41
1
41
1
41
1
10
699.53717383132562
20
179.78551662184617
30
0
10
699.7007724326437
20
180.4270356172805
30
0
10
699.00743501337843
20
182.47185974151708
30
0
10
699.19709942910856
20
182.91290069511038
30
0
0
SPLINE
5
438
100
AcDbEntity
8
0
100
AcDbSpline
70
4
71
3
72
8
73
4
74
0
42
0.000000001
43
0.0000000001
44
0.0000000001
40
0
40
0
40
0
40
0
40
1
40
1
40
1
40
1
41
1
41
1
41
1
41
1
10
699.19709942910856
20
182.91290069511038
30
0
10
699.38676384483881
20
183.35394164870371
30
0
10
706.7856752010448
20
188.04501954834285
30
0
10
708.35573603749754
20
192.6425968087741
30
0
0
SPLINE
5
439
100
AcDbEntity
8
0
100
AcDbSpline
70
0
71
2
72
6
73
3
74
0
42
0.000000001
43
0.0000000001
44
0.0000000001
40
0
40
0
40
0
40
1
40
1
40
1
10
695.0625
20
175.90963883512882
30
0
10
699.37357523000753
20
179.14399762641185
30
0
10
699.53717383132562
20
179.78551662184617
30
0
0
SPLINE
5
440
100
AcDbEntity
8
0
100
AcDbSpline
70
4
71
3
72
8
73
4
74
0
42
0.000000001
43
0.0000000001
44
0.0000000001
40
0
40
0
40
0
40
0
40
1
40
1
40
1
40
1
41
1
41
1
41
1
41
1
10
708.35573603749754
20
192.6425968087741
30
0
10
704.9408494675738
20
188.04501954834285
30
0
10
696.74372176292434
20
185.4055077341385
30
0
10
696.78956602522646
20
184.65044029531211
30
0
0
SPLINE
5
441
100
AcDbEntity
8
0
100
AcDbSpline
70
4
71
3
72
8
73
4
74
0
42
0.000000001
43
0.0000000001
44
0.0000000001
40
0
40
0
40
0
40
0
40
1
40
1
40
1
40
1
41
1
41
1
41
1
41
1
10
696.78956602522646
20
184.65044029531211
30
0
10
696.83541028752848
20
183.89537285648572
30
0
10
697.55513030568466
20
181.62987165295584
30
0
10
697.07751595759055
20
180.98835444726433
30
0
0
SPLINE
5
442
100
AcDbEntity
8
0
100
AcDbSpline
70
0
71
2
72
6
73
3
74
0
42
0.000000001
43
0.0000000001
44
0.0000000001
40
0
40
0
40
0
40
1
40
1
40
1
10
695.06249821025722
20
179.73194782953851
30
0
10
693.52509660076089
20
180.34684261080127
30
0
10
693.04748404240956
20
180.98835444726433
30
0
0
SPLINE
5
443
100
AcDbEntity
8
0
100
AcDbSpline
70
4
71
3
72
8
73
4
74
0
42
0.000000001
43
0.0000000001
44
0.0000000001
40
0
40
0
40
0
40
0
40
1
40
1
40
1
40
1
41
1
41
1
41
1
41
1
10
693.04748404240956
20
180.98835444726433
30
0
10
692.56987148405813
20
181.62986628372738
30
0
10
693.28958613298596
20
183.89522072834612
30
0
10
693.33543039528786
20
184.65028100820123
30
0
0
SPLINE
5
444
100
AcDbEntity
8
0
100
AcDbSpline
70
4
71
3
72
8
73
4
74
0
42
0.000000001
43
0.0000000001
44
0.0000000001
40
0
40
0
40
0
40
0
40
1
40
1
40
1
40
1
41
1
41
1
41
1
41
1
10
693.33543039528786
20
184.65028100820123
30
0
10
693.38127644733277
20
185.40534486754197
30
0
10
685.18414516319763
20
188.04501954834285
30
0
10
681.76926306763107
20
192.642434837049
30
0
0
SPLINE
5
445
100
AcDbEntity
8
0
100
AcDbSpline
70
4
71
3
72
8
73
4
74
0
42
0.000000001
43
0.0000000001
44
0.0000000001
40
0
40
0
40
0
40
0
40
1
40
1
40
1
40
1
41
1
41
1
41
1
41
1
10
681.76926306763107
20
192.642434837049
30
0
10
683.33932390408359
20
188.044860261232
30
0
10
690.73823705003269
20
183.35394343844655
30
0
10
690.92790236063422
20
182.91290069511038
30
0
0
SPLINE
5
446
100
AcDbEntity
8
0
100
AcDbSpline
70
4
71
3
72
8
73
4
74
0
42
0.000000001
43
0.0000000001
44
0.0000000001
40
0
40
0
40
0
40
0
40
1
40
1
40
1
40
1
41
1
41
1
41
1
41
1
10
690.92790236063422
20
182.91290069511038
30
0
10
691.11756767123575
20
182.47185795177427
30
0
10
690.42422488274212
20
180.4270320377949
30
0
10
690.5878234840601
20
179.78551662184617
30
0
0
SPLINE
5
447
100
AcDbEntity
8
0
100
AcDbSpline
70
4
71
3
72
8
73
4
74
0
42
0.000000001
43
0.0000000001
44
0.0000000001
40
0
40
0
40
0
40
0
40
1
40
1
40
1
40
1
41
1
41
1
41
1
41
1
10
690.5878234840601
20
179.78551662184617
30
0
10
690.75142208537829
20
179.1440012058975
30
0
10
695.0625
20
175.90948312750356
30
0
10
695.0625
20
175.90963883512882
30
0
0
SPLINE
5
448
100
AcDbEntity
8
0
100
AcDbSpline
70
0
71
2
72
6
73
3
74
0
42
0.000000001
43
0.0000000001
44
0.0000000001
40
0
40
0
40
0
40
1
40
1
40
1
10
697.07751595759055
20
180.98835444726433
30
0
10
696.59990160949621
20
180.34683724157281
30
0
10
695.06249821025722
20
179.73194782953851
30
0
0
CIRCLE
5
449
100
AcDbEntity
8
0
100
AcDbCircle
10
745.52926720537232
20
-101.94650515404643
30
0
40
1.0999999999999779
210
0
220
0
230
1
0
CIRCLE
5
450
100
AcDbEntity
8
0
100
AcDbCircle
10
745.52857523281602
20
-239.49538844968191
30
0
40
1.099999999999997
210
0
220
0
230
1
0
CIRCLE
5
451
100
AcDbEntity
8
0
100
AcDbCircle
10
411.51841525449584
20
-239.48400515404629
30
0
40
1.0999999999999943
210
0
220
0
230
1
0
CIRCLE
5
452
100
AcDbEntity
8
0
100
AcDbCircle
10
411.52926698066324
20
-101.94650515404639
30
0
40
1.0999999999999943
210
0
220
0
230
1
0
CIRCLE
5
453
100
AcDbEntity
8
0
100
AcDbCircle
10
-1.2039099783201834
20
-245.78526434055385
30
0
40
1.100000000000001
210
0
220
0
230
1
0
CIRCLE
5
454
100
AcDbEntity
8
0
100
AcDbCircle
10
332.80624999999998
20
-245.79664763618948
30
0
40
1.0999999999999943
210
0
220
0
230
1
0
CIRCLE
5
455
100
AcDbEntity
8
0
100
AcDbCircle
10
332.80694197255627
20
-108.24776434055397
30
0
40
1.0999999999999943
210
0
220
0
230
1
0
CIRCLE
5
456
100
AcDbEntity
8
0
100
AcDbCircle
10
-1.1930582521527811
20
-108.24776434055394
30
0
40
1.0999999999999996
210
0
220
0
230
1
0
CIRCLE
5
457
100
AcDbEntity
8
0
100
AcDbCircle
10
131.79609899587945
20
-40.785264743527563
30
0
40
1.7000000000000195
210
0
220
0
230
1
0
CIRCLE
5
458
100
AcDbEntity
8
0
100
AcDbCircle
10
225.80625897419964
20
-40.796648039163195
30
0
40
1.7000000000000195
210
0
220
0
230
1
0
CIRCLE
5
459
100
AcDbEntity
8
0
100
AcDbCircle
10
225.80695094675605
20
96.752235256472332
30
0
40
1.7000000000000171
210
0
220
0
230
1
0
CIRCLE
5
460
100
AcDbEntity
8
0
100
AcDbCircle
10
131.80695072204685
20
96.752235256472332
30
0
40
1.6999999999999493
210
0
220
0
230
1
0
CIRCLE
5
461
100
AcDbEntity
8
0
100
AcDbCircle
10
509.79609899587962
20
-40.785264743527563
30
0
40
1.7000000000000195
210
0
220
0
230
1
0
CIRCLE
5
462
100
AcDbEntity
8
0
100
AcDbCircle
10
603.80625897419986
20
-40.796648039163195
30
0
40
1.7000000000000195
210
0
220
0
230
1
0
CIRCLE
5
463
100
AcDbEntity
8
0
100
AcDbCircle
10
603.80695094675627
20
96.752235256472332
30
0
40
1.7000000000000171
210
0
220
0
230
1
0
CIRCLE
5
464
100
AcDbEntity
8
0
100
AcDbCircle
10
509.80695072204702
20
96.752235256472332
30
0
40
1.6999999999999493
210
0
220
0
230
1
0
CIRCLE
5
465
100
AcDbEntity
8
0
100
AcDbCircle
10
502.79609899587956
20
127.21473525647248
30
0
40
1.7000000000000195
210
0
220
0
230
1
0
CIRCLE
5
466
100
AcDbEntity
8
0
100
AcDbCircle
10
596.80625897419975
20
127.20335196083684
30
0
40
1.7000000000000195
210
0
220
0
230
1
0
CIRCLE
5
467
100
AcDbEntity
8
0
100
AcDbCircle
10
596.80695094675616
20
264.75223525647237
30
0
40
1.7000000000000171
210
0
220
0
230
1
0
CIRCLE
5
468
100
AcDbEntity
8
0
100
AcDbCircle
10
502.80695072204696
20
264.75223525647237
30
0
40
1.6999999999999493
210
0
220
0
230
1
0
CIRCLE
5
469
100
AcDbEntity
8
0
100
AcDbCircle
10
531.51841525449584
20
-239.48400515404629
30
0
40
1.1000000000000001
210
0
220
0
230
1
0
CIRCLE
5
470
100
AcDbEntity
8
0
100
AcDbCircle
10
625.52857523281602
20
-239.49538844968191
30
0
40
1.1000000000000001
210
0
220
0
230
1
0
CIRCLE
5
471
100
AcDbEntity
8
0
100
AcDbCircle
10
625.52926720537243
20
-101.94650515404639
30
0
40
1.1000000000000001
210
0
220
0
230
1
0
CIRCLE
5
472
100
AcDbEntity
8
0
100
AcDbCircle
10
531.52926698066324
20
-101.94650515404639
30
0
40
1.1000000000000001
210
0
220
0
230
1
0
CIRCLE
5
473
100
AcDbEntity
8
0
100
AcDbCircle
10
118.79609002167982
20
-245.78526434055385
30
0
40
1.1000000000000001
210
0
220
0
230
1
0
CIRCLE
5
474
100
AcDbEntity
8
0
100
AcDbCircle
10
212.80625000000001
20
-245.79664763618948
30
0
40
1.1000000000000001
210
0
220
0
230
1
0
CIRCLE
5
475
100
AcDbEntity
8
0
100
AcDbCircle
10
212.80694197255642
20
-108.24776434055394
30
0
40
1.1000000000000001
210
0
220
0
230
1
0
CIRCLE
5
476
100
AcDbEntity
8
0
100
AcDbCircle
10
118.80694174784722
20
-108.24776434055394
30
0
40
1.1000000000000001
210
0
220
0
230
1
0
CIRCLE
5
477
100
AcDbEntity
8
0
100
AcDbCircle
10
131.79609899587945
20
127.21473525647248
30
0
40
1.7000000000000195
210
0
220
0
230
1
0
CIRCLE
5
478
100
AcDbEntity
8
0
100
AcDbCircle
10
225.80625897419964
20
127.20335196083684
30
0
40
1.7000000000000195
210
0
220
0
230
1
0
CIRCLE
5
479
100
AcDbEntity
8
0
100
AcDbCircle
10
225.80695094675605
20
264.75223525647237
30
0
40
1.7000000000000171
210
0
220
0
230
1
0
CIRCLE
5
480
100
AcDbEntity
8
0
100
AcDbCircle
10
131.80695072204685
20
264.75223525647237
30
0
40
1.6999999999999493
210
0
220
0
230
1
0
CIRCLE
5
481
100
AcDbEntity
8
0
100
AcDbCircle
10
756.52926720537243
20
-86.946505154046434
30
0
40
1.7000000000000128
210
0
220
0
230
1
0
CIRCLE
5
482
100
AcDbEntity
8
0
100
AcDbCircle
10
756.52857523281591
20
-254.49538844968191
30
0
40
1.699999999999968
210
0
220
0
230
1
0
CIRCLE
5
483
100
AcDbEntity
8
0
100
AcDbCircle
10
636.52857523281591
20
-254.49538844968191
30
0
40
1.7000000000000195
210
0
220
0
230
1
0
CIRCLE
5
484
100
AcDbEntity
8
0
100
AcDbCircle
10
520.51841525449595
20
-254.48400515404629
30
0
40
1.7000000000000195
210
0
220
0
230
1
0
CIRCLE
5
485
100
AcDbEntity
8
0
100
AcDbCircle
10
400.51841525449589
20
-254.48400515404629
30
0
40
1.7000000000000171
210
0
220
0
230
1
0
CIRCLE
5
486
100
AcDbEntity
8
0
100
AcDbCircle
10
400.52926698066329
20
-86.946505154046392
30
0
40
1.7000000000000173
210
0
220
0
230
1
0
CIRCLE
5
487
100
AcDbEntity
8
0
100
AcDbCircle
10
520.52926698066335
20
-86.946505154046392
30
0
40
1.6999999999999493
210
0
220
0
230
1
0
LINE
5
488
100
AcDbEntity
8
0
100
AcDbLine
10
154.80624102580009
20
-100.51026434055404
30
0
11
-16.5000089742
21
-100.51026434055402
31
0
0
CIRCLE
5
489
100
AcDbEntity
8
0
100
AcDbCircle
10
-12.193058252152724
20
-93.247764340553942
30
0
40
1.7000000000000173
210
0
220
0
230
1
0
LINE
5
490
100
AcDbEntity
8
0
100
AcDbLine
10
-28.500008974200028
20
-162.01651434055381
30
0
11
-19.0000089742
21
-162.01651434055381
31
0
0
LWPOLYLINE
5
491
100
AcDbEntity
8
0
100
AcDbPolyline
90
15
70
1
43
0.0
10
176.80624102579998
20
-100.51026434055404
10
176.80624102579998
20
-87.010264340554016
10
350.11249102580024
20
-87.010264340554087
42
-0.41421356237309503
10
360.11249102579995
20
-97.010264340553988
10
360.11249102579995
20
-162.0165143405539
10
350.61249102580007
20
-162.0165143405539
10
350.61249102580007
20
-100.51026434055409
10
348.11249102580007
20
-100.51026434055409
10
296.51249102579993
20
-100.51026434055409
10
296.51249102579993
20
-91.400814000090492
10
296.51249102579993
20
-91.010264340554016
10
291.37191297622689
20
-91.010264340554016
10
285.69999102579999
20
-91.010264340554016
10
285.69999102579999
20
-91.400814000090406
10
285.69999102579999
20
-100.51026434055409
0
CIRCLE
5
492
100
AcDbEntity
8
0
100
AcDbCircle
10
107.79609002167987
20
-260.78526434055385
30
0
40
1.7000000000000195
210
0
220
0
230
1
0
LWPOLYLINE
5
493
100
AcDbEntity
8
0
100
AcDbPolyline
90
9
70
1
43
0.0
10
-28.500008974200099
20
-257.02276434055375
42
0.41421356237309503
10
-18.500008974200171
20
-267.02276434055369
10
154.80624102580009
20
-267.02276434055369
10
154.80624102580009
20
-253.52276434055369
10
-5.9281339741998806
20
-253.52276434055369
10
-16.5000089742
20
-253.52276434055369
10
-19.0000089742
20
-253.52276434055369
10
-19.0000089742
20
-192.01651434055381
10
-28.500008974200028
20
-192.01651434055381
0
CIRCLE
5
494
100
AcDbEntity
8
0
100
AcDbCircle
10
343.80694197255639
20
-93.247764340553971
30
0
40
1.7000000000000128
210
0
220
0
230
1
0
LINE
5
495
100
AcDbEntity
8
0
100
AcDbLine
10
-19.0000089742
20
-112.010264340554
30
0
11
-19.0000089742
21
-162.01651434055381
31
0
0
CIRCLE
5
496
100
AcDbEntity
8
0
100
AcDbCircle
10
-12.203909978320127
20
-260.78526434055385
30
0
40
1.7000000000000171
210
0
220
0
230
1
0
LINE
5
497
100
AcDbEntity
8
0
100
AcDbLine
10
-18.500008974200171
20
-87.010264340553945
30
0
11
154.80624102580009
21
-87.010264340554016
31
0
0
LINE
5
498
100
AcDbEntity
8
0
100
AcDbLine
10
154.80624102580009
20
-87.010264340554016
30
0
11
154.80624102580009
21
-100.51026434055404
31
0
0
CIRCLE
5
499
100
AcDbEntity
8
0
100
AcDbCircle
10
343.80624999999998
20
-260.79664763618945
30
0
40
1.699999999999968
210
0
220
0
230
1
0
ARC
5
500
100
AcDbEntity
8
0
100
AcDbCircle
10
18.500008974200171
20
-97.010264340553846
30
0
40
9.9999999999998579
210
0
220
0
230
-1
100
AcDbArc
50
0
51
90
0
LINE
5
501
100
AcDbEntity
8
0
100
AcDbLine
10
-16.5000089742
20
-100.51026434055402
30
0
11
-19.0000089742
21
-100.51026434055402
31
0
0
CIRCLE
5
502
100
AcDbEntity
8
0
100
AcDbCircle
10
223.80694197255636
20
-93.247764340553942
30
0
40
1.7000000000000171
210
0
220
0
230
1
0
CIRCLE
5
503
100
AcDbEntity
8
0
100
AcDbCircle
10
223.80624999999995
20
-260.79664763618945
30
0
40
1.7000000000000195
210
0
220
0
230
1
0
CIRCLE
5
504
100
AcDbEntity
8
0
100
AcDbCircle
10
107.80694174784728
20
-93.247764340553942
30
0
40
1.6999999999999493
210
0
220
0
230
1
0
LINE
5
505
100
AcDbEntity
8
0
100
AcDbLine
10
-28.500008974200028
20
-97.010264340553846
30
0
11
-28.500008974200028
21
-162.01651434055381
31
0
0
LINE
5
506
100
AcDbEntity
8
0
100
AcDbLine
10
-19.0000089742
20
-100.51026434055402
30
0
11
-19.0000089742
21
-112.010264340554
31
0
0
LWPOLYLINE
5
507
100
AcDbEntity
8
0
100
AcDbPolyline
90
8
70
1
43
0.0
10
762.83481625861566
20
-260.72150515404655
42
0.41421356237309503
10
772.83481625861623
20
-250.72150515404599
10
772.83481625861623
20
-185.71525515404619
10
763.33481625861634
20
-185.71525515404633
10
763.33481625861634
20
-247.22150515404616
10
760.83481625861634
20
-247.22150515404616
10
589.52856625861602
20
-247.22150515404616
10
589.52856625861602
20
-260.72150515404616
0
LWPOLYLINE
5
508
100
AcDbEntity
8
0
100
AcDbPolyline
90
9
70
1
43
0.0
10
567.52856625861614
20
-247.22150515404616
10
406.79419125861625
20
-247.22150515404616
10
396.22231625861605
20
-247.22150515404616
10
393.72231625861605
20
-247.22150515404616
10
393.72231625861605
20
-185.7152551540463
10
384.22231625861616
20
-185.7152551540463
10
384.22231625861616
20
-250.72150515404613
42
0.41421356237309503
10
394.22231625861616
20
-260.72150515404616
10
567.52856625861614
20
-260.72150515404616
0
LWPOLYLINE
5
509
100
AcDbEntity
8
0
100
AcDbPolyline
90
11
70
1
43
0.0
10
384.22231625861616
20
-105.70900515404645
10
384.22231625861616
20
-155.7152551540463
10
393.72231625861605
20
-155.7152551540463
10
393.72231625861605
20
-94.209005154046466
10
396.22231625861605
20
-94.209005154046466
10
567.5285662586158
20
-94.209005154046508
10
676.42231625861609
20
-94.209005154046537
10
676.42231625861643
20
-80.709005154046139
10
567.5285662586158
20
-80.709005154046238
10
394.22231625861616
20
-80.709005154046395
42
0.41421356237309503
10
384.22231625861616
20
-90.709005154046395
0
LWPOLYLINE
5
510
100
AcDbEntity
8
0
100
AcDbPolyline
90
8
70
1
43
0.0
10
763.33481625861634
20
-94.209005154046537
10
763.33481625861634
20
-155.71525515404633
10
772.83481625861623
20
-155.71525515404619
10
772.83481625861612
20
-90.709005154046437
42
0.41421356237309503
10
762.83481625861623
20
-80.709005154046537
10
709.23481625861655
20
-80.709005154046537
10
709.23481625861655
20
-94.209005154046537
10
760.83481625861634
20
-94.209005154046537
0
CIRCLE
5
511
100
AcDbEntity
8
0
100
AcDbCircle
10
756.52926720537243
20
-86.946505154046434
30
0
40
1.7000000000000128
210
0
220
0
230
1
0
LINE
5
512
100
AcDbEntity
8
0
100
AcDbLine
10
64.471150844250118
20
152.68251975847886
30
0
11
61.471150844250118
21
152.68251975847886
31
0
0
LINE
5
513
100
AcDbEntity
8
0
100
AcDbLine
10
61.471150844250118
20
152.68251975847886
30
0
11
61.471150844250118
21
149.48251975847882
31
0
0
LINE
5
514
100
AcDbEntity
8
0
100
AcDbLine
10
61.471150844250118
20
149.48251975847882
30
0
11
64.471150844250118
21
149.48251975847882
31
0
0
LINE
5
515
100
AcDbEntity
8
0
100
AcDbLine
10
64.471150844250118
20
149.48251975847882
30
0
11
64.471150844250118
21
150.08251975847884
31
0
0
LINE
5
516
100
AcDbEntity
8
0
100
AcDbLine
10
64.471150844250118
20
152.0825197584789
30
0
11
64.471150844250118
21
152.68251975847886
31
0
0
SPLINE
5
517
100
AcDbEntity
8
0
100
AcDbSpline
70
0
71
3
72
11
73
7
74
0
42
0.000000001
43
0.0000000001
44
0.0000000001
40
0.0097318879816928727
40
0.0097318879816928727
40
0.0097318879816928727
40
0.0097318879816928727
40
0.63723143529929216
40
0.63723143529929216
40
0.63723143529929216
40
0.98136488140250955
40
0.98136488140250955
40
0.98136488140250955
40
0.98136488140250955
10
473.48759540345844
20
190.98687193625972
30
0
10
474.52948273395697
20
183.57659391506138
30
0
10
474.74124127982486
20
176.36431875273587
30
0
10
473.8020867219102
20
169.39842781227605
30
0
10
473.28703536319551
20
165.57819230012802
30
0
10
472.45832858881528
20
161.81827455147385
30
0
10
471.37983733928831
20
158.1090020629895
30
0
0
LINE
5
518
100
AcDbEntity
8
0
100
AcDbLine
10
437.47115084425019
20
224.90928465311839
30
0
11
437.47115084425019
21
229.95959516028131
31
0
0
LINE
5
519
100
AcDbEntity
8
0
100
AcDbLine
10
395.11826911889892
20
216.42752553027759
30
0
11
393.99564120401266
21
212.38063296613046
31
0
0
LWPOLYLINE
5
520
100
AcDbEntity
8
0
100
AcDbPolyline
90
6
70
1
43
0.0
10
416.47115084425013
20
152.68251975847886
10
416.47115084425013
20
152.0825197584789
10
416.47115084425013
20
150.08251975847884
10
416.47115084425013
20
149.48251975847882
10
413.44470980392703
20
149.48251975847882
10
413.44470980392703
20
152.68251975847878
0
LINE
5
521
100
AcDbEntity
8
0
100
AcDbLine
10
397.47115084425019
20
152.0825197584789
30
0
11
397.47115084425019
21
150.08251975847892
31
0
0
LINE
5
522
100
AcDbEntity
8
0
100
AcDbLine
10
437.47115084425019
20
150.08251975847884
30
0
11
436.47115084425019
21
150.08251975847884
31
0
0
SPLINE
5
523
100
AcDbEntity
8
0
100
AcDbSpline
70
0
71
3
72
11
73
7
74
0
42
0.000000001
43
0.0000000001
44
0.0000000001
40
0.60174227844747885
40
0.60174227844747885
40
0.60174227844747885
40
0.60174227844747885
40
0.64928968652167418
40
0.64928968652167418
40
0.64928968652167418
40
0.91422646823008435
40
0.91422646823008435
40
0.91422646823008435
40
0.91422646823008435
10
429.38544580243092
20
158.11151333147845
30
0
10
429.47536506884819
20
158.12458329942228
30
0
10
429.56656328111029
20
158.13497753915073
30
0
10
429.65862767792362
20
158.14317116058132
30
0
10
430.17161557757049
20
158.18882647136013
30
0
10
430.74298094463302
20
158.16999977506148
30
0
10
431.37983733928792
20
158.10900206298962
30
0
0
LWPOLYLINE
5
524
100
AcDbEntity
8
0
100
AcDbPolyline
90
6
70
1
43
0.0
10
456.47115084425013
20
199.48251975847882
10
453.44470980392703
20
199.48251975847882
10
453.44470980392703
20
202.68251975847886
10
456.47115084425013
20
202.68251975847886
10
456.47115084425013
20
202.0825197584789
10
456.47115084425013
20
200.08251975847884
0
LINE
5
525
100
AcDbEntity
8
0
100
AcDbLine
10
436.47115084425019
20
152.0825197584789
30
0
11
436.47115084425019
21
152.68251975847886
31
0
0
LINE
5
526
100
AcDbEntity
8
0
100
AcDbLine
10
436.47115084425019
20
149.48251975847882
30
0
11
436.47115084425019
21
150.08251975847884
31
0
0
LINE
5
527
100
AcDbEntity
8
0
100
AcDbLine
10
437.47115084425019
20
147.39250677520096
30
0
11
430.70157431575228
21
147.39250677520096
31
0
0
LINE
5
528
100
AcDbEntity
8
0
100
AcDbLine
10
433.47115084425013
20
149.48251975847882
30
0
11
436.47115084425019
21
149.48251975847882
31
0
0
LINE
5
529
100
AcDbEntity
8
0
100
AcDbLine
10
475.11826911889892
20
216.42752553027759
30
0
11
475.14051507647503
21
216.50771861928172
31
0
0
LINE
5
530
100
AcDbEntity
8
0
100
AcDbLine
10
455.11826911889892
20
216.42752553027759
30
0
11
455.14051507647503
21
216.50771861928172
31
0
0
LINE
5
531
100
AcDbEntity
8
0
100
AcDbLine
10
453.48759540345839
20
190.98687193625972
30
0
11
449.33627587397717
21
193.57197902169273
31
0
0
LINE
5
532
100
AcDbEntity
8
0
100
AcDbLine
10
453.99564120401266
20
212.38063296613046
30
0
11
457.47115084425019
21
206.90328145850742
31
0
0
LINE
5
533
100
AcDbEntity
8
0
100
AcDbLine
10
455.14051507647503
20
216.50771861928172
30
0
11
457.47115084425019
21
224.90928465311839
31
0
0
SPLINE
5
534
100
AcDbEntity
8
0
100
AcDbSpline
70
0
71
3
72
20
73
16
74
0
42
0.000000001
43
0.0000000001
44
0.0000000001
40
-0.021357865534255727
40
-0.021357865534255727
40
-0.021357865534255727
40
-0.021357865534255727
40
0
40
0
40
0
40
0.5
40
0.5
40
0.5
40
0.79815950573803685
40
0.79815950573803685
40
0.79815950573803685
40
1
40
1
40
1
40
1.0050985815217086
40
1.0050985815217086
40
1.0050985815217086
40
1.0050985815217086
10
449.33627587397717
20
193.57197902169273
30
0
10
449.33836340283085
20
193.71322090964844
30
0
10
449.34045093168464
20
193.85446279760379
30
0
10
449.34253846053832
20
193.99570468555925
30
0
10
449.39167940072281
20
197.32057329999213
30
0
10
449.53895929023389
20
200.1184107386967
30
0
10
449.87345411104258
20
202.11897048765945
30
0
10
450.07291973193105
20
203.31194229955966
30
0
10
450.32166715928128
20
204.20242621543599
30
0
10
450.77546209000093
20
204.84182928107799
30
0
10
451.08266072478307
20
205.27467622480472
30
0
10
451.55953651842719
20
205.61135249704199
30
0
10
452.0991590888367
20
205.63836515003368
30
0
10
452.10619621405039
20
205.63871741739959
30
0
10
452.11323333926384
20
205.63906968476556
30
0
10
452.12027046447599
20
205.63942195213119
30
0
0
LINE
5
535
100
AcDbEntity
8
0
100
AcDbLine
10
461.31735226758906
20
223.82086209247939
30
0
11
473.00878268227848
21
213.87347767317382
31
0
0
LINE
5
536
100
AcDbEntity
8
0
100
AcDbLine
10
389.38544580243092
20
158.11151333147845
30
0
11
390.70307857588182
21
147.38025555958785
31
0
0
LINE
5
537
100
AcDbEntity
8
0
100
AcDbLine
10
433.47115084425013
20
152.68251975847886
30
0
11
433.47115084425013
21
149.48251975847882
31
0
0
LINE
5
538
100
AcDbEntity
8
0
100
AcDbLine
10
417.47115084425013
20
152.0825197584789
30
0
11
417.47115084425013
21
150.08251975847884
31
0
0
CIRCLE
5
539
100
AcDbEntity
8
0
100
AcDbCircle
10
394.23223001819156
20
156.98997203321699
30
0
40
1.1000000000000001
210
0
220
0
230
1
0
LINE
5
540
100
AcDbEntity
8
0
100
AcDbLine
10
429.38544580243092
20
158.11151333147845
30
0
11
430.70307857588182
21
147.38025555958785
31
0
0
LINE
5
541
100
AcDbEntity
8
0
100
AcDbLine
10
457.47115084425019
20
224.90928465311839
30
0
11
457.47115084425019
21
229.95959516028131
31
0
0
LINE
5
542
100
AcDbEntity
8
0
100
AcDbLine
10
475.11826911889892
20
216.42752553027759
30
0
11
473.99564120401266
21
212.38063296613046
31
0
0
LINE
5
543
100
AcDbEntity
8
0
100
AcDbLine
10
409.38544580243092
20
158.11151333147845
30
0
11
410.70307857588182
21
147.38025555958785
31
0
0
LINE
5
544
100
AcDbEntity
8
0
100
AcDbLine
10
417.47115084425013
20
147.39250677520096
30
0
11
410.70157431575228
21
147.39250677520096
31
0
0
SPLINE
5
545
100
AcDbEntity
8
0
100
AcDbSpline
70
0
71
3
72
11
73
7
74
0
42
0.000000001
43
0.0000000001
44
0.0000000001
40
0.60174227844747885
40
0.60174227844747885
40
0.60174227844747885
40
0.60174227844747885
40
0.64928968652167418
40
0.64928968652167418
40
0.64928968652167418
40
0.91422646823008435
40
0.91422646823008435
40
0.91422646823008435
40
0.91422646823008435
10
409.38544580243092
20
158.11151333147845
30
0
10
409.47536506884808
20
158.12458329942228
30
0
10
409.56656328111029
20
158.13497753915073
30
0
10
409.65862767792362
20
158.14317116058132
30
0
10
410.17161557757049
20
158.18882647136013
30
0
10
410.74298094463302
20
158.16999977506148
30
0
10
411.37983733928786
20
158.10900206298962
30
0
0
LINE
5
546
100
AcDbEntity
8
0
100
AcDbLine
10
436.47115084425019
20
152.68251975847886
30
0
11
433.47115084425013
21
152.68251975847886
31
0
0
LINE
5
547
100
AcDbEntity
8
0
100
AcDbLine
10
437.47115084425019
20
150.08251975847884
30
0
11
437.47115084425019
21
147.39250677520096
31
0
0
LINE
5
548
100
AcDbEntity
8
0
100
AcDbLine
10
455.11826911889892
20
216.42752553027759
30
0
11
453.99564120401266
21
212.38063296613046
31
0
0
CIRCLE
5
549
100
AcDbEntity
8
0
100
AcDbCircle
10
454.23223001819156
20
194.61686216138958
30
0
40
1.7000000000000004
210
0
220
0
230
1
0
LWPOLYLINE
5
550
100
AcDbEntity
8
0
100
AcDbPolyline
90
6
70
1
43
0.0
10
456.47115084425013
20
152.68251975847886
10
456.47115084425013
20
152.08251975847884
10
456.47115084425013
20
150.08251975847884
10
456.47115084425013
20
149.48251975847882
10
453.44470980392703
20
149.48251975847882
10
453.44470980392703
20
152.68251975847878
0
LINE
5
551
100
AcDbEntity
8
0
100
AcDbLine
10
436.47115084425019
20
199.48251975847882
30
0
11
433.44470980392703
21
199.48251975847882
31
0
0
LINE
5
552
100
AcDbEntity
8
0
100
AcDbLine
10
437.47115084425019
20
206.90328145850742
30
0
11
437.47115084425019
21
202.0825197584789
31
0
0
LINE
5
553
100
AcDbEntity
8
0
100
AcDbLine
10
436.47115084425019
20
200.08251975847884
30
0
11
436.47115084425019
21
199.48251975847882
31
0
0
LINE
5
554
100
AcDbEntity
8
0
100
AcDbLine
10
469.38544580243092
20
158.11151333147845
30
0
11
470.70307857588182
21
147.38025555958785
31
0
0
LINE
5
555
100
AcDbEntity
8
0
100
AcDbLine
10
437.47115084425019
20
202.0825197584789
30
0
11
436.47115084425019
21
202.0825197584789
31
0
0
LINE
5
556
100
AcDbEntity
8
0
100
AcDbLine
10
477.47115084425019
20
152.08251975847884
30
0
11
477.47115084425019
21
150.08251975847884
31
0
0
LINE
5
557
100
AcDbEntity
8
0
100
AcDbLine
10
433.44470980392703
20
199.48251975847882
30
0
11
433.44470980392703
21
202.68251975847886
31
0
0
CIRCLE
5
558
100
AcDbEntity
8
0
100
AcDbCircle
10
434.23223001819156
20
194.61686216138958
30
0
40
1.7000000000000004
210
0
220
0
230
1
0
SPLINE
5
559
100
AcDbEntity
8
0
100
AcDbSpline
70
0
71
3
72
20
73
16
74
0
42
0.000000001
43
0.0000000001
44
0.0000000001
40
-0.021357865534255727
40
-0.021357865534255727
40
-0.021357865534255727
40
-0.021357865534255727
40
0
40
0
40
0
40
0.5
40
0.5
40
0.5
40
0.79815950573803685
40
0.79815950573803685
40
0.79815950573803685
40
1
40
1
40
1
40
1.0050985815217086
40
1.0050985815217086
40
1.0050985815217086
40
1.0050985815217086
10
429.33627587397717
20
193.57197902169273
30
0
10
429.33836340283085
20
193.71322090964844
30
0
10
429.34045093168464
20
193.85446279760379
30
0
10
429.34253846053832
20
193.99570468555925
30
0
10
429.39167940072286
20
197.32057329999213
30
0
10
429.53895929023389
20
200.1184107386967
30
0
10
429.87345411104258
20
202.11897048765945
30
0
10
430.07291973193105
20
203.31194229955966
30
0
10
430.32166715928128
20
204.20242621543599
30
0
10
430.77546209000093
20
204.84182928107799
30
0
10
431.08266072478307
20
205.27467622480472
30
0
10
431.55953651842719
20
205.61135249704199
30
0
10
432.0991590888367
20
205.63836515003368
30
0
10
432.10619621405039
20
205.63871741739959
30
0
10
432.11323333926384
20
205.63906968476556
30
0
10
432.12027046447611
20
205.63942195213119
30
0
0
LINE
5
560
100
AcDbEntity
8
0
100
AcDbLine
10
477.47115084425019
20
150.08251975847884
30
0
11
477.47115084425019
21
147.39250677520096
31
0
0
LINE
5
561
100
AcDbEntity
8
0
100
AcDbLine
10
432.12027046447611
20
205.63942195213119
30
0
11
432.85686929312351
21
205.63475486800567
31
0
0
LWPOLYLINE
5
562
100
AcDbEntity
8
0
100
AcDbPolyline
90
6
70
1
43
0.0
10
416.47115084425013
20
202.0825197584789
10
416.47115084425013
20
200.08251975847884
10
416.47115084425013
20
199.48251975847882
10
413.44470980392703
20
199.48251975847882
10
413.44470980392703
20
202.68251975847886
10
416.47115084425013
20
202.68251975847886
0
LINE
5
563
100
AcDbEntity
8
0
100
AcDbLine
10
412.12027046447599
20
205.63942195213119
30
0
11
412.8568692931234
21
205.63475486800567
31
0
0
LINE
5
564
100
AcDbEntity
8
0
100
AcDbLine
10
449.38544580243092
20
158.11151333147845
30
0
11
450.70307857588182
21
147.38025555958785
31
0
0
LINE
5
565
100
AcDbEntity
8
0
100
AcDbLine
10
436.47115084425019
20
202.0825197584789
30
0
11
436.47115084425019
21
202.68251975847886
31
0
0
LINE
5
566
100
AcDbEntity
8
0
100
AcDbLine
10
457.47115084425019
20
200.08251975847884
30
0
11
457.47115084425019
21
152.0825197584789
31
0
0
SPLINE
5
567
100
AcDbEntity
8
0
100
AcDbSpline
70
0
71
3
72
20
73
16
74
0
42
0.000000001
43
0.0000000001
44
0.0000000001
40
-0.021357865534255727
40
-0.021357865534255727
40
-0.021357865534255727
40
-0.021357865534255727
40
0
40
0
40
0
40
0.5
40
0.5
40
0.5
40
0.79815950573803685
40
0.79815950573803685
40
0.79815950573803685
40
1
40
1
40
1
40
1.0050985815217086
40
1.0050985815217086
40
1.0050985815217086
40
1.0050985815217086
10
389.33627587397717
20
193.57197902169273
30
0
10
389.33836340283085
20
193.71322090964844
30
0
10
389.34045093168464
20
193.85446279760379
30
0
10
389.34253846053832
20
193.99570468555925
30
0
10
389.39167940072286
20
197.32057329999213
30
0
10
389.53895929023389
20
200.1184107386967
30
0
10
389.87345411104258
20
202.11897048765945
30
0
10
390.07291973193105
20
203.31194229955966
30
0
10
390.32166715928122
20
204.20242621543599
30
0
10
390.77546209000093
20
204.84182928107799
30
0
10
391.08266072478307
20
205.27467622480472
30
0
10
391.55953651842719
20
205.61135249704199
30
0
10
392.0991590888367
20
205.63836515003368
30
0
10
392.10619621405039
20
205.63871741739959
30
0
10
392.11323333926384
20
205.63906968476556
30
0
10
392.12027046447611
20
205.63942195213119
30
0
0
LINE
5
568
100
AcDbEntity
8
0
100
AcDbLine
10
397.47115084425019
20
206.90328145850742
30
0
11
397.47115084425019
21
202.0825197584789
31
0
0
LINE
5
569
100
AcDbEntity
8
0
100
AcDbLine
10
392.12027046447611
20
205.63942195213119
30
0
11
392.85686929312351
21
205.63475486800567
31
0
0
LINE
5
570
100
AcDbEntity
8
0
100
AcDbLine
10
435.11826911889892
20
216.42752553027759
30
0
11
433.99564120401266
21
212.38063296613046
31
0
0
LINE
5
571
100
AcDbEntity
8
0
100
AcDbLine
10
433.00878268227854
20
213.87347767317382
30
0
11
437.47115084425019
21
229.95959516028131
31
0
0
LINE
5
572
100
AcDbEntity
8
0
100
AcDbLine
10
477.47115084425019
20
206.90328145850742
30
0
11
477.47115084425019
21
202.0825197584789
31
0
0
LINE
5
573
100
AcDbEntity
8
0
100
AcDbLine
10
417.47115084425013
20
200.08251975847884
30
0
11
417.47115084425013
21
152.0825197584789
31
0
0
LINE
5
574
100
AcDbEntity
8
0
100
AcDbLine
10
415.11826911889892
20
216.42752553027759
30
0
11
415.14051507647503
21
216.50771861928172
31
0
0
LINE
5
575
100
AcDbEntity
8
0
100
AcDbLine
10
397.47115084425019
20
224.90928465311839
30
0
11
397.47115084425019
21
229.95959516028131
31
0
0
LINE
5
576
100
AcDbEntity
8
0
100
AcDbLine
10
413.00878268227848
20
213.87347767317382
30
0
11
417.47115084425019
21
229.95959516028131
31
0
0
SPLINE
5
577
100
AcDbEntity
8
0
100
AcDbSpline
70
0
71
3
72
11
73
7
74
0
42
0.000000001
43
0.0000000001
44
0.0000000001
40
0.0097318879816928727
40
0.0097318879816928727
40
0.0097318879816928727
40
0.0097318879816928727
40
0.63723143529929216
40
0.63723143529929216
40
0.63723143529929216
40
0.98136488140250955
40
0.98136488140250955
40
0.98136488140250955
40
0.98136488140250955
10
393.48759540345844
20
190.98687193625972
30
0
10
394.52948273395697
20
183.57659391506138
30
0
10
394.74124127982486
20
176.36431875273587
30
0
10
393.8020867219102
20
169.39842781227605
30
0
10
393.28703536319551
20
165.57819230012802
30
0
10
392.45832858881522
20
161.81827455147385
30
0
10
391.37983733928831
20
158.1090020629895
30
0
0
LINE
5
578
100
AcDbEntity
8
0
100
AcDbLine
10
477.47115084425019
20
202.0825197584789
30
0
11
477.47115084425019
21
200.08251975847884
31
0
0
LINE
5
579
100
AcDbEntity
8
0
100
AcDbLine
10
397.47115084425019
20
200.08251975847884
30
0
11
397.47115084425019
21
152.0825197584789
31
0
0
LINE
5
580
100
AcDbEntity
8
0
100
AcDbLine
10
437.47115084425019
20
200.08251975847884
30
0
11
437.47115084425019
21
152.08251975847884
31
0
0
LINE
5
581
100
AcDbEntity
8
0
100
AcDbLine
10
417.47115084425013
20
224.90928465311839
30
0
11
417.47115084425019
21
229.95959516028131
31
0
0
SPLINE
5
582
100
AcDbEntity
8
0
100
AcDbSpline
70
0
71
3
72
11
73
7
74
0
42
0.000000001
43
0.0000000001
44
0.0000000001
40
0.0097318879816928727
40
0.0097318879816928727
40
0.0097318879816928727
40
0.0097318879816928727
40
0.63723143529929216
40
0.63723143529929216
40
0.63723143529929216
40
0.98136488140250955
40
0.98136488140250955
40
0.98136488140250955
40
0.98136488140250955
10
433.48759540345839
20
190.98687193625972
30
0
10
434.52948273395697
20
183.57659391506138
30
0
10
434.74124127982486
20
176.36431875273587
30
0
10
433.8020867219102
20
169.39842781227605
30
0
10
433.28703536319551
20
165.57819230012802
30
0
10
432.45832858881522
20
161.81827455147385
30
0
10
431.37983733928831
20
158.1090020629895
30
0
0
LINE
5
583
100
AcDbEntity
8
0
100
AcDbLine
10
393.00878268227848
20
213.87347767317382
30
0
11
397.47115084425019
21
229.95959516028131
31
0
0
CIRCLE
5
584
100
AcDbEntity
8
0
100
AcDbCircle
10
394.23223001819156
20
194.61686216138958
30
0
40
1.1000000000000001
210
0
220
0
230
1
0
LINE
5
585
100
AcDbEntity
8
0
100
AcDbLine
10
397.47115084425019
20
202.0825197584789
30
0
11
397.47115084425019
21
200.08251975847884
31
0
0
LINE
5
586
100
AcDbEntity
8
0
100
AcDbLine
10
433.44470980392703
20
202.68251975847886
30
0
11
436.47115084425019
21
202.68251975847886
31
0
0
LINE
5
587
100
AcDbEntity
8
0
100
AcDbLine
10
477.47115084425019
20
200.08251975847884
30
0
11
477.47115084425019
21
152.08251975847884
31
0
0
CIRCLE
5
588
100
AcDbEntity
8
0
100
AcDbCircle
10
414.23223001819156
20
194.61686216138958
30
0
40
1.7000000000000004
210
0
220
0
230
1
0
LINE
5
589
100
AcDbEntity
8
0
100
AcDbLine
10
417.47115084425013
20
202.0825197584789
30
0
11
417.47115084425013
21
200.08251975847884
31
0
0
LINE
5
590
100
AcDbEntity
8
0
100
AcDbLine
10
393.48759540345844
20
190.98687193625972
30
0
11
389.33627587397717
21
193.57197902169273
31
0
0
SPLINE
5
591
100
AcDbEntity
8
0
100
AcDbSpline
70
0
71
3
72
11
73
7
74
0
42
0.000000001
43
0.0000000001
44
0.0000000001
40
0.0097318879816928727
40
0.0097318879816928727
40
0.0097318879816928727
40
0.0097318879816928727
40
0.63723143529929216
40
0.63723143529929216
40
0.63723143529929216
40
0.98136488140250955
40
0.98136488140250955
40
0.98136488140250955
40
0.98136488140250955
10
453.48759540345839
20
190.98687193625972
30
0
10
454.52948273395697
20
183.57659391506138
30
0
10
454.74124127982486
20
176.36431875273587
30
0
10
453.8020867219102
20
169.39842781227605
30
0
10
453.28703536319551
20
165.57819230012802
30
0
10
452.45832858881522
20
161.81827455147385
30
0
10
451.37983733928831
20
158.1090020629895
30
0
0
LINE
5
592
100
AcDbEntity
8
0
100
AcDbLine
10
401.31735226758906
20
223.82086209247939
30
0
11
413.00878268227848
21
213.87347767317382
31
0
0
LINE
5
593
100
AcDbEntity
8
0
100
AcDbLine
10
435.11826911889892
20
216.42752553027759
30
0
11
435.14051507647503
21
216.50771861928172
31
0
0
LINE
5
594
100
AcDbEntity
8
0
100
AcDbLine
10
381.31735226758906
20
223.82086209247939
30
0
11
393.00878268227848
21
213.87347767317382
31
0
0
LINE
5
595
100
AcDbEntity
8
0
100
AcDbLine
10
395.11826911889892
20
216.42752553027759
30
0
11
395.14051507647503
21
216.50771861928172
31
0
0
LINE
5
596
100
AcDbEntity
8
0
100
AcDbLine
10
421.31735226758906
20
223.82086209247939
30
0
11
433.00878268227854
21
213.87347767317382
31
0
0
CIRCLE
5
597
100
AcDbEntity
8
0
100
AcDbCircle
10
414.23223001819156
20
156.98997203321699
30
0
40
1.7000000000000004
210
0
220
0
230
1
0
LINE
5
598
100
AcDbEntity
8
0
100
AcDbLine
10
452.12027046447599
20
205.63942195213119
30
0
11
452.85686929312351
21
205.63475486800567
31
0
0
CIRCLE
5
599
100
AcDbEntity
8
0
100
AcDbCircle
10
474.23223001819156
20
194.61686216138958
30
0
40
1.1000000000000001
210
0
220
0
230
1
0
LINE
5
600
100
AcDbEntity
8
0
100
AcDbLine
10
473.00878268227848
20
213.87347767317382
30
0
11
477.47115084425019
21
229.95959516028131
31
0
0
LINE
5
601
100
AcDbEntity
8
0
100
AcDbLine
10
393.99564120401266
20
212.38063296613046
30
0
11
397.47115084425019
21
206.90328145850742
31
0
0
LINE
5
602
100
AcDbEntity
8
0
100
AcDbLine
10
457.47115084425019
20
206.90328145850742
30
0
11
457.47115084425019
21
202.0825197584789
31
0
0
LINE
5
603
100
AcDbEntity
8
0
100
AcDbLine
10
472.85686929312351
20
205.63475486800567
30
0
11
461.31735226758906
21
223.82086209247939
31
0
0
LINE
5
604
100
AcDbEntity
8
0
100
AcDbLine
10
453.00878268227848
20
213.87347767317382
30
0
11
457.47115084425019
21
229.95959516028131
31
0
0
LINE
5
605
100
AcDbEntity
8
0
100
AcDbLine
10
473.99564120401266
20
212.38063296613046
30
0
11
477.47115084425019
21
206.90328145850742
31
0
0
LINE
5
606
100
AcDbEntity
8
0
100
AcDbLine
10
472.12027046447599
20
205.63942195213119
30
0
11
472.85686929312351
21
205.63475486800567
31
0
0
LINE
5
607
100
AcDbEntity
8
0
100
AcDbLine
10
436.47115084425019
20
150.08251975847884
30
0
11
436.47115084425019
21
149.48251975847882
31
0
0
LINE
5
608
100
AcDbEntity
8
0
100
AcDbLine
10
415.14051507647503
20
216.50771861928172
30
0
11
417.47115084425013
21
224.90928465311839
31
0
0
SPLINE
5
609
100
AcDbEntity
8
0
100
AcDbSpline
70
0
71
3
72
20
73
16
74
0
42
0.000000001
43
0.0000000001
44
0.0000000001
40
-0.021357865534255727
40
-0.021357865534255727
40
-0.021357865534255727
40
-0.021357865534255727
40
0
40
0
40
0
40
0.5
40
0.5
40
0.5
40
0.79815950573803685
40
0.79815950573803685
40
0.79815950573803685
40
1
40
1
40
1
40
1.0050985815217086
40
1.0050985815217086
40
1.0050985815217086
40
1.0050985815217086
10
469.33627587397712
20
193.57197902169273
30
0
10
469.33836340283079
20
193.71322090964844
30
0
10
469.34045093168464
20
193.85446279760379
30
0
10
469.34253846053832
20
193.99570468555925
30
0
10
469.39167940072281
20
197.32057329999213
30
0
10
469.53895929023389
20
200.1184107386967
30
0
10
469.87345411104258
20
202.11897048765945
30
0
10
470.07291973193105
20
203.31194229955966
30
0
10
470.32166715928128
20
204.20242621543599
30
0
10
470.77546209000099
20
204.84182928107799
30
0
10
471.08266072478307
20
205.27467622480472
30
0
10
471.55953651842719
20
205.61135249704199
30
0
10
472.0991590888367
20
205.63836515003368
30
0
10
472.10619621405039
20
205.63871741739959
30
0
10
472.11323333926384
20
205.63906968476556
30
0
10
472.12027046447599
20
205.63942195213119
30
0
0
LINE
5
610
100
AcDbEntity
8
0
100
AcDbLine
10
477.47115084425019
20
224.90928465311839
30
0
11
477.47115084425019
21
206.90328145850742
31
0
0
SPLINE
5
611
100
AcDbEntity
8
0
100
AcDbSpline
70
0
71
3
72
11
73
7
74
0
42
0.000000001
43
0.0000000001
44
0.0000000001
40
0.60174227844747885
40
0.60174227844747885
40
0.60174227844747885
40
0.60174227844747885
40
0.64928968652167418
40
0.64928968652167418
40
0.64928968652167418
40
0.91422646823008435
40
0.91422646823008435
40
0.91422646823008435
40
0.91422646823008435
10
389.38544580243092
20
158.11151333147845
30
0
10
389.47536506884819
20
158.12458329942228
30
0
10
389.56656328111035
20
158.13497753915073
30
0
10
389.65862767792362
20
158.14317116058132
30
0
10
390.17161557757055
20
158.18882647136013
30
0
10
390.74298094463302
20
158.16999977506148
30
0
10
391.37983733928786
20
158.10900206298962
30
0
0
LINE
5
612
100
AcDbEntity
8
0
100
AcDbLine
10
397.47115084425019
20
150.08251975847892
30
0
11
397.47115084425019
21
147.39250677520096
31
0
0
LINE
5
613
100
AcDbEntity
8
0
100
AcDbLine
10
397.47115084425019
20
147.39250677520096
30
0
11
390.70157431575228
21
147.39250677520096
31
0
0
LINE
5
614
100
AcDbEntity
8
0
100
AcDbLine
10
473.48759540345844
20
190.98687193625972
30
0
11
469.33627587397712
21
193.57197902169273
31
0
0
LINE
5
615
100
AcDbEntity
8
0
100
AcDbLine
10
417.47115084425013
20
150.08251975847884
30
0
11
417.47115084425013
21
147.39250677520096
31
0
0
LINE
5
616
100
AcDbEntity
8
0
100
AcDbLine
10
397.47115084425019
20
224.90928465311839
30
0
11
397.47115084425019
21
206.90328145850742
31
0
0
LINE
5
617
100
AcDbEntity
8
0
100
AcDbLine
10
417.47115084425013
20
224.90928465311839
30
0
11
417.47115084425013
21
206.90328145850742
31
0
0
LINE
5
618
100
AcDbEntity
8
0
100
AcDbLine
10
457.47115084425019
20
224.90928465311839
30
0
11
457.47115084425019
21
206.90328145850742
31
0
0
LINE
5
619
100
AcDbEntity
8
0
100
AcDbLine
10
457.47115084425019
20
202.0825197584789
30
0
11
457.47115084425019
21
200.08251975847884
31
0
0
LINE
5
620
100
AcDbEntity
8
0
100
AcDbLine
10
415.11826911889892
20
216.42752553027759
30
0
11
413.99564120401266
21
212.38063296613046
31
0
0
LINE
5
621
100
AcDbEntity
8
0
100
AcDbLine
10
392.85686929312351
20
205.63475486800567
30
0
11
381.31735226758906
21
223.82086209247939
31
0
0
LINE
5
622
100
AcDbEntity
8
0
100
AcDbLine
10
413.99564120401266
20
212.38063296613046
30
0
11
417.47115084425013
21
206.90328145850742
31
0
0
SPLINE
5
623
100
AcDbEntity
8
0
100
AcDbSpline
70
0
71
3
72
11
73
7
74
0
42
0.000000001
43
0.0000000001
44
0.0000000001
40
0.0097318879816928727
40
0.0097318879816928727
40
0.0097318879816928727
40
0.0097318879816928727
40
0.63723143529929216
40
0.63723143529929216
40
0.63723143529929216
40
0.98136488140250955
40
0.98136488140250955
40
0.98136488140250955
40
0.98136488140250955
10
413.48759540345839
20
190.98687193625972
30
0
10
414.52948273395697
20
183.57659391506138
30
0
10
414.74124127982486
20
176.36431875273587
30
0
10
413.80208672191009
20
169.39842781227605
30
0
10
413.28703536319551
20
165.57819230012802
30
0
10
412.45832858881522
20
161.81827455147385
30
0
10
411.37983733928831
20
158.1090020629895
30
0
0
LINE
5
624
100
AcDbEntity
8
0
100
AcDbLine
10
437.47115084425019
20
152.08251975847884
30
0
11
436.47115084425019
21
152.0825197584789
31
0
0
LINE
5
625
100
AcDbEntity
8
0
100
AcDbLine
10
435.14051507647503
20
216.50771861928172
30
0
11
437.47115084425019
21
224.90928465311839
31
0
0
LINE
5
626
100
AcDbEntity
8
0
100
AcDbLine
10
477.47115084425019
20
224.90928465311839
30
0
11
477.47115084425019
21
229.95959516028131
31
0
0
LINE
5
627
100
AcDbEntity
8
0
100
AcDbLine
10
475.14051507647503
20
216.50771861928172
30
0
11
477.47115084425019
21
224.90928465311839
31
0
0
CIRCLE
5
628
100
AcDbEntity
8
0
100
AcDbCircle
10
434.23223001819156
20
156.98997203321699
30
0
40
1.7000000000000004
210
0
220
0
230
1
0
LINE
5
629
100
AcDbEntity
8
0
100
AcDbLine
10
432.85686929312351
20
205.63475486800567
30
0
11
421.31735226758906
21
223.82086209247939
31
0
0
LINE
5
630
100
AcDbEntity
8
0
100
AcDbLine
10
433.99564120401266
20
212.38063296613046
30
0
11
437.47115084425019
21
206.90328145850742
31
0
0
LINE
5
631
100
AcDbEntity
8
0
100
AcDbLine
10
436.47115084425019
20
152.0825197584789
30
0
11
436.47115084425019
21
152.68251975847886
31
0
0
LINE
5
632
100
AcDbEntity
8
0
100
AcDbLine
10
395.14051507647503
20
216.50771861928172
30
0
11
397.47115084425019
21
224.90928465311839
31
0
0
LINE
5
633
100
AcDbEntity
8
0
100
AcDbLine
10
412.8568692931234
20
205.63475486800567
30
0
11
401.31735226758906
21
223.82086209247939
31
0
0
LINE
5
634
100
AcDbEntity
8
0
100
AcDbLine
10
437.47115084425019
20
224.90928465311839
30
0
11
437.47115084425019
21
206.90328145850742
31
0
0
SPLINE
5
635
100
AcDbEntity
8
0
100
AcDbSpline
70
0
71
3
72
20
73
16
74
0
42
0.000000001
43
0.0000000001
44
0.0000000001
40
-0.021357865534255727
40
-0.021357865534255727
40
-0.021357865534255727
40
-0.021357865534255727
40
0
40
0
40
0
40
0.5
40
0.5
40
0.5
40
0.79815950573803685
40
0.79815950573803685
40
0.79815950573803685
40
1
40
1
40
1
40
1.0050985815217086
40
1.0050985815217086
40
1.0050985815217086
40
1.0050985815217086
10
409.33627587397712
20
193.57197902169273
30
0
10
409.33836340283079
20
193.71322090964844
30
0
10
409.34045093168459
20
193.85446279760379
30
0
10
409.34253846053832
20
193.99570468555925
30
0
10
409.39167940072281
20
197.32057329999213
30
0
10
409.53895929023389
20
200.1184107386967
30
0
10
409.87345411104258
20
202.11897048765945
30
0
10
410.07291973193105
20
203.31194229955966
30
0
10
410.32166715928122
20
204.20242621543599
30
0
10
410.77546209000093
20
204.84182928107799
30
0
10
411.08266072478307
20
205.27467622480472
30
0
10
411.55953651842719
20
205.61135249704199
30
0
10
412.0991590888367
20
205.63836515003368
30
0
10
412.10619621405039
20
205.63871741739959
30
0
10
412.11323333926384
20
205.63906968476556
30
0
10
412.12027046447599
20
205.63942195213119
30
0
0
LINE
5
636
100
AcDbEntity
8
0
100
AcDbLine
10
413.48759540345839
20
190.98687193625972
30
0
11
409.33627587397712
21
193.57197902169273
31
0
0
LINE
5
637
100
AcDbEntity
8
0
100
AcDbLine
10
417.47115084425013
20
206.90328145850742
30
0
11
417.47115084425013
21
202.0825197584789
31
0
0
LINE
5
638
100
AcDbEntity
8
0
100
AcDbLine
10
457.47115084425019
20
147.39250677520096
30
0
11
450.70157431575228
21
147.39250677520096
31
0
0
LINE
5
639
100
AcDbEntity
8
0
100
AcDbLine
10
433.48759540345839
20
190.98687193625972
30
0
11
429.33627587397717
21
193.57197902169273
31
0
0
LINE
5
640
100
AcDbEntity
8
0
100
AcDbLine
10
437.47115084425019
20
200.08251975847884
30
0
11
436.47115084425019
21
200.08251975847884
31
0
0
LINE
5
641
100
AcDbEntity
8
0
100
AcDbLine
10
457.47115084425019
20
150.08251975847892
30
0
11
457.47115084425019
21
147.39250677520096
31
0
0
LINE
5
642
100
AcDbEntity
8
0
100
AcDbLine
10
477.47115084425019
20
147.39250677520096
30
0
11
470.70157431575228
21
147.39250677520096
31
0
0
LINE
5
643
100
AcDbEntity
8
0
100
AcDbLine
10
452.85686929312351
20
205.63475486800567
30
0
11
441.31735226758906
21
223.82086209247939
31
0
0
SPLINE
5
644
100
AcDbEntity
8
0
100
AcDbSpline
70
0
71
3
72
11
73
7
74
0
42
0.000000001
43
0.0000000001
44
0.0000000001
40
0.60174227844747885
40
0.60174227844747885
40
0.60174227844747885
40
0.60174227844747885
40
0.64928968652167418
40
0.64928968652167418
40
0.64928968652167418
40
0.91422646823008435
40
0.91422646823008435
40
0.91422646823008435
40
0.91422646823008435
10
449.38544580243092
20
158.11151333147845
30
0
10
449.47536506884819
20
158.12458329942228
30
0
10
449.56656328111029
20
158.13497753915073
30
0
10
449.65862767792362
20
158.14317116058132
30
0
10
450.17161557757049
20
158.18882647136013
30
0
10
450.74298094463302
20
158.16999977506148
30
0
10
451.37983733928792
20
158.10900206298962
30
0
0
SPLINE
5
645
100
AcDbEntity
8
0
100
AcDbSpline
70
0
71
3
72
11
73
7
74
0
42
0.000000001
43
0.0000000001
44
0.0000000001
40
0.60174227844747885
40
0.60174227844747885
40
0.60174227844747885
40
0.60174227844747885
40
0.64928968652167418
40
0.64928968652167418
40
0.64928968652167418
40
0.91422646823008435
40
0.91422646823008435
40
0.91422646823008435
40
0.91422646823008435
10
469.38544580243092
20
158.11151333147845
30
0
10
469.47536506884819
20
158.12458329942228
30
0
10
469.56656328111029
20
158.13497753915073
30
0
10
469.65862767792362
20
158.14317116058132
30
0
10
470.17161557757049
20
158.18882647136013
30
0
10
470.74298094463302
20
158.16999977506148
30
0
10
471.37983733928792
20
158.10900206298962
30
0
0
LINE
5
646
100
AcDbEntity
8
0
100
AcDbLine
10
457.47115084425019
20
152.0825197584789
30
0
11
457.47115084425019
21
150.08251975847892
31
0
0
LINE
5
647
100
AcDbEntity
8
0
100
AcDbLine
10
441.31735226758906
20
223.82086209247939
30
0
11
453.00878268227848
21
213.87347767317382
31
0
0
CIRCLE
5
648
100
AcDbEntity
8
0
100
AcDbCircle
10
474.23223001819156
20
156.98997203321699
30
0
40
1.1000000000000001
210
0
220
0
230
1
0
CIRCLE
5
649
100
AcDbEntity
8
0
100
AcDbCircle
10
454.23223001819156
20
156.98997203321699
30
0
40
1.7000000000000004
210
0
220
0
230
1
0
CIRCLE
5
650
100
AcDbEntity
8
0
100
AcDbCircle
10
614.52926720537243
20
-86.946505154046392
30
0
40
1.7000000000000171
210
0
220
0
230
1
0
LWPOLYLINE
5
651
100
AcDbEntity
8
0
100
AcDbPolyline
90
8
70
1
43
0.0
10
350.11249102579967
20
-267.02276434055409
42
0.41421356237309503
10
360.11249102580024
20
-257.02276434055352
10
360.11249102580024
20
-192.01651434055375
10
350.61249102580035
20
-192.0165143405539
10
350.61249102580035
20
-253.52276434055369
10
348.11249102580035
20
-253.52276434055369
10
176.80624102579998
20
-253.52276434055369
10
176.80624102579998
20
-267.02276434055369
0
ENDSEC
0
SECTION
2
OBJECTS
0
DICTIONARY
5
C
100
AcDbDictionary
3
ACAD_GROUP
350
D
3
ACAD_MLINESTYLE
350
17
0
DICTIONARY
5
D
100
AcDbDictionary
0
DICTIONARY
5
1A
330
C
100
AcDbDictionary
0
DICTIONARY
5
17
100
AcDbDictionary
0
ENDSEC
0
EOF
