0
SECTION
2
HEADER
9
$INSUNITS
70
4
9
$ACADVER
1
AC1014
9
$HANDSEED
5
FFFF
0
ENDSEC
0
SECTION
2
TABLES
0
TABLE
2
VPORT
5
8
100
AcDbSymbolTable
0
ENDTAB
0
TABLE
2
LTYPE
5
5
100
AcDbSymbolTable
0
LTYPE
5
14
100
AcDbSymbolTableRecord
100
AcDbLinetypeTableRecord
2
BYBLOCK
70
0
0
LTYPE
5
15
100
AcDbSymbolTableRecord
100
AcDbLinetypeTableRecord
2
BYLAYER
70
0
0
ENDTAB
0
TABLE
2
LAYER
5
2
100
AcDbSymbolTable
70
2
0
LAYER
5
50
100
AcDbSymbolTableRecord
100
AcDbLayerTableRecord
2
0
70
0
6
CONTINUOUS
0
ENDTAB
0
TABLE
2
STYLE
5
3
100
AcDbSymbolTable
70
1
0
STYLE
5
11
100
AcDbSymbolTableRecord
100
AcDbTextStyleTableRecord
2
STANDARD
70
0
0
ENDTAB
0
TABLE
2
VIEW
5
6
100
AcDbSymbolTable
70
0
0
ENDTAB
0
TABLE
2
UCS
5
7
100
AcDbSymbolTable
70
0
0
ENDTAB
0
TABLE
2
APPID
5
9
100
AcDbSymbolTable
70
2
0
APPID
5
12
100
AcDbSymbolTableRecord
100
AcDbRegAppTableRecord
2
ACAD
70
0
0
ENDTAB
0
TABLE
2
DIMSTYLE
5
A
100
AcDbSymbolTable
70
1
0
ENDTAB
0
TABLE
2
BLOCK_RECORD
5
1
100
AcDbSymbolTable
70
1
0
BLOCK_RECORD
5
1F
100
AcDbSymbolTableRecord
100
AcDbBlockTableRecord
2
*MODEL_SPACE
0
BLOCK_RECORD
5
1B
100
AcDbSymbolTableRecord
100
AcDbBlockTableRecord
2
*PAPER_SPACE
0
ENDTAB
0
ENDSEC
0
SECTION
2
BLOCKS
0
BLOCK
5
20
100
AcDbEntity
100
AcDbBlockBegin
2
*MODEL_SPACE
0
ENDBLK
5
21
100
AcDbEntity
100
AcDbBlockEnd
0
BLOCK
5
1C
100
AcDbEntity
100
AcDbBlockBegin
2
*PAPER_SPACE
0
ENDBLK
5
1D
100
AcDbEntity
100
AcDbBlockEnd
0
ENDSEC
0
SECTION
2
ENTITIES
0
LWPOLYLINE
5
100
100
AcDbEntity
8
0
100
AcDbPolyline
90
8
70
1
43
0.0
10
351.11249999999984
20
313.62723525647266
42
0.41421356237309964
10
360.11250000000013
20
322.62723525647266
10
360.11250000000013
20
443.33973525647241
42
0.41421356237310197
10
351.11250000000013
20
452.33973525647241
10
6.5000000000004832
20
452.33973525647275
42
0.41421356237309842
10
-2.4999999999995421
20
443.33973525647281
10
-2.50000000000004
20
322.62723525647311
42
0.41421356237309465
10
6.4999999999999858
20
313.62723525647306
0
CIRCLE
5
101
100
AcDbEntity
8
0
100
AcDbCircle
10
178.80625000000032
20
447.33973525647258
30
0
40
1.1000000000000005
210
0
220
0
230
1
0
CIRCLE
5
102
100
AcDbEntity
8
0
100
AcDbCircle
10
343.80625000000032
20
447.33973525647258
30
0
40
1.0999999999999943
210
0
220
0
230
1
0
CIRCLE
5
103
100
AcDbEntity
8
0
100
AcDbCircle
10
343.80624999999998
20
318.62723525647289
30
0
40
1.0999999999999757
210
0
220
0
230
1
0
CIRCLE
5
104
100
AcDbEntity
8
0
100
AcDbCircle
10
178.80624999999992
20
318.62723525647289
30
0
40
1.0999999999999841
210
0
220
0
230
1
0
CIRCLE
5
105
100
AcDbEntity
8
0
100
AcDbCircle
10
13.806249999999913
20
318.62723525647289
30
0
40
1.1000000000000016
210
0
220
0
230
1
0
CIRCLE
5
106
100
AcDbEntity
8
0
100
AcDbCircle
10
13.806250000000304
20
447.33973525647258
30
0
40
1.1000000000000023
210
0
220
0
230
1
0
CIRCLE
5
107
100
AcDbEntity
8
0
100
AcDbCircle
10
13.806250000000304
20
422.33973525647258
30
0
40
1.1000000000000023
210
0
220
0
230
1
0
CIRCLE
5
108
100
AcDbEntity
8
0
100
AcDbCircle
10
343.80625000000032
20
422.33973525647258
30
0
40
1.0999999999999943
210
0
220
0
230
1
0
LINE
5
109
100
AcDbEntity
8
0
100
AcDbLine
10
311.50000436604023
20
453.33973425041819
30
0
11
311.50000436604023
21
453.00000172853493
31
0
0
ARC
5
110
100
AcDbEntity
8
0
100
AcDbCircle
10
320.50000436604023
20
453.33973425041819
30
0
40
8.9999999999999165
210
0
220
0
230
1
100
AcDbArc
50
90.000001236636393
51
180
0
LINE
5
111
100
AcDbEntity
8
0
100
AcDbLine
10
276.50000436604034
20
453.0000017285347
30
0
11
276.50000436604034
21
453.33973353816731
31
0
0
LWPOLYLINE
5
112
100
AcDbEntity
8
0
100
AcDbPolyline
90
7
70
1
43
0.0
10
171.71198921766265
20
312.62718085117518
42
-0.73077387167653352
10
168.82872602984409
20
303.57393232101549
10
-3.5442994565896333
20
303.52057957248866
42
-0.41400400488035066
10
-12.541699551135126
20
312.51673853998039
10
-12.519654473447872
20
372.92831869924163
42
0.99265766161656699
10
-5.0155456249174302
20
372.98362017481804
10
-5.015545624917408
20
312.62718085120105
0
CIRCLE
5
113
100
AcDbEntity
8
0
100
AcDbCircle
10
353.80625897419975
20
308.62723485349909
30
0
40
1.6999999999999715
210
0
220
0
230
1
0
LINE
5
114
100
AcDbEntity
8
0
100
AcDbLine
10
188.82833344891998
20
303.57336701390489
30
0
11
361.11248269701662
21
303.62719207177753
31
0
0
ARC
5
115
100
AcDbEntity
8
0
100
AcDbCircle
10
361.11248343013278
20
312.6271920719459
30
0
40
9.0000000001683791
210
0
220
0
230
1
100
AcDbArc
50
-90.000004667162472
51
0.00044631951354462336
0
CIRCLE
5
116
100
AcDbEntity
8
0
100
AcDbCircle
10
168.82718269189951
20
308.56017648283569
30
0
40
1.6999999999999924
210
0
220
0
230
1
0
ARC
5
117
100
AcDbEntity
8
0
100
AcDbCircle
10
366.36538967214528
20
372.98389455940992
30
0
40
3.7465961822610416
210
0
220
0
230
1
100
AcDbArc
50
-0.0051774161594862885
51
180.10753467434111
0
ARC
5
118
100
AcDbEntity
8
0
100
AcDbCircle
10
-3.4976093973879396
20
453.33972771071205
30
0
40
8.9999999999999165
210
0
220
0
230
1
100
AcDbArc
50
90.000001236635342
51
179.99891043930751
0
CIRCLE
5
119
100
AcDbEntity
8
0
100
AcDbCircle
10
353.80695094675593
20
457.34102949179135
30
0
40
1.6999999999999835
210
0
220
0
230
1
0
ARC
5
120
100
AcDbEntity
8
0
100
AcDbCircle
10
361.11153273752871
20
453.33973514853454
30
0
40
9.0000000000000675
210
0
220
-0
230
1
100
AcDbArc
50
0.00045106486668060049
51
90.000001643267538
0
ARC
5
121
100
AcDbEntity
8
0
100
AcDbCircle
10
267.50000436604034
20
453.33973353816731
30
0
40
8.9999999999999858
210
0
220
0
230
1
100
AcDbArc
50
0
51
90.000001236635313
0
ARC
5
122
100
AcDbEntity
8
0
100
AcDbCircle
10
366.36538967214528
20
392.98389455940992
30
0
40
3.7465961822610416
210
0
220
0
230
1
100
AcDbArc
50
-0.0051774161594862885
51
180.10753467434111
0
LINE
5
123
100
AcDbEntity
8
0
100
AcDbLine
10
311.50000437036095
20
453.34001312840195
30
0
11
362.61880008870469
21
453.34001312840059
31
0
0
LINE
5
124
100
AcDbEntity
8
0
100
AcDbLine
10
362.61880008870469
20
453.34001312840059
30
0
11
362.61879348988424
21
392.98389455941668
31
0
0
CIRCLE
5
125
100
AcDbEntity
8
0
100
AcDbCircle
10
168.80695072204691
20
457.33973142962304
30
0
40
1.6999999999999877
210
0
220
0
230
1
0
LINE
5
126
100
AcDbEntity
8
0
100
AcDbLine
10
361.11153247940484
20
462.3397351485346
30
0
11
320.50000417178984
21
462.33973425041813
31
0
0
LINE
5
127
100
AcDbEntity
8
0
100
AcDbLine
10
370.11198583351734
20
392.98429027435162
30
0
11
370.11153273724983
21
453.33980600167888
31
0
0
LINE
5
128
100
AcDbEntity
8
0
100
AcDbLine
10
370.11248342984902
20
312.62726217967713
30
0
11
370.11198583351734
21
372.98429027435162
31
0
0
LINE
5
129
100
AcDbEntity
8
0
100
AcDbLine
10
362.61880008848749
20
312.61371251952301
30
0
11
191.70522589184029
21
312.61371251952301
31
0
0
LINE
5
130
100
AcDbEntity
8
0
100
AcDbLine
10
-5.0155456249174302
20
392.98362017481804
30
0
11
-5.015545624917439
21
453.34005099911587
31
0
0
ARC
5
131
100
AcDbEntity
8
0
100
AcDbCircle
10
188.82677808911242
20
308.55178880872938
30
0
40
4.9784220377874897
210
0
220
0
230
1
100
AcDbArc
50
-89.982099638525952
51
54.677029919412938
0
LINE
5
132
100
AcDbEntity
8
0
100
AcDbLine
10
362.61879348988424
20
372.98389455941668
30
0
11
362.61880008848749
21
312.61371251952301
31
0
0
LINE
5
133
100
AcDbEntity
8
0
100
AcDbLine
10
267.50000417179012
20
462.33973353816737
30
0
11
-3.4976095916381644
21
462.33972771071194
31
0
0
ARC
5
134
100
AcDbEntity
8
0
100
AcDbCircle
10
-8.7678038210936577
20
392.98362017481804
30
0
40
3.7522581961762276
210
0
220
0
230
1
100
AcDbArc
50
-179.15553362653702
51
0
0
LINE
5
135
100
AcDbEntity
8
0
100
AcDbLine
10
-12.497609395760616
20
453.33989885850286
30
0
11
-12.519654473447872
21
392.92831869924163
31
0
0
CIRCLE
5
136
100
AcDbEntity
8
0
100
AcDbCircle
10
3.8062604917591969
20
308.62721665233357
30
0
40
1.6999999999999993
210
0
220
0
230
1
0
CIRCLE
5
137
100
AcDbEntity
8
0
100
AcDbCircle
10
3.8069507220469156
20
457.33973142962327
30
0
40
1.7000000000000077
210
0
220
0
230
1
0
LINE
5
138
100
AcDbEntity
8
0
100
AcDbLine
10
-5.015545624917439
20
453.34005099911587
30
0
11
276.50000436044132
21
453.34005099911587
31
0
0
CIRCLE
5
139
100
AcDbEntity
8
0
100
AcDbCircle
10
13.806250000000304
20
372.33973525647258
30
0
40
1.1000000000000023
210
0
220
0
230
1
0
CIRCLE
5
140
100
AcDbEntity
8
0
100
AcDbCircle
10
343.80625000000032
20
372.33973525647258
30
0
40
1.0999999999999943
210
0
220
0
230
1
0
ENDSEC
0
SECTION
2
OBJECTS
0
DICTIONARY
5
C
100
AcDbDictionary
3
ACAD_GROUP
350
D
3
ACAD_MLINESTYLE
350
17
0
DICTIONARY
5
D
100
AcDbDictionary
0
DICTIONARY
5
1A
330
C
100
AcDbDictionary
0
DICTIONARY
5
17
100
AcDbDictionary
0
ENDSEC
0
EOF
