  0
SECTION
  2
HEADER
  9
$ACADVER
  1
AC1032
  9
$ACADMAINTVER
 90
      174
  9
$DWGCODEPAGE
  3
ANSI_1252
  9
$LASTSAVEDBY
  1
Mauricio
  9
$REQUIREDVERSIONS
160
                 0
  9
$INSBASE
 10
0.0
 20
0.0
 30
0.0
  9
$EXTMIN
 10
-28.5000089742001
 20
-267.0227643405541
 30
0.0
  9
$EXTMAX
 10
772.8348162586162
 20
270.9897352564724
 30
0.0
  9
$LIMMIN
 10
0.0
 20
0.0
  9
$LIMMAX
 10
12.0
 20
9.0
  9
$ORTHOMODE
 70
     0
  9
$REGENMODE
 70
     1
  9
$FILLMODE
 70
     1
  9
$QTEXTMODE
 70
     0
  9
$MIRRTEXT
 70
     0
  9
$LTSCALE
 40
1.0
  9
$ATTMODE
 70
     1
  9
$TEXTSIZE
 40
0.2
  9
$TRACEWID
 40
0.05
  9
$TEXTSTYLE
  7
STANDARD
  9
$CLAYER
  8
0
  9
$CELTYPE
  6
Continuous
  9
$CECOLOR
 62
   256
  9
$CELTSCALE
 40
1.0
  9
$DISPSILH
 70
     0
  9
$DIMSCALE
 40
1.0
  9
$DIMASZ
 40
0.18
  9
$DIMEXO
 40
0.0625
  9
$DIMDLI
 40
0.38
  9
$DIMRND
 40
0.0
  9
$DIMDLE
 40
0.0
  9
$DIMEXE
 40
0.18
  9
$DIMTP
 40
0.0
  9
$DIMTM
 40
0.0
  9
$DIMTXT
 40
0.18
  9
$DIMCEN
 40
0.09
  9
$DIMTSZ
 40
0.0
  9
$DIMTOL
 70
     0
  9
$DIMLIM
 70
     0
  9
$DIMTIH
 70
     1
  9
$DIMTOH
 70
     1
  9
$DIMSE1
 70
     0
  9
$DIMSE2
 70
     0
  9
$DIMTAD
 70
     0
  9
$DIMZIN
 70
     0
  9
$DIMBLK
  1

  9
$DIMASO
 70
     1
  9
$DIMSHO
 70
     1
  9
$DIMPOST
  1

  9
$DIMAPOST
  1

  9
$DIMALT
 70
     0
  9
$DIMALTD
 70
     2
  9
$DIMALTF
 40
25.4
  9
$DIMLFAC
 40
1.0
  9
$DIMTOFL
 70
     0
  9
$DIMTVP
 40
0.0
  9
$DIMTIX
 70
     0
  9
$DIMSOXD
 70
     0
  9
$DIMSAH
 70
     0
  9
$DIMBLK1
  1

  9
$DIMBLK2
  1

  9
$DIMSTYLE
  2
Standard
  9
$DIMCLRD
 70
     0
  9
$DIMCLRE
 70
     0
  9
$DIMCLRT
 70
     0
  9
$DIMTFAC
 40
1.0
  9
$DIMGAP
 40
0.09
  9
$DIMJUST
 70
     0
  9
$DIMSD1
 70
     0
  9
$DIMSD2
 70
     0
  9
$DIMTOLJ
 70
     1
  9
$DIMTZIN
 70
     0
  9
$DIMALTZ
 70
     0
  9
$DIMALTTZ
 70
     0
  9
$DIMUPT
 70
     0
  9
$DIMDEC
 70
     4
  9
$DIMTDEC
 70
     4
  9
$DIMALTU
 70
     2
  9
$DIMALTTD
 70
     2
  9
$DIMTXSTY
  7
STANDARD
  9
$DIMAUNIT
 70
     0
  9
$DIMADEC
 70
     0
  9
$DIMALTRND
 40
0.0
  9
$DIMAZIN
 70
     0
  9
$DIMDSEP
 70
    46
  9
$DIMATFIT
 70
     3
  9
$DIMFRAC
 70
     0
  9
$DIMLDRBLK
  1

  9
$DIMLUNIT
 70
     2
  9
$DIMLWD
 70
    -2
  9
$DIMLWE
 70
    -2
  9
$DIMTMOVE
 70
     0
  9
$DIMFXL
 40
1.0
  9
$DIMFXLON
 70
     0
  9
$DIMJOGANG
 40
0.7853981633974483
  9
$DIMTFILL
 70
     0
  9
$DIMTFILLCLR
 70
     0
  9
$DIMARCSYM
 70
     0
  9
$DIMLTYPE
  6

  9
$DIMLTEX1
  6

  9
$DIMLTEX2
  6

  9
$DIMTXTDIRECTION
 70
     0
  9
$LUNITS
 70
     2
  9
$LUPREC
 70
     4
  9
$SKETCHINC
 40
0.1
  9
$FILLETRAD
 40
0.0
  9
$AUNITS
 70
     0
  9
$AUPREC
 70
     0
  9
$MENU
  1
.
  9
$ELEVATION
 40
0.0
  9
$PELEVATION
 40
0.0
  9
$THICKNESS
 40
0.0
  9
$LIMCHECK
 70
     0
  9
$CHAMFERA
 40
0.0
  9
$CHAMFERB
 40
0.0
  9
$CHAMFERC
 40
0.0
  9
$CHAMFERD
 40
0.0
  9
$SKPOLY
 70
     0
  9
$TDCREATE
 40
2459330.681886574
  9
$TDUCREATE
 40
2459330.890219908
  9
$TDUPDATE
 40
2459330.686145833
  9
$TDUUPDATE
 40
2459330.894479167
  9
$TDINDWG
 40
0.0042592593
  9
$TDUSRTIMER
 40
0.0042592593
  9
$USRTIMER
 70
     1
  9
$ANGBASE
 50
0.0
  9
$ANGDIR
 70
     0
  9
$PDMODE
 70
     0
  9
$PDSIZE
 40
0.0
  9
$PLINEWID
 40
0.0
  9
$SPLFRAME
 70
     0
  9
$SPLINETYPE
 70
     6
  9
$SPLINESEGS
 70
     8
  9
$HANDSEED
  5
1009B
  9
$SURFTAB1
 70
     6
  9
$SURFTAB2
 70
     6
  9
$SURFTYPE
 70
     6
  9
$SURFU
 70
     6
  9
$SURFV
 70
     6
  9
$UCSBASE
  2

  9
$UCSNAME
  2

  9
$UCSORG
 10
0.0
 20
0.0
 30
0.0
  9
$UCSXDIR
 10
1.0
 20
0.0
 30
0.0
  9
$UCSYDIR
 10
0.0
 20
1.0
 30
0.0
  9
$UCSORTHOREF
  2

  9
$UCSORTHOVIEW
 70
     0
  9
$UCSORGTOP
 10
0.0
 20
0.0
 30
0.0
  9
$UCSORGBOTTOM
 10
0.0
 20
0.0
 30
0.0
  9
$UCSORGLEFT
 10
0.0
 20
0.0
 30
0.0
  9
$UCSORGRIGHT
 10
0.0
 20
0.0
 30
0.0
  9
$UCSORGFRONT
 10
0.0
 20
0.0
 30
0.0
  9
$UCSORGBACK
 10
0.0
 20
0.0
 30
0.0
  9
$PUCSBASE
  2

  9
$PUCSNAME
  2

  9
$PUCSORG
 10
0.0
 20
0.0
 30
0.0
  9
$PUCSXDIR
 10
1.0
 20
0.0
 30
0.0
  9
$PUCSYDIR
 10
0.0
 20
1.0
 30
0.0
  9
$PUCSORTHOREF
  2

  9
$PUCSORTHOVIEW
 70
     0
  9
$PUCSORGTOP
 10
0.0
 20
0.0
 30
0.0
  9
$PUCSORGBOTTOM
 10
0.0
 20
0.0
 30
0.0
  9
$PUCSORGLEFT
 10
0.0
 20
0.0
 30
0.0
  9
$PUCSORGRIGHT
 10
0.0
 20
0.0
 30
0.0
  9
$PUCSORGFRONT
 10
0.0
 20
0.0
 30
0.0
  9
$PUCSORGBACK
 10
0.0
 20
0.0
 30
0.0
  9
$USERI1
 70
     0
  9
$USERI2
 70
     0
  9
$USERI3
 70
     0
  9
$USERI4
 70
     0
  9
$USERI5
 70
     0
  9
$USERR1
 40
0.0
  9
$USERR2
 40
0.0
  9
$USERR3
 40
0.0
  9
$USERR4
 40
0.0
  9
$USERR5
 40
0.0
  9
$WORLDVIEW
 70
     1
  9
$SHADEDGE
 70
     3
  9
$SHADEDIF
 70
    70
  9
$TILEMODE
 70
     1
  9
$MAXACTVP
 70
    64
  9
$PINSBASE
 10
0.0
 20
0.0
 30
0.0
  9
$PLIMCHECK
 70
     0
  9
$PEXTMIN
 10
1.09999997597041
 20
0.8499999759704106
 30
0.0
  9
$PEXTMAX
 10
9.899999783733699
 20
7.649999783733699
 30
0.0
  9
$PLIMMIN
 10
0.0
 20
0.0
  9
$PLIMMAX
 10
12.0
 20
9.0
  9
$UNITMODE
 70
     0
  9
$VISRETAIN
 70
     1
  9
$PLINEGEN
 70
     0
  9
$PSLTSCALE
 70
     1
  9
$TREEDEPTH
 70
  3020
  9
$CMLSTYLE
  2
Standard
  9
$CMLJUST
 70
     0
  9
$CMLSCALE
 40
1.0
  9
$PROXYGRAPHICS
 70
     1
  9
$MEASUREMENT
 70
     0
  9
$CELWEIGHT
370
    -1
  9
$ENDCAPS
280
     0
  9
$JOINSTYLE
280
     0
  9
$LWDISPLAY
290
     0
  9
$INSUNITS
 70
     4
  9
$HYPERLINKBASE
  1

  9
$STYLESHEET
  1

  9
$XEDIT
290
     1
  9
$CEPSNTYPE
380
     0
  9
$PSTYLEMODE
290
     1
  9
$FINGERPRINTGUID
  2
{45EB4A9B-787D-F244-8015-3431CD5473B3}
  9
$VERSIONGUID
  2
{33FE178B-D29C-AD4C-B0DB-3867D74DF535}
  9
$EXTNAMES
290
     1
  9
$PSVPSCALE
 40
0.0
  9
$OLESTARTUP
290
     0
  9
$SORTENTS
280
   127
  9
$INDEXCTL
280
     0
  9
$HIDETEXT
280
     0
  9
$XCLIPFRAME
280
     2
  9
$HALOGAP
280
     0
  9
$OBSCOLOR
 70
   257
  9
$OBSLTYPE
280
     0
  9
$INTERSECTIONDISPLAY
280
     0
  9
$INTERSECTIONCOLOR
 70
   257
  9
$DIMASSOC
280
     1
  9
$PROJECTNAME
  1

  9
$CAMERADISPLAY
290
     0
  9
$LENSLENGTH
 40
50.0
  9
$CAMERAHEIGHT
 40
0.0
  9
$STEPSPERSEC
 40
2.0
  9
$STEPSIZE
 40
6.0
  9
$3DDWFPREC
 40
2.0
  9
$PSOLWIDTH
 40
0.25
  9
$PSOLHEIGHT
 40
4.0
  9
$LOFTANG1
 40
1.570796326794896
  9
$LOFTANG2
 40
1.570796326794896
  9
$LOFTMAG1
 40
0.0
  9
$LOFTMAG2
 40
0.0
  9
$LOFTPARAM
 70
     7
  9
$LOFTNORMALS
280
     1
  9
$LATITUDE
 40
37.795
  9
$LONGITUDE
 40
-122.394
  9
$NORTHDIRECTION
 40
0.0
  9
$TIMEZONE
 70
 -8000
  9
$LIGHTGLYPHDISPLAY
280
     1
  9
$TILEMODELIGHTSYNCH
280
     1
  9
$CMATERIAL
347
10005
  9
$SOLIDHIST
280
     0
  9
$SHOWHIST
280
     1
  9
$DWFFRAME
280
     2
  9
$DGNFRAME
280
     0
  9
$REALWORLDSCALE
290
     1
  9
$INTERFERECOLOR
 62
     1
  9
$INTERFEREOBJVS
345
10027
  9
$INTERFEREVPVS
346
10024
  9
$CSHADOW
280
     0
  9
$SHADOWPLANELOCATION
 40
0.0
  0
ENDSEC
  0
SECTION
  2
CLASSES
  0
CLASS
  1
ACDBDICTIONARYWDFLT
  2
AcDbDictionaryWithDefault
  3
ObjectDBX Classes
 90
        0
 91
        1
280
     0
281
     0
  0
CLASS
  1
MATERIAL
  2
AcDbMaterial
  3
ObjectDBX Classes
 90
     1153
 91
        3
280
     0
281
     0
  0
CLASS
  1
VISUALSTYLE
  2
AcDbVisualStyle
  3
ObjectDBX Classes
 90
     4095
 91
       24
280
     0
281
     0
  0
CLASS
  1
TABLESTYLE
  2
AcDbTableStyle
  3
ObjectDBX Classes
 90
     4095
 91
        1
280
     0
281
     0
  0
CLASS
  1
SCALE
  2
AcDbScale
  3
ObjectDBX Classes
 90
     1153
 91
       17
280
     0
281
     0
  0
CLASS
  1
MLEADERSTYLE
  2
AcDbMLeaderStyle
  3
ACDB_MLEADERSTYLE_CLASS
 90
     4095
 91
        1
280
     0
281
     0
  0
CLASS
  1
ACDBSECTIONVIEWSTYLE
  2
AcDbSectionViewStyle
  3
ObjectDBX Classes
 90
     1025
 91
        1
280
     0
281
     0
  0
CLASS
  1
ACDBDETAILVIEWSTYLE
  2
AcDbDetailViewStyle
  3
ObjectDBX Classes
 90
     1025
 91
        1
280
     0
281
     0
  0
CLASS
  1
DICTIONARYVAR
  2
AcDbDictionaryVar
  3
ObjectDBX Classes
 90
        0
 91
       27
280
     0
281
     0
  0
CLASS
  1
CELLSTYLEMAP
  2
AcDbCellStyleMap
  3
ObjectDBX Classes
 90
     1152
 91
        3
280
     0
281
     0
  0
ENDSEC
  0
SECTION
  2
TABLES
  0
TABLE
  2
VPORT
  5
8
330
0
100
AcDbSymbolTable
 70
     1
  0
VPORT
  5
10059
330
8
100
AcDbSymbolTableRecord
100
AcDbViewportTableRecord
  2
*Active
 70
     0
 10
0.0
 20
0.0
 11
1.0
 21
1.0
 12
304.2682149011926
 22
308.0620224441714
 13
0.0
 23
0.0
 14
1.0
 24
1.0
 15
0.0
 25
0.0
 16
0.0
 26
0.0
 36
1.0
 17
0.0
 27
0.0
 37
0.0
 40
1004.978824731422
 41
2.188141391106043
 42
50.0
 43
0.0
 44
0.0
 50
0.0
 51
0.0
 71
     0
 72
  1000
 73
     1
 74
     3
 75
     1
 76
     1
 77
     0
 78
     0
281
     0
 65
     1
110
0.0
120
0.0
130
0.0
111
1.0
121
0.0
131
0.0
112
0.0
122
1.0
132
0.0
 79
     0
146
0.0
348
10023
 60
     3
 61
     5
292
     1
282
     1
141
0.0
142
0.0
 63
   250
421
  3355443
1001
ACAD_NAV_VCDISPLAY
1070
     1
  0
ENDTAB
  0
TABLE
  2
LTYPE
  5
5
330
0
100
AcDbSymbolTable
 70
     1
  0
LTYPE
  5
14
330
5
100
AcDbSymbolTableRecord
100
AcDbLinetypeTableRecord
  2
BYBLOCK
 70
     0
  3

 72
    65
 73
     0
 40
0.0
  0
LTYPE
  5
15
330
5
100
AcDbSymbolTableRecord
100
AcDbLinetypeTableRecord
  2
BYLAYER
 70
     0
  3

 72
    65
 73
     0
 40
0.0
  0
LTYPE
  5
10001
330
5
100
AcDbSymbolTableRecord
100
AcDbLinetypeTableRecord
  2
Continuous
 70
     0
  3
Solid line
 72
    65
 73
     0
 40
0.0
  0
ENDTAB
  0
TABLE
  2
LAYER
  5
2
330
0
100
AcDbSymbolTable
 70
     1
  0
LAYER
  5
50
102
{ACAD_XDICTIONARY
360
1008C
102
}
330
2
100
AcDbSymbolTableRecord
100
AcDbLayerTableRecord
  2
0
 70
     0
 62
     7
  6
Continuous
370
    -3
390
10003
347
10015
348
0
  0
ENDTAB
  0
TABLE
  2
STYLE
  5
3
330
0
100
AcDbSymbolTable
 70
     1
  0
STYLE
  5
11
330
3
100
AcDbSymbolTableRecord
100
AcDbTextStyleTableRecord
  2
STANDARD
 70
     0
 40
0.0
 41
1.0
 50
0.0
 71
     0
 42
0.2
  3

  4

  0
ENDTAB
  0
TABLE
  2
VIEW
  5
6
330
0
100
AcDbSymbolTable
 70
     0
  0
ENDTAB
  0
TABLE
  2
UCS
  5
7
330
0
100
AcDbSymbolTable
 70
     0
  0
ENDTAB
  0
TABLE
  2
APPID
  5
9
330
0
100
AcDbSymbolTable
 70
     2
  0
APPID
  5
12
330
9
100
AcDbSymbolTableRecord
100
AcDbRegAppTableRecord
  2
ACAD
 70
     0
  0
APPID
  5
10058
330
9
100
AcDbSymbolTableRecord
100
AcDbRegAppTableRecord
  2
ACAD_NAV_VCDISPLAY
 70
     0
  0
ENDTAB
  0
TABLE
  2
DIMSTYLE
  5
A
330
0
100
AcDbSymbolTable
 70
     1
100
AcDbDimStyleTable
 71
     0
  0
DIMSTYLE
105
10053
330
A
100
AcDbSymbolTableRecord
100
AcDbDimStyleTableRecord
  2
Standard
 70
     0
340
11
  0
ENDTAB
  0
TABLE
  2
BLOCK_RECORD
  5
1
330
0
100
AcDbSymbolTable
 70
     0
  0
BLOCK_RECORD
  5
1F
330
1
100
AcDbSymbolTableRecord
100
AcDbBlockTableRecord
  2
*MODEL_SPACE
340
10055
 70
     0
280
     1
281
     0
  0
BLOCK_RECORD
  5
1B
330
1
100
AcDbSymbolTableRecord
100
AcDbBlockTableRecord
  2
*PAPER_SPACE
340
10056
 70
     0
280
     1
281
     0
  0
ENDTAB
  0
ENDSEC
  0
SECTION
  2
BLOCKS
  0
BLOCK
  5
20
330
1F
100
AcDbEntity
  8
0
100
AcDbBlockBegin
  2
*MODEL_SPACE
 70
     0
 10
0.0
 20
0.0
 30
0.0
  3
*MODEL_SPACE
  1

  0
ENDBLK
  5
21
330
1F
100
AcDbEntity
  8
0
100
AcDbBlockEnd
  0
BLOCK
  5
1C
330
1B
100
AcDbEntity
 67
     1
  8
0
100
AcDbBlockBegin
  2
*PAPER_SPACE
 70
     0
 10
0.0
 20
0.0
 30
0.0
  3
*PAPER_SPACE
  1

  0
ENDBLK
  5
1D
330
1B
100
AcDbEntity
 67
     1
  8
0
100
AcDbBlockEnd
  0
ENDSEC
  0
SECTION
  2
ENTITIES
  0
LWPOLYLINE
  5
108
330
1F
100
AcDbEntity
  8
0
100
AcDbPolyline
 90
        8
 70
     1
 43
0.0
 10
241.1710678118656
 20
108.2710678118655
 10
254.1710678118656
 20
108.2710678118655
 42
-0.4142135623729962
 10
254.6710678118656
 20
107.7710678118655
 10
254.6710678118657
 20
94.77106781186554
 42
-0.4142135623732095
 10
254.1710678118656
 20
94.27106781186552
 10
241.1710678118656
 20
94.2710678118655
 42
-0.4142135623731575
 10
240.6710678118656
 20
94.77106781186554
 10
240.6710678118656
 20
107.7710678118655
 42
-0.4142135623731368
  0
LWPOLYLINE
  5
109
330
1F
100
AcDbEntity
  8
0
100
AcDbPolyline
 90
        8
 70
     1
 43
0.0
 10
98.29606781186555
 20
75.22106781186555
 42
-0.4142135623730744
 10
97.79606781186551
 20
75.72106781186555
 10
97.79606781186551
 20
88.7210678118655
 42
-0.414213562372965
 10
98.2960678118655
 20
89.22106781186554
 10
111.2960678118656
 20
89.22106781186547
 42
-0.4142135623731003
 10
111.7960678118656
 20
88.7210678118655
 10
111.7960678118656
 20
75.72106781186555
 42
-0.4142135623730951
 10
111.2960678118656
 20
75.22106781186555
  0
LWPOLYLINE
  5
110
330
1F
100
AcDbEntity
  8
0
100
AcDbPolyline
 90
        8
 70
     1
 43
0.0
 10
78.45856781186549
 20
18.5710678118655
 10
78.45856781186549
 20
31.57106781186551
 42
0.4142135623730793
 10
77.95856781186549
 20
32.07106781186551
 10
62.57731781186548
 20
32.07106781186551
 42
0.4142135623730793
 10
62.0773178118655
 20
31.57106781186549
 10
62.07731781186551
 20
18.57106781186547
 42
0.4142135623730847
 10
62.57731781186548
 20
18.07106781186547
 10
77.95856781186549
 20
18.07106781186547
 42
0.4142135623730872
  0
LWPOLYLINE
  5
111
330
1F
100
AcDbEntity
  8
0
100
AcDbPolyline
 90
        8
 70
     1
 43
0.0
 10
212.0960678118656
 20
88.7210678118655
 42
-0.4142135623730744
 10
212.5960678118656
 20
89.22106781186551
 10
225.5960678118657
 20
89.22106781186554
 42
-0.4142135623728973
 10
226.0960678118656
 20
88.7210678118655
 10
226.0960678118656
 20
75.72106781186551
 42
-0.4142135623729468
 10
225.5960678118657
 20
75.2210678118655
 10
212.5960678118656
 20
75.2210678118655
 42
-0.4142135623732589
 10
212.0960678118656
 20
75.72106781186551
  0
LWPOLYLINE
  5
112
330
1F
100
AcDbEntity
  8
0
100
AcDbPolyline
 90
        8
 70
     1
 43
0.0
 10
31.12106781186549
 20
107.7710678118655
 42
-0.4142135623730379
 10
31.62106781186551
 20
108.2710678118655
 10
44.62106781186548
 20
108.2710678118655
 42
-0.4142135623730847
 10
45.12106781186551
 20
107.7710678118655
 10
45.12106781186547
 20
94.77106781186554
 42
-0.4142135623731262
 10
44.62106781186547
 20
94.27106781186557
 10
31.62106781186551
 20
94.27106781186557
 42
-0.4142135623731055
 10
31.12106781186551
 20
94.77106781186554
  0
LWPOLYLINE
  5
113
330
1F
100
AcDbEntity
  8
0
100
AcDbPolyline
 90
        8
 70
     1
 43
0.0
 10
12.07106781186551
 20
94.77106781186554
 10
12.0710678118655
 20
107.7710678118655
 42
-0.4142135623730346
 10
12.57106781186551
 20
108.2710678118655
 10
25.57106781186549
 20
108.2710678118655
 42
-0.4142135623731055
 10
26.0710678118655
 20
107.7710678118655
 10
26.0710678118655
 20
94.77106781186554
 42
-0.4142135623730951
 10
25.57106781186549
 20
94.27106781186557
 10
12.57106781186551
 20
94.27106781186557
 42
-0.4142135623731113
  0
LWPOLYLINE
  5
114
330
1F
100
AcDbEntity
  8
0
100
AcDbPolyline
 90
        8
 70
     1
 43
0.0
 10
88.77106781186553
 20
132.0835678118652
 10
101.7710678118655
 20
132.0835678118652
 42
-0.414213562373168
 10
102.2710678118655
 20
131.583567811865
 10
102.2710678118655
 20
118.5835678118653
 42
-0.4142135623730274
 10
101.7710678118656
 20
118.0835678118652
 10
88.77106781186553
 20
118.0835678118651
 42
-0.4142135623731159
 10
88.27106781186547
 20
118.5835678118653
 10
88.27106781186547
 20
131.583567811865
 42
-0.4142135623730534
  0
LWPOLYLINE
  5
118
330
1F
100
AcDbEntity
  8
0
100
AcDbPolyline
 90
        8
 70
     1
 43
0.0
 10
83.22106781186551
 20
107.7710678118655
 42
0.4142135623731315
 10
82.7210678118655
 20
108.2710678118656
 10
69.72106781186551
 20
108.2710678118655
 42
0.4142135623731106
 10
69.22106781186551
 20
107.7710678118655
 10
69.22106781186551
 20
94.77106781186554
 42
0.4142135623731106
 10
69.72106781186551
 20
94.27106781186557
 10
82.7210678118655
 20
94.27106781186557
 42
0.414213562373069
 10
83.22106781186551
 20
94.77106781186554
  0
LWPOLYLINE
  5
119
330
1F
100
AcDbEntity
  8
0
100
AcDbPolyline
 90
        8
 70
     1
 43
0.0
 10
316.5835678118657
 20
107.7710678118655
 10
316.5835678118657
 20
94.77106781186554
 42
-0.4142135623729338
 10
316.0835678118657
 20
94.27106781186546
 10
303.0835678118656
 20
94.2710678118655
 42
-0.4142135623729598
 10
302.5835678118657
 20
94.77106781186554
 10
302.5835678118657
 20
107.7710678118655
 42
-0.4142135623730951
 10
303.0835678118656
 20
108.2710678118655
 10
316.0835678118656
 20
108.2710678118654
 42
-0.4142135623731106
  0
LWPOLYLINE
  5
120
330
1F
100
AcDbEntity
  8
0
100
AcDbPolyline
 90
        8
 70
     1
 43
0.0
 10
145.9210678118656
 20
108.2710678118655
 10
158.9210678118656
 20
108.2710678118655
 42
-0.4142135623730951
 10
159.4210678118655
 20
107.7710678118655
 10
159.4210678118655
 20
94.77106781186554
 42
-0.4142135623731262
 10
158.9210678118656
 20
94.27106781186557
 10
145.9210678118656
 20
94.27106781186552
 42
-0.4142135623730482
 10
145.4210678118656
 20
94.77106781186554
 10
145.4210678118657
 20
107.7710678118655
 42
-0.4142135623730586
  0
ARC
  5
121
330
1F
100
AcDbEntity
  8
0
100
AcDbCircle
 10
297.6792678851654
 20
19.97108073566519
 30
0.0
 40
1.900000000000144
100
AcDbArc
 50
270.0008801252985
 51
0.0
  0
LWPOLYLINE
  5
122
330
1F
100
AcDbEntity
  8
0
100
AcDbPolyline
 90
        8
 70
     1
 43
0.0
 10
302.5835678118657
 20
88.72106781186547
 42
-0.4142135623731003
 10
303.0835678118656
 20
89.22106781186547
 10
316.0835678118657
 20
89.22106781186549
 42
-0.4142135623729806
 10
316.5835678118657
 20
88.72106781186547
 10
316.5835678118657
 20
75.72106781186551
 42
-0.41421356237303
 10
316.0835678118656
 20
75.22106781186548
 10
303.0835678118656
 20
75.2210678118655
 42
-0.4142135623731472
 10
302.5835678118656
 20
75.72106781186551
  0
LWPOLYLINE
  5
123
330
1F
100
AcDbEntity
  8
0
100
AcDbPolyline
 90
        8
 70
     1
 43
0.0
 10
121.3210678118656
 20
118.5835678118653
 10
121.3210678118656
 20
131.583567811865
 42
0.4142135623730847
 10
120.8210678118656
 20
132.083567811865
 10
107.8210678118656
 20
132.083567811865
 42
0.4142135623730431
 10
107.3210678118656
 20
131.583567811865
 10
107.3210678118656
 20
118.5835678118653
 42
0.4142135623731315
 10
107.8210678118656
 20
118.0835678118652
 10
120.8210678118656
 20
118.0835678118652
 42
0.4142135623730847
  0
LWPOLYLINE
  5
124
330
1F
100
AcDbEntity
  8
0
100
AcDbPolyline
 90
        8
 70
     1
 43
0.0
 10
64.17106781186551
 20
131.583567811865
 42
0.4142135623729962
 10
63.67106781186551
 20
132.083567811865
 10
50.6710678118655
 20
132.0835678118651
 42
0.4142135623731106
 10
50.17106781186548
 20
131.583567811865
 10
50.17106781186551
 20
118.5835678118653
 42
0.4142135623731368
 10
50.6710678118655
 20
118.0835678118653
 10
63.67106781186551
 20
118.0835678118653
 42
0.4142135623730379
 10
64.17106781186551
 20
118.5835678118653
  0
LWPOLYLINE
  5
125
330
1F
100
AcDbEntity
  8
0
100
AcDbPolyline
 90
        8
 70
     1
 43
0.0
 10
107.3210678118656
 20
94.77106781186554
 10
107.3210678118656
 20
107.7710678118655
 42
-0.4142135623730951
 10
107.8210678118656
 20
108.2710678118655
 10
120.8210678118656
 20
108.2710678118655
 42
-0.4142135623731262
 10
121.3210678118656
 20
107.7710678118655
 10
121.3210678118656
 20
94.77106781186554
 42
-0.4142135623731055
 10
120.8210678118656
 20
94.27106781186555
 10
107.8210678118656
 20
94.27106781186552
 42
-0.4142135623730639
  0
LWPOLYLINE
  5
126
330
1F
100
AcDbEntity
  8
0
100
AcDbPolyline
 90
        8
 70
     1
 43
0.0
 10
73.69606781186551
 20
75.72106781186555
 42
-0.4142135623730872
 10
73.19606781186547
 20
75.22106781186555
 10
60.19606781186552
 20
75.22106781186554
 42
-0.4142135623730768
 10
59.6960678118655
 20
75.72106781186555
 10
59.6960678118655
 20
88.7210678118655
 42
-0.4142135623730898
 10
60.19606781186552
 20
89.22106781186551
 10
73.19606781186547
 20
89.22106781186549
 42
-0.4142135623730639
 10
73.69606781186551
 20
88.7210678118655
  0
LWPOLYLINE
  5
127
330
1F
100
AcDbEntity
  8
0
100
AcDbPolyline
 90
        8
 70
     1
 43
0.0
 10
50.17106781186551
 20
107.7710678118655
 42
-0.4142135623730379
 10
50.6710678118655
 20
108.2710678118655
 10
63.67106781186551
 20
108.2710678118655
 42
-0.4142135623730793
 10
64.17106781186551
 20
107.7710678118655
 10
64.17106781186546
 20
94.77106781186554
 42
-0.414213562373069
 10
63.67106781186548
 20
94.27106781186553
 10
50.6710678118655
 20
94.27106781186557
 42
-0.4142135623731419
 10
50.17106781186551
 20
94.77106781186554
  0
LWPOLYLINE
  5
128
330
1F
100
AcDbEntity
  8
0
100
AcDbPolyline
 90
        8
 70
     1
 43
0.0
 10
33.21481781186549
 20
69.67106781186558
 10
33.2148178118655
 20
56.67106781186551
 42
-0.4142135623730776
 10
32.71481781186549
 20
56.1710678118655
 10
14.9523178118655
 20
56.17106781186551
 42
-0.4142135623730827
 10
14.45231781186549
 20
56.67106781186551
 10
14.45231781186552
 20
69.6710678118656
 42
-0.4142135623730872
 10
14.95231781186548
 20
70.17106781186547
 10
32.71481781186549
 20
70.17106781186559
 42
-0.4142135623730847
  0
LWPOLYLINE
  5
129
330
1F
100
AcDbEntity
  8
0
100
AcDbPolyline
 90
        8
 70
     1
 43
0.0
 10
155.4460678118656
 20
118.0835678118651
 42
-0.4142135623730639
 10
154.9460678118656
 20
118.5835678118653
 10
154.9460678118656
 20
131.583567811865
 42
-0.4142135623731991
 10
155.4460678118656
 20
132.0835678118652
 10
168.4460678118656
 20
132.0835678118652
 42
-0.4142135623731055
 10
168.9460678118656
 20
131.583567811865
 10
168.9460678118656
 20
118.5835678118653
 42
-0.4142135623731784
 10
168.4460678118656
 20
118.0835678118652
  0
LWPOLYLINE
  5
130
330
1F
100
AcDbEntity
  8
0
100
AcDbPolyline
 90
        8
 70
     1
 43
0.0
 10
244.6460678118656
 20
89.22106781186551
 42
-0.4142135623729701
 10
245.1460678118656
 20
88.7210678118655
 10
245.1460678118656
 20
75.72106781186551
 42
-0.4142135623728271
 10
244.6460678118656
 20
75.22106781186548
 10
231.6460678118656
 20
75.2210678118655
 42
-0.4142135623732511
 10
231.1460678118656
 20
75.72106781186551
 10
231.1460678118656
 20
88.7210678118655
 42
-0.4142135623731262
 10
231.6460678118656
 20
89.22106781186547
  0
LWPOLYLINE
  5
131
330
1F
100
AcDbEntity
  8
0
100
AcDbPolyline
 90
        8
 70
     1
 43
0.0
 10
41.14606781186548
 20
75.22106781186555
 42
-0.4142135623730744
 10
40.64606781186548
 20
75.72106781186555
 10
40.64606781186548
 20
88.7210678118655
 42
-0.4142135623730665
 10
41.14606781186548
 20
89.22106781186551
 10
54.14606781186548
 20
89.22106781186551
 42
-0.4142135623731106
 10
54.64606781186548
 20
88.7210678118655
 10
54.64606781186551
 20
75.72106781186555
 42
-0.4142135623731341
 10
54.14606781186548
 20
75.22106781186554
  0
LWPOLYLINE
  5
132
330
1F
100
AcDbEntity
  8
0
100
AcDbPolyline
 90
        8
 70
     1
 43
0.0
 10
242.7648178118656
 20
18.57106781186547
 42
-0.4142135623732381
 10
242.2648178118656
 20
18.07106781186544
 10
226.8835678118656
 20
18.07106781186547
 42
-0.4142135623729989
 10
226.3835678118657
 20
18.57106781186547
 10
226.3835678118657
 20
31.57106781186548
 42
-0.41421356237303
 10
226.8835678118656
 20
32.07106781186558
 10
242.2648178118656
 20
32.07106781186546
 42
-0.4142135623729143
 10
242.7648178118657
 20
31.57106781186548
  0
LWPOLYLINE
  5
135
330
1F
100
AcDbEntity
  8
0
100
AcDbPolyline
 90
        8
 70
     1
 43
0.0
 10
103.0585678118654
 20
56.17106781186547
 42
-0.4142135623730808
 10
102.5585678118655
 20
56.6710678118655
 10
102.5585678118655
 20
69.67106781186555
 42
-0.4142135623731288
 10
103.0585678118654
 20
70.17106781186547
 10
116.0585678118655
 20
70.17106781186559
 42
-0.4142135623731055
 10
116.5585678118655
 20
69.67106781186558
 10
116.5585678118655
 20
56.6710678118655
 42
-0.4142135623731062
 10
116.0585678118655
 20
56.17106781186551
  0
LWPOLYLINE
  5
136
330
1F
100
AcDbEntity
  8
0
100
AcDbPolyline
 90
        8
 70
     1
 43
0.0
 10
226.3835678118657
 20
50.6210678118655
 42
-0.4142135623730524
 10
226.8835678118656
 20
51.12106781186557
 10
239.8835678118656
 20
51.12106781186552
 42
-0.414213562372889
 10
240.3835678118656
 20
50.6210678118655
 10
240.3835678118656
 20
37.62106781186548
 42
-0.4142135623727452
 10
239.8835678118656
 20
37.12106781186541
 10
226.8835678118656
 20
37.1210678118654
 42
-0.4142135623730482
 10
226.3835678118657
 20
37.62106781186548
  0
LWPOLYLINE
  5
139
330
1F
100
AcDbEntity
  8
0
100
AcDbPolyline
 90
        8
 70
     1
 43
0.0
 10
193.0460678118656
 20
118.5835678118653
 10
193.0460678118656
 20
131.583567811865
 42
-0.4142135623729389
 10
193.5460678118656
 20
132.0835678118651
 10
206.5460678118656
 20
132.0835678118652
 42
-0.4142135623731159
 10
207.0460678118656
 20
131.583567811865
 10
207.0460678118656
 20
118.5835678118653
 42
-0.4142135623731784
 10
206.5460678118656
 20
118.0835678118652
 10
193.5460678118656
 20
118.0835678118651
 42
-0.414213562372913
  0
LWPOLYLINE
  5
140
330
1F
100
AcDbEntity
  8
0
100
AcDbPolyline
 90
        8
 70
     1
 43
0.0
 10
341.1835678118656
 20
94.27106781186555
 42
-0.4142135623730586
 10
340.6835678118657
 20
94.77106781186554
 10
340.6835678118657
 20
107.7710678118655
 42
-0.4142135623729441
 10
341.1835678118656
 20
108.2710678118656
 10
354.1835678118657
 20
108.2710678118654
 42
-0.414213562373168
 10
354.6835678118654
 20
107.7710678118655
 10
354.6835678118657
 20
94.77106781186554
 42
-0.4142135623731939
 10
354.1835678118656
 20
94.27106781186553
  0
LWPOLYLINE
  5
141
330
1F
100
AcDbEntity
  8
0
100
AcDbPolyline
 90
        8
 70
     1
 43
0.0
 10
192.7585678118656
 20
69.67106781186555
 10
192.7585678118656
 20
56.6710678118655
 42
-0.4142135623732323
 10
192.2585678118656
 20
56.1710678118655
 10
179.2585678118656
 20
56.17106781186548
 42
-0.4142135623731439
 10
178.7585678118656
 20
56.6710678118655
 10
178.7585678118654
 20
69.67106781186555
 42
-0.4142135623732017
 10
179.2585678118656
 20
70.17106781186555
 10
192.2585678118656
 20
70.17106781186561
 42
-0.414213562373207
  0
LWPOLYLINE
  5
142
330
1F
100
AcDbEntity
  8
0
100
AcDbPolyline
 90
        8
 70
     1
 43
0.0
 10
250.1960678118656
 20
88.7210678118655
 42
-0.4142135623732043
 10
250.6960678118657
 20
89.22106781186551
 10
263.6960678118656
 20
89.22106781186551
 42
-0.4142135623729701
 10
264.1960678118656
 20
88.7210678118655
 10
264.1960678118656
 20
75.72106781186551
 42
-0.4142135623728271
 10
263.6960678118656
 20
75.22106781186548
 10
250.6960678118657
 20
75.2210678118655
 42
-0.4142135623732121
 10
250.1960678118656
 20
75.72106781186551
  0
LWPOLYLINE
  5
143
330
1F
100
AcDbEntity
  8
0
100
AcDbPolyline
 90
        8
 70
     1
 43
0.0
 10
126.8710678118655
 20
108.2710678118655
 10
139.8710678118656
 20
108.2710678118655
 42
-0.414213562373121
 10
140.3710678118656
 20
107.7710678118655
 10
140.3710678118656
 20
94.77106781186554
 42
-0.4142135623731055
 10
139.8710678118656
 20
94.27106781186555
 10
126.8710678118655
 20
94.27106781186557
 42
-0.4142135623731159
 10
126.3710678118656
 20
94.77106781186554
 10
126.3710678118656
 20
107.7710678118655
 42
-0.4142135623731419
  0
LWPOLYLINE
  5
145
330
1F
100
AcDbEntity
  8
0
100
AcDbPolyline
 90
        8
 70
     1
 43
0.0
 10
130.8460678118656
 20
88.7210678118655
 10
130.8460678118656
 20
75.72106781186555
 42
-0.4142135623731133
 10
130.3460678118656
 20
75.2210678118655
 10
117.3460678118656
 20
75.22106781186554
 42
-0.4142135623730872
 10
116.8460678118656
 20
75.72106781186555
 10
116.8460678118656
 20
88.7210678118655
 42
-0.414213562373069
 10
117.3460678118656
 20
89.22106781186547
 10
130.3460678118656
 20
89.22106781186547
 42
-0.4142135623731003
  0
LWPOLYLINE
  5
146
330
1F
100
AcDbEntity
  8
0
100
AcDbPolyline
 90
        8
 70
     1
 43
0.0
 10
164.9710678118656
 20
108.2710678118655
 10
177.9710678118655
 20
108.2710678118655
 42
-0.4142135623729077
 10
178.4710678118656
 20
107.7710678118655
 10
178.4710678118656
 20
94.77106781186554
 42
-0.4142135623732355
 10
177.9710678118656
 20
94.27106781186555
 10
164.9710678118655
 20
94.27106781186552
 42
-0.4142135623730274
 10
164.4710678118656
 20
94.77106781186554
 10
164.4710678118656
 20
107.7710678118655
 42
-0.4142135623731575
  0
LWPOLYLINE
  5
147
330
1F
100
AcDbEntity
  8
0
100
AcDbPolyline
 90
        8
 70
     1
 43
0.0
 10
26.07106781186547
 20
131.583567811865
 10
26.07106781186549
 20
118.5835678118653
 42
-0.4142135623730898
 10
25.57106781186549
 20
118.0835678118652
 10
12.57106781186551
 20
118.0835678118651
 42
-0.4142135623730534
 10
12.07106781186552
 20
118.5835678118653
 10
12.0710678118655
 20
131.583567811865
 42
-0.4142135623730606
 10
12.57106781186552
 20
132.0835678118652
 10
25.57106781186551
 20
132.0835678118652
 42
-0.414213562373173
  0
LWPOLYLINE
  5
149
330
1F
100
AcDbEntity
  8
0
100
AcDbPolyline
 90
       28
 70
     1
 43
0.0
 10
261.8143172520582
 20
90.41606534900182
 10
290.6903164047188
 20
90.41606534900186
 42
0.4142147495030885
 10
291.6903184312768
 20
91.41606737555978
 10
291.6903184312768
 20
94.27106781186546
 10
292.2710678118655
 20
94.2710678118655
 42
0.4142135623730534
 10
292.7710678118657
 20
94.77106781186552
 10
292.7710678118657
 20
107.7710678118654
 42
0.4142135623729858
 10
292.2710678118658
 20
108.2710678118655
 10
291.6903184312768
 20
108.2710678118655
 10
291.6903184312768
 20
109.3560670751517
 42
0.4142141559378124
 10
290.6903164047197
 20
110.3560670751505
 10
285.1903191465343
 20
110.3560670751524
 42
0.4142135623730951
 10
284.1903191465327
 20
109.3560670751507
 10
284.1903191465332
 20
107.7710678118656
 10
282.2523178118651
 20
107.7710678118656
 10
270.2523178118651
 20
107.7710678118655
 10
268.3143182185422
 20
107.7710678118655
 10
268.3143182645834
 20
109.356067045345
 42
0.4142841670767201
 10
267.3140772118109
 20
110.3560670751521
 10
261.8143172520585
 20
110.3560670751521
 42
0.414213610381225
 10
260.8143170881437
 20
109.3560670751473
 10
260.8143170881456
 20
108.2710678118654
 10
260.2210678118656
 20
108.2710678118654
 42
0.4142135623731472
 10
259.7210678118656
 20
107.7710678118654
 10
259.7210678118656
 20
94.77106781186547
 42
0.4142135623731159
 10
260.2210678118656
 20
94.2710678118655
 10
260.8143170881457
 20
94.2710678118655
 10
260.8143170881457
 20
91.41606737555978
 42
0.4142142039465374
  0
LWPOLYLINE
  5
152
330
1F
100
AcDbEntity
  8
0
100
AcDbPolyline
 90
        8
 70
     1
 43
0.0
 10
83.22106781186551
 20
131.583567811865
 10
83.22106781186553
 20
118.5835678118653
 42
-0.4142135623730744
 10
82.7210678118655
 20
118.0835678118652
 10
69.72106781186551
 20
118.0835678118651
 42
-0.4142135623730066
 10
69.22106781186551
 20
118.5835678118653
 10
69.22106781186551
 20
131.583567811865
 42
-0.4142135623731626
 10
69.72106781186551
 20
132.0835678118652
 10
82.7210678118655
 20
132.0835678118652
 42
-0.4142135623730744
  0
LWPOLYLINE
  5
164
330
1F
100
AcDbEntity
  8
0
100
AcDbPolyline
 90
        8
 70
     1
 43
0.0
 10
289.8898178118656
 20
18.07106781186543
 10
274.5085678118656
 20
18.07106781186544
 42
-0.4142135623731106
 10
274.0085678118656
 20
18.57106781186547
 10
274.0085678118656
 20
31.57106781186548
 42
-0.4142135623732225
 10
274.5085678118656
 20
32.07106781186548
 10
289.8898178118656
 20
32.07106781186548
 42
-0.4142135623731081
 10
290.3898178118656
 20
31.57106781186546
 10
290.3898178118656
 20
18.57106781186545
 42
-0.414213562373233
  0
LWPOLYLINE
  5
166
330
1F
100
AcDbEntity
  8
0
100
AcDbPolyline
 90
        8
 70
     1
 43
0.0
 10
93.53356781186553
 20
51.12106781186551
 10
106.5335678118656
 20
51.12106781186553
 42
-0.4142135623730453
 10
107.0335678118656
 20
50.62106781186551
 10
107.0335678118656
 20
37.62106781186548
 42
-0.4142135623729806
 10
106.5335678118656
 20
37.12106781186546
 10
93.53356781186553
 20
37.12106781186547
 42
-0.4142135623730612
 10
93.0335678118655
 20
37.62106781186549
 10
93.03356781186554
 20
50.62106781186551
 42
-0.4142135623730072
  0
LWPOLYLINE
  5
168
330
1F
100
AcDbEntity
  8
0
100
AcDbPolyline
 90
        8
 70
     1
 43
0.0
 10
235.1210678118657
 20
118.0835678118652
 10
222.1210678118656
 20
118.0835678118652
 42
-0.4142135623729026
 10
221.6210678118657
 20
118.5835678118653
 10
221.6210678118656
 20
131.583567811865
 42
-0.4142135623730639
 10
222.1210678118656
 20
132.0835678118652
 10
235.1210678118657
 20
132.0835678118652
 42
-0.4142135623731262
 10
235.6210678118657
 20
131.583567811865
 10
235.6210678118656
 20
118.5835678118653
 42
-0.414213562372887
  0
LWPOLYLINE
  5
169
330
1F
100
AcDbEntity
  8
0
100
AcDbPolyline
 90
        8
 70
     1
 43
0.0
 10
335.6335678118656
 20
18.57106781186545
 42
-0.4142135623732043
 10
335.1335678118656
 20
18.07106781186542
 10
322.1335678118656
 20
18.07106781186545
 42
-0.414213562373004
 10
321.6335678118657
 20
18.57106781186545
 10
321.6335678118656
 20
31.57106781186546
 42
-0.4142135623728727
 10
322.1335678118656
 20
32.07106781186551
 10
335.1335678118656
 20
32.07106781186532
 42
-0.4142135623732836
 10
335.6335678118656
 20
31.57106781186546
  0
LWPOLYLINE
  5
170
330
1F
100
AcDbEntity
  8
0
100
AcDbPolyline
 90
        8
 70
     1
 43
0.0
 10
30.3335678118655
 20
89.22106781186551
 42
-0.4142135623730612
 10
30.83356781186551
 20
88.7210678118655
 10
30.83356781186548
 20
75.72106781186555
 42
-0.4142135623731081
 10
30.3335678118655
 20
75.22106781186554
 10
17.33356781186549
 20
75.22106781186554
 42
-0.4142135623731081
 10
16.83356781186549
 20
75.72106781186555
 10
16.83356781186549
 20
88.7210678118655
 42
-0.4142135623730729
 10
17.33356781186549
 20
89.22106781186551
  0
LWPOLYLINE
  5
171
330
1F
100
AcDbEntity
  8
0
100
AcDbPolyline
 90
        8
 70
     1
 43
0.0
 10
335.6335678118656
 20
75.72106781186551
 42
-0.4142135623732017
 10
335.1335678118655
 20
75.2210678118655
 10
322.1335678118656
 20
75.2210678118655
 42
-0.4142135623731472
 10
321.6335678118656
 20
75.72106781186551
 10
321.6335678118657
 20
88.72106781186547
 42
-0.4142135623729701
 10
322.1335678118656
 20
89.22106781186547
 10
335.1335678118655
 20
89.22106781186547
 42
-0.4142135623730639
 10
335.6335678118656
 20
88.72106781186548
  0
LWPOLYLINE
  5
172
330
1F
100
AcDbEntity
  8
0
100
AcDbPolyline
 90
        8
 70
     1
 43
0.0
 10
149.8960678118655
 20
131.583567811865
 10
149.8960678118655
 20
118.5835678118653
 42
-0.4142135623730744
 10
149.3960678118655
 20
118.0835678118652
 10
136.3960678118655
 20
118.0835678118651
 42
-0.4142135623730639
 10
135.8960678118656
 20
118.5835678118653
 10
135.8960678118656
 20
131.583567811865
 42
-0.4142135623731991
 10
136.3960678118655
 20
132.0835678118652
 10
149.3960678118655
 20
132.0835678118652
 42
-0.4142135623731575
  0
LWPOLYLINE
  5
173
330
1F
100
AcDbEntity
  8
0
100
AcDbPolyline
 90
        8
 70
     1
 43
0.0
 10
197.5210678118656
 20
107.7710678118655
 10
197.5210678118656
 20
94.77106781186554
 42
-0.4142135623730586
 10
197.0210678118656
 20
94.2710678118655
 10
184.0210678118656
 20
94.27106781186564
 42
-0.4142135623732043
 10
183.5210678118656
 20
94.77106781186554
 10
183.5210678118656
 20
107.7710678118655
 42
-0.4142135623730326
 10
184.0210678118656
 20
108.2710678118655
 10
197.0210678118656
 20
108.2710678118655
 42
-0.4142135623731626
  0
LWPOLYLINE
  5
174
330
1F
100
AcDbEntity
  8
0
100
AcDbPolyline
 90
        8
 70
     1
 43
0.0
 10
131.6335678118656
 20
37.12106781186547
 42
-0.4142135623730931
 10
131.1335678118656
 20
37.62106781186548
 10
131.1335678118656
 20
50.62106781186551
 42
-0.4142135623731062
 10
131.6335678118656
 20
51.1210678118655
 10
144.6335678118655
 20
51.12106781186551
 42
-0.414213562372976
 10
145.1335678118656
 20
50.62106781186551
 10
145.1335678118656
 20
37.62106781186548
 42
-0.4142135623729819
 10
144.6335678118655
 20
37.12106781186547
  0
LWPOLYLINE
  5
175
330
1F
100
AcDbEntity
  8
0
100
AcDbPolyline
 90
        8
 70
     1
 43
0.0
 10
54.14606781186548
 20
32.07106781186552
 42
-0.4142135623730976
 10
54.64606781186551
 20
31.57106781186551
 10
54.64606781186548
 20
18.5710678118655
 42
-0.4142135623730665
 10
54.14606781186548
 20
18.0710678118655
 10
38.76481781186548
 20
18.0710678118655
 42
-0.4142135623731159
 10
38.26481781186549
 20
18.5710678118655
 10
38.26481781186549
 20
31.57106781186552
 42
-0.4142135623730937
 10
38.76481781186551
 20
32.07106781186552
  0
LWPOLYLINE
  5
176
330
1F
100
AcDbEntity
  8
0
100
AcDbPolyline
 90
        8
 70
     1
 43
0.0
 10
354.1835678118657
 20
118.0835678118652
 42
0.4142135623729494
 10
354.6835678118657
 20
118.5835678118653
 10
354.6835678118654
 20
131.5835678118649
 42
0.4142135623734072
 10
354.1835678118654
 20
132.0835678118649
 10
341.1835678118655
 20
132.0835678118648
 42
0.4142135623733865
 10
340.6835678118655
 20
131.5835678118649
 10
340.6835678118657
 20
118.5835678118653
 42
0.4142135623730639
 10
341.1835678118656
 20
118.0835678118653
  0
LWPOLYLINE
  5
177
330
1F
100
AcDbEntity
  8
0
100
AcDbPolyline
 90
        8
 70
     1
 43
0.0
 10
183.2335678118656
 20
37.62106781186548
 42
-0.4142135623730744
 10
182.7335678118656
 20
37.12106781186547
 10
169.7335678118656
 20
37.12106781186543
 42
-0.4142135623729897
 10
169.2335678118656
 20
37.62106781186548
 10
169.2335678118656
 20
50.6210678118655
 42
-0.4142135623730023
 10
169.7335678118656
 20
51.1210678118655
 10
182.7335678118656
 20
51.1210678118655
 42
-0.414213562372983
 10
183.2335678118656
 20
50.6210678118655
  0
LWPOLYLINE
  5
178
330
1F
100
AcDbEntity
  8
0
100
AcDbPolyline
 90
        8
 70
     1
 43
0.0
 10
159.7085678118656
 20
56.6710678118655
 10
159.7085678118656
 20
69.67106781186555
 42
-0.414213562372887
 10
160.2085678118656
 20
70.17106781186557
 10
173.2085678118657
 20
70.17106781186559
 42
-0.4142135623731419
 10
173.7085678118656
 20
69.67106781186555
 10
173.7085678118655
 20
56.6710678118655
 42
-0.4142135623732323
 10
173.2085678118655
 20
56.1710678118655
 10
160.2085678118656
 20
56.17106781186553
 42
-0.4142135623731523
  0
LWPOLYLINE
  5
179
330
1F
100
AcDbEntity
  8
0
100
AcDbPolyline
 90
        8
 70
     1
 43
0.0
 10
216.5710678118656
 20
107.7710678118655
 10
216.5710678118656
 20
94.77106781186554
 42
-0.4142135623729858
 10
216.0710678118657
 20
94.27106781186552
 10
203.0710678118656
 20
94.27106781186552
 42
-0.4142135623730744
 10
202.5710678118657
 20
94.77106781186554
 10
202.5710678118657
 20
107.7710678118655
 42
-0.4142135623730951
 10
203.0710678118656
 20
108.2710678118655
 10
216.0710678118657
 20
108.2710678118655
 42
-0.4142135623730118
  0
LWPOLYLINE
  5
180
330
1F
100
AcDbEntity
  8
0
100
AcDbPolyline
 90
        8
 70
     1
 43
0.0
 10
235.1210678118657
 20
94.2710678118655
 10
222.1210678118656
 20
94.27106781186564
 42
-0.4142135623732043
 10
221.6210678118656
 20
94.77106781186554
 10
221.6210678118657
 20
107.7710678118655
 42
-0.4142135623730326
 10
222.1210678118656
 20
108.2710678118655
 10
235.1210678118657
 20
108.2710678118655
 42
-0.4142135623730482
 10
235.6210678118656
 20
107.7710678118655
 10
235.6210678118656
 20
94.77106781186554
 42
-0.4142135623730222
  0
LWPOLYLINE
  5
181
330
1F
100
AcDbEntity
  8
0
100
AcDbPolyline
 90
        8
 70
     1
 43
0.0
 10
97.50856781186554
 20
69.67106781186558
 10
97.50856781186548
 20
56.6710678118655
 42
-0.4142135623731295
 10
97.00856781186544
 20
56.17106781186553
 10
84.00856781186547
 20
56.17106781186552
 42
-0.4142135623731003
 10
83.50856781186545
 20
56.6710678118655
 10
83.50856781186548
 20
69.67106781186558
 42
-0.4142135623730847
 10
84.00856781186547
 20
70.17106781186559
 10
97.00856781186544
 20
70.17106781186559
 42
-0.4142135623731133
  0
LWPOLYLINE
  5
182
330
1F
100
AcDbEntity
  8
0
100
AcDbPolyline
 90
        8
 70
     1
 43
0.0
 10
335.6335678118656
 20
37.62106781186546
 42
-0.414213562373205
 10
335.1335678118656
 20
37.12106781186544
 10
322.1335678118656
 20
37.1210678118655
 42
-0.4142135623730242
 10
321.6335678118657
 20
37.62106781186546
 10
321.6335678118656
 20
50.6210678118655
 42
-0.4142135623728528
 10
322.1335678118656
 20
51.1210678118655
 10
335.1335678118656
 20
51.12106781186541
 42
-0.4142135623731884
 10
335.6335678118656
 20
50.6210678118655
  0
ARC
  5
183
330
1F
100
AcDbEntity
  8
0
100
AcDbCircle
 10
297.6792964980654
 20
19.97108073596518
 30
0.0
 40
1.900000000000063
100
AcDbArc
 50
180.0000172242354
 51
270.0000172840303
  0
LINE
  5
184
330
1F
100
AcDbEntity
  8
0
100
AcDbLine
 10
299.5792678851656
 20
19.97108073566519
 30
0.0
 11
299.5792678851654
 21
113.1773178118652
 31
0.0
  0
LINE
  5
185
330
1F
100
AcDbEntity
  8
0
100
AcDbLine
 10
295.7792684567654
 20
113.1773172402652
 30
0.0
 11
295.7792964980654
 21
19.97108016478791
 31
0.0
  0
LWPOLYLINE
  5
186
330
1F
100
AcDbEntity
  8
0
100
AcDbPolyline
 90
        8
 70
     1
 43
0.0
 10
187.4960678118656
 20
118.0835678118652
 10
174.4960678118656
 20
118.0835678118651
 42
-0.4142135623730744
 10
173.9960678118656
 20
118.5835678118653
 10
173.9960678118656
 20
131.583567811865
 42
-0.4142135623728973
 10
174.4960678118657
 20
132.0835678118652
 10
187.4960678118656
 20
132.0835678118652
 42
-0.4142135623731055
 10
187.9960678118656
 20
131.583567811865
 10
187.9960678118656
 20
118.5835678118653
 42
-0.4142135623731784
  0
LWPOLYLINE
  5
187
330
1F
100
AcDbEntity
  8
0
100
AcDbPolyline
 90
        8
 70
     1
 43
0.0
 10
87.48356781186547
 20
51.12106781186554
 42
-0.414213562373041
 10
87.98356781186546
 20
50.62106781186552
 10
87.98356781186546
 20
37.62106781186549
 42
-0.4142135623731276
 10
87.48356781186547
 20
37.12106781186546
 10
74.4835678118655
 20
37.12106781186547
 42
-0.4142135623731048
 10
73.98356781186549
 20
37.62106781186549
 10
73.98356781186547
 20
50.62106781186552
 42
-0.414213562372991
 10
74.4835678118655
 20
51.12106781186554
  0
LWPOLYLINE
  5
188
330
1F
100
AcDbEntity
  8
0
100
AcDbPolyline
 90
        8
 70
     1
 43
0.0
 10
249.9085678118656
 20
56.67106781186548
 42
-0.4142135623729423
 10
249.4085678118656
 20
56.17106781186549
 10
236.4085678118656
 20
56.17106781186548
 42
-0.4142135623732303
 10
235.9085678118657
 20
56.67106781186546
 10
235.9085678118657
 20
69.67106781186555
 42
-0.4142135623730249
 10
236.4085678118656
 20
70.17106781186561
 10
249.4085678118656
 20
70.17106781186559
 42
-0.4142135623729468
 10
249.9085678118656
 20
69.67106781186555
  0
LWPOLYLINE
  5
189
330
1F
100
AcDbEntity
  8
0
100
AcDbPolyline
 90
        8
 70
     1
 43
0.0
 10
341.1835678118657
 20
32.0710678118655
 10
354.1835678118656
 20
32.07106781186541
 42
-0.4142135623732511
 10
354.6835678118657
 20
31.57106781186546
 10
354.6835678118657
 20
18.57106781186545
 42
-0.414213562373207
 10
354.1835678118656
 20
18.07106781186544
 10
341.1835678118656
 20
18.07106781186551
 42
-0.4142135623731133
 10
340.6835678118657
 20
18.57106781186545
 10
340.6835678118657
 20
31.57106781186546
 42
-0.4142135623734697
  0
LWPOLYLINE
  5
190
330
1F
100
AcDbEntity
  8
0
100
AcDbPolyline
 90
        8
 70
     1
 43
0.0
 10
335.1335678118656
 20
94.27106781186553
 10
322.1335678118656
 20
94.2710678118655
 42
-0.4142135623729441
 10
321.6335678118657
 20
94.77106781186554
 10
321.6335678118657
 20
107.7710678118655
 42
-0.4142135623730326
 10
322.1335678118656
 20
108.2710678118655
 10
335.1335678118655
 20
108.2710678118653
 42
-0.414213562373657
 10
335.6335678118655
 20
107.7710678118656
 10
335.6335678118656
 20
94.77106781186554
 42
-0.4142135623731523
  0
LWPOLYLINE
  5
191
330
1F
100
AcDbEntity
  8
0
100
AcDbPolyline
 90
        8
 70
     1
 43
0.0
 10
303.0835678118656
 20
18.07106781186544
 42
-0.4142135623730482
 10
302.5835678118657
 20
18.57106781186547
 10
302.5835678118655
 20
31.57106781186546
 42
-0.4142135623730976
 10
303.0835678118656
 20
32.07106781186544
 10
316.0835678118656
 20
32.07106781186556
 42
-0.414213562373004
 10
316.5835678118657
 20
31.57106781186546
 10
316.5835678118657
 20
18.57106781186547
 42
-0.4142135623731809
 10
316.0835678118656
 20
18.07106781186542
  0
LWPOLYLINE
  5
192
330
1F
100
AcDbEntity
  8
0
100
AcDbPolyline
 90
        8
 70
     1
 43
0.0
 10
335.6335678118655
 20
131.5835678118649
 10
335.6335678118656
 20
118.5835678118653
 42
-0.4142135623731991
 10
335.1335678118656
 20
118.0835678118653
 10
322.1335678118656
 20
118.0835678118652
 42
-0.4142135623729026
 10
321.6335678118657
 20
118.5835678118653
 10
321.6335678118656
 20
131.5835678118649
 42
-0.4142135623728245
 10
322.1335678118656
 20
132.083567811865
 10
335.1335678118656
 20
132.083567811865
 42
-0.4142135623729077
  0
LWPOLYLINE
  5
193
330
1F
100
AcDbEntity
  8
0
100
AcDbPolyline
 90
        8
 70
     1
 43
0.0
 10
55.43356781186548
 20
37.12106781186547
 42
-0.4142135623730782
 10
54.93356781186548
 20
37.62106781186549
 10
54.93356781186548
 20
50.62106781186552
 42
-0.4142135623730672
 10
55.43356781186548
 20
51.12106781186553
 10
68.43356781186549
 20
51.12106781186552
 42
-0.4142135623730792
 10
68.93356781186549
 20
50.62106781186552
 10
68.93356781186549
 20
37.62106781186549
 42
-0.4142135623731231
 10
68.43356781186549
 20
37.1210678118655
  0
LWPOLYLINE
  5
194
330
1F
100
AcDbEntity
  8
0
100
AcDbPolyline
 90
        8
 70
     1
 43
0.0
 10
58.90856781186547
 20
70.17106781186559
 42
-0.4142135623730847
 10
59.40856781186547
 20
69.67106781186558
 10
59.40856781186547
 20
56.6710678118655
 42
-0.4142135623730801
 10
58.90856781186547
 20
56.1710678118655
 10
45.9085678118655
 20
56.17106781186552
 42
-0.4142135623730958
 10
45.40856781186547
 20
56.67106781186551
 10
45.40856781186549
 20
69.67106781186558
 42
-0.4142135623730847
 10
45.90856781186548
 20
70.17106781186559
  0
LWPOLYLINE
  5
195
330
1F
100
AcDbEntity
  8
0
100
AcDbPolyline
 90
        8
 70
     1
 43
0.0
 10
30.3335678118655
 20
32.07106781186552
 42
-0.414213562373099
 10
30.83356781186548
 20
31.57106781186552
 10
30.83356781186548
 20
18.5710678118655
 42
-0.4142135623731029
 10
30.3335678118655
 20
18.07106781186547
 10
14.95231781186548
 20
18.07106781186547
 42
-0.4142135623730744
 10
14.45231781186548
 20
18.5710678118655
 10
14.4523178118655
 20
31.57106781186551
 42
-0.4142135623730937
 10
14.95231781186548
 20
32.07106781186552
  0
LWPOLYLINE
  5
196
330
1F
100
AcDbEntity
  8
0
100
AcDbPolyline
 90
        8
 70
     1
 43
0.0
 10
141.1585678118656
 20
70.17106781186547
 10
154.1585678118656
 20
70.17106781186555
 42
-0.4142135623730586
 10
154.6585678118656
 20
69.67106781186555
 10
154.6585678118656
 20
56.6710678118655
 42
-0.4142135623730534
 10
154.1585678118656
 20
56.17106781186549
 10
141.1585678118656
 20
56.1710678118655
 42
-0.4142135623731055
 10
140.6585678118656
 20
56.6710678118655
 10
140.6585678118656
 20
69.67106781186555
 42
-0.414213562373069
  0
LWPOLYLINE
  5
197
330
1F
100
AcDbEntity
  8
0
100
AcDbPolyline
 90
        8
 70
     1
 43
0.0
 10
198.3085678118656
 20
70.17106781186559
 42
0.4142135623729598
 10
197.8085678118656
 20
69.67106781186551
 10
197.8085678118656
 20
56.6710678118655
 42
0.414213562373049
 10
198.3085678118656
 20
56.17106781186547
 10
211.3085678118656
 20
56.17106781186547
 42
0.4142135623732245
 10
211.8085678118656
 20
56.67106781186548
 10
211.8085678118656
 20
69.67106781186555
 42
0.4142135623730951
 10
211.3085678118656
 20
70.17106781186561
  0
LWPOLYLINE
  5
198
330
1F
100
AcDbEntity
  8
0
100
AcDbPolyline
 90
        8
 70
     1
 43
0.0
 10
193.5460678118656
 20
89.22106781186547
 10
206.5460678118657
 20
89.22106781186554
 42
-0.4142135623729962
 10
207.0460678118656
 20
88.7210678118655
 10
207.0460678118656
 20
75.72106781186555
 42
-0.4142135623728609
 10
206.5460678118656
 20
75.2210678118655
 10
193.5460678118656
 20
75.2210678118655
 42
-0.4142135623728713
 10
193.0460678118656
 20
75.72106781186555
 10
193.0460678118656
 20
88.7210678118655
 42
-0.4142135623729181
  0
LWPOLYLINE
  5
199
330
1F
100
AcDbEntity
  8
0
100
AcDbPolyline
 90
        8
 70
     1
 43
0.0
 10
64.95856781186548
 20
56.17106781186549
 42
-0.4142135623730976
 10
64.45856781186548
 20
56.6710678118655
 10
64.45856781186548
 20
69.67106781186558
 42
-0.4142135623731106
 10
64.95856781186548
 20
70.17106781186559
 10
77.95856781186549
 20
70.17106781186559
 42
-0.4142135623730847
 10
78.45856781186549
 20
69.67106781186558
 10
78.45856781186549
 20
56.6710678118655
 42
-0.4142135623730925
 10
77.95856781186549
 20
56.17106781186552
  0
LINE
  5
200
330
1F
100
AcDbEntity
  8
0
100
AcDbLine
 10
78.45856781186549
 20
31.57106781186551
 30
0.0
 11
78.45856781186549
 21
18.5710678118655
 31
0.0
  0
ARC
  5
201
330
1F
100
AcDbEntity
  8
0
100
AcDbCircle
 10
-62.57731781186551
 20
31.57106781186549
 30
0.0
 40
0.500000000000016
210
0.0
220
0.0
230
-1.0
100
AcDbArc
 50
0.0
 51
89.99999999999593
  0
ARC
  5
202
330
1F
100
AcDbEntity
  8
0
100
AcDbCircle
 10
-77.95856781186547
 20
31.57106781186549
 30
0.0
 40
0.5000000000000138
210
0.0
220
0.0
230
-1.0
100
AcDbArc
 50
90.00000000000161
 51
180.0
  0
LWPOLYLINE
  5
203
330
1F
100
AcDbEntity
  8
0
100
AcDbPolyline
 90
        8
 70
     1
 43
0.0
 10
266.0773178118656
 20
18.07106781186544
 42
0.4142135623730274
 10
266.5773178118656
 20
18.57106781186551
 10
266.5773178118656
 20
31.57106781186548
 42
0.4142135623730756
 10
266.0773178118656
 20
32.07106781186546
 10
250.6960678118656
 20
32.07106781186548
 42
0.4142135623731354
 10
250.1960678118656
 20
31.57106781186548
 10
250.1960678118656
 20
18.57106781186545
 42
0.4142135623732616
 10
250.6960678118656
 20
18.07106781186544
  0
ARC
  5
204
330
1F
100
AcDbEntity
  8
0
100
AcDbCircle
 10
-62.57731781186548
 20
18.57106781186546
 30
0.0
 40
0.4999999999999849
210
0.0
220
0.0
230
-1.0
100
AcDbArc
 50
270.0
 51
0.0
  0
LINE
  5
205
330
1F
100
AcDbEntity
  8
0
100
AcDbLine
 10
62.07731781186551
 20
18.57106781186547
 30
0.0
 11
62.0773178118655
 21
31.57106781186549
 31
0.0
  0
LINE
  5
206
330
1F
100
AcDbEntity
  8
0
100
AcDbLine
 10
77.95856781186549
 20
18.07106781186547
 30
0.0
 11
62.57731781186548
 21
18.07106781186547
 31
0.0
  0
ARC
  5
207
330
1F
100
AcDbEntity
  8
0
100
AcDbCircle
 10
-77.95856781186547
 20
18.5710678118655
 30
0.0
 40
0.500000000000016
210
0.0
220
0.0
230
-1.0
100
AcDbArc
 50
180.0
 51
269.9999999999968
  0
LINE
  5
208
330
1F
100
AcDbEntity
  8
0
100
AcDbLine
 10
62.57731781186548
 20
32.07106781186551
 30
0.0
 11
77.95856781186549
 21
32.07106781186551
 31
0.0
  0
LWPOLYLINE
  5
218
330
1F
100
AcDbEntity
  8
0
100
AcDbPolyline
 90
        8
 70
     1
 43
0.0
 10
168.4460678118656
 20
75.2210678118655
 10
155.4460678118656
 20
75.22106781186554
 42
-0.414213562373069
 10
154.9460678118656
 20
75.72106781186555
 10
154.9460678118656
 20
88.7210678118655
 42
-0.414213562373017
 10
155.4460678118656
 20
89.22106781186554
 10
168.4460678118655
 20
89.22106781186554
 42
-0.4142135623729494
 10
168.9460678118656
 20
88.7210678118655
 10
168.9460678118656
 20
75.72106781186555
 42
-0.4142135623732434
  0
LWPOLYLINE
  5
220
330
1F
100
AcDbEntity
  8
0
100
AcDbPolyline
 90
       24
 70
     1
 43
0.0
 10
10.07106781186545
 20
0.0710678118654826
 10
22.64294281186549
 20
0.0710678118654826
 10
356.6835678118656
 20
0.0710678118654613
 42
0.4142135623730951
 10
366.6835678118657
 20
10.07106781186554
 10
366.6835678118657
 20
140.083567811865
 42
0.4142135623730951
 10
356.6835678118655
 20
150.0835678118652
 10
303.0835678118656
 20
150.083567811865
 10
303.0835678118656
 20
132.083567811865
 10
316.0835678118657
 20
132.0835678118651
 42
-0.4142135623730639
 10
316.5835678118658
 20
131.5835678118649
 10
316.5835678118658
 20
118.5835678118653
 42
-0.4142135623731888
 10
316.0835678118656
 20
118.0835678118652
 10
303.0835678118656
 20
118.0835678118651
 10
292.2710678118656
 20
118.0835678118652
 10
279.2710678118656
 20
118.0835678118652
 42
-0.4142135623733448
 10
278.7710678118656
 20
118.5835678118653
 10
278.7710678118656
 20
131.583567811865
 42
-0.4142135623729701
 10
279.2710678118656
 20
132.083567811865
 10
292.2710678118655
 20
132.0835678118652
 10
292.2710678118657
 20
150.0835678118652
 10
10.07106781186547
 20
150.0835678118652
 42
0.4142135623730955
 10
0.0710678118654631
 20
140.0835678118651
 10
0.0710678118654817
 20
125.0835678118651
 10
0.0710678118654817
 20
10.07106781186545
 42
0.4142135623730951
  0
LWPOLYLINE
  5
222
330
1F
100
AcDbEntity
  8
0
100
AcDbPolyline
 90
        8
 70
     1
 43
0.0
 10
254.6710678118656
 20
118.5835678118653
 42
-0.4142135623728713
 10
254.1710678118656
 20
118.0835678118652
 10
241.1710678118656
 20
118.0835678118651
 42
-0.4142135623730744
 10
240.6710678118656
 20
118.5835678118653
 10
240.6710678118656
 20
131.583567811865
 42
-0.4142135623731159
 10
241.1710678118656
 20
132.0835678118652
 10
254.1710678118656
 20
132.0835678118652
 42
-0.4142135623731784
 10
254.6710678118656
 20
131.583567811865
  0
LWPOLYLINE
  5
226
330
1F
100
AcDbEntity
  8
0
100
AcDbPolyline
 90
        8
 70
     1
 43
0.0
 10
207.3335678118656
 20
50.6210678118655
 42
-0.4142135623729204
 10
207.8335678118656
 20
51.12106781186555
 10
220.8335678118656
 20
51.12106781186552
 42
-0.414213562372889
 10
221.3335678118656
 20
50.6210678118655
 10
221.3335678118657
 20
37.62106781186548
 42
-0.4142135623730976
 10
220.8335678118656
 20
37.12106781186549
 10
207.8335678118656
 20
37.12106781186556
 42
-0.4142135623731626
 10
207.3335678118656
 20
37.62106781186546
  0
LWPOLYLINE
  5
228
330
1F
100
AcDbEntity
  8
0
100
AcDbPolyline
 90
        8
 70
     1
 43
0.0
 10
112.0835678118655
 20
37.62106781186548
 10
112.0835678118655
 20
50.62106781186551
 42
-0.4142135623730563
 10
112.5835678118656
 20
51.12106781186551
 10
125.5835678118655
 20
51.12106781186554
 42
-0.4142135623731276
 10
126.0835678118656
 20
50.6210678118655
 10
126.0835678118656
 20
37.62106781186548
 42
-0.4142135623730976
 10
125.5835678118655
 20
37.1210678118655
 10
112.5835678118656
 20
37.12106781186547
 42
-0.4142135623730827
  0
LWPOLYLINE
  5
229
330
1F
100
AcDbEntity
  8
0
100
AcDbPolyline
 90
        8
 70
     1
 43
0.0
 10
101.7710678118655
 20
94.27106781186559
 10
88.77106781186553
 20
94.27106781186557
 42
-0.4142135623730534
 10
88.27106781186548
 20
94.77106781186554
 10
88.27106781186548
 20
107.7710678118655
 42
-0.414213562373121
 10
88.77106781186549
 20
108.2710678118655
 10
101.7710678118656
 20
108.2710678118655
 42
-0.4142135623730847
 10
102.2710678118654
 20
107.7710678118655
 10
102.2710678118655
 20
94.77106781186554
 42
-0.4142135623730482
  0
LWPOLYLINE
  5
230
330
1F
100
AcDbEntity
  8
0
100
AcDbPolyline
 90
       17
 70
     1
 43
0.0
 10
291.6244921009578
 20
51.26716592277492
 42
-0.4150089039869075
 10
292.6244921009616
 20
50.26716592277467
 10
292.6244921009616
 20
38.2671659227692
 42
-0.4150089039869177
 10
291.6244921009578
 20
37.267165922769
 10
284.3944811145587
 20
37.26716592277192
 10
284.3944811147387
 20
34.26716642036117
 42
-0.414001610544582
 10
283.3944811145586
 20
33.26716592277194
 10
278.3944811145989
 20
33.26716592271192
 10
259.5184740345185
 20
33.26716592271195
 10
254.5184740345387
 20
33.26716592277202
 42
-0.4139709475991786
 10
253.5184740345587
 20
34.26716592277247
 10
253.5184740345587
 20
37.26716592277192
 10
253.4314989368988
 20
37.26716592271189
 42
-0.4140014648436763
 10
252.4314989368985
 20
38.26716592271207
 10
252.4314989368586
 20
50.2671659227318
 42
-0.4140014648319507
 10
253.4314989368587
 20
51.26716592277189
 10
278.389476231728
 20
51.26716592271984
  0
LWPOLYLINE
  5
231
330
1F
100
AcDbEntity
  8
0
100
AcDbPolyline
 90
        4
 70
     1
 43
0.0
 10
119.4210830706654
 20
111.2773178118651
 10
52.07105865666539
 20
111.2773178118651
 42
-1.0
 10
52.07105865666539
 20
115.0773178118651
 10
119.4210830706654
 20
115.0773178118651
 42
-1.0
  0
LWPOLYLINE
  5
232
330
1F
100
AcDbEntity
  8
0
100
AcDbPolyline
 90
       36
 70
     1
 43
0.0
 10
133.3747212024587
 20
31.21753273187195
 42
-0.4142135623730951
 10
134.3747212024586
 20
32.21753273187193
 10
158.2746730823586
 20
32.21753273187105
 42
-0.4142135623730964
 10
159.2746730823576
 20
31.21753273187195
 10
159.2746730823576
 20
17.57106924237653
 10
186.9590691465336
 20
17.57106924237653
 10
186.9590691465328
 20
33.15606707515073
 42
-0.4142135623730639
 10
187.9590691465345
 20
34.1560670751524
 10
193.4590664047198
 20
34.15606707515035
 42
-0.4142141559378183
 10
194.4590684312768
 20
33.15606707515172
 10
194.4590684312768
 20
17.57106924237653
 10
204.9523178118656
 20
17.57106781186545
 10
204.9523178118656
 20
31.5710678118655
 42
-0.4142135623729429
 10
205.4523178118656
 20
32.07106781186549
 10
205.9590691465335
 20
32.07106781186551
 10
205.9590691465329
 20
33.15606707515073
 42
-0.4142135623730996
 10
206.9590691465346
 20
34.1560670751524
 10
212.4590664047199
 20
34.15606707515032
 42
-0.4142141559378287
 10
213.4590684312769
 20
33.15606707515172
 10
213.4590684312769
 20
32.07106781186552
 10
218.4523178118655
 20
32.07106781186555
 42
-0.414213562372926
 10
218.9523178118656
 20
31.57106781186551
 10
218.9523178118656
 20
18.57106781186545
 42
-0.4142135623730404
 10
218.4523178118656
 20
18.07106781186545
 10
213.4590684312769
 20
18.07106781186545
 10
213.4590684312749
 20
15.21606737555978
 42
-0.4142141559379504
 10
212.4590684312757
 20
14.21606534900184
 10
88.58306708814595
 20
14.21606534900179
 42
-0.4142141559376746
 10
87.58306708814586
 20
15.21606737555978
 10
87.58306708814362
 20
33.15606707514731
 42
-0.4142136103812276
 10
88.58306725205853
 20
34.15606707515209
 10
97.08282721178353
 20
34.15606707515209
 42
-0.4142841668638319
 10
98.08306826458338
 20
33.15606704609924
 10
98.08306781186921
 20
17.57106924237725
 10
133.3747212024584
 20
17.57106924237725
 10
133.3747212024584
 20
19.19476873762491
  0
LWPOLYLINE
  5
233
330
1F
100
AcDbEntity
  8
0
100
AcDbPolyline
 90
        4
 70
     1
 43
0.0
 10
137.7960647601654
 20
111.2773178118652
 42
-1.0
 10
137.7960647601654
 20
115.0773178118652
 10
205.1460586566654
 20
115.0773178118652
 42
-1.0
 10
205.1460586566654
 20
111.2773178118652
  0
LWPOLYLINE
  5
234
330
1F
100
AcDbEntity
  8
0
100
AcDbPolyline
 90
        4
 70
     1
 43
0.0
 10
352.7835708636654
 20
115.0773178118652
 42
-1.0
 10
352.7835708636654
 20
111.2773178118652
 10
304.4835952777655
 20
111.2773178118652
 42
-1.0
 10
304.4835952777652
 20
115.0773178118652
  0
LWPOLYLINE
  5
235
330
1F
100
AcDbEntity
  8
0
100
AcDbPolyline
 90
        4
 70
     1
 43
0.0
 10
290.8749404925654
 20
115.0773178118652
 42
-1.0
 10
290.8749404925655
 20
111.2773178118652
 10
223.5210708636655
 20
111.2773178118651
 42
-1.0
 10
223.5210708636655
 20
115.0773178118652
  0
ARC
  5
236
330
1F
100
AcDbEntity
  8
0
100
AcDbCircle
 10
297.6792678851654
 20
113.1773178118652
 30
0.0
 40
1.899999999999977
100
AcDbArc
 50
0.0
 51
180.0000172242354
  0
LWPOLYLINE
  5
361
330
1F
100
AcDbEntity
  8
0
100
AcDbPolyline
 90
        8
 70
     1
 43
0.0
 10
274.8621364612587
 20
75.36752662837186
 42
-0.4142135687582003
 10
273.8621364612586
 20
76.36752665017192
 10
273.8621364612578
 20
88.36752662837191
 42
-0.4142135623731262
 10
274.8621364612587
 20
89.36752662837292
 10
286.8621364612586
 20
89.36752662837184
 42
-0.4142135559719274
 10
287.8621364612586
 20
88.36752665022693
 10
287.8621364612586
 20
76.36752662837193
 42
-0.4142135623731055
 10
286.8621364612586
 20
75.36752662837194
  0
LWPOLYLINE
  5
379
330
1F
100
AcDbEntity
  8
0
100
AcDbPolyline
 90
        4
 70
     1
 43
0.0
 10
24.17106781186538
 20
111.277317811865
 10
13.97106781186541
 20
111.2773178118651
 42
-1.0
 10
13.97106781186544
 20
115.0773178118651
 10
24.17106781186538
 20
115.0773178118653
 42
-1.0
  0
LWPOLYLINE
  5
380
330
1F
100
AcDbEntity
  8
0
100
AcDbPolyline
 90
       20
 70
     1
 43
0.0
 10
23.04556781186921
 20
36.62106924237726
 10
23.98356754364443
 20
36.62106924237726
 10
23.98356781186537
 20
49.62106781186555
 42
-0.4142135623730966
 10
24.98356781186531
 20
50.6210678118655
 10
36.98356781186534
 20
50.62106781186557
 42
-0.4142135623730905
 10
37.98356781186536
 20
49.62106781186555
 10
37.98356611313204
 20
36.62106924237655
 10
38.92156914653346
 20
36.62106924237655
 10
38.92156914653282
 20
52.20606707515074
 42
-0.4142135623730986
 10
39.92156914653448
 20
53.20606707515239
 10
45.42156640471981
 20
53.20606707515033
 42
-0.414214155937832
 10
46.4215684312768
 20
52.20606707515173
 10
46.42156843127686
 20
34.26606737555978
 42
-0.41421474950308
 10
45.42156640471901
 20
33.26606534900186
 10
16.54556725205837
 20
33.26606534900181
 42
-0.4142142039465361
 10
15.54556708814587
 20
34.26606737555978
 10
15.54556708814366
 20
52.20606707514733
 42
-0.4142136103812433
 10
16.54556725205851
 20
53.2060670751521
 10
22.04532721181118
 20
53.2060670751521
 42
-0.414284166855744
 10
23.04556826458343
 20
52.20606704609925
  0
LWPOLYLINE
  5
381
330
1F
100
AcDbEntity
  8
0
100
AcDbPolyline
 90
        8
 70
     1
 43
0.0
 10
187.4960678118655
 20
89.22106781186556
 42
-0.4142135623730326
 10
187.9960678118656
 20
88.7210678118655
 10
187.9960678118656
 20
75.72106781186555
 42
-0.4142135623732434
 10
187.4960678118656
 20
75.2210678118655
 10
174.4960678118656
 20
75.2210678118655
 42
-0.4142135623731133
 10
173.9960678118656
 20
75.72106781186555
 10
173.9960678118656
 20
88.7210678118655
 42
-0.4142135623732252
 10
174.4960678118656
 20
89.22106781186551
  0
LWPOLYLINE
  5
382
330
1F
100
AcDbEntity
  8
0
100
AcDbPolyline
 90
        8
 70
     1
 43
0.0
 10
259.7210678118656
 20
131.583567811865
 42
-0.4142135623731159
 10
260.2210678118656
 20
132.0835678118652
 10
273.2210678118656
 20
132.0835678118652
 42
-0.4142135623731055
 10
273.7210678118656
 20
131.583567811865
 10
273.7210678118656
 20
118.5835678118653
 42
-0.4142135623731784
 10
273.2210678118656
 20
118.0835678118652
 10
260.2210678118656
 20
118.0835678118652
 42
-0.414213562373173
 10
259.7210678118656
 20
118.5835678118653
  0
LWPOLYLINE
  5
383
330
1F
100
AcDbEntity
  8
0
100
AcDbPolyline
 90
       20
 70
     1
 43
0.0
 10
265.8090691465342
 20
55.17106924237658
 42
-0.4142135623730646
 10
264.8090691465325
 20
54.17106924237493
 10
259.3090718883471
 20
54.17106924237699
 42
-0.4142141559378426
 10
258.3090698617901
 20
55.17106924237559
 10
258.30906986179
 20
73.11106894196754
 42
-0.414214749503061
 10
259.3090718883479
 20
74.1110709685255
 10
288.1850710410086
 20
74.11107096852552
 42
-0.4142142039465374
 10
289.1850712049211
 20
73.11106894196754
 10
289.1850712049234
 20
55.17106924237999
 42
-0.4142136103812904
 10
288.1850710410085
 20
54.17106924237523
 10
282.6853110812558
 20
54.17106924237526
 42
-0.4142841668557843
 10
281.6850700284836
 20
55.17106927142808
 10
281.6850704811977
 20
70.75606707515007
 10
280.7470707494226
 20
70.75606707515007
 10
280.7470704812016
 20
57.75606850566177
 42
-0.4142135623730976
 10
279.7470704812017
 20
56.75606850566182
 10
267.7470704812017
 20
56.75606850566175
 42
-0.4142135623730937
 10
266.7470704812016
 20
57.75606850566177
 10
266.7470721799349
 20
70.75606707515078
 10
265.8090691465336
 20
70.75606707515078
  0
LWPOLYLINE
  5
384
330
1F
100
AcDbEntity
  8
0
100
AcDbPolyline
 90
        8
 70
     1
 43
0.0
 10
164.1835678118656
 20
50.6210678118655
 10
164.1835678118656
 20
37.62106781186548
 42
-0.4142135623729819
 10
163.6835678118656
 20
37.12106781186547
 10
150.6835678118656
 20
37.12106781186547
 42
-0.4142135623730931
 10
150.1835678118656
 20
37.62106781186548
 10
150.1835678118656
 20
50.6210678118655
 42
-0.4142135623730948
 10
150.6835678118656
 20
51.12106781186551
 10
163.6835678118656
 20
51.12106781186551
 42
-0.4142135623729571
  0
LWPOLYLINE
  5
386
330
1F
100
AcDbEntity
  8
0
100
AcDbPolyline
 90
        8
 70
     1
 43
0.0
 10
201.7835678118656
 20
37.12106781186547
 10
188.7835678118656
 20
37.12106781186547
 42
-0.4142135623731445
 10
188.2835678118656
 20
37.62106781186549
 10
188.2835678118656
 20
50.6210678118655
 42
-0.4142135623729412
 10
188.7835678118656
 20
51.1210678118655
 10
201.7835678118656
 20
51.12106781186553
 42
-0.4142135623730125
 10
202.2835678118656
 20
50.62106781186552
 10
202.2835678118656
 20
37.62106781186548
 42
-0.4142135623729214
  0
LWPOLYLINE
  5
387
330
1F
100
AcDbEntity
  8
0
100
AcDbPolyline
 90
        8
 70
     1
 43
0.0
 10
121.6085678118655
 20
56.6710678118655
 10
121.6085678118655
 20
69.67106781186555
 42
-0.4142135623731055
 10
122.1085678118656
 20
70.17106781186559
 10
135.1085678118656
 20
70.17106781186555
 42
-0.4142135623731315
 10
135.6085678118655
 20
69.67106781186558
 10
135.6085678118656
 20
56.6710678118655
 42
-0.4142135623731509
 10
135.1085678118656
 20
56.17106781186551
 10
122.1085678118656
 20
56.17106781186551
 42
-0.4142135623731062
  0
LWPOLYLINE
  5
388
330
1F
100
AcDbEntity
  8
0
100
AcDbPolyline
 90
        8
 70
     1
 43
0.0
 10
341.1835678118656
 20
75.22106781186559
 42
-0.4142135623730274
 10
340.6835678118657
 20
75.72106781186551
 10
340.6835678118657
 20
88.72106781186547
 42
-0.414213562373657
 10
341.1835678118656
 20
89.22106781186545
 10
354.1835678118655
 20
89.2210678118654
 42
-0.4142135623730326
 10
354.6835678118657
 20
88.72106781186554
 10
354.6835678118657
 20
75.72106781186551
 42
-0.4142135623731186
 10
354.1835678118655
 20
75.22106781186554
  0
LWPOLYLINE
  5
389
330
1F
100
AcDbEntity
  8
0
100
AcDbPolyline
 90
        8
 70
     1
 43
0.0
 10
149.8960678118655
 20
88.7210678118655
 10
149.8960678118655
 20
75.72106781186555
 42
-0.4142135623731159
 10
149.3960678118655
 20
75.2210678118655
 10
136.3960678118656
 20
75.22106781186554
 42
-0.414213562373069
 10
135.8960678118656
 20
75.72106781186555
 10
135.8960678118656
 20
88.7210678118655
 42
-0.4142135623730639
 10
136.3960678118655
 20
89.22106781186554
 10
149.3960678118655
 20
89.22106781186551
 42
-0.4142135623730431
  0
LWPOLYLINE
  5
390
330
1F
100
AcDbEntity
  8
0
100
AcDbPolyline
 90
        8
 70
     1
 43
0.0
 10
79.24606781186549
 20
89.22106781186549
 10
92.24606781186546
 20
89.22106781186549
 42
-0.4142135623730586
 10
92.74606781186546
 20
88.7210678118655
 10
92.74606781186561
 20
75.72106781186555
 42
-0.41421356237303
 10
92.24606781186549
 20
75.22106781186548
 10
79.24606781186549
 20
75.22106781186554
 42
-0.4142135623731262
 10
78.74606781186546
 20
75.72106781186555
 10
78.74606781186549
 20
88.7210678118655
 42
-0.414213562373069
  0
LWPOLYLINE
  5
391
330
1F
100
AcDbEntity
  8
0
100
AcDbPolyline
 90
        8
 70
     1
 43
0.0
 10
217.3585678118656
 20
70.17106781186559
 10
230.3585678118656
 20
70.17106781186559
 42
-0.4142135623729468
 10
230.8585678118656
 20
69.67106781186555
 10
230.8585678118656
 20
56.67106781186548
 42
-0.4142135623728635
 10
230.3585678118656
 20
56.17106781186544
 10
217.3585678118656
 20
56.17106781186547
 42
-0.4142135623729507
 10
216.8585678118656
 20
56.67106781186547
 10
216.8585678118656
 20
69.67106781186555
 42
-0.4142135623729468
  0
CIRCLE
  5
422
330
1F
100
AcDbEntity
  8
0
100
AcDbCircle
 10
350.3780187586216
 20
143.8460678118651
 30
0.0
 40
1.700000000000012
  0
CIRCLE
  5
423
330
1F
100
AcDbEntity
  8
0
100
AcDbCircle
 10
16.3780185339125
 20
143.8460678118651
 30
0.0
 40
1.700000000000017
  0
CIRCLE
  5
424
330
1F
100
AcDbEntity
  8
0
100
AcDbCircle
 10
16.3671668077451
 20
6.308567811865302
 30
0.0
 40
1.700000000000017
  0
CIRCLE
  5
425
330
1F
100
AcDbEntity
  8
0
100
AcDbCircle
 10
350.3773267860653
 20
6.297184516229663
 30
0.0
 40
1.699999999999968
  0
CIRCLE
  5
457
330
1F
100
AcDbEntity
  8
0
100
AcDbCircle
 10
136.367166807745
 20
6.308567811865302
 30
0.0
 40
1.700000000000019
  0
CIRCLE
  5
458
330
1F
100
AcDbEntity
  8
0
100
AcDbCircle
 10
230.3773267860652
 20
6.297184516229663
 30
0.0
 40
1.700000000000019
  0
CIRCLE
  5
459
330
1F
100
AcDbEntity
  8
0
100
AcDbCircle
 10
230.3780187586216
 20
143.8460678118651
 30
0.0
 40
1.700000000000017
  0
CIRCLE
  5
460
330
1F
100
AcDbEntity
  8
0
100
AcDbCircle
 10
136.3780185339124
 20
143.8460678118651
 30
0.0
 40
1.699999999999949
  0
ENDSEC
  0
SECTION
  2
OBJECTS
  0
DICTIONARY
  5
C
330
0
100
AcDbDictionary
281
     1
  3
ACAD_CIP_PREVIOUS_PRODUCT_INFO
350
1005A
  3
ACAD_COLOR
350
10036
  3
ACAD_DETAILVIEWSTYLE
350
10051
  3
ACAD_GROUP
350
D
  3
ACAD_LAYOUT
350
10037
  3
ACAD_MATERIAL
350
10004
  3
ACAD_MLEADERSTYLE
350
1004D
  3
ACAD_MLINESTYLE
350
17
  3
ACAD_PLOTSETTINGS
350
10054
  3
ACAD_PLOTSTYLENAME
350
10002
  3
ACAD_SCALELIST
350
1003B
  3
ACAD_SECTIONVIEWSTYLE
350
1004F
  3
ACAD_TABLESTYLE
350
10038
  3
ACAD_VISUALSTYLE
350
1001D
  3
ACDB_RECOMPOSE_DATA
350
1009A
  3
AcDbVariableDictionary
350
1008E
  0
DICTIONARY
  5
1008C
330
50
100
AcDbDictionary
280
     1
281
     1
  3
ADSK_XREC_LAYER_RECONCILED
360
1008D
  0
XRECORD
  5
1005A
102
{ACAD_REACTORS
330
C
102
}
330
C
100
AcDbXrecord
280
     1
300
ACD
300
2021
300

  0
DICTIONARY
  5
10036
102
{ACAD_REACTORS
330
C
102
}
330
C
100
AcDbDictionary
281
     1
  0
DICTIONARY
  5
10051
102
{ACAD_REACTORS
330
C
102
}
330
C
100
AcDbDictionary
281
     1
  3
Imperial24
350
10052
  0
DICTIONARY
  5
D
330
C
100
AcDbDictionary
281
     1
  0
DICTIONARY
  5
10037
102
{ACAD_REACTORS
330
C
102
}
330
C
100
AcDbDictionary
281
     1
  3
Layout1
350
10056
  3
Model
350
10055
  0
DICTIONARY
  5
10004
102
{ACAD_REACTORS
330
C
102
}
330
C
100
AcDbDictionary
281
     1
  3
ByBlock
350
1000D
  3
ByLayer
350
10005
  3
Global
350
10015
  0
DICTIONARY
  5
1004D
102
{ACAD_REACTORS
330
C
102
}
330
C
100
AcDbDictionary
281
     1
  3
Standard
350
1004E
  0
DICTIONARY
  5
17
330
C
100
AcDbDictionary
281
     1
  3
Standard
350
1003A
  0
DICTIONARY
  5
10054
102
{ACAD_REACTORS
330
C
102
}
330
C
100
AcDbDictionary
281
     1
  0
ACDBDICTIONARYWDFLT
  5
10002
102
{ACAD_REACTORS
330
C
102
}
330
C
100
AcDbDictionary
281
     1
  3
Normal
350
10003
100
AcDbDictionaryWithDefault
340
10003
  0
DICTIONARY
  5
1003B
102
{ACAD_REACTORS
330
C
102
}
330
C
100
AcDbDictionary
281
     1
  3
A0
350
1003C
  3
A1
350
1003D
  3
A2
350
1003E
  3
A3
350
1003F
  3
A4
350
10040
  3
A5
350
10041
  3
A6
350
10042
  3
A7
350
10043
  3
A8
350
10044
  3
A9
350
10045
  3
B0
350
10046
  3
B1
350
10047
  3
B2
350
10048
  3
B3
350
10049
  3
B4
350
1004A
  3
B5
350
1004B
  3
B6
350
1004C
  0
DICTIONARY
  5
1004F
102
{ACAD_REACTORS
330
C
102
}
330
C
100
AcDbDictionary
281
     1
  3
Imperial24
350
10050
  0
DICTIONARY
  5
10038
102
{ACAD_REACTORS
330
C
102
}
330
C
100
AcDbDictionary
281
     1
  3
Standard
350
10039
  0
DICTIONARY
  5
1001D
102
{ACAD_REACTORS
330
C
102
}
330
C
100
AcDbDictionary
281
     1
  3
2dWireframe
350
10023
  3
Basic
350
10022
  3
Brighten
350
10029
  3
ColorChange
350
1002D
  3
Conceptual
350
10026
  3
Dim
350
10028
  3
EdgeColorOff
350
10035
  3
Facepattern
350
1002C
  3
Flat
350
1001E
  3
FlatWithEdges
350
1001F
  3
Gouraud
350
10020
  3
GouraudWithEdges
350
10021
  3
Hidden
350
10025
  3
JitterOff
350
10033
  3
Linepattern
350
1002B
  3
OverhangOff
350
10034
  3
Realistic
350
10027
  3
Shaded
350
10032
  3
Shaded with edges
350
10031
  3
Shades of Gray
350
1002E
  3
Sketchy
350
1002F
  3
Thicken
350
1002A
  3
Wireframe
350
10024
  3
X-Ray
350
10030
  0
XRECORD
  5
1009A
102
{ACAD_REACTORS
330
C
102
}
330
C
100
AcDbXrecord
280
     1
 90
        1
330
10039
  0
DICTIONARY
  5
1008E
102
{ACAD_REACTORS
330
C
102
}
330
C
100
AcDbDictionary
281
     1
  3
CANNOSCALE
350
10094
  3
CMLEADERSTYLE
350
10090
  3
CTABLESTYLE
350
1008F
  3
CVIEWDETAILSTYLE
350
10091
  3
CVIEWSECTIONSTYLE
350
10092
  3
LAYEREVAL
350
10096
  3
LAYERNOTIFY
350
10097
  3
LIGHTINGUNITS
350
10095
  3
MSLTSCALE
350
10093
  0
XRECORD
  5
1008D
102
{ACAD_REACTORS
330
1008C
102
}
330
1008C
100
AcDbXrecord
280
     1
290
     1
  0
ACDBDETAILVIEWSTYLE
  5
10052
102
{ACAD_REACTORS
330
10051
102
}
330
10051
100
AcDbModelDocViewStyle
 70
     0
  3
Imperial24
290
     0
300
Imperial24
 90
        0
100
AcDbDetailViewStyle
 70
     0
 71
     0
 90
        3
 71
     1
340
11
 62
   256
 40
0.24
340
0
 62
   256
 40
0.24
300

 40
0.36
280
     3
 71
     2
340
0
 90
       25
 62
   256
 71
     3
340
11
 62
   256
 40
0.24
 90
        1
 40
0.75
 90
        1
300
%<\AcVar ViewType \f "%tc1">% %<\AcVar ViewDetailId>%\PSCALE %<\AcVar ViewScale \f "%sn">%
 71
     4
340
0
 90
       25
 62
   256
340
0
 90
       25
 62
   256
280
     0
  0
LAYOUT
  5
10056
102
{ACAD_REACTORS
330
10037
102
}
330
10037
100
AcDbPlotSettings
  1

  2
Microsoft Print to PDF
  4

  6

 40
0.0
 41
0.0
 42
0.0
 43
0.0
 44
0.0
 45
0.0
 46
0.0
 47
0.0
 48
0.0
 49
0.0
140
0.0
141
0.0
142
1.0
143
1.0
 70
   688
 72
     0
 73
     0
 74
     5
  7

 75
    16
147
1.0
 76
     0
 77
     2
 78
   300
148
0.0
149
0.0
100
AcDbLayout
  1
Layout1
 70
     1
 71
     1
 10
0.0
 20
0.0
 11
12.0
 21
9.0
 12
0.0
 22
0.0
 32
0.0
 14
1.09999997597041
 24
0.8499999759704106
 34
0.0
 15
9.899999783733699
 25
7.649999783733699
 35
0.0
146
0.0
 13
0.0
 23
0.0
 33
0.0
 16
1.0
 26
0.0
 36
0.0
 17
0.0
 27
1.0
 37
0.0
 76
     0
330
1B
  0
LAYOUT
  5
10055
102
{ACAD_REACTORS
330
10037
102
}
330
10037
100
AcDbPlotSettings
  1

  2
Microsoft Print to PDF
  4

  6

 40
0.0
 41
0.0
 42
0.0
 43
0.0
 44
0.0
 45
0.0
 46
0.0
 47
0.0
 48
0.0
 49
0.0
140
0.0
141
0.0
142
1.0
143
1.0
 70
  1712
 72
     0
 73
     0
 74
     0
  7

 75
     0
147
1.0
 76
     0
 77
     2
 78
   300
148
0.0
149
0.0
100
AcDbLayout
  1
Model
 70
     1
 71
     0
 10
0.0
 20
0.0
 11
12.0
 21
9.0
 12
0.0
 22
0.0
 32
0.0
 14
0.0
 24
0.0
 34
0.0
 15
0.0
 25
0.0
 35
0.0
146
0.0
 13
0.0
 23
0.0
 33
0.0
 16
1.0
 26
0.0
 36
0.0
 17
0.0
 27
1.0
 37
0.0
 76
     0
330
1F
331
10059
  0
MATERIAL
  5
1000D
102
{ACAD_XDICTIONARY
360
1000E
102
}
102
{ACAD_REACTORS
330
10004
102
}
330
10004
100
AcDbMaterial
  1
ByBlock
 72
     0
 43
0.0008202099737533
 43
0.0
 43
0.0
 43
0.0
 43
0.0
 43
0.0008202099737533
 43
0.0
 43
0.0
 43
0.0
 43
0.0
 43
1.0
 43
0.0
 43
0.0
 43
0.0
 43
0.0
 43
1.0
 77
     0
 47
0.0008202099737533
 47
0.0
 47
0.0
 47
0.0
 47
0.0
 47
0.0008202099737533
 47
0.0
 47
0.0
 47
0.0
 47
0.0
 47
1.0
 47
0.0
 47
0.0
 47
0.0
 47
0.0
 47
1.0
171
     0
 49
0.0008202099737533
 49
0.0
 49
0.0
 49
0.0
 49
0.0
 49
0.0008202099737533
 49
0.0
 49
0.0
 49
0.0
 49
0.0
 49
1.0
 49
0.0
 49
0.0
 49
0.0
 49
0.0
 49
1.0
175
     0
142
0.0008202099737533
142
0.0
142
0.0
142
0.0
142
0.0
142
0.0008202099737533
142
0.0
142
0.0
142
0.0
142
0.0
142
1.0
142
0.0
142
0.0
142
0.0
142
0.0
142
1.0
179
     0
144
0.0008202099737533
144
0.0
144
0.0
144
0.0
144
0.0
144
0.0008202099737533
144
0.0
144
0.0
144
0.0
144
0.0
144
1.0
144
0.0
144
0.0
144
0.0
144
0.0
144
1.0
147
0.0008202099737533
147
0.0
147
0.0
147
0.0
147
0.0
147
0.0008202099737533
147
0.0
147
0.0
147
0.0
147
0.0
147
1.0
147
0.0
147
0.0
147
0.0
147
0.0
147
1.0
  0
MATERIAL
  5
10005
102
{ACAD_XDICTIONARY
360
10006
102
}
102
{ACAD_REACTORS
330
10004
102
}
330
10004
100
AcDbMaterial
  1
ByLayer
 72
     0
 43
0.0008202099737533
 43
0.0
 43
0.0
 43
0.0
 43
0.0
 43
0.0008202099737533
 43
0.0
 43
0.0
 43
0.0
 43
0.0
 43
1.0
 43
0.0
 43
0.0
 43
0.0
 43
0.0
 43
1.0
 77
     0
 47
0.0008202099737533
 47
0.0
 47
0.0
 47
0.0
 47
0.0
 47
0.0008202099737533
 47
0.0
 47
0.0
 47
0.0
 47
0.0
 47
1.0
 47
0.0
 47
0.0
 47
0.0
 47
0.0
 47
1.0
171
     0
 49
0.0008202099737533
 49
0.0
 49
0.0
 49
0.0
 49
0.0
 49
0.0008202099737533
 49
0.0
 49
0.0
 49
0.0
 49
0.0
 49
1.0
 49
0.0
 49
0.0
 49
0.0
 49
0.0
 49
1.0
175
     0
142
0.0008202099737533
142
0.0
142
0.0
142
0.0
142
0.0
142
0.0008202099737533
142
0.0
142
0.0
142
0.0
142
0.0
142
1.0
142
0.0
142
0.0
142
0.0
142
0.0
142
1.0
179
     0
144
0.0008202099737533
144
0.0
144
0.0
144
0.0
144
0.0
144
0.0008202099737533
144
0.0
144
0.0
144
0.0
144
0.0
144
1.0
144
0.0
144
0.0
144
0.0
144
0.0
144
1.0
147
0.0008202099737533
147
0.0
147
0.0
147
0.0
147
0.0
147
0.0008202099737533
147
0.0
147
0.0
147
0.0
147
0.0
147
1.0
147
0.0
147
0.0
147
0.0
147
0.0
147
1.0
  0
MATERIAL
  5
10015
102
{ACAD_XDICTIONARY
360
10016
102
}
102
{ACAD_REACTORS
330
10004
102
}
330
10004
100
AcDbMaterial
  1
Global
 72
     0
 43
0.0008202099737533
 43
0.0
 43
0.0
 43
0.0
 43
0.0
 43
0.0008202099737533
 43
0.0
 43
0.0
 43
0.0
 43
0.0
 43
1.0
 43
0.0
 43
0.0
 43
0.0
 43
0.0
 43
1.0
 77
     0
 47
0.0008202099737533
 47
0.0
 47
0.0
 47
0.0
 47
0.0
 47
0.0008202099737533
 47
0.0
 47
0.0
 47
0.0
 47
0.0
 47
1.0
 47
0.0
 47
0.0
 47
0.0
 47
0.0
 47
1.0
171
     0
 49
0.0008202099737533
 49
0.0
 49
0.0
 49
0.0
 49
0.0
 49
0.0008202099737533
 49
0.0
 49
0.0
 49
0.0
 49
0.0
 49
1.0
 49
0.0
 49
0.0
 49
0.0
 49
0.0
 49
1.0
175
     0
142
0.0008202099737533
142
0.0
142
0.0
142
0.0
142
0.0
142
0.0008202099737533
142
0.0
142
0.0
142
0.0
142
0.0
142
1.0
142
0.0
142
0.0
142
0.0
142
0.0
142
1.0
179
     0
144
0.0008202099737533
144
0.0
144
0.0
144
0.0
144
0.0
144
0.0008202099737533
144
0.0
144
0.0
144
0.0
144
0.0
144
1.0
144
0.0
144
0.0
144
0.0
144
0.0
144
1.0
147
0.0008202099737533
147
0.0
147
0.0
147
0.0
147
0.0
147
0.0008202099737533
147
0.0
147
0.0
147
0.0
147
0.0
147
1.0
147
0.0
147
0.0
147
0.0
147
0.0
147
1.0
  0
MLEADERSTYLE
  5
1004E
102
{ACAD_REACTORS
330
1004D
102
}
330
1004D
100
AcDbMLeaderStyle
179
     2
170
     2
171
     1
172
     0
 90
        2
 40
0.0
 41
0.0
173
     1
 91
-1056964608
340
14
 92
       -2
290
     1
 42
0.09
291
     1
 43
0.36
  3
Standard
 44
0.18
300

342
11
174
     1
178
     6
175
     1
176
     0
 93
-1056964608
 45
0.18
292
     0
297
     0
 46
0.18
 94
-1056964608
 47
1.0
 49
1.0
140
1.0
293
     1
141
0.0
294
     1
177
     0
142
1.0
295
     0
296
     0
143
0.125
271
     0
272
     9
273
     9
298
     0
  0
MLINESTYLE
  5
1003A
102
{ACAD_REACTORS
330
17
102
}
330
17
100
AcDbMlineStyle
  2
STANDARD
 70
     0
  3

 62
   256
 51
90.0
 52
90.0
 71
     2
 49
0.5
 62
   256
  6
BYLAYER
 49
-0.5
 62
   256
  6
BYLAYER
  0
ACDBPLACEHOLDER
  5
10003
102
{ACAD_REACTORS
330
10002
102
}
330
10002
  0
SCALE
  5
1003C
102
{ACAD_REACTORS
330
1003B
102
}
330
1003B
100
AcDbScale
 70
     0
300
1:1
140
1.0
141
1.0
290
     1
  0
SCALE
  5
1003D
102
{ACAD_REACTORS
330
1003B
102
}
330
1003B
100
AcDbScale
 70
     0
300
1/128" = 1'-0"
140
0.0078125
141
12.0
290
     0
  0
SCALE
  5
1003E
102
{ACAD_REACTORS
330
1003B
102
}
330
1003B
100
AcDbScale
 70
     0
300
1/64" = 1'-0"
140
0.015625
141
12.0
290
     0
  0
SCALE
  5
1003F
102
{ACAD_REACTORS
330
1003B
102
}
330
1003B
100
AcDbScale
 70
     0
300
1/32" = 1'-0"
140
0.03125
141
12.0
290
     0
  0
SCALE
  5
10040
102
{ACAD_REACTORS
330
1003B
102
}
330
1003B
100
AcDbScale
 70
     0
300
1/16" = 1'-0"
140
0.0625
141
12.0
290
     0
  0
SCALE
  5
10041
102
{ACAD_REACTORS
330
1003B
102
}
330
1003B
100
AcDbScale
 70
     0
300
3/32" = 1'-0"
140
0.09375
141
12.0
290
     0
  0
SCALE
  5
10042
102
{ACAD_REACTORS
330
1003B
102
}
330
1003B
100
AcDbScale
 70
     0
300
1/8" = 1'-0"
140
0.125
141
12.0
290
     0
  0
SCALE
  5
10043
102
{ACAD_REACTORS
330
1003B
102
}
330
1003B
100
AcDbScale
 70
     0
300
3/16" = 1'-0"
140
0.1875
141
12.0
290
     0
  0
SCALE
  5
10044
102
{ACAD_REACTORS
330
1003B
102
}
330
1003B
100
AcDbScale
 70
     0
300
1/4" = 1'-0"
140
0.25
141
12.0
290
     0
  0
SCALE
  5
10045
102
{ACAD_REACTORS
330
1003B
102
}
330
1003B
100
AcDbScale
 70
     0
300
3/8" = 1'-0"
140
0.375
141
12.0
290
     0
  0
SCALE
  5
10046
102
{ACAD_REACTORS
330
1003B
102
}
330
1003B
100
AcDbScale
 70
     0
300
1/2" = 1'-0"
140
0.5
141
12.0
290
     0
  0
SCALE
  5
10047
102
{ACAD_REACTORS
330
1003B
102
}
330
1003B
100
AcDbScale
 70
     0
300
3/4" = 1'-0"
140
0.75
141
12.0
290
     0
  0
SCALE
  5
10048
102
{ACAD_REACTORS
330
1003B
102
}
330
1003B
100
AcDbScale
 70
     0
300
1" = 1'-0"
140
1.0
141
12.0
290
     0
  0
SCALE
  5
10049
102
{ACAD_REACTORS
330
1003B
102
}
330
1003B
100
AcDbScale
 70
     0
300
1-1/2" = 1'-0"
140
1.5
141
12.0
290
     0
  0
SCALE
  5
1004A
102
{ACAD_REACTORS
330
1003B
102
}
330
1003B
100
AcDbScale
 70
     0
300
3" = 1'-0"
140
3.0
141
12.0
290
     0
  0
SCALE
  5
1004B
102
{ACAD_REACTORS
330
1003B
102
}
330
1003B
100
AcDbScale
 70
     0
300
6" = 1'-0"
140
6.0
141
12.0
290
     0
  0
SCALE
  5
1004C
102
{ACAD_REACTORS
330
1003B
102
}
330
1003B
100
AcDbScale
 70
     0
300
1'-0" = 1'-0"
140
12.0
141
12.0
290
     0
  0
ACDBSECTIONVIEWSTYLE
  5
10050
102
{ACAD_REACTORS
330
1004F
102
}
330
1004F
100
AcDbModelDocViewStyle
 70
     0
  3
Imperial24
290
     0
300
Imperial24
 90
        0
100
AcDbSectionViewStyle
 70
     0
 71
     0
 90
       78
 71
     1
340
11
 62
   256
 40
0.24
340
0
340
0
 62
   256
 40
0.24
300
I, O, Q, S, X, Z
 40
0.48
 90
        3
 40
0.18
 90
        1
 71
     2
340
0
 90
       25
 62
   256
340
0
 90
       50
 62
   256
 40
0.24
 40
0.0
 40
0.24
 71
     3
340
11
 62
   256
 40
0.24
 90
        1
 40
0.75
 90
        1
300
%<\AcVar ViewType \f "%tc1">% %<\AcVar ViewSectionStartId>%-%<\AcVar ViewSectionEndId>%\PSCALE %<\AcVar ViewScale \f "%sn">%
 71
     4
 62
   256
 62
   257
300
ANSI31
 40
1.0
 90
        0
290
     0
290
     0
 90
        6
 40
0.0
 40
1.570796326794896
 40
0.2617993877991494
 40
1.308996938995747
 40
-0.2617993877991494
 40
1.832595714594046
  0
TABLESTYLE
  5
10039
102
{ACAD_XDICTIONARY
360
10098
102
}
102
{ACAD_REACTORS
330
10038
102
}
330
10038
100
AcDbTableStyle
280
     0
  3
Standard
 70
     0
 71
     0
 40
0.06
 41
0.06
280
     0
281
     0
  7
STANDARD
140
0.18
170
     2
 62
     0
 63
     7
283
     0
 90
      512
 91
        0
  1

274
    -2
284
     1
 64
     0
275
    -2
285
     1
 65
     0
276
    -2
286
     1
 66
     0
277
    -2
287
     1
 67
     0
278
    -2
288
     1
 68
     0
279
    -2
289
     1
 69
     0
  7
STANDARD
140
0.25
170
     5
 62
     0
 63
     7
283
     0
 90
      512
 91
        0
  1

274
    -2
284
     1
 64
     0
275
    -2
285
     1
 65
     0
276
    -2
286
     1
 66
     0
277
    -2
287
     1
 67
     0
278
    -2
288
     1
 68
     0
279
    -2
289
     1
 69
     0
  7
STANDARD
140
0.18
170
     5
 62
     0
 63
     7
283
     0
 90
      512
 91
        0
  1

274
    -2
284
     1
 64
     0
275
    -2
285
     1
 65
     0
276
    -2
286
     1
 66
     0
277
    -2
287
     1
 67
     0
278
    -2
288
     1
 68
     0
279
    -2
289
     1
 69
     0
  0
VISUALSTYLE
  5
10023
102
{ACAD_REACTORS
330
1001D
102
}
330
1001D
100
AcDbVisualStyle
  2
2dWireframe
 70
     4
177
     3
291
     0
 70
    58
 90
        0
176
     1
 90
        2
176
     1
 90
        0
176
     1
 90
        0
176
     1
 40
0.6
176
     1
 40
30.0
176
     1
 62
     7
420
 16777215
176
     1
 90
        1
176
     1
 90
        4
176
     1
 62
     7
176
     1
 62
   257
176
     1
 90
        1
176
     1
 90
        1
176
     1
 40
1.0
176
     1
 90
        0
176
     1
 62
   257
176
     1
 40
1.0
176
     1
 90
        1
176
     1
 90
        6
176
     1
 90
        2
176
     1
 62
     7
176
     1
 90
        5
176
     1
 90
        0
176
     1
 90
        0
176
     1
290
     0
176
     1
 90
        1
176
     1
 40
0.0
176
     1
 90
        0
176
     1
290
     1
176
     1
290
     1
176
     1
290
     0
176
     1
290
     0
176
     1
290
     0
176
     1
290
     0
176
     1
290
     0
176
     1
290
     0
176
     1
290
     0
176
     1
 90
       50
176
     1
 40
0.0
176
     1
 40
1.0
176
     1
 90
        0
176
     1
 62
    18
420
        0
176
     1
 90
       50
176
     1
 90
        3
176
     1
 62
     5
420
      255
176
     1
290
     0
176
     1
 90
       50
176
     1
 90
       50
176
     1
 90
       50
176
     1
290
     0
176
     1
 90
       50
176
     1
 62
   256
176
     0
 40
1.0
176
     0
 90
        2
176
     1
  1
strokes_ogs.tif
176
     1
290
     0
176
     1
 40
1.0
176
     1
 40
1.0
176
     1
  0
VISUALSTYLE
  5
10022
102
{ACAD_REACTORS
330
1001D
102
}
330
1001D
100
AcDbVisualStyle
  2
Basic
 70
     7
177
     3
291
     1
 70
    58
 90
        1
176
     1
 90
        0
176
     1
 90
        1
176
     1
 90
        0
176
     1
 40
0.6
176
     1
 40
30.0
176
     1
 62
     7
420
 16777215
176
     1
 90
        0
176
     1
 90
        4
176
     1
 62
     7
176
     1
 62
   257
176
     1
 90
        1
176
     1
 90
        1
176
     1
 40
1.0
176
     1
 90
        8
176
     1
 62
     7
176
     1
 40
1.0
176
     1
 90
        1
176
     1
 90
        6
176
     1
 90
        2
176
     1
 62
     7
176
     1
 90
        5
176
     1
 90
        0
176
     1
 90
        0
176
     1
290
     0
176
     1
 90
        1
176
     1
 40
0.0
176
     1
 90
        0
176
     1
290
     0
176
     1
290
     1
176
     1
290
     1
176
     1
290
     0
176
     1
290
     0
176
     1
290
     0
176
     1
290
     0
176
     1
290
     0
176
     1
290
     0
176
     1
 90
       50
176
     1
 40
0.0
176
     1
 40
1.0
176
     1
 90
        0
176
     1
 62
    18
420
        0
176
     1
 90
       50
176
     1
 90
        3
176
     1
 62
     5
420
      255
176
     1
290
     0
176
     1
 90
       50
176
     1
 90
       50
176
     1
 90
       50
176
     1
290
     0
176
     1
 90
       50
176
     1
 62
   256
176
     0
 40
1.0
176
     0
 90
        2
176
     1
  1
strokes_ogs.tif
176
     1
290
     0
176
     1
 40
1.0
176
     1
 40
1.0
176
     1
  0
VISUALSTYLE
  5
10029
102
{ACAD_REACTORS
330
1001D
102
}
330
1001D
100
AcDbVisualStyle
  2
Brighten
 70
    12
177
     3
291
     1
 70
    58
 90
        2
176
     1
 90
        2
176
     1
 90
        0
176
     1
 90
        0
176
     1
 40
0.6
176
     1
 40
30.0
176
     1
 62
     7
420
 16777215
176
     1
 90
        1
176
     1
 90
        4
176
     1
 62
     7
176
     1
 62
   257
176
     1
 90
        1
176
     1
 90
        1
176
     1
 40
1.0
176
     1
 90
        8
176
     1
 62
     7
176
     1
 40
1.0
176
     1
 90
        1
176
     1
 90
        6
176
     1
 90
        2
176
     1
 62
     7
176
     1
 90
        5
176
     1
 90
        0
176
     1
 90
        0
176
     1
290
     0
176
     1
 90
        1
176
     1
 40
50.0
176
     1
 90
        0
176
     1
290
     0
176
     1
290
     1
176
     1
290
     1
176
     1
290
     0
176
     1
290
     0
176
     1
290
     0
176
     1
290
     0
176
     1
290
     0
176
     1
290
     0
176
     1
 90
       50
176
     1
 40
0.0
176
     1
 40
1.0
176
     1
 90
        0
176
     1
 62
    18
420
        0
176
     1
 90
       50
176
     1
 90
        3
176
     1
 62
     5
420
      255
176
     1
290
     0
176
     1
 90
       50
176
     1
 90
       50
176
     1
 90
       50
176
     1
290
     0
176
     1
 90
       50
176
     1
 62
   256
176
     0
 40
1.0
176
     0
 90
        2
176
     1
  1
strokes_ogs.tif
176
     1
290
     0
176
     1
 40
1.0
176
     1
 40
1.0
176
     1
  0
VISUALSTYLE
  5
1002D
102
{ACAD_REACTORS
330
1001D
102
}
330
1001D
100
AcDbVisualStyle
  2
ColorChange
 70
    16
177
     3
291
     1
 70
    58
 90
        2
176
     1
 90
        2
176
     1
 90
        3
176
     1
 90
        0
176
     1
 40
0.6
176
     1
 40
30.0
176
     1
 62
     8
420
  8421504
176
     1
 90
        1
176
     1
 90
        4
176
     1
 62
     7
176
     1
 62
   257
176
     1
 90
        1
176
     1
 90
        1
176
     1
 40
1.0
176
     1
 90
        8
176
     1
 62
     8
420
  8421504
176
     1
 40
1.0
176
     1
 90
        1
176
     1
 90
        6
176
     1
 90
        2
176
     1
 62
     7
176
     1
 90
        5
176
     1
 90
        0
176
     1
 90
        0
176
     1
290
     0
176
     1
 90
        1
176
     1
 40
0.0
176
     1
 90
        0
176
     1
290
     0
176
     1
290
     1
176
     1
290
     1
176
     1
290
     0
176
     1
290
     0
176
     1
290
     0
176
     1
290
     0
176
     1
290
     0
176
     1
290
     0
176
     1
 90
       50
176
     1
 40
0.0
176
     1
 40
1.0
176
     1
 90
        0
176
     1
 62
    18
420
        0
176
     1
 90
       50
176
     1
 90
        3
176
     1
 62
     5
420
      255
176
     1
290
     0
176
     1
 90
       50
176
     1
 90
       50
176
     1
 90
       50
176
     1
290
     0
176
     1
 90
       50
176
     1
 62
   256
176
     0
 40
1.0
176
     0
 90
        2
176
     1
  1
strokes_ogs.tif
176
     1
290
     0
176
     1
 40
1.0
176
     1
 40
1.0
176
     1
  0
VISUALSTYLE
  5
10026
102
{ACAD_REACTORS
330
1001D
102
}
330
1001D
100
AcDbVisualStyle
  2
Conceptual
 70
     9
177
     3
291
     0
 70
    58
 90
        3
176
     1
 90
        2
176
     1
 90
        0
176
     1
 90
        0
176
     1
 40
0.6
176
     1
 40
30.0
176
     1
 62
     7
420
 16777215
176
     1
 90
        2
176
     1
 90
        2
176
     1
 62
     7
176
     1
 62
   257
176
     1
 90
        1
176
     1
 90
        1
176
     1
 40
179.0
176
     1
 90
        8
176
     1
 62
     7
176
     1
 40
1.0
176
     1
 90
        1
176
     1
 90
        6
176
     1
 90
        2
176
     1
 62
     7
176
     1
 90
        3
176
     1
 90
        0
176
     1
 90
        0
176
     1
290
     0
176
     1
 90
        1
176
     1
 40
0.0
176
     1
 90
        0
176
     1
290
     0
176
     1
290
     1
176
     1
290
     1
176
     1
290
     0
176
     1
290
     0
176
     1
290
     0
176
     1
290
     0
176
     1
290
     0
176
     1
290
     0
176
     1
 90
       50
176
     1
 40
0.0
176
     1
 40
1.0
176
     1
 90
        0
176
     1
 62
    18
420
        0
176
     1
 90
       50
176
     1
 90
        3
176
     1
 62
     5
420
      255
176
     1
290
     0
176
     1
 90
       50
176
     1
 90
       50
176
     1
 90
       50
176
     1
290
     0
176
     1
 90
       50
176
     1
 62
   256
176
     0
 40
1.0
176
     0
 90
        2
176
     1
  1
strokes_ogs.tif
176
     1
290
     0
176
     1
 40
1.0
176
     1
 40
1.0
176
     1
  0
VISUALSTYLE
  5
10028
102
{ACAD_REACTORS
330
1001D
102
}
330
1001D
100
AcDbVisualStyle
  2
Dim
 70
    11
177
     3
291
     1
 70
    58
 90
        2
176
     1
 90
        2
176
     1
 90
        0
176
     1
 90
        0
176
     1
 40
0.6
176
     1
 40
30.0
176
     1
 62
     7
420
 16777215
176
     1
 90
        1
176
     1
 90
        4
176
     1
 62
     7
176
     1
 62
   257
176
     1
 90
        1
176
     1
 90
        1
176
     1
 40
1.0
176
     1
 90
        8
176
     1
 62
     7
176
     1
 40
1.0
176
     1
 90
        1
176
     1
 90
        6
176
     1
 90
        2
176
     1
 62
     7
176
     1
 90
        5
176
     1
 90
        0
176
     1
 90
        0
176
     1
290
     0
176
     1
 90
        1
176
     1
 40
-50.0
176
     1
 90
        0
176
     1
290
     0
176
     1
290
     1
176
     1
290
     1
176
     1
290
     0
176
     1
290
     0
176
     1
290
     0
176
     1
290
     0
176
     1
290
     0
176
     1
290
     0
176
     1
 90
       50
176
     1
 40
0.0
176
     1
 40
1.0
176
     1
 90
        0
176
     1
 62
    18
420
        0
176
     1
 90
       50
176
     1
 90
        3
176
     1
 62
     5
420
      255
176
     1
290
     0
176
     1
 90
       50
176
     1
 90
       50
176
     1
 90
       50
176
     1
290
     0
176
     1
 90
       50
176
     1
 62
   256
176
     0
 40
1.0
176
     0
 90
        2
176
     1
  1
strokes_ogs.tif
176
     1
290
     0
176
     1
 40
1.0
176
     1
 40
1.0
176
     1
  0
VISUALSTYLE
  5
10035
102
{ACAD_REACTORS
330
1001D
102
}
330
1001D
100
AcDbVisualStyle
  2
EdgeColorOff
 70
    22
177
     3
291
     1
 70
    58
 90
        2
176
     0
 90
        2
176
     0
 90
        0
176
     0
 90
        0
176
     0
 40
0.6
176
     0
 40
30.0
176
     0
 62
     7
420
 16777215
176
     0
 90
        1
176
     0
 90
        4
176
     0
 62
     7
176
     0
 62
   257
176
     0
 90
        1
176
     0
 90
        1
176
     0
 40
1.0
176
     0
 90
        8
176
     2
 62
     7
176
     0
 40
1.0
176
     0
 90
        1
176
     0
 90
        6
176
     0
 90
        2
176
     0
 62
     7
176
     0
 90
        5
176
     0
 90
        0
176
     0
 90
        0
176
     0
290
     0
176
     0
 90
        1
176
     0
 40
0.0
176
     0
 90
        0
176
     0
290
     0
176
     1
290
     1
176
     1
290
     1
176
     1
290
     0
176
     1
290
     0
176
     1
290
     0
176
     1
290
     0
176
     1
290
     0
176
     1
290
     0
176
     1
 90
       50
176
     0
 40
0.0
176
     0
 40
1.0
176
     0
 90
        0
176
     0
 62
    18
420
        0
176
     0
 90
       50
176
     0
 90
        3
176
     0
 62
     5
420
      255
176
     0
290
     0
176
     1
 90
       50
176
     0
 90
       50
176
     0
 90
       50
176
     0
290
     0
176
     1
 90
       50
176
     0
 62
   256
176
     0
 40
1.0
176
     0
 90
        2
176
     0
  1
strokes_ogs.tif
176
     0
290
     0
176
     1
 40
1.0
176
     0
 40
1.0
176
     0
  0
VISUALSTYLE
  5
1002C
102
{ACAD_REACTORS
330
1001D
102
}
330
1001D
100
AcDbVisualStyle
  2
Facepattern
 70
    15
177
     3
291
     1
 70
    58
 90
        2
176
     1
 90
        2
176
     1
 90
        0
176
     1
 90
        0
176
     1
 40
0.6
176
     1
 40
30.0
176
     1
 62
     7
420
 16777215
176
     1
 90
        1
176
     1
 90
        4
176
     1
 62
     7
176
     1
 62
   257
176
     1
 90
        1
176
     1
 90
        1
176
     1
 40
1.0
176
     1
 90
        8
176
     1
 62
     7
176
     1
 40
1.0
176
     1
 90
        1
176
     1
 90
        6
176
     1
 90
        2
176
     1
 62
     7
176
     1
 90
        5
176
     1
 90
        0
176
     1
 90
        0
176
     1
290
     0
176
     1
 90
        1
176
     1
 40
0.0
176
     1
 90
        0
176
     1
290
     0
176
     1
290
     1
176
     1
290
     1
176
     1
290
     0
176
     1
290
     0
176
     1
290
     0
176
     1
290
     0
176
     1
290
     0
176
     1
290
     0
176
     1
 90
       50
176
     1
 40
0.0
176
     1
 40
1.0
176
     1
 90
        0
176
     1
 62
    18
420
        0
176
     1
 90
       50
176
     1
 90
        3
176
     1
 62
     5
420
      255
176
     1
290
     0
176
     1
 90
       50
176
     1
 90
       50
176
     1
 90
       50
176
     1
290
     0
176
     1
 90
       50
176
     1
 62
   256
176
     0
 40
1.0
176
     0
 90
        2
176
     1
  1
strokes_ogs.tif
176
     1
290
     0
176
     1
 40
1.0
176
     1
 40
1.0
176
     1
  0
VISUALSTYLE
  5
1001E
102
{ACAD_REACTORS
330
1001D
102
}
330
1001D
100
AcDbVisualStyle
  2
Flat
 70
     0
177
     3
291
     1
 70
    58
 90
        2
176
     1
 90
        1
176
     1
 90
        1
176
     1
 90
        2
176
     1
 40
0.6
176
     1
 40
30.0
176
     1
 62
     7
420
 16777215
176
     1
 90
        0
176
     1
 90
        0
176
     1
 62
     7
176
     1
 62
   257
176
     1
 90
        1
176
     1
 90
        1
176
     1
 40
1.0
176
     1
 90
        8
176
     1
 62
     7
176
     1
 40
1.0
176
     1
 90
        1
176
     1
 90
        6
176
     1
 90
        2
176
     1
 62
     7
176
     1
 90
        5
176
     1
 90
        0
176
     1
 90
        0
176
     1
290
     0
176
     1
 90
       13
176
     1
 40
0.0
176
     1
 90
        0
176
     1
290
     0
176
     1
290
     1
176
     1
290
     1
176
     1
290
     0
176
     1
290
     0
176
     1
290
     0
176
     1
290
     0
176
     1
290
     0
176
     1
290
     0
176
     1
 90
       50
176
     1
 40
0.0
176
     1
 40
1.0
176
     1
 90
        0
176
     1
 62
    18
420
        0
176
     1
 90
       50
176
     1
 90
        3
176
     1
 62
     5
420
      255
176
     1
290
     0
176
     1
 90
       50
176
     1
 90
       50
176
     1
 90
       50
176
     1
290
     0
176
     1
 90
       50
176
     1
 62
   256
176
     0
 40
1.0
176
     0
 90
        2
176
     1
  1
strokes_ogs.tif
176
     1
290
     0
176
     1
 40
1.0
176
     1
 40
1.0
176
     1
  0
VISUALSTYLE
  5
1001F
102
{ACAD_REACTORS
330
1001D
102
}
330
1001D
100
AcDbVisualStyle
  2
FlatWithEdges
 70
     1
177
     3
291
     1
 70
    58
 90
        2
176
     1
 90
        1
176
     1
 90
        1
176
     1
 90
        2
176
     1
 40
0.6
176
     1
 40
30.0
176
     1
 62
     7
420
 16777215
176
     1
 90
        1
176
     1
 90
        0
176
     1
 62
     7
176
     1
 62
   257
176
     1
 90
        1
176
     1
 90
        1
176
     1
 40
1.0
176
     1
 90
        0
176
     1
 62
   257
176
     1
 40
1.0
176
     1
 90
        1
176
     1
 90
        6
176
     1
 90
        2
176
     1
 62
     7
176
     1
 90
        5
176
     1
 90
        0
176
     1
 90
        0
176
     1
290
     0
176
     1
 90
       13
176
     1
 40
0.0
176
     1
 90
        0
176
     1
290
     0
176
     1
290
     1
176
     1
290
     1
176
     1
290
     0
176
     1
290
     0
176
     1
290
     0
176
     1
290
     0
176
     1
290
     0
176
     1
290
     0
176
     1
 90
       50
176
     1
 40
0.0
176
     1
 40
1.0
176
     1
 90
        0
176
     1
 62
    18
420
        0
176
     1
 90
       50
176
     1
 90
        3
176
     1
 62
     5
420
      255
176
     1
290
     0
176
     1
 90
       50
176
     1
 90
       50
176
     1
 90
       50
176
     1
290
     0
176
     1
 90
       50
176
     1
 62
   256
176
     0
 40
1.0
176
     0
 90
        2
176
     1
  1
strokes_ogs.tif
176
     1
290
     0
176
     1
 40
1.0
176
     1
 40
1.0
176
     1
  0
VISUALSTYLE
  5
10020
102
{ACAD_REACTORS
330
1001D
102
}
330
1001D
100
AcDbVisualStyle
  2
Gouraud
 70
     2
177
     3
291
     1
 70
    58
 90
        2
176
     1
 90
        2
176
     1
 90
        1
176
     1
 90
        2
176
     1
 40
0.6
176
     1
 40
30.0
176
     1
 62
     7
420
 16777215
176
     1
 90
        0
176
     1
 90
        0
176
     1
 62
     7
176
     1
 62
   257
176
     1
 90
        1
176
     1
 90
        1
176
     1
 40
1.0
176
     1
 90
        0
176
     1
 62
     7
176
     1
 40
1.0
176
     1
 90
        1
176
     1
 90
        6
176
     1
 90
        2
176
     1
 62
     7
176
     1
 90
        5
176
     1
 90
        0
176
     1
 90
        0
176
     1
290
     0
176
     1
 90
       13
176
     1
 40
0.0
176
     1
 90
        0
176
     1
290
     0
176
     1
290
     1
176
     1
290
     1
176
     1
290
     0
176
     1
290
     0
176
     1
290
     0
176
     1
290
     0
176
     1
290
     0
176
     1
290
     0
176
     1
 90
       50
176
     1
 40
0.0
176
     1
 40
1.0
176
     1
 90
        0
176
     1
 62
    18
420
        0
176
     1
 90
       50
176
     1
 90
        3
176
     1
 62
     5
420
      255
176
     1
290
     0
176
     1
 90
       50
176
     1
 90
       50
176
     1
 90
       50
176
     1
290
     0
176
     1
 90
       50
176
     1
 62
   256
176
     0
 40
1.0
176
     0
 90
        2
176
     1
  1
strokes_ogs.tif
176
     1
290
     0
176
     1
 40
1.0
176
     1
 40
1.0
176
     1
  0
VISUALSTYLE
  5
10021
102
{ACAD_REACTORS
330
1001D
102
}
330
1001D
100
AcDbVisualStyle
  2
GouraudWithEdges
 70
     3
177
     3
291
     1
 70
    58
 90
        2
176
     1
 90
        2
176
     1
 90
        1
176
     1
 90
        2
176
     1
 40
0.6
176
     1
 40
30.0
176
     1
 62
     7
420
 16777215
176
     1
 90
        1
176
     1
 90
        0
176
     1
 62
     7
176
     1
 62
   257
176
     1
 90
        1
176
     1
 90
        1
176
     1
 40
1.0
176
     1
 90
        0
176
     1
 62
   257
176
     1
 40
1.0
176
     1
 90
        1
176
     1
 90
        6
176
     1
 90
        2
176
     1
 62
     7
176
     1
 90
        5
176
     1
 90
        0
176
     1
 90
        0
176
     1
290
     0
176
     1
 90
       13
176
     1
 40
0.0
176
     1
 90
        0
176
     1
290
     0
176
     1
290
     1
176
     1
290
     1
176
     1
290
     0
176
     1
290
     0
176
     1
290
     0
176
     1
290
     0
176
     1
290
     0
176
     1
290
     0
176
     1
 90
       50
176
     1
 40
0.0
176
     1
 40
1.0
176
     1
 90
        0
176
     1
 62
    18
420
        0
176
     1
 90
       50
176
     1
 90
        3
176
     1
 62
     5
420
      255
176
     1
290
     0
176
     1
 90
       50
176
     1
 90
       50
176
     1
 90
       50
176
     1
290
     0
176
     1
 90
       50
176
     1
 62
   256
176
     0
 40
1.0
176
     0
 90
        2
176
     1
  1
strokes_ogs.tif
176
     1
290
     0
176
     1
 40
1.0
176
     1
 40
1.0
176
     1
  0
VISUALSTYLE
  5
10025
102
{ACAD_REACTORS
330
1001D
102
}
330
1001D
100
AcDbVisualStyle
  2
Hidden
 70
     6
177
     3
291
     0
 70
    58
 90
        1
176
     1
 90
        2
176
     1
 90
        2
176
     1
 90
        0
176
     1
 40
0.6
176
     1
 40
30.0
176
     1
 62
     7
420
 16777215
176
     1
 90
        2
176
     1
 90
        2
176
     1
 62
     7
176
     1
 62
   257
176
     1
 90
        2
176
     1
 90
        1
176
     1
 40
40.0
176
     1
 90
        0
176
     1
 62
   257
176
     1
 40
1.0
176
     1
 90
        1
176
     1
 90
        6
176
     1
 90
        2
176
     1
 62
     7
176
     1
 90
        3
176
     1
 90
        0
176
     1
 90
        0
176
     1
290
     0
176
     1
 90
        1
176
     1
 40
0.0
176
     1
 90
        0
176
     1
290
     0
176
     1
290
     1
176
     1
290
     1
176
     1
290
     0
176
     1
290
     0
176
     1
290
     0
176
     1
290
     0
176
     1
290
     0
176
     1
290
     0
176
     1
 90
       50
176
     1
 40
0.0
176
     1
 40
1.0
176
     1
 90
        0
176
     1
 62
    18
420
        0
176
     1
 90
       50
176
     1
 90
        3
176
     1
 62
     5
420
      255
176
     1
290
     0
176
     1
 90
       50
176
     1
 90
       50
176
     1
 90
       50
176
     1
290
     0
176
     1
 90
       50
176
     1
 62
   256
176
     0
 40
1.0
176
     0
 90
        2
176
     1
  1
strokes_ogs.tif
176
     1
290
     0
176
     1
 40
1.0
176
     1
 40
1.0
176
     1
  0
VISUALSTYLE
  5
10033
102
{ACAD_REACTORS
330
1001D
102
}
330
1001D
100
AcDbVisualStyle
  2
JitterOff
 70
    20
177
     3
291
     1
 70
    58
 90
        2
176
     0
 90
        2
176
     0
 90
        0
176
     0
 90
        0
176
     0
 40
0.6
176
     0
 40
30.0
176
     0
 62
     7
420
 16777215
176
     0
 90
        1
176
     0
 90
        4
176
     0
 62
     7
176
     0
 62
   257
176
     0
 90
        1
176
     0
 90
        1
176
     0
 40
1.0
176
     0
 90
       10
176
     2
 62
     7
176
     0
 40
1.0
176
     0
 90
        1
176
     0
 90
        6
176
     0
 90
        2
176
     0
 62
     7
176
     0
 90
        5
176
     0
 90
        0
176
     0
 90
        0
176
     0
290
     0
176
     0
 90
        1
176
     0
 40
0.0
176
     0
 90
        0
176
     0
290
     0
176
     1
290
     1
176
     1
290
     1
176
     1
290
     0
176
     1
290
     0
176
     1
290
     0
176
     1
290
     0
176
     1
290
     0
176
     1
290
     0
176
     1
 90
       50
176
     0
 40
0.0
176
     0
 40
1.0
176
     0
 90
        0
176
     0
 62
    18
420
        0
176
     0
 90
       50
176
     0
 90
        3
176
     0
 62
     5
420
      255
176
     0
290
     0
176
     1
 90
       50
176
     0
 90
       50
176
     0
 90
       50
176
     0
290
     0
176
     1
 90
       50
176
     0
 62
   256
176
     0
 40
1.0
176
     0
 90
        2
176
     0
  1
strokes_ogs.tif
176
     0
290
     0
176
     1
 40
1.0
176
     0
 40
1.0
176
     0
  0
VISUALSTYLE
  5
1002B
102
{ACAD_REACTORS
330
1001D
102
}
330
1001D
100
AcDbVisualStyle
  2
Linepattern
 70
    14
177
     3
291
     1
 70
    58
 90
        2
176
     1
 90
        2
176
     1
 90
        0
176
     1
 90
        0
176
     1
 40
0.6
176
     1
 40
30.0
176
     1
 62
     7
420
 16777215
176
     1
 90
        1
176
     1
 90
        4
176
     1
 62
     7
176
     1
 62
   257
176
     1
 90
        7
176
     1
 90
        7
176
     1
 40
1.0
176
     1
 90
        8
176
     1
 62
     7
176
     1
 40
1.0
176
     1
 90
        1
176
     1
 90
        6
176
     1
 90
        2
176
     1
 62
     7
176
     1
 90
        5
176
     1
 90
        0
176
     1
 90
        0
176
     1
290
     0
176
     1
 90
        1
176
     1
 40
0.0
176
     1
 90
        0
176
     1
290
     0
176
     1
290
     1
176
     1
290
     1
176
     1
290
     0
176
     1
290
     0
176
     1
290
     0
176
     1
290
     0
176
     1
290
     0
176
     1
290
     0
176
     1
 90
       50
176
     1
 40
0.0
176
     1
 40
1.0
176
     1
 90
        0
176
     1
 62
    18
420
        0
176
     1
 90
       50
176
     1
 90
        3
176
     1
 62
     5
420
      255
176
     1
290
     0
176
     1
 90
       50
176
     1
 90
       50
176
     1
 90
       50
176
     1
290
     0
176
     1
 90
       50
176
     1
 62
   256
176
     0
 40
1.0
176
     0
 90
        2
176
     1
  1
strokes_ogs.tif
176
     1
290
     0
176
     1
 40
1.0
176
     1
 40
1.0
176
     1
  0
VISUALSTYLE
  5
10034
102
{ACAD_REACTORS
330
1001D
102
}
330
1001D
100
AcDbVisualStyle
  2
OverhangOff
 70
    21
177
     3
291
     1
 70
    58
 90
        2
176
     0
 90
        2
176
     0
 90
        0
176
     0
 90
        0
176
     0
 40
0.6
176
     0
 40
30.0
176
     0
 62
     7
420
 16777215
176
     0
 90
        1
176
     0
 90
        4
176
     0
 62
     7
176
     0
 62
   257
176
     0
 90
        1
176
     0
 90
        1
176
     0
 40
1.0
176
     0
 90
        9
176
     2
 62
     7
176
     0
 40
1.0
176
     0
 90
        1
176
     0
 90
        6
176
     0
 90
        2
176
     0
 62
     7
176
     0
 90
        5
176
     0
 90
        0
176
     0
 90
        0
176
     0
290
     0
176
     0
 90
        1
176
     0
 40
0.0
176
     0
 90
        0
176
     0
290
     0
176
     1
290
     1
176
     1
290
     1
176
     1
290
     0
176
     1
290
     0
176
     1
290
     0
176
     1
290
     0
176
     1
290
     0
176
     1
290
     0
176
     1
 90
       50
176
     0
 40
0.0
176
     0
 40
1.0
176
     0
 90
        0
176
     0
 62
    18
420
        0
176
     0
 90
       50
176
     0
 90
        3
176
     0
 62
     5
420
      255
176
     0
290
     0
176
     1
 90
       50
176
     0
 90
       50
176
     0
 90
       50
176
     0
290
     0
176
     1
 90
       50
176
     0
 62
   256
176
     0
 40
1.0
176
     0
 90
        2
176
     0
  1
strokes_ogs.tif
176
     0
290
     0
176
     1
 40
1.0
176
     0
 40
1.0
176
     0
  0
VISUALSTYLE
  5
10027
102
{ACAD_REACTORS
330
1001D
102
}
330
1001D
100
AcDbVisualStyle
  2
Realistic
 70
     8
177
     3
291
     0
 70
    58
 90
        2
176
     1
 90
        3
176
     1
 90
        0
176
     1
 90
        2
176
     1
 40
0.6
176
     1
 40
30.0
176
     1
 62
     7
420
 16777215
176
     1
 90
        0
176
     1
 90
        0
176
     1
 62
     7
176
     1
 62
   257
176
     1
 90
        1
176
     1
 90
        1
176
     1
 40
1.0
176
     1
 90
        8
176
     1
 62
   257
176
     1
 40
1.0
176
     1
 90
        1
176
     1
 90
        6
176
     1
 90
        2
176
     1
 62
     7
176
     1
 90
        3
176
     1
 90
        0
176
     1
 90
        0
176
     1
290
     0
176
     1
 90
       13
176
     1
 40
0.0
176
     1
 90
        0
176
     1
290
     0
176
     1
290
     1
176
     1
290
     1
176
     1
290
     0
176
     1
290
     0
176
     1
290
     0
176
     1
290
     0
176
     1
290
     0
176
     1
290
     0
176
     1
 90
       50
176
     1
 40
0.0
176
     1
 40
1.0
176
     1
 90
        0
176
     1
 62
    18
420
        0
176
     1
 90
       50
176
     1
 90
        3
176
     1
 62
     5
420
      255
176
     1
290
     0
176
     1
 90
       50
176
     1
 90
       50
176
     1
 90
       50
176
     1
290
     0
176
     1
 90
       50
176
     1
 62
   256
176
     0
 40
1.0
176
     0
 90
        2
176
     1
  1
strokes_ogs.tif
176
     1
290
     0
176
     1
 40
1.0
176
     1
 40
1.0
176
     1
  0
VISUALSTYLE
  5
10032
102
{ACAD_REACTORS
330
1001D
102
}
330
1001D
100
AcDbVisualStyle
  2
Shaded
 70
    27
177
     3
291
     0
 70
    58
 90
        2
176
     1
 90
        2
176
     1
 90
        1
176
     1
 90
        2
176
     1
 40
0.6
176
     1
 40
30.0
176
     1
 62
     7
420
 16777215
176
     1
 90
        0
176
     1
 90
        4
176
     1
 62
     7
176
     1
 62
   257
176
     1
 90
        1
176
     1
 90
        1
176
     1
 40
1.0
176
     1
 90
        8
176
     1
 62
   257
176
     1
 40
1.0
176
     1
 90
        1
176
     1
 90
        6
176
     1
 90
        2
176
     1
 62
     8
420
  7895160
176
     1
 90
        3
176
     1
 90
        0
176
     1
 90
        0
176
     1
290
     0
176
     1
 90
        5
176
     1
 40
0.0
176
     1
 90
        0
176
     1
290
     0
176
     1
290
     1
176
     1
290
     1
176
     1
290
     0
176
     1
290
     0
176
     1
290
     0
176
     1
290
     0
176
     1
290
     0
176
     1
290
     0
176
     1
 90
       50
176
     1
 40
0.0
176
     1
 40
1.0
176
     1
 90
        0
176
     1
 62
    18
420
        0
176
     1
 90
       50
176
     1
 90
        3
176
     1
 62
     5
420
      255
176
     1
290
     0
176
     1
 90
       50
176
     1
 90
       50
176
     1
 90
       50
176
     1
290
     0
176
     1
 90
       50
176
     1
 62
   256
176
     0
 40
1.0
176
     0
 90
        2
176
     1
  1
strokes_ogs.tif
176
     1
290
     0
176
     1
 40
1.0
176
     1
 40
1.0
176
     1
  0
VISUALSTYLE
  5
10031
102
{ACAD_REACTORS
330
1001D
102
}
330
1001D
100
AcDbVisualStyle
  2
Shaded with edges
 70
    26
177
     3
291
     0
 70
    58
 90
        2
176
     1
 90
        2
176
     1
 90
        1
176
     1
 90
        2
176
     1
 40
0.6
176
     1
 40
30.0
176
     1
 62
     7
420
 16777215
176
     1
 90
        1
176
     1
 90
        2
176
     1
 62
     7
176
     1
 62
   257
176
     1
 90
        2
176
     1
 90
        1
176
     1
 40
1.0
176
     1
 90
        8
176
     1
 62
   257
176
     1
 40
1.0
176
     1
 90
        1
176
     1
 90
        6
176
     1
 90
        2
176
     1
 62
     7
176
     1
 90
        3
176
     1
 90
        0
176
     1
 90
        0
176
     1
290
     0
176
     1
 90
        5
176
     1
 40
0.0
176
     1
 90
        0
176
     1
290
     0
176
     1
290
     1
176
     1
290
     1
176
     1
290
     0
176
     1
290
     0
176
     1
290
     0
176
     1
290
     0
176
     1
290
     0
176
     1
290
     0
176
     1
 90
       50
176
     1
 40
0.0
176
     1
 40
1.0
176
     1
 90
        0
176
     1
 62
    18
420
        0
176
     1
 90
       50
176
     1
 90
        3
176
     1
 62
     5
420
      255
176
     1
290
     0
176
     1
 90
       50
176
     1
 90
       50
176
     1
 90
       50
176
     1
290
     0
176
     1
 90
       50
176
     1
 62
   256
176
     0
 40
1.0
176
     0
 90
        2
176
     1
  1
strokes_ogs.tif
176
     1
290
     0
176
     1
 40
1.0
176
     1
 40
1.0
176
     1
  0
VISUALSTYLE
  5
1002E
102
{ACAD_REACTORS
330
1001D
102
}
330
1001D
100
AcDbVisualStyle
  2
Shades of Gray
 70
    23
177
     3
291
     0
 70
    58
 90
        2
176
     1
 90
        2
176
     1
 90
        3
176
     1
 90
        0
176
     1
 40
0.6
176
     1
 40
30.0
176
     1
 62
     7
420
 16777215
176
     1
 90
        2
176
     1
 90
        2
176
     1
 62
     7
176
     1
 62
     7
176
     1
 90
        1
176
     1
 90
        1
176
     1
 40
40.0
176
     1
 90
        8
176
     1
 62
     7
176
     1
 40
1.0
176
     1
 90
        1
176
     1
 90
        6
176
     1
 90
        2
176
     1
 62
     7
176
     1
 90
        3
176
     1
 90
        0
176
     1
 90
        0
176
     1
290
     0
176
     1
 90
        1
176
     1
 40
0.0
176
     1
 90
        0
176
     1
290
     0
176
     1
290
     1
176
     1
290
     1
176
     1
290
     0
176
     1
290
     0
176
     1
290
     0
176
     1
290
     0
176
     1
290
     0
176
     1
290
     0
176
     1
 90
       50
176
     1
 40
0.0
176
     1
 40
1.0
176
     1
 90
        0
176
     1
 62
    18
420
        0
176
     1
 90
       50
176
     1
 90
        3
176
     1
 62
     5
420
      255
176
     1
290
     0
176
     1
 90
       50
176
     1
 90
       50
176
     1
 90
       50
176
     1
290
     0
176
     1
 90
       50
176
     1
 62
   256
176
     0
 40
1.0
176
     0
 90
        2
176
     1
  1
strokes_ogs.tif
176
     1
290
     0
176
     1
 40
1.0
176
     1
 40
1.0
176
     1
  0
VISUALSTYLE
  5
1002F
102
{ACAD_REACTORS
330
1001D
102
}
330
1001D
100
AcDbVisualStyle
  2
Sketchy
 70
    24
177
     3
291
     0
 70
    58
 90
        1
176
     1
 90
        2
176
     1
 90
        2
176
     1
 90
        0
176
     1
 40
0.6
176
     1
 40
30.0
176
     1
 62
     7
420
 16777215
176
     1
 90
        2
176
     1
 90
        2
176
     1
 62
     7
176
     1
 62
     7
176
     1
 90
        1
176
     1
 90
        1
176
     1
 40
40.0
176
     1
 90
       11
176
     1
 62
     7
176
     1
 40
1.0
176
     1
 90
        1
176
     1
 90
        6
176
     1
 90
        2
176
     1
 62
     7
176
     1
 90
        6
176
     1
 90
        0
176
     1
 90
        0
176
     1
290
     0
176
     1
 90
        1
176
     1
 40
0.0
176
     1
 90
        0
176
     1
290
     0
176
     1
290
     1
176
     1
290
     1
176
     1
290
     0
176
     1
290
     0
176
     1
290
     0
176
     1
290
     0
176
     1
290
     0
176
     1
290
     0
176
     1
 90
       50
176
     1
 40
0.0
176
     1
 40
1.0
176
     1
 90
        0
176
     1
 62
    18
420
        0
176
     1
 90
       50
176
     1
 90
        3
176
     1
 62
     5
420
      255
176
     1
290
     0
176
     1
 90
       50
176
     1
 90
       50
176
     1
 90
       50
176
     1
290
     0
176
     1
 90
       50
176
     1
 62
   256
176
     0
 40
1.0
176
     0
 90
        2
176
     1
  1
strokes_ogs.tif
176
     1
290
     0
176
     1
 40
1.0
176
     1
 40
1.0
176
     1
  0
VISUALSTYLE
  5
1002A
102
{ACAD_REACTORS
330
1001D
102
}
330
1001D
100
AcDbVisualStyle
  2
Thicken
 70
    13
177
     3
291
     1
 70
    58
 90
        2
176
     1
 90
        2
176
     1
 90
        0
176
     1
 90
        0
176
     1
 40
0.6
176
     1
 40
30.0
176
     1
 62
     7
420
 16777215
176
     1
 90
        1
176
     1
 90
        4
176
     1
 62
     7
176
     1
 62
   257
176
     1
 90
        1
176
     1
 90
        1
176
     1
 40
1.0
176
     1
 90
       12
176
     1
 62
     7
176
     1
 40
1.0
176
     1
 90
        1
176
     1
 90
        6
176
     1
 90
        2
176
     1
 62
     7
176
     1
 90
        5
176
     1
 90
        0
176
     1
 90
        0
176
     1
290
     0
176
     1
 90
        1
176
     1
 40
0.0
176
     1
 90
        0
176
     1
290
     0
176
     1
290
     1
176
     1
290
     1
176
     1
290
     0
176
     1
290
     0
176
     1
290
     0
176
     1
290
     0
176
     1
290
     0
176
     1
290
     0
176
     1
 90
       50
176
     1
 40
0.0
176
     1
 40
1.0
176
     1
 90
        0
176
     1
 62
    18
420
        0
176
     1
 90
       50
176
     1
 90
        3
176
     1
 62
     5
420
      255
176
     1
290
     0
176
     1
 90
       50
176
     1
 90
       50
176
     1
 90
       50
176
     1
290
     0
176
     1
 90
       50
176
     1
 62
   256
176
     0
 40
1.0
176
     0
 90
        2
176
     1
  1
strokes_ogs.tif
176
     1
290
     0
176
     1
 40
1.0
176
     1
 40
1.0
176
     1
  0
VISUALSTYLE
  5
10024
102
{ACAD_REACTORS
330
1001D
102
}
330
1001D
100
AcDbVisualStyle
  2
Wireframe
 70
     5
177
     3
291
     0
 70
    58
 90
        0
176
     1
 90
        2
176
     1
 90
        0
176
     1
 90
        0
176
     1
 40
0.6
176
     1
 40
30.0
176
     1
 62
     7
420
 16777215
176
     1
 90
        1
176
     1
 90
        4
176
     1
 62
     7
176
     1
 62
   257
176
     1
 90
        1
176
     1
 90
        1
176
     1
 40
1.0
176
     1
 90
        0
176
     1
 62
   257
176
     1
 40
1.0
176
     1
 90
        1
176
     1
 90
        6
176
     1
 90
        2
176
     1
 62
     7
176
     1
 90
        3
176
     1
 90
        0
176
     1
 90
        0
176
     1
290
     0
176
     1
 90
        1
176
     1
 40
0.0
176
     1
 90
        0
176
     1
290
     0
176
     1
290
     1
176
     1
290
     1
176
     1
290
     0
176
     1
290
     0
176
     1
290
     0
176
     1
290
     0
176
     1
290
     0
176
     1
290
     0
176
     1
 90
       50
176
     1
 40
0.0
176
     1
 40
1.0
176
     1
 90
        0
176
     1
 62
    18
420
        0
176
     1
 90
       50
176
     1
 90
        3
176
     1
 62
     5
420
      255
176
     1
290
     0
176
     1
 90
       50
176
     1
 90
       50
176
     1
 90
       50
176
     1
290
     0
176
     1
 90
       50
176
     1
 62
   256
176
     0
 40
1.0
176
     0
 90
        2
176
     1
  1
strokes_ogs.tif
176
     1
290
     0
176
     1
 40
1.0
176
     1
 40
1.0
176
     1
  0
VISUALSTYLE
  5
10030
102
{ACAD_REACTORS
330
1001D
102
}
330
1001D
100
AcDbVisualStyle
  2
X-Ray
 70
    25
177
     3
291
     0
 70
    58
 90
        2
176
     1
 90
        2
176
     1
 90
        1
176
     1
 90
        1
176
     1
 40
0.5
176
     1
 40
30.0
176
     1
 62
     7
420
 16777215
176
     1
 90
        1
176
     1
 90
        0
176
     1
 62
     7
176
     1
 62
   257
176
     1
 90
        1
176
     1
 90
        1
176
     1
 40
1.0
176
     1
 90
        8
176
     1
 62
     7
176
     1
 40
1.0
176
     1
 90
        1
176
     1
 90
        6
176
     1
 90
        2
176
     1
 62
     7
176
     1
 90
        3
176
     1
 90
        0
176
     1
 90
        0
176
     1
290
     0
176
     1
 90
       13
176
     1
 40
0.0
176
     1
 90
        0
176
     1
290
     0
176
     1
290
     1
176
     1
290
     1
176
     1
290
     0
176
     1
290
     0
176
     1
290
     0
176
     1
290
     0
176
     1
290
     0
176
     1
290
     0
176
     1
 90
       50
176
     1
 40
0.0
176
     1
 40
1.0
176
     1
 90
        0
176
     1
 62
    18
420
        0
176
     1
 90
       50
176
     1
 90
        3
176
     1
 62
     5
420
      255
176
     1
290
     0
176
     1
 90
       50
176
     1
 90
       50
176
     1
 90
       50
176
     1
290
     0
176
     1
 90
       50
176
     1
 62
   256
176
     0
 40
1.0
176
     0
 90
        2
176
     1
  1
strokes_ogs.tif
176
     1
290
     0
176
     1
 40
1.0
176
     1
 40
1.0
176
     1
  0
DICTIONARYVAR
  5
10094
102
{ACAD_REACTORS
330
1008E
102
}
330
1008E
100
DictionaryVariables
280
     0
  1
1:1
  0
DICTIONARYVAR
  5
10090
102
{ACAD_REACTORS
330
1008E
102
}
330
1008E
100
DictionaryVariables
280
     0
  1
STANDARD
  0
DICTIONARYVAR
  5
1008F
102
{ACAD_REACTORS
330
1008E
102
}
330
1008E
100
DictionaryVariables
280
     0
  1
STANDARD
  0
DICTIONARYVAR
  5
10091
102
{ACAD_REACTORS
330
1008E
102
}
330
1008E
100
DictionaryVariables
280
     0
  1
Imperial24
  0
DICTIONARYVAR
  5
10092
102
{ACAD_REACTORS
330
1008E
102
}
330
1008E
100
DictionaryVariables
280
     0
  1
Imperial24
  0
DICTIONARYVAR
  5
10096
102
{ACAD_REACTORS
330
1008E
102
}
330
1008E
100
DictionaryVariables
280
     0
  1
1
  0
DICTIONARYVAR
  5
10097
102
{ACAD_REACTORS
330
1008E
102
}
330
1008E
100
DictionaryVariables
280
     0
  1
15
  0
DICTIONARYVAR
  5
10095
102
{ACAD_REACTORS
330
1008E
102
}
330
1008E
100
DictionaryVariables
280
     0
  1
0
  0
DICTIONARYVAR
  5
10093
102
{ACAD_REACTORS
330
1008E
102
}
330
1008E
100
DictionaryVariables
280
     0
  1
0
  0
DICTIONARY
  5
1000E
330
1000D
100
AcDbDictionary
280
     1
281
     1
  3
BUMPTILE
360
10010
  3
DIFFUSETILE
360
1000F
  3
OPACITYTILE
360
10013
  3
REFLECTIONTILE
360
10012
  3
REFRACTIONTILE
360
10014
  3
SPECULARTILE
360
10011
  0
DICTIONARY
  5
10006
330
10005
100
AcDbDictionary
280
     1
281
     1
  3
BUMPTILE
360
10008
  3
DIFFUSETILE
360
10007
  3
OPACITYTILE
360
1000B
  3
REFLECTIONTILE
360
1000A
  3
REFRACTIONTILE
360
1000C
  3
SPECULARTILE
360
10009
  0
DICTIONARY
  5
10016
330
10015
100
AcDbDictionary
280
     1
281
     1
  3
BUMPTILE
360
10018
  3
DIFFUSETILE
360
10017
  3
OPACITYTILE
360
1001B
  3
REFLECTIONTILE
360
1001A
  3
REFRACTIONTILE
360
1001C
  3
SPECULARTILE
360
10019
  0
DICTIONARY
  5
10098
330
10039
100
AcDbDictionary
280
     1
281
     1
  3
ACAD_ROUNDTRIP_2008_TABLESTYLE_CELLSTYLEMAP
360
10099
  0
XRECORD
  5
10010
102
{ACAD_REACTORS
330
1000E
102
}
330
1000E
100
AcDbXrecord
280
     1
270
     1
271
     1
  0
XRECORD
  5
1000F
102
{ACAD_REACTORS
330
1000E
102
}
330
1000E
100
AcDbXrecord
280
     1
270
     1
271
     1
  0
XRECORD
  5
10013
102
{ACAD_REACTORS
330
1000E
102
}
330
1000E
100
AcDbXrecord
280
     1
270
     1
271
     1
  0
XRECORD
  5
10012
102
{ACAD_REACTORS
330
1000E
102
}
330
1000E
100
AcDbXrecord
280
     1
270
     1
271
     1
  0
XRECORD
  5
10014
102
{ACAD_REACTORS
330
1000E
102
}
330
1000E
100
AcDbXrecord
280
     1
270
     1
271
     1
  0
XRECORD
  5
10011
102
{ACAD_REACTORS
330
1000E
102
}
330
1000E
100
AcDbXrecord
280
     1
270
     1
271
     1
  0
XRECORD
  5
10008
102
{ACAD_REACTORS
330
10006
102
}
330
10006
100
AcDbXrecord
280
     1
270
     1
271
     1
  0
XRECORD
  5
10007
102
{ACAD_REACTORS
330
10006
102
}
330
10006
100
AcDbXrecord
280
     1
270
     1
271
     1
  0
XRECORD
  5
1000B
102
{ACAD_REACTORS
330
10006
102
}
330
10006
100
AcDbXrecord
280
     1
270
     1
271
     1
  0
XRECORD
  5
1000A
102
{ACAD_REACTORS
330
10006
102
}
330
10006
100
AcDbXrecord
280
     1
270
     1
271
     1
  0
XRECORD
  5
1000C
102
{ACAD_REACTORS
330
10006
102
}
330
10006
100
AcDbXrecord
280
     1
270
     1
271
     1
  0
XRECORD
  5
10009
102
{ACAD_REACTORS
330
10006
102
}
330
10006
100
AcDbXrecord
280
     1
270
     1
271
     1
  0
XRECORD
  5
10018
102
{ACAD_REACTORS
330
10016
102
}
330
10016
100
AcDbXrecord
280
     1
270
     1
271
     1
  0
XRECORD
  5
10017
102
{ACAD_REACTORS
330
10016
102
}
330
10016
100
AcDbXrecord
280
     1
270
     1
271
     1
  0
XRECORD
  5
1001B
102
{ACAD_REACTORS
330
10016
102
}
330
10016
100
AcDbXrecord
280
     1
270
     1
271
     1
  0
XRECORD
  5
1001A
102
{ACAD_REACTORS
330
10016
102
}
330
10016
100
AcDbXrecord
280
     1
270
     1
271
     1
  0
XRECORD
  5
1001C
102
{ACAD_REACTORS
330
10016
102
}
330
10016
100
AcDbXrecord
280
     1
270
     1
271
     1
  0
XRECORD
  5
10019
102
{ACAD_REACTORS
330
10016
102
}
330
10016
100
AcDbXrecord
280
     1
270
     1
271
     1
  0
CELLSTYLEMAP
  5
10099
102
{ACAD_REACTORS
330
10098
102
}
330
10098
100
AcDbCellStyleMap
 90
        3
300
CELLSTYLE
  1
TABLEFORMAT_BEGIN
 90
        5
170
     1
 91
        0
 92
    32768
 62
   257
 93
        1
300
CONTENTFORMAT
  1
CONTENTFORMAT_BEGIN
 90
        0
 91
        0
 92
      512
 93
        0
300

 40
0.0
140
1.0
 94
        5
 62
     0
340
11
144
0.25
309
CONTENTFORMAT_END
171
     0
 94
        0
309
TABLEFORMAT_END
  1
CELLSTYLE_BEGIN
 90
        1
 91
        1
300
_TITLE
309
CELLSTYLE_END
300
CELLSTYLE
  1
TABLEFORMAT_BEGIN
 90
        5
170
     1
 91
        0
 92
        0
 62
   257
 93
        1
300
CONTENTFORMAT
  1
CONTENTFORMAT_BEGIN
 90
        0
 91
        0
 92
      512
 93
        0
300

 40
0.0
140
1.0
 94
        5
 62
     0
340
11
144
0.18
309
CONTENTFORMAT_END
171
     0
 94
        0
309
TABLEFORMAT_END
  1
CELLSTYLE_BEGIN
 90
        2
 91
        1
300
_HEADER
309
CELLSTYLE_END
300
CELLSTYLE
  1
TABLEFORMAT_BEGIN
 90
        5
170
     1
 91
        0
 92
        0
 62
   257
 93
        1
300
CONTENTFORMAT
  1
CONTENTFORMAT_BEGIN
 90
        0
 91
        0
 92
      512
 93
        0
300

 40
0.0
140
1.0
 94
        2
 62
     0
340
11
144
0.18
309
CONTENTFORMAT_END
171
     0
 94
        0
309
TABLEFORMAT_END
  1
CELLSTYLE_BEGIN
 90
        3
 91
        2
300
_DATA
309
CELLSTYLE_END
  0
ENDSEC
  0
SECTION
  2
ACDSDATA
 70
     2
 71
     8
  0
ACDSSCHEMA
 90
        0
  1
AcDb_Thumbnail_Schema
  2
AcDbDs::ID
280
    10
 91
        8
  2
Thumbnail_Data
280
    15
 91
        0
101
ACDSRECORD
 95
        0
 90
        1
  2
AcDbDs::TreatedAsObjectData
280
     1
291
     1
101
ACDSRECORD
 95
        0
 90
        2
  2
AcDbDs::Legacy
280
     1
291
     1
101
ACDSRECORD
  1
AcDbDs::ID
 90
        3
  2
AcDs:Indexable
280
     1
291
     1
101
ACDSRECORD
  1
AcDbDs::ID
 90
        4
  2
AcDbDs::HandleAttribute
280
     7
282
     1
  0
ACDSSCHEMA
 90
        1
  1
AcDbDs::TreatedAsObjectDataSchema
  2
AcDbDs::TreatedAsObjectData
280
     1
 91
        0
  0
ACDSSCHEMA
 90
        2
  1
AcDbDs::LegacySchema
  2
AcDbDs::Legacy
280
     1
 91
        0
  0
ACDSSCHEMA
 90
        3
  1
AcDbDs::IndexedPropertySchema
  2
AcDs:Indexable
280
     1
 91
        0
  0
ACDSSCHEMA
 90
        4
  1
AcDbDs::HandleAttributeSchema
  2
AcDbDs::HandleAttribute
280
     7
 91
        1
284
     1
  0
ACDSRECORD
 90
        0
  2
AcDbDs::ID
280
    10
320
10055
  2
Thumbnail_Data
280
    15
 94
     1372
310
89504E470D0A1A0A0000000D49484452000001000000007508030000009634CF9200000300504C5445212830FFFFFF2128300000000000000000000000000000000000000000000000000000330000660000990000CC0000FF0033000033330033660033990033CC0033FF0066000066330066660066990066CC0066FF0099
310
000099330099660099990099CC0099FF00CC0000CC3300CC6600CC9900CCCC00CCFF00FF0000FF3300FF6600FF9900FFCC00FFFF3300003300333300663300993300CC3300FF3333003333333333663333993333CC3333FF3366003366333366663366993366CC3366FF3399003399333399663399993399CC3399FF33CC00
310
33CC3333CC6633CC9933CCCC33CCFF33FF0033FF3333FF6633FF9933FFCC33FFFF6600006600336600666600996600CC6600FF6633006633336633666633996633CC6633FF6666006666336666666666996666CC6666FF6699006699336699666699996699CC6699FF66CC0066CC3366CC6666CC9966CCCC66CCFF66FF0066
310
FF3366FF6666FF9966FFCC66FFFF9900009900339900669900999900CC9900FF9933009933339933669933999933CC9933FF9966009966339966669966999966CC9966FF9999009999339999669999999999CC9999FF99CC0099CC3399CC6699CC9999CCCC99CCFF99FF0099FF3399FF6699FF9999FFCC99FFFFCC0000CC00
310
33CC0066CC0099CC00CCCC00FFCC3300CC3333CC3366CC3399CC33CCCC33FFCC6600CC6633CC6666CC6699CC66CCCC66FFCC9900CC9933CC9966CC9999CC99CCCC99FFCCCC00CCCC33CCCC66CCCC99CCCCCCCCCCFFCCFF00CCFF33CCFF66CCFF99CCFFCCCCFFFFFF0000FF0033FF0066FF0099FF00CCFF00FFFF3300FF3333
310
FF3366FF3399FF33CCFF33FFFF6600FF6633FF6666FF6699FF66CCFF66FFFF9900FF9933FF9966FF9999FF99CCFF99FFFFCC00FFCC33FFCC66FFCC99FFCCCCFFCCFFFFFF00FFFF33FFFF66FFFF99FFFFCCFFFFFF0000000D0D0D1A1A1A2828283535354343435050505D5D5D6B6B6B787878868686939393A1A1A1AEAEAEBB
310
BBBBC9C9C9D6D6D6E4E4E4F1F1F1FFFFFF0000000000000000000000000000000000000000000000000000000000002E4550F1000002174944415478DAED9AD16EC3200C45FDFFFFEBF7496D088100B1AB55AACD3993BA6A72A4716B1B738B080000000000000000000000007C8C7A7044075A7FF787FBDB23444DC1ED3341
310
1240BE91056104787DB4830FEEBE04B50497776440C61EE86B98719AA0D697699914B1ECC1717AC0755D4F023882D30A203B0AD076405B702401A4BE0C63FA3D731DAC8B0EF1BB73C03F0A50E6855402BC533AA900961278A7B427385B13144F1394904D70DB6D9051D87CC44FE907C8EE1900E2FA5035A32968F60407EB5A
310
45C75CFF32C6B4A8BA69C61040DACC9685F5750C0DE66804882280C30E7545C711E09C6EFB5F520E812A558087F2AFCFE6C880CB46294FC79CA63E1297806DA44893010E01246E0FB04D75B60C981C8F7E5780FA3368843701249F00C6EF036B063C18E2A7831867109A6D81471DABB69EE0DC106F1DC4041920930C5846C7
310
CB80DB9E3F39F6760294A1671A1D3303160EC12003160E41140174EA8CACCFCE8FD1710C014C4100D815E74D3863CF6CC6E25F5F7F3F155C665AD136CA7C47309000DEABD2DE270208D0CD6B3A792FED99591209E0B60EDAFB1F3ABC393CA9B0240224CB00F52D3F5F0FF8A0040C91A94B209300AEFFD07EFD2B8C00E2CC00
310
EB313FD017E45F12208E25E0DB05C4570292B107184BA04C0BDBEE027ADC9ADE55807358640E40809487A1EDFD804C02781D21BF8B186A0E187A82F7DE9E46806CCB0100000000000000000000008034FC01FCDEBE24566AE7DE0000000049454E44AE426082
  0
ENDSEC
  0
EOF
