  0
SECTION
  2
HEADER
  9
$ACADVER
  1
AC1032
  9
$ACADMAINTVER
 90
      198
  9
$DWGCODEPAGE
  3
ANSI_1252
  9
$LASTSAVEDBY
  1
Mauricio
  9
$REQUIREDVERSIONS
160
                 0
  9
$INSBASE
 10
0.0
 20
0.0
 30
0.0
  9
$EXTMIN
 10
0.0710678118653618
 20
0.0710678118653219
 30
0.0
  9
$EXTMAX
 10
737.6835678118657
 20
150.0835678118653
 30
0.0
  9
$LIMMIN
 10
0.0
 20
0.0
  9
$LIMMAX
 10
12.0
 20
9.0
  9
$ORTHOMODE
 70
     0
  9
$REGENMODE
 70
     1
  9
$FILLMODE
 70
     1
  9
$QTEXTMODE
 70
     0
  9
$MIRRTEXT
 70
     0
  9
$LTSCALE
 40
1.0
  9
$ATTMODE
 70
     1
  9
$TEXTSIZE
 40
0.2
  9
$TRACEWID
 40
0.05
  9
$TEXTSTYLE
  7
STANDARD
  9
$CLAYER
  8
0
  9
$CELTYPE
  6
Continuous
  9
$CECOLOR
 62
   256
  9
$CELTSCALE
 40
1.0
  9
$DISPSILH
 70
     0
  9
$DIMSCALE
 40
1.0
  9
$DIMASZ
 40
0.18
  9
$DIMEXO
 40
0.0625
  9
$DIMDLI
 40
0.38
  9
$DIMRND
 40
0.0
  9
$DIMDLE
 40
0.0
  9
$DIMEXE
 40
0.18
  9
$DIMTP
 40
0.0
  9
$DIMTM
 40
0.0
  9
$DIMTXT
 40
0.18
  9
$DIMCEN
 40
0.09
  9
$DIMTSZ
 40
0.0
  9
$DIMTOL
 70
     0
  9
$DIMLIM
 70
     0
  9
$DIMTIH
 70
     1
  9
$DIMTOH
 70
     1
  9
$DIMSE1
 70
     0
  9
$DIMSE2
 70
     0
  9
$DIMTAD
 70
     0
  9
$DIMZIN
 70
     0
  9
$DIMBLK
  1

  9
$DIMASO
 70
     1
  9
$DIMSHO
 70
     1
  9
$DIMPOST
  1

  9
$DIMAPOST
  1

  9
$DIMALT
 70
     0
  9
$DIMALTD
 70
     2
  9
$DIMALTF
 40
25.4
  9
$DIMLFAC
 40
1.0
  9
$DIMTOFL
 70
     0
  9
$DIMTVP
 40
0.0
  9
$DIMTIX
 70
     0
  9
$DIMSOXD
 70
     0
  9
$DIMSAH
 70
     0
  9
$DIMBLK1
  1

  9
$DIMBLK2
  1

  9
$DIMSTYLE
  2
Standard
  9
$DIMCLRD
 70
     0
  9
$DIMCLRE
 70
     0
  9
$DIMCLRT
 70
     0
  9
$DIMTFAC
 40
1.0
  9
$DIMGAP
 40
0.09
  9
$DIMJUST
 70
     0
  9
$DIMSD1
 70
     0
  9
$DIMSD2
 70
     0
  9
$DIMTOLJ
 70
     1
  9
$DIMTZIN
 70
     0
  9
$DIMALTZ
 70
     0
  9
$DIMALTTZ
 70
     0
  9
$DIMUPT
 70
     0
  9
$DIMDEC
 70
     4
  9
$DIMTDEC
 70
     4
  9
$DIMALTU
 70
     2
  9
$DIMALTTD
 70
     2
  9
$DIMTXSTY
  7
STANDARD
  9
$DIMAUNIT
 70
     0
  9
$DIMADEC
 70
     0
  9
$DIMALTRND
 40
0.0
  9
$DIMAZIN
 70
     0
  9
$DIMDSEP
 70
    46
  9
$DIMATFIT
 70
     3
  9
$DIMFRAC
 70
     0
  9
$DIMLDRBLK
  1

  9
$DIMLUNIT
 70
     2
  9
$DIMLWD
 70
    -2
  9
$DIMLWE
 70
    -2
  9
$DIMTMOVE
 70
     0
  9
$DIMFXL
 40
1.0
  9
$DIMFXLON
 70
     0
  9
$DIMJOGANG
 40
0.7853981633974483
  9
$DIMTFILL
 70
     0
  9
$DIMTFILLCLR
 70
     0
  9
$DIMARCSYM
 70
     0
  9
$DIMLTYPE
  6

  9
$DIMLTEX1
  6

  9
$DIMLTEX2
  6

  9
$DIMTXTDIRECTION
 70
     0
  9
$LUNITS
 70
     2
  9
$LUPREC
 70
     4
  9
$SKETCHINC
 40
0.1
  9
$FILLETRAD
 40
0.0
  9
$AUNITS
 70
     0
  9
$AUPREC
 70
     0
  9
$MENU
  1
.
  9
$ELEVATION
 40
0.0
  9
$PELEVATION
 40
0.0
  9
$THICKNESS
 40
0.0
  9
$LIMCHECK
 70
     0
  9
$CHAMFERA
 40
0.0
  9
$CHAMFERB
 40
0.0
  9
$CHAMFERC
 40
0.0
  9
$CHAMFERD
 40
0.0
  9
$SKPOLY
 70
     0
  9
$TDCREATE
 40
2459335.046481481
  9
$TDUCREATE
 40
2459335.254814815
  9
$TDUPDATE
 40
2459335.050868056
  9
$TDUUPDATE
 40
2459335.259201389
  9
$TDINDWG
 40
0.0043865741
  9
$TDUSRTIMER
 40
0.0043865741
  9
$USRTIMER
 70
     1
  9
$ANGBASE
 50
0.0
  9
$ANGDIR
 70
     0
  9
$PDMODE
 70
     0
  9
$PDSIZE
 40
0.0
  9
$PLINEWID
 40
0.0
  9
$SPLFRAME
 70
     0
  9
$SPLINETYPE
 70
     6
  9
$SPLINESEGS
 70
     8
  9
$HANDSEED
  5
1009C
  9
$SURFTAB1
 70
     6
  9
$SURFTAB2
 70
     6
  9
$SURFTYPE
 70
     6
  9
$SURFU
 70
     6
  9
$SURFV
 70
     6
  9
$UCSBASE
  2

  9
$UCSNAME
  2

  9
$UCSORG
 10
0.0
 20
0.0
 30
0.0
  9
$UCSXDIR
 10
1.0
 20
0.0
 30
0.0
  9
$UCSYDIR
 10
0.0
 20
1.0
 30
0.0
  9
$UCSORTHOREF
  2

  9
$UCSORTHOVIEW
 70
     0
  9
$UCSORGTOP
 10
0.0
 20
0.0
 30
0.0
  9
$UCSORGBOTTOM
 10
0.0
 20
0.0
 30
0.0
  9
$UCSORGLEFT
 10
0.0
 20
0.0
 30
0.0
  9
$UCSORGRIGHT
 10
0.0
 20
0.0
 30
0.0
  9
$UCSORGFRONT
 10
0.0
 20
0.0
 30
0.0
  9
$UCSORGBACK
 10
0.0
 20
0.0
 30
0.0
  9
$PUCSBASE
  2

  9
$PUCSNAME
  2

  9
$PUCSORG
 10
0.0
 20
0.0
 30
0.0
  9
$PUCSXDIR
 10
1.0
 20
0.0
 30
0.0
  9
$PUCSYDIR
 10
0.0
 20
1.0
 30
0.0
  9
$PUCSORTHOREF
  2

  9
$PUCSORTHOVIEW
 70
     0
  9
$PUCSORGTOP
 10
0.0
 20
0.0
 30
0.0
  9
$PUCSORGBOTTOM
 10
0.0
 20
0.0
 30
0.0
  9
$PUCSORGLEFT
 10
0.0
 20
0.0
 30
0.0
  9
$PUCSORGRIGHT
 10
0.0
 20
0.0
 30
0.0
  9
$PUCSORGFRONT
 10
0.0
 20
0.0
 30
0.0
  9
$PUCSORGBACK
 10
0.0
 20
0.0
 30
0.0
  9
$USERI1
 70
     0
  9
$USERI2
 70
     0
  9
$USERI3
 70
     0
  9
$USERI4
 70
     0
  9
$USERI5
 70
     0
  9
$USERR1
 40
0.0
  9
$USERR2
 40
0.0
  9
$USERR3
 40
0.0
  9
$USERR4
 40
0.0
  9
$USERR5
 40
0.0
  9
$WORLDVIEW
 70
     1
  9
$SHADEDGE
 70
     3
  9
$SHADEDIF
 70
    70
  9
$TILEMODE
 70
     1
  9
$MAXACTVP
 70
    64
  9
$PINSBASE
 10
0.0
 20
0.0
 30
0.0
  9
$PLIMCHECK
 70
     0
  9
$PEXTMIN
 10
1.000000000000000E+20
 20
1.000000000000000E+20
 30
1.000000000000000E+20
  9
$PEXTMAX
 10
-1.000000000000000E+20
 20
-1.000000000000000E+20
 30
-1.000000000000000E+20
  9
$PLIMMIN
 10
0.0
 20
0.0
  9
$PLIMMAX
 10
12.0
 20
9.0
  9
$UNITMODE
 70
     0
  9
$VISRETAIN
 70
     1
  9
$PLINEGEN
 70
     0
  9
$PSLTSCALE
 70
     1
  9
$TREEDEPTH
 70
  3020
  9
$CMLSTYLE
  2
Standard
  9
$CMLJUST
 70
     0
  9
$CMLSCALE
 40
1.0
  9
$PROXYGRAPHICS
 70
     1
  9
$MEASUREMENT
 70
     0
  9
$CELWEIGHT
370
    -1
  9
$ENDCAPS
280
     0
  9
$JOINSTYLE
280
     0
  9
$LWDISPLAY
290
     0
  9
$INSUNITS
 70
     4
  9
$HYPERLINKBASE
  1

  9
$STYLESHEET
  1

  9
$XEDIT
290
     1
  9
$CEPSNTYPE
380
     0
  9
$PSTYLEMODE
290
     1
  9
$FINGERPRINTGUID
  2
{4883E874-3C52-9748-A5AE-47EA75EFE623}
  9
$VERSIONGUID
  2
{738FF43D-E2A4-7949-8C2D-D30188050087}
  9
$EXTNAMES
290
     1
  9
$PSVPSCALE
 40
0.0
  9
$OLESTARTUP
290
     0
  9
$SORTENTS
280
   127
  9
$INDEXCTL
280
     0
  9
$HIDETEXT
280
     0
  9
$XCLIPFRAME
280
     2
  9
$HALOGAP
280
     0
  9
$OBSCOLOR
 70
   257
  9
$OBSLTYPE
280
     0
  9
$INTERSECTIONDISPLAY
280
     0
  9
$INTERSECTIONCOLOR
 70
   257
  9
$DIMASSOC
280
     1
  9
$PROJECTNAME
  1

  9
$CAMERADISPLAY
290
     0
  9
$LENSLENGTH
 40
50.0
  9
$CAMERAHEIGHT
 40
0.0
  9
$STEPSPERSEC
 40
2.0
  9
$STEPSIZE
 40
6.0
  9
$3DDWFPREC
 40
2.0
  9
$PSOLWIDTH
 40
0.25
  9
$PSOLHEIGHT
 40
4.0
  9
$LOFTANG1
 40
1.570796326794896
  9
$LOFTANG2
 40
1.570796326794896
  9
$LOFTMAG1
 40
0.0
  9
$LOFTMAG2
 40
0.0
  9
$LOFTPARAM
 70
     7
  9
$LOFTNORMALS
280
     1
  9
$LATITUDE
 40
37.795
  9
$LONGITUDE
 40
-122.394
  9
$NORTHDIRECTION
 40
0.0
  9
$TIMEZONE
 70
 -8000
  9
$LIGHTGLYPHDISPLAY
280
     1
  9
$TILEMODELIGHTSYNCH
280
     1
  9
$CMATERIAL
347
10005
  9
$SOLIDHIST
280
     0
  9
$SHOWHIST
280
     1
  9
$DWFFRAME
280
     2
  9
$DGNFRAME
280
     0
  9
$REALWORLDSCALE
290
     1
  9
$INTERFERECOLOR
 62
     1
  9
$INTERFEREOBJVS
345
10027
  9
$INTERFEREVPVS
346
10024
  9
$CSHADOW
280
     0
  9
$SHADOWPLANELOCATION
 40
0.0
  0
ENDSEC
  0
SECTION
  2
CLASSES
  0
CLASS
  1
ACDBDICTIONARYWDFLT
  2
AcDbDictionaryWithDefault
  3
ObjectDBX Classes
 90
        0
 91
        1
280
     0
281
     0
  0
CLASS
  1
MATERIAL
  2
AcDbMaterial
  3
ObjectDBX Classes
 90
     1153
 91
        3
280
     0
281
     0
  0
CLASS
  1
VISUALSTYLE
  2
AcDbVisualStyle
  3
ObjectDBX Classes
 90
     4095
 91
       24
280
     0
281
     0
  0
CLASS
  1
TABLESTYLE
  2
AcDbTableStyle
  3
ObjectDBX Classes
 90
     4095
 91
        1
280
     0
281
     0
  0
CLASS
  1
SCALE
  2
AcDbScale
  3
ObjectDBX Classes
 90
     1153
 91
       17
280
     0
281
     0
  0
CLASS
  1
MLEADERSTYLE
  2
AcDbMLeaderStyle
  3
ACDB_MLEADERSTYLE_CLASS
 90
     4095
 91
        1
280
     0
281
     0
  0
CLASS
  1
ACDBSECTIONVIEWSTYLE
  2
AcDbSectionViewStyle
  3
ObjectDBX Classes
 90
     1025
 91
        1
280
     0
281
     0
  0
CLASS
  1
ACDBDETAILVIEWSTYLE
  2
AcDbDetailViewStyle
  3
ObjectDBX Classes
 90
     1025
 91
        1
280
     0
281
     0
  0
CLASS
  1
SORTENTSTABLE
  2
AcDbSortentsTable
  3
ObjectDBX Classes
 90
        0
 91
        1
280
     0
281
     0
  0
CLASS
  1
DICTIONARYVAR
  2
AcDbDictionaryVar
  3
ObjectDBX Classes
 90
        0
 91
       18
280
     0
281
     0
  0
CLASS
  1
CELLSTYLEMAP
  2
AcDbCellStyleMap
  3
ObjectDBX Classes
 90
     1152
 91
        2
280
     0
281
     0
  0
ENDSEC
  0
SECTION
  2
TABLES
  0
TABLE
  2
VPORT
  5
8
330
0
100
AcDbSymbolTable
 70
     1
  0
VPORT
  5
10059
330
8
100
AcDbSymbolTableRecord
100
AcDbViewportTableRecord
  2
*Active
 70
     0
 10
0.0
 20
0.0
 11
1.0
 21
1.0
 12
334.0778371058202
 22
148.8469052189666
 13
0.0
 23
0.0
 14
1.0
 24
1.0
 15
0.0
 25
0.0
 16
0.0
 26
0.0
 36
1.0
 17
0.0
 27
0.0
 37
0.0
 40
622.153163290023
 41
2.183162684869169
 42
50.0
 43
0.0
 44
0.0
 50
0.0
 51
0.0
 71
     0
 72
  1000
 73
     1
 74
     3
 75
     1
 76
     1
 77
     0
 78
     0
281
     0
 65
     1
110
0.0
120
0.0
130
0.0
111
1.0
121
0.0
131
0.0
112
0.0
122
1.0
132
0.0
 79
     0
146
0.0
348
10023
 60
     3
 61
     5
292
     1
282
     1
141
0.0
142
0.0
 63
   250
421
  3355443
1001
ACAD_NAV_VCDISPLAY
1070
     1
  0
ENDTAB
  0
TABLE
  2
LTYPE
  5
5
330
0
100
AcDbSymbolTable
 70
     1
  0
LTYPE
  5
14
330
5
100
AcDbSymbolTableRecord
100
AcDbLinetypeTableRecord
  2
BYBLOCK
 70
     0
  3

 72
    65
 73
     0
 40
0.0
  0
LTYPE
  5
15
330
5
100
AcDbSymbolTableRecord
100
AcDbLinetypeTableRecord
  2
BYLAYER
 70
     0
  3

 72
    65
 73
     0
 40
0.0
  0
LTYPE
  5
10001
330
5
100
AcDbSymbolTableRecord
100
AcDbLinetypeTableRecord
  2
Continuous
 70
     0
  3
Solid line
 72
    65
 73
     0
 40
0.0
  0
ENDTAB
  0
TABLE
  2
LAYER
  5
2
330
0
100
AcDbSymbolTable
 70
     1
  0
LAYER
  5
50
102
{ACAD_XDICTIONARY
360
1008D
102
}
330
2
100
AcDbSymbolTableRecord
100
AcDbLayerTableRecord
  2
0
 70
     0
 62
     7
  6
Continuous
370
    -3
390
10003
347
10015
348
0
  0
ENDTAB
  0
TABLE
  2
STYLE
  5
3
330
0
100
AcDbSymbolTable
 70
     1
  0
STYLE
  5
11
330
3
100
AcDbSymbolTableRecord
100
AcDbTextStyleTableRecord
  2
STANDARD
 70
     0
 40
0.0
 41
1.0
 50
0.0
 71
     0
 42
0.2
  3

  4

  0
ENDTAB
  0
TABLE
  2
VIEW
  5
6
330
0
100
AcDbSymbolTable
 70
     0
  0
ENDTAB
  0
TABLE
  2
UCS
  5
7
330
0
100
AcDbSymbolTable
 70
     0
  0
ENDTAB
  0
TABLE
  2
APPID
  5
9
330
0
100
AcDbSymbolTable
 70
     2
  0
APPID
  5
12
330
9
100
AcDbSymbolTableRecord
100
AcDbRegAppTableRecord
  2
ACAD
 70
     0
  0
APPID
  5
10058
330
9
100
AcDbSymbolTableRecord
100
AcDbRegAppTableRecord
  2
ACAD_NAV_VCDISPLAY
 70
     0
  0
ENDTAB
  0
TABLE
  2
DIMSTYLE
  5
A
330
0
100
AcDbSymbolTable
 70
     1
100
AcDbDimStyleTable
 71
     0
  0
DIMSTYLE
105
10053
330
A
100
AcDbSymbolTableRecord
100
AcDbDimStyleTableRecord
  2
Standard
 70
     0
340
11
  0
ENDTAB
  0
TABLE
  2
BLOCK_RECORD
  5
1
330
0
100
AcDbSymbolTable
 70
     0
  0
BLOCK_RECORD
  5
1F
330
1
100
AcDbSymbolTableRecord
100
AcDbBlockTableRecord
  2
*MODEL_SPACE
340
10055
 70
     0
280
     1
281
     0
  0
BLOCK_RECORD
  5
1B
330
1
100
AcDbSymbolTableRecord
100
AcDbBlockTableRecord
  2
*PAPER_SPACE
340
10056
 70
     0
280
     1
281
     0
  0
ENDTAB
  0
ENDSEC
  0
SECTION
  2
BLOCKS
  0
BLOCK
  5
20
330
1F
100
AcDbEntity
  8
0
100
AcDbBlockBegin
  2
*MODEL_SPACE
 70
     0
 10
0.0
 20
0.0
 30
0.0
  3
*MODEL_SPACE
  1

  0
ENDBLK
  5
21
330
1F
100
AcDbEntity
  8
0
100
AcDbBlockEnd
  0
BLOCK
  5
1C
330
1B
100
AcDbEntity
 67
     1
  8
0
100
AcDbBlockBegin
  2
*PAPER_SPACE
 70
     0
 10
0.0
 20
0.0
 30
0.0
  3
*PAPER_SPACE
  1

  0
ENDBLK
  5
1D
330
1B
100
AcDbEntity
 67
     1
  8
0
100
AcDbBlockEnd
  0
ENDSEC
  0
SECTION
  2
ENTITIES
  0
LWPOLYLINE
  5
100
330
1F
100
AcDbEntity
  8
0
100
AcDbPolyline
 90
        8
 70
     1
 43
0.0
 10
316.583534242566
 20
19.07108611153773
 10
316.583534242566
 20
31.07108613333773
 42
0.4142135559880809
 10
315.5835342425659
 20
32.07108611153767
 10
303.5835952777658
 20
32.07108611153772
 42
0.4142135623731094
 10
302.5835952777659
 20
31.07108611153773
 10
302.5835952777659
 20
19.07108613333771
 42
0.414213568758149
 10
303.5835952777658
 20
18.07108611153779
 10
315.5835342425659
 20
18.07108611153766
 42
0.4142135623730072
  0
LWPOLYLINE
  5
101
330
1F
100
AcDbEntity
  8
0
100
AcDbPolyline
 90
        8
 70
     1
 43
0.0
 10
183.5210647601658
 20
95.27106782283768
 42
0.4142135687875481
 10
184.5210647601658
 20
94.2710678009376
 10
196.5210647601659
 20
94.27106780093767
 42
0.4142135623730482
 10
197.5210647601657
 20
95.27106780093772
 10
197.5210647601657
 20
107.2710678228377
 42
0.4142135559587097
 10
196.5210647601657
 20
108.2710678009377
 10
184.5210647601658
 20
108.2710678009384
 42
0.4142135623730379
 10
183.5210647601652
 20
107.2710678009377
  0
LWPOLYLINE
  5
102
330
1F
100
AcDbEntity
  8
0
100
AcDbPolyline
 90
        8
 70
     1
 43
0.0
 10
335.6335830706657
 20
107.2710678228377
 42
0.4142135559586057
 10
334.6335830706661
 20
108.2710678009376
 10
322.6335830706661
 20
108.2710678009377
 42
0.4142135623731888
 10
321.6335830706661
 20
107.2710678009377
 10
321.6335830706661
 20
95.27106782283768
 42
0.4142135687875169
 10
322.6335830706661
 20
94.27106780093778
 10
334.6335830706661
 20
94.27106780093764
 42
0.4142135623730118
 10
335.6335830706661
 20
95.27106780093772
  0
LWPOLYLINE
  5
103
330
1F
100
AcDbEntity
  8
0
100
AcDbPolyline
 90
        8
 70
     1
 43
0.0
 10
315.5835342425659
 20
94.27106780093764
 42
0.4142135623730118
 10
316.583534242566
 20
95.27106780093772
 10
316.583534242566
 20
107.2710678228377
 42
0.4142135559587774
 10
315.5835342425659
 20
108.2710678009376
 10
303.5835952777658
 20
108.2710678009378
 42
0.414213562373017
 10
302.5835952777658
 20
107.2710678009377
 10
302.5835952777655
 20
95.27106782279274
 42
0.4142135687742601
 10
303.5835952777658
 20
94.27106780093749
  0
LWPOLYLINE
  5
104
330
1F
100
AcDbEntity
  8
0
100
AcDbPolyline
 90
        8
 70
     1
 43
0.0
 10
154.9460830706666
 20
76.22108002989446
 42
0.4142135687747491
 10
155.9460830706658
 20
75.22108000803847
 10
167.9460830706658
 20
75.22108000803666
 42
0.4142135623730508
 10
168.9460830706669
 20
76.22108000803766
 10
168.9460830706667
 20
88.22108002989272
 42
0.4142135559719041
 10
167.9460830706658
 20
89.22108000803865
 10
155.9460830706658
 20
89.22108000803691
 42
0.4142135623731262
 10
154.9460830706666
 20
88.22108000803771
  0
LWPOLYLINE
  5
105
330
1F
100
AcDbEntity
  8
0
100
AcDbPolyline
 90
        4
 70
     1
 43
0.0
 10
304.483595277766
 20
111.2773178009376
 10
352.7835708636658
 20
111.2773178009377
 42
1.0
 10
352.7835708636658
 20
115.0773178009377
 10
304.483595277766
 20
115.0773178009379
 42
1.0
  0
LWPOLYLINE
  5
106
330
1F
100
AcDbEntity
  8
0
100
AcDbPolyline
 90
        8
 70
     1
 43
0.0
 10
194.0460586566659
 20
75.22108000803766
 10
206.0460586566656
 20
75.22108000803742
 42
0.4142135623731029
 10
207.0460586566659
 20
76.22108000803766
 10
207.0460586566659
 20
88.22108002989267
 42
0.4142135559719144
 10
206.0460586566659
 20
89.22108000803765
 10
194.0460586566659
 20
89.2210800080377
 42
0.4142135623731315
 10
193.0460586566659
 20
88.22108000803771
 10
193.0460586566659
 20
76.2210800298927
 42
0.4142135687742471
  0
LWPOLYLINE
  5
107
330
1F
100
AcDbEntity
  8
0
100
AcDbPolyline
 90
        8
 70
     1
 43
0.0
 10
341.683570863666
 20
108.2710678009376
 42
0.4142135623731368
 10
340.6835708636659
 20
107.2710678009377
 10
340.6835708636659
 20
95.27106782283768
 42
0.4142135687873972
 10
341.683570863666
 20
94.27106780093778
 10
353.6835708636659
 20
94.27106780093767
 42
0.4142135623731315
 10
354.6835708636661
 20
95.27106780093772
 10
354.6835708636657
 20
107.2710678228377
 42
0.414213555958772
 10
353.6835708636659
 20
108.2710678009376
  0
LWPOLYLINE
  5
108
330
1F
100
AcDbEntity
  8
0
100
AcDbPolyline
 90
        4
 70
     1
 43
0.0
 10
13.97106781186591
 20
115.0773178009378
 42
1.0
 10
13.97106781186591
 20
111.2773178009376
 10
24.17106781186567
 20
111.2773178009377
 42
1.0
 10
24.17106781186567
 20
115.0773178009377
  0
LWPOLYLINE
  5
109
330
1F
100
AcDbEntity
  8
0
100
AcDbPolyline
 90
        8
 70
     1
 43
0.0
 10
179.7585830706657
 20
70.17106169743775
 42
0.4142135623731003
 10
178.7585830706657
 20
69.17106169743771
 10
178.7585830706658
 20
57.17106171933768
 42
0.4142135687874363
 10
179.7585830706657
 20
56.17106169743776
 10
191.7585830706658
 20
56.17106169743798
 42
0.4142135623730744
 10
192.7585830706655
 20
57.17106169743771
 10
192.7585830706659
 20
69.17106171929447
 42
0.4142135559714254
 10
191.7585830706658
 20
70.17106169743801
  0
LWPOLYLINE
  5
110
330
1F
100
AcDbEntity
  8
0
100
AcDbPolyline
 90
        8
 70
     1
 43
0.0
 10
315.5835342425659
 20
89.22108000803765
 10
303.5835952777658
 20
89.22108000803847
 42
0.4142135623730431
 10
302.5835952777652
 20
88.22108000803771
 10
302.5835952777659
 20
76.22108002983772
 42
0.4142135687581132
 10
303.5835952777658
 20
75.22108000803775
 10
315.5835342425659
 20
75.2210800080376
 42
0.4142135623730118
 10
316.583534242566
 20
76.2210800080377
 10
316.583534242566
 20
88.22108002983773
 42
0.4142135559880848
  0
LWPOLYLINE
  5
111
330
1F
100
AcDbEntity
  8
0
100
AcDbPolyline
 90
        8
 70
     1
 43
0.0
 10
210.8085708636659
 20
56.17106169743768
 42
0.4142135623731003
 10
211.8085708636658
 20
57.17106169743771
 10
211.8085708636658
 20
69.17106171929273
 42
0.4142135559719404
 10
210.8085708636659
 20
70.17106169743765
 10
198.8085708636657
 20
70.17106169743796
 42
0.4142135623731003
 10
197.8085708636655
 20
69.17106169743771
 10
197.8085708636655
 20
57.17106171929272
 42
0.4142135687742498
 10
198.8085708636657
 20
56.1710616974372
  0
LWPOLYLINE
  5
112
330
1F
100
AcDbEntity
  8
0
100
AcDbPolyline
 90
        8
 70
     1
 43
0.0
 10
221.6210708636658
 20
107.2710678009377
 10
221.6210708636651
 20
95.27106782279274
 42
0.4142135687742809
 10
222.6210708636659
 20
94.27106780093692
 10
234.6210708636659
 20
94.27106780093749
 42
0.4142135623731003
 10
235.6210708636661
 20
95.27106780093772
 10
235.6210708636661
 20
107.2710678228377
 42
0.4142135559587097
 10
234.6210708636659
 20
108.2710678009377
 10
222.6210708636659
 20
108.2710678009377
 42
0.4142135623731003
  0
LWPOLYLINE
  5
113
330
1F
100
AcDbEntity
  8
0
100
AcDbPolyline
 90
        8
 70
     1
 43
0.0
 10
158.4210586566656
 20
108.2710678009377
 10
146.4210586566658
 20
108.2710678009377
 42
0.4142135623731315
 10
145.4210586566659
 20
107.2710678009377
 10
145.4210586566656
 20
95.27106782279274
 42
0.4142135687742394
 10
146.4210586566658
 20
94.27106780093749
 10
158.4210586566656
 20
94.27106780093749
 42
0.4142135623730951
 10
159.421058656666
 20
95.27106780093772
 10
159.4210586566656
 20
107.2710678228377
 42
0.4142135559586992
  0
LWPOLYLINE
  5
114
330
1F
100
AcDbEntity
  8
0
100
AcDbPolyline
 90
        8
 70
     1
 43
0.0
 10
241.6710586566659
 20
94.27106780093767
 10
253.6710586566658
 20
94.27106780093723
 42
0.414213562373069
 10
254.6710586566663
 20
95.27106780093772
 10
254.6710586566659
 20
107.2710678228377
 42
0.4142135559586836
 10
253.6710586566658
 20
108.2710678009377
 10
241.671058656666
 20
108.2710678009376
 42
0.4142135623731055
 10
240.671058656666
 20
107.2710678009377
 10
240.6710586566658
 20
95.27106782283768
 42
0.4142135687873972
  0
LWPOLYLINE
  5
115
330
1F
100
AcDbEntity
  8
0
100
AcDbPolyline
 90
        8
 70
     1
 43
0.0
 10
341.683570863666
 20
89.22108000803763
 42
0.4142135623731368
 10
340.6835708636659
 20
88.22108000803771
 10
340.6835708636659
 20
76.22108002983772
 42
0.4142135687581157
 10
341.683570863666
 20
75.22108000803775
 10
353.6835708636659
 20
75.22108000803779
 42
0.4142135623730508
 10
354.6835708636657
 20
76.2210800080377
 10
354.6835708636661
 20
88.22108002989272
 42
0.4142135559720237
 10
353.6835708636659
 20
89.22108000803779
  0
LWPOLYLINE
  5
116
330
1F
100
AcDbEntity
  8
0
100
AcDbPolyline
 90
        8
 70
     1
 43
0.0
 10
321.6335830706661
 20
88.22108000803771
 10
321.633583070666
 20
76.22108002983772
 42
0.414213568758238
 10
322.6335830706661
 20
75.22108000803775
 10
334.6335830706661
 20
75.22108000803775
 42
0.4142135623731393
 10
335.6335830706657
 20
76.2210800080377
 10
335.6335830706659
 20
88.22108002983773
 42
0.4142135559879547
 10
334.6335830706661
 20
89.22108000803765
 10
322.6335830706661
 20
89.22108000803765
 42
0.4142135623731888
  0
LWPOLYLINE
  5
117
330
1F
100
AcDbEntity
  8
0
100
AcDbPolyline
 90
        8
 70
     1
 43
0.0
 10
203.5710830706658
 20
108.2710678009377
 42
0.4142135623731315
 10
202.5710830706657
 20
107.2710678009377
 10
202.5710830706653
 20
95.27106782279274
 42
0.4142135687742706
 10
203.5710830706658
 20
94.271067800937
 10
215.5710830706656
 20
94.27106780093767
 42
0.4142135623731055
 10
216.5710830706657
 20
95.27106780093772
 10
216.5710830706658
 20
107.2710678228377
 42
0.4142135559586836
 10
215.5710830706657
 20
108.2710678009377
  0
LWPOLYLINE
  5
118
330
1F
100
AcDbEntity
  8
0
100
AcDbPolyline
 90
        8
 70
     1
 43
0.0
 10
148.8960647601658
 20
75.22108000803665
 42
0.4142135623731368
 10
149.8960647601668
 20
76.22108000803766
 10
149.8960647601666
 20
88.22108002989272
 42
0.4142135559718728
 10
148.8960647601658
 20
89.22108000803858
 10
136.8960647601658
 20
89.22108000803774
 42
0.4142135623731003
 10
135.8960647601658
 20
88.22108000803771
 10
135.8960647601658
 20
76.22108002983769
 42
0.4142135687581782
 10
136.8960647601658
 20
75.22108000803766
  0
LWPOLYLINE
  5
119
330
1F
100
AcDbEntity
  8
0
100
AcDbPolyline
 90
        8
 70
     1
 43
0.0
 10
213.0960769671659
 20
89.22108000803742
 42
0.414213562373069
 10
212.0960769671663
 20
88.22108000803771
 10
212.0960769671659
 20
76.2210800298927
 42
0.4142135687742471
 10
213.0960769671659
 20
75.22108000803766
 10
225.0960769671659
 20
75.22108000803766
 42
0.4142135623730144
 10
226.0960769671658
 20
76.2210800080377
 10
226.0960769671658
 20
88.22108002983771
 42
0.4142135559880224
 10
225.0960769671658
 20
89.2210800080377
  0
LWPOLYLINE
  5
120
330
1F
100
AcDbEntity
  8
0
100
AcDbPolyline
 90
        8
 70
     1
 43
0.0
 10
244.1460647601657
 20
89.22108000803779
 10
232.1460647601657
 20
89.22108000803765
 42
0.4142135623730431
 10
231.1460647601657
 20
88.22108000803771
 10
231.1460647601657
 20
76.22108002989271
 42
0.4142135687743617
 10
232.1460647601657
 20
75.2210800080377
 10
244.1460647601657
 20
75.22108000803775
 42
0.414213562373121
 10
245.1460647601657
 20
76.2210800080377
 10
245.1460647601657
 20
88.22108002983771
 42
0.4142135559880068
  0
LWPOLYLINE
  5
121
330
1F
100
AcDbEntity
  8
0
100
AcDbPolyline
 90
        8
 70
     1
 43
0.0
 10
251.1960830706657
 20
89.22108000803749
 42
0.4142135623730744
 10
250.196083070666
 20
88.22108000803771
 10
250.1960830706656
 20
76.22108002989271
 42
0.4142135687743148
 10
251.1960830706657
 20
75.2210800080376
 10
263.1960830706658
 20
75.22108000803823
 42
0.4142135623730431
 10
264.1960830706651
 20
76.2210800080377
 10
264.1960830706659
 20
88.22108002983773
 42
0.4142135559880068
 10
263.1960830706657
 20
89.22108000803774
  0
LWPOLYLINE
  5
122
330
1F
100
AcDbEntity
  8
0
100
AcDbPolyline
 90
        8
 70
     1
 43
0.0
 10
172.7085647601658
 20
70.17106169743772
 10
160.7085647601658
 20
70.17106169743761
 42
0.4142135623730612
 10
159.7085647601659
 20
69.17106169743771
 10
159.7085647601659
 20
57.17106171933768
 42
0.414213568787444
 10
160.7085647601658
 20
56.17106169743776
 10
172.7085647601658
 20
56.17106169743764
 42
0.4142135623730508
 10
173.7085647601658
 20
57.17106169743771
 10
173.7085647601658
 20
69.17106171929447
 42
0.4142135559714227
  0
LWPOLYLINE
  5
123
330
1F
100
AcDbEntity
  8
0
100
AcDbPolyline
 90
        8
 70
     1
 43
0.0
 10
272.7337417620658
 20
118.0835678009377
 42
0.4142135623731055
 10
273.7337417620657
 20
119.0835678009377
 10
273.7337417620657
 20
131.0835678228378
 42
0.4142135559587356
 10
272.7337417620658
 20
132.0835678009377
 10
260.733741762066
 20
132.0835678009377
 42
0.4142135623731055
 10
259.7337417620658
 20
131.0835678009377
 10
259.7337417620657
 20
119.0835678227927
 42
0.4142135687742549
 10
260.7337417620659
 20
118.0835678009376
  0
LWPOLYLINE
  5
124
330
1F
100
AcDbEntity
  8
0
100
AcDbPolyline
 90
        8
 70
     1
 43
0.0
 10
136.8960647601657
 20
132.0835678009376
 42
0.4142135623731055
 10
135.896064760166
 20
131.0835678009377
 10
135.8960647601658
 20
119.0835678228377
 42
0.4142135687875585
 10
136.8960647601658
 20
118.0835678009377
 10
148.8960647601659
 20
118.0835678009377
 42
0.4142135623730222
 10
149.8960647601658
 20
119.0835678009377
 10
149.8960647601658
 20
131.0835678228378
 42
0.4142135559588085
 10
148.8960647601658
 20
132.0835678009377
  0
LWPOLYLINE
  5
125
330
1F
100
AcDbEntity
  8
0
100
AcDbPolyline
 90
        8
 70
     1
 43
0.0
 10
217.8585586566658
 20
56.17106169743776
 10
229.8585586566659
 20
56.17106169743728
 42
0.4142135623730925
 10
230.8585586566664
 20
57.17106169743771
 10
230.8585586566661
 20
69.17106171929447
 42
0.4142135559714254
 10
229.8585586566659
 20
70.17106169743802
 10
217.8585586566658
 20
70.17106169743775
 42
0.4142135623731003
 10
216.8585586566658
 20
69.17106169743771
 10
216.8585586566659
 20
57.17106171933768
 42
0.4142135687874363
  0
LWPOLYLINE
  5
126
330
1F
100
AcDbEntity
  8
0
100
AcDbPolyline
 90
        8
 70
     1
 43
0.0
 10
141.6585769671659
 20
56.17106169743797
 10
153.6585769671659
 20
56.17106169743764
 42
0.4142135623730508
 10
154.6585769671658
 20
57.17106169743771
 10
154.6585769671659
 20
69.1710617193377
 42
0.4142135559587851
 10
153.6585769671659
 20
70.17106169743772
 10
141.6585769671658
 20
70.1710616974374
 42
0.4142135623731262
 10
140.6585769671661
 20
69.17106169743771
 10
140.6585769671661
 20
57.17106171929445
 42
0.4142135687748714
  0
LWPOLYLINE
  5
127
330
1F
100
AcDbEntity
  8
0
100
AcDbPolyline
 90
        8
 70
     1
 43
0.0
 10
241.6710586566659
 20
132.0835678009377
 42
0.4142135623731003
 10
240.6710586566658
 20
131.0835678009377
 10
240.6710586566658
 20
119.0835678228377
 42
0.4142135687875065
 10
241.6710586566659
 20
118.0835678009377
 10
253.6710586566658
 20
118.0835678009368
 42
0.414213562373121
 10
254.6710586566665
 20
119.0835678009377
 10
254.6710586566659
 20
131.0835678228378
 42
0.4142135559587305
 10
253.6710586566658
 20
132.0835678009377
  0
LWPOLYLINE
  5
128
330
1F
100
AcDbEntity
  8
0
100
AcDbPolyline
 90
        8
 70
     1
 43
0.0
 10
335.6335830706661
 20
38.12107390443772
 10
335.6335830706661
 20
50.12107392629276
 42
0.4142135559719092
 10
334.6335830706661
 20
51.12107390443823
 10
322.6335830706661
 20
51.1210739044368
 42
0.4142135623731368
 10
321.6335830706666
 20
50.12107390443771
 10
321.6335830706648
 20
38.12107392629273
 42
0.4142135687744084
 10
322.6335830706661
 20
37.12107390443678
 10
334.6335830706661
 20
37.12107390443744
 42
0.4142135623729832
  0
LWPOLYLINE
  5
129
330
1F
100
AcDbEntity
  8
0
100
AcDbPolyline
 90
        8
 70
     1
 43
0.0
 10
234.6210708636659
 20
132.0835678009377
 10
222.6210708636661
 20
132.0835678009384
 42
0.4142135623730639
 10
221.6210708636651
 20
131.0835678009377
 10
221.6210708636648
 20
119.0835678227927
 42
0.4142135687742706
 10
222.6210708636659
 20
118.0835678009367
 10
234.6210708636659
 20
118.0835678009375
 42
0.4142135623731159
 10
235.6210708636661
 20
119.0835678009377
 10
235.6210708636659
 20
131.0835678227944
 42
0.4142135559714201
  0
LWPOLYLINE
  5
130
330
1F
100
AcDbEntity
  8
0
100
AcDbPolyline
 90
        8
 70
     1
 43
0.0
 10
340.6835708636659
 20
131.0835678009377
 10
340.6835708636659
 20
119.0835678228377
 42
0.4142135687873972
 10
341.683570863666
 20
118.0835678009378
 10
353.6835708636659
 20
118.083567800938
 42
0.4142135623730793
 10
354.6835708636657
 20
119.0835678009377
 10
354.6835708636661
 20
131.0835678227927
 42
0.4142135559720237
 10
353.6835708636659
 20
132.0835678009378
 10
341.683570863666
 20
132.0835678009375
 42
0.4142135623731835
  0
LWPOLYLINE
  5
131
330
1F
100
AcDbEntity
  8
0
100
AcDbPolyline
 90
        8
 70
     1
 43
0.0
 10
354.6835708636657
 20
31.07108613333773
 42
0.4142135559880822
 10
353.6835708636659
 20
32.07108611153769
 10
341.683570863666
 20
32.07108611153832
 42
0.414213562373203
 10
340.6835708636652
 20
31.07108611153773
 10
340.6835708636659
 20
19.07108613333773
 42
0.4142135687581132
 10
341.683570863666
 20
18.07108611153779
 10
353.6835708636659
 20
18.07108611153798
 42
0.4142135623730789
 10
354.6835708636657
 20
19.07108611153773
  0
LWPOLYLINE
  5
132
330
1F
100
AcDbEntity
  8
0
100
AcDbPolyline
 90
        8
 70
     1
 43
0.0
 10
220.3335647601657
 20
51.12107390443765
 10
208.3335647601657
 20
51.12107390443768
 42
0.4142135623731237
 10
207.3335647601657
 20
50.12107390443771
 10
207.3335647601652
 20
38.12107392629273
 42
0.414213568774238
 10
208.3335647601657
 20
37.121073904437
 10
220.3335647601657
 20
37.12107390443764
 42
0.4142135623730508
 10
221.3335647601657
 20
38.12107390443772
 10
221.3335647601657
 20
50.12107392633772
 42
0.414213555958694
  0
LWPOLYLINE
  5
133
330
1F
100
AcDbEntity
  8
0
100
AcDbPolyline
 90
        8
 70
     1
 43
0.0
 10
83.50858307066586
 20
57.17106171933768
 42
0.4142135687875403
 10
84.50858307066585
 20
56.17106169743761
 10
96.50858307066563
 20
56.171061697438
 42
0.4142135623731029
 10
97.50858307066545
 20
57.17106169743769
 10
97.50858307066563
 20
69.17106171929273
 42
0.4142135559719117
 10
96.50858307066563
 20
70.17106169743749
 10
84.50858307066585
 20
70.17106169743748
 42
0.4142135623730431
 10
83.50858307066614
 20
69.17106169743771
  0
LWPOLYLINE
  5
134
330
1F
100
AcDbEntity
  8
0
100
AcDbPolyline
 90
        8
 70
     1
 43
0.0
 10
335.6335830706661
 20
119.0835678009377
 10
335.6335830706657
 20
131.0835678228378
 42
0.4142135559585953
 10
334.6335830706661
 20
132.0835678009377
 10
322.6335830706661
 20
132.0835678009377
 42
0.4142135623731835
 10
321.6335830706661
 20
131.0835678009377
 10
321.6335830706661
 20
119.0835678228377
 42
0.4142135687874753
 10
322.6335830706661
 20
118.0835678009378
 10
334.6335830706661
 20
118.0835678009376
 42
0.4142135623730274
  0
LWPOLYLINE
  5
135
330
1F
100
AcDbEntity
  8
0
100
AcDbPolyline
 90
        8
 70
     1
 43
0.0
 10
63.17105865666594
 20
108.2710678009376
 10
51.17105865666559
 20
108.2710678009382
 42
0.4142135623731315
 10
50.17105865666531
 20
107.2710678009376
 10
50.17105865666485
 20
95.27106782279274
 42
0.4142135687742809
 10
51.17105865666559
 20
94.27106780093689
 10
63.17105865666594
 20
94.27106780093795
 42
0.4142135623730744
 10
64.17105865666553
 20
95.27106780093767
 10
64.1710586566657
 20
107.2710678228376
 42
0.4142135559588449
  0
LWPOLYLINE
  5
136
330
1F
100
AcDbEntity
  8
0
100
AcDbPolyline
 90
        8
 70
     1
 43
0.0
 10
144.1335830706657
 20
51.12107390443771
 10
132.1335830706656
 20
51.12107390443771
 42
0.4142135623730744
 10
131.1335830706658
 20
50.12107390443769
 10
131.1335830706658
 20
38.12107392633772
 42
0.4142135687874259
 10
132.1335830706658
 20
37.12107390443769
 10
144.1335830706657
 20
37.12107390443769
 42
0.4142135623730729
 10
145.1335830706658
 20
38.12107390443769
 10
145.1335830706658
 20
50.12107392633769
 42
0.4142135559586394
  0
LWPOLYLINE
  5
137
330
1F
100
AcDbEntity
  8
0
100
AcDbPolyline
 90
        8
 70
     1
 43
0.0
 10
25.07106781186582
 20
94.27106780093792
 42
0.4142135623730379
 10
26.07106781186565
 20
95.27106780093767
 10
26.0710678118657
 20
107.2710678228376
 42
0.4142135559587097
 10
25.07106781186582
 20
108.2710678009376
 10
13.07106781186587
 20
108.2710678009376
 42
0.4142135623731262
 10
12.07106781186565
 20
107.2710678009376
 10
12.07106781186536
 20
95.27106782279274
 42
0.4142135687742549
 10
13.07106781186587
 20
94.27106780093717
  0
LWPOLYLINE
  5
138
330
1F
100
AcDbEntity
  8
0
100
AcDbPolyline
 90
        8
 70
     1
 43
0.0
 10
31.12107086366581
 20
95.27106782283768
 42
0.4142135687874962
 10
32.12107086366575
 20
94.27106780093776
 10
44.12107086366586
 20
94.27106780093795
 42
0.4142135623730744
 10
45.12107086366552
 20
95.27106780093767
 10
45.1210708636658
 20
107.2710678228376
 42
0.4142135559587825
 10
44.12107086366586
 20
108.2710678009376
 10
32.12107086366575
 20
108.2710678009376
 42
0.4142135623730951
 10
31.12107086366575
 20
107.2710678009376
  0
LWPOLYLINE
  5
139
330
1F
100
AcDbEntity
  8
0
100
AcDbPolyline
 90
        8
 70
     1
 43
0.0
 10
335.6335830706656
 20
31.07108613339274
 42
0.4142135559718819
 10
334.6335830706661
 20
32.07108611153753
 10
322.6335830706661
 20
32.07108611153772
 42
0.4142135623731926
 10
321.6335830706661
 20
31.07108611153773
 10
321.6335830706648
 20
19.07108613339274
 42
0.4142135687742139
 10
322.6335830706661
 20
18.07108611153693
 10
334.6335830706661
 20
18.07108611153687
 42
0.4142135623729877
 10
335.6335830706667
 20
19.07108611153773
  0
LWPOLYLINE
  5
140
330
1F
100
AcDbEntity
  8
0
100
AcDbPolyline
 90
        8
 70
     1
 43
0.0
 10
120.3210830706658
 20
94.27106780093762
 42
0.4142135623730586
 10
121.3210830706658
 20
95.27106780093772
 10
121.3210830706658
 20
107.2710678227944
 42
0.4142135559714358
 10
120.3210830706658
 20
108.2710678009376
 10
108.3210830706658
 20
108.2710678009376
 42
0.4142135623731262
 10
107.3210830706658
 20
107.2710678009376
 10
107.3210830706651
 20
95.27106782279274
 42
0.4142135687742498
 10
108.3210830706658
 20
94.27106780093717
  0
LWPOLYLINE
  5
141
330
1F
100
AcDbEntity
  8
0
100
AcDbPolyline
 90
        8
 70
     1
 43
0.0
 10
163.1835708636657
 20
51.12107390443771
 10
151.1835708636657
 20
51.12107390443775
 42
0.4142135623731003
 10
150.1835708636657
 20
50.12107390443771
 10
150.1835708636655
 20
38.1210739262927
 42
0.4142135687742432
 10
151.1835708636657
 20
37.12107390443747
 10
163.1835708636657
 20
37.12107390443772
 42
0.4142135623731224
 10
164.1835708636657
 20
38.12107390443769
 10
164.1835708636657
 20
50.12107392633772
 42
0.4142135559588085
  0
LWPOLYLINE
  5
142
330
1F
100
AcDbEntity
  8
0
100
AcDbPolyline
 90
        8
 70
     1
 43
0.0
 10
169.2335586566658
 20
38.12107392633772
 42
0.414213568787513
 10
170.2335586566656
 20
37.12107390443774
 10
182.2335586566656
 20
37.12107390443757
 42
0.4142135623730612
 10
183.2335586566659
 20
38.12107390443769
 10
183.2335586566656
 20
50.12107392629271
 42
0.4142135559719196
 10
182.2335586566656
 20
51.12107390443759
 10
170.2335586566656
 20
51.12107390443707
 42
0.4142135623730872
 10
169.2335586566664
 20
50.12107390443771
  0
LWPOLYLINE
  5
143
330
1F
100
AcDbEntity
  8
0
100
AcDbPolyline
 90
        8
 70
     1
 43
0.0
 10
70.22107696716585
 20
94.27106780093776
 10
82.2210769671658
 20
94.27106780093792
 42
0.4142135623730379
 10
83.22107696716562
 20
95.27106780093767
 10
83.22107696716575
 20
107.2710678228376
 42
0.4142135559587616
 10
82.2210769671658
 20
108.2710678009376
 10
70.22107696716585
 20
108.2710678009382
 42
0.4142135623730793
 10
69.2210769671654
 20
107.2710678009376
 10
69.22107696716586
 20
95.27106782283768
 42
0.4142135687874962
  0
LWPOLYLINE
  5
144
330
1F
100
AcDbEntity
  8
0
100
AcDbPolyline
 90
        8
 70
     1
 43
0.0
 10
88.27106476016593
 20
107.2710678009376
 10
88.27106476016536
 20
95.27106782279274
 42
0.4142135687742549
 10
89.27106476016593
 20
94.27106780093717
 10
101.2710647601658
 20
94.27106780093749
 42
0.414213562373121
 10
102.271064760166
 20
95.27106780093767
 10
102.2710647601657
 20
107.2710678228376
 42
0.4142135559587097
 10
101.2710647601658
 20
108.2710678009376
 10
89.27106476016593
 20
108.2710678009376
 42
0.4142135623731262
  0
LWPOLYLINE
  5
145
330
1F
100
AcDbEntity
  8
0
100
AcDbPolyline
 90
        8
 70
     1
 43
0.0
 10
59.69608307066562
 20
88.22108000803766
 10
59.69608307066585
 20
76.22108002983769
 42
0.4142135687581705
 10
60.69608307066585
 20
75.22108000803775
 10
72.69608307066585
 20
75.22108000803744
 42
0.4142135623731341
 10
73.69608307066591
 20
76.22108000803766
 10
73.69608307066562
 20
88.22108002989271
 42
0.4142135559719092
 10
72.69608307066585
 20
89.22108000803747
 10
60.69608307066585
 20
89.22108000803763
 42
0.4142135623731262
  0
LWPOLYLINE
  5
146
330
1F
100
AcDbEntity
  8
0
100
AcDbPolyline
 90
        4
 70
     1
 43
0.0
 10
52.07105865666591
 20
115.0773178009377
 42
1.0
 10
52.07105865666591
 20
111.2773178009377
 10
119.4210830706657
 20
111.2773178009374
 42
1.0
 10
119.4210830706659
 20
115.077317800938
  0
LWPOLYLINE
  5
147
330
1F
100
AcDbEntity
  8
0
100
AcDbPolyline
 90
        4
 70
     1
 43
0.0
 10
205.1460586566659
 20
111.2773178009376
 42
1.0
 10
205.1460586566659
 20
115.0773178009379
 10
137.7960647601657
 20
115.0773178009377
 42
1.0
 10
137.7960647601657
 20
111.2773178009377
  0
LWPOLYLINE
  5
148
330
1F
100
AcDbEntity
  8
0
100
AcDbPolyline
 90
        4
 70
     1
 43
0.0
 10
290.8749404925659
 20
111.2773178009377
 42
1.0
 10
290.8749404925659
 20
115.0773178009378
 10
223.5210708636659
 20
115.0773178009377
 42
1.0
 10
223.5210708636659
 20
111.2773178009377
  0
LWPOLYLINE
  5
149
330
1F
100
AcDbEntity
  8
0
100
AcDbPolyline
 90
        8
 70
     1
 43
0.0
 10
14.45232391546619
 20
57.17106171929445
 42
0.4142135687748116
 10
15.45232391546597
 20
56.17106169743803
 10
32.21736776817761
 20
56.17106169743789
 42
0.4142135495702447
 10
33.21736772446559
 20
57.17106169743769
 10
33.21736772446559
 20
69.17106167558266
 42
0.4142135559713837
 10
32.21736776817761
 20
70.17106169743748
 10
15.45232391546579
 20
70.17106169743742
 42
0.4142135623730976
 10
14.45232391546602
 20
69.17106169743767
  0
LWPOLYLINE
  5
176
330
1F
100
AcDbEntity
  8
0
100
AcDbPolyline
 90
        8
 70
     1
 43
0.0
 10
117.8460769671658
 20
89.22108000803774
 42
0.4142135623731003
 10
116.8460769671658
 20
88.22108000803771
 10
116.8460769671658
 20
76.22108002983769
 42
0.4142135687581705
 10
117.8460769671658
 20
75.22108000803775
 10
129.8460769671658
 20
75.22108000803742
 42
0.4142135623731029
 10
130.8460769671662
 20
76.22108000803766
 10
130.8460769671658
 20
88.22108002983771
 42
0.4142135559880224
 10
129.8460769671658
 20
89.22108000803763
  0
LWPOLYLINE
  5
177
330
1F
100
AcDbEntity
  8
0
100
AcDbPolyline
 90
        8
 70
     1
 43
0.0
 10
50.17105865666571
 20
131.0835678009377
 10
50.17105865666491
 20
119.0835678227927
 42
0.4142135687743017
 10
51.17105865666559
 20
118.0835678009367
 10
63.17105865666599
 20
118.0835678009378
 42
0.4142135623731055
 10
64.1710586566657
 20
119.0835678009377
 10
64.1710586566657
 20
131.0835678228377
 42
0.4142135559587565
 10
63.17105865666594
 20
132.0835678009376
 10
51.17105865666559
 20
132.0835678009377
 42
0.4142135623730482
  0
LWPOLYLINE
  5
178
330
1F
100
AcDbEntity
  8
0
100
AcDbPolyline
 90
        8
 70
     1
 43
0.0
 10
94.03357696716586
 20
51.12107390443771
 42
0.4142135623731003
 10
93.03357696716586
 20
50.12107390443769
 10
93.03357696716473
 20
38.1210739262927
 42
0.4142135687743317
 10
94.03357696716586
 20
37.12107390443661
 10
106.0335769671659
 20
37.12107390443764
 42
0.4142135623730431
 10
107.0335769671658
 20
38.12107390443769
 10
107.0335769671658
 20
50.12107392633769
 42
0.4142135559587122
 10
106.0335769671657
 20
51.12107390443779
  0
ARC
  5
179
330
1F
100
AcDbEntity
  8
0
100
AcDbCircle
 10
297.6792678851657
 20
19.9710807247379
 30
0.0
 40
1.899999999924328
100
AcDbArc
 50
270.0008801257719
 51
0.0
  0
LWPOLYLINE
  5
180
330
1F
100
AcDbEntity
  8
0
100
AcDbPolyline
 90
        8
 70
     1
 43
0.0
 10
83.22107696716575
 20
119.0835678009377
 10
83.2210769671658
 20
131.0835678227927
 42
0.4142135559719196
 10
82.2210769671658
 20
132.0835678009377
 10
70.22107696716585
 20
132.0835678009385
 42
0.4142135623730793
 10
69.22107696716512
 20
131.0835678009377
 10
69.22107696716586
 20
119.0835678228376
 42
0.414213568787444
 10
70.22107696716585
 20
118.0835678009377
 10
82.2210769671658
 20
118.0835678009378
 42
0.4142135623731159
  0
ARC
  5
181
330
1F
100
AcDbEntity
  8
0
100
AcDbCircle
 10
297.6792964980658
 20
19.97108072503772
 30
0.0
 40
1.900000000000063
100
AcDbArc
 50
180.0000172242353
 51
270.0000172845
  0
LWPOLYLINE
  5
182
330
1F
100
AcDbEntity
  8
0
100
AcDbPolyline
 90
        8
 70
     1
 43
0.0
 10
126.0835647601659
 20
50.12107392633769
 42
0.4142135559587019
 10
125.0835647601657
 20
51.12107390443771
 10
113.0835647601657
 20
51.12107390443771
 42
0.4142135623730744
 10
112.083564760166
 20
50.12107390443769
 10
112.0835647601659
 20
38.1210739263378
 42
0.4142135687874506
 10
113.083564760166
 20
37.12107390443772
 10
125.0835647601659
 20
37.1210739044377
 42
0.414213562373004
 10
126.0835647601659
 20
38.12107390443769
  0
LWPOLYLINE
  5
183
330
1F
100
AcDbEntity
  8
0
100
AcDbPolyline
 90
        8
 70
     1
 43
0.0
 10
54.93357086366575
 20
50.12107390443769
 10
54.93357086366575
 20
38.12107392633769
 42
0.4142135687875234
 10
55.93357086366586
 20
37.12107390443757
 10
67.93357086366587
 20
37.12107390443804
 42
0.4142135623730912
 10
68.93357086366552
 20
38.12107390443769
 10
68.93357086366643
 20
50.1210739262927
 42
0.414213555971969
 10
67.93357086366587
 20
51.1210739044382
 10
55.93357086366563
 20
51.12107390443764
 42
0.4142135623730326
  0
LINE
  5
184
330
1F
100
AcDbEntity
  8
0
100
AcDbLine
 10
295.7792684567656
 20
113.1773172293377
 30
0.0
 11
295.7792964980659
 21
19.97108015386044
 31
0.0
  0
ARC
  5
185
330
1F
100
AcDbEntity
  8
0
100
AcDbCircle
 10
297.6792678851657
 20
113.1773178009377
 30
0.0
 40
1.899999999999977
100
AcDbArc
 50
0.0
 51
180.0000172242353
  0
LWPOLYLINE
  5
186
330
1F
100
AcDbEntity
  8
0
100
AcDbPolyline
 90
        8
 70
     1
 43
0.0
 10
73.98355865666559
 20
50.12107390443769
 10
73.98355865666559
 20
38.12107392633769
 42
0.4142135687874974
 10
74.98355865666559
 20
37.12107390443774
 10
86.9835586566657
 20
37.12107390443765
 42
0.4142135623730822
 10
87.98355865666582
 20
38.12107390443769
 10
87.98355865666582
 20
50.12107392633764
 42
0.4142135559587383
 10
86.9835586566657
 20
51.12107390443771
 10
74.98355865666559
 20
51.12107390443768
 42
0.4142135623731341
  0
LWPOLYLINE
  5
187
330
1F
100
AcDbEntity
  8
0
100
AcDbPolyline
 90
        8
 70
     1
 43
0.0
 10
89.27106476016593
 20
118.0835678009367
 10
101.2710647601657
 20
118.0835678009376
 42
0.4142135623731055
 10
102.2710647601658
 20
119.0835678009377
 10
102.2710647601657
 20
131.0835678228377
 42
0.4142135559587149
 10
101.2710647601658
 20
132.0835678009376
 10
89.27106476016593
 20
132.0835678009378
 42
0.4142135623730847
 10
88.2710647601657
 20
131.0835678009377
 10
88.27106476016485
 20
119.0835678227927
 42
0.414213568774385
  0
LWPOLYLINE
  5
188
330
1F
100
AcDbEntity
  8
0
100
AcDbPolyline
 90
        8
 70
     1
 43
0.0
 10
107.3210830706658
 20
119.0835678228376
 42
0.4142135687874128
 10
108.3210830706658
 20
118.0835678009377
 10
120.3210830706658
 20
118.0835678009377
 42
0.4142135623730744
 10
121.3210830706658
 20
119.0835678009377
 10
121.3210830706658
 20
131.0835678227927
 42
0.4142135559719404
 10
120.3210830706658
 20
132.0835678009377
 10
108.3210830706657
 20
132.0835678009375
 42
0.4142135623730847
 10
107.3210830706658
 20
131.0835678009377
  0
LWPOLYLINE
  5
189
330
1F
100
AcDbEntity
  8
0
100
AcDbPolyline
 90
        8
 70
     1
 43
0.0
 10
178.4710769671655
 20
107.2710678227929
 42
0.4142135559719404
 10
177.4710769671659
 20
108.2710678009376
 10
165.4710769671658
 20
108.2710678009377
 42
0.4142135623731003
 10
164.4710769671658
 20
107.2710678009377
 10
164.4710769671656
 20
95.27106782279274
 42
0.4142135687742394
 10
165.4710769671658
 20
94.27106780093749
 10
177.4710769671658
 20
94.27106780093767
 42
0.4142135623731419
 10
178.4710769671658
 20
95.27106780093772
  0
LINE
  5
190
330
1F
100
AcDbEntity
  8
0
100
AcDbLine
 10
299.57926788509
 20
19.9710807247379
 30
0.0
 11
299.5792678851657
 21
113.1773178009377
 31
0.0
  0
LWPOLYLINE
  5
191
330
1F
100
AcDbEntity
  8
0
100
AcDbPolyline
 90
        8
 70
     1
 43
0.0
 10
186.9960708636659
 20
75.22108000803775
 42
0.4142135623730717
 10
187.9960708636659
 20
76.22108000803766
 10
187.9960708636657
 20
88.22108002989272
 42
0.4142135559718675
 10
186.9960708636659
 20
89.22108000803758
 10
174.996070863666
 20
89.22108000803795
 42
0.4142135623731055
 10
173.9960708636657
 20
88.22108000803771
 10
173.9960708636657
 20
76.22108002983769
 42
0.4142135687581469
 10
174.996070863666
 20
75.2210800080377
  0
LWPOLYLINE
  5
248
330
1F
100
AcDbEntity
  8
0
100
AcDbPolyline
 90
       24
 70
     1
 43
0.0
 10
10.07106781186536
 20
0.0710678118655648
 10
22.64294281186557
 20
0.0710678118655279
 10
356.6835678118656
 20
0.0710678118653672
 42
0.4142135623730765
 10
366.6835678118656
 20
10.07106781186558
 10
366.6835678118656
 20
140.083567811865
 42
0.4142135623730945
 10
356.6835678118656
 20
150.0835678118653
 10
303.0835678118655
 20
150.083567811865
 10
303.0835678118655
 20
132.083567811865
 10
316.0835678118657
 20
132.0835678118652
 42
-0.4142135623730951
 10
316.5835678118656
 20
131.5835678118649
 10
316.5835678118656
 20
118.5835678118653
 42
-0.4142135623732303
 10
316.0835678118657
 20
118.0835678118652
 10
303.0835678118655
 20
118.0835678118651
 10
292.2710678118654
 20
118.0835678118652
 10
279.2710678118657
 20
118.0835678118652
 42
-0.4142135623733657
 10
278.7710678118655
 20
118.5835678118653
 10
278.7710678118655
 20
131.583567811865
 42
-0.414213562373324
 10
279.2710678118657
 20
132.0835678118651
 10
292.2710678118654
 20
132.0835678118652
 10
292.2710678118657
 20
150.0835678118652
 10
10.07106781186547
 20
150.0835678118652
 42
0.4142135623730961
 10
0.0710678118653618
 20
140.0835678118651
 10
0.0710678118654755
 20
125.0835678118651
 10
0.0710678118654755
 20
10.0710678118655
 42
0.4142135623730874
  0
LWPOLYLINE
  5
250
330
1F
100
AcDbEntity
  8
0
100
AcDbPolyline
 90
        8
 70
     1
 43
0.0
 10
12.07106781186559
 20
118.5835678118653
 10
12.07106781186559
 20
131.583567811865
 42
-0.4142135623730222
 10
12.57106781186547
 20
132.0835678118652
 10
25.57106781186536
 20
132.0835678118652
 42
-0.4142135623731368
 10
26.07106781186548
 20
131.583567811865
 10
26.07106781186548
 20
118.5835678118653
 42
-0.4142135623731575
 10
25.57106781186536
 20
118.0835678118652
 10
12.57106781186547
 20
118.0835678118652
 42
-0.4142135623730744
  0
CIRCLE
  5
251
330
1F
100
AcDbEntity
  8
0
100
AcDbCircle
 10
136.3671668077449
 20
6.308567811865347
 30
0.0
 40
1.700000000000019
  0
CIRCLE
  5
252
330
1F
100
AcDbEntity
  8
0
100
AcDbCircle
 10
230.3780187586215
 20
143.8460678118651
 30
0.0
 40
1.700000000000017
  0
LWPOLYLINE
  5
253
330
1F
100
AcDbEntity
  8
0
100
AcDbPolyline
 90
        8
 70
     1
 43
0.0
 10
174.996070863666
 20
118.0835678009376
 10
186.9960708636659
 20
118.0835678009377
 42
0.4142135623731003
 10
187.9960708636659
 20
119.0835678009377
 10
187.9960708636659
 20
131.0835678227927
 42
0.4142135559718885
 10
186.9960708636659
 20
132.0835678009377
 10
174.9960708636657
 20
132.0835678009377
 42
0.4142135623731419
 10
173.9960708636657
 20
131.0835678009377
 10
173.9960708636657
 20
119.0835678228377
 42
0.4142135687874284
  0
CIRCLE
  5
255
330
1F
100
AcDbEntity
  8
0
100
AcDbCircle
 10
136.3780185339125
 20
143.8460678118651
 30
0.0
 40
1.699999999999949
  0
CIRCLE
  5
256
330
1F
100
AcDbEntity
  8
0
100
AcDbCircle
 10
230.3773267860651
 20
6.297184516229705
 30
0.0
 40
1.700000000000019
  0
CIRCLE
  5
258
330
1F
100
AcDbEntity
  8
0
100
AcDbCircle
 10
350.3773267860653
 20
6.297184516229705
 30
0.0
 40
1.699999999999968
  0
ARC
  5
259
330
1F
100
AcDbEntity
  8
0
100
AcDbCircle
 10
-273.2210678118656
 20
118.5835678118652
 30
0.0
 40
0.4999999999999716
210
0.0
220
0.0
230
-1.0
100
AcDbArc
 50
180.0
 51
270.0
  0
LWPOLYLINE
  5
262
330
1F
100
AcDbEntity
  8
0
100
AcDbPolyline
 90
        8
 70
     1
 43
0.0
 10
193.0460586566656
 20
131.0835678009377
 10
193.0460586566658
 20
119.0835678228377
 42
0.4142135687874284
 10
194.0460586566659
 20
118.0835678009376
 10
206.046058656666
 20
118.0835678009377
 42
0.4142135623730222
 10
207.0460586566659
 20
119.0835678009377
 10
207.0460586566659
 20
131.0835678228378
 42
0.4142135559588085
 10
206.0460586566659
 20
132.0835678009377
 10
194.0460586566656
 20
132.0835678009376
 42
0.4142135623730951
  0
CIRCLE
  5
266
330
1F
100
AcDbEntity
  8
0
100
AcDbCircle
 10
350.3780187586217
 20
143.8460678118651
 30
0.0
 40
1.700000000000012
  0
CIRCLE
  5
267
330
1F
100
AcDbEntity
  8
0
100
AcDbCircle
 10
16.36716680774509
 20
6.308567811865347
 30
0.0
 40
1.700000000000017
  0
LWPOLYLINE
  5
269
330
1F
100
AcDbEntity
  8
0
100
AcDbPolyline
 90
        8
 70
     1
 43
0.0
 10
239.3835830706659
 20
37.12107390443801
 42
0.4142135623731302
 10
240.3835830706656
 20
38.12107390443772
 10
240.3835830706668
 20
50.12107392629446
 42
0.4142135559713941
 10
239.3835830706659
 20
51.1210739044385
 10
227.3835830706659
 20
51.12107390443768
 42
0.4142135623731237
 10
226.3835830706658
 20
50.12107390443771
 10
226.3835830706658
 20
38.12107392633772
 42
0.4142135687874246
 10
227.3835830706659
 20
37.1210739044377
  0
LWPOLYLINE
  5
270
330
1F
100
AcDbEntity
  8
0
100
AcDbPolyline
 90
        8
 70
     1
 43
0.0
 10
38.26486969176568
 20
31.07108611153769
 10
38.26486969176568
 20
19.07108613339281
 42
0.4142134444703531
 10
39.2648692673659
 20
18.07108611153766
 10
53.64613433326565
 20
18.0710739044377
 42
0.4142136866770007
 10
54.64613475766601
 20
19.07107390443769
 10
54.64613475766601
 20
31.07107390443754
 42
0.4142134380399489
 10
53.64613518216572
 20
32.07107390443769
 10
39.26487011616575
 20
32.07108611153767
 42
0.4142136866769383
  0
LWPOLYLINE
  5
271
330
1F
100
AcDbEntity
  8
0
100
AcDbPolyline
 90
        8
 70
     1
 43
0.0
 10
236.9085769671658
 20
56.17106169743776
 10
248.9085769671658
 20
56.1710616974377
 42
0.4142135623730717
 10
249.9085769671659
 20
57.17106169743771
 10
249.9085769671662
 20
69.17106171929416
 42
0.4142135559713578
 10
248.9085769671658
 20
70.17106169743771
 10
236.9085769671659
 20
70.17106169743775
 42
0.4142135623731003
 10
235.9085769671659
 20
69.17106169743772
 10
235.9085769671659
 20
57.17106171933774
 42
0.4142135687874415
  0
LWPOLYLINE
  5
272
330
1F
100
AcDbEntity
  8
0
100
AcDbPolyline
 90
        8
 70
     1
 43
0.0
 10
63.07737011616598
 20
32.07108611153767
 42
0.4142136866770176
 10
62.07736969176568
 20
31.07108611153771
 10
62.07736969176568
 20
19.07108613339271
 42
0.4142134444685368
 10
63.0773692673593
 20
18.07108611153756
 10
77.45863433325786
 20
18.07107390443807
 42
0.4142136866793907
 10
78.45863475766589
 20
19.07107390443769
 10
78.458634757666
 20
31.07107390443769
 42
0.4142134380399266
 10
77.45863518216594
 20
32.07107390443769
  0
ARC
  5
273
330
1F
100
AcDbEntity
  8
0
100
AcDbCircle
 10
-212.0711347576659
 20
17.07107390443766
 30
0.0
 40
1.000000000000937
210
0.0
220
0.0
230
-1.0
100
AcDbArc
 50
180.0
 51
270.0
  0
LINE
  5
274
330
1F
100
AcDbEntity
  8
0
100
AcDbLine
 10
212.0711347576659
 20
16.07107390443673
 30
0.0
 11
205.9523696917657
 21
16.07107390443812
 31
0.0
  0
LWPOLYLINE
  5
275
330
1F
100
AcDbEntity
  8
0
100
AcDbPolyline
 90
        8
 70
     1
 43
0.0
 10
30.83363475766606
 20
31.07107390443754
 42
0.4142134380398889
 10
29.83363518216589
 20
32.07107390443769
 10
15.45237011616581
 20
32.07108611153773
 42
0.4142136866769954
 10
14.45236969176568
 20
31.07108611153769
 10
14.45236969176545
 20
19.07108613339269
 42
0.4142134444679677
 10
15.45236926735765
 20
18.07108611153756
 10
29.83363433325763
 20
18.07107390443808
 42
0.4142136866793888
 10
30.83363475766566
 20
19.07107390443769
  0
LWPOLYLINE
  5
276
330
1F
100
AcDbEntity
  8
0
100
AcDbPolyline
 90
        8
 70
     1
 43
0.0
 10
201.2835769671658
 20
51.12107390443768
 10
189.2835769671659
 20
51.12107390443768
 42
0.4142135623731237
 10
188.2835769671658
 20
50.12107390443771
 10
188.2835769671657
 20
38.12107392629297
 42
0.4142135687742445
 10
189.2835769671659
 20
37.12107390443772
 10
201.2835769671658
 20
37.12107390443769
 42
0.4142135623731015
 10
202.2835769671658
 20
38.12107390443772
 10
202.2835769671658
 20
50.12107392633769
 42
0.4142135559588059
  0
CIRCLE
  5
277
330
1F
100
AcDbEntity
  8
0
100
AcDbCircle
 10
16.37801853391261
 20
143.8460678118651
 30
0.0
 40
1.700000000000017
  0
LINE
  5
278
330
1F
100
AcDbEntity
  8
0
100
AcDbLine
 10
213.0711347568656
 20
32.07108611153818
 30
0.0
 11
217.9523696917657
 21
32.0710861115385
 31
0.0
  0
ARC
  5
279
330
1F
100
AcDbEntity
  8
0
100
AcDbCircle
 10
-205.9523696917659
 20
17.07107390443778
 30
0.0
 40
0.9999999999996587
210
0.0
220
0.0
230
-1.0
100
AcDbArc
 50
270.0000000000065
 51
0.0
  0
LINE
  5
280
330
1F
100
AcDbEntity
  8
0
100
AcDbLine
 10
204.9523696917662
 20
17.07107390443771
 30
0.0
 11
204.9523696917658
 21
31.07108611153771
 31
0.0
  0
LINE
  5
281
330
1F
100
AcDbEntity
  8
0
100
AcDbLine
 10
217.9523696917657
 20
18.07108611153772
 30
0.0
 11
213.0711347576658
 21
18.07108611153772
 31
0.0
  0
LWPOLYLINE
  5
283
330
1F
100
AcDbEntity
  8
0
100
AcDbPolyline
 90
        8
 70
     1
 43
0.0
 10
250.1961347576659
 20
31.07107390443772
 10
250.1961347576664
 20
19.07107390443692
 42
0.4142136867062893
 10
251.1961351821659
 20
18.07107390443771
 10
265.5773701161661
 20
18.07108611153771
 42
0.4142134380692199
 10
266.5773696917658
 20
19.07108611153771
 10
266.5773696917656
 20
31.07108613339272
 42
0.414213693081089
 10
265.5773692236459
 20
32.07108611153741
 10
251.1961343332576
 20
32.07107390443764
 42
0.4142134380668253
  0
LWPOLYLINE
  5
284
330
1F
100
AcDbEntity
  8
0
100
AcDbPolyline
 90
        8
 70
     1
 43
0.0
 10
241.7648692236459
 20
32.07108611153755
 10
227.3836343332658
 20
32.07107390443769
 42
0.4142134380692615
 10
226.3836347576655
 20
31.07107390443769
 10
226.3836347576658
 20
19.07107390443756
 42
0.414213686706283
 10
227.3836351821659
 20
18.07107390443771
 10
241.764870116174
 20
18.07108611153785
 42
0.4142134380668474
 10
242.7648696917657
 20
19.07108611153771
 10
242.7648696917657
 20
31.07108613333773
 42
0.4142136930971618
  0
LWPOLYLINE
  5
285
330
1F
100
AcDbEntity
  8
0
100
AcDbPolyline
 90
        8
 70
     1
 43
0.0
 10
274.008634757666
 20
31.07107390443772
 10
274.008634757666
 20
19.07107390443771
 42
0.414213686679474
 10
275.0086351820741
 20
18.07107390443785
 10
289.3898701161743
 20
18.07108611153778
 42
0.4142134380667655
 10
290.3898696917657
 20
19.07108611153771
 10
290.3898696917656
 20
31.0710861333379
 42
0.4142136930912358
 10
289.3898692236659
 20
32.07108611153774
 10
275.0086343332577
 20
32.07107390443765
 42
0.4142134380667694
  0
LINE
  5
286
330
1F
100
AcDbEntity
  8
0
100
AcDbLine
 10
213.0711347576658
 20
18.07108611153772
 30
0.0
 11
213.0711347576668
 21
17.07107390443771
 31
0.0
  0
ARC
  5
287
330
1F
100
AcDbEntity
  8
0
100
AcDbCircle
 10
-217.9523696917657
 20
31.07108611153769
 30
0.0
 40
1.000000000000813
210
0.0
220
0.0
230
-1.0
100
AcDbArc
 50
90.0
 51
179.9999987925817
  0
LWPOLYLINE
  5
288
330
1F
100
AcDbEntity
  8
0
100
AcDbPolyline
 90
        8
 70
     1
 43
0.0
 10
115.5585708636657
 20
70.17106169743779
 10
103.5585708636658
 20
70.17106169743775
 42
0.4142135623730404
 10
102.5585708636658
 20
69.17106169743771
 10
102.5585708636658
 20
57.1710617192927
 42
0.4142135687742653
 10
103.5585708636658
 20
56.17106169743775
 10
115.5585708636658
 20
56.17106169743769
 42
0.4142135623730482
 10
116.5585708636657
 20
57.17106169743769
 10
116.5585708636658
 20
69.1710617193377
 42
0.4142135559587097
  0
LWPOLYLINE
  5
289
330
1F
100
AcDbEntity
  8
0
100
AcDbPolyline
 90
        8
 70
     1
 43
0.0
 10
167.9460830706658
 20
118.0835678009377
 42
0.4142135623731003
 10
168.9460830706658
 20
119.0835678009377
 10
168.9460830706669
 20
131.0835678227944
 42
0.4142135559713682
 10
167.9460830706658
 20
132.0835678009387
 10
155.9460830706656
 20
132.0835678009375
 42
0.4142135623731159
 10
154.9460830706658
 20
131.0835678009377
 10
154.9460830706659
 20
119.0835678228377
 42
0.4142135687874546
 10
155.9460830706658
 20
118.0835678009377
  0
LINE
  5
290
330
1F
100
AcDbEntity
  8
0
100
AcDbLine
 10
218.9523696917665
 20
31.07108613339446
 30
0.0
 11
218.9523696917657
 21
19.07108611153771
 31
0.0
  0
ARC
  5
291
330
1F
100
AcDbEntity
  8
0
100
AcDbCircle
 10
-217.9523696917657
 20
19.07108611153769
 30
0.0
 40
1.000000000000014
210
0.0
220
0.0
230
-1.0
100
AcDbArc
 50
180.0
 51
270.0
  0
LWPOLYLINE
  5
292
330
1F
100
AcDbEntity
  8
0
100
AcDbPolyline
 90
        8
 70
     1
 43
0.0
 10
16.83356476016627
 20
76.22108002989269
 42
0.4142135687742601
 10
17.83356476016581
 20
75.22108000803801
 10
29.83356476016599
 20
75.22108000803742
 42
0.4142135623731029
 10
30.83356476016621
 20
76.22108000803766
 10
30.8335647601657
 20
88.22108002989271
 42
0.4142135559719092
 10
29.83356476016599
 20
89.22108000803747
 10
17.83356476016581
 20
89.2210800080377
 42
0.4142135623731003
 10
16.83356476016581
 20
88.22108000803766
  0
LWPOLYLINE
  5
293
330
1F
100
AcDbEntity
  8
0
100
AcDbPolyline
 90
        8
 70
     1
 43
0.0
 10
77.45858001896585
 20
56.17106169743798
 42
0.414213562373069
 10
78.45858001896556
 20
57.17106169743769
 10
78.45858001896584
 20
69.17106171929447
 42
0.4142135559714332
 10
77.45858001896585
 20
70.17106169743765
 10
65.45858001896579
 20
70.17106169743772
 42
0.4142135623731003
 10
64.45858001896579
 20
69.17106169743767
 10
64.45858001896585
 20
57.17106171933768
 42
0.4142135687874182
 10
65.45858001896579
 20
56.17106169743775
  0
LWPOLYLINE
  5
294
330
1F
100
AcDbEntity
  8
0
100
AcDbPolyline
 90
        8
 70
     1
 43
0.0
 10
98.79605865666594
 20
75.22108000803803
 10
110.7960586566658
 20
75.2210800080377
 42
0.4142135623731237
 10
111.796058656666
 20
76.22108000803766
 10
111.7960586566656
 20
88.22108002983771
 42
0.4142135559879547
 10
110.7960586566658
 20
89.22108000803763
 10
98.79605865666594
 20
89.22108000803737
 42
0.4142135623730639
 10
97.79605865666622
 20
88.22108000803766
 10
97.79605865666622
 20
76.2210800298927
 42
0.4142135687742888
  0
LWPOLYLINE
  5
295
330
1F
100
AcDbEntity
  8
0
100
AcDbPolyline
 90
        8
 70
     1
 43
0.0
 10
41.6460647601657
 20
89.22108000803765
 42
0.4142135623730744
 10
40.6460647601657
 20
88.22108000803766
 10
40.64606476016621
 20
76.22108002989269
 42
0.4142135687742862
 10
41.6460647601657
 20
75.22108000803801
 10
53.64606476016593
 20
75.22108000803754
 42
0.4142135623730586
 10
54.64606476016598
 20
76.22108000803766
 10
54.6460647601657
 20
88.22108002983771
 42
0.4142135559880692
 10
53.64606476016593
 20
89.22108000803763
  0
LWPOLYLINE
  5
296
330
1F
100
AcDbEntity
  8
0
100
AcDbPolyline
 90
        8
 70
     1
 43
0.0
 10
92.74607086366575
 20
88.22108002983771
 42
0.4142135559880224
 10
91.74607086366581
 20
89.22108000803763
 10
79.74607086366586
 20
89.22108000803792
 42
0.4142135623731003
 10
78.74607086366563
 20
88.22108000803766
 10
78.74607086366586
 20
76.22108002983769
 42
0.4142135687581705
 10
79.74607086366586
 20
75.22108000803775
 10
91.74607086366581
 20
75.2210800080377
 42
0.4142135623730976
 10
92.74607086366586
 20
76.22108000803766
  0
LWPOLYLINE
  5
297
330
1F
100
AcDbEntity
  8
0
100
AcDbPolyline
 90
        8
 70
     1
 43
0.0
 10
127.3710708636658
 20
94.27106780093749
 10
139.3710708636658
 20
94.27106780093764
 42
0.4142135623730534
 10
140.3710708636658
 20
95.27106780093772
 10
140.3710708636658
 20
107.2710678227944
 42
0.4142135559714254
 10
139.3710708636657
 20
108.2710678009377
 10
127.3710708636658
 20
108.2710678009377
 42
0.4142135623731003
 10
126.3710708636658
 20
107.2710678009377
 10
126.3710708636656
 20
95.27106782279274
 42
0.4142135687742394
  0
LWPOLYLINE
  5
298
330
1F
100
AcDbEntity
  8
0
100
AcDbPolyline
 90
        8
 70
     1
 43
0.0
 10
122.608558656666
 20
56.17106169743761
 10
134.6085586566656
 20
56.17106169743738
 42
0.4142135623730793
 10
135.6085586566662
 20
57.17106169743769
 10
135.6085586566656
 20
69.1710617193377
 42
0.4142135559587356
 10
134.6085586566656
 20
70.17106169743772
 10
122.6085586566658
 20
70.17106169743769
 42
0.4142135623730639
 10
121.6085586566659
 20
69.17106169743771
 10
121.6085586566659
 20
57.17106171933768
 42
0.4142135687874466
  0
LWPOLYLINE
  5
299
330
1F
100
AcDbEntity
  8
0
100
AcDbPolyline
 90
        8
 70
     1
 43
0.0
 10
45.4085769671658
 20
69.17106169743767
 10
45.40857696716574
 20
57.17106171933768
 42
0.4142135687875221
 10
46.40857696716586
 20
56.17106169743761
 10
58.40857696716586
 20
56.17106169743767
 42
0.4142135623730976
 10
59.40857696716586
 20
57.17106169743769
 10
59.4085769671658
 20
69.17106171929444
 42
0.4142135559714332
 10
58.40857696716586
 20
70.17106169743762
 10
46.40857696716586
 20
70.17106169743769
 42
0.4142135623730717
  0
LWPOLYLINE
  5
376
330
1F
100
AcDbEntity
  8
0
100
AcDbPolyline
 90
       44
 70
     1
 43
0.0
 10
255.9585678120576
 20
56.17106780093769
 42
-0.4142135624293272
 10
254.9585678118657
 20
57.17106780093764
 10
254.9585678118657
 20
69.17106782293764
 42
-0.4142135623730951
 10
255.9585678118657
 20
70.17106782293764
 10
258.4268173228656
 20
70.17106782293764
 10
258.4268173228656
 20
71.17106780093765
 42
-0.4142135623730951
 10
259.4268173228656
 20
72.17106780093762
 10
264.3912272560704
 20
72.17013102782418
 42
-0.4142179744634821
 10
265.3912423218659
 20
71.17013102393757
 10
265.3912423218657
 20
70.17106782293764
 10
276.3585678118658
 20
70.17106782293764
 10
276.3585678118658
 20
75.22108613293764
 10
275.0085739150577
 20
75.2210861329377
 42
-0.4142135624292857
 10
274.0085739148658
 20
76.22108613293764
 10
274.0085739148658
 20
88.22108613293767
 42
-0.4142135559294126
 10
275.0085738928657
 20
89.22108613293763
 10
287.0085739149656
 20
89.22108613293762
 42
-0.4142135559588085
 10
288.0085739148659
 20
88.22108615473764
 10
288.0085739148659
 20
88.13406525893761
 10
289.3585678119657
 20
88.13406525893759
 42
-0.4142135623437927
 10
290.3585678118658
 20
87.13406525893761
 10
290.3585678119307
 20
82.12909289153781
 42
-0.4127667482429169
 10
289.3585800213664
 20
81.13403512693777
 10
288.0085739148659
 20
81.13403512793764
 10
288.0085739148659
 20
79.69607697793763
 10
289.3585678119657
 20
79.69607697793759
 42
-0.4142135623437927
 10
290.3585678118658
 20
78.69607697793764
 10
290.3585678118658
 20
66.69607697773169
 42
-0.4142135622541688
 10
289.3585678120659
 20
65.69607697793765
 10
289.3027938858658
 20
65.69607697793765
 10
289.3027938858658
 20
64.25808867493763
 10
289.3585800189686
 20
64.25808867494627
 42
-0.412767098945491
 10
290.3585678118658
 20
63.26302971413763
 10
290.3585678118658
 20
58.25808867473764
 42
-0.4142135622559117
 10
289.3585678120659
 20
57.25808867493764
 10
289.3027938858658
 20
57.25808867493764
 10
289.3027938858658
 20
57.17106780073764
 42
-0.4142135623145164
 10
288.3027938858658
 20
56.17106780093765
 10
283.2236333663674
 20
56.17106780107154
 42
-0.4015092640386668
 10
282.2671887528658
 20
57.17011881483764
 10
282.2671887528658
 20
57.25808867493764
 10
280.8648056048657
 20
57.25808867493764
 10
280.8648056048657
 20
57.17106780073169
 42
-0.4142135623127735
 10
279.8648056048659
 20
56.17106780093765
  0
LWPOLYLINE
  5
377
330
1F
100
AcDbEntity
  8
0
100
AcDbPolyline
 90
       20
 70
     1
 43
0.0
 10
267.8080734268657
 20
93.27107390473763
 42
-0.4142135623145164
 10
266.8080734268657
 20
92.27107390493763
 10
261.8080734270657
 20
92.27107390493769
 42
-0.4142135624316581
 10
260.8080734268657
 20
93.27107390493763
 10
260.8080734268657
 20
94.27107390493764
 10
260.7210495010656
 20
94.27107390493755
 42
-0.4142135624316581
 10
259.7210495008657
 20
95.27107390493764
 10
259.7210495008657
 20
107.2710739049376
 42
-0.4142135623730951
 10
260.7210495008658
 20
108.2710739049376
 10
291.7710495009659
 20
108.2710739049375
 42
-0.4142135591219617
 10
292.7710495008658
 20
107.2710739159376
 10
292.7710495008658
 20
95.27107390473764
 42
-0.4142135622583258
 10
291.7710495010577
 20
94.27107390493764
 10
291.6840499888656
 20
94.27107390493764
 10
291.6840499888656
 20
93.27107390473763
 42
-0.4142135623145164
 10
290.6840499888656
 20
92.27107390493763
 10
285.6840499890656
 20
92.27107390493769
 42
-0.4142135624316165
 10
284.6840499888658
 20
93.27107390493763
 10
284.6840499888658
 20
94.27107390493764
 10
267.8081035108657
 20
94.27107390493764
  0
LWPOLYLINE
  5
378
330
1F
100
AcDbEntity
  8
0
100
AcDbPolyline
 90
       14
 70
     1
 43
0.0
 10
260.6643203748656
 20
36.1210739047317
 42
-0.4142135623127735
 10
259.6643203748656
 20
35.12107390493765
 10
254.6643203750657
 20
35.12107390493756
 42
-0.4142135624316581
 10
253.6643203748655
 20
36.12107390493765
 10
253.6643203748655
 20
37.12109831893766
 10
253.5773666400578
 20
37.12109831893768
 42
-0.4142135624293272
 10
252.5773666398658
 20
38.12109831893764
 10
252.5773666398658
 20
50.12109831893764
 42
-0.4142138115106954
 10
253.5773674904747
 20
51.1210983189373
 10
275.1023092230785
 20
51.12107390493768
 42
-0.4142133962402906
 10
276.102308655866
 20
50.12107390493763
 10
276.1023086558656
 20
38.12107390473766
 42
-0.414213996018145
 10
275.1023071751091
 20
37.12107390493861
 10
260.664320374866
 20
37.12110241293764
  0
LWPOLYLINE
  5
379
330
1F
100
AcDbEntity
  8
0
100
AcDbPolyline
 90
       11
 70
     1
 43
0.0
 10
284.5402969378656
 20
36.12107390373765
 42
-0.4142135623145164
 10
283.5402969378658
 20
35.12107390393764
 10
278.5402969380661
 20
35.1210739049377
 42
-0.4142135624316997
 10
277.5402969378661
 20
36.12107390493765
 10
277.5402668056492
 20
50.12108611393762
 42
-0.4127667906114893
 10
278.5353247157657
 20
51.12107390493765
 10
291.7711166399656
 20
51.12109831893758
 42
-0.4142135624024547
 10
292.7711166398659
 20
50.12109831873765
 10
292.7711166398659
 20
38.12109831873765
 42
-0.4142135623145216
 10
291.7711166398659
 20
37.12109831893766
 10
284.5402969378656
 20
37.12109831893766
  0
LWPOLYLINE
  5
380
330
1F
100
AcDbEntity
  8
0
100
AcDbPolyline
 90
       14
 70
     1
 43
0.0
 10
218.9523696918658
 20
19.05198286583765
 42
-0.4142135623438031
 10
217.9523696918658
 20
18.05198286593764
 10
213.0711347568656
 20
18.05198286593764
 10
213.0711347568656
 20
17.05197061593764
 42
-0.4142135623730951
 10
212.0711347568656
 20
16.05197061593764
 10
205.9523696918658
 20
16.05197061593755
 42
-0.4142135623730951
 10
204.9523696918657
 20
17.05197061593764
 10
204.9523696918658
 20
33.05199507273766
 42
-0.4142135624316686
 10
205.9523696918658
 20
34.05199507293764
 10
212.0711347568656
 20
34.05199507293757
 42
-0.4142135623730951
 10
213.0711347568656
 20
33.05199507293763
 10
213.0711347568656
 20
32.05198286593765
 10
217.9523696917628
 20
32.05198286593766
 42
-0.4142135624032506
 10
218.9523696918658
 20
31.05198286593765
  0
LWPOLYLINE
  5
381
330
1F
100
AcDbEntity
  8
0
100
AcDbPolyline
 90
        8
 70
     1
 43
0.0
 10
194.0211257948656
 20
17.05197061593764
 42
-0.4142135623730951
 10
193.0211257948656
 20
16.05197061593761
 10
188.0211257948656
 20
16.05197061593762
 42
-0.4142135623730951
 10
187.0211257948656
 20
17.05197061593764
 10
187.0211257948656
 20
33.05570601073169
 42
-0.4142135624334167
 10
188.0211257948656
 20
34.05570601093768
 10
193.0211257947658
 20
34.05570601093767
 42
-0.4142135624023766
 10
194.0211257948656
 20
33.05570601093766
  0
ARC
  5
382
330
1F
100
AcDbEntity
  8
0
100
AcDbCircle
 10
144.0398544328657
 20
31.07108000793765
 30
0.0
 40
1.000000000008692
100
AcDbArc
 50
90.28310184450484
 51
90.36495791249972
  0
LINE
  5
383
330
1F
100
AcDbEntity
  8
0
100
AcDbLine
 10
144.0349133936657
 20
32.07106780093764
 30
0.0
 11
158.4211194987628
 21
32.07106780093764
 31
0.0
  0
ARC
  5
384
330
1F
100
AcDbEntity
  8
0
100
AcDbCircle
 10
158.4211194988656
 20
31.07106780093765
 30
0.0
 40
1.000000000000014
100
AcDbArc
 50
0.0
 51
90.00000000590148
  0
ARC
  5
385
330
1F
100
AcDbEntity
  8
0
100
AcDbCircle
 10
158.4211194988656
 20
19.07106780093765
 30
0.0
 40
0.9999999999999964
100
AcDbArc
 50
270.0
 51
0.0
  0
LINE
  5
386
330
1F
100
AcDbEntity
  8
0
100
AcDbLine
 10
158.4211194988656
 20
18.07106780093765
 30
0.0
 11
148.9025024840656
 21
18.07107588093763
 31
0.0
  0
LINE
  5
387
330
1F
100
AcDbEntity
  8
0
100
AcDbLine
 10
159.4211194988656
 20
31.07106780093765
 30
0.0
 11
159.4211194988656
 21
19.07106780084864
 31
0.0
  0
ARC
  5
388
330
1F
100
AcDbEntity
  8
0
100
AcDbCircle
 10
148.8961328778657
 20
19.07105559393765
 30
0.0
 40
1.000000000000021
100
AcDbArc
 50
269.9999635365986
 51
270.3649578214972
  0
LINE
  5
389
330
1F
100
AcDbEntity
  8
0
100
AcDbLine
 10
148.8961322414592
 20
18.07105559393784
 30
0.0
 11
134.5148673872672
 21
18.07106780093775
 31
0.0
  0
ARC
  5
390
330
1F
100
AcDbEntity
  8
0
100
AcDbCircle
 10
134.5148678118656
 20
19.07106780093765
 30
0.0
 40
1.000000000000014
100
AcDbArc
 50
180.0
 51
269.9999756723006
  0
LINE
  5
391
330
1F
100
AcDbEntity
  8
0
100
AcDbLine
 10
133.5148678118656
 20
19.07106781193764
 30
0.0
 11
133.5148678118656
 21
31.07106780093765
 31
0.0
  0
ARC
  5
392
330
1F
100
AcDbEntity
  8
0
100
AcDbCircle
 10
134.5148678118656
 20
31.07106780093765
 30
0.0
 40
1.000000000000049
100
AcDbArc
 50
90.0
 51
180.0
  0
LINE
  5
393
330
1F
100
AcDbEntity
  8
0
100
AcDbLine
 10
134.5148678118656
 20
32.07106780093769
 30
0.0
 11
144.0334847142657
 21
32.07105972093763
 31
0.0
  0
ARC
  5
394
330
1F
100
AcDbEntity
  8
0
100
AcDbCircle
 10
97.77113475786563
 20
33.05199507293763
 30
0.0
 40
1.000000000000014
100
AcDbArc
 50
0.0
 51
89.978220712799
  0
ARC
  5
395
330
1F
100
AcDbEntity
  8
0
100
AcDbCircle
 10
97.77113475786563
 20
17.05197061593764
 30
0.0
 40
0.9999999999999964
100
AcDbArc
 50
270.0
 51
0.0
  0
LINE
  5
396
330
1F
100
AcDbEntity
  8
0
100
AcDbLine
 10
88.00861358786574
 20
16.05197061593764
 30
0.0
 11
97.77113475786563
 21
16.05197061593764
 31
0.0
  0
ARC
  5
397
330
1F
100
AcDbEntity
  8
0
100
AcDbCircle
 10
88.00861358786574
 20
17.05197061593764
 30
0.0
 40
1.000000000000014
100
AcDbArc
 50
180.0
 51
270.0
  0
LINE
  5
398
330
1F
100
AcDbEntity
  8
0
100
AcDbLine
 10
87.00861358786562
 20
17.05197061593764
 30
0.0
 11
87.00861360586561
 21
33.05570601073169
 31
0.0
  0
ARC
  5
399
330
1F
100
AcDbEntity
  8
0
100
AcDbCircle
 10
88.00861358786574
 20
33.05570601093766
 30
0.0
 40
0.999999982000021
100
AcDbArc
 50
89.97822068420026
 51
180.0
  0
LINE
  5
400
330
1F
100
AcDbEntity
  8
0
100
AcDbLine
 10
98.77113475786565
 20
33.05199507293763
 30
0.0
 11
98.77113475786565
 21
17.05197061593764
 31
0.0
  0
LINE
  5
401
330
1F
100
AcDbEntity
  8
0
100
AcDbLine
 10
88.00899370856569
 20
34.05570588433764
 30
0.0
 11
97.77151487806566
 21
34.05199494633764
 31
0.0
  0
LWPOLYLINE
  5
402
330
1F
100
AcDbEntity
  8
0
100
AcDbPolyline
 90
       20
 70
     1
 43
0.0
 10
22.53932800486558
 20
36.12108001873764
 42
-0.4142135590926907
 10
21.53932800486558
 20
35.12108002993764
 10
16.53932800506567
 20
35.12108002993762
 42
-0.4142135624316789
 10
15.53932800486558
 20
36.12108002993764
 10
15.53932800486558
 20
37.12108002993764
 10
15.45356170806559
 20
37.12108002993762
 42
-0.4142135624316581
 10
14.45356170786562
 20
38.12108002993764
 10
14.45356170786562
 20
50.12108000793761
 42
-0.4142135623731003
 10
15.45356170786561
 20
51.12108000793764
 10
48.88356170796567
 20
51.12108000793766
 42
-0.4142135623437927
 10
49.88356170786573
 20
50.12108000793763
 10
49.88356170786573
 20
38.12108000773168
 42
-0.4142135623127735
 10
48.88356170786562
 20
37.12108000793765
 10
46.41530456686564
 20
37.12108000793765
 10
46.41530456686564
 20
36.12108002973169
 42
-0.4142135622565414
 10
45.4153045670576
 20
35.12108002993764
 10
40.41530456706567
 20
35.12108002993762
 42
-0.4142135624316789
 10
39.41530456686564
 20
36.12108002993764
 10
39.41530456686564
 20
37.12108002993764
 10
22.53935810996569
 20
37.12108308693765
  0
LWPOLYLINE
  5
408
330
1F
100
AcDbEntity
  8
0
100
AcDbPolyline
 90
        4
 70
     1
 43
0.0
 10
119.4210830706659
 20
115.077317800938
 10
52.07105865666591
 20
115.0773178009377
 42
1.0
 10
52.07105865666591
 20
111.2773178009377
 10
119.4210830706657
 20
111.2773178009374
 42
1.0
  0
LWPOLYLINE
  5
409
330
1F
100
AcDbEntity
  8
0
100
AcDbPolyline
 90
        4
 70
     1
 43
0.0
 10
205.1460586566659
 20
115.0773178009379
 10
137.7960647601657
 20
115.0773178009377
 42
1.0
 10
137.7960647601657
 20
111.2773178009377
 10
205.1460586566659
 20
111.2773178009376
 42
1.0
  0
LWPOLYLINE
  5
410
330
1F
100
AcDbEntity
  8
0
100
AcDbPolyline
 90
        4
 70
     1
 43
0.0
 10
290.8749404925659
 20
115.0773178009378
 10
223.5210708636659
 20
115.0773178009377
 42
1.0
 10
223.5210708636659
 20
111.2773178009377
 10
290.8749404925659
 20
111.2773178009377
 42
1.0
  0
LWPOLYLINE
  5
411
330
1F
100
AcDbEntity
  8
0
100
AcDbPolyline
 90
        4
 70
     1
 43
0.0
 10
352.7835708636658
 20
115.0773178009377
 10
304.483595277766
 20
115.0773178009379
 42
1.0
 10
304.483595277766
 20
111.2773178009376
 10
352.7835708636658
 20
111.2773178009377
 42
1.0
  0
LINE
  5
412
330
1F
100
AcDbEntity
  8
0
100
AcDbLine
 10
295.7792684567656
 20
113.1773172293377
 30
0.0
 11
295.7792964980659
 21
19.97108015386044
 31
0.0
  0
ARC
  5
413
330
1F
100
AcDbEntity
  8
0
100
AcDbCircle
 10
297.6792964980658
 20
19.97108072503772
 30
0.0
 40
1.900000000000063
100
AcDbArc
 50
180.0000172242353
 51
270.0000172845
  0
ARC
  5
414
330
1F
100
AcDbEntity
  8
0
100
AcDbCircle
 10
297.6792678851657
 20
19.9710807247379
 30
0.0
 40
1.899999999924328
100
AcDbArc
 50
270.0008801257719
 51
0.0
  0
ARC
  5
415
330
1F
100
AcDbEntity
  8
0
100
AcDbCircle
 10
297.6792678851657
 20
113.1773178009377
 30
0.0
 40
1.899999999999977
100
AcDbArc
 50
0.0
 51
180.0000172242353
  0
LINE
  5
416
330
1F
100
AcDbEntity
  8
0
100
AcDbLine
 10
299.57926788509
 20
19.9710807247379
 30
0.0
 11
299.5792678851657
 21
113.1773178009377
 31
0.0
  0
ENDSEC
  0
SECTION
  2
OBJECTS
  0
DICTIONARY
  5
C
330
0
100
AcDbDictionary
281
     1
  3
ACAD_CIP_PREVIOUS_PRODUCT_INFO
350
1005A
  3
ACAD_COLOR
350
10036
  3
ACAD_DETAILVIEWSTYLE
350
10051
  3
ACAD_GROUP
350
D
  3
ACAD_LAYOUT
350
10037
  3
ACAD_MATERIAL
350
10004
  3
ACAD_MLEADERSTYLE
350
1004D
  3
ACAD_MLINESTYLE
350
17
  3
ACAD_PLOTSETTINGS
350
10054
  3
ACAD_PLOTSTYLENAME
350
10002
  3
ACAD_SCALELIST
350
1003B
  3
ACAD_SECTIONVIEWSTYLE
350
1004F
  3
ACAD_TABLESTYLE
350
10038
  3
ACAD_VISUALSTYLE
350
1001D
  3
ACDB_RECOMPOSE_DATA
350
1009B
  3
AcDbVariableDictionary
350
1008F
  0
DICTIONARY
  5
1008D
330
50
100
AcDbDictionary
280
     1
281
     1
  3
ADSK_XREC_LAYER_RECONCILED
360
1008E
  0
XRECORD
  5
1005A
102
{ACAD_REACTORS
330
C
102
}
330
C
100
AcDbXrecord
280
     1
300
ACD
300
2022
300

  0
DICTIONARY
  5
10036
102
{ACAD_REACTORS
330
C
102
}
330
C
100
AcDbDictionary
281
     1
  0
DICTIONARY
  5
10051
102
{ACAD_REACTORS
330
C
102
}
330
C
100
AcDbDictionary
281
     1
  3
Imperial24
350
10052
  0
DICTIONARY
  5
D
330
C
100
AcDbDictionary
281
     1
  0
DICTIONARY
  5
10037
102
{ACAD_REACTORS
330
C
102
}
330
C
100
AcDbDictionary
281
     1
  3
Layout1
350
10056
  3
Model
350
10055
  0
DICTIONARY
  5
10004
102
{ACAD_REACTORS
330
C
102
}
330
C
100
AcDbDictionary
281
     1
  3
ByBlock
350
1000D
  3
ByLayer
350
10005
  3
Global
350
10015
  0
DICTIONARY
  5
1004D
102
{ACAD_REACTORS
330
C
102
}
330
C
100
AcDbDictionary
281
     1
  3
Standard
350
1004E
  0
DICTIONARY
  5
17
330
C
100
AcDbDictionary
281
     1
  3
Standard
350
1003A
  0
DICTIONARY
  5
10054
102
{ACAD_REACTORS
330
C
102
}
330
C
100
AcDbDictionary
281
     1
  0
ACDBDICTIONARYWDFLT
  5
10002
102
{ACAD_REACTORS
330
C
102
}
330
C
100
AcDbDictionary
281
     1
  3
Normal
350
10003
100
AcDbDictionaryWithDefault
340
10003
  0
DICTIONARY
  5
1003B
102
{ACAD_REACTORS
330
C
102
}
330
C
100
AcDbDictionary
281
     1
  3
A0
350
1003C
  3
A1
350
1003D
  3
A2
350
1003E
  3
A3
350
1003F
  3
A4
350
10040
  3
A5
350
10041
  3
A6
350
10042
  3
A7
350
10043
  3
A8
350
10044
  3
A9
350
10045
  3
B0
350
10046
  3
B1
350
10047
  3
B2
350
10048
  3
B3
350
10049
  3
B4
350
1004A
  3
B5
350
1004B
  3
B6
350
1004C
  0
DICTIONARY
  5
1004F
102
{ACAD_REACTORS
330
C
102
}
330
C
100
AcDbDictionary
281
     1
  3
Imperial24
350
10050
  0
DICTIONARY
  5
10038
102
{ACAD_REACTORS
330
C
102
}
330
C
100
AcDbDictionary
281
     1
  3
Standard
350
10039
  0
DICTIONARY
  5
1001D
102
{ACAD_REACTORS
330
C
102
}
330
C
100
AcDbDictionary
281
     1
  3
2dWireframe
350
10023
  3
Basic
350
10022
  3
Brighten
350
10029
  3
ColorChange
350
1002D
  3
Conceptual
350
10026
  3
Dim
350
10028
  3
EdgeColorOff
350
10035
  3
Facepattern
350
1002C
  3
Flat
350
1001E
  3
FlatWithEdges
350
1001F
  3
Gouraud
350
10020
  3
GouraudWithEdges
350
10021
  3
Hidden
350
10025
  3
JitterOff
350
10033
  3
Linepattern
350
1002B
  3
OverhangOff
350
10034
  3
Realistic
350
10027
  3
Shaded
350
10032
  3
Shaded with edges
350
10031
  3
Shades of Gray
350
1002E
  3
Sketchy
350
1002F
  3
Thicken
350
1002A
  3
Wireframe
350
10024
  3
X-Ray
350
10030
  0
XRECORD
  5
1009B
102
{ACAD_REACTORS
330
C
102
}
330
C
100
AcDbXrecord
280
     1
 90
        1
330
10039
  0
DICTIONARY
  5
1008F
102
{ACAD_REACTORS
330
C
102
}
330
C
100
AcDbDictionary
281
     1
  3
CANNOSCALE
350
10095
  3
CMLEADERSTYLE
350
10091
  3
CTABLESTYLE
350
10090
  3
CVIEWDETAILSTYLE
350
10092
  3
CVIEWSECTIONSTYLE
350
10093
  3
LAYEREVAL
350
10097
  3
LAYERNOTIFY
350
10098
  3
LIGHTINGUNITS
350
10096
  3
MSLTSCALE
350
10094
  0
XRECORD
  5
1008E
102
{ACAD_REACTORS
330
1008D
102
}
330
1008D
100
AcDbXrecord
280
     1
290
     1
  0
ACDBDETAILVIEWSTYLE
  5
10052
102
{ACAD_REACTORS
330
10051
102
}
330
10051
100
AcDbModelDocViewStyle
 70
     0
  3
Imperial24
290
     0
300
Imperial24
 90
        0
100
AcDbDetailViewStyle
 70
     0
 71
     0
 90
        3
 71
     1
340
11
 62
   256
 40
0.24
340
0
 62
   256
 40
0.24
300

 40
0.36
280
     3
 71
     2
340
0
 90
       25
 62
   256
 71
     3
340
11
 62
   256
 40
0.24
 90
        1
 40
0.75
 90
        1
300
%<\AcVar ViewType \f "%tc1">% %<\AcVar ViewDetailId>%\PSCALE %<\AcVar ViewScale \f "%sn">%
 71
     4
340
0
 90
       25
 62
   256
340
0
 90
       25
 62
   256
280
     0
  0
LAYOUT
  5
10056
102
{ACAD_REACTORS
330
10037
102
}
330
10037
100
AcDbPlotSettings
  1

  2
Microsoft Print to PDF
  4

  6

 40
0.0
 41
0.0
 42
0.0
 43
0.0
 44
0.0
 45
0.0
 46
0.0
 47
0.0
 48
0.0
 49
0.0
140
0.0
141
0.0
142
1.0
143
1.0
 70
   688
 72
     0
 73
     0
 74
     5
  7

 75
    16
147
1.0
 76
     0
 77
     2
 78
   300
148
0.0
149
0.0
100
AcDbLayout
  1
Layout1
 70
     1
 71
     1
 10
0.0
 20
0.0
 11
12.0
 21
9.0
 12
0.0
 22
0.0
 32
0.0
 14
1.000000000000000E+20
 24
1.000000000000000E+20
 34
1.000000000000000E+20
 15
-1.000000000000000E+20
 25
-1.000000000000000E+20
 35
-1.000000000000000E+20
146
0.0
 13
0.0
 23
0.0
 33
0.0
 16
1.0
 26
0.0
 36
0.0
 17
0.0
 27
1.0
 37
0.0
 76
     0
330
1B
  0
LAYOUT
  5
10055
102
{ACAD_REACTORS
330
10037
102
}
330
10037
100
AcDbPlotSettings
  1

  2
Microsoft Print to PDF
  4

  6

 40
0.0
 41
0.0
 42
0.0
 43
0.0
 44
0.0
 45
0.0
 46
0.0
 47
0.0
 48
0.0
 49
0.0
140
0.0
141
0.0
142
1.0
143
1.0
 70
  1712
 72
     0
 73
     0
 74
     0
  7

 75
     0
147
1.0
 76
     0
 77
     2
 78
   300
148
0.0
149
0.0
100
AcDbLayout
  1
Model
 70
     1
 71
     0
 10
0.0
 20
0.0
 11
12.0
 21
9.0
 12
0.0
 22
0.0
 32
0.0
 14
0.0
 24
0.0
 34
0.0
 15
0.0
 25
0.0
 35
0.0
146
0.0
 13
0.0
 23
0.0
 33
0.0
 16
1.0
 26
0.0
 36
0.0
 17
0.0
 27
1.0
 37
0.0
 76
     0
330
1F
331
10059
  0
MATERIAL
  5
1000D
102
{ACAD_XDICTIONARY
360
1000E
102
}
102
{ACAD_REACTORS
330
10004
102
}
330
10004
100
AcDbMaterial
  1
ByBlock
 72
     0
 43
0.0008202099737533
 43
0.0
 43
0.0
 43
0.0
 43
0.0
 43
0.0008202099737533
 43
0.0
 43
0.0
 43
0.0
 43
0.0
 43
1.0
 43
0.0
 43
0.0
 43
0.0
 43
0.0
 43
1.0
 77
     0
 47
0.0008202099737533
 47
0.0
 47
0.0
 47
0.0
 47
0.0
 47
0.0008202099737533
 47
0.0
 47
0.0
 47
0.0
 47
0.0
 47
1.0
 47
0.0
 47
0.0
 47
0.0
 47
0.0
 47
1.0
171
     0
 49
0.0008202099737533
 49
0.0
 49
0.0
 49
0.0
 49
0.0
 49
0.0008202099737533
 49
0.0
 49
0.0
 49
0.0
 49
0.0
 49
1.0
 49
0.0
 49
0.0
 49
0.0
 49
0.0
 49
1.0
175
     0
142
0.0008202099737533
142
0.0
142
0.0
142
0.0
142
0.0
142
0.0008202099737533
142
0.0
142
0.0
142
0.0
142
0.0
142
1.0
142
0.0
142
0.0
142
0.0
142
0.0
142
1.0
179
     0
144
0.0008202099737533
144
0.0
144
0.0
144
0.0
144
0.0
144
0.0008202099737533
144
0.0
144
0.0
144
0.0
144
0.0
144
1.0
144
0.0
144
0.0
144
0.0
144
0.0
144
1.0
147
0.0008202099737533
147
0.0
147
0.0
147
0.0
147
0.0
147
0.0008202099737533
147
0.0
147
0.0
147
0.0
147
0.0
147
1.0
147
0.0
147
0.0
147
0.0
147
0.0
147
1.0
  0
MATERIAL
  5
10005
102
{ACAD_XDICTIONARY
360
10006
102
}
102
{ACAD_REACTORS
330
10004
102
}
330
10004
100
AcDbMaterial
  1
ByLayer
 72
     0
 43
0.0008202099737533
 43
0.0
 43
0.0
 43
0.0
 43
0.0
 43
0.0008202099737533
 43
0.0
 43
0.0
 43
0.0
 43
0.0
 43
1.0
 43
0.0
 43
0.0
 43
0.0
 43
0.0
 43
1.0
 77
     0
 47
0.0008202099737533
 47
0.0
 47
0.0
 47
0.0
 47
0.0
 47
0.0008202099737533
 47
0.0
 47
0.0
 47
0.0
 47
0.0
 47
1.0
 47
0.0
 47
0.0
 47
0.0
 47
0.0
 47
1.0
171
     0
 49
0.0008202099737533
 49
0.0
 49
0.0
 49
0.0
 49
0.0
 49
0.0008202099737533
 49
0.0
 49
0.0
 49
0.0
 49
0.0
 49
1.0
 49
0.0
 49
0.0
 49
0.0
 49
0.0
 49
1.0
175
     0
142
0.0008202099737533
142
0.0
142
0.0
142
0.0
142
0.0
142
0.0008202099737533
142
0.0
142
0.0
142
0.0
142
0.0
142
1.0
142
0.0
142
0.0
142
0.0
142
0.0
142
1.0
179
     0
144
0.0008202099737533
144
0.0
144
0.0
144
0.0
144
0.0
144
0.0008202099737533
144
0.0
144
0.0
144
0.0
144
0.0
144
1.0
144
0.0
144
0.0
144
0.0
144
0.0
144
1.0
147
0.0008202099737533
147
0.0
147
0.0
147
0.0
147
0.0
147
0.0008202099737533
147
0.0
147
0.0
147
0.0
147
0.0
147
1.0
147
0.0
147
0.0
147
0.0
147
0.0
147
1.0
  0
MATERIAL
  5
10015
102
{ACAD_XDICTIONARY
360
10016
102
}
102
{ACAD_REACTORS
330
10004
102
}
330
10004
100
AcDbMaterial
  1
Global
 72
     0
 43
0.0008202099737533
 43
0.0
 43
0.0
 43
0.0
 43
0.0
 43
0.0008202099737533
 43
0.0
 43
0.0
 43
0.0
 43
0.0
 43
1.0
 43
0.0
 43
0.0
 43
0.0
 43
0.0
 43
1.0
 77
     0
 47
0.0008202099737533
 47
0.0
 47
0.0
 47
0.0
 47
0.0
 47
0.0008202099737533
 47
0.0
 47
0.0
 47
0.0
 47
0.0
 47
1.0
 47
0.0
 47
0.0
 47
0.0
 47
0.0
 47
1.0
171
     0
 49
0.0008202099737533
 49
0.0
 49
0.0
 49
0.0
 49
0.0
 49
0.0008202099737533
 49
0.0
 49
0.0
 49
0.0
 49
0.0
 49
1.0
 49
0.0
 49
0.0
 49
0.0
 49
0.0
 49
1.0
175
     0
142
0.0008202099737533
142
0.0
142
0.0
142
0.0
142
0.0
142
0.0008202099737533
142
0.0
142
0.0
142
0.0
142
0.0
142
1.0
142
0.0
142
0.0
142
0.0
142
0.0
142
1.0
179
     0
144
0.0008202099737533
144
0.0
144
0.0
144
0.0
144
0.0
144
0.0008202099737533
144
0.0
144
0.0
144
0.0
144
0.0
144
1.0
144
0.0
144
0.0
144
0.0
144
0.0
144
1.0
147
0.0008202099737533
147
0.0
147
0.0
147
0.0
147
0.0
147
0.0008202099737533
147
0.0
147
0.0
147
0.0
147
0.0
147
1.0
147
0.0
147
0.0
147
0.0
147
0.0
147
1.0
  0
MLEADERSTYLE
  5
1004E
102
{ACAD_REACTORS
330
1004D
102
}
330
1004D
100
AcDbMLeaderStyle
179
     2
170
     2
171
     1
172
     0
 90
        2
 40
0.0
 41
0.0
173
     1
 91
-1056964608
340
14
 92
       -2
290
     1
 42
0.09
291
     1
 43
0.36
  3
Standard
 44
0.18
300

342
11
174
     1
178
     6
175
     1
176
     0
 93
-1056964608
 45
0.18
292
     0
297
     0
 46
0.18
 94
-1056964608
 47
1.0
 49
1.0
140
1.0
293
     1
141
0.0
294
     1
177
     0
142
1.0
295
     0
296
     0
143
0.125
271
     0
272
     9
273
     9
298
     0
  0
MLINESTYLE
  5
1003A
102
{ACAD_REACTORS
330
17
102
}
330
17
100
AcDbMlineStyle
  2
STANDARD
 70
     0
  3

 62
   256
 51
90.0
 52
90.0
 71
     2
 49
0.5
 62
   256
  6
BYLAYER
 49
-0.5
 62
   256
  6
BYLAYER
  0
ACDBPLACEHOLDER
  5
10003
102
{ACAD_REACTORS
330
10002
102
}
330
10002
  0
SCALE
  5
1003C
102
{ACAD_REACTORS
330
1003B
102
}
330
1003B
100
AcDbScale
 70
     0
300
1:1
140
1.0
141
1.0
290
     1
  0
SCALE
  5
1003D
102
{ACAD_REACTORS
330
1003B
102
}
330
1003B
100
AcDbScale
 70
     0
300
1/128" = 1'-0"
140
0.0078125
141
12.0
290
     0
  0
SCALE
  5
1003E
102
{ACAD_REACTORS
330
1003B
102
}
330
1003B
100
AcDbScale
 70
     0
300
1/64" = 1'-0"
140
0.015625
141
12.0
290
     0
  0
SCALE
  5
1003F
102
{ACAD_REACTORS
330
1003B
102
}
330
1003B
100
AcDbScale
 70
     0
300
1/32" = 1'-0"
140
0.03125
141
12.0
290
     0
  0
SCALE
  5
10040
102
{ACAD_REACTORS
330
1003B
102
}
330
1003B
100
AcDbScale
 70
     0
300
1/16" = 1'-0"
140
0.0625
141
12.0
290
     0
  0
SCALE
  5
10041
102
{ACAD_REACTORS
330
1003B
102
}
330
1003B
100
AcDbScale
 70
     0
300
3/32" = 1'-0"
140
0.09375
141
12.0
290
     0
  0
SCALE
  5
10042
102
{ACAD_REACTORS
330
1003B
102
}
330
1003B
100
AcDbScale
 70
     0
300
1/8" = 1'-0"
140
0.125
141
12.0
290
     0
  0
SCALE
  5
10043
102
{ACAD_REACTORS
330
1003B
102
}
330
1003B
100
AcDbScale
 70
     0
300
3/16" = 1'-0"
140
0.1875
141
12.0
290
     0
  0
SCALE
  5
10044
102
{ACAD_REACTORS
330
1003B
102
}
330
1003B
100
AcDbScale
 70
     0
300
1/4" = 1'-0"
140
0.25
141
12.0
290
     0
  0
SCALE
  5
10045
102
{ACAD_REACTORS
330
1003B
102
}
330
1003B
100
AcDbScale
 70
     0
300
3/8" = 1'-0"
140
0.375
141
12.0
290
     0
  0
SCALE
  5
10046
102
{ACAD_REACTORS
330
1003B
102
}
330
1003B
100
AcDbScale
 70
     0
300
1/2" = 1'-0"
140
0.5
141
12.0
290
     0
  0
SCALE
  5
10047
102
{ACAD_REACTORS
330
1003B
102
}
330
1003B
100
AcDbScale
 70
     0
300
3/4" = 1'-0"
140
0.75
141
12.0
290
     0
  0
SCALE
  5
10048
102
{ACAD_REACTORS
330
1003B
102
}
330
1003B
100
AcDbScale
 70
     0
300
1" = 1'-0"
140
1.0
141
12.0
290
     0
  0
SCALE
  5
10049
102
{ACAD_REACTORS
330
1003B
102
}
330
1003B
100
AcDbScale
 70
     0
300
1-1/2" = 1'-0"
140
1.5
141
12.0
290
     0
  0
SCALE
  5
1004A
102
{ACAD_REACTORS
330
1003B
102
}
330
1003B
100
AcDbScale
 70
     0
300
3" = 1'-0"
140
3.0
141
12.0
290
     0
  0
SCALE
  5
1004B
102
{ACAD_REACTORS
330
1003B
102
}
330
1003B
100
AcDbScale
 70
     0
300
6" = 1'-0"
140
6.0
141
12.0
290
     0
  0
SCALE
  5
1004C
102
{ACAD_REACTORS
330
1003B
102
}
330
1003B
100
AcDbScale
 70
     0
300
1'-0" = 1'-0"
140
12.0
141
12.0
290
     0
  0
ACDBSECTIONVIEWSTYLE
  5
10050
102
{ACAD_REACTORS
330
1004F
102
}
330
1004F
100
AcDbModelDocViewStyle
 70
     0
  3
Imperial24
290
     0
300
Imperial24
 90
        0
100
AcDbSectionViewStyle
 70
     0
 71
     0
 90
       78
 71
     1
340
11
 62
   256
 40
0.24
340
0
340
0
 62
   256
 40
0.24
300
I, O, Q, S, X, Z
 40
0.48
 90
        3
 40
0.18
 90
        1
 71
     2
340
0
 90
       25
 62
   256
340
0
 90
       50
 62
   256
 40
0.24
 40
0.0
 40
0.24
 71
     3
340
11
 62
   256
 40
0.24
 90
        1
 40
0.75
 90
        1
300
%<\AcVar ViewType \f "%tc1">% %<\AcVar ViewSectionStartId>%-%<\AcVar ViewSectionEndId>%\PSCALE %<\AcVar ViewScale \f "%sn">%
 71
     4
 62
   256
 62
   257
300
ANSI31
 40
1.0
 90
        0
290
     0
290
     0
 90
        6
 40
0.0
 40
1.570796326794896
 40
0.2617993877991494
 40
1.308996938995747
 40
-0.2617993877991494
 40
1.832595714594046
  0
TABLESTYLE
  5
10039
102
{ACAD_XDICTIONARY
360
10099
102
}
102
{ACAD_REACTORS
330
10038
102
}
330
10038
100
AcDbTableStyle
280
     0
  3
Standard
 70
     0
 71
     0
 40
0.06
 41
0.06
280
     0
281
     0
  7
STANDARD
140
0.18
170
     2
 62
     0
 63
     7
283
     0
 90
      512
 91
        0
  1

274
    -2
284
     1
 64
     0
275
    -2
285
     1
 65
     0
276
    -2
286
     1
 66
     0
277
    -2
287
     1
 67
     0
278
    -2
288
     1
 68
     0
279
    -2
289
     1
 69
     0
  7
STANDARD
140
0.25
170
     5
 62
     0
 63
     7
283
     0
 90
      512
 91
        0
  1

274
    -2
284
     1
 64
     0
275
    -2
285
     1
 65
     0
276
    -2
286
     1
 66
     0
277
    -2
287
     1
 67
     0
278
    -2
288
     1
 68
     0
279
    -2
289
     1
 69
     0
  7
STANDARD
140
0.18
170
     5
 62
     0
 63
     7
283
     0
 90
      512
 91
        0
  1

274
    -2
284
     1
 64
     0
275
    -2
285
     1
 65
     0
276
    -2
286
     1
 66
     0
277
    -2
287
     1
 67
     0
278
    -2
288
     1
 68
     0
279
    -2
289
     1
 69
     0
  0
VISUALSTYLE
  5
10023
102
{ACAD_REACTORS
330
1001D
102
}
330
1001D
100
AcDbVisualStyle
  2
2dWireframe
 70
     4
177
     3
291
     0
 70
    58
 90
        0
176
     1
 90
        2
176
     1
 90
        0
176
     1
 90
        0
176
     1
 40
0.6
176
     1
 40
30.0
176
     1
 62
     7
420
 16777215
176
     1
 90
        1
176
     1
 90
        4
176
     1
 62
     7
176
     1
 62
   257
176
     1
 90
        1
176
     1
 90
        1
176
     1
 40
1.0
176
     1
 90
        0
176
     1
 62
   257
176
     1
 40
1.0
176
     1
 90
        1
176
     1
 90
        6
176
     1
 90
        2
176
     1
 62
     7
176
     1
 90
        5
176
     1
 90
        0
176
     1
 90
        0
176
     1
290
     0
176
     1
 90
        1
176
     1
 40
0.0
176
     1
 90
        0
176
     1
290
     1
176
     1
290
     1
176
     1
290
     0
176
     1
290
     0
176
     1
290
     0
176
     1
290
     0
176
     1
290
     0
176
     1
290
     0
176
     1
290
     0
176
     1
 90
       50
176
     1
 40
0.0
176
     1
 40
1.0
176
     1
 90
        0
176
     1
 62
    18
420
        0
176
     1
 90
       50
176
     1
 90
        3
176
     1
 62
     5
420
      255
176
     1
290
     0
176
     1
 90
       50
176
     1
 90
       50
176
     1
 90
       50
176
     1
290
     0
176
     1
 90
       50
176
     1
 62
   256
176
     0
 40
1.0
176
     0
 90
        2
176
     1
  1
strokes_ogs.tif
176
     1
290
     0
176
     1
 40
1.0
176
     1
 40
1.0
176
     1
  0
VISUALSTYLE
  5
10022
102
{ACAD_REACTORS
330
1001D
102
}
330
1001D
100
AcDbVisualStyle
  2
Basic
 70
     7
177
     3
291
     1
 70
    58
 90
        1
176
     1
 90
        0
176
     1
 90
        1
176
     1
 90
        0
176
     1
 40
0.6
176
     1
 40
30.0
176
     1
 62
     7
420
 16777215
176
     1
 90
        0
176
     1
 90
        4
176
     1
 62
     7
176
     1
 62
   257
176
     1
 90
        1
176
     1
 90
        1
176
     1
 40
1.0
176
     1
 90
        8
176
     1
 62
     7
176
     1
 40
1.0
176
     1
 90
        1
176
     1
 90
        6
176
     1
 90
        2
176
     1
 62
     7
176
     1
 90
        5
176
     1
 90
        0
176
     1
 90
        0
176
     1
290
     0
176
     1
 90
        1
176
     1
 40
0.0
176
     1
 90
        0
176
     1
290
     0
176
     1
290
     1
176
     1
290
     1
176
     1
290
     0
176
     1
290
     0
176
     1
290
     0
176
     1
290
     0
176
     1
290
     0
176
     1
290
     0
176
     1
 90
       50
176
     1
 40
0.0
176
     1
 40
1.0
176
     1
 90
        0
176
     1
 62
    18
420
        0
176
     1
 90
       50
176
     1
 90
        3
176
     1
 62
     5
420
      255
176
     1
290
     0
176
     1
 90
       50
176
     1
 90
       50
176
     1
 90
       50
176
     1
290
     0
176
     1
 90
       50
176
     1
 62
   256
176
     0
 40
1.0
176
     0
 90
        2
176
     1
  1
strokes_ogs.tif
176
     1
290
     0
176
     1
 40
1.0
176
     1
 40
1.0
176
     1
  0
VISUALSTYLE
  5
10029
102
{ACAD_REACTORS
330
1001D
102
}
330
1001D
100
AcDbVisualStyle
  2
Brighten
 70
    12
177
     3
291
     1
 70
    58
 90
        2
176
     1
 90
        2
176
     1
 90
        0
176
     1
 90
        0
176
     1
 40
0.6
176
     1
 40
30.0
176
     1
 62
     7
420
 16777215
176
     1
 90
        1
176
     1
 90
        4
176
     1
 62
     7
176
     1
 62
   257
176
     1
 90
        1
176
     1
 90
        1
176
     1
 40
1.0
176
     1
 90
        8
176
     1
 62
     7
176
     1
 40
1.0
176
     1
 90
        1
176
     1
 90
        6
176
     1
 90
        2
176
     1
 62
     7
176
     1
 90
        5
176
     1
 90
        0
176
     1
 90
        0
176
     1
290
     0
176
     1
 90
        1
176
     1
 40
50.0
176
     1
 90
        0
176
     1
290
     0
176
     1
290
     1
176
     1
290
     1
176
     1
290
     0
176
     1
290
     0
176
     1
290
     0
176
     1
290
     0
176
     1
290
     0
176
     1
290
     0
176
     1
 90
       50
176
     1
 40
0.0
176
     1
 40
1.0
176
     1
 90
        0
176
     1
 62
    18
420
        0
176
     1
 90
       50
176
     1
 90
        3
176
     1
 62
     5
420
      255
176
     1
290
     0
176
     1
 90
       50
176
     1
 90
       50
176
     1
 90
       50
176
     1
290
     0
176
     1
 90
       50
176
     1
 62
   256
176
     0
 40
1.0
176
     0
 90
        2
176
     1
  1
strokes_ogs.tif
176
     1
290
     0
176
     1
 40
1.0
176
     1
 40
1.0
176
     1
  0
VISUALSTYLE
  5
1002D
102
{ACAD_REACTORS
330
1001D
102
}
330
1001D
100
AcDbVisualStyle
  2
ColorChange
 70
    16
177
     3
291
     1
 70
    58
 90
        2
176
     1
 90
        2
176
     1
 90
        3
176
     1
 90
        0
176
     1
 40
0.6
176
     1
 40
30.0
176
     1
 62
     8
420
  8421504
176
     1
 90
        1
176
     1
 90
        4
176
     1
 62
     7
176
     1
 62
   257
176
     1
 90
        1
176
     1
 90
        1
176
     1
 40
1.0
176
     1
 90
        8
176
     1
 62
     8
420
  8421504
176
     1
 40
1.0
176
     1
 90
        1
176
     1
 90
        6
176
     1
 90
        2
176
     1
 62
     7
176
     1
 90
        5
176
     1
 90
        0
176
     1
 90
        0
176
     1
290
     0
176
     1
 90
        1
176
     1
 40
0.0
176
     1
 90
        0
176
     1
290
     0
176
     1
290
     1
176
     1
290
     1
176
     1
290
     0
176
     1
290
     0
176
     1
290
     0
176
     1
290
     0
176
     1
290
     0
176
     1
290
     0
176
     1
 90
       50
176
     1
 40
0.0
176
     1
 40
1.0
176
     1
 90
        0
176
     1
 62
    18
420
        0
176
     1
 90
       50
176
     1
 90
        3
176
     1
 62
     5
420
      255
176
     1
290
     0
176
     1
 90
       50
176
     1
 90
       50
176
     1
 90
       50
176
     1
290
     0
176
     1
 90
       50
176
     1
 62
   256
176
     0
 40
1.0
176
     0
 90
        2
176
     1
  1
strokes_ogs.tif
176
     1
290
     0
176
     1
 40
1.0
176
     1
 40
1.0
176
     1
  0
VISUALSTYLE
  5
10026
102
{ACAD_REACTORS
330
1001D
102
}
330
1001D
100
AcDbVisualStyle
  2
Conceptual
 70
     9
177
     3
291
     0
 70
    58
 90
        3
176
     1
 90
        2
176
     1
 90
        0
176
     1
 90
        0
176
     1
 40
0.6
176
     1
 40
30.0
176
     1
 62
     7
420
 16777215
176
     1
 90
        2
176
     1
 90
        2
176
     1
 62
     7
176
     1
 62
   257
176
     1
 90
        1
176
     1
 90
        1
176
     1
 40
179.0
176
     1
 90
        8
176
     1
 62
     7
176
     1
 40
1.0
176
     1
 90
        1
176
     1
 90
        6
176
     1
 90
        2
176
     1
 62
     7
176
     1
 90
        3
176
     1
 90
        0
176
     1
 90
        0
176
     1
290
     0
176
     1
 90
        1
176
     1
 40
0.0
176
     1
 90
        0
176
     1
290
     0
176
     1
290
     1
176
     1
290
     1
176
     1
290
     0
176
     1
290
     0
176
     1
290
     0
176
     1
290
     0
176
     1
290
     0
176
     1
290
     0
176
     1
 90
       50
176
     1
 40
0.0
176
     1
 40
1.0
176
     1
 90
        0
176
     1
 62
    18
420
        0
176
     1
 90
       50
176
     1
 90
        3
176
     1
 62
     5
420
      255
176
     1
290
     0
176
     1
 90
       50
176
     1
 90
       50
176
     1
 90
       50
176
     1
290
     0
176
     1
 90
       50
176
     1
 62
   256
176
     0
 40
1.0
176
     0
 90
        2
176
     1
  1
strokes_ogs.tif
176
     1
290
     0
176
     1
 40
1.0
176
     1
 40
1.0
176
     1
  0
VISUALSTYLE
  5
10028
102
{ACAD_REACTORS
330
1001D
102
}
330
1001D
100
AcDbVisualStyle
  2
Dim
 70
    11
177
     3
291
     1
 70
    58
 90
        2
176
     1
 90
        2
176
     1
 90
        0
176
     1
 90
        0
176
     1
 40
0.6
176
     1
 40
30.0
176
     1
 62
     7
420
 16777215
176
     1
 90
        1
176
     1
 90
        4
176
     1
 62
     7
176
     1
 62
   257
176
     1
 90
        1
176
     1
 90
        1
176
     1
 40
1.0
176
     1
 90
        8
176
     1
 62
     7
176
     1
 40
1.0
176
     1
 90
        1
176
     1
 90
        6
176
     1
 90
        2
176
     1
 62
     7
176
     1
 90
        5
176
     1
 90
        0
176
     1
 90
        0
176
     1
290
     0
176
     1
 90
        1
176
     1
 40
-50.0
176
     1
 90
        0
176
     1
290
     0
176
     1
290
     1
176
     1
290
     1
176
     1
290
     0
176
     1
290
     0
176
     1
290
     0
176
     1
290
     0
176
     1
290
     0
176
     1
290
     0
176
     1
 90
       50
176
     1
 40
0.0
176
     1
 40
1.0
176
     1
 90
        0
176
     1
 62
    18
420
        0
176
     1
 90
       50
176
     1
 90
        3
176
     1
 62
     5
420
      255
176
     1
290
     0
176
     1
 90
       50
176
     1
 90
       50
176
     1
 90
       50
176
     1
290
     0
176
     1
 90
       50
176
     1
 62
   256
176
     0
 40
1.0
176
     0
 90
        2
176
     1
  1
strokes_ogs.tif
176
     1
290
     0
176
     1
 40
1.0
176
     1
 40
1.0
176
     1
  0
VISUALSTYLE
  5
10035
102
{ACAD_REACTORS
330
1001D
102
}
330
1001D
100
AcDbVisualStyle
  2
EdgeColorOff
 70
    22
177
     3
291
     1
 70
    58
 90
        2
176
     0
 90
        2
176
     0
 90
        0
176
     0
 90
        0
176
     0
 40
0.6
176
     0
 40
30.0
176
     0
 62
     7
420
 16777215
176
     0
 90
        1
176
     0
 90
        4
176
     0
 62
     7
176
     0
 62
   257
176
     0
 90
        1
176
     0
 90
        1
176
     0
 40
1.0
176
     0
 90
        8
176
     2
 62
     7
176
     0
 40
1.0
176
     0
 90
        1
176
     0
 90
        6
176
     0
 90
        2
176
     0
 62
     7
176
     0
 90
        5
176
     0
 90
        0
176
     0
 90
        0
176
     0
290
     0
176
     0
 90
        1
176
     0
 40
0.0
176
     0
 90
        0
176
     0
290
     0
176
     1
290
     1
176
     1
290
     1
176
     1
290
     0
176
     1
290
     0
176
     1
290
     0
176
     1
290
     0
176
     1
290
     0
176
     1
290
     0
176
     1
 90
       50
176
     0
 40
0.0
176
     0
 40
1.0
176
     0
 90
        0
176
     0
 62
    18
420
        0
176
     0
 90
       50
176
     0
 90
        3
176
     0
 62
     5
420
      255
176
     0
290
     0
176
     1
 90
       50
176
     0
 90
       50
176
     0
 90
       50
176
     0
290
     0
176
     1
 90
       50
176
     0
 62
   256
176
     0
 40
1.0
176
     0
 90
        2
176
     0
  1
strokes_ogs.tif
176
     0
290
     0
176
     1
 40
1.0
176
     0
 40
1.0
176
     0
  0
VISUALSTYLE
  5
1002C
102
{ACAD_REACTORS
330
1001D
102
}
330
1001D
100
AcDbVisualStyle
  2
Facepattern
 70
    15
177
     3
291
     1
 70
    58
 90
        2
176
     1
 90
        2
176
     1
 90
        0
176
     1
 90
        0
176
     1
 40
0.6
176
     1
 40
30.0
176
     1
 62
     7
420
 16777215
176
     1
 90
        1
176
     1
 90
        4
176
     1
 62
     7
176
     1
 62
   257
176
     1
 90
        1
176
     1
 90
        1
176
     1
 40
1.0
176
     1
 90
        8
176
     1
 62
     7
176
     1
 40
1.0
176
     1
 90
        1
176
     1
 90
        6
176
     1
 90
        2
176
     1
 62
     7
176
     1
 90
        5
176
     1
 90
        0
176
     1
 90
        0
176
     1
290
     0
176
     1
 90
        1
176
     1
 40
0.0
176
     1
 90
        0
176
     1
290
     0
176
     1
290
     1
176
     1
290
     1
176
     1
290
     0
176
     1
290
     0
176
     1
290
     0
176
     1
290
     0
176
     1
290
     0
176
     1
290
     0
176
     1
 90
       50
176
     1
 40
0.0
176
     1
 40
1.0
176
     1
 90
        0
176
     1
 62
    18
420
        0
176
     1
 90
       50
176
     1
 90
        3
176
     1
 62
     5
420
      255
176
     1
290
     0
176
     1
 90
       50
176
     1
 90
       50
176
     1
 90
       50
176
     1
290
     0
176
     1
 90
       50
176
     1
 62
   256
176
     0
 40
1.0
176
     0
 90
        2
176
     1
  1
strokes_ogs.tif
176
     1
290
     0
176
     1
 40
1.0
176
     1
 40
1.0
176
     1
  0
VISUALSTYLE
  5
1001E
102
{ACAD_REACTORS
330
1001D
102
}
330
1001D
100
AcDbVisualStyle
  2
Flat
 70
     0
177
     3
291
     1
 70
    58
 90
        2
176
     1
 90
        1
176
     1
 90
        1
176
     1
 90
        2
176
     1
 40
0.6
176
     1
 40
30.0
176
     1
 62
     7
420
 16777215
176
     1
 90
        0
176
     1
 90
        0
176
     1
 62
     7
176
     1
 62
   257
176
     1
 90
        1
176
     1
 90
        1
176
     1
 40
1.0
176
     1
 90
        8
176
     1
 62
     7
176
     1
 40
1.0
176
     1
 90
        1
176
     1
 90
        6
176
     1
 90
        2
176
     1
 62
     7
176
     1
 90
        5
176
     1
 90
        0
176
     1
 90
        0
176
     1
290
     0
176
     1
 90
       13
176
     1
 40
0.0
176
     1
 90
        0
176
     1
290
     0
176
     1
290
     1
176
     1
290
     1
176
     1
290
     0
176
     1
290
     0
176
     1
290
     0
176
     1
290
     0
176
     1
290
     0
176
     1
290
     0
176
     1
 90
       50
176
     1
 40
0.0
176
     1
 40
1.0
176
     1
 90
        0
176
     1
 62
    18
420
        0
176
     1
 90
       50
176
     1
 90
        3
176
     1
 62
     5
420
      255
176
     1
290
     0
176
     1
 90
       50
176
     1
 90
       50
176
     1
 90
       50
176
     1
290
     0
176
     1
 90
       50
176
     1
 62
   256
176
     0
 40
1.0
176
     0
 90
        2
176
     1
  1
strokes_ogs.tif
176
     1
290
     0
176
     1
 40
1.0
176
     1
 40
1.0
176
     1
  0
VISUALSTYLE
  5
1001F
102
{ACAD_REACTORS
330
1001D
102
}
330
1001D
100
AcDbVisualStyle
  2
FlatWithEdges
 70
     1
177
     3
291
     1
 70
    58
 90
        2
176
     1
 90
        1
176
     1
 90
        1
176
     1
 90
        2
176
     1
 40
0.6
176
     1
 40
30.0
176
     1
 62
     7
420
 16777215
176
     1
 90
        1
176
     1
 90
        0
176
     1
 62
     7
176
     1
 62
   257
176
     1
 90
        1
176
     1
 90
        1
176
     1
 40
1.0
176
     1
 90
        0
176
     1
 62
   257
176
     1
 40
1.0
176
     1
 90
        1
176
     1
 90
        6
176
     1
 90
        2
176
     1
 62
     7
176
     1
 90
        5
176
     1
 90
        0
176
     1
 90
        0
176
     1
290
     0
176
     1
 90
       13
176
     1
 40
0.0
176
     1
 90
        0
176
     1
290
     0
176
     1
290
     1
176
     1
290
     1
176
     1
290
     0
176
     1
290
     0
176
     1
290
     0
176
     1
290
     0
176
     1
290
     0
176
     1
290
     0
176
     1
 90
       50
176
     1
 40
0.0
176
     1
 40
1.0
176
     1
 90
        0
176
     1
 62
    18
420
        0
176
     1
 90
       50
176
     1
 90
        3
176
     1
 62
     5
420
      255
176
     1
290
     0
176
     1
 90
       50
176
     1
 90
       50
176
     1
 90
       50
176
     1
290
     0
176
     1
 90
       50
176
     1
 62
   256
176
     0
 40
1.0
176
     0
 90
        2
176
     1
  1
strokes_ogs.tif
176
     1
290
     0
176
     1
 40
1.0
176
     1
 40
1.0
176
     1
  0
VISUALSTYLE
  5
10020
102
{ACAD_REACTORS
330
1001D
102
}
330
1001D
100
AcDbVisualStyle
  2
Gouraud
 70
     2
177
     3
291
     1
 70
    58
 90
        2
176
     1
 90
        2
176
     1
 90
        1
176
     1
 90
        2
176
     1
 40
0.6
176
     1
 40
30.0
176
     1
 62
     7
420
 16777215
176
     1
 90
        0
176
     1
 90
        0
176
     1
 62
     7
176
     1
 62
   257
176
     1
 90
        1
176
     1
 90
        1
176
     1
 40
1.0
176
     1
 90
        0
176
     1
 62
     7
176
     1
 40
1.0
176
     1
 90
        1
176
     1
 90
        6
176
     1
 90
        2
176
     1
 62
     7
176
     1
 90
        5
176
     1
 90
        0
176
     1
 90
        0
176
     1
290
     0
176
     1
 90
       13
176
     1
 40
0.0
176
     1
 90
        0
176
     1
290
     0
176
     1
290
     1
176
     1
290
     1
176
     1
290
     0
176
     1
290
     0
176
     1
290
     0
176
     1
290
     0
176
     1
290
     0
176
     1
290
     0
176
     1
 90
       50
176
     1
 40
0.0
176
     1
 40
1.0
176
     1
 90
        0
176
     1
 62
    18
420
        0
176
     1
 90
       50
176
     1
 90
        3
176
     1
 62
     5
420
      255
176
     1
290
     0
176
     1
 90
       50
176
     1
 90
       50
176
     1
 90
       50
176
     1
290
     0
176
     1
 90
       50
176
     1
 62
   256
176
     0
 40
1.0
176
     0
 90
        2
176
     1
  1
strokes_ogs.tif
176
     1
290
     0
176
     1
 40
1.0
176
     1
 40
1.0
176
     1
  0
VISUALSTYLE
  5
10021
102
{ACAD_REACTORS
330
1001D
102
}
330
1001D
100
AcDbVisualStyle
  2
GouraudWithEdges
 70
     3
177
     3
291
     1
 70
    58
 90
        2
176
     1
 90
        2
176
     1
 90
        1
176
     1
 90
        2
176
     1
 40
0.6
176
     1
 40
30.0
176
     1
 62
     7
420
 16777215
176
     1
 90
        1
176
     1
 90
        0
176
     1
 62
     7
176
     1
 62
   257
176
     1
 90
        1
176
     1
 90
        1
176
     1
 40
1.0
176
     1
 90
        0
176
     1
 62
   257
176
     1
 40
1.0
176
     1
 90
        1
176
     1
 90
        6
176
     1
 90
        2
176
     1
 62
     7
176
     1
 90
        5
176
     1
 90
        0
176
     1
 90
        0
176
     1
290
     0
176
     1
 90
       13
176
     1
 40
0.0
176
     1
 90
        0
176
     1
290
     0
176
     1
290
     1
176
     1
290
     1
176
     1
290
     0
176
     1
290
     0
176
     1
290
     0
176
     1
290
     0
176
     1
290
     0
176
     1
290
     0
176
     1
 90
       50
176
     1
 40
0.0
176
     1
 40
1.0
176
     1
 90
        0
176
     1
 62
    18
420
        0
176
     1
 90
       50
176
     1
 90
        3
176
     1
 62
     5
420
      255
176
     1
290
     0
176
     1
 90
       50
176
     1
 90
       50
176
     1
 90
       50
176
     1
290
     0
176
     1
 90
       50
176
     1
 62
   256
176
     0
 40
1.0
176
     0
 90
        2
176
     1
  1
strokes_ogs.tif
176
     1
290
     0
176
     1
 40
1.0
176
     1
 40
1.0
176
     1
  0
VISUALSTYLE
  5
10025
102
{ACAD_REACTORS
330
1001D
102
}
330
1001D
100
AcDbVisualStyle
  2
Hidden
 70
     6
177
     3
291
     0
 70
    58
 90
        1
176
     1
 90
        2
176
     1
 90
        2
176
     1
 90
        0
176
     1
 40
0.6
176
     1
 40
30.0
176
     1
 62
     7
420
 16777215
176
     1
 90
        2
176
     1
 90
        2
176
     1
 62
     7
176
     1
 62
   257
176
     1
 90
        2
176
     1
 90
        1
176
     1
 40
40.0
176
     1
 90
        0
176
     1
 62
   257
176
     1
 40
1.0
176
     1
 90
        1
176
     1
 90
        6
176
     1
 90
        2
176
     1
 62
     7
176
     1
 90
        3
176
     1
 90
        0
176
     1
 90
        0
176
     1
290
     0
176
     1
 90
        1
176
     1
 40
0.0
176
     1
 90
        0
176
     1
290
     0
176
     1
290
     1
176
     1
290
     1
176
     1
290
     0
176
     1
290
     0
176
     1
290
     0
176
     1
290
     0
176
     1
290
     0
176
     1
290
     0
176
     1
 90
       50
176
     1
 40
0.0
176
     1
 40
1.0
176
     1
 90
        0
176
     1
 62
    18
420
        0
176
     1
 90
       50
176
     1
 90
        3
176
     1
 62
     5
420
      255
176
     1
290
     0
176
     1
 90
       50
176
     1
 90
       50
176
     1
 90
       50
176
     1
290
     0
176
     1
 90
       50
176
     1
 62
   256
176
     0
 40
1.0
176
     0
 90
        2
176
     1
  1
strokes_ogs.tif
176
     1
290
     0
176
     1
 40
1.0
176
     1
 40
1.0
176
     1
  0
VISUALSTYLE
  5
10033
102
{ACAD_REACTORS
330
1001D
102
}
330
1001D
100
AcDbVisualStyle
  2
JitterOff
 70
    20
177
     3
291
     1
 70
    58
 90
        2
176
     0
 90
        2
176
     0
 90
        0
176
     0
 90
        0
176
     0
 40
0.6
176
     0
 40
30.0
176
     0
 62
     7
420
 16777215
176
     0
 90
        1
176
     0
 90
        4
176
     0
 62
     7
176
     0
 62
   257
176
     0
 90
        1
176
     0
 90
        1
176
     0
 40
1.0
176
     0
 90
       10
176
     2
 62
     7
176
     0
 40
1.0
176
     0
 90
        1
176
     0
 90
        6
176
     0
 90
        2
176
     0
 62
     7
176
     0
 90
        5
176
     0
 90
        0
176
     0
 90
        0
176
     0
290
     0
176
     0
 90
        1
176
     0
 40
0.0
176
     0
 90
        0
176
     0
290
     0
176
     1
290
     1
176
     1
290
     1
176
     1
290
     0
176
     1
290
     0
176
     1
290
     0
176
     1
290
     0
176
     1
290
     0
176
     1
290
     0
176
     1
 90
       50
176
     0
 40
0.0
176
     0
 40
1.0
176
     0
 90
        0
176
     0
 62
    18
420
        0
176
     0
 90
       50
176
     0
 90
        3
176
     0
 62
     5
420
      255
176
     0
290
     0
176
     1
 90
       50
176
     0
 90
       50
176
     0
 90
       50
176
     0
290
     0
176
     1
 90
       50
176
     0
 62
   256
176
     0
 40
1.0
176
     0
 90
        2
176
     0
  1
strokes_ogs.tif
176
     0
290
     0
176
     1
 40
1.0
176
     0
 40
1.0
176
     0
  0
VISUALSTYLE
  5
1002B
102
{ACAD_REACTORS
330
1001D
102
}
330
1001D
100
AcDbVisualStyle
  2
Linepattern
 70
    14
177
     3
291
     1
 70
    58
 90
        2
176
     1
 90
        2
176
     1
 90
        0
176
     1
 90
        0
176
     1
 40
0.6
176
     1
 40
30.0
176
     1
 62
     7
420
 16777215
176
     1
 90
        1
176
     1
 90
        4
176
     1
 62
     7
176
     1
 62
   257
176
     1
 90
        7
176
     1
 90
        7
176
     1
 40
1.0
176
     1
 90
        8
176
     1
 62
     7
176
     1
 40
1.0
176
     1
 90
        1
176
     1
 90
        6
176
     1
 90
        2
176
     1
 62
     7
176
     1
 90
        5
176
     1
 90
        0
176
     1
 90
        0
176
     1
290
     0
176
     1
 90
        1
176
     1
 40
0.0
176
     1
 90
        0
176
     1
290
     0
176
     1
290
     1
176
     1
290
     1
176
     1
290
     0
176
     1
290
     0
176
     1
290
     0
176
     1
290
     0
176
     1
290
     0
176
     1
290
     0
176
     1
 90
       50
176
     1
 40
0.0
176
     1
 40
1.0
176
     1
 90
        0
176
     1
 62
    18
420
        0
176
     1
 90
       50
176
     1
 90
        3
176
     1
 62
     5
420
      255
176
     1
290
     0
176
     1
 90
       50
176
     1
 90
       50
176
     1
 90
       50
176
     1
290
     0
176
     1
 90
       50
176
     1
 62
   256
176
     0
 40
1.0
176
     0
 90
        2
176
     1
  1
strokes_ogs.tif
176
     1
290
     0
176
     1
 40
1.0
176
     1
 40
1.0
176
     1
  0
VISUALSTYLE
  5
10034
102
{ACAD_REACTORS
330
1001D
102
}
330
1001D
100
AcDbVisualStyle
  2
OverhangOff
 70
    21
177
     3
291
     1
 70
    58
 90
        2
176
     0
 90
        2
176
     0
 90
        0
176
     0
 90
        0
176
     0
 40
0.6
176
     0
 40
30.0
176
     0
 62
     7
420
 16777215
176
     0
 90
        1
176
     0
 90
        4
176
     0
 62
     7
176
     0
 62
   257
176
     0
 90
        1
176
     0
 90
        1
176
     0
 40
1.0
176
     0
 90
        9
176
     2
 62
     7
176
     0
 40
1.0
176
     0
 90
        1
176
     0
 90
        6
176
     0
 90
        2
176
     0
 62
     7
176
     0
 90
        5
176
     0
 90
        0
176
     0
 90
        0
176
     0
290
     0
176
     0
 90
        1
176
     0
 40
0.0
176
     0
 90
        0
176
     0
290
     0
176
     1
290
     1
176
     1
290
     1
176
     1
290
     0
176
     1
290
     0
176
     1
290
     0
176
     1
290
     0
176
     1
290
     0
176
     1
290
     0
176
     1
 90
       50
176
     0
 40
0.0
176
     0
 40
1.0
176
     0
 90
        0
176
     0
 62
    18
420
        0
176
     0
 90
       50
176
     0
 90
        3
176
     0
 62
     5
420
      255
176
     0
290
     0
176
     1
 90
       50
176
     0
 90
       50
176
     0
 90
       50
176
     0
290
     0
176
     1
 90
       50
176
     0
 62
   256
176
     0
 40
1.0
176
     0
 90
        2
176
     0
  1
strokes_ogs.tif
176
     0
290
     0
176
     1
 40
1.0
176
     0
 40
1.0
176
     0
  0
VISUALSTYLE
  5
10027
102
{ACAD_REACTORS
330
1001D
102
}
330
1001D
100
AcDbVisualStyle
  2
Realistic
 70
     8
177
     3
291
     0
 70
    58
 90
        2
176
     1
 90
        3
176
     1
 90
        0
176
     1
 90
        2
176
     1
 40
0.6
176
     1
 40
30.0
176
     1
 62
     7
420
 16777215
176
     1
 90
        0
176
     1
 90
        0
176
     1
 62
     7
176
     1
 62
   257
176
     1
 90
        1
176
     1
 90
        1
176
     1
 40
1.0
176
     1
 90
        8
176
     1
 62
   257
176
     1
 40
1.0
176
     1
 90
        1
176
     1
 90
        6
176
     1
 90
        2
176
     1
 62
     7
176
     1
 90
        3
176
     1
 90
        0
176
     1
 90
        0
176
     1
290
     0
176
     1
 90
       13
176
     1
 40
0.0
176
     1
 90
        0
176
     1
290
     0
176
     1
290
     1
176
     1
290
     1
176
     1
290
     0
176
     1
290
     0
176
     1
290
     0
176
     1
290
     0
176
     1
290
     0
176
     1
290
     0
176
     1
 90
       50
176
     1
 40
0.0
176
     1
 40
1.0
176
     1
 90
        0
176
     1
 62
    18
420
        0
176
     1
 90
       50
176
     1
 90
        3
176
     1
 62
     5
420
      255
176
     1
290
     0
176
     1
 90
       50
176
     1
 90
       50
176
     1
 90
       50
176
     1
290
     0
176
     1
 90
       50
176
     1
 62
   256
176
     0
 40
1.0
176
     0
 90
        2
176
     1
  1
strokes_ogs.tif
176
     1
290
     0
176
     1
 40
1.0
176
     1
 40
1.0
176
     1
  0
VISUALSTYLE
  5
10032
102
{ACAD_REACTORS
330
1001D
102
}
330
1001D
100
AcDbVisualStyle
  2
Shaded
 70
    27
177
     3
291
     0
 70
    58
 90
        2
176
     1
 90
        2
176
     1
 90
        1
176
     1
 90
        2
176
     1
 40
0.6
176
     1
 40
30.0
176
     1
 62
     7
420
 16777215
176
     1
 90
        0
176
     1
 90
        4
176
     1
 62
     7
176
     1
 62
   257
176
     1
 90
        1
176
     1
 90
        1
176
     1
 40
1.0
176
     1
 90
        8
176
     1
 62
   257
176
     1
 40
1.0
176
     1
 90
        1
176
     1
 90
        6
176
     1
 90
        2
176
     1
 62
     8
420
  7895160
176
     1
 90
        3
176
     1
 90
        0
176
     1
 90
        0
176
     1
290
     0
176
     1
 90
        5
176
     1
 40
0.0
176
     1
 90
        0
176
     1
290
     0
176
     1
290
     1
176
     1
290
     1
176
     1
290
     0
176
     1
290
     0
176
     1
290
     0
176
     1
290
     0
176
     1
290
     0
176
     1
290
     0
176
     1
 90
       50
176
     1
 40
0.0
176
     1
 40
1.0
176
     1
 90
        0
176
     1
 62
    18
420
        0
176
     1
 90
       50
176
     1
 90
        3
176
     1
 62
     5
420
      255
176
     1
290
     0
176
     1
 90
       50
176
     1
 90
       50
176
     1
 90
       50
176
     1
290
     0
176
     1
 90
       50
176
     1
 62
   256
176
     0
 40
1.0
176
     0
 90
        2
176
     1
  1
strokes_ogs.tif
176
     1
290
     0
176
     1
 40
1.0
176
     1
 40
1.0
176
     1
  0
VISUALSTYLE
  5
10031
102
{ACAD_REACTORS
330
1001D
102
}
330
1001D
100
AcDbVisualStyle
  2
Shaded with edges
 70
    26
177
     3
291
     0
 70
    58
 90
        2
176
     1
 90
        2
176
     1
 90
        1
176
     1
 90
        2
176
     1
 40
0.6
176
     1
 40
30.0
176
     1
 62
     7
420
 16777215
176
     1
 90
        1
176
     1
 90
        2
176
     1
 62
     7
176
     1
 62
   257
176
     1
 90
        2
176
     1
 90
        1
176
     1
 40
1.0
176
     1
 90
        8
176
     1
 62
   257
176
     1
 40
1.0
176
     1
 90
        1
176
     1
 90
        6
176
     1
 90
        2
176
     1
 62
     7
176
     1
 90
        3
176
     1
 90
        0
176
     1
 90
        0
176
     1
290
     0
176
     1
 90
        5
176
     1
 40
0.0
176
     1
 90
        0
176
     1
290
     0
176
     1
290
     1
176
     1
290
     1
176
     1
290
     0
176
     1
290
     0
176
     1
290
     0
176
     1
290
     0
176
     1
290
     0
176
     1
290
     0
176
     1
 90
       50
176
     1
 40
0.0
176
     1
 40
1.0
176
     1
 90
        0
176
     1
 62
    18
420
        0
176
     1
 90
       50
176
     1
 90
        3
176
     1
 62
     5
420
      255
176
     1
290
     0
176
     1
 90
       50
176
     1
 90
       50
176
     1
 90
       50
176
     1
290
     0
176
     1
 90
       50
176
     1
 62
   256
176
     0
 40
1.0
176
     0
 90
        2
176
     1
  1
strokes_ogs.tif
176
     1
290
     0
176
     1
 40
1.0
176
     1
 40
1.0
176
     1
  0
VISUALSTYLE
  5
1002E
102
{ACAD_REACTORS
330
1001D
102
}
330
1001D
100
AcDbVisualStyle
  2
Shades of Gray
 70
    23
177
     3
291
     0
 70
    58
 90
        2
176
     1
 90
        2
176
     1
 90
        3
176
     1
 90
        0
176
     1
 40
0.6
176
     1
 40
30.0
176
     1
 62
     7
420
 16777215
176
     1
 90
        2
176
     1
 90
        2
176
     1
 62
     7
176
     1
 62
     7
176
     1
 90
        1
176
     1
 90
        1
176
     1
 40
40.0
176
     1
 90
        8
176
     1
 62
     7
176
     1
 40
1.0
176
     1
 90
        1
176
     1
 90
        6
176
     1
 90
        2
176
     1
 62
     7
176
     1
 90
        3
176
     1
 90
        0
176
     1
 90
        0
176
     1
290
     0
176
     1
 90
        1
176
     1
 40
0.0
176
     1
 90
        0
176
     1
290
     0
176
     1
290
     1
176
     1
290
     1
176
     1
290
     0
176
     1
290
     0
176
     1
290
     0
176
     1
290
     0
176
     1
290
     0
176
     1
290
     0
176
     1
 90
       50
176
     1
 40
0.0
176
     1
 40
1.0
176
     1
 90
        0
176
     1
 62
    18
420
        0
176
     1
 90
       50
176
     1
 90
        3
176
     1
 62
     5
420
      255
176
     1
290
     0
176
     1
 90
       50
176
     1
 90
       50
176
     1
 90
       50
176
     1
290
     0
176
     1
 90
       50
176
     1
 62
   256
176
     0
 40
1.0
176
     0
 90
        2
176
     1
  1
strokes_ogs.tif
176
     1
290
     0
176
     1
 40
1.0
176
     1
 40
1.0
176
     1
  0
VISUALSTYLE
  5
1002F
102
{ACAD_REACTORS
330
1001D
102
}
330
1001D
100
AcDbVisualStyle
  2
Sketchy
 70
    24
177
     3
291
     0
 70
    58
 90
        1
176
     1
 90
        2
176
     1
 90
        2
176
     1
 90
        0
176
     1
 40
0.6
176
     1
 40
30.0
176
     1
 62
     7
420
 16777215
176
     1
 90
        2
176
     1
 90
        2
176
     1
 62
     7
176
     1
 62
     7
176
     1
 90
        1
176
     1
 90
        1
176
     1
 40
40.0
176
     1
 90
       11
176
     1
 62
     7
176
     1
 40
1.0
176
     1
 90
        1
176
     1
 90
        6
176
     1
 90
        2
176
     1
 62
     7
176
     1
 90
        6
176
     1
 90
        0
176
     1
 90
        0
176
     1
290
     0
176
     1
 90
        1
176
     1
 40
0.0
176
     1
 90
        0
176
     1
290
     0
176
     1
290
     1
176
     1
290
     1
176
     1
290
     0
176
     1
290
     0
176
     1
290
     0
176
     1
290
     0
176
     1
290
     0
176
     1
290
     0
176
     1
 90
       50
176
     1
 40
0.0
176
     1
 40
1.0
176
     1
 90
        0
176
     1
 62
    18
420
        0
176
     1
 90
       50
176
     1
 90
        3
176
     1
 62
     5
420
      255
176
     1
290
     0
176
     1
 90
       50
176
     1
 90
       50
176
     1
 90
       50
176
     1
290
     0
176
     1
 90
       50
176
     1
 62
   256
176
     0
 40
1.0
176
     0
 90
        2
176
     1
  1
strokes_ogs.tif
176
     1
290
     0
176
     1
 40
1.0
176
     1
 40
1.0
176
     1
  0
VISUALSTYLE
  5
1002A
102
{ACAD_REACTORS
330
1001D
102
}
330
1001D
100
AcDbVisualStyle
  2
Thicken
 70
    13
177
     3
291
     1
 70
    58
 90
        2
176
     1
 90
        2
176
     1
 90
        0
176
     1
 90
        0
176
     1
 40
0.6
176
     1
 40
30.0
176
     1
 62
     7
420
 16777215
176
     1
 90
        1
176
     1
 90
        4
176
     1
 62
     7
176
     1
 62
   257
176
     1
 90
        1
176
     1
 90
        1
176
     1
 40
1.0
176
     1
 90
       12
176
     1
 62
     7
176
     1
 40
1.0
176
     1
 90
        1
176
     1
 90
        6
176
     1
 90
        2
176
     1
 62
     7
176
     1
 90
        5
176
     1
 90
        0
176
     1
 90
        0
176
     1
290
     0
176
     1
 90
        1
176
     1
 40
0.0
176
     1
 90
        0
176
     1
290
     0
176
     1
290
     1
176
     1
290
     1
176
     1
290
     0
176
     1
290
     0
176
     1
290
     0
176
     1
290
     0
176
     1
290
     0
176
     1
290
     0
176
     1
 90
       50
176
     1
 40
0.0
176
     1
 40
1.0
176
     1
 90
        0
176
     1
 62
    18
420
        0
176
     1
 90
       50
176
     1
 90
        3
176
     1
 62
     5
420
      255
176
     1
290
     0
176
     1
 90
       50
176
     1
 90
       50
176
     1
 90
       50
176
     1
290
     0
176
     1
 90
       50
176
     1
 62
   256
176
     0
 40
1.0
176
     0
 90
        2
176
     1
  1
strokes_ogs.tif
176
     1
290
     0
176
     1
 40
1.0
176
     1
 40
1.0
176
     1
  0
VISUALSTYLE
  5
10024
102
{ACAD_REACTORS
330
1001D
102
}
330
1001D
100
AcDbVisualStyle
  2
Wireframe
 70
     5
177
     3
291
     0
 70
    58
 90
        0
176
     1
 90
        2
176
     1
 90
        0
176
     1
 90
        0
176
     1
 40
0.6
176
     1
 40
30.0
176
     1
 62
     7
420
 16777215
176
     1
 90
        1
176
     1
 90
        4
176
     1
 62
     7
176
     1
 62
   257
176
     1
 90
        1
176
     1
 90
        1
176
     1
 40
1.0
176
     1
 90
        0
176
     1
 62
   257
176
     1
 40
1.0
176
     1
 90
        1
176
     1
 90
        6
176
     1
 90
        2
176
     1
 62
     7
176
     1
 90
        3
176
     1
 90
        0
176
     1
 90
        0
176
     1
290
     0
176
     1
 90
        1
176
     1
 40
0.0
176
     1
 90
        0
176
     1
290
     0
176
     1
290
     1
176
     1
290
     1
176
     1
290
     0
176
     1
290
     0
176
     1
290
     0
176
     1
290
     0
176
     1
290
     0
176
     1
290
     0
176
     1
 90
       50
176
     1
 40
0.0
176
     1
 40
1.0
176
     1
 90
        0
176
     1
 62
    18
420
        0
176
     1
 90
       50
176
     1
 90
        3
176
     1
 62
     5
420
      255
176
     1
290
     0
176
     1
 90
       50
176
     1
 90
       50
176
     1
 90
       50
176
     1
290
     0
176
     1
 90
       50
176
     1
 62
   256
176
     0
 40
1.0
176
     0
 90
        2
176
     1
  1
strokes_ogs.tif
176
     1
290
     0
176
     1
 40
1.0
176
     1
 40
1.0
176
     1
  0
VISUALSTYLE
  5
10030
102
{ACAD_REACTORS
330
1001D
102
}
330
1001D
100
AcDbVisualStyle
  2
X-Ray
 70
    25
177
     3
291
     0
 70
    58
 90
        2
176
     1
 90
        2
176
     1
 90
        1
176
     1
 90
        1
176
     1
 40
0.5
176
     1
 40
30.0
176
     1
 62
     7
420
 16777215
176
     1
 90
        1
176
     1
 90
        0
176
     1
 62
     7
176
     1
 62
   257
176
     1
 90
        1
176
     1
 90
        1
176
     1
 40
1.0
176
     1
 90
        8
176
     1
 62
     7
176
     1
 40
1.0
176
     1
 90
        1
176
     1
 90
        6
176
     1
 90
        2
176
     1
 62
     7
176
     1
 90
        3
176
     1
 90
        0
176
     1
 90
        0
176
     1
290
     0
176
     1
 90
       13
176
     1
 40
0.0
176
     1
 90
        0
176
     1
290
     0
176
     1
290
     1
176
     1
290
     1
176
     1
290
     0
176
     1
290
     0
176
     1
290
     0
176
     1
290
     0
176
     1
290
     0
176
     1
290
     0
176
     1
 90
       50
176
     1
 40
0.0
176
     1
 40
1.0
176
     1
 90
        0
176
     1
 62
    18
420
        0
176
     1
 90
       50
176
     1
 90
        3
176
     1
 62
     5
420
      255
176
     1
290
     0
176
     1
 90
       50
176
     1
 90
       50
176
     1
 90
       50
176
     1
290
     0
176
     1
 90
       50
176
     1
 62
   256
176
     0
 40
1.0
176
     0
 90
        2
176
     1
  1
strokes_ogs.tif
176
     1
290
     0
176
     1
 40
1.0
176
     1
 40
1.0
176
     1
  0
DICTIONARYVAR
  5
10095
102
{ACAD_REACTORS
330
1008F
102
}
330
1008F
100
DictionaryVariables
280
     0
  1
1:1
  0
DICTIONARYVAR
  5
10091
102
{ACAD_REACTORS
330
1008F
102
}
330
1008F
100
DictionaryVariables
280
     0
  1
STANDARD
  0
DICTIONARYVAR
  5
10090
102
{ACAD_REACTORS
330
1008F
102
}
330
1008F
100
DictionaryVariables
280
     0
  1
STANDARD
  0
DICTIONARYVAR
  5
10092
102
{ACAD_REACTORS
330
1008F
102
}
330
1008F
100
DictionaryVariables
280
     0
  1
Imperial24
  0
DICTIONARYVAR
  5
10093
102
{ACAD_REACTORS
330
1008F
102
}
330
1008F
100
DictionaryVariables
280
     0
  1
Imperial24
  0
DICTIONARYVAR
  5
10097
102
{ACAD_REACTORS
330
1008F
102
}
330
1008F
100
DictionaryVariables
280
     0
  1
1
  0
DICTIONARYVAR
  5
10098
102
{ACAD_REACTORS
330
1008F
102
}
330
1008F
100
DictionaryVariables
280
     0
  1
15
  0
DICTIONARYVAR
  5
10096
102
{ACAD_REACTORS
330
1008F
102
}
330
1008F
100
DictionaryVariables
280
     0
  1
0
  0
DICTIONARYVAR
  5
10094
102
{ACAD_REACTORS
330
1008F
102
}
330
1008F
100
DictionaryVariables
280
     0
  1
0
  0
DICTIONARY
  5
1000E
330
1000D
100
AcDbDictionary
280
     1
281
     1
  3
BUMPTILE
360
10010
  3
DIFFUSETILE
360
1000F
  3
OPACITYTILE
360
10013
  3
REFLECTIONTILE
360
10012
  3
REFRACTIONTILE
360
10014
  3
SPECULARTILE
360
10011
  0
DICTIONARY
  5
10006
330
10005
100
AcDbDictionary
280
     1
281
     1
  3
BUMPTILE
360
10008
  3
DIFFUSETILE
360
10007
  3
OPACITYTILE
360
1000B
  3
REFLECTIONTILE
360
1000A
  3
REFRACTIONTILE
360
1000C
  3
SPECULARTILE
360
10009
  0
DICTIONARY
  5
10016
330
10015
100
AcDbDictionary
280
     1
281
     1
  3
BUMPTILE
360
10018
  3
DIFFUSETILE
360
10017
  3
OPACITYTILE
360
1001B
  3
REFLECTIONTILE
360
1001A
  3
REFRACTIONTILE
360
1001C
  3
SPECULARTILE
360
10019
  0
DICTIONARY
  5
10099
330
10039
100
AcDbDictionary
280
     1
281
     1
  3
ACAD_ROUNDTRIP_2008_TABLESTYLE_CELLSTYLEMAP
360
1009A
  0
XRECORD
  5
10010
102
{ACAD_REACTORS
330
1000E
102
}
330
1000E
100
AcDbXrecord
280
     1
270
     1
271
     1
  0
XRECORD
  5
1000F
102
{ACAD_REACTORS
330
1000E
102
}
330
1000E
100
AcDbXrecord
280
     1
270
     1
271
     1
  0
XRECORD
  5
10013
102
{ACAD_REACTORS
330
1000E
102
}
330
1000E
100
AcDbXrecord
280
     1
270
     1
271
     1
  0
XRECORD
  5
10012
102
{ACAD_REACTORS
330
1000E
102
}
330
1000E
100
AcDbXrecord
280
     1
270
     1
271
     1
  0
XRECORD
  5
10014
102
{ACAD_REACTORS
330
1000E
102
}
330
1000E
100
AcDbXrecord
280
     1
270
     1
271
     1
  0
XRECORD
  5
10011
102
{ACAD_REACTORS
330
1000E
102
}
330
1000E
100
AcDbXrecord
280
     1
270
     1
271
     1
  0
XRECORD
  5
10008
102
{ACAD_REACTORS
330
10006
102
}
330
10006
100
AcDbXrecord
280
     1
270
     1
271
     1
  0
XRECORD
  5
10007
102
{ACAD_REACTORS
330
10006
102
}
330
10006
100
AcDbXrecord
280
     1
270
     1
271
     1
  0
XRECORD
  5
1000B
102
{ACAD_REACTORS
330
10006
102
}
330
10006
100
AcDbXrecord
280
     1
270
     1
271
     1
  0
XRECORD
  5
1000A
102
{ACAD_REACTORS
330
10006
102
}
330
10006
100
AcDbXrecord
280
     1
270
     1
271
     1
  0
XRECORD
  5
1000C
102
{ACAD_REACTORS
330
10006
102
}
330
10006
100
AcDbXrecord
280
     1
270
     1
271
     1
  0
XRECORD
  5
10009
102
{ACAD_REACTORS
330
10006
102
}
330
10006
100
AcDbXrecord
280
     1
270
     1
271
     1
  0
XRECORD
  5
10018
102
{ACAD_REACTORS
330
10016
102
}
330
10016
100
AcDbXrecord
280
     1
270
     1
271
     1
  0
XRECORD
  5
10017
102
{ACAD_REACTORS
330
10016
102
}
330
10016
100
AcDbXrecord
280
     1
270
     1
271
     1
  0
XRECORD
  5
1001B
102
{ACAD_REACTORS
330
10016
102
}
330
10016
100
AcDbXrecord
280
     1
270
     1
271
     1
  0
XRECORD
  5
1001A
102
{ACAD_REACTORS
330
10016
102
}
330
10016
100
AcDbXrecord
280
     1
270
     1
271
     1
  0
XRECORD
  5
1001C
102
{ACAD_REACTORS
330
10016
102
}
330
10016
100
AcDbXrecord
280
     1
270
     1
271
     1
  0
XRECORD
  5
10019
102
{ACAD_REACTORS
330
10016
102
}
330
10016
100
AcDbXrecord
280
     1
270
     1
271
     1
  0
CELLSTYLEMAP
  5
1009A
102
{ACAD_REACTORS
330
10099
102
}
330
10099
100
AcDbCellStyleMap
 90
        3
300
CELLSTYLE
  1
TABLEFORMAT_BEGIN
 90
        5
170
     1
 91
        0
 92
    32768
 62
   257
 93
        1
300
CONTENTFORMAT
  1
CONTENTFORMAT_BEGIN
 90
        0
 91
        0
 92
      512
 93
        0
300

 40
0.0
140
1.0
 94
        5
 62
     0
340
11
144
0.25
309
CONTENTFORMAT_END
171
     0
 94
        0
309
TABLEFORMAT_END
  1
CELLSTYLE_BEGIN
 90
        1
 91
        1
300
_TITLE
309
CELLSTYLE_END
300
CELLSTYLE
  1
TABLEFORMAT_BEGIN
 90
        5
170
     1
 91
        0
 92
        0
 62
   257
 93
        1
300
CONTENTFORMAT
  1
CONTENTFORMAT_BEGIN
 90
        0
 91
        0
 92
      512
 93
        0
300

 40
0.0
140
1.0
 94
        5
 62
     0
340
11
144
0.18
309
CONTENTFORMAT_END
171
     0
 94
        0
309
TABLEFORMAT_END
  1
CELLSTYLE_BEGIN
 90
        2
 91
        1
300
_HEADER
309
CELLSTYLE_END
300
CELLSTYLE
  1
TABLEFORMAT_BEGIN
 90
        5
170
     1
 91
        0
 92
        0
 62
   257
 93
        1
300
CONTENTFORMAT
  1
CONTENTFORMAT_BEGIN
 90
        0
 91
        0
 92
      512
 93
        0
300

 40
0.0
140
1.0
 94
        2
 62
     0
340
11
144
0.18
309
CONTENTFORMAT_END
171
     0
 94
        0
309
TABLEFORMAT_END
  1
CELLSTYLE_BEGIN
 90
        3
 91
        2
300
_DATA
309
CELLSTYLE_END
  0
ENDSEC
  0
EOF
