0
SECTION
2
HEADER
9
$INSUNITS
70
4
9
$ACADVER
1
AC1014
9
$HANDSEED
5
FFFF
0
ENDSEC
0
SECTION
2
TABLES
0
TABLE
2
VPORT
5
8
100
AcDbSymbolTable
0
ENDTAB
0
TABLE
2
LTYPE
5
5
100
AcDbSymbolTable
0
LTYPE
5
14
100
AcDbSymbolTableRecord
100
AcDbLinetypeTableRecord
2
BYBLOCK
70
0
0
LTYPE
5
15
100
AcDbSymbolTableRecord
100
AcDbLinetypeTableRecord
2
BYLAYER
70
0
0
ENDTAB
0
TABLE
2
LAYER
5
2
100
AcDbSymbolTable
70
2
0
LAYER
5
50
100
AcDbSymbolTableRecord
100
AcDbLayerTableRecord
2
0
70
0
6
CONTINUOUS
0
ENDTAB
0
TABLE
2
STYLE
5
3
100
AcDbSymbolTable
70
1
0
STYLE
5
11
100
AcDbSymbolTableRecord
100
AcDbTextStyleTableRecord
2
STANDARD
70
0
0
ENDTAB
0
TABLE
2
VIEW
5
6
100
AcDbSymbolTable
70
0
0
ENDTAB
0
TABLE
2
UCS
5
7
100
AcDbSymbolTable
70
0
0
ENDTAB
0
TABLE
2
APPID
5
9
100
AcDbSymbolTable
70
2
0
APPID
5
12
100
AcDbSymbolTableRecord
100
AcDbRegAppTableRecord
2
ACAD
70
0
0
ENDTAB
0
TABLE
2
DIMSTYLE
5
A
100
AcDbSymbolTable
70
1
0
ENDTAB
0
TABLE
2
BLOCK_RECORD
5
1
100
AcDbSymbolTable
70
1
0
BLOCK_RECORD
5
1F
100
AcDbSymbolTableRecord
100
AcDbBlockTableRecord
2
*MODEL_SPACE
0
BLOCK_RECORD
5
1B
100
AcDbSymbolTableRecord
100
AcDbBlockTableRecord
2
*PAPER_SPACE
0
ENDTAB
0
ENDSEC
0
SECTION
2
BLOCKS
0
BLOCK
5
20
100
AcDbEntity
100
AcDbBlockBegin
2
*MODEL_SPACE
0
ENDBLK
5
21
100
AcDbEntity
100
AcDbBlockEnd
0
BLOCK
5
1C
100
AcDbEntity
100
AcDbBlockBegin
2
*PAPER_SPACE
0
ENDBLK
5
1D
100
AcDbEntity
100
AcDbBlockEnd
0
ENDSEC
0
SECTION
2
ENTITIES
0
LWPOLYLINE
5
100
100
AcDbEntity
8
0
100
AcDbPolyline
90
8
70
1
43
0.0
10
164.375
20
28.627235256472691
10
164.375
20
41.62723525647263
42
0.41421356237299617
10
163.87499999999991
20
42.127235256472694
10
150.875
20
42.127235256472659
42
0.41421356237307422
10
150.375
20
41.62723525647263
10
150.375
20
28.627235256472691
42
0.41421356237304818
10
150.875
20
28.12723525647268
10
163.875
20
28.127235256472645
42
0.41421356237311846
0
LWPOLYLINE
5
101
100
AcDbEntity
8
0
100
AcDbPolyline
90
8
70
1
43
0.0
10
201.97500000000002
20
70.989735256472386
42
0.41421356237311585
10
202.47500000000002
20
71.489735256472429
10
202.47500000000002
20
84.489735256472187
42
0.41421356237311585
10
201.97500000000002
20
84.989735256472301
10
188.97500000000002
20
84.98973525647223
42
0.41421356237303258
10
188.47499999999999
20
84.489735256472187
10
188.47499999999999
20
71.489735256472429
42
0.4142135623730378
10
188.97500000000002
20
70.989735256472315
0
LWPOLYLINE
5
102
100
AcDbEntity
8
0
100
AcDbPolyline
90
8
70
1
43
0.0
10
336.11250000000013
20
47.67723525647267
42
0.41421356237306384
10
336.61250000000001
20
47.177235256472684
10
349.61250000000001
20
47.17723525647267
42
0.4142135623731939
10
350.11250000000013
20
47.67723525647267
10
350.11249999999984
20
60.677235256472663
42
0.41421356237310542
10
349.61250000000007
20
61.177235256472578
10
336.61250000000001
20
61.177235256472727
42
0.41421356237294416
10
336.11250000000013
20
60.677235256472663
0
LWPOLYLINE
5
103
100
AcDbEntity
8
0
100
AcDbPolyline
90
8
70
1
43
0.0
10
274.20000000000005
20
84.489735256472187
10
274.20000000000005
20
71.489735256472429
42
0.41421356237319906
10
274.69999999999999
20
70.989735256472301
10
287.69999999999999
20
70.989735256472386
42
0.41421356237311585
10
288.19999999999999
20
71.489735256472429
10
288.19999999999999
20
84.489735256472187
42
0.41421356237314705
10
287.69999999999993
20
84.989735256472301
10
274.69999999999999
20
84.989735256472173
42
0.41421356237295975
0
LWPOLYLINE
5
104
100
AcDbEntity
8
0
100
AcDbPolyline
90
8
70
1
43
0.0
10
245.625
20
28.627235256472652
42
0.41421356237321988
10
246.125
20
28.127235256472645
10
259.125
20
28.12723525647263
42
0.41421356237289469
10
259.625
20
28.627235256472652
10
259.625
20
41.62723525647263
42
0.41421356237304818
10
259.125
20
42.127235256472602
10
246.12500000000006
20
42.127235256472623
42
0.41421356237316787
10
245.625
20
41.62723525647263
0
LWPOLYLINE
5
105
100
AcDbEntity
8
0
100
AcDbPolyline
90
8
70
1
43
0.0
10
174.1875
20
9.5772352564726404
42
0.41421356237313667
10
174.6875
20
9.0772352564726209
10
187.6875
20
9.0772352564726351
42
0.41421356237313534
10
188.1875
20
9.5772352564726404
10
188.1875
20
22.577235256472683
42
0.41421356237323809
10
187.6875
20
23.077235256472711
10
174.6875
20
23.077235256472683
42
0.41421356237321472
10
174.18749999999991
20
22.577235256472683
0
LWPOLYLINE
5
106
100
AcDbEntity
8
0
100
AcDbPolyline
90
8
70
1
43
0.0
10
49.574999999999896
20
-29.022764743527372
42
0.41421356237308982
10
50.074999999999896
20
-28.522764743527365
10
50.074999999999932
20
-15.522764743527357
42
0.41421356237310025
10
49.574999999999896
20
-15.02276474352735
10
34.193749999999916
20
-15.022764743527349
42
0.41421356237308854
10
33.693749999999909
20
-15.522764743527349
10
33.693749999999902
20
-28.522764743527365
42
0.41421356237311585
10
34.193749999999902
20
-29.022764743527372
0
LWPOLYLINE
5
107
100
AcDbEntity
8
0
100
AcDbPolyline
90
8
70
1
43
0.0
10
131.32499999999999
20
71.489735256472429
42
0.4142135623730846
10
131.82499999999999
20
70.989735256472301
10
144.8249999999999
20
70.9897352564724
42
0.41421356237307422
10
145.32499999999996
20
71.489735256472429
10
145.32499999999999
20
84.489735256472187
42
0.41421356237315748
10
144.8249999999999
20
84.989735256472301
10
131.82499999999999
20
84.989735256472301
42
0.4142135623730846
10
131.32499999999999
20
84.489735256472187
0
LWPOLYLINE
5
108
100
AcDbEntity
8
0
100
AcDbPolyline
90
8
70
1
43
0.0
10
330.5625
20
-29.022764743527425
42
0.41421356237320167
10
331.06250000000011
20
-28.522764743527414
10
331.0625
20
-15.522764743527402
42
0.41421356237313145
10
330.5625
20
-15.022764743527448
10
317.5625
20
-15.022764743527366
42
0.41421356237298707
10
317.0625
20
-15.522764743527402
10
317.06250000000006
20
-28.522764743527414
42
0.4142135623730222
10
317.5625
20
-29.022764743527411
0
LWPOLYLINE
5
109
100
AcDbEntity
8
0
100
AcDbPolyline
90
8
70
1
43
0.0
10
331.06250000000011
20
41.627235256472616
42
0.41421356237319906
10
330.5625
20
42.127235256472602
10
317.5625
20
42.127235256472616
42
0.41421356237297013
10
317.06250000000006
20
41.627235256472602
10
317.0625
20
28.627235256472652
42
0.41421356237313406
10
317.5625
20
28.127235256472645
10
330.56249999999989
20
28.127235256472638
42
0.41421356237320428
10
331.0625
20
28.627235256472652
0
LWPOLYLINE
5
110
100
AcDbEntity
8
0
100
AcDbPolyline
90
8
70
1
43
0.0
10
192.45000000000002
20
61.177235256472642
10
179.44999999999999
20
61.177235256472649
42
0.41421356237300139
10
178.95000000000007
20
60.677235256472663
10
178.94999999999999
20
47.67723525647267
42
0.41421356237315227
10
179.44999999999999
20
47.17723525647272
10
192.45000000000005
20
47.177235256472684
42
0.41421356237314705
10
192.95000000000002
20
47.67723525647267
10
192.95000000000002
20
60.677235256472663
42
0.41421356237316265
0
LWPOLYLINE
5
111
100
AcDbEntity
8
0
100
AcDbPolyline
90
8
70
1
43
0.0
10
21.499999999999915
20
60.677235256472684
42
0.41421356237310542
10
20.999999999999908
20
61.177235256472642
10
7.9999999999999316
20
61.177235256472706
42
0.41421356237304818
10
7.4999999999999245
20
60.677235256472684
10
7.4999999999999325
20
47.677235256472692
42
0.4142135623731113
10
7.9999999999999316
20
47.177235256472699
10
20.999999999999908
20
47.177235256472699
42
0.41421356237309503
10
21.499999999999915
20
47.677235256472692
0
LWPOLYLINE
5
112
100
AcDbEntity
8
0
100
AcDbPolyline
90
8
70
1
43
0.0
10
127.0625
20
-9.9727647435273994
10
140.0625
20
-9.9727647435274029
42
0.4142135623730443
10
140.5625
20
-9.4727647435273923
10
140.5625
20
3.5272352564726539
42
0.41421356237302315
10
140.0625
20
4.0272352564726654
10
127.0625
20
4.0272352564726424
42
0.4142135623731048
10
126.5625
20
3.5272352564726539
10
126.5625
20
-9.4727647435273923
42
0.4142135623730937
0
LWPOLYLINE
5
113
100
AcDbEntity
8
0
100
AcDbPolyline
90
8
70
1
43
0.0
10
336.1124999999999
20
84.489735256472102
42
-0.41421356237338641
10
336.6124999999999
20
84.989735256472002
10
349.61249999999984
20
84.989735256472045
42
-0.41421356237333434
10
350.11249999999984
20
84.489735256472102
10
350.11250000000013
20
71.489735256472429
42
-0.41421356237309503
10
349.61250000000007
20
70.9897352564724
10
336.61250000000001
20
70.989735256472443
42
-0.41421356237305862
10
336.11250000000013
20
71.489735256472429
0
CIRCLE
5
114
100
AcDbEntity
8
0
100
AcDbCircle
10
178.80626049175899
20
-36.372774247083782
30
0
40
1.6999999999999926
210
0
220
0
230
1
0
CIRCLE
5
115
100
AcDbEntity
8
0
100
AcDbCircle
10
13.806260491759197
20
-36.372783347666399
30
0
40
1.6999999999999993
210
0
220
0
230
1
0
LWPOLYLINE
5
116
100
AcDbEntity
8
0
100
AcDbPolyline
90
8
70
1
43
0.0
10
217.55000000000001
20
84.989735256472315
42
0.4142135623730846
10
217.05000000000001
20
84.489735256472187
10
217.05000000000001
20
71.489735256472429
42
0.4142135623730378
10
217.55000000000001
20
70.989735256472315
10
230.55000000000007
20
70.989735256472386
42
0.41421356237299095
10
231.05000000000007
20
71.489735256472429
10
231.05000000000013
20
84.489735256472187
42
0.41421356237306384
10
230.55000000000007
20
84.989735256472301
0
CIRCLE
5
117
100
AcDbEntity
8
0
100
AcDbCircle
10
343.80625897419975
20
-36.372765146500846
30
0
40
1.6999999999999715
210
0
220
0
230
1
0
CIRCLE
5
118
100
AcDbEntity
8
0
100
AcDbCircle
10
343.80695094675593
20
92.341029491791303
30
0
40
1.6999999999999837
210
0
220
0
230
1
0
CIRCLE
5
119
100
AcDbEntity
8
0
100
AcDbCircle
10
178.80695072204688
20
92.3397314296231
30
0
40
1.6999999999999877
210
0
220
0
230
1
0
LWPOLYLINE
5
120
100
AcDbEntity
8
0
100
AcDbPolyline
90
8
70
1
43
0.0
10
285.31875000000002
20
-29.022764743527418
42
0.41421356237317569
10
285.81875000000002
20
-28.522764743527414
10
285.81875000000002
20
-15.522764743527402
42
0.41421356237311846
10
285.31875000000002
20
-15.02276474352737
10
269.9375
20
-15.022764743527379
42
0.41421356237313406
10
269.4375
20
-15.522764743527382
10
269.4375
20
-28.522764743527389
42
0.41421356237311585
10
269.9375
20
-29.022764743527425
0
CIRCLE
5
121
100
AcDbEntity
8
0
100
AcDbCircle
10
13.806950722046913
20
92.339731429623299
30
0
40
1.7000000000000077
210
0
220
0
230
1
0
LWPOLYLINE
5
122
100
AcDbEntity
8
0
100
AcDbPolyline
90
8
70
1
43
0.0
10
101.96250000000005
20
4.0272352564726699
10
88.962499999999963
20
4.0272352564726583
42
0.41421356237301016
10
88.462499999999963
20
3.5272352564726539
10
88.46249999999992
20
-9.4727647435273745
42
0.41421356237307555
10
88.962499999999963
20
-9.9727647435273923
10
101.96250000000001
20
-9.9727647435274029
42
0.41421356237305534
10
102.46250000000002
20
-9.4727647435273923
10
102.46250000000003
20
3.5272352564726539
42
0.41421356237303031
0
LWPOLYLINE
5
123
100
AcDbEntity
8
0
100
AcDbPolyline
90
8
70
1
43
0.0
10
268.64999999999998
20
70.989735256472386
42
0.41421356237311585
10
269.14999999999998
20
71.489735256472429
10
269.14999999999998
20
84.489735256472187
42
0.41421356237306384
10
268.65000000000003
20
84.989735256472301
10
255.65000000000001
20
84.989735256472301
42
0.41421356237311585
10
255.15000000000001
20
84.489735256472187
10
255.15000000000001
20
71.489735256472429
42
0.41421356237312623
10
255.65000000000003
20
70.989735256472315
0
LWPOLYLINE
5
124
100
AcDbEntity
8
0
100
AcDbPolyline
90
8
70
1
43
0.0
10
350.11250000000013
20
28.627235256472652
10
350.11250000000013
20
41.627235256472666
42
0.41421356237304302
10
349.61250000000001
20
42.127235256472567
10
336.61250000000001
20
42.127235256472595
42
0.41421356237364654
10
336.11250000000013
20
41.627235256472602
10
336.11250000000013
20
28.627235256472652
42
0.41421356237306123
10
336.61250000000001
20
28.127235256472648
10
349.61249999999995
20
28.127235256472673
42
0.41421356237314183
0
LWPOLYLINE
5
125
100
AcDbEntity
8
0
100
AcDbPolyline
90
8
70
1
43
0.0
10
159.61250000000001
20
-9.4727647435273923
10
159.61250000000001
20
3.527235256472645
42
0.41421356237298185
10
159.11250000000001
20
4.0272352564726432
10
146.11250000000001
20
4.0272352564726495
42
0.41421356237309342
10
145.61250000000001
20
3.527235256472645
10
145.61250000000001
20
-9.4727647435273923
42
0.4142135623730937
10
146.11250000000001
20
-9.9727647435273994
10
159.11250000000001
20
-9.9727647435274029
42
0.4142135623730443
0
LWPOLYLINE
5
126
100
AcDbEntity
8
0
100
AcDbPolyline
90
8
70
1
43
0.0
10
12.76249999999991
20
28.12723525647268
10
25.76249999999991
20
28.12723525647268
42
0.41421356237311846
10
26.2624999999999
20
28.627235256472691
10
26.262499999999932
20
41.627235256472659
42
0.41421356237305601
10
25.76249999999991
20
42.127235256472659
10
12.762499999999914
20
42.127235256472659
42
0.41421356237307422
10
12.26249999999991
20
41.627235256472652
10
12.262499999999912
20
28.627235256472691
42
0.41421356237309243
0
LWPOLYLINE
5
127
100
AcDbEntity
8
0
100
AcDbPolyline
90
8
70
1
43
0.0
10
84.199999999999932
20
47.177235256472699
10
97.19999999999996
20
47.177235256472713
42
0.41421356237307944
10
97.699999999999932
20
47.67723525647267
10
97.699999999999889
20
60.677235256472684
42
0.41421356237310025
10
97.199999999999974
20
61.177235256472642
10
84.199999999999932
20
61.177235256472699
42
0.41421356237312623
10
83.699999999999903
20
60.677235256472684
10
83.699999999999903
20
47.677235256472692
42
0.41421356237303258
0
LWPOLYLINE
5
128
100
AcDbEntity
8
0
100
AcDbPolyline
90
8
70
1
43
0.0
10
182.92500000000001
20
28.127235256472645
42
0.41421356237311846
10
183.42500000000001
20
28.627235256472691
10
183.42500000000001
20
41.62723525647263
42
0.41421356237305862
10
182.92499999999995
20
42.127235256472694
10
169.92500000000001
20
42.127235256472623
42
0.41421356237314705
10
169.42500000000001
20
41.62723525647263
10
169.42500000000001
20
28.627235256472691
42
0.41421356237312101
10
169.92500000000004
20
28.127235256472648
0
LWPOLYLINE
5
129
100
AcDbEntity
8
0
100
AcDbPolyline
90
8
70
1
43
0.0
10
203.26250000000002
20
-9.9727647435272981
10
216.26249999999999
20
-9.972764743527371
42
0.41421356237309631
10
216.7625000000001
20
-9.4727647435273976
10
216.76249999999996
20
3.527235256472645
42
0.4142135623729773
10
216.26249999999999
20
4.0272352564726388
10
203.26250000000002
20
4.0272352564726859
42
0.41421356237299034
10
202.76250000000002
20
3.5272352564726441
10
202.76250000000007
20
-9.4727647435274029
42
0.41421356237310414
0
LWPOLYLINE
5
130
100
AcDbEntity
8
0
100
AcDbPolyline
90
8
70
1
43
0.0
10
212.78750000000002
20
9.0772352564726315
10
225.78749999999999
20
9.0772352564725978
42
0.41421356237298057
10
226.28749999999999
20
9.5772352564726226
10
226.28749999999997
20
22.577235256472683
42
0.41421356237302481
10
225.78749999999999
20
23.077235256472694
10
212.78750000000002
20
23.077235256472722
42
0.4142135623729884
10
212.28750000000002
20
22.577235256472683
10
212.28750000000002
20
9.577235256472612
42
0.41421356237304757
0
LWPOLYLINE
5
131
100
AcDbEntity
8
0
100
AcDbPolyline
90
8
70
1
43
0.0
10
74.674999999999898
20
28.12723525647268
10
87.674999999999898
20
28.12723525647263
42
0.41421356237307422
10
88.175000000000026
20
28.627235256472691
10
88.174999999999869
20
41.62723525647263
42
0.414213562373069
10
87.674999999999898
20
42.12723525647263
10
74.674999999999898
20
42.12723525647263
42
0.414213562373069
10
74.174999999999898
20
41.62723525647263
10
74.174999999999883
20
28.627235256472691
42
0.41421356237311324
0
LWPOLYLINE
5
132
100
AcDbEntity
8
0
100
AcDbPolyline
90
8
70
1
43
0.0
10
197.21250000000001
20
-9.9727647435273941
42
0.414213562373069
10
197.71250000000006
20
-9.4727647435273976
10
197.71250000000006
20
3.5272352564726583
42
0.41421356237304563
10
197.21250000000001
20
4.0272352564726734
10
184.21250000000001
20
4.0272352564726548
42
0.41421356237295098
10
183.71250000000003
20
3.527235256472645
10
183.71250000000001
20
-9.4727647435273798
42
0.414213562373136
10
184.21250000000001
20
-9.9727647435273994
0
LWPOLYLINE
5
133
100
AcDbEntity
8
0
100
AcDbPolyline
90
8
70
1
43
0.0
10
131.82499999999999
20
42.127235256472659
42
0.41421356237307422
10
131.32499999999999
20
41.62723525647263
10
131.32499999999999
20
28.627235256472691
42
0.41421356237304818
10
131.82499999999999
20
28.12723525647268
10
144.8249999999999
20
28.127235256472645
42
0.41421356237311846
10
145.32499999999999
20
28.627235256472691
10
145.32499999999999
20
41.62723525647263
42
0.41421356237304302
10
144.8249999999999
20
42.127235256472659
0
LWPOLYLINE
5
134
100
AcDbEntity
8
0
100
AcDbPolyline
90
8
70
1
43
0.0
10
169.13749999999999
20
22.577235256472683
42
0.41421356237318085
10
168.63750000000007
20
23.077235256472711
10
155.63749999999999
20
23.077235256472704
42
0.41421356237296758
10
155.13749999999999
20
22.577235256472683
10
155.13749999999999
20
9.5772352564726404
42
0.41421356237311713
10
155.63749999999999
20
9.0772352564726368
10
168.63749999999999
20
9.0772352564726351
42
0.41421356237313534
10
169.13749999999999
20
9.5772352564726404
0
LWPOLYLINE
5
135
100
AcDbEntity
8
0
100
AcDbPolyline
90
8
70
1
43
0.0
10
26.2624999999999
20
-15.522764743527349
42
0.41421356237309892
10
25.76249999999991
20
-15.02276474352735
10
10.3812499999999
20
-15.02276474352735
42
0.4142135623730937
10
9.8812499999999197
20
-15.522764743527357
10
9.8812499999999037
20
-28.522764743527375
42
0.41421356237308593
10
10.3812499999999
20
-29.022764743527389
10
25.76249999999991
20
-29.022764743527393
42
0.41421356237310802
10
26.2624999999999
20
-28.522764743527365
0
LWPOLYLINE
5
136
100
AcDbEntity
8
0
100
AcDbPolyline
90
8
70
1
43
0.0
10
130.53750000000002
20
23.077235256472694
10
117.53750000000004
20
23.077235256472719
42
0.41421356237311063
10
117.03749999999999
20
22.577235256472683
10
117.03749999999999
20
9.5772352564726404
42
0.41421356237310542
10
117.53749999999999
20
9.0772352564726528
10
130.53750000000002
20
9.0772352564726475
42
0.41421356237314899
10
131.03749999999999
20
9.5772352564726404
10
131.03749999999994
20
22.577235256472722
42
0.41421356237314183
0
LWPOLYLINE
5
137
100
AcDbEntity
8
0
100
AcDbPolyline
90
8
70
1
43
0.0
10
150.08750000000001
20
22.577235256472683
42
0.41421356237307944
10
149.58750000000003
20
23.077235256472694
10
136.58750000000001
20
23.077235256472616
42
0.41421356237307161
10
136.08750000000001
20
22.577235256472683
10
136.08750000000001
20
9.5772352564726315
42
0.41421356237310542
10
136.58750000000001
20
9.0772352564726422
10
149.58750000000003
20
9.0772352564726404
42
0.41421356237306967
10
150.08750000000003
20
9.5772352564726404
0
LWPOLYLINE
5
138
100
AcDbEntity
8
0
100
AcDbPolyline
90
16
70
1
43
0.0
10
298.50000436604029
20
86.00000172853477
10
287.50000436604034
20
86.000001728534698
42
-0.41421356237311324
10
285.5000043660404
20
88.000001728534713
10
285.5000043660404
20
88.339733538167323
42
0.41423381577270707
10
276.49938202561259
20
97.339733516650227
10
6.5023904083618342
20
97.339727710712026
42
0.41420798628164907
10
-2.4976093957606169
20
88.339898858502934
10
-2.4999049157240885
20
-32.372612602914323
42
0.41421801876939862
10
6.5000608704402651
20
-41.372783750640174
10
351.1124606646282
20
-41.37276474352732
42
0.41421586657864468
10
360.11246066434973
20
-32.372693940136429
10
360.1115110138702
20
88.339805951925086
42
0.41421126449291401
10
351.1115108198984
20
97.339735148534174
10
309.50063509208906
20
97.339734228317369
42
0.41423408867570494
10
300.50000436604029
20
88.339734250418189
10
300.50000436604029
20
88.000001728534997
42
-0.41421356237312623
0
LWPOLYLINE
5
139
100
AcDbEntity
8
0
100
AcDbPolyline
90
8
70
1
43
0.0
10
193.23750000000004
20
9.5772352564726404
10
193.23750000000004
20
22.577235256472651
42
-0.41421356237302481
10
193.73750000000001
20
23.077235256472711
10
206.73750000000001
20
23.077235256472726
42
-0.41421356237311585
10
207.23750000000001
20
22.577235256472683
10
207.23750000000001
20
9.5772352564726226
42
-0.41421356237322249
10
206.73750000000001
20
9.0772352564726138
10
193.73750000000001
20
9.0772352564726067
42
-0.41421356237304818
0
LWPOLYLINE
5
140
100
AcDbEntity
8
0
100
AcDbPolyline
90
8
70
1
43
0.0
10
41.33749999999992
20
9.0772352564726528
10
54.337499999999892
20
9.0772352564726404
42
0.41421356237308005
10
54.837499999999899
20
9.5772352564726404
10
54.837499999999899
20
22.577235256472722
42
0.41421356237308204
10
54.337499999999892
20
23.077235256472711
10
41.337499999999913
20
23.077235256472711
42
0.4142135623730846
10
40.837499999999906
20
22.577235256472722
10
40.837499999999892
20
9.577235256472644
42
0.4142135623730937
0
LWPOLYLINE
5
141
100
AcDbEntity
8
0
100
AcDbPolyline
90
8
70
1
43
0.0
10
73.887499999999903
20
9.5772352564726404
10
73.887499999999903
20
22.577235256472722
42
0.41421356237308204
10
73.387499999999903
20
23.077235256472711
10
60.387499999999896
20
23.077235256472711
42
0.41421356237311063
10
59.887499999999896
20
22.577235256472722
10
59.887499999999896
20
9.5772352564726404
42
0.41421356237309176
10
60.387499999999896
20
9.0772352564726315
10
73.387499999999903
20
9.0772352564726546
42
0.41421356237309243
0
LWPOLYLINE
5
142
100
AcDbEntity
8
0
100
AcDbPolyline
90
8
70
1
43
0.0
10
73.387499999999903
20
-29.022764743527389
42
0.41421356237309503
10
73.887499999999903
20
-28.522764743527365
10
73.887499999999903
20
-15.522764743527357
42
0.41421356237308071
10
73.387499999999903
20
-15.022764743527357
10
58.006249999999895
20
-15.022764743527359
42
0.41421356237307944
10
57.506249999999909
20
-15.522764743527357
10
57.50624999999993
20
-28.522764743527365
42
0.41421356237308982
10
58.006249999999895
20
-29.022764743527372
0
LWPOLYLINE
5
143
100
AcDbEntity
8
0
100
AcDbPolyline
90
8
70
1
43
0.0
10
64.362499999999898
20
-9.4727647435273745
10
64.362499999999898
20
3.5272352564726583
42
0.41421356237307716
10
63.862499999999898
20
4.0272352564726566
10
50.862499999999898
20
4.0272352564726717
42
0.41421356237308299
10
50.362499999999898
20
3.5272352564726583
10
50.362499999999898
20
-9.4727647435273745
42
0.41421356237307555
10
50.862499999999898
20
-9.9727647435273958
10
63.862499999999898
20
-9.9727647435273745
42
0.4142135623731113
0
LWPOLYLINE
5
144
100
AcDbEntity
8
0
100
AcDbPolyline
90
8
70
1
43
0.0
10
188.97500000000002
20
28.127235256472662
10
201.97500000000002
20
28.127235256472645
42
0.41421356237295193
10
202.47500000000008
20
28.627235256472691
10
202.47500000000002
20
41.62723525647263
42
0.41421356237303258
10
201.97500000000008
20
42.127235256472666
10
188.97500000000002
20
42.12723525647263
42
0.41421356237300661
10
188.47499999999999
20
41.62723525647263
10
188.47499999999999
20
28.627235256472691
42
0.4142135623728973
0
LWPOLYLINE
5
145
100
AcDbEntity
8
0
100
AcDbPolyline
90
8
70
1
43
0.0
10
262.00625000000002
20
-15.522764743527382
10
262.00624999999997
20
-28.522764743527354
42
-0.41421356237302737
10
261.50625000000002
20
-29.022764743527397
10
246.125
20
-29.022764743527404
42
-0.41421356237317047
10
245.625
20
-28.522764743527411
10
245.625
20
-15.522764743527382
42
-0.41421356237314705
10
246.125
20
-15.02276474352737
10
261.50625000000002
20
-15.022764743527407
42
-0.41421356237309631
0
LWPOLYLINE
5
146
100
AcDbEntity
8
0
100
AcDbPolyline
90
8
70
1
43
0.0
10
312.0125000000001
20
-15.522764743527409
42
0.4142135623730287
10
311.51249999999999
20
-15.022764743527368
10
298.51249999999999
20
-15.022764743527421
42
0.41421356237310025
10
298.01249999999987
20
-15.522764743527402
10
298.0125000000001
20
-28.522764743527389
42
0.4142135623730222
10
298.51249999999999
20
-29.022764743527432
10
311.51249999999999
20
-29.022764743527439
42
0.41421356237318085
10
312.0125000000001
20
-28.522764743527389
0
LWPOLYLINE
5
147
100
AcDbEntity
8
0
100
AcDbPolyline
90
8
70
1
43
0.0
10
330.56249999999989
20
61.177235256472571
10
317.5625
20
61.177235256472649
42
0.41421356237300139
10
317.06250000000006
20
60.677235256472663
10
317.0625
20
47.67723525647267
42
0.41421356237297535
10
317.5625
20
47.177235256472656
10
330.5625
20
47.17723525647267
42
0.41421356237315227
10
331.0625
20
47.67723525647267
10
331.06249999999989
20
60.677235256472713
42
0.41421356237352686
0
LWPOLYLINE
5
148
100
AcDbEntity
8
0
100
AcDbPolyline
90
8
70
1
43
0.0
10
183.42500000000001
20
84.489735256472187
42
0.41421356237310542
10
182.92500000000004
20
84.989735256472301
10
169.92500000000007
20
84.989735256472315
42
0.41421356237306384
10
169.42500000000001
20
84.489735256472187
10
169.42500000000001
20
71.489735256472429
42
0.41421356237312623
10
169.92500000000004
20
70.989735256472315
10
182.92500000000001
20
70.989735256472386
42
0.41421356237311585
10
183.42500000000001
20
71.489735256472429
0
LWPOLYLINE
5
149
100
AcDbEntity
8
0
100
AcDbPolyline
90
8
70
1
43
0.0
10
28.643749999999923
20
9.5772352564726493
10
28.643749999999912
20
22.577235256472722
42
0.4142135623730846
10
28.143749999999912
20
23.077235256472711
10
10.381249999999905
20
23.077235256472612
42
0.41421356237309892
10
9.8812499999999392
20
22.577235256472722
10
9.8812499999999091
20
9.5772352564726475
42
0.41421356237308204
10
10.381249999999913
20
9.0772352564726475
10
28.143749999999912
20
9.0772352564726404
42
0.4142135623730781
0
LWPOLYLINE
5
150
100
AcDbEntity
8
0
100
AcDbPolyline
90
8
70
1
43
0.0
10
349.61250000000001
20
-15.022764743527457
10
336.61250000000007
20
-15.022764743527388
42
0.41421356237345275
10
336.11250000000013
20
-15.522764743527402
10
336.11250000000013
20
-28.522764743527414
42
0.41421356237310542
10
336.61250000000001
20
-29.02276474352734
10
349.61250000000001
20
-29.022764743527432
42
0.41421356237320689
10
350.11250000000013
20
-28.522764743527414
10
350.11250000000013
20
-15.522764743527402
42
0.4142135623732498
0
LWPOLYLINE
5
151
100
AcDbEntity
8
0
100
AcDbPolyline
90
8
70
1
43
0.0
10
78.14999999999992
20
84.989735256472301
10
65.14999999999992
20
84.989735256472301
42
0.41421356237316265
10
64.649999999999935
20
84.489735256472187
10
64.649999999999935
20
71.489735256472429
42
0.41421356237305862
10
65.14999999999992
20
70.989735256472301
10
78.14999999999992
20
70.9897352564724
42
0.41421356237307422
10
78.649999999999949
20
71.489735256472429
10
78.64999999999992
20
84.489735256472187
42
0.41421356237308982
0
LWPOLYLINE
5
152
100
AcDbEntity
8
0
100
AcDbPolyline
90
8
70
1
43
0.0
10
245.33750000000001
20
9.5772352564726226
10
245.33749999999998
20
22.577235256472683
42
0.41421356237302481
10
244.83750000000001
20
23.077235256472694
10
231.83750000000003
20
23.077235256472729
42
0.41421356237301438
10
231.33750000000006
20
22.577235256472683
10
231.33750000000006
20
9.5772352564726084
42
0.41421356237322704
10
231.83750000000003
20
9.0772352564726315
10
244.83750000000003
20
9.077235256472612
42
0.41421356237295193
0
LWPOLYLINE
5
153
100
AcDbEntity
8
0
100
AcDbPolyline
90
8
70
1
43
0.0
10
317.5625
20
84.989735256472215
42
0.41421356237294937
10
317.0625
20
84.489735256472102
10
317.0625
20
71.489735256472429
42
0.4142135623730378
10
317.5625
20
70.989735256472315
10
330.5625
20
70.989735256472443
42
0.41421356237314705
10
331.0625
20
71.489735256472429
10
331.06249999999989
20
84.489735256472102
42
0.41421356237290774
10
330.56250000000006
20
84.989735256472187
0
LWPOLYLINE
5
154
100
AcDbEntity
8
0
100
AcDbPolyline
90
8
70
1
43
0.0
10
317.06250000000011
20
-9.47276474352741
42
0.41421356237309698
10
317.5625
20
-9.9727647435273923
10
330.5625
20
-9.9727647435274243
42
0.414213562373203
10
331.06250000000011
20
-9.47276474352741
10
331.0625
20
3.5272352564726321
42
0.41421356237318641
10
330.5625
20
4.0272352564725455
10
317.5625
20
4.0272352564726521
42
0.41421356237297763
10
317.0625
20
3.5272352564726317
0
LWPOLYLINE
5
155
100
AcDbEntity
8
0
100
AcDbPolyline
90
8
70
1
43
0.0
10
107.5125
20
3.5272352564726539
10
107.51249999999999
20
-9.4727647435273923
42
0.41421356237308721
10
108.01250000000003
20
-9.9727647435274154
10
121.0125
20
-9.9727647435273745
42
0.41421356237311063
10
121.51250000000003
20
-9.4727647435273923
10
121.51250000000002
20
3.527235256472645
42
0.41421356237313928
10
121.0125
20
4.027235256472661
10
108.01250000000003
20
4.0272352564726503
42
0.41421356237305729
0
LWPOLYLINE
5
156
100
AcDbEntity
8
0
100
AcDbPolyline
90
8
70
1
43
0.0
10
82.912499999999895
20
4.0272352564726832
10
69.912499999999923
20
4.0272352564726797
42
0.41421356237304591
10
69.412499999999895
20
3.5272352564726583
10
69.412499999999909
20
-9.4727647435273745
42
0.41421356237310736
10
69.912499999999923
20
-9.9727647435273923
10
82.912499999999895
20
-9.9727647435274029
42
0.41421356237312756
10
83.412499999999895
20
-9.4727647435273745
10
83.412499999999895
20
3.5272352564726583
42
0.41421356237304169
0
LWPOLYLINE
5
157
100
AcDbEntity
8
0
100
AcDbPolyline
90
8
70
1
43
0.0
10
111.4875
20
9.0772352564726528
42
0.4142135623731048
10
111.98750000000001
20
9.5772352564726404
10
111.98750000000001
20
22.577235256472722
42
0.41421356237310542
10
111.4875
20
23.077235256472711
10
98.487499999999883
20
23.077235256472619
42
0.41421356237311585
10
97.987499999999983
20
22.577235256472683
10
97.987499999999926
20
9.5772352564726404
42
0.41421356237310936
10
98.487499999999883
20
9.0772352564726297
0
LWPOLYLINE
5
158
100
AcDbEntity
8
0
100
AcDbPolyline
90
8
70
1
43
0.0
10
235.8125
20
-9.4727647435273976
10
235.81249999999997
20
3.527235256472645
42
0.4142135623729773
10
235.3125
20
4.0272352564726388
10
222.31250000000003
20
4.0272352564726956
42
0.41421356237301571
10
221.81250000000006
20
3.5272352564726459
10
221.81250000000011
20
-9.4727647435273958
42
0.41421356237308721
10
222.31250000000003
20
-9.9727647435274314
10
235.3125
20
-9.9727647435274474
42
0.41421356237286999
0
LWPOLYLINE
5
159
100
AcDbEntity
8
0
100
AcDbPolyline
90
8
70
1
43
0.0
10
102.75000000000007
20
71.489735256472429
10
102.75
20
84.489735256472187
42
-0.41421356237298057
10
103.25000000000001
20
84.989735256472215
10
116.25
20
84.989735256472215
42
-0.4142135623730846
10
116.75
20
84.489735256472187
10
116.75
20
71.489735256472429
42
-0.4142135623730846
10
116.25
20
70.9897352564724
10
103.25
20
70.9897352564724
42
-0.41421356237312101
0
LWPOLYLINE
5
160
100
AcDbEntity
8
0
100
AcDbPolyline
90
8
70
1
43
0.0
10
55.124999999999922
20
41.627235256472652
10
55.124999999999922
20
28.627235256472691
42
0.41421356237307683
10
55.624999999999936
20
28.127235256472677
10
68.624999999999901
20
28.12723525647268
42
0.41421356237310281
10
69.124999999999929
20
28.627235256472691
10
69.124999999999929
20
41.62723525647263
42
0.41421356237307422
10
68.624999999999901
20
42.12723525647263
10
55.624999999999936
20
42.127235256472659
42
0.41421356237308982
0
LWPOLYLINE
5
161
100
AcDbEntity
8
0
100
AcDbPolyline
90
8
70
1
43
0.0
10
46.099999999999923
20
70.9897352564724
42
-0.4142135623730846
10
45.599999999999923
20
71.489735256472429
10
45.599999999999888
20
84.489735256472187
42
-0.41421356237311063
10
46.099999999999923
20
84.98973525647223
10
59.09999999999993
20
84.989735256472187
42
-0.4142135623730378
10
59.599999999999937
20
84.489735256472201
10
59.599999999999937
20
71.489735256472429
42
-0.4142135623730378
10
59.09999999999993
20
70.989735256472429
0
LWPOLYLINE
5
162
100
AcDbEntity
8
0
100
AcDbPolyline
90
8
70
1
43
0.0
10
140.85000000000014
20
60.677235256472684
10
140.85000000000005
20
47.67723525647267
42
0.41421356237305862
10
141.34999999999999
20
47.177235256472656
10
154.34999999999999
20
47.177235256472699
42
0.41421356237312623
10
154.84999999999999
20
47.67723525647267
10
154.84999999999991
20
60.677235256472684
42
0.41421356237309503
10
154.34999999999999
20
61.177235256472642
10
141.35000000000002
20
61.177235256472706
42
0.41421356237308982
0
LWPOLYLINE
5
163
100
AcDbEntity
8
0
100
AcDbPolyline
90
8
70
1
43
0.0
10
312.0125000000001
20
41.627235256472602
42
0.41421356237304818
10
311.51249999999999
20
42.127235256472623
10
298.51249999999999
20
42.127235256472588
42
0.41421356237310025
10
298.0125000000001
20
41.627235256472602
10
298.01249999999999
20
28.627235256472652
42
0.41421356237313406
10
298.51249999999999
20
28.127235256472645
10
311.51249999999999
20
28.127235256472613
42
0.41421356237305079
10
312.0125000000001
20
28.627235256472652
0
LWPOLYLINE
5
164
100
AcDbEntity
8
0
100
AcDbPolyline
90
8
70
1
43
0.0
10
45.599999999999923
20
60.677235256472684
10
45.599999999999923
20
47.677235256472692
42
0.41421356237314183
10
46.099999999999923
20
47.177235256472699
10
59.099999999999895
20
47.17723525647267
42
0.414213562373069
10
59.599999999999902
20
47.67723525647267
10
59.59999999999993
20
60.677235256472684
42
0.41421356237307944
10
59.09999999999993
20
61.177235256472642
10
46.099999999999923
20
61.177235256472706
42
0.41421356237303258
0
LWPOLYLINE
5
165
100
AcDbEntity
8
0
100
AcDbPolyline
90
8
70
1
43
0.0
10
102.75000000000003
20
47.67723525647267
42
0.41421356237304302
10
103.25000000000001
20
47.177235256472656
10
116.25
20
47.177235256472684
42
0.4142135623730846
10
116.75
20
47.67723525647267
10
116.75
20
60.677235256472684
42
0.41421356237314183
10
116.25
20
61.177235256472642
10
103.25000000000003
20
61.177235256472635
42
0.41421356237308982
10
102.75000000000006
20
60.677235256472684
0
LWPOLYLINE
5
166
100
AcDbEntity
8
0
100
AcDbPolyline
90
8
70
1
43
0.0
10
150.375
20
71.489735256472429
42
0.4142135623730846
10
150.875
20
70.989735256472301
10
163.875
20
70.989735256472386
42
0.41421356237311585
10
164.375
20
71.489735256472429
10
164.375
20
84.489735256472187
42
0.41421356237310542
10
163.87500000000003
20
84.989735256472301
10
150.875
20
84.989735256472301
42
0.4142135623730846
10
150.375
20
84.489735256472187
0
LWPOLYLINE
5
167
100
AcDbEntity
8
0
100
AcDbPolyline
90
8
70
1
43
0.0
10
78.937499999999901
20
22.577235256472722
10
78.937499999999886
20
9.5772352564726404
42
0.41421356237311452
10
79.437499999999915
20
9.0772352564726475
10
92.437499999999886
20
9.0772352564726582
42
0.41421356237307033
10
92.937499999999901
20
9.5772352564726404
10
92.937499999999901
20
22.577235256472722
42
0.41421356237309243
10
92.437499999999886
20
23.077235256472711
10
79.437499999999915
20
23.077235256472708
42
0.41421356237308204
0
LWPOLYLINE
5
168
100
AcDbEntity
8
0
100
AcDbPolyline
90
8
70
1
43
0.0
10
217.0500000000001
20
60.677235256472663
10
217.05000000000001
20
47.67723525647267
42
0.41421356237315227
10
217.55000000000001
20
47.17723525647272
10
230.55000000000007
20
47.177235256472628
42
0.41421356237301177
10
231.05000000000004
20
47.67723525647267
10
231.05000000000004
20
60.677235256472663
42
0.4142135623730222
10
230.55000000000007
20
61.177235256472656
10
217.55000000000001
20
61.177235256472649
42
0.41421356237300139
0
LWPOLYLINE
5
169
100
AcDbEntity
8
0
100
AcDbPolyline
90
8
70
1
43
0.0
10
165.16249999999999
20
-9.9727647435274118
10
178.16249999999999
20
-9.9727647435274154
42
0.41421356237308332
10
178.66250000000005
20
-9.4727647435273923
10
178.66250000000005
20
3.527235256472645
42
0.41421356237298707
10
178.16249999999999
20
4.027235256472661
10
165.16249999999999
20
4.0272352564726486
42
0.41421356237296819
10
164.66250000000005
20
3.527235256472645
10
164.66249999999999
20
-9.4727647435273923
42
0.41421356237313667
0
LWPOLYLINE
5
170
100
AcDbEntity
8
0
100
AcDbPolyline
90
8
70
1
43
0.0
10
78.649999999999935
20
47.67723525647267
42
-0.414213562373069
10
78.14999999999992
20
47.177235256472699
10
65.14999999999992
20
47.177235256472699
42
-0.41421356237312101
10
64.64999999999992
20
47.67723525647267
10
64.64999999999992
20
60.677235256472684
42
-0.41421356237311063
10
65.14999999999992
20
61.177235256472642
10
78.14999999999992
20
61.177235256472741
42
-0.41421356237314705
10
78.649999999999935
20
60.677235256472684
0
LWPOLYLINE
5
171
100
AcDbEntity
8
0
100
AcDbPolyline
90
8
70
1
43
0.0
10
226.57499999999999
20
28.627235256472652
42
0.41421356237321988
10
227.07499999999999
20
28.127235256472645
10
240.07499999999999
20
28.12723525647263
42
0.41421356237289469
10
240.57500000000002
20
28.627235256472652
10
240.57499999999999
20
41.62723525647263
42
0.41421356237304818
10
240.07499999999999
20
42.127235256472602
10
227.07500000000005
20
42.127235256472623
42
0.41421356237316787
10
226.57499999999999
20
41.62723525647263
0
LWPOLYLINE
5
172
100
AcDbEntity
8
0
100
AcDbPolyline
90
8
70
1
43
0.0
10
221.81250000000006
20
-28.5227647435274
42
0.41421356237302998
10
222.31250000000003
20
-29.022764743527389
10
237.69374999999999
20
-29.022764743527404
42
0.4142135623732589
10
238.19375000000002
20
-28.5227647435274
10
238.19375000000008
20
-15.522764743527382
42
0.41421356237297408
10
237.69374999999999
20
-15.022764743527366
10
222.31250000000003
20
-15.022764743527313
42
0.41421356237304818
10
221.81250000000009
20
-15.522764743527382
0
LWPOLYLINE
5
173
100
AcDbEntity
8
0
100
AcDbPolyline
90
8
70
1
43
0.0
10
212.00000000000003
20
47.67723525647267
10
212.00000000000003
20
60.677235256472663
42
0.41421356237304818
10
211.50000000000009
20
61.177235256472642
10
198.5
20
61.177235256472628
42
0.41421356237300661
10
198.00000000000011
20
60.677235256472663
10
198.00000000000011
20
47.67723525647267
42
0.41421356237310542
10
198.5
20
47.177235256472684
10
211.50000000000009
20
47.177235256472628
42
0.41421356237303258
0
LWPOLYLINE
5
174
100
AcDbEntity
8
0
100
AcDbPolyline
90
8
70
1
43
0.0
10
121.8
20
60.677235256472684
10
121.8
20
47.67723525647267
42
0.41421356237311585
10
122.30000000000001
20
47.177235256472699
10
135.30000000000001
20
47.177235256472684
42
0.4142135623730846
10
135.80000000000001
20
47.67723525647267
10
135.80000000000001
20
60.677235256472684
42
0.41421356237309503
10
135.30000000000001
20
61.177235256472706
10
122.30000000000001
20
61.177235256472642
42
0.41421356237312623
0
LWPOLYLINE
5
175
100
AcDbEntity
8
0
100
AcDbPolyline
90
8
70
1
43
0.0
10
159.90000000000003
20
47.67723525647267
42
0.41421356237306384
10
160.40000000000003
20
47.177235256472656
10
173.40000000000001
20
47.177235256472692
42
0.41421356237324591
10
173.90000000000001
20
47.67723525647267
10
173.90000000000001
20
60.677235256472684
42
0.41421356237296497
10
173.39999999999998
20
61.177235256472642
10
160.40000000000003
20
61.177235256472713
42
0.41421356237315748
10
159.90000000000003
20
60.677235256472684
0
LWPOLYLINE
5
176
100
AcDbEntity
8
0
100
AcDbPolyline
90
8
70
1
43
0.0
10
126.27500000000001
20
28.627235256472691
10
126.27500000000001
20
41.62723525647263
42
0.41421356237308982
10
125.77500000000001
20
42.12723525647263
10
112.77500000000003
20
42.127235256472616
42
0.41421356237300661
10
112.27500000000001
20
41.62723525647263
10
112.27500000000001
20
28.627235256472691
42
0.41421356237308721
10
112.77500000000003
20
28.127235256472677
10
125.77500000000001
20
28.127235256472641
42
0.41421356237310025
0
LWPOLYLINE
5
177
100
AcDbEntity
8
0
100
AcDbPolyline
90
8
70
1
43
0.0
10
7.4999999999999432
20
71.489735256472429
42
0.41421356237305273
10
7.9999999999999316
20
70.989735256472315
10
20.999999999999908
20
70.9897352564724
42
0.41421356237308721
10
21.499999999999908
20
71.489735256472429
10
21.499999999999901
20
84.489735256472187
42
0.41421356237314183
10
20.999999999999922
20
84.989735256472301
10
7.9999999999999352
20
84.989735256472301
42
0.41421356237307555
10
7.4999999999999192
20
84.489735256472187
0
LWPOLYLINE
5
178
100
AcDbEntity
8
0
100
AcDbPolyline
90
8
70
1
43
0.0
10
312.0125000000001
20
60.677235256472663
42
0.41421356237311063
10
311.51249999999999
20
61.177235256472578
10
298.51249999999999
20
61.177235256472628
42
0.41421356237300661
10
298.0125000000001
20
60.677235256472663
10
298.01249999999999
20
47.67723525647267
42
0.41421356237297535
10
298.51249999999999
20
47.177235256472656
10
311.51249999999999
20
47.177235256472621
42
0.41421356237301699
10
312.0125000000001
20
47.67723525647267
0
LWPOLYLINE
5
179
100
AcDbEntity
8
0
100
AcDbPolyline
90
8
70
1
43
0.0
10
36.074999999999903
20
41.627235256472652
10
36.074999999999903
20
28.627235256472691
42
0.41421356237307422
10
36.574999999999903
20
28.127235256472684
10
49.574999999999889
20
28.12723525647268
42
0.41421356237313406
10
50.074999999999932
20
28.627235256472691
10
50.074999999999903
20
41.627235256472652
42
0.4142135623730846
10
49.574999999999896
20
42.127235256472638
10
36.574999999999903
20
42.127235256472645
42
0.41421356237307161
0
LWPOLYLINE
5
180
100
AcDbEntity
8
0
100
AcDbPolyline
90
8
70
1
43
0.0
10
93.724999999999909
20
42.127235256472666
42
0.41421356237301699
10
93.224999999999923
20
41.62723525647263
10
93.224999999999923
20
28.627235256472691
42
0.41421356237306123
10
93.724999999999966
20
28.127235256472677
10
106.72499999999999
20
28.12723525647268
42
0.41421356237309764
10
107.22499999999999
20
28.627235256472691
10
107.22499999999999
20
41.62723525647263
42
0.41421356237308982
10
106.72499999999999
20
42.12723525647263
0
LWPOLYLINE
5
181
100
AcDbEntity
8
0
100
AcDbPolyline
90
8
70
1
43
0.0
10
207.52499999999998
20
28.627235256472652
42
0.41421356237316265
10
208.02500000000009
20
28.127235256472648
10
221.02500000000006
20
28.127235256472638
42
0.41421356237301699
10
221.52500000000006
20
28.627235256472652
10
221.52500000000006
20
41.62723525647263
42
0.41421356237304818
10
221.02500000000006
20
42.127235256472694
10
208.02500000000009
20
42.127235256472623
42
0.41421356237306384
10
207.52500000000003
20
41.62723525647263
0
LWPOLYLINE
5
182
100
AcDbEntity
8
0
100
AcDbPolyline
90
8
70
1
43
0.0
10
27.04999999999993
20
47.177235256472699
10
40.049999999999898
20
47.177235256472699
42
0.41421356237312623
10
40.549999999999891
20
47.677235256472692
10
40.549999999999926
20
60.677235256472684
42
0.4142135623730534
10
40.049999999999912
20
61.177235256472684
10
27.04999999999993
20
61.177235256472713
42
0.41421356237303519
10
26.549999999999905
20
60.677235256472684
10
26.549999999999923
20
47.677235256472692
42
0.41421356237310542
0
LWPOLYLINE
5
183
100
AcDbEntity
8
0
100
AcDbPolyline
90
8
70
1
43
0.0
10
236.09999999999999
20
84.489735256472187
10
236.09999999999999
20
71.489735256472429
42
0.41421356237312623
10
236.59999999999999
20
70.989735256472315
10
249.60000000000002
20
70.989735256472386
42
0.41421356237299095
10
250.10000000000002
20
71.489735256472429
10
250.10000000000005
20
84.489735256472187
42
0.4142135623730846
10
249.60000000000002
20
84.989735256472301
10
236.59999999999999
20
84.989735256472301
42
0.41421356237311585
0
LWPOLYLINE
5
184
100
AcDbEntity
8
0
100
AcDbPolyline
90
8
70
1
43
0.0
10
83.699999999999889
20
71.489735256472429
42
0.41421356237311585
10
84.199999999999932
20
70.989735256472315
10
97.199999999999989
20
70.9897352564724
42
0.41421356237302737
10
97.69999999999996
20
71.489735256472429
10
97.69999999999996
20
84.489735256472187
42
0.4142135623730846
10
97.199999999999974
20
84.989735256472301
10
84.199999999999932
20
84.989735256472301
42
0.4142135623730534
10
83.699999999999889
20
84.489735256472187
0
LWPOLYLINE
5
185
100
AcDbEntity
8
0
100
AcDbPolyline
90
8
70
1
43
0.0
10
312.01250000000022
20
71.489735256472429
10
312.01250000000027
20
84.489735256472102
42
0.41421356237309503
10
311.5125000000001
20
84.989735256472187
10
298.51249999999999
20
84.989735256472187
42
0.41421356237312623
10
298.01249999999987
20
84.489735256472102
10
298.01249999999999
20
71.489735256472429
42
0.4142135623730378
10
298.51249999999999
20
70.989735256472315
10
311.51249999999999
20
70.989735256472343
42
0.41421356237314183
0
LWPOLYLINE
5
186
100
AcDbEntity
8
0
100
AcDbPolyline
90
8
70
1
43
0.0
10
249.60000000000002
20
61.177235256472642
10
236.59999999999999
20
61.177235256472656
42
0.41421356237313145
10
236.09999999999999
20
60.677235256472663
10
236.09999999999999
20
47.67723525647267
42
0.41421356237319906
10
236.59999999999999
20
47.177235256472642
10
249.60000000000002
20
47.177235256472684
42
0.41421356237318868
10
250.10000000000014
20
47.67723525647267
10
250.10000000000002
20
60.677235256472663
42
0.41421356237300139
0
LWPOLYLINE
5
187
100
AcDbEntity
8
0
100
AcDbPolyline
90
8
70
1
43
0.0
10
73.887499999999903
20
-28.522764743527365
10
73.887499999999903
20
-15.522764743527357
42
0.41421356237308071
10
73.387499999999903
20
-15.022764743527357
10
58.006249999999895
20
-15.022764743527359
42
0.41421356237307944
10
57.506249999999909
20
-15.522764743527357
10
57.50624999999993
20
-28.522764743527365
42
0.41421356237308982
10
58.006249999999895
20
-29.022764743527372
10
73.387499999999903
20
-29.022764743527389
42
0.41421356237309503
0
LINE
5
188
100
AcDbEntity
8
0
100
AcDbLine
10
82.628984261872716
20
-31.127136581070438
30
0
11
82.628984261872716
21
-11.687085315774262
31
0
0
SPLINE
5
189
100
AcDbEntity
8
0
100
AcDbSpline
70
0
71
3
72
8
73
4
74
0
42
0.000000001
43
0.0000000001
44
0.0000000001
40
2
40
2
40
2
40
2
40
3
40
3
40
3
40
3
10
82.628984261872716
20
-11.687085315774262
30
0
10
82.628984261872716
20
-11.177038929183105
30
0
10
83.04411826784532
20
-10.762077177984715
30
0
10
83.554164654436562
20
-10.762077177984715
30
0
0
LINE
5
190
100
AcDbEntity
8
0
100
AcDbLine
10
83.554164654436562
20
-10.762077177984715
30
0
11
93.054031732179652
21
-10.762077177984715
31
0
0
SPLINE
5
191
100
AcDbEntity
8
0
100
AcDbSpline
70
0
71
3
72
8
73
4
74
0
42
0.000000001
43
0.0000000001
44
0.0000000001
40
4
40
4
40
4
40
4
40
5
40
5
40
5
40
5
10
93.054031732179652
20
-10.762077177984715
30
0
10
93.564078118770894
20
-10.762077177984715
30
0
10
93.979212124743498
20
-11.177038929183105
30
0
10
93.979212124743498
20
-11.687085315774262
30
0
0
LINE
5
192
100
AcDbEntity
8
0
100
AcDbLine
10
93.979212124743498
20
-11.687085315774262
30
0
11
93.979212124743498
21
-28.472001490588532
31
0
0
SPLINE
5
193
100
AcDbEntity
8
0
100
AcDbSpline
70
0
71
3
72
8
73
4
74
0
42
0.000000001
43
0.0000000001
44
0.0000000001
40
6
40
6
40
6
40
6
40
7
40
7
40
7
40
7
10
93.979212124743498
20
-28.472001490588532
30
0
10
93.979212124743498
20
-28.678879474477803
30
0
10
94.147332784423696
20
-28.847000134157987
30
0
10
94.354038513538683
20
-28.847000134157987
30
0
0
LINE
5
194
100
AcDbEntity
8
0
100
AcDbLine
10
94.354038513538683
20
-28.847000134157987
30
0
11
128.69205799032571
21
-28.847000134157987
31
0
0
SPLINE
5
195
100
AcDbEntity
8
0
100
AcDbSpline
70
0
71
3
72
8
73
4
74
0
42
0.000000001
43
0.0000000001
44
0.0000000001
40
8
40
8
40
8
40
8
40
9
40
9
40
9
40
9
10
128.69205799032571
20
-28.847000134157987
30
0
10
128.89893597421494
20
-28.847000134157987
30
0
10
129.06705663389516
20
-28.678879474477803
30
0
10
129.06705663389516
20
-28.472001490588532
30
0
0
LINE
5
196
100
AcDbEntity
8
0
100
AcDbLine
10
129.06705663389516
20
-28.472001490588532
30
0
11
129.06705663389516
21
-15.072130345934944
31
0
0
SPLINE
5
197
100
AcDbEntity
8
0
100
AcDbSpline
70
0
71
3
72
8
73
4
74
0
42
0.000000001
43
0.0000000001
44
0.0000000001
40
10
40
10
40
10
40
10
40
11
40
11
40
11
40
11
10
129.06705663389516
20
-15.072130345934944
30
0
10
129.06705663389516
20
-14.948106908465952
30
0
10
129.16817018638724
20
-14.846993355973872
30
0
10
129.29219362385624
20
-14.846993355973872
30
0
0
LINE
5
198
100
AcDbEntity
8
0
100
AcDbLine
10
129.29219362385624
20
-14.846993355973872
30
0
11
154.69206476850974
21
-14.846993355973872
31
0
0
SPLINE
5
199
100
AcDbEntity
8
0
100
AcDbSpline
70
0
71
3
72
8
73
4
74
0
42
0.000000001
43
0.0000000001
44
0.0000000001
40
12
40
12
40
12
40
12
40
13
40
13
40
13
40
13
10
154.69206476850974
20
-14.846993355973872
30
0
10
154.81608820597873
20
-14.846993355973872
30
0
10
154.91720175847081
20
-14.948106908465952
30
0
10
154.91720175847081
20
-15.072130345934944
30
0
0
LINE
5
200
100
AcDbEntity
8
0
100
AcDbLine
10
154.91720175847081
20
-15.072130345934944
30
0
11
154.91720175847081
21
-28.472001490588532
31
0
0
SPLINE
5
201
100
AcDbEntity
8
0
100
AcDbSpline
70
0
71
3
72
8
73
4
74
0
42
0.000000001
43
0.0000000001
44
0.0000000001
40
14
40
14
40
14
40
14
40
15
40
15
40
15
40
15
10
154.91720175847081
20
-28.472001490588532
30
0
10
154.91720175847081
20
-28.678879474477803
30
0
10
155.08532241815101
20
-28.847000134157987
30
0
10
155.29220040204027
20
-28.847000134157987
30
0
0
SPLINE
5
202
100
AcDbEntity
8
0
100
AcDbSpline
70
0
71
3
72
8
73
4
74
0
42
0.000000001
43
0.0000000001
44
0.0000000001
40
16
40
16
40
16
40
16
40
17
40
17
40
17
40
17
10
182.13004762405302
20
-28.847000134157987
30
0
10
182.33692560794228
20
-28.847000134157987
30
0
10
182.50504626762248
20
-28.678879474477803
30
0
10
182.50504626762248
20
-28.472001490588532
30
0
0
LINE
5
203
100
AcDbEntity
8
0
100
AcDbLine
10
182.50504626762248
20
-28.472001490588532
30
0
11
182.50504626762248
21
-11.687085315774262
31
0
0
SPLINE
5
204
100
AcDbEntity
8
0
100
AcDbSpline
70
0
71
3
72
8
73
4
74
0
42
0.000000001
43
0.0000000001
44
0.0000000001
40
18
40
18
40
18
40
18
40
19
40
19
40
19
40
19
10
182.50504626762248
20
-11.687085315774262
30
0
10
182.50504626762248
20
-11.177038929183105
30
0
10
182.92000801882082
20
-10.762077177984715
30
0
10
183.43005440541205
20
-10.762077177984715
30
0
0
LINE
5
205
100
AcDbEntity
8
0
100
AcDbLine
10
183.43005440541205
20
-10.762077177984715
30
0
11
188.43009373792941
21
-10.762077177984715
31
0
0
SPLINE
5
206
100
AcDbEntity
8
0
100
AcDbSpline
70
0
71
3
72
8
73
4
74
0
42
0.000000001
43
0.0000000001
44
0.0000000001
40
20
40
20
40
20
40
20
40
21
40
21
40
21
40
21
10
188.43009373792941
20
-10.762077177984715
30
0
10
188.94014012452064
20
-10.762077177984715
30
0
10
189.35510187571901
20
-11.177038929183105
30
0
10
189.35510187571901
20
-11.687085315774262
30
0
0
LINE
5
207
100
AcDbEntity
8
0
100
AcDbLine
10
189.35510187571901
20
-11.687085315774262
30
0
11
189.35510187571901
21
-28.847000134157987
31
0
0
SPLINE
5
208
100
AcDbEntity
8
0
100
AcDbSpline
70
0
71
3
72
8
73
4
74
0
42
0.000000001
43
0.0000000001
44
0.0000000001
40
0
40
0
40
0
40
0
40
1
40
1
40
1
40
1
10
83.554164654436562
20
-32.052144718860127
30
0
10
83.04411826784532
20
-32.052144718860127
30
0
10
82.628984261872716
20
-31.637182967661808
30
0
10
82.628984261872716
20
-31.127136581070438
30
0
0
LINE
5
209
100
AcDbEntity
8
0
100
AcDbLine
10
213.43009373792941
20
-32.052144718860127
30
0
11
83.554164654436562
21
-32.052144718860127
31
0
0
SPLINE
5
210
100
AcDbEntity
8
0
100
AcDbSpline
70
0
71
3
72
8
73
4
74
0
42
0.000000001
43
0.0000000001
44
0.0000000001
40
16
40
16
40
16
40
16
40
17
40
17
40
17
40
17
10
200.13004762405299
20
-28.847000134157987
30
0
10
200.33692560794225
20
-28.847000134157987
30
0
10
200.50504626762245
20
-28.678879474477803
30
0
10
200.50504626762245
20
-28.472001490588532
30
0
0
LINE
5
211
100
AcDbEntity
8
0
100
AcDbLine
10
200.50504626762245
20
-28.472001490588532
30
0
11
200.50504626762245
21
-11.687085315774262
31
0
0
SPLINE
5
212
100
AcDbEntity
8
0
100
AcDbSpline
70
0
71
3
72
8
73
4
74
0
42
0.000000001
43
0.0000000001
44
0.0000000001
40
22
40
22
40
22
40
22
40
23
40
23
40
23
40
23
10
214.35510187571901
20
-31.127136581070438
30
0
10
214.35510187571901
20
-31.637182967661808
30
0
10
213.94014012452064
20
-32.052144718860127
30
0
10
213.43009373792941
20
-32.052144718860127
30
0
0
LINE
5
213
100
AcDbEntity
8
0
100
AcDbLine
10
214.35510187571901
20
-11.687085315774262
30
0
11
214.35510187571901
21
-31.127136581070438
31
0
0
SPLINE
5
214
100
AcDbEntity
8
0
100
AcDbSpline
70
0
71
3
72
8
73
4
74
0
42
0.000000001
43
0.0000000001
44
0.0000000001
40
20
40
20
40
20
40
20
40
21
40
21
40
21
40
21
10
213.43009373792941
20
-10.762077177984715
30
0
10
213.94014012452064
20
-10.762077177984715
30
0
10
214.35510187571901
20
-11.177038929183105
30
0
10
214.35510187571901
20
-11.687085315774262
30
0
0
LINE
5
215
100
AcDbEntity
8
0
100
AcDbLine
10
201.43005440541202
20
-10.762077177984715
30
0
11
213.43009373792941
21
-10.762077177984715
31
0
0
SPLINE
5
216
100
AcDbEntity
8
0
100
AcDbSpline
70
0
71
3
72
8
73
4
74
0
42
0.000000001
43
0.0000000001
44
0.0000000001
40
18
40
18
40
18
40
18
40
19
40
19
40
19
40
19
10
200.50504626762245
20
-11.687085315774262
30
0
10
200.50504626762245
20
-11.177038929183105
30
0
10
200.92000801882079
20
-10.762077177984715
30
0
10
201.43005440541202
20
-10.762077177984715
30
0
0
LINE
5
217
100
AcDbEntity
8
0
100
AcDbLine
10
155.29220040204027
20
-28.847000134157987
30
0
11
182.13004762405302
21
-28.847000134157987
31
0
0
LINE
5
218
100
AcDbEntity
8
0
100
AcDbLine
10
189.35510187571901
20
-28.847000134157987
30
0
11
200.13004762405299
21
-28.847000134157987
31
0
0
SPLINE
5
219
100
AcDbEntity
8
0
100
AcDbSpline
70
0
71
3
72
8
73
4
74
0
42
0.000000001
43
0.0000000001
44
0.0000000001
40
2
40
2
40
2
40
2
40
3
40
3
40
3
40
3
10
249.12898426187269
20
5.3129146842257846
30
0
10
249.12898426187269
20
5.822961070816941
30
0
10
249.54411826784531
20
6.2379228220153315
30
0
10
250.05416465443656
20
6.2379228220153315
30
0
0
LINE
5
220
100
AcDbEntity
8
0
100
AcDbLine
10
250.05416465443656
20
6.2379228220153315
30
0
11
254.12898426187274
21
6.2379228220153315
31
0
0
SPLINE
5
221
100
AcDbEntity
8
0
100
AcDbSpline
70
0
71
3
72
8
73
4
74
0
42
0.000000001
43
0.0000000001
44
0.0000000001
40
22
40
22
40
22
40
22
40
23
40
23
40
23
40
23
10
280.35510187571896
20
-13.127136581070395
30
0
10
280.35510187571896
20
-13.637182967661765
30
0
10
279.94014012452061
20
-14.052144718860085
30
0
10
279.43009373792938
20
-14.052144718860085
30
0
0
SPLINE
5
222
100
AcDbEntity
8
0
100
AcDbSpline
70
0
71
3
72
8
73
4
74
0
42
0.000000001
43
0.0000000001
44
0.0000000001
40
0
40
0
40
0
40
0
40
1
40
1
40
1
40
1
10
250.55416465443656
20
-14.052144718860085
30
0
10
250.04411826784531
20
-14.052144718860085
30
0
10
249.62898426187269
20
-13.637182967661765
30
0
10
249.62898426187269
20
-13.127136581070395
30
0
0
LINE
5
223
100
AcDbEntity
8
0
100
AcDbLine
10
279.43009373792938
20
-14.052144718860085
30
0
11
250.55416465443656
21
-14.052144718860085
31
0
0
LINE
5
224
100
AcDbEntity
8
0
100
AcDbLine
10
288.3125
20
3.527235256472645
30
0
11
288.3125
21
-9.4727647435273976
31
0
0
ARC
5
225
100
AcDbEntity
8
0
100
AcDbCircle
10
-287.81249999999977
20
-9.4727647435272271
30
0
40
0.50000000000022027
210
0
220
-0
230
-1
100
AcDbArc
50
180
51
270
0
ARC
5
226
100
AcDbEntity
8
0
100
AcDbCircle
10
-248.31250000000011
20
-9.4727647435274545
30
0
40
0.49999999999997713
210
-0
220
0
230
-1
100
AcDbArc
50
-89.999999999993491
51
0
0
LINE
5
227
100
AcDbEntity
8
0
100
AcDbLine
10
247.81250000000011
20
-9.4727647435273958
30
0
11
247.81250000000006
21
3.5272352564726459
31
0
0
ARC
5
228
100
AcDbEntity
8
0
100
AcDbCircle
10
-248.31250000000014
20
3.5272352564726175
30
0
40
0.50000000000007816
210
0
220
0
230
-1
100
AcDbArc
50
0
51
89.999999999990237
0
ARC
5
229
100
AcDbEntity
8
0
100
AcDbCircle
10
-287.81249999999989
20
3.5272352564725509
30
0
40
0.50000000000004319
210
0
220
0
230
-1
100
AcDbArc
50
90
51
180
0
LINE
5
230
100
AcDbEntity
8
0
100
AcDbLine
10
249.12898426187269
20
5.3129146842257846
30
0
11
249.12898426187269
21
4.0272352564726601
31
0
0
LINE
5
231
100
AcDbEntity
8
0
100
AcDbLine
10
249.62898426187269
20
-9.9727647435274314
30
0
11
249.62898426187269
21
-13.127136581070395
31
0
0
LINE
5
232
100
AcDbEntity
8
0
100
AcDbLine
10
280.35510187571896
20
-13.127136581070395
30
0
11
280.35510187571896
21
-9.9727647435274225
31
0
0
LINE
5
233
100
AcDbEntity
8
0
100
AcDbLine
10
248.31250000000006
20
4.027235256472661
30
0
11
249.12898426187269
21
4.0272352564726601
31
0
0
LINE
5
234
100
AcDbEntity
8
0
100
AcDbLine
10
284.85510187571896
20
4.0272352564725988
30
0
11
287.81249999999989
21
4.0272352564725935
31
0
0
LINE
5
235
100
AcDbEntity
8
0
100
AcDbLine
10
287.81249999999977
20
-9.9727647435274207
30
0
11
280.35510187571896
21
-9.9727647435274225
31
0
0
LINE
5
236
100
AcDbEntity
8
0
100
AcDbLine
10
249.62898426187269
20
-9.9727647435274314
30
0
11
248.31250000000006
21
-9.9727647435274314
31
0
0
SPLINE
5
237
100
AcDbEntity
8
0
100
AcDbSpline
70
0
71
3
72
8
73
4
74
0
42
0.000000001
43
0.0000000001
44
0.0000000001
40
2
40
2
40
2
40
2
40
3
40
3
40
3
40
3
10
11.128984261872743
20
5.3129146842257313
30
0
10
11.128984261872743
20
5.8229610708168877
30
0
10
11.544118267845347
20
6.2379228220152783
30
0
10
12.054164654436601
20
6.2379228220152783
30
0
0
LINE
5
238
100
AcDbEntity
8
0
100
AcDbLine
10
12.054164654436601
20
6.2379228220152783
30
0
11
17.054031732179673
21
6.2379228220152783
31
0
0
SPLINE
5
239
100
AcDbEntity
8
0
100
AcDbSpline
70
0
71
3
72
8
73
4
74
0
42
0.000000001
43
0.0000000001
44
0.0000000001
40
4
40
4
40
4
40
4
40
5
40
5
40
5
40
5
10
17.054031732179673
20
6.2379228220152783
30
0
10
17.564078118770922
20
6.2379228220152783
30
0
10
17.979212124743526
20
5.8229610708168877
30
0
10
17.979212124743526
20
5.3129146842257313
30
0
0
SPLINE
5
240
100
AcDbEntity
8
0
100
AcDbSpline
70
0
71
3
72
8
73
4
74
0
42
0.000000001
43
0.0000000001
44
0.0000000001
40
18
40
18
40
18
40
18
40
19
40
19
40
19
40
19
10
35.00504626762249
20
5.3129146842257313
30
0
10
35.00504626762249
20
5.8229610708168877
30
0
10
35.420008018820823
20
6.2379228220152783
30
0
10
35.930054405412065
20
6.2379228220152783
30
0
0
LINE
5
241
100
AcDbEntity
8
0
100
AcDbLine
10
35.930054405412065
20
6.2379228220152783
30
0
11
40.930093737929418
21
6.2379228220152783
31
0
0
SPLINE
5
242
100
AcDbEntity
8
0
100
AcDbSpline
70
0
71
3
72
8
73
4
74
0
42
0.000000001
43
0.0000000001
44
0.0000000001
40
20
40
20
40
20
40
20
40
21
40
21
40
21
40
21
10
40.930093737929418
20
6.2379228220152783
30
0
10
41.440140124520653
20
6.2379228220152783
30
0
10
41.855101875718994
20
5.8229610708168877
30
0
10
41.855101875718994
20
5.3129146842257313
30
0
0
SPLINE
5
243
100
AcDbEntity
8
0
100
AcDbSpline
70
0
71
3
72
8
73
4
74
0
42
0.000000001
43
0.0000000001
44
0.0000000001
40
22
40
22
40
22
40
22
40
23
40
23
40
23
40
23
10
41.855101875718994
20
-13.127136581070449
30
0
10
41.855101875718994
20
-13.637182967661818
30
0
10
41.440140124520653
20
-14.052144718860138
30
0
10
40.930093737929418
20
-14.052144718860138
30
0
0
LINE
5
244
100
AcDbEntity
8
0
100
AcDbLine
10
40.930093737929418
20
-14.052144718860138
30
0
11
12.054164654436601
21
-14.052144718860138
31
0
0
SPLINE
5
245
100
AcDbEntity
8
0
100
AcDbSpline
70
0
71
3
72
8
73
4
74
0
42
0.000000001
43
0.0000000001
44
0.0000000001
40
0
40
0
40
0
40
0
40
1
40
1
40
1
40
1
10
12.054164654436601
20
-14.052144718860138
30
0
10
11.544118267845347
20
-14.052144718860138
30
0
10
11.128984261872743
20
-13.637182967661818
30
0
10
11.128984261872743
20
-13.127136581070449
30
0
0
LINE
5
246
100
AcDbEntity
8
0
100
AcDbLine
10
44.862499999999905
20
3.5272352564726583
30
0
11
44.862499999999905
21
-9.4727647435273745
31
0
0
ARC
5
247
100
AcDbEntity
8
0
100
AcDbCircle
10
-44.362499999999912
20
-9.4727647435273852
30
0
40
0.49999999999998934
210
0
220
0
230
-1
100
AcDbArc
50
180
51
270.00000000000159
0
ARC
5
248
100
AcDbEntity
8
0
100
AcDbCircle
10
-10.862499999999926
20
-9.4727647435273692
30
0
40
0.50000000000002853
210
0
220
-0
230
-1
100
AcDbArc
50
269.49959046127759
51
360
0
LINE
5
249
100
AcDbEntity
8
0
100
AcDbLine
10
10.362499999999901
20
-9.4727647435273745
30
0
11
10.362499999999901
21
3.5272352564726557
31
0
0
ARC
5
250
100
AcDbEntity
8
0
100
AcDbCircle
10
-10.862499999999917
20
3.5272352564726557
30
0
40
0.50000000000001599
210
0
220
0
230
-1
100
AcDbArc
50
0
51
90
0
ARC
5
251
100
AcDbEntity
8
0
100
AcDbCircle
10
-44.362499999999883
20
3.5272352564726366
30
0
40
0.50000000000001987
210
0
220
0
230
-1
100
AcDbArc
50
90.000000000001634
51
180
0
LINE
5
252
100
AcDbEntity
8
0
100
AcDbLine
10
11.128984261872743
20
-13.127136581070449
30
0
11
11.128984261872738
21
-9.9727458230871271
31
0
0
LINE
5
253
100
AcDbEntity
8
0
100
AcDbLine
10
11.128984261872743
20
4.0272352564726948
30
0
11
11.128984261872743
21
5.3129146842257313
31
0
0
LINE
5
254
100
AcDbEntity
8
0
100
AcDbLine
10
44.362499999999898
20
-9.9727647435273781
30
0
11
41.855101875718994
21
-9.9727633160203766
31
0
0
LINE
5
255
100
AcDbEntity
8
0
100
AcDbLine
10
11.128984261872738
20
-9.9727458230871271
30
0
11
10.866866841512479
21
-9.9727456738589488
31
0
0
LINE
5
256
100
AcDbEntity
8
0
100
AcDbLine
10
41.855101875718994
20
5.3129146842257313
30
0
11
41.855101875719001
21
4.0272352564726592
31
0
0
LINE
5
257
100
AcDbEntity
8
0
100
AcDbLine
10
41.855101875718994
20
-9.9727633160203766
30
0
11
41.855101875718994
21
-13.127136581070449
31
0
0
LINE
5
258
100
AcDbEntity
8
0
100
AcDbLine
10
17.979212124743526
20
5.3129146842257313
30
0
11
17.979212124743526
21
4.0272352564726868
31
0
0
LINE
5
259
100
AcDbEntity
8
0
100
AcDbLine
10
35.00504626762249
20
5.3129146842257313
30
0
11
35.00504626762249
21
4.0272352564726672
31
0
0
LINE
5
260
100
AcDbEntity
8
0
100
AcDbLine
10
10.862499999999917
20
4.0272352564726948
30
0
11
11.128984261872743
21
4.0272352564726948
31
0
0
LINE
5
261
100
AcDbEntity
8
0
100
AcDbLine
10
17.979212124743526
20
4.0272352564726868
30
0
11
35.00504626762249
21
4.0272352564726672
31
0
0
LINE
5
262
100
AcDbEntity
8
0
100
AcDbLine
10
41.855101875719001
20
4.0272352564726592
30
0
11
44.362499999999898
21
4.0272352564726566
31
0
0
SPLINE
5
263
100
AcDbEntity
8
0
100
AcDbSpline
70
0
71
3
72
8
73
4
74
0
42
0.000000001
43
0.0000000001
44
0.0000000001
40
2
40
2
40
2
40
2
40
3
40
3
40
3
40
3
10
256.62898426187274
20
62.312914684225774
30
0
10
256.62898426187274
20
62.82296107081693
30
0
10
257.04411826784536
20
63.237922822015321
30
0
10
257.55416465443659
20
63.237922822015321
30
0
0
LINE
5
264
100
AcDbEntity
8
0
100
AcDbLine
10
257.55416465443659
20
63.237922822015321
30
0
11
262.55403173217968
21
63.237922822015321
31
0
0
SPLINE
5
265
100
AcDbEntity
8
0
100
AcDbSpline
70
0
71
3
72
8
73
4
74
0
42
0.000000001
43
0.0000000001
44
0.0000000001
40
4
40
4
40
4
40
4
40
5
40
5
40
5
40
5
10
262.55403173217968
20
63.237922822015321
30
0
10
263.06407811877091
20
63.237922822015321
30
0
10
263.47921212474353
20
62.82296107081693
30
0
10
263.47921212474353
20
62.312914684225774
30
0
0
LINE
5
266
100
AcDbEntity
8
0
100
AcDbLine
10
263.47921212474353
20
62.312914684225774
30
0
11
263.47921212474353
21
61.177235256472642
31
0
0
LINE
5
267
100
AcDbEntity
8
0
100
AcDbLine
10
280.50504626762245
20
61.177235256472642
30
0
11
280.50504626762245
21
62.312914684225774
31
0
0
SPLINE
5
268
100
AcDbEntity
8
0
100
AcDbSpline
70
0
71
3
72
8
73
4
74
0
42
0.000000001
43
0.0000000001
44
0.0000000001
40
18
40
18
40
18
40
18
40
19
40
19
40
19
40
19
10
280.50504626762245
20
62.312914684225774
30
0
10
280.50504626762245
20
62.82296107081693
30
0
10
280.92000801882085
20
63.237922822015321
30
0
10
281.43005440541208
20
63.237922822015321
30
0
0
LINE
5
269
100
AcDbEntity
8
0
100
AcDbLine
10
281.43005440541208
20
63.237922822015321
30
0
11
286.43009373792944
21
63.237922822015321
31
0
0
SPLINE
5
270
100
AcDbEntity
8
0
100
AcDbSpline
70
0
71
3
72
8
73
4
74
0
42
0.000000001
43
0.0000000001
44
0.0000000001
40
20
40
20
40
20
40
20
40
21
40
21
40
21
40
21
10
286.43009373792944
20
63.237922822015321
30
0
10
286.94014012452067
20
63.237922822015321
30
0
10
287.35510187571896
20
62.82296107081693
30
0
10
287.35510187571896
20
62.312914684225774
30
0
0
SPLINE
5
271
100
AcDbEntity
8
0
100
AcDbSpline
70
0
71
3
72
8
73
4
74
0
42
0.000000001
43
0.0000000001
44
0.0000000001
40
22
40
22
40
22
40
22
40
23
40
23
40
23
40
23
10
287.35510187571896
20
43.872863418929597
30
0
10
287.35510187571896
20
43.362817032338228
30
0
10
286.94014012452067
20
42.947855281139908
30
0
10
286.43009373792944
20
42.947855281139908
30
0
0
LINE
5
272
100
AcDbEntity
8
0
100
AcDbLine
10
286.43009373792944
20
42.947855281139908
30
0
11
257.55416465443659
21
42.947855281139908
31
0
0
SPLINE
5
273
100
AcDbEntity
8
0
100
AcDbSpline
70
0
71
3
72
8
73
4
74
0
42
0.000000001
43
0.0000000001
44
0.0000000001
40
0
40
0
40
0
40
0
40
1
40
1
40
1
40
1
10
257.55416465443659
20
42.947855281139908
30
0
10
257.04411826784536
20
42.947855281139908
30
0
10
256.62898426187274
20
43.362817032338228
30
0
10
256.62898426187274
20
43.872863418929597
30
0
0
LINE
5
274
100
AcDbEntity
8
0
100
AcDbLine
10
256.62898426187274
20
47.177235256472642
30
0
11
255.59999999999999
21
47.177235256472642
31
0
0
ARC
5
275
100
AcDbEntity
8
0
100
AcDbCircle
10
-255.59999999999991
20
47.677235256472564
30
0
40
0.49999999999992717
210
0
220
-0
230
-1
100
AcDbArc
50
-90.000000000009777
51
0
0
LINE
5
276
100
AcDbEntity
8
0
100
AcDbLine
10
255.09999999999997
20
47.67723525647267
30
0
11
255.09999999999997
21
60.677235256472663
31
0
0
ARC
5
277
100
AcDbEntity
8
0
100
AcDbCircle
10
-255.59999999999997
20
60.677235256472684
30
0
40
0.49999999999997158
210
-0
220
0
230
-1
100
AcDbArc
50
0
51
90.000000000003254
0
ARC
5
278
100
AcDbEntity
8
0
100
AcDbCircle
10
-287.59999999999991
20
60.677235256472571
30
0
40
0.50000000000006928
210
0
220
0
230
-1
100
AcDbArc
50
90
51
180
0
ARC
5
279
100
AcDbEntity
8
0
100
AcDbCircle
10
-287.60000000000014
20
47.677235256472656
30
0
40
0.49999999999997158
210
0
220
0
230
-1
100
AcDbArc
50
180
51
270
0
LINE
5
280
100
AcDbEntity
8
0
100
AcDbLine
10
288.09999999999997
20
60.677235256472663
30
0
11
288.10000000000008
21
47.67723525647267
31
0
0
LINE
5
281
100
AcDbEntity
8
0
100
AcDbLine
10
255.59999999999999
20
61.177235256472642
30
0
11
256.62898426187274
21
61.177235256472642
31
0
0
LINE
5
282
100
AcDbEntity
8
0
100
AcDbLine
10
256.62898426187274
20
43.872863418929597
30
0
11
256.62898426187274
21
47.177235256472642
31
0
0
LINE
5
283
100
AcDbEntity
8
0
100
AcDbLine
10
256.62898426187274
20
61.177235256472642
30
0
11
256.62898426187274
21
62.312914684225774
31
0
0
LINE
5
284
100
AcDbEntity
8
0
100
AcDbLine
10
287.60000000000014
20
47.17723525647272
30
0
11
287.35510187571896
21
47.17723525647272
31
0
0
LINE
5
285
100
AcDbEntity
8
0
100
AcDbLine
10
287.35510187571896
20
62.312914684225774
30
0
11
287.35510187571896
21
61.177235256472642
31
0
0
LINE
5
286
100
AcDbEntity
8
0
100
AcDbLine
10
287.35510187571896
20
47.17723525647272
30
0
11
287.35510187571896
21
43.872863418929597
31
0
0
LINE
5
287
100
AcDbEntity
8
0
100
AcDbLine
10
263.47921212474353
20
61.177235256472642
30
0
11
280.50504626762245
21
61.177235256472642
31
0
0
LINE
5
288
100
AcDbEntity
8
0
100
AcDbLine
10
287.35510187571896
20
61.177235256472642
30
0
11
287.59999999999991
21
61.177235256472642
31
0
0
SPLINE
5
289
100
AcDbEntity
8
0
100
AcDbSpline
70
0
71
3
72
8
73
4
74
0
42
0.000000001
43
0.0000000001
44
0.0000000001
40
2
40
2
40
2
40
2
40
3
40
3
40
3
40
3
10
254.12898426187274
20
24.312914684225753
30
0
10
254.12898426187274
20
24.822961070816909
30
0
10
254.54411826784536
20
25.2379228220153
30
0
10
255.05416465443659
20
25.2379228220153
30
0
0
LINE
5
290
100
AcDbEntity
8
0
100
AcDbLine
10
255.05416465443659
20
25.2379228220153
30
0
11
260.05403173217968
21
25.2379228220153
31
0
0
SPLINE
5
291
100
AcDbEntity
8
0
100
AcDbSpline
70
0
71
3
72
8
73
4
74
0
42
0.000000001
43
0.0000000001
44
0.0000000001
40
4
40
4
40
4
40
4
40
5
40
5
40
5
40
5
10
260.05403173217968
20
25.2379228220153
30
0
10
260.56407811877091
20
25.2379228220153
30
0
10
260.97921212474353
20
24.822961070816909
30
0
10
260.97921212474353
20
24.312914684225753
30
0
0
LINE
5
292
100
AcDbEntity
8
0
100
AcDbLine
10
260.97921212474353
20
24.312914684225753
30
0
11
260.97921212474353
21
23.077235256472704
31
0
0
LINE
5
293
100
AcDbEntity
8
0
100
AcDbLine
10
262.79219362385624
20
23.153006644026135
30
0
11
267.63712295787241
21
23.153006644026135
31
0
0
LINE
5
294
100
AcDbEntity
8
0
100
AcDbLine
10
284.85510187571896
20
5.3728634189295654
30
0
11
284.85510187571896
21
4.0272352564725988
31
0
0
LINE
5
295
100
AcDbEntity
8
0
100
AcDbLine
10
254.12898426187274
20
9.0772352564726297
30
0
11
250.83750000000003
21
9.0772352564726315
31
0
0
ARC
5
296
100
AcDbEntity
8
0
100
AcDbCircle
10
-250.83749999999992
20
9.5772352564724912
30
0
40
0.49999999999985834
210
0
220
-0
230
-1
100
AcDbArc
50
-90.000000000013031
51
0
0
LINE
5
297
100
AcDbEntity
8
0
100
AcDbLine
10
250.33750000000003
20
9.5772352564726084
30
0
11
250.33750000000003
21
22.577235256472683
31
0
0
ARC
5
298
100
AcDbEntity
8
0
100
AcDbCircle
10
-250.83750000000012
20
22.577235256472651
30
0
40
0.50000000000007816
210
0
220
0
230
-1
100
AcDbArc
50
0
51
89.999999999990237
0
LINE
5
299
100
AcDbEntity
8
0
100
AcDbLine
10
254.12898426187274
20
6.2379228220153315
30
0
11
254.12898426187274
21
9.0772352564726297
31
0
0
LINE
5
300
100
AcDbEntity
8
0
100
AcDbLine
10
254.12898426187274
20
23.077235256472722
30
0
11
254.12898426187274
21
24.312914684225753
31
0
0
LINE
5
301
100
AcDbEntity
8
0
100
AcDbLine
10
250.83750000000003
20
23.077235256472729
30
0
11
254.12898426187274
21
23.077235256472722
31
0
0
LINE
5
302
100
AcDbEntity
8
0
100
AcDbLine
10
260.97921212474353
20
23.077235256472704
30
0
11
262.62395835617565
21
23.077235244687238
31
0
0
SPLINE
5
303
100
AcDbEntity
8
0
100
AcDbSpline
70
0
71
3
72
8
73
4
74
0
42
0.000000001
43
0.0000000001
44
0.0000000001
40
10.461422988553126
40
10.461422988553126
40
10.461422988553126
40
10.461422988553126
40
11
40
11
40
11
40
11
10
262.62395835617565
20
23.077235244687238
30
0
10
262.6652466395584
20
23.123677121476955
30
0
10
262.72539745155484
20
23.153006644026135
30
0
10
262.79219362385624
20
23.153006644026135
30
0
0
LINE
5
304
100
AcDbEntity
8
0
100
AcDbLine
10
286.84227432075863
20
16.640089572586621
30
0
11
287.50218236095827
21
16.640089572586625
31
0
0
SPLINE
5
305
100
AcDbEntity
8
0
100
AcDbSpline
70
0
71
3
72
8
73
4
74
0
42
0.000000001
43
0.0000000001
44
0.0000000001
40
18
40
18
40
18
40
18
40
19
40
19
40
19
40
19
10
287.50218236095827
20
16.640089572586625
30
0
10
288.01222874754944
20
16.640089572586625
30
0
10
288.42719049874779
20
16.22512782138827
30
0
10
288.42719049874779
20
15.715081434797042
30
0
0
LINE
5
306
100
AcDbEntity
8
0
100
AcDbLine
10
288.42719049874779
20
15.715081434797042
30
0
11
288.42719049874779
21
10.71504210227971
31
0
0
SPLINE
5
307
100
AcDbEntity
8
0
100
AcDbSpline
70
0
71
3
72
8
73
4
74
0
42
0.000000001
43
0.0000000001
44
0.0000000001
40
20
40
20
40
20
40
20
40
21
40
21
40
21
40
21
10
288.42719049874779
20
10.71504210227971
30
0
10
288.42719049874779
20
10.204995715688483
30
0
10
288.01222874754944
20
9.7900339644901635
30
0
10
287.50218236095827
20
9.7900339644901635
30
0
0
LINE
5
308
100
AcDbEntity
8
0
100
AcDbLine
10
287.50218236095827
20
9.7900339644901635
30
0
11
284.85510187571896
21
9.7900339644901635
31
0
0
LINE
5
309
100
AcDbEntity
8
0
100
AcDbLine
10
267.63712295787241
20
23.153006644026135
30
0
11
267.63712295787241
21
39.590971185772474
31
0
0
SPLINE
5
310
100
AcDbEntity
8
0
100
AcDbSpline
70
0
71
3
72
8
73
4
74
0
42
0.000000001
43
0.0000000001
44
0.0000000001
40
0
40
0
40
0
40
0
40
1
40
1
40
1
40
1
10
267.63712295787241
20
39.590971185772474
30
0
10
267.63712295787241
20
40.101017572363702
30
0
10
268.0520847090707
20
40.516151578336306
30
0
10
268.5621310956621
20
40.516151578336306
30
0
0
SPLINE
5
311
100
AcDbEntity
8
0
100
AcDbSpline
70
0
71
3
72
8
73
4
74
0
42
0.000000001
43
0.0000000001
44
0.0000000001
40
2
40
2
40
2
40
2
40
3
40
3
40
3
40
3
10
287.50218236095822
20
40.516151578336341
30
0
10
288.01222874754939
20
40.516151578336341
30
0
10
288.42719049874779
20
40.101017572363737
30
0
10
288.42719049874779
20
39.59097118577251
30
0
0
LINE
5
312
100
AcDbEntity
8
0
100
AcDbLine
10
288.42719049874779
20
39.59097118577251
30
0
11
288.42719049874779
21
34.591104108029427
31
0
0
SPLINE
5
313
100
AcDbEntity
8
0
100
AcDbSpline
70
0
71
3
72
8
73
4
74
0
42
0.000000001
43
0.0000000001
44
0.0000000001
40
4
40
4
40
4
40
4
40
5
40
5
40
5
40
5
10
288.42719049874779
20
34.591104108029427
30
0
10
288.42719049874779
20
34.081057721438164
30
0
10
288.01222874754944
20
33.66592371546556
30
0
10
287.50218236095827
20
33.66592371546556
30
0
0
LINE
5
314
100
AcDbEntity
8
0
100
AcDbLine
10
287.50218236095827
20
33.66592371546556
30
0
11
286.84227432075863
21
33.66592371546556
31
0
0
LINE
5
315
100
AcDbEntity
8
0
100
AcDbLine
10
286.84227432075863
20
33.66592371546556
30
0
11
286.84227432075863
21
16.640089572586621
31
0
0
LINE
5
316
100
AcDbEntity
8
0
100
AcDbLine
10
269.625
20
40.516151578336306
30
0
11
269.625
21
41.62723525647263
31
0
0
ARC
5
317
100
AcDbEntity
8
0
100
AcDbCircle
10
-270.12499999999994
20
41.627235256472687
30
0
40
0.49999999999993605
210
-0
220
0
230
-1
100
AcDbArc
50
0
51
90.000000000006523
0
LINE
5
318
100
AcDbEntity
8
0
100
AcDbLine
10
270.125
20
42.12723525647263
30
0
11
283.12500000000006
21
42.127235256472602
31
0
0
ARC
5
319
100
AcDbEntity
8
0
100
AcDbCircle
10
-283.125
20
41.627235256472588
30
0
40
0.50000000000001599
210
0
220
0
230
-1
100
AcDbArc
50
90.000000000006523
51
180
0
LINE
5
320
100
AcDbEntity
8
0
100
AcDbLine
10
283.62500000000006
20
41.62723525647263
30
0
11
283.62500000000006
21
40.516151578336334
31
0
0
LINE
5
321
100
AcDbEntity
8
0
100
AcDbLine
10
284.85510187571896
20
9.7900339644901635
30
0
11
284.85510187571896
21
5.3728634189295654
31
0
0
LINE
5
322
100
AcDbEntity
8
0
100
AcDbLine
10
268.5621310956621
20
40.516151578336306
30
0
11
269.625
21
40.516151578336306
31
0
0
LINE
5
323
100
AcDbEntity
8
0
100
AcDbLine
10
283.62500000000006
20
40.516151578336334
30
0
11
287.50218236095822
21
40.516151578336341
31
0
0
ENDSEC
0
SECTION
2
OBJECTS
0
DICTIONARY
5
C
100
AcDbDictionary
3
ACAD_GROUP
350
D
3
ACAD_MLINESTYLE
350
17
0
DICTIONARY
5
D
100
AcDbDictionary
0
DICTIONARY
5
1A
330
C
100
AcDbDictionary
0
DICTIONARY
5
17
100
AcDbDictionary
0
ENDSEC
0
EOF
