0
SECTION
2
HEADER
9
$INSUNITS
70
4
9
$ACADVER
1
AC1014
9
$HANDSEED
5
FFFF
0
ENDSEC
0
SECTION
2
TABLES
0
TABLE
2
VPORT
5
8
100
AcDbSymbolTable
0
ENDTAB
0
TABLE
2
LTYPE
5
5
100
AcDbSymbolTable
0
LTYPE
5
14
100
AcDbSymbolTableRecord
100
AcDbLinetypeTableRecord
2
BYBLOCK
70
0
0
LTYPE
5
15
100
AcDbSymbolTableRecord
100
AcDbLinetypeTableRecord
2
BYLAYER
70
0
0
ENDTAB
0
TABLE
2
LAYER
5
2
100
AcDbSymbolTable
70
2
0
LAYER
5
50
100
AcDbSymbolTableRecord
100
AcDbLayerTableRecord
2
0
70
0
6
CONTINUOUS
0
ENDTAB
0
TABLE
2
STYLE
5
3
100
AcDbSymbolTable
70
1
0
STYLE
5
11
100
AcDbSymbolTableRecord
100
AcDbTextStyleTableRecord
2
STANDARD
70
0
0
ENDTAB
0
TABLE
2
VIEW
5
6
100
AcDbSymbolTable
70
0
0
ENDTAB
0
TABLE
2
UCS
5
7
100
AcDbSymbolTable
70
0
0
ENDTAB
0
TABLE
2
APPID
5
9
100
AcDbSymbolTable
70
2
0
APPID
5
12
100
AcDbSymbolTableRecord
100
AcDbRegAppTableRecord
2
ACAD
70
0
0
ENDTAB
0
TABLE
2
DIMSTYLE
5
A
100
AcDbSymbolTable
70
1
0
ENDTAB
0
TABLE
2
BLOCK_RECORD
5
1
100
AcDbSymbolTable
70
1
0
BLOCK_RECORD
5
1F
100
AcDbSymbolTableRecord
100
AcDbBlockTableRecord
2
*MODEL_SPACE
0
BLOCK_RECORD
5
1B
100
AcDbSymbolTableRecord
100
AcDbBlockTableRecord
2
*PAPER_SPACE
0
ENDTAB
0
ENDSEC
0
SECTION
2
BLOCKS
0
BLOCK
5
20
100
AcDbEntity
100
AcDbBlockBegin
2
*MODEL_SPACE
0
ENDBLK
5
21
100
AcDbEntity
100
AcDbBlockEnd
0
BLOCK
5
1C
100
AcDbEntity
100
AcDbBlockBegin
2
*PAPER_SPACE
0
ENDBLK
5
1D
100
AcDbEntity
100
AcDbBlockEnd
0
ENDSEC
0
SECTION
2
ENTITIES
0
LWPOLYLINE
5
100
100
AcDbEntity
8
0
100
AcDbPolyline
90
8
70
1
43
0.0
10
333.58949999999999
20
-162.49576474352736
10
333.58949999999999
20
-143.44576474352735
10
314.53550000000001
20
-143.44576474352735
10
314.53550000000001
20
-162.49576474352736
10
295.4855
20
-162.49576474352736
10
295.4855
20
-181.5497647435275
10
352.6395
20
-181.5497647435275
10
352.6395
20
-162.49576474352736
0
LWPOLYLINE
5
101
100
AcDbEntity
8
0
100
AcDbPolyline
90
4
70
1
43
0.0
10
290.72599999999989
20
-85.560490513780252
10
290.72599999999989
20
-181.54976474352736
10
4.9729999999999208
20
-181.54976474352736
10
4.9729999999999208
20
-85.560490513780252
0
LINE
5
102
100
AcDbEntity
8
0
100
AcDbLine
10
333.58549999999991
20
-81.5372647435278
30
0
11
333.58949999999999
21
-81.533264743527525
31
0
0
LINE
5
103
100
AcDbEntity
8
0
100
AcDbLine
10
314.53550000000001
20
-124.39576474352734
30
0
11
314.53550000000001
21
-124.3997647435274
31
0
0
LWPOLYLINE
5
104
100
AcDbEntity
8
0
100
AcDbPolyline
90
4
70
1
43
0.0
10
295.4855
20
-86.295764743527172
10
295.4855
20
-124.3997647435274
10
352.6395
20
-124.3997647435274
10
352.6395
20
-86.295764743527172
0
LWPOLYLINE
5
105
100
AcDbEntity
8
0
100
AcDbPolyline
90
22
70
1
43
0.0
10
-2.4976093957606773
20
-61.66010114149465
42
-0.41420798628157035
10
6.5023904083618334
20
-52.660272289287917
10
277.50000417179012
20
-52.660266461832705
42
-0.41421356869471465
10
286.50000436604034
20
-61.660266461832691
10
286.50000436604034
20
-61.999998271465273
42
0.061087970912251495
10
286.55926906286777
20
-62.483264743527798
10
214.52300000000002
20
-62.483264743527798
10
214.52300000000002
20
-81.5372647435278
10
290.72700000000003
20
-81.5372647435278
10
295.48550000000012
20
-81.5372647435278
10
352.63949999999988
20
-81.5372647435278
10
352.63949999999988
20
-62.483264743527798
10
301.44073966921275
20
-62.483264743527798
42
0.061087970912287001
10
301.50000436604023
20
-61.999998271464989
10
301.50000436604023
20
-61.660265749581811
42
-0.41421355605147203
10
310.50000417178984
20
-52.660265749581825
10
351.1115108198984
20
-52.660264851465783
42
-0.41421126449479745
10
360.11151101387014
20
-61.660194048133121
10
360.11246066434973
20
-182.37269394032154
42
-0.41421586657261938
10
351.1124606646282
20
-191.37276474352731
10
6.5000608704402483
20
-191.37278375064014
42
-0.41421801876948033
10
-2.4999049157240893
20
-182.37261260291177
0
LWPOLYLINE
5
106
100
AcDbEntity
8
0
100
AcDbPolyline
90
4
70
1
43
0.0
10
205.00200000000004
20
-62.483264743527798
10
205.00200000000004
20
-81.5372647435278
10
128.798
20
-81.5372647435278
10
128.798
20
-62.483264743527798
0
LWPOLYLINE
5
107
100
AcDbEntity
8
0
100
AcDbPolyline
90
4
70
1
43
0.0
10
43.072999999999922
20
-81.537264743527658
10
43.072999999999922
20
-62.483264743527656
10
119.27700000000002
20
-62.483264743527798
10
119.27700000000002
20
-81.5372647435278
0
LINE
5
108
100
AcDbEntity
8
0
100
AcDbLine
10
314.53949999999998
20
-124.3997647435274
30
0
11
314.53550000000001
21
-124.39576474352734
31
0
0
LWPOLYLINE
5
109
100
AcDbEntity
8
0
100
AcDbPolyline
90
4
70
1
43
0.0
10
4.9729999999999297
20
-62.483264743527798
10
24.026999999999923
20
-62.483264743527798
10
24.026999999999923
20
-81.5372647435278
10
4.9729999999999288
20
-81.5372647435278
0
LINE
5
110
100
AcDbEntity
8
0
100
AcDbLine
10
333.58549999999991
20
-81.533264743527525
30
0
11
333.58949999999999
21
-81.5372647435278
31
0
0
LINE
5
111
100
AcDbEntity
8
0
100
AcDbLine
10
314.53950000000009
20
-81.533264743527525
30
0
11
314.53550000000001
21
-81.5372647435278
31
0
0
CIRCLE
5
112
100
AcDbEntity
8
0
100
AcDbCircle
10
178.8069506141301
20
-57.660268570376871
30
0
40
1.7000000000000171
210
0
220
0
230
1
0
CIRCLE
5
113
100
AcDbEntity
8
0
100
AcDbCircle
10
343.80695061413007
20
-57.660268570376871
30
0
40
1.7000000000000171
210
0
220
0
230
1
0
CIRCLE
5
114
100
AcDbEntity
8
0
100
AcDbCircle
10
343.80626049175902
20
-186.37277424708373
30
0
40
1.6999999999999671
210
0
220
0
230
1
0
CIRCLE
5
115
100
AcDbEntity
8
0
100
AcDbCircle
10
178.80626049175899
20
-186.37277424708373
30
0
40
1.7000000000000171
210
0
220
0
230
1
0
CIRCLE
5
116
100
AcDbEntity
8
0
100
AcDbCircle
10
13.806260491759232
20
-186.37278334766677
30
0
40
1.7000000000000015
210
0
220
0
230
1
0
CIRCLE
5
117
100
AcDbEntity
8
0
100
AcDbCircle
10
13.806950614130109
20
-57.660268570376871
30
0
40
1.6999999999999993
210
0
220
0
230
1
0
SPLINE
5
118
100
AcDbEntity
8
0
100
AcDbSpline
70
4
71
3
72
8
73
4
74
0
42
0.000000001
43
0.0000000001
44
0.0000000001
40
0
40
0
40
0
40
0
40
1
40
1
40
1
40
1
41
1
41
1
41
1
41
1
10
325.73147173884331
20
-133.19124512820252
30
0
10
325.77716038354907
20
-133.94374950299635
30
0
10
326.49443732391234
20
-136.20156049986136
30
0
10
326.01844422988643
20
-136.84090008592364
30
0
0
SPLINE
5
119
100
AcDbEntity
8
0
100
AcDbSpline
70
0
71
2
72
6
73
3
74
0
42
0.000000001
43
0.0000000001
44
0.0000000001
40
0
40
0
40
0
40
1
40
1
40
1
10
326.01844422988643
20
-136.84090008592364
30
0
10
325.54245113586046
20
-137.48023967198606
30
0
10
324.01026642723559
20
-138.09304185199977
30
0
0
SPLINE
5
120
100
AcDbEntity
8
0
100
AcDbSpline
70
0
71
2
72
6
73
3
74
0
42
0.000000001
43
0.0000000001
44
0.0000000001
40
0
40
0
40
0
40
1
40
1
40
1
10
324.01026642723559
20
-138.09304185199977
30
0
10
322.47808350227831
20
-137.48023432098336
30
0
10
322.00209219191993
20
-136.84090008592364
30
0
0
SPLINE
5
121
100
AcDbEntity
8
0
100
AcDbSpline
70
4
71
3
72
8
73
4
74
0
42
0.000000001
43
0.0000000001
44
0.0000000001
40
0
40
0
40
0
40
0
40
1
40
1
40
1
40
1
41
1
41
1
41
1
41
1
10
322.00209219191993
20
-136.84090008592364
30
0
10
321.52610088156155
20
-136.20156585086406
30
0
10
322.24337247092205
20
-133.94390111473939
30
0
10
322.28906111562787
20
-133.19140387461587
30
0
0
SPLINE
5
122
100
AcDbEntity
8
0
100
AcDbSpline
70
4
71
3
72
8
73
4
74
0
42
0.000000001
43
0.0000000001
44
0.0000000001
40
0
40
0
40
0
40
0
40
1
40
1
40
1
40
1
41
1
41
1
41
1
41
1
10
322.28906111562787
20
-133.19140387461587
30
0
10
322.33475154400128
20
-132.43890306715713
30
0
10
314.16544528751808
20
-129.80818871875044
30
0
10
310.76215495319627
20
-125.2263792808111
30
0
0
SPLINE
5
123
100
AcDbEntity
8
0
100
AcDbSpline
70
4
71
3
72
8
73
4
74
0
42
0.000000001
43
0.0000000001
44
0.0000000001
40
0
40
0
40
0
40
0
40
1
40
1
40
1
40
1
41
1
41
1
41
1
41
1
10
310.76215495319627
20
-125.2263792808111
30
0
10
312.32688624389982
20
-129.80834746516393
30
0
10
319.70068390057031
20
-134.48334104775938
30
0
10
319.88970539538695
20
-134.92288667873936
30
0
0
SPLINE
5
124
100
AcDbEntity
8
0
100
AcDbSpline
70
4
71
3
72
8
73
4
74
0
42
0.000000001
43
0.0000000001
44
0.0000000001
40
0
40
0
40
0
40
0
40
1
40
1
40
1
40
1
41
1
41
1
41
1
41
1
10
319.88970539538695
20
-134.92288667873936
30
0
10
320.07872689020365
20
-135.36243230971962
30
0
10
319.38773764242961
20
-137.40031709568399
30
0
10
319.55078091097971
20
-138.03965489807865
30
0
0
SPLINE
5
125
100
AcDbEntity
8
0
100
AcDbSpline
70
4
71
3
72
8
73
4
74
0
42
0.000000001
43
0.0000000001
44
0.0000000001
40
0
40
0
40
0
40
0
40
1
40
1
40
1
40
1
41
1
41
1
41
1
41
1
10
319.55078091097971
20
-138.03965489807865
30
0
10
319.71382417952987
20
-138.67899270047332
30
0
10
324.01026821090318
20
-141.90253126031962
30
0
10
324.01026821090318
20
-141.90237608124136
30
0
0
SPLINE
5
126
100
AcDbEntity
8
0
100
AcDbSpline
70
0
71
2
72
6
73
3
74
0
42
0.000000001
43
0.0000000001
44
0.0000000001
40
0
40
0
40
0
40
1
40
1
40
1
10
324.01026821090318
20
-141.90237608124136
30
0
10
328.30670956677517
20
-138.67899626780854
30
0
10
328.46975283532527
20
-138.03965489807865
30
0
0
SPLINE
5
127
100
AcDbEntity
8
0
100
AcDbSpline
70
4
71
3
72
8
73
4
74
0
42
0.000000001
43
0.0000000001
44
0.0000000001
40
0
40
0
40
0
40
0
40
1
40
1
40
1
40
1
41
1
41
1
41
1
41
1
10
328.46975283532527
20
-138.03965489807865
30
0
10
328.63279610387536
20
-137.40031352834876
30
0
10
327.94181220710408
20
-135.36243052605215
30
0
10
328.13083281008693
20
-134.92288667873936
30
0
0
SPLINE
5
128
100
AcDbEntity
8
0
100
AcDbSpline
70
4
71
3
72
8
73
4
74
0
42
0.000000001
43
0.0000000001
44
0.0000000001
40
0
40
0
40
0
40
0
40
1
40
1
40
1
40
1
41
1
41
1
41
1
41
1
10
328.13083281008693
20
-134.92288667873936
30
0
10
328.31985341306972
20
-134.48334283142685
30
0
10
335.69364928607274
20
-129.80818871875044
30
0
10
337.25838057677629
20
-125.2262178588964
30
0
0
SPLINE
5
129
100
AcDbEntity
8
0
100
AcDbSpline
70
4
71
3
72
8
73
4
74
0
42
0.000000001
43
0.0000000001
44
0.0000000001
40
0
40
0
40
0
40
0
40
1
40
1
40
1
40
1
41
1
41
1
41
1
41
1
10
337.25838057677629
20
-125.2262178588964
30
0
10
333.85508578328552
20
-129.80818871875044
30
0
10
325.68578309413749
20
-132.43874075340869
30
0
10
325.73147173884331
20
-133.19124512820252
30
0
0
LWPOLYLINE
5
130
100
AcDbEntity
8
0
100
AcDbPolyline
90
6
70
1
43
0.0
10
44.471150844250111
20
-125.51748024152116
10
44.471150844250111
20
-124.91748024152113
10
44.471150844250111
20
-122.91748024152113
10
44.471150844250111
20
-122.31748024152114
10
41.444709803926969
20
-122.31748024152114
10
41.444709803926969
20
-125.51748024152116
0
SPLINE
5
131
100
AcDbEntity
8
0
100
AcDbSpline
70
0
71
3
72
20
73
16
74
0
42
0.000000001
43
0.0000000001
44
0.0000000001
40
-0.021357865534255727
40
-0.021357865534255727
40
-0.021357865534255727
40
-0.021357865534255727
40
0
40
0
40
0
40
0.5
40
0.5
40
0.5
40
0.79815950573803685
40
0.79815950573803685
40
0.79815950573803685
40
1
40
1
40
1
40
1.0050985815217086
40
1.0050985815217086
40
1.0050985815217086
40
1.0050985815217086
10
17.336275873977094
20
-131.4280209783073
30
0
10
17.338363402830819
20
-131.28677909035167
30
0
10
17.340450931684579
20
-131.14553720239621
30
0
10
17.342538460538321
20
-131.00429531444078
30
0
10
17.391679400722833
20
-127.67942670000785
30
0
10
17.538959290233898
20
-124.88158926130332
30
0
10
17.873454111042584
20
-122.88102951234059
30
0
10
18.072919731931005
20
-121.68805770044038
30
0
10
18.321667159281212
20
-120.79757378456414
30
0
10
18.775462090000907
20
-120.15817071892208
30
0
10
19.082660724783054
20
-119.72532377519528
30
0
10
19.559536518427212
20
-119.38864750295814
30
0
10
20.099159088836718
20
-119.36163484996634
30
0
10
20.10619621405036
20
-119.36128258260041
30
0
10
20.113233339263843
20
-119.36093031523448
30
0
10
20.120270464476047
20
-119.36057804786884
30
0
0
LINE
5
132
100
AcDbEntity
8
0
100
AcDbLine
10
65.471150844250118
20
-100.09071534688168
30
0
11
65.471150844250118
21
-118.09671854149251
31
0
0
LINE
5
133
100
AcDbEntity
8
0
100
AcDbLine
10
64.471150844250118
20
-124.91748024152113
30
0
11
64.471150844250118
21
-125.51748024152116
31
0
0
LINE
5
134
100
AcDbEntity
8
0
100
AcDbLine
10
85.471150844250133
20
-172.91748024152116
30
0
11
85.471150844250133
21
-174.91748024152116
31
0
0
LWPOLYLINE
5
135
100
AcDbEntity
8
0
100
AcDbPolyline
90
6
70
1
43
0.0
10
84.471150844250104
20
-174.91748024152116
10
84.471150844250104
20
-172.91748024152116
10
84.471150844250104
20
-172.3174802415212
10
81.444709803926969
20
-172.3174802415212
10
81.444709803926969
20
-175.51748024152118
10
84.471150844250104
20
-175.51748024152118
0
LINE
5
136
100
AcDbEntity
8
0
100
AcDbLine
10
61.444709803926976
20
-125.51748024152116
30
0
11
61.444709803926976
21
-122.31748024152114
31
0
0
LINE
5
137
100
AcDbEntity
8
0
100
AcDbLine
10
64.471150844250118
20
-125.51748024152116
30
0
11
61.444709803926976
21
-125.51748024152116
31
0
0
LINE
5
138
100
AcDbEntity
8
0
100
AcDbLine
10
69.317352267589015
20
-101.17913790752063
30
0
11
81.008782682278479
21
-111.12652232682613
31
0
0
CIRCLE
5
139
100
AcDbEntity
8
0
100
AcDbCircle
10
62.23223001819153
20
-168.01002796678301
30
0
40
1.7000000000000002
210
0
220
0
230
1
0
LINE
5
140
100
AcDbEntity
8
0
100
AcDbLine
10
61.444709803926976
20
-172.3174802415212
30
0
11
64.471150844250118
21
-172.3174802415212
31
0
0
LINE
5
141
100
AcDbEntity
8
0
100
AcDbLine
10
25.471150844250126
20
-100.09071534688168
30
0
11
25.471150844250126
21
-118.09671854149251
31
0
0
LINE
5
142
100
AcDbEntity
8
0
100
AcDbLine
10
64.471150844250118
20
-175.51748024152118
30
0
11
61.444709803926976
21
-175.51748024152118
31
0
0
LINE
5
143
100
AcDbEntity
8
0
100
AcDbLine
10
81.9956412040126
20
-112.61936703386958
30
0
11
85.471150844250133
21
-118.09671854149251
31
0
0
LINE
5
144
100
AcDbEntity
8
0
100
AcDbLine
10
65.471150844250118
20
-118.09671854149251
30
0
11
65.471150844250118
21
-122.91748024152113
31
0
0
LINE
5
145
100
AcDbEntity
8
0
100
AcDbLine
10
65.471150844250118
20
-123.91748024152115
30
0
11
64.438349961398927
21
-123.91748024152115
31
0
0
LINE
5
146
100
AcDbEntity
8
0
100
AcDbLine
10
83.11826911889888
20
-108.57247446972245
30
0
11
83.140515076474983
21
-108.4922813807183
31
0
0
SPLINE
5
147
100
AcDbEntity
8
0
100
AcDbSpline
70
0
71
3
72
11
73
7
74
0
42
0.000000001
43
0.0000000001
44
0.0000000001
40
0.60174227844747885
40
0.60174227844747885
40
0.60174227844747885
40
0.60174227844747885
40
0.64928968652167418
40
0.64928968652167418
40
0.64928968652167418
40
0.91422646823008458
40
0.91422646823008458
40
0.91422646823008458
40
0.91422646823008458
10
37.38544580243083
20
-166.88848666852152
30
0
10
37.475365068848099
20
-166.87541670057777
30
0
10
37.566563281110277
20
-166.86502246084922
30
0
10
37.658627677923562
20
-166.85682883941865
30
0
10
38.171615577570499
20
-166.81117352863987
30
0
10
38.742980944632976
20
-166.83000022493857
30
0
10
39.379837339287832
20
-166.89099793701041
30
0
0
LINE
5
148
100
AcDbEntity
8
0
100
AcDbLine
10
61.4875954034584
20
-134.01312806374028
30
0
11
57.33627587397703
21
-131.42802097830767
31
0
0
LINE
5
149
100
AcDbEntity
8
0
100
AcDbLine
10
23.11826911889888
20
-108.57247446972245
30
0
11
23.140515076474983
21
-108.4922813807183
31
0
0
LINE
5
150
100
AcDbEntity
8
0
100
AcDbLine
10
63.140515076474976
20
-108.4922813807183
30
0
11
65.471150844250118
21
-100.09071534688168
31
0
0
LINE
5
151
100
AcDbEntity
8
0
100
AcDbLine
10
65.471150844250118
20
-172.91748024152116
30
0
11
64.471150844250118
21
-172.91748024152116
31
0
0
LINE
5
152
100
AcDbEntity
8
0
100
AcDbLine
10
85.471150844250133
20
-174.91748024152116
30
0
11
85.471150844250133
21
-177.60749322479904
31
0
0
SPLINE
5
153
100
AcDbEntity
8
0
100
AcDbSpline
70
0
71
3
72
20
73
16
74
0
42
0.000000001
43
0.0000000001
44
0.0000000001
40
-0.021357865534255727
40
-0.021357865534255727
40
-0.021357865534255727
40
-0.021357865534255727
40
0
40
0
40
0
40
0.5
40
0.5
40
0.5
40
0.79815950573803685
40
0.79815950573803685
40
0.79815950573803685
40
1
40
1
40
1
40
1.0050985815217086
40
1.0050985815217086
40
1.0050985815217086
40
1.0050985815217086
10
77.336275873977087
20
-131.4280209783073
30
0
10
77.338363402830808
20
-131.28677909035167
30
0
10
77.340450931684572
20
-131.14553720239621
30
0
10
77.342538460538307
20
-131.00429531444078
30
0
10
77.391679400722822
20
-127.67942670000785
30
0
10
77.53895929023389
20
-124.88158926130332
30
0
10
77.873454111042577
20
-122.88102951234059
30
0
10
78.072919731930995
20
-121.68805770044038
30
0
10
78.321667159281205
20
-120.79757378456414
30
0
10
78.7754620900009
20
-120.15817071892208
30
0
10
79.08266072478304
20
-119.72532377519528
30
0
10
79.559536518427208
20
-119.38864750295814
30
0
10
80.0991590888367
20
-119.36163484996634
30
0
10
80.106196214050343
20
-119.36128258260041
30
0
10
80.113233339263843
20
-119.36093031523448
30
0
10
80.120270464476022
20
-119.36057804786884
30
0
0
LINE
5
154
100
AcDbEntity
8
0
100
AcDbLine
10
25.471150844250126
20
-100.09071534688168
30
0
11
25.471150844250161
21
-95.040404839718704
31
0
0
LINE
5
155
100
AcDbEntity
8
0
100
AcDbLine
10
21.99564120401261
20
-112.61936703386958
30
0
11
25.471150844250126
21
-118.09671854149251
31
0
0
LINE
5
156
100
AcDbEntity
8
0
100
AcDbLine
10
37.38544580243083
20
-166.88848666852152
30
0
11
38.703078575881804
21
-177.61974444041221
31
0
0
LWPOLYLINE
5
157
100
AcDbEntity
8
0
100
AcDbPolyline
90
6
70
1
43
0.0
10
84.471150844250104
20
-124.91748024152113
10
84.471150844250104
20
-122.91748024152113
10
84.471150844250104
20
-122.31748024152114
10
81.444709803926969
20
-122.31748024152114
10
81.444709803926969
20
-125.51748024152116
10
84.471150844250104
20
-125.51748024152116
0
LINE
5
158
100
AcDbEntity
8
0
100
AcDbLine
10
65.471150844250118
20
-100.09071534688168
30
0
11
65.471150844250147
21
-95.040404839718704
31
0
0
LINE
5
159
100
AcDbEntity
8
0
100
AcDbLine
10
65.471150844250118
20
-174.91748024152116
30
0
11
65.471150844250118
21
-177.60749322479904
31
0
0
LINE
5
160
100
AcDbEntity
8
0
100
AcDbLine
10
45.471150844250104
20
-124.91748024152113
30
0
11
45.471150844250104
21
-172.91748024152116
31
0
0
LINE
5
161
100
AcDbEntity
8
0
100
AcDbLine
10
65.471150844250118
20
-124.91748024152113
30
0
11
64.471150844250118
21
-124.91748024152113
31
0
0
LINE
5
162
100
AcDbEntity
8
0
100
AcDbLine
10
85.471150844250133
20
-177.60749322479904
30
0
11
78.701574315752225
21
-177.60749322479904
31
0
0
LINE
5
163
100
AcDbEntity
8
0
100
AcDbLine
10
65.471150844250118
20
-122.91748024152113
30
0
11
64.471150844250118
21
-122.91748024152113
31
0
0
LINE
5
164
100
AcDbEntity
8
0
100
AcDbLine
10
61.444709803926976
20
-122.31748024152114
30
0
11
64.471150844250118
21
-122.31748024152114
31
0
0
LINE
5
165
100
AcDbEntity
8
0
100
AcDbLine
10
81.008782682278479
20
-111.12652232682613
30
0
11
85.471150844250161
21
-95.040404839718704
31
0
0
LINE
5
166
100
AcDbEntity
8
0
100
AcDbLine
10
105.47115084425013
20
-100.09071534688168
30
0
11
105.47115084425016
21
-95.040404839718704
31
0
0
LINE
5
167
100
AcDbEntity
8
0
100
AcDbLine
10
105.47115084425013
20
-100.09071534688168
30
0
11
105.47115084425013
21
-118.09671854149251
31
0
0
LINE
5
168
100
AcDbEntity
8
0
100
AcDbLine
10
103.14051507647498
20
-108.4922813807183
30
0
11
105.47115084425013
21
-100.09071534688168
31
0
0
LINE
5
169
100
AcDbEntity
8
0
100
AcDbLine
10
101.9956412040126
20
-112.61936703386958
30
0
11
105.47115084425013
21
-118.09671854149251
31
0
0
LINE
5
170
100
AcDbEntity
8
0
100
AcDbLine
10
101.00878268227848
20
-111.12652232682613
30
0
11
105.47115084425016
21
-95.040404839718704
31
0
0
LINE
5
171
100
AcDbEntity
8
0
100
AcDbLine
10
100.12027046447602
20
-119.36057804786877
30
0
11
100.85686929312342
21
-119.3652451319943
31
0
0
LINE
5
172
100
AcDbEntity
8
0
100
AcDbLine
10
60.856869293123424
20
-119.3652451319943
30
0
11
49.317352267589023
21
-101.17913790752063
31
0
0
LINE
5
173
100
AcDbEntity
8
0
100
AcDbLine
10
25.471150844250126
20
-124.91748024152113
30
0
11
25.471150844250126
21
-172.91748024152116
31
0
0
LINE
5
174
100
AcDbEntity
8
0
100
AcDbLine
10
83.140515076474983
20
-108.4922813807183
30
0
11
85.471150844250133
21
-100.09071534688168
31
0
0
LINE
5
175
100
AcDbEntity
8
0
100
AcDbLine
10
85.471150844250133
20
-124.91748024152113
30
0
11
85.471150844250133
21
-172.91748024152116
31
0
0
SPLINE
5
176
100
AcDbEntity
8
0
100
AcDbSpline
70
0
71
3
72
20
73
16
74
0
42
0.000000001
43
0.0000000001
44
0.0000000001
40
-0.021357865534255727
40
-0.021357865534255727
40
-0.021357865534255727
40
-0.021357865534255727
40
0
40
0
40
0
40
0.5
40
0.5
40
0.5
40
0.79815950573803685
40
0.79815950573803685
40
0.79815950573803685
40
1
40
1
40
1
40
1.0050985815217086
40
1.0050985815217086
40
1.0050985815217086
40
1.0050985815217086
10
37.336275873977073
20
-131.4280209783073
30
0
10
37.338363402830801
20
-131.28677909035167
30
0
10
37.340450931684558
20
-131.14553720239621
30
0
10
37.342538460538307
20
-131.00429531444078
30
0
10
37.391679400722815
20
-127.67942670000785
30
0
10
37.538959290233876
20
-124.88158926130332
30
0
10
37.873454111042562
20
-122.88102951234059
30
0
10
38.072919731930988
20
-121.68805770044038
30
0
10
38.321667159281191
20
-120.79757378456414
30
0
10
38.775462090000886
20
-120.15817071892208
30
0
10
39.08266072478304
20
-119.72532377519528
30
0
10
39.559536518427194
20
-119.38864750295814
30
0
10
40.0991590888367
20
-119.36163484996634
30
0
10
40.106196214050343
20
-119.36128258260041
30
0
10
40.113233339263829
20
-119.36093031523448
30
0
10
40.120270464476029
20
-119.36057804786884
30
0
0
LINE
5
177
100
AcDbEntity
8
0
100
AcDbLine
10
64.471150844250118
20
-122.91748024152113
30
0
11
64.471150844250118
21
-122.31748024152114
31
0
0
SPLINE
5
178
100
AcDbEntity
8
0
100
AcDbSpline
70
0
71
3
72
20
73
16
74
0
42
0.000000001
43
0.0000000001
44
0.0000000001
40
-0.021357865534255727
40
-0.021357865534255727
40
-0.021357865534255727
40
-0.021357865534255727
40
0
40
0
40
0
40
0.5
40
0.5
40
0.5
40
0.79815950573803685
40
0.79815950573803685
40
0.79815950573803685
40
1
40
1
40
1
40
1.0050985815217086
40
1.0050985815217086
40
1.0050985815217086
40
1.0050985815217086
10
57.336275873977087
20
-131.4280209783073
30
0
10
57.338363402830808
20
-131.28677909035167
30
0
10
57.340450931684572
20
-131.14553720239621
30
0
10
57.342538460538314
20
-131.00429531444078
30
0
10
57.391679400722822
20
-127.67942670000785
30
0
10
57.53895929023389
20
-124.88158926130332
30
0
10
57.873454111042577
20
-122.88102951234059
30
0
10
58.072919731930995
20
-121.68805770044038
30
0
10
58.321667159281205
20
-120.79757378456414
30
0
10
58.7754620900009
20
-120.15817071892208
30
0
10
59.082660724783047
20
-119.72532377519528
30
0
10
59.559536518427201
20
-119.38864750295814
30
0
10
60.099159088836707
20
-119.36163484996634
30
0
10
60.10619621405035
20
-119.36128258260041
30
0
10
60.113233339263836
20
-119.36093031523448
30
0
10
60.120270464476036
20
-119.36057804786884
30
0
0
LINE
5
179
100
AcDbEntity
8
0
100
AcDbLine
10
61.008782682278479
20
-111.12652232682613
30
0
11
65.471150844250147
21
-95.040404839718704
31
0
0
LINE
5
180
100
AcDbEntity
8
0
100
AcDbLine
10
63.118269118898873
20
-108.57247446972245
30
0
11
61.9956412040126
21
-112.61936703386958
31
0
0
LINE
5
181
100
AcDbEntity
8
0
100
AcDbLine
10
80.120270464476022
20
-119.36057804786877
30
0
11
80.856869293123424
21
-119.3652451319943
31
0
0
LINE
5
182
100
AcDbEntity
8
0
100
AcDbLine
10
65.471150844250118
20
-124.91748024152113
30
0
11
65.471150844250118
21
-172.91748024152116
31
0
0
LINE
5
183
100
AcDbEntity
8
0
100
AcDbLine
10
49.317352267589023
20
-101.17913790752063
30
0
11
61.008782682278479
21
-111.12652232682613
31
0
0
LINE
5
184
100
AcDbEntity
8
0
100
AcDbLine
10
105.47115084425013
20
-172.91748024152116
30
0
11
105.47115084425013
21
-174.91748024152116
31
0
0
LINE
5
185
100
AcDbEntity
8
0
100
AcDbLine
10
103.11826911889888
20
-108.57247446972245
30
0
11
101.9956412040126
21
-112.61936703386958
31
0
0
LINE
5
186
100
AcDbEntity
8
0
100
AcDbLine
10
65.471150844250118
20
-177.60749322479904
30
0
11
58.701574315752225
21
-177.60749322479904
31
0
0
LINE
5
187
100
AcDbEntity
8
0
100
AcDbLine
10
45.471150844250104
20
-177.60749322479904
30
0
11
38.701574315752225
21
-177.60749322479904
31
0
0
LINE
5
188
100
AcDbEntity
8
0
100
AcDbLine
10
23.11826911889888
20
-108.57247446972245
30
0
11
21.99564120401261
21
-112.61936703386958
31
0
0
CIRCLE
5
189
100
AcDbEntity
8
0
100
AcDbCircle
10
42.232230018191515
20
-130.38313783861039
30
0
40
1.7000000000000002
210
0
220
0
230
1
0
SPLINE
5
190
100
AcDbEntity
8
0
100
AcDbSpline
70
0
71
3
72
11
73
7
74
0
42
0.000000001
43
0.0000000001
44
0.0000000001
40
0.0097318879816928744
40
0.0097318879816928744
40
0.0097318879816928744
40
0.0097318879816928744
40
0.63723143529929216
40
0.63723143529929216
40
0.63723143529929216
40
0.98136488140250955
40
0.98136488140250955
40
0.98136488140250955
40
0.98136488140250955
10
61.4875954034584
20
-134.01312806374028
30
0
10
62.529482733956947
20
-141.42340608493862
30
0
10
62.741241279824813
20
-148.63568124726419
30
0
10
61.802086721910115
20
-155.60157218772395
30
0
10
61.287035363195514
20
-159.42180769987209
30
0
10
60.458328588815171
20
-163.18172544852621
30
0
10
59.379837339288322
20
-166.89099793701052
30
0
0
LINE
5
191
100
AcDbEntity
8
0
100
AcDbLine
10
45.471150844250104
20
-118.09671854149251
30
0
11
45.471150844250104
21
-122.91748024152113
31
0
0
LINE
5
192
100
AcDbEntity
8
0
100
AcDbLine
10
25.471150844250126
20
-118.09671854149251
30
0
11
25.471150844250126
21
-122.91748024152113
31
0
0
LWPOLYLINE
5
193
100
AcDbEntity
8
0
100
AcDbPolyline
90
6
70
1
43
0.0
10
44.471150844250111
20
-172.3174802415212
10
41.444709803926969
20
-172.3174802415212
10
41.444709803926969
20
-175.51748024152118
10
44.471150844250111
20
-175.51748024152118
10
44.471150844250111
20
-174.91748024152116
10
44.471150844250111
20
-172.91748024152116
0
LINE
5
194
100
AcDbEntity
8
0
100
AcDbLine
10
17.385445802430848
20
-166.88848666852152
30
0
11
18.703078575881822
21
-177.61974444041221
31
0
0
LINE
5
195
100
AcDbEntity
8
0
100
AcDbLine
10
29.317352267589012
20
-101.17913790752063
30
0
11
41.008782682278465
21
-111.12652232682613
31
0
0
LINE
5
196
100
AcDbEntity
8
0
100
AcDbLine
10
43.118269118898866
20
-108.57247446972245
30
0
11
43.140515076474969
21
-108.4922813807183
31
0
0
LINE
5
197
100
AcDbEntity
8
0
100
AcDbLine
10
41.008782682278465
20
-111.12652232682613
30
0
11
45.471150844250147
21
-95.040404839718704
31
0
0
LINE
5
198
100
AcDbEntity
8
0
100
AcDbLine
10
77.385445802430837
20
-166.88848666852152
30
0
11
78.703078575881818
21
-177.61974444041221
31
0
0
LINE
5
199
100
AcDbEntity
8
0
100
AcDbLine
10
45.471150844250104
20
-172.91748024152116
30
0
11
45.471150844250104
21
-174.91748024152116
31
0
0
LINE
5
200
100
AcDbEntity
8
0
100
AcDbLine
10
45.471150844250104
20
-100.09071534688168
30
0
11
45.471150844250104
21
-118.09671854149251
31
0
0
CIRCLE
5
201
100
AcDbEntity
8
0
100
AcDbCircle
10
82.23223001819153
20
-168.01002796678301
30
0
40
1.7000000000000002
210
0
220
0
230
1
0
LINE
5
202
100
AcDbEntity
8
0
100
AcDbLine
10
64.471150844250118
20
-174.91748024152116
30
0
11
64.471150844250118
21
-175.51748024152118
31
0
0
LINE
5
203
100
AcDbEntity
8
0
100
AcDbLine
10
21.008782682278486
20
-111.12652232682613
30
0
11
25.471150844250161
21
-95.040404839718704
31
0
0
LINE
5
204
100
AcDbEntity
8
0
100
AcDbLine
10
20.856869293123435
20
-119.3652451319943
30
0
11
9.3173522675890297
21
-101.17913790752063
31
0
0
CIRCLE
5
205
100
AcDbEntity
8
0
100
AcDbCircle
10
22.232230018191537
20
-168.01002796678301
30
0
40
1.1000000000000001
210
0
220
0
230
1
0
CIRCLE
5
206
100
AcDbEntity
8
0
100
AcDbCircle
10
22.232230018191537
20
-130.38313783861039
30
0
40
1.1000000000000001
210
0
220
0
230
1
0
CIRCLE
5
207
100
AcDbEntity
8
0
100
AcDbCircle
10
102.23223001819153
20
-168.01002796678301
30
0
40
1.1000000000000001
210
0
220
0
230
1
0
LINE
5
208
100
AcDbEntity
8
0
100
AcDbLine
10
105.47115084425013
20
-177.60749322479904
30
0
11
98.701574315752225
21
-177.60749322479904
31
0
0
SPLINE
5
209
100
AcDbEntity
8
0
100
AcDbSpline
70
0
71
3
72
11
73
7
74
0
42
0.000000001
43
0.0000000001
44
0.0000000001
40
0.60174227844747885
40
0.60174227844747885
40
0.60174227844747885
40
0.60174227844747885
40
0.64928968652167418
40
0.64928968652167418
40
0.64928968652167418
40
0.91422646823008458
40
0.91422646823008458
40
0.91422646823008458
40
0.91422646823008458
10
97.385445802430837
20
-166.88848666852152
30
0
10
97.475365068848106
20
-166.87541670057777
30
0
10
97.566563281110291
20
-166.86502246084922
30
0
10
97.658627677923562
20
-166.85682883941865
30
0
10
98.171615577570492
20
-166.81117352863987
30
0
10
98.74298094463299
20
-166.83000022493857
30
0
10
99.37983733928786
20
-166.89099793701041
30
0
0
LINE
5
210
100
AcDbEntity
8
0
100
AcDbLine
10
105.47115084425013
20
-174.91748024152116
30
0
11
105.47115084425013
21
-177.60749322479904
31
0
0
LINE
5
211
100
AcDbEntity
8
0
100
AcDbLine
10
101.48759540345839
20
-134.01312806374028
30
0
11
97.33627587397703
21
-131.42802097830767
31
0
0
CIRCLE
5
212
100
AcDbEntity
8
0
100
AcDbCircle
10
102.23223001819153
20
-130.38313783861039
30
0
40
1.1000000000000001
210
0
220
0
230
1
0
LINE
5
213
100
AcDbEntity
8
0
100
AcDbLine
10
23.140515076474983
20
-108.4922813807183
30
0
11
25.471150844250126
21
-100.09071534688168
31
0
0
LINE
5
214
100
AcDbEntity
8
0
100
AcDbLine
10
65.471150844250118
20
-173.91748024152116
30
0
11
65.29594213567897
21
-173.91748024152116
31
0
0
LINE
5
215
100
AcDbEntity
8
0
100
AcDbLine
10
25.471150844250126
20
-174.91748024152116
30
0
11
25.471150844250126
21
-177.60749322479904
31
0
0
LINE
5
216
100
AcDbEntity
8
0
100
AcDbLine
10
61.444709803926976
20
-175.51748024152118
30
0
11
61.444709803926976
21
-172.3174802415212
31
0
0
LINE
5
217
100
AcDbEntity
8
0
100
AcDbLine
10
57.385445802430837
20
-166.88848666852152
30
0
11
58.703078575881811
21
-177.61974444041221
31
0
0
LINE
5
218
100
AcDbEntity
8
0
100
AcDbLine
10
43.140515076474969
20
-108.4922813807183
30
0
11
45.471150844250104
21
-100.09071534688168
31
0
0
LINE
5
219
100
AcDbEntity
8
0
100
AcDbLine
10
85.471150844250133
20
-118.09671854149251
30
0
11
85.471150844250133
21
-122.91748024152113
31
0
0
LINE
5
220
100
AcDbEntity
8
0
100
AcDbLine
10
41.995641204012593
20
-112.61936703386958
30
0
11
45.471150844250104
21
-118.09671854149251
31
0
0
CIRCLE
5
221
100
AcDbEntity
8
0
100
AcDbCircle
10
42.232230018191515
20
-168.01002796678301
30
0
40
1.7000000000000002
210
0
220
0
230
1
0
LINE
5
222
100
AcDbEntity
8
0
100
AcDbLine
10
25.471150844250126
20
-122.91748024152113
30
0
11
25.471150844250126
21
-124.91748024152113
31
0
0
LINE
5
223
100
AcDbEntity
8
0
100
AcDbLine
10
21.48759540345841
20
-134.01312806374028
30
0
11
17.336275873977041
21
-131.42802097830767
31
0
0
LINE
5
224
100
AcDbEntity
8
0
100
AcDbLine
10
40.120270464476029
20
-119.36057804786877
30
0
11
40.856869293123417
21
-119.3652451319943
31
0
0
LINE
5
225
100
AcDbEntity
8
0
100
AcDbLine
10
60.120270464476036
20
-119.36057804786877
30
0
11
60.856869293123424
21
-119.3652451319943
31
0
0
LINE
5
226
100
AcDbEntity
8
0
100
AcDbLine
10
45.471150844250104
20
-122.91748024152113
30
0
11
45.471150844250104
21
-124.91748024152113
31
0
0
CIRCLE
5
227
100
AcDbEntity
8
0
100
AcDbCircle
10
62.23223001819153
20
-130.38313783861039
30
0
40
1.7000000000000002
210
0
220
0
230
1
0
LINE
5
228
100
AcDbEntity
8
0
100
AcDbLine
10
25.471150844250126
20
-172.91748024152116
30
0
11
25.471150844250126
21
-174.91748024152116
31
0
0
LINE
5
229
100
AcDbEntity
8
0
100
AcDbLine
10
83.11826911889888
20
-108.57247446972245
30
0
11
81.9956412040126
21
-112.61936703386958
31
0
0
SPLINE
5
230
100
AcDbEntity
8
0
100
AcDbSpline
70
0
71
3
72
11
73
7
74
0
42
0.000000001
43
0.0000000001
44
0.0000000001
40
0.60174227844747885
40
0.60174227844747885
40
0.60174227844747885
40
0.60174227844747885
40
0.64928968652167418
40
0.64928968652167418
40
0.64928968652167418
40
0.91422646823008458
40
0.91422646823008458
40
0.91422646823008458
40
0.91422646823008458
10
17.385445802430848
20
-166.88848666852152
30
0
10
17.475365068848117
20
-166.87541670057777
30
0
10
17.566563281110312
20
-166.86502246084922
30
0
10
17.65862767792358
20
-166.85682883941865
30
0
10
18.171615577570517
20
-166.81117352863987
30
0
10
18.74298094463299
20
-166.83000022493857
30
0
10
19.379837339287853
20
-166.89099793701041
30
0
0
LINE
5
231
100
AcDbEntity
8
0
100
AcDbLine
10
9.3173522675890297
20
-101.17913790752063
30
0
11
21.008782682278486
21
-111.12652232682613
31
0
0
SPLINE
5
232
100
AcDbEntity
8
0
100
AcDbSpline
70
0
71
3
72
11
73
7
74
0
42
0.000000001
43
0.0000000001
44
0.0000000001
40
0.60174227844747885
40
0.60174227844747885
40
0.60174227844747885
40
0.60174227844747885
40
0.64928968652167418
40
0.64928968652167418
40
0.64928968652167418
40
0.91422646823008458
40
0.91422646823008458
40
0.91422646823008458
40
0.91422646823008458
10
77.385445802430837
20
-166.88848666852152
30
0
10
77.475365068848106
20
-166.87541670057777
30
0
10
77.566563281110291
20
-166.86502246084922
30
0
10
77.658627677923576
20
-166.85682883941865
30
0
10
78.171615577570506
20
-166.81117352863987
30
0
10
78.742980944632976
20
-166.83000022493857
30
0
10
79.379837339287846
20
-166.89099793701041
30
0
0
LINE
5
233
100
AcDbEntity
8
0
100
AcDbLine
10
43.118269118898866
20
-108.57247446972245
30
0
11
41.995641204012593
21
-112.61936703386958
31
0
0
LINE
5
234
100
AcDbEntity
8
0
100
AcDbLine
10
61.9956412040126
20
-112.61936703386958
30
0
11
65.471150844250118
21
-118.09671854149251
31
0
0
LINE
5
235
100
AcDbEntity
8
0
100
AcDbLine
10
85.471150844250133
20
-100.09071534688168
30
0
11
85.471150844250161
21
-95.040404839718704
31
0
0
LINE
5
236
100
AcDbEntity
8
0
100
AcDbLine
10
81.487595403458386
20
-134.01312806374028
30
0
11
77.33627587397703
21
-131.42802097830767
31
0
0
LINE
5
237
100
AcDbEntity
8
0
100
AcDbLine
10
20.120270464476047
20
-119.36057804786877
30
0
11
20.856869293123435
21
-119.3652451319943
31
0
0
SPLINE
5
238
100
AcDbEntity
8
0
100
AcDbSpline
70
0
71
3
72
11
73
7
74
0
42
0.000000001
43
0.0000000001
44
0.0000000001
40
0.0097318879816928744
40
0.0097318879816928744
40
0.0097318879816928744
40
0.0097318879816928744
40
0.63723143529929216
40
0.63723143529929216
40
0.63723143529929216
40
0.98136488140250955
40
0.98136488140250955
40
0.98136488140250955
40
0.98136488140250955
10
41.487595403458393
20
-134.01312806374028
30
0
10
42.529482733956939
20
-141.42340608493862
30
0
10
42.741241279824806
20
-148.63568124726419
30
0
10
41.802086721910108
20
-155.60157218772395
30
0
10
41.2870353631955
20
-159.42180769987209
30
0
10
40.458328588815164
20
-163.18172544852621
30
0
10
39.379837339288315
20
-166.89099793701052
30
0
0
LINE
5
239
100
AcDbEntity
8
0
100
AcDbLine
10
45.471150844250104
20
-174.91748024152116
30
0
11
45.471150844250104
21
-177.60749322479904
31
0
0
CIRCLE
5
240
100
AcDbEntity
8
0
100
AcDbCircle
10
82.23223001819153
20
-130.38313783861039
30
0
40
1.7000000000000002
210
0
220
0
230
1
0
LINE
5
241
100
AcDbEntity
8
0
100
AcDbLine
10
63.118269118898873
20
-108.57247446972245
30
0
11
63.140515076474976
21
-108.4922813807183
31
0
0
LINE
5
242
100
AcDbEntity
8
0
100
AcDbLine
10
41.487595403458393
20
-134.01312806374028
30
0
11
37.336275873977023
21
-131.42802097830767
31
0
0
LINE
5
243
100
AcDbEntity
8
0
100
AcDbLine
10
25.471150844250126
20
-177.60749322479904
30
0
11
18.701574315752225
21
-177.60749322479904
31
0
0
LINE
5
244
100
AcDbEntity
8
0
100
AcDbLine
10
40.856869293123417
20
-119.3652451319943
30
0
11
29.317352267589012
21
-101.17913790752063
31
0
0
SPLINE
5
245
100
AcDbEntity
8
0
100
AcDbSpline
70
0
71
3
72
11
73
7
74
0
42
0.000000001
43
0.0000000001
44
0.0000000001
40
0.0097318879816928744
40
0.0097318879816928744
40
0.0097318879816928744
40
0.0097318879816928744
40
0.63723143529929216
40
0.63723143529929216
40
0.63723143529929216
40
0.98136488140250955
40
0.98136488140250955
40
0.98136488140250955
40
0.98136488140250955
10
21.48759540345841
20
-134.01312806374028
30
0
10
22.529482733956954
20
-141.42340608493862
30
0
10
22.74124127982482
20
-148.63568124726419
30
0
10
21.802086721910126
20
-155.60157218772395
30
0
10
21.287035363195521
20
-159.42180769987209
30
0
10
20.458328588815178
20
-163.18172544852621
30
0
10
19.379837339288333
20
-166.89099793701052
30
0
0
SPLINE
5
246
100
AcDbEntity
8
0
100
AcDbSpline
70
0
71
3
72
11
73
7
74
0
42
0.000000001
43
0.0000000001
44
0.0000000001
40
0.60174227844747885
40
0.60174227844747885
40
0.60174227844747885
40
0.60174227844747885
40
0.64928968652167418
40
0.64928968652167418
40
0.64928968652167418
40
0.91422646823008458
40
0.91422646823008458
40
0.91422646823008458
40
0.91422646823008458
10
57.385445802430837
20
-166.88848666852152
30
0
10
57.475365068848106
20
-166.87541670057777
30
0
10
57.566563281110291
20
-166.86502246084922
30
0
10
57.658627677923569
20
-166.85682883941865
30
0
10
58.171615577570506
20
-166.81117352863987
30
0
10
58.742980944632983
20
-166.83000022493857
30
0
10
59.379837339287846
20
-166.89099793701041
30
0
0
SPLINE
5
247
100
AcDbEntity
8
0
100
AcDbSpline
70
0
71
3
72
11
73
7
74
0
42
0.000000001
43
0.0000000001
44
0.0000000001
40
0.0097318879816928744
40
0.0097318879816928744
40
0.0097318879816928744
40
0.0097318879816928744
40
0.63723143529929216
40
0.63723143529929216
40
0.63723143529929216
40
0.98136488140250955
40
0.98136488140250955
40
0.98136488140250955
40
0.98136488140250955
10
81.487595403458386
20
-134.01312806374028
30
0
10
82.529482733956954
20
-141.42340608493862
30
0
10
82.74124127982482
20
-148.63568124726419
30
0
10
81.802086721910115
20
-155.60157218772395
30
0
10
81.287035363195514
20
-159.42180769987209
30
0
10
80.458328588815178
20
-163.18172544852621
30
0
10
79.379837339288329
20
-166.89099793701052
30
0
0
LINE
5
248
100
AcDbEntity
8
0
100
AcDbLine
10
85.471150844250133
20
-122.91748024152113
30
0
11
85.471150844250133
21
-124.91748024152113
31
0
0
LINE
5
249
100
AcDbEntity
8
0
100
AcDbLine
10
45.471150844250104
20
-100.09071534688168
30
0
11
45.471150844250147
21
-95.040404839718704
31
0
0
LINE
5
250
100
AcDbEntity
8
0
100
AcDbLine
10
80.856869293123424
20
-119.3652451319943
30
0
11
69.317352267589015
21
-101.17913790752063
31
0
0
LINE
5
251
100
AcDbEntity
8
0
100
AcDbLine
10
65.471150844250118
20
-174.91748024152116
30
0
11
64.471150844250118
21
-174.91748024152116
31
0
0
LINE
5
252
100
AcDbEntity
8
0
100
AcDbLine
10
85.471150844250133
20
-100.09071534688168
30
0
11
85.471150844250133
21
-118.09671854149251
31
0
0
LINE
5
253
100
AcDbEntity
8
0
100
AcDbLine
10
64.471150844250118
20
-172.91748024152116
30
0
11
64.471150844250118
21
-172.3174802415212
31
0
0
LINE
5
254
100
AcDbEntity
8
0
100
AcDbLine
10
103.11826911889888
20
-108.57247446972245
30
0
11
103.14051507647498
21
-108.4922813807183
31
0
0
LINE
5
255
100
AcDbEntity
8
0
100
AcDbLine
10
97.385445802430837
20
-166.88848666852152
30
0
11
98.703078575881804
21
-177.61974444041221
31
0
0
SPLINE
5
256
100
AcDbEntity
8
0
100
AcDbSpline
70
0
71
3
72
11
73
7
74
0
42
0.000000001
43
0.0000000001
44
0.0000000001
40
0.0097318879816928744
40
0.0097318879816928744
40
0.0097318879816928744
40
0.0097318879816928744
40
0.63723143529929216
40
0.63723143529929216
40
0.63723143529929216
40
0.98136488140250955
40
0.98136488140250955
40
0.98136488140250955
40
0.98136488140250955
10
101.48759540345839
20
-134.01312806374028
30
0
10
102.52948273395695
20
-141.42340608493862
30
0
10
102.74124127982482
20
-148.63568124726419
30
0
10
101.80208672191011
20
-155.60157218772395
30
0
10
101.28703536319551
20
-159.42180769987209
30
0
10
100.45832858881518
20
-163.18172544852621
30
0
10
99.379837339288315
20
-166.89099793701052
30
0
0
LINE
5
257
100
AcDbEntity
8
0
100
AcDbLine
10
100.85686929312342
20
-119.3652451319943
30
0
11
89.31735226758903
21
-101.17913790752063
31
0
0
LINE
5
258
100
AcDbEntity
8
0
100
AcDbLine
10
89.31735226758903
20
-101.17913790752063
30
0
11
101.00878268227848
21
-111.12652232682613
31
0
0
SPLINE
5
259
100
AcDbEntity
8
0
100
AcDbSpline
70
0
71
3
72
20
73
16
74
0
42
0.000000001
43
0.0000000001
44
0.0000000001
40
-0.021357865534255727
40
-0.021357865534255727
40
-0.021357865534255727
40
-0.021357865534255727
40
0
40
0
40
0
40
0.5
40
0.5
40
0.5
40
0.79815950573803685
40
0.79815950573803685
40
0.79815950573803685
40
1
40
1
40
1
40
1.0050985815217086
40
1.0050985815217086
40
1.0050985815217086
40
1.0050985815217086
10
97.336275873977087
20
-131.4280209783073
30
0
10
97.338363402830794
20
-131.28677909035167
30
0
10
97.340450931684586
20
-131.14553720239621
30
0
10
97.342538460538321
20
-131.00429531444078
30
0
10
97.391679400722808
20
-127.67942670000785
30
0
10
97.53895929023389
20
-124.88158926130332
30
0
10
97.873454111042577
20
-122.88102951234059
30
0
10
98.072919731930995
20
-121.68805770044038
30
0
10
98.321667159281219
20
-120.79757378456414
30
0
10
98.7754620900009
20
-120.15817071892208
30
0
10
99.082660724783054
20
-119.72532377519528
30
0
10
99.559536518427194
20
-119.38864750295814
30
0
10
100.0991590888367
20
-119.36163484996634
30
0
10
100.10619621405034
20
-119.36128258260041
30
0
10
100.11323333926384
20
-119.36093031523448
30
0
10
100.12027046447602
20
-119.36057804786884
30
0
0
LINE
5
260
100
AcDbEntity
8
0
100
AcDbLine
10
105.47115084425013
20
-124.91748024152113
30
0
11
105.47115084425013
21
-172.91748024152116
31
0
0
LINE
5
261
100
AcDbEntity
8
0
100
AcDbLine
10
105.47115084425013
20
-118.09671854149251
30
0
11
105.47115084425013
21
-122.91748024152113
31
0
0
LINE
5
262
100
AcDbEntity
8
0
100
AcDbLine
10
105.47115084425013
20
-122.91748024152113
30
0
11
105.47115084425013
21
-124.91748024152113
31
0
0
ENDSEC
0
SECTION
2
OBJECTS
0
DICTIONARY
5
C
100
AcDbDictionary
3
ACAD_GROUP
350
D
3
ACAD_MLINESTYLE
350
17
0
DICTIONARY
5
D
100
AcDbDictionary
0
DICTIONARY
5
1A
330
C
100
AcDbDictionary
0
DICTIONARY
5
17
100
AcDbDictionary
0
ENDSEC
0
EOF
