0
SECTION
2
HEADER
9
$INSUNITS
70
4
9
$ACADVER
1
AC1014
9
$HANDSEED
5
FFFF
0
ENDSEC
0
SECTION
2
TABLES
0
TABLE
2
VPORT
5
8
100
AcDbSymbolTable
0
ENDTAB
0
TABLE
2
LTYPE
5
5
100
AcDbSymbolTable
0
LTYPE
5
14
100
AcDbSymbolTableRecord
100
AcDbLinetypeTableRecord
2
BYBLOCK
70
0
0
LTYPE
5
15
100
AcDbSymbolTableRecord
100
AcDbLinetypeTableRecord
2
BYLAYER
70
0
0
ENDTAB
0
TABLE
2
LAYER
5
2
100
AcDbSymbolTable
70
2
0
LAYER
5
50
100
AcDbSymbolTableRecord
100
AcDbLayerTableRecord
2
0
70
0
6
CONTINUOUS
0
ENDTAB
0
TABLE
2
STYLE
5
3
100
AcDbSymbolTable
70
1
0
STYLE
5
11
100
AcDbSymbolTableRecord
100
AcDbTextStyleTableRecord
2
STANDARD
70
0
0
ENDTAB
0
TABLE
2
VIEW
5
6
100
AcDbSymbolTable
70
0
0
ENDTAB
0
TABLE
2
UCS
5
7
100
AcDbSymbolTable
70
0
0
ENDTAB
0
TABLE
2
APPID
5
9
100
AcDbSymbolTable
70
2
0
APPID
5
12
100
AcDbSymbolTableRecord
100
AcDbRegAppTableRecord
2
ACAD
70
0
0
ENDTAB
0
TABLE
2
DIMSTYLE
5
A
100
AcDbSymbolTable
70
1
0
ENDTAB
0
TABLE
2
BLOCK_RECORD
5
1
100
AcDbSymbolTable
70
1
0
BLOCK_RECORD
5
1F
100
AcDbSymbolTableRecord
100
AcDbBlockTableRecord
2
*MODEL_SPACE
0
BLOCK_RECORD
5
1B
100
AcDbSymbolTableRecord
100
AcDbBlockTableRecord
2
*PAPER_SPACE
0
ENDTAB
0
ENDSEC
0
SECTION
2
BLOCKS
0
BLOCK
5
20
100
AcDbEntity
100
AcDbBlockBegin
2
*MODEL_SPACE
0
ENDBLK
5
21
100
AcDbEntity
100
AcDbBlockEnd
0
BLOCK
5
1C
100
AcDbEntity
100
AcDbBlockBegin
2
*PAPER_SPACE
0
ENDBLK
5
1D
100
AcDbEntity
100
AcDbBlockEnd
0
ENDSEC
0
SECTION
2
ENTITIES
0
LINE
5
100
100
AcDbEntity
8
0
100
AcDbLine
10
65.856869293123424
20
555.63475486800576
30
0
11
54.317352267589037
21
573.8208620924795
31
0
0
LINE
5
101
100
AcDbEntity
8
0
100
AcDbLine
10
68.11826911889888
20
566.42752553027753
30
0
11
66.9956412040126
21
562.38063296613041
31
0
0
LINE
5
102
100
AcDbEntity
8
0
100
AcDbLine
10
70.471150844250133
20
502.08251975847884
30
0
11
69.471150844250104
21
502.08251975847884
31
0
0
LINE
5
103
100
AcDbEntity
8
0
100
AcDbLine
10
70.471150844250133
20
550.08251975847884
30
0
11
69.471150844250104
21
550.08251975847884
31
0
0
LINE
5
104
100
AcDbEntity
8
0
100
AcDbLine
10
70.471150844250133
20
556.90328145850754
30
0
11
70.471150844250133
21
552.08251975847884
31
0
0
LINE
5
105
100
AcDbEntity
8
0
100
AcDbLine
10
62.38544580243083
20
508.11151333147848
30
0
11
63.703078575881818
21
497.38025555958785
31
0
0
LINE
5
106
100
AcDbEntity
8
0
100
AcDbLine
10
66.444709803926969
20
552.68251975847886
30
0
11
69.471150844250104
21
552.68251975847886
31
0
0
LINE
5
107
100
AcDbEntity
8
0
100
AcDbLine
10
70.471150844250133
20
574.90928465311845
30
0
11
70.471150844250161
21
579.9595951602812
31
0
0
LINE
5
108
100
AcDbEntity
8
0
100
AcDbLine
10
69.471150844250104
20
552.08251975847884
30
0
11
69.471150844250104
21
552.68251975847886
31
0
0
LINE
5
109
100
AcDbEntity
8
0
100
AcDbLine
10
66.444709803926969
20
502.68251975847875
30
0
11
69.471150844250104
21
502.68251975847875
31
0
0
SPLINE
5
110
100
AcDbEntity
8
0
100
AcDbSpline
70
0
71
3
72
20
73
16
74
0
42
0.000000001
43
0.0000000001
44
0.0000000001
40
-0.021357865534255727
40
-0.021357865534255727
40
-0.021357865534255727
40
-0.021357865534255727
40
0
40
0
40
0
40
0.5
40
0.5
40
0.5
40
0.79815950573803685
40
0.79815950573803685
40
0.79815950573803685
40
1
40
1
40
1
40
1.0050985815217086
40
1.0050985815217086
40
1.0050985815217086
40
1.0050985815217086
10
62.336275873977101
20
543.57197902169264
30
0
10
62.338363402830801
20
543.71322090964827
30
0
10
62.340450931684579
20
543.85446279760379
30
0
10
62.342538460538321
20
543.99570468555919
30
0
10
62.391679400722822
20
547.32057329999202
30
0
10
62.538959290233898
20
550.11841073869664
30
0
10
62.873454111042584
20
552.11897048765945
30
0
10
63.072919731930988
20
553.31194229955963
30
0
10
63.321667159281219
20
554.20242621543582
30
0
10
63.7754620900009
20
554.84182928107793
30
0
10
64.082660724783054
20
555.27467622480481
30
0
10
64.559536518427194
20
555.61135249704182
30
0
10
65.0991590888367
20
555.63836515003368
30
0
10
65.106196214050343
20
555.63871741739956
30
0
10
65.113233339263843
20
555.63906968476567
30
0
10
65.120270464476022
20
555.63942195213122
30
0
0
LINE
5
111
100
AcDbEntity
8
0
100
AcDbLine
10
69.471150844250104
20
550.08251975847884
30
0
11
69.471150844250104
21
549.48251975847882
31
0
0
LINE
5
112
100
AcDbEntity
8
0
100
AcDbLine
10
70.471150844250133
20
500.08251975847884
30
0
11
69.471150844250104
21
500.08251975847884
31
0
0
LINE
5
113
100
AcDbEntity
8
0
100
AcDbLine
10
74.31735226758903
20
573.8208620924795
30
0
11
86.008782682278479
21
563.87347767317385
31
0
0
LINE
5
114
100
AcDbEntity
8
0
100
AcDbLine
10
90.471150844250147
20
574.90928465311845
30
0
11
90.471150844250147
21
556.90328145850754
31
0
0
SPLINE
5
115
100
AcDbEntity
8
0
100
AcDbSpline
70
0
71
3
72
11
73
7
74
0
42
0.000000001
43
0.0000000001
44
0.0000000001
40
0.60174227844747885
40
0.60174227844747885
40
0.60174227844747885
40
0.60174227844747885
40
0.64928968652167418
40
0.64928968652167418
40
0.64928968652167418
40
0.91422646823008435
40
0.91422646823008435
40
0.91422646823008435
40
0.91422646823008435
10
62.38544580243083
20
508.11151333147848
30
0
10
62.475365068848106
20
508.12458329942223
30
0
10
62.566563281110277
20
508.1349775391509
30
0
10
62.658627677923562
20
508.14317116058135
30
0
10
63.171615577570499
20
508.18882647136007
30
0
10
63.74298094463299
20
508.16999977506157
30
0
10
64.37983733928786
20
508.1090020629897
30
0
0
LWPOLYLINE
5
116
100
AcDbEntity
8
0
100
AcDbPolyline
90
6
70
1
43
0.0
10
89.47115084425009
20
549.48251975847882
10
86.444709803926983
20
549.48251975847882
10
86.444709803926983
20
552.68251975847886
10
89.47115084425009
20
552.68251975847886
10
89.47115084425009
20
552.08251975847884
10
89.47115084425009
20
550.08251975847884
0
LWPOLYLINE
5
117
100
AcDbEntity
8
0
100
AcDbPolyline
90
6
70
1
43
0.0
10
86.444709803926983
20
499.48251975847882
10
89.47115084425009
20
499.48251975847882
10
89.47115084425009
20
500.08251975847884
10
89.47115084425009
20
502.08251975847884
10
89.47115084425009
20
502.68251975847875
10
86.444709803926983
20
502.68251975847875
0
LINE
5
118
100
AcDbEntity
8
0
100
AcDbLine
10
86.008782682278479
20
563.87347767317385
30
0
11
90.471150844250161
21
579.9595951602812
31
0
0
LINE
5
119
100
AcDbEntity
8
0
100
AcDbLine
10
85.120270464476008
20
555.63942195213122
30
0
11
85.856869293123438
21
555.63475486800576
31
0
0
LINE
5
120
100
AcDbEntity
8
0
100
AcDbLine
10
86.9956412040126
20
562.38063296613041
30
0
11
90.471150844250147
21
556.90328145850754
31
0
0
LINE
5
121
100
AcDbEntity
8
0
100
AcDbLine
10
90.471150844250147
20
574.90928465311845
30
0
11
90.471150844250161
21
579.9595951602812
31
0
0
LINE
5
122
100
AcDbEntity
8
0
100
AcDbLine
10
82.385445802430837
20
508.11151333147848
30
0
11
83.70307857588179
21
497.38025555958785
31
0
0
SPLINE
5
123
100
AcDbEntity
8
0
100
AcDbSpline
70
0
71
3
72
11
73
7
74
0
42
0.000000001
43
0.0000000001
44
0.0000000001
40
0.60174227844747885
40
0.60174227844747885
40
0.60174227844747885
40
0.60174227844747885
40
0.64928968652167418
40
0.64928968652167418
40
0.64928968652167418
40
0.91422646823008435
40
0.91422646823008435
40
0.91422646823008435
40
0.91422646823008435
10
82.385445802430837
20
508.11151333147848
30
0
10
82.475365068848106
20
508.12458329942223
30
0
10
82.566563281110263
20
508.1349775391509
30
0
10
82.658627677923548
20
508.14317116058135
30
0
10
83.171615577570492
20
508.18882647136007
30
0
10
83.74298094463299
20
508.16999977506157
30
0
10
84.379837339287874
20
508.1090020629897
30
0
0
LINE
5
124
100
AcDbEntity
8
0
100
AcDbLine
10
88.140515076474998
20
566.5077186192816
30
0
11
90.471150844250147
21
574.90928465311845
31
0
0
LINE
5
125
100
AcDbEntity
8
0
100
AcDbLine
10
88.118269118898866
20
566.42752553027753
30
0
11
86.9956412040126
21
562.38063296613041
31
0
0
CIRCLE
5
126
100
AcDbEntity
8
0
100
AcDbCircle
10
87.23223001819153
20
544.61686216138958
30
0
40
1.7000000000000004
210
0
220
0
230
1
0
LINE
5
127
100
AcDbEntity
8
0
100
AcDbLine
10
90.471150844250147
20
550.08251975847884
30
0
11
90.471150844250147
21
502.08251975847884
31
0
0
SPLINE
5
128
100
AcDbEntity
8
0
100
AcDbSpline
70
0
71
3
72
20
73
16
74
0
42
0.000000001
43
0.0000000001
44
0.0000000001
40
-0.021357865534255727
40
-0.021357865534255727
40
-0.021357865534255727
40
-0.021357865534255727
40
0
40
0
40
0
40
0.5
40
0.5
40
0.5
40
0.79815950573803685
40
0.79815950573803685
40
0.79815950573803685
40
1
40
1
40
1
40
1.0050985815217086
40
1.0050985815217086
40
1.0050985815217086
40
1.0050985815217086
10
82.336275873977115
20
543.57197902169264
30
0
10
82.33836340283078
20
543.71322090964827
30
0
10
82.3404509316846
20
543.85446279760379
30
0
10
82.342538460538307
20
543.99570468555919
30
0
10
82.391679400722808
20
547.32057329999202
30
0
10
82.53895929023389
20
550.11841073869664
30
0
10
82.873454111042577
20
552.11897048765945
30
0
10
83.072919731930995
20
553.31194229955963
30
0
10
83.321667159281233
20
554.20242621543582
30
0
10
83.7754620900009
20
554.84182928107793
30
0
10
84.082660724783054
20
555.27467622480481
30
0
10
84.559536518427194
20
555.61135249704182
30
0
10
85.0991590888367
20
555.63836515003368
30
0
10
85.106196214050343
20
555.63871741739956
30
0
10
85.113233339263843
20
555.63906968476567
30
0
10
85.120270464476008
20
555.63942195213122
30
0
0
LINE
5
129
100
AcDbEntity
8
0
100
AcDbLine
10
90.471150844250147
20
556.90328145850754
30
0
11
90.471150844250147
21
552.08251975847884
31
0
0
LINE
5
130
100
AcDbEntity
8
0
100
AcDbLine
10
86.487595403458371
20
540.98687193625983
30
0
11
82.336275873977115
21
543.57197902169264
31
0
0
LINE
5
131
100
AcDbEntity
8
0
100
AcDbLine
10
90.471150844250147
20
497.39250677520096
30
0
11
83.701574315752225
21
497.39250677520096
31
0
0
CIRCLE
5
132
100
AcDbEntity
8
0
100
AcDbCircle
10
87.23223001819153
20
506.98997203321699
30
0
40
1.7000000000000004
210
0
220
0
230
1
0
LINE
5
133
100
AcDbEntity
8
0
100
AcDbLine
10
48.140515076474983
20
566.5077186192816
30
0
11
50.471150844250097
21
574.90928465311845
31
0
0
LINE
5
134
100
AcDbEntity
8
0
100
AcDbLine
10
88.118269118898866
20
566.42752553027753
30
0
11
88.140515076474998
21
566.5077186192816
31
0
0
LINE
5
135
100
AcDbEntity
8
0
100
AcDbLine
10
48.11826911889888
20
566.42752553027753
30
0
11
46.995641204012593
21
562.38063296613041
31
0
0
LWPOLYLINE
5
136
100
AcDbEntity
8
0
100
AcDbPolyline
90
6
70
1
43
0.0
10
49.471150844250111
20
552.68251975847886
10
46.444709803926976
20
552.68251975847886
10
46.444709803926976
20
549.48251975847882
10
49.471150844250111
20
549.48251975847882
10
49.471150844250111
20
550.08251975847884
10
49.471150844250111
20
552.08251975847884
0
LWPOLYLINE
5
137
100
AcDbEntity
8
0
100
AcDbPolyline
90
6
70
1
43
0.0
10
46.444709803926976
20
502.68251975847875
10
49.471150844250111
20
502.68251975847875
10
49.471150844250111
20
502.08251975847884
10
49.471150844250111
20
500.08251975847884
10
49.471150844250111
20
499.48251975847882
10
46.444709803926976
20
499.48251975847882
0
SPLINE
5
138
100
AcDbEntity
8
0
100
AcDbSpline
70
0
71
3
72
11
73
7
74
0
42
0.000000001
43
0.0000000001
44
0.0000000001
40
0.0097318879816928727
40
0.0097318879816928727
40
0.0097318879816928727
40
0.0097318879816928727
40
0.63723143529929216
40
0.63723143529929216
40
0.63723143529929216
40
0.98136488140250955
40
0.98136488140250955
40
0.98136488140250955
40
0.98136488140250955
10
86.487595403458371
20
540.98687193625983
30
0
10
87.529482733956939
20
533.57659391506138
30
0
10
87.741241279824806
20
526.36431875273593
30
0
10
86.802086721910129
20
519.39842781227617
30
0
10
86.2870353631955
20
515.57819230012797
30
0
10
85.458328588815178
20
511.81827455147385
30
0
10
84.379837339288301
20
508.10900206298953
30
0
0
LINE
5
139
100
AcDbEntity
8
0
100
AcDbLine
10
90.471150844250147
20
502.08251975847884
30
0
11
90.471150844250147
21
500.08251975847884
31
0
0
LINE
5
140
100
AcDbEntity
8
0
100
AcDbLine
10
90.471150844250147
20
500.08251975847884
30
0
11
90.471150844250147
21
497.39250677520096
31
0
0
LINE
5
141
100
AcDbEntity
8
0
100
AcDbLine
10
42.38544580243083
20
508.11151333147848
30
0
11
43.703078575881818
21
497.38025555958785
31
0
0
LINE
5
142
100
AcDbEntity
8
0
100
AcDbLine
10
45.120270464476022
20
555.63942195213122
30
0
11
45.856869293123424
21
555.63475486800576
31
0
0
LINE
5
143
100
AcDbEntity
8
0
100
AcDbLine
10
50.471150844250097
20
502.08251975847884
30
0
11
50.471150844250097
21
500.08251975847884
31
0
0
LINE
5
144
100
AcDbEntity
8
0
100
AcDbLine
10
46.487595403458393
20
540.98687193625983
30
0
11
42.336275873977023
21
543.5719790216923
31
0
0
CIRCLE
5
145
100
AcDbEntity
8
0
100
AcDbCircle
10
47.232230018191501
20
506.98997203321699
30
0
40
1.7000000000000004
210
0
220
0
230
1
0
CIRCLE
5
146
100
AcDbEntity
8
0
100
AcDbCircle
10
47.232230018191501
20
544.61686216138958
30
0
40
1.7000000000000004
210
0
220
0
230
1
0
SPLINE
5
147
100
AcDbEntity
8
0
100
AcDbSpline
70
0
71
3
72
11
73
7
74
0
42
0.000000001
43
0.0000000001
44
0.0000000001
40
0.60174227844747885
40
0.60174227844747885
40
0.60174227844747885
40
0.60174227844747885
40
0.64928968652167418
40
0.64928968652167418
40
0.64928968652167418
40
0.91422646823008435
40
0.91422646823008435
40
0.91422646823008435
40
0.91422646823008435
10
42.38544580243083
20
508.11151333147848
30
0
10
42.475365068848092
20
508.12458329942223
30
0
10
42.566563281110284
20
508.1349775391509
30
0
10
42.658627677923562
20
508.14317116058135
30
0
10
43.171615577570499
20
508.18882647136007
30
0
10
43.74298094463299
20
508.16999977506157
30
0
10
44.379837339287818
20
508.1090020629897
30
0
0
LINE
5
148
100
AcDbEntity
8
0
100
AcDbLine
10
50.471150844250097
20
574.90928465311845
30
0
11
50.471150844250161
21
579.9595951602812
31
0
0
LINE
5
149
100
AcDbEntity
8
0
100
AcDbLine
10
50.471150844250097
20
552.08251975847884
30
0
11
50.471150844250097
21
550.08251975847884
31
0
0
LINE
5
150
100
AcDbEntity
8
0
100
AcDbLine
10
45.856869293123424
20
555.63475486800576
30
0
11
34.31735226758903
21
573.8208620924795
31
0
0
LINE
5
151
100
AcDbEntity
8
0
100
AcDbLine
10
90.471150844250147
20
552.08251975847884
30
0
11
90.471150844250147
21
550.08251975847884
31
0
0
LINE
5
152
100
AcDbEntity
8
0
100
AcDbLine
10
85.856869293123438
20
555.63475486800576
30
0
11
74.31735226758903
21
573.8208620924795
31
0
0
LINE
5
153
100
AcDbEntity
8
0
100
AcDbLine
10
34.31735226758903
20
573.8208620924795
30
0
11
46.008782682278451
21
563.87347767317385
31
0
0
SPLINE
5
154
100
AcDbEntity
8
0
100
AcDbSpline
70
0
71
3
72
11
73
7
74
0
42
0.000000001
43
0.0000000001
44
0.0000000001
40
0.60174227844747885
40
0.60174227844747885
40
0.60174227844747885
40
0.60174227844747885
40
0.64928968652167418
40
0.64928968652167418
40
0.64928968652167418
40
0.91422646823008435
40
0.91422646823008435
40
0.91422646823008435
40
0.91422646823008435
10
102.38544580243085
20
508.11151333147848
30
0
10
102.47536506884813
20
508.12458329942223
30
0
10
102.56656328111029
20
508.1349775391509
30
0
10
102.65862767792356
20
508.14317116058135
30
0
10
103.17161557757048
20
508.18882647136007
30
0
10
103.742980944633
20
508.16999977506157
30
0
10
104.37983733928787
20
508.1090020629897
30
0
0
SPLINE
5
155
100
AcDbEntity
8
0
100
AcDbSpline
70
0
71
3
72
11
73
7
74
0
42
0.000000001
43
0.0000000001
44
0.0000000001
40
0.0097318879816928727
40
0.0097318879816928727
40
0.0097318879816928727
40
0.0097318879816928727
40
0.63723143529929216
40
0.63723143529929216
40
0.63723143529929216
40
0.98136488140250955
40
0.98136488140250955
40
0.98136488140250955
40
0.98136488140250955
10
46.487595403458393
20
540.98687193625983
30
0
10
47.529482733956954
20
533.57659391506138
30
0
10
47.74124127982482
20
526.36431875273593
30
0
10
46.802086721910108
20
519.39842781227617
30
0
10
46.287035363195493
20
515.57819230012797
30
0
10
45.458328588815185
20
511.81827455147385
30
0
10
44.379837339288322
20
508.10900206298953
30
0
0
LINE
5
156
100
AcDbEntity
8
0
100
AcDbLine
10
108.11826911889888
20
566.42752553027753
30
0
11
106.9956412040126
21
562.38063296613041
31
0
0
LINE
5
157
100
AcDbEntity
8
0
100
AcDbLine
10
105.12027046447601
20
555.63942195213122
30
0
11
105.85686929312344
21
555.63475486800576
31
0
0
LINE
5
158
100
AcDbEntity
8
0
100
AcDbLine
10
50.471150844250097
20
574.90928465311845
30
0
11
50.471150844250097
21
556.90328145850754
31
0
0
LINE
5
159
100
AcDbEntity
8
0
100
AcDbLine
10
50.471150844250097
20
556.90328145850754
30
0
11
50.471150844250097
21
552.08251975847884
31
0
0
LINE
5
160
100
AcDbEntity
8
0
100
AcDbLine
10
106.48759540345841
20
540.98687193625983
30
0
11
102.33627587397706
21
543.5719790216923
31
0
0
CIRCLE
5
161
100
AcDbEntity
8
0
100
AcDbCircle
10
107.23223001819152
20
544.61686216138958
30
0
40
1.1000000000000001
210
0
220
0
230
1
0
CIRCLE
5
162
100
AcDbEntity
8
0
100
AcDbCircle
10
107.23223001819152
20
506.98997203321699
30
0
40
1.1000000000000001
210
0
220
0
230
1
0
LINE
5
163
100
AcDbEntity
8
0
100
AcDbLine
10
110.47115084425015
20
497.39250677520096
30
0
11
103.70157431575224
21
497.39250677520096
31
0
0
LINE
5
164
100
AcDbEntity
8
0
100
AcDbLine
10
30.471150844250129
20
500.08251975847884
30
0
11
30.471150844250129
21
497.39250677520096
31
0
0
LINE
5
165
100
AcDbEntity
8
0
100
AcDbLine
10
46.008782682278451
20
563.87347767317385
30
0
11
50.471150844250161
21
579.9595951602812
31
0
0
LINE
5
166
100
AcDbEntity
8
0
100
AcDbLine
10
46.995641204012593
20
562.38063296613041
30
0
11
50.471150844250097
21
556.90328145850754
31
0
0
LINE
5
167
100
AcDbEntity
8
0
100
AcDbLine
10
110.47115084425015
20
550.08251975847884
30
0
11
110.47115084425015
21
502.08251975847884
31
0
0
LINE
5
168
100
AcDbEntity
8
0
100
AcDbLine
10
50.471150844250097
20
500.08251975847884
30
0
11
50.471150844250097
21
497.39250677520096
31
0
0
LINE
5
169
100
AcDbEntity
8
0
100
AcDbLine
10
50.471150844250097
20
550.08251975847884
30
0
11
50.471150844250097
21
502.08251975847884
31
0
0
LINE
5
170
100
AcDbEntity
8
0
100
AcDbLine
10
110.47115084425015
20
556.90328145850754
30
0
11
110.47115084425015
21
552.08251975847884
31
0
0
SPLINE
5
171
100
AcDbEntity
8
0
100
AcDbSpline
70
0
71
3
72
20
73
16
74
0
42
0.000000001
43
0.0000000001
44
0.0000000001
40
-0.021357865534255727
40
-0.021357865534255727
40
-0.021357865534255727
40
-0.021357865534255727
40
0
40
0
40
0
40
0.5
40
0.5
40
0.5
40
0.79815950573803685
40
0.79815950573803685
40
0.79815950573803685
40
1
40
1
40
1
40
1.0050985815217086
40
1.0050985815217086
40
1.0050985815217086
40
1.0050985815217086
10
42.336275873977058
20
543.57197902169264
30
0
10
42.338363402830794
20
543.71322090964827
30
0
10
42.340450931684543
20
543.85446279760379
30
0
10
42.342538460538321
20
543.99570468555919
30
0
10
42.391679400722815
20
547.32057329999202
30
0
10
42.538959290233855
20
550.11841073869664
30
0
10
42.873454111042548
20
552.11897048765945
30
0
10
43.07291973193098
20
553.31194229955963
30
0
10
43.321667159281169
20
554.20242621543582
30
0
10
43.775462090000865
20
554.84182928107793
30
0
10
44.082660724783061
20
555.27467622480481
30
0
10
44.559536518427201
20
555.61135249704182
30
0
10
45.0991590888367
20
555.63836515003368
30
0
10
45.106196214050343
20
555.63871741739956
30
0
10
45.113233339263843
20
555.63906968476567
30
0
10
45.120270464476022
20
555.63942195213122
30
0
0
LINE
5
172
100
AcDbEntity
8
0
100
AcDbLine
10
50.471150844250097
20
497.39250677520096
30
0
11
43.701574315752232
21
497.39250677520096
31
0
0
LINE
5
173
100
AcDbEntity
8
0
100
AcDbLine
10
48.11826911889888
20
566.42752553027753
30
0
11
48.140515076474983
21
566.5077186192816
31
0
0
LINE
5
174
100
AcDbEntity
8
0
100
AcDbLine
10
110.47115084425015
20
574.90928465311845
30
0
11
110.47115084425015
21
556.90328145850754
31
0
0
LINE
5
175
100
AcDbEntity
8
0
100
AcDbLine
10
105.85686929312344
20
555.63475486800576
30
0
11
94.317352267589058
21
573.8208620924795
31
0
0
CIRCLE
5
176
100
AcDbEntity
8
0
100
AcDbCircle
10
27.232230018191537
20
506.98997203321699
30
0
40
1.1000000000000001
210
0
220
0
230
1
0
LINE
5
177
100
AcDbEntity
8
0
100
AcDbLine
10
108.11826911889888
20
566.42752553027753
30
0
11
108.140515076475
21
566.5077186192816
31
0
0
LINE
5
178
100
AcDbEntity
8
0
100
AcDbLine
10
26.487595403458428
20
540.98687193625983
30
0
11
22.336275873977055
21
543.5719790216923
31
0
0
LINE
5
179
100
AcDbEntity
8
0
100
AcDbLine
10
30.471150844250129
20
497.39250677520096
30
0
11
23.701574315752225
21
497.39250677520096
31
0
0
LINE
5
180
100
AcDbEntity
8
0
100
AcDbLine
10
110.47115084425015
20
500.08251975847884
30
0
11
110.47115084425015
21
497.39250677520096
31
0
0
LINE
5
181
100
AcDbEntity
8
0
100
AcDbLine
10
94.317352267589058
20
573.8208620924795
30
0
11
106.00878268227848
21
563.87347767317385
31
0
0
LINE
5
182
100
AcDbEntity
8
0
100
AcDbLine
10
22.385445802430862
20
508.11151333147848
30
0
11
23.703078575881804
21
497.38025555958785
31
0
0
CIRCLE
5
183
100
AcDbEntity
8
0
100
AcDbCircle
10
27.232230018191537
20
544.61686216138958
30
0
40
1.1000000000000001
210
0
220
0
230
1
0
LINE
5
184
100
AcDbEntity
8
0
100
AcDbLine
10
102.38544580243085
20
508.11151333147848
30
0
11
103.7030785758818
21
497.38025555958785
31
0
0
LINE
5
185
100
AcDbEntity
8
0
100
AcDbLine
10
110.47115084425015
20
552.08251975847884
30
0
11
110.47115084425015
21
550.08251975847884
31
0
0
LINE
5
186
100
AcDbEntity
8
0
100
AcDbLine
10
110.47115084425015
20
574.90928465311845
30
0
11
110.47115084425016
21
579.9595951602812
31
0
0
LINE
5
187
100
AcDbEntity
8
0
100
AcDbLine
10
110.47115084425015
20
502.08251975847884
30
0
11
110.47115084425015
21
500.08251975847884
31
0
0
LINE
5
188
100
AcDbEntity
8
0
100
AcDbLine
10
30.471150844250129
20
502.08251975847884
30
0
11
30.471150844250129
21
500.08251975847884
31
0
0
LINE
5
189
100
AcDbEntity
8
0
100
AcDbLine
10
106.9956412040126
20
562.38063296613041
30
0
11
110.47115084425015
21
556.90328145850754
31
0
0
LINE
5
190
100
AcDbEntity
8
0
100
AcDbLine
10
106.00878268227848
20
563.87347767317385
30
0
11
110.47115084425016
21
579.9595951602812
31
0
0
LINE
5
191
100
AcDbEntity
8
0
100
AcDbLine
10
26.995641204012628
20
562.38063296613041
30
0
11
30.471150844250129
21
556.90328145850754
31
0
0
LINE
5
192
100
AcDbEntity
8
0
100
AcDbLine
10
30.471150844250129
20
556.90328145850754
30
0
11
30.471150844250129
21
552.08251975847884
31
0
0
SPLINE
5
193
100
AcDbEntity
8
0
100
AcDbSpline
70
0
71
3
72
11
73
7
74
0
42
0.000000001
43
0.0000000001
44
0.0000000001
40
0.60174227844747885
40
0.60174227844747885
40
0.60174227844747885
40
0.60174227844747885
40
0.64928968652167418
40
0.64928968652167418
40
0.64928968652167418
40
0.91422646823008435
40
0.91422646823008435
40
0.91422646823008435
40
0.91422646823008435
10
22.385445802430862
20
508.11151333147848
30
0
10
22.475365068848134
20
508.12458329942223
30
0
10
22.566563281110312
20
508.1349775391509
30
0
10
22.658627677923562
20
508.14317116058135
30
0
10
23.171615577570531
20
508.18882647136007
30
0
10
23.742980944632986
20
508.16999977506157
30
0
10
24.379837339287853
20
508.1090020629897
30
0
0
LINE
5
194
100
AcDbEntity
8
0
100
AcDbLine
10
70.471150844250133
20
501.08251975847884
30
0
11
70.29594213567897
21
501.08251975847884
31
0
0
SPLINE
5
195
100
AcDbEntity
8
0
100
AcDbSpline
70
0
71
3
72
20
73
16
74
0
42
0.000000001
43
0.0000000001
44
0.0000000001
40
-0.021357865534255727
40
-0.021357865534255727
40
-0.021357865534255727
40
-0.021357865534255727
40
0
40
0
40
0
40
0.5
40
0.5
40
0.5
40
0.79815950573803685
40
0.79815950573803685
40
0.79815950573803685
40
1
40
1
40
1
40
1.0050985815217086
40
1.0050985815217086
40
1.0050985815217086
40
1.0050985815217086
10
102.33627587397707
20
543.57197902169264
30
0
10
102.33836340283079
20
543.71322090964827
30
0
10
102.3404509316846
20
543.85446279760379
30
0
10
102.34253846053832
20
543.99570468555919
30
0
10
102.39167940072279
20
547.32057329999202
30
0
10
102.53895929023388
20
550.11841073869664
30
0
10
102.87345411104258
20
552.11897048765945
30
0
10
103.07291973193101
20
553.31194229955963
30
0
10
103.32166715928123
20
554.20242621543582
30
0
10
103.77546209000093
20
554.84182928107793
30
0
10
104.08266072478305
20
555.27467622480481
30
0
10
104.55953651842719
20
555.61135249704182
30
0
10
105.09915908883671
20
555.63836515003368
30
0
10
105.10619621405036
20
555.63871741739956
30
0
10
105.11323333926384
20
555.63906968476567
30
0
10
105.12027046447601
20
555.63942195213122
30
0
0
LINE
5
196
100
AcDbEntity
8
0
100
AcDbLine
10
28.11826911889888
20
566.42752553027753
30
0
11
26.995641204012628
21
562.38063296613041
31
0
0
SPLINE
5
197
100
AcDbEntity
8
0
100
AcDbSpline
70
0
71
3
72
11
73
7
74
0
42
0.000000001
43
0.0000000001
44
0.0000000001
40
0.0097318879816928727
40
0.0097318879816928727
40
0.0097318879816928727
40
0.0097318879816928727
40
0.63723143529929216
40
0.63723143529929216
40
0.63723143529929216
40
0.98136488140250955
40
0.98136488140250955
40
0.98136488140250955
40
0.98136488140250955
10
106.48759540345841
20
540.98687193625983
30
0
10
107.52948273395695
20
533.57659391506138
30
0
10
107.74124127982482
20
526.36431875273593
30
0
10
106.80208672191014
20
519.39842781227617
30
0
10
106.28703536319551
20
515.57819230012797
30
0
10
105.45832858881519
20
511.81827455147385
30
0
10
104.37983733928831
20
508.10900206298953
30
0
0
LINE
5
198
100
AcDbEntity
8
0
100
AcDbLine
10
14.31735226758903
20
573.8208620924795
30
0
11
26.00878268227849
21
563.87347767317385
31
0
0
LINE
5
199
100
AcDbEntity
8
0
100
AcDbLine
10
25.856869293123452
20
555.63475486800576
30
0
11
14.31735226758903
21
573.8208620924795
31
0
0
LINE
5
200
100
AcDbEntity
8
0
100
AcDbLine
10
26.00878268227849
20
563.87347767317385
30
0
11
30.471150844250161
21
579.9595951602812
31
0
0
LINE
5
201
100
AcDbEntity
8
0
100
AcDbLine
10
30.471150844250129
20
574.90928465311845
30
0
11
30.471150844250161
21
579.9595951602812
31
0
0
SPLINE
5
202
100
AcDbEntity
8
0
100
AcDbSpline
70
0
71
3
72
20
73
16
74
0
42
0.000000001
43
0.0000000001
44
0.0000000001
40
-0.021357865534255727
40
-0.021357865534255727
40
-0.021357865534255727
40
-0.021357865534255727
40
0
40
0
40
0
40
0.5
40
0.5
40
0.5
40
0.79815950573803685
40
0.79815950573803685
40
0.79815950573803685
40
1
40
1
40
1
40
1.0050985815217086
40
1.0050985815217086
40
1.0050985815217086
40
1.0050985815217086
10
22.336275873977094
20
543.57197902169264
30
0
10
22.33836340283084
20
543.71322090964827
30
0
10
22.340450931684575
20
543.85446279760379
30
0
10
22.342538460538321
20
543.99570468555919
30
0
10
22.39167940072285
20
547.32057329999202
30
0
10
22.538959290233894
20
550.11841073869664
30
0
10
22.873454111042584
20
552.11897048765945
30
0
10
23.072919731931023
20
553.31194229955963
30
0
10
23.321667159281212
20
554.20242621543582
30
0
10
23.775462090000911
20
554.84182928107793
30
0
10
24.082660724783054
20
555.27467622480481
30
0
10
24.559536518427194
20
555.61135249704182
30
0
10
25.0991590888367
20
555.63836515003368
30
0
10
25.106196214050346
20
555.63871741739956
30
0
10
25.113233339263843
20
555.63906968476567
30
0
10
25.120270464476064
20
555.63942195213122
30
0
0
LINE
5
203
100
AcDbEntity
8
0
100
AcDbLine
10
70.471150844250133
20
551.08251975847884
30
0
11
69.438349961398913
21
551.08251975847884
31
0
0
LINE
5
204
100
AcDbEntity
8
0
100
AcDbLine
10
108.140515076475
20
566.5077186192816
30
0
11
110.47115084425015
21
574.90928465311845
31
0
0
LINE
5
205
100
AcDbEntity
8
0
100
AcDbLine
10
28.11826911889888
20
566.42752553027753
30
0
11
28.140515076474987
21
566.5077186192816
31
0
0
LINE
5
206
100
AcDbEntity
8
0
100
AcDbLine
10
30.471150844250129
20
550.08251975847884
30
0
11
30.471150844250129
21
502.08251975847884
31
0
0
LINE
5
207
100
AcDbEntity
8
0
100
AcDbLine
10
30.471150844250129
20
552.08251975847884
30
0
11
30.471150844250129
21
550.08251975847884
31
0
0
LINE
5
208
100
AcDbEntity
8
0
100
AcDbLine
10
28.140515076474987
20
566.5077186192816
30
0
11
30.471150844250129
21
574.90928465311845
31
0
0
LINE
5
209
100
AcDbEntity
8
0
100
AcDbLine
10
25.120270464476064
20
555.63942195213122
30
0
11
25.856869293123452
21
555.63475486800576
31
0
0
SPLINE
5
210
100
AcDbEntity
8
0
100
AcDbSpline
70
0
71
3
72
11
73
7
74
0
42
0.000000001
43
0.0000000001
44
0.0000000001
40
0.0097318879816928727
40
0.0097318879816928727
40
0.0097318879816928727
40
0.0097318879816928727
40
0.63723143529929216
40
0.63723143529929216
40
0.63723143529929216
40
0.98136488140250955
40
0.98136488140250955
40
0.98136488140250955
40
0.98136488140250955
10
26.487595403458428
20
540.98687193625983
30
0
10
27.529482733956954
20
533.57659391506138
30
0
10
27.74124127982482
20
526.36431875273593
30
0
10
26.802086721910143
20
519.39842781227617
30
0
10
26.287035363195521
20
515.57819230012797
30
0
10
25.458328588815178
20
511.81827455147385
30
0
10
24.379837339288315
20
508.10900206298953
30
0
0
LINE
5
211
100
AcDbEntity
8
0
100
AcDbLine
10
30.471150844250129
20
574.90928465311845
30
0
11
30.471150844250129
21
556.90328145850754
31
0
0
LWPOLYLINE
5
212
100
AcDbEntity
8
0
100
AcDbPolyline
90
4
70
1
43
0.0
10
4.9729999999999208
20
589.43950948621978
10
4.9729999999999208
20
493.45023525647264
10
290.72599999999989
20
493.45023525647264
10
290.72599999999989
20
589.43950948621978
0
LWPOLYLINE
5
213
100
AcDbEntity
8
0
100
AcDbPolyline
90
18
70
1
43
0.0
10
-1.4976093959414738
20
613.33987984208329
42
-0.41420798628158922
10
6.5023904299452084
20
621.33972771071217
10
277.50000417179012
20
621.33973353816737
42
-0.40846457070752101
10
286.49826366391108
20
612.5167352564722
10
214.52300000000002
20
612.5167352564722
10
214.52300000000002
20
593.46273525647211
10
290.72700000000009
20
593.46273525647211
10
295.48550000000006
20
593.46273525647211
10
352.63949999999988
20
593.46273525647211
10
352.63949999999988
20
612.5167352564722
10
301.50174505415913
20
612.5167352564722
42
-0.40846458120548579
10
310.50000417178984
20
621.33973425041813
10
351.11151084148185
20
621.33973514853437
42
-0.41421126449574236
10
359.11151101390112
20
613.3397980848041
10
359.11246066438076
20
492.62729819269686
42
-0.41421587465141013
10
351.11246044400809
20
484.62723525647277
10
6.5000671841803399
20
484.62721624936023
42
-0.41421811075232456
10
-1.4999049159049005
20
492.62736838066803
0
LWPOLYLINE
5
214
100
AcDbEntity
8
0
100
AcDbPolyline
90
8
70
1
43
0.0
10
314.53550000000001
20
531.55423525647279
10
333.58949999999999
20
531.55423525647279
10
333.58949999999999
20
512.50423525647261
10
352.6395
20
512.50423525647261
10
352.6395
20
493.45023525647252
10
295.4855
20
493.45023525647252
10
295.4855
20
512.50423525647261
10
314.53550000000001
20
512.50423525647261
0
LWPOLYLINE
5
215
100
AcDbEntity
8
0
100
AcDbPolyline
90
4
70
1
43
0.0
10
43.072999999999922
20
593.46273525647234
10
43.072999999999922
20
612.51673525647243
10
119.27700000000002
20
612.5167352564722
10
119.27700000000002
20
593.46273525647211
0
LWPOLYLINE
5
216
100
AcDbEntity
8
0
100
AcDbPolyline
90
4
70
1
43
0.0
10
295.4855
20
550.60023525647262
10
352.6395
20
550.60023525647262
10
352.6395
20
588.70423525647288
10
295.4855
20
588.70423525647288
0
LINE
5
217
100
AcDbEntity
8
0
100
AcDbLine
10
314.53550000000001
20
550.60423525647263
30
0
11
314.53550000000001
21
550.60023525647262
31
0
0
LINE
5
218
100
AcDbEntity
8
0
100
AcDbLine
10
314.53949999999998
20
550.60023525647262
30
0
11
314.53550000000001
21
550.60423525647263
31
0
0
LWPOLYLINE
5
219
100
AcDbEntity
8
0
100
AcDbPolyline
90
4
70
1
43
0.0
10
4.9729999999999297
20
612.5167352564722
10
4.9729999999999297
20
593.46273525647211
10
24.026999999999923
20
593.46273525647211
10
24.026999999999923
20
612.5167352564722
0
LINE
5
220
100
AcDbEntity
8
0
100
AcDbLine
10
333.58549999999991
20
593.46673525647248
30
0
11
333.58949999999999
21
593.46273525647211
31
0
0
LWPOLYLINE
5
221
100
AcDbEntity
8
0
100
AcDbPolyline
90
4
70
1
43
0.0
10
205.00200000000007
20
612.5167352564722
10
128.798
20
612.5167352564722
10
128.798
20
593.46273525647211
10
205.00200000000007
20
593.46273525647211
0
CIRCLE
5
222
100
AcDbEntity
8
0
100
AcDbCircle
10
13.806950614130109
20
617.33973142962327
30
0
40
1.1000000000000094
210
0
220
0
230
1
0
LINE
5
223
100
AcDbEntity
8
0
100
AcDbLine
10
314.53950000000009
20
593.46673525647248
30
0
11
314.53550000000001
21
593.46273525647211
31
0
0
ARC
5
224
100
AcDbEntity
8
0
100
AcDbCircle
10
320.50000436604029
20
623.33973425041813
30
0
40
9.0000000000000586
210
0
220
0
230
1
100
AcDbArc
50
90.000001236636393
51
180
0
ARC
5
225
100
AcDbEntity
8
0
100
AcDbCircle
10
361.11153273752876
20
623.3397351485346
30
0
40
9.0000000000000675
210
0
220
-0
230
1
100
AcDbArc
50
0.00045106486668060049
51
90.000001643267538
0
LINE
5
226
100
AcDbEntity
8
0
100
AcDbLine
10
276.5000043660404
20
623.00000172853493
30
0
11
276.5000043660404
21
623.33973353816737
31
0
0
LWPOLYLINE
5
227
100
AcDbEntity
8
0
100
AcDbPolyline
90
7
70
1
43
0.0
10
171.71198921766262
20
482.62718085117518
10
-5.015545624917408
20
482.62718085120099
10
-5.0155456249174302
20
542.98362017481804
42
-0.99265766161658198
10
-12.519654473447874
20
542.92831869924169
10
-12.541699551135075
20
482.51673853998051
42
0.41400400488035199
10
-3.5442994565896413
20
473.52057957248854
10
168.82872602984409
20
473.5739323210156
42
0.73077387167653329
0
SPLINE
5
228
100
AcDbEntity
8
0
100
AcDbSpline
70
4
71
3
72
8
73
4
74
0
42
0.000000001
43
0.0000000001
44
0.0000000001
40
0
40
0
40
0
40
0
40
1
40
1
40
1
40
1
41
1
41
1
41
1
41
1
10
325.73147173884331
20
541.80875487179742
30
0
10
325.77716038354907
20
541.0562504970037
30
0
10
326.49443732391239
20
538.79843950013867
30
0
10
326.01844422988643
20
538.15909991407636
30
0
0
ARC
5
229
100
AcDbEntity
8
0
100
AcDbCircle
10
-8.7678038210936577
20
562.98362017481827
30
0
40
3.7522581961762254
210
0
220
0
230
1
100
AcDbArc
50
-179.15553362653617
51
0
0
ARC
5
230
100
AcDbEntity
8
0
100
AcDbCircle
10
366.36538967214528
20
562.98389455940992
30
0
40
3.7465961822610416
210
0
220
0
230
1
100
AcDbArc
50
-0.0051774161594862885
51
180.10753467433773
0
LINE
5
231
100
AcDbEntity
8
0
100
AcDbLine
10
-5.015545624917439
20
623.34005099911587
30
0
11
276.50000436044127
21
623.34005099911587
31
0
0
LINE
5
232
100
AcDbEntity
8
0
100
AcDbLine
10
370.11198583351722
20
562.98429027435168
30
0
11
370.11153273724995
21
623.33980600163818
31
0
0
ARC
5
233
100
AcDbEntity
8
0
100
AcDbCircle
10
361.1124834301329
20
482.62719207194607
30
0
40
9.0000000001683436
210
0
220
0
230
1
100
AcDbArc
50
-90.000004667162841
51
0.00044631951354462336
0
LINE
5
234
100
AcDbEntity
8
0
100
AcDbLine
10
-5.0155456249174328
20
562.98362017481827
30
0
11
-5.015545624917439
21
623.34005099911587
31
0
0
SPLINE
5
235
100
AcDbEntity
8
0
100
AcDbSpline
70
0
71
2
72
6
73
3
74
0
42
0.000000001
43
0.0000000001
44
0.0000000001
40
0
40
0
40
0
40
1
40
1
40
1
10
326.01844422988643
20
538.15909991407636
30
0
10
325.54245113586046
20
537.51976032801394
30
0
10
324.01026642723565
20
536.90695814800029
30
0
0
ARC
5
236
100
AcDbEntity
8
0
100
AcDbCircle
10
188.82677808911239
20
478.55178880872938
30
0
40
4.9784220377874187
210
0
220
0
230
1
100
AcDbArc
50
-89.982099638525952
51
54.677029919413933
0
CIRCLE
5
237
100
AcDbEntity
8
0
100
AcDbCircle
10
168.82718269189954
20
478.56017648283569
30
0
40
1.6999999999999926
210
0
220
0
230
1
0
ARC
5
238
100
AcDbEntity
8
0
100
AcDbCircle
10
366.36538967214528
20
542.98389455940992
30
0
40
3.7465961822610416
210
0
220
0
230
1
100
AcDbArc
50
-0.0051774161594862885
51
180.10753467433773
0
LINE
5
239
100
AcDbEntity
8
0
100
AcDbLine
10
-12.497609395760616
20
623.33989885850292
30
0
11
-12.519654473447872
21
562.9283186992418
31
0
0
LINE
5
240
100
AcDbEntity
8
0
100
AcDbLine
10
333.58549999999991
20
593.46273525647211
30
0
11
333.58949999999999
21
593.46673525647248
31
0
0
CIRCLE
5
241
100
AcDbEntity
8
0
100
AcDbCircle
10
168.80695072204691
20
627.33973142962327
30
0
40
1.6999999999999877
210
0
220
0
230
1
0
ARC
5
242
100
AcDbEntity
8
0
100
AcDbCircle
10
267.5000043660404
20
623.33973353816737
30
0
40
8.9999999999999858
210
0
220
0
230
1
100
AcDbArc
50
0
51
90.000001236635313
0
LINE
5
243
100
AcDbEntity
8
0
100
AcDbLine
10
188.82833344891995
20
473.57336701390494
30
0
11
361.11248269701667
21
473.62719207177776
31
0
0
LINE
5
244
100
AcDbEntity
8
0
100
AcDbLine
10
311.50000437036101
20
623.34001312840201
30
0
11
362.6188000887048
21
623.34001312840064
31
0
0
CIRCLE
5
245
100
AcDbEntity
8
0
100
AcDbCircle
10
353.80625897419975
20
478.62723485349926
30
0
40
1.6999999999999715
210
0
220
0
230
1
0
SPLINE
5
246
100
AcDbEntity
8
0
100
AcDbSpline
70
4
71
3
72
8
73
4
74
0
42
0.000000001
43
0.0000000001
44
0.0000000001
40
0
40
0
40
0
40
0
40
1
40
1
40
1
40
1
41
1
41
1
41
1
41
1
10
322.28906111562787
20
541.80859612538427
30
0
10
322.33475154400128
20
542.56109693284293
30
0
10
314.16544528751803
20
545.19181128124967
30
0
10
310.76215495319627
20
549.7736207191889
30
0
0
SPLINE
5
247
100
AcDbEntity
8
0
100
AcDbSpline
70
4
71
3
72
8
73
4
74
0
42
0.000000001
43
0.0000000001
44
0.0000000001
40
0
40
0
40
0
40
0
40
1
40
1
40
1
40
1
41
1
41
1
41
1
41
1
10
328.13083281008693
20
540.07711332126064
30
0
10
328.31985341306967
20
540.51665716857315
30
0
10
335.6936492860728
20
545.19181128124967
30
0
10
337.25838057677629
20
549.77378214110354
30
0
0
CIRCLE
5
248
100
AcDbEntity
8
0
100
AcDbCircle
10
353.80695094675593
20
627.34102949179135
30
0
40
1.6999999999999837
210
0
220
0
230
1
0
SPLINE
5
249
100
AcDbEntity
8
0
100
AcDbSpline
70
4
71
3
72
8
73
4
74
0
42
0.000000001
43
0.0000000001
44
0.0000000001
40
0
40
0
40
0
40
0
40
1
40
1
40
1
40
1
41
1
41
1
41
1
41
1
10
322.00209219191998
20
538.15909991407636
30
0
10
321.5261008815616
20
538.79843414913591
30
0
10
322.24337247092205
20
541.05609888526055
30
0
10
322.28906111562787
20
541.80859612538427
30
0
0
LINE
5
250
100
AcDbEntity
8
0
100
AcDbLine
10
66.444709803926969
20
499.48251975847882
30
0
11
66.444709803926969
21
502.68251975847875
31
0
0
LINE
5
251
100
AcDbEntity
8
0
100
AcDbLine
10
66.4875954034584
20
540.98687193625983
30
0
11
62.336275873977101
21
543.57197902169264
31
0
0
CIRCLE
5
252
100
AcDbEntity
8
0
100
AcDbCircle
10
67.23223001819153
20
544.61686216138958
30
0
40
1.7000000000000004
210
0
220
0
230
1
0
LINE
5
253
100
AcDbEntity
8
0
100
AcDbLine
10
66.9956412040126
20
562.38063296613041
30
0
11
70.471150844250133
21
556.90328145850754
31
0
0
LINE
5
254
100
AcDbEntity
8
0
100
AcDbLine
10
66.444709803926969
20
549.48251975847882
30
0
11
66.444709803926969
21
552.68251975847886
31
0
0
LINE
5
255
100
AcDbEntity
8
0
100
AcDbLine
10
69.471150844250104
20
502.08251975847884
30
0
11
69.471150844250104
21
502.68251975847875
31
0
0
SPLINE
5
256
100
AcDbEntity
8
0
100
AcDbSpline
70
4
71
3
72
8
73
4
74
0
42
0.000000001
43
0.0000000001
44
0.0000000001
40
0
40
0
40
0
40
0
40
1
40
1
40
1
40
1
41
1
41
1
41
1
41
1
10
319.8897053953869
20
540.07711332126064
30
0
10
320.07872689020365
20
539.63756769028032
30
0
10
319.38773764242961
20
537.59968290431607
30
0
10
319.55078091097971
20
536.96034510192135
30
0
0
SPLINE
5
257
100
AcDbEntity
8
0
100
AcDbSpline
70
0
71
2
72
6
73
3
74
0
42
0.000000001
43
0.0000000001
44
0.0000000001
40
0
40
0
40
0
40
1
40
1
40
1
10
324.01026821090318
20
533.0976239187587
30
0
10
328.30670956677517
20
536.32100373219146
30
0
10
328.46975283532527
20
536.96034510192135
30
0
0
LINE
5
258
100
AcDbEntity
8
0
100
AcDbLine
10
65.120270464476022
20
555.63942195213122
30
0
11
65.856869293123424
21
555.63475486800576
31
0
0
LINE
5
259
100
AcDbEntity
8
0
100
AcDbLine
10
70.471150844250133
20
552.08251975847884
30
0
11
69.471150844250104
21
552.08251975847884
31
0
0
LINE
5
260
100
AcDbEntity
8
0
100
AcDbLine
10
54.317352267589037
20
573.8208620924795
30
0
11
66.008782682278479
21
563.87347767317385
31
0
0
LINE
5
261
100
AcDbEntity
8
0
100
AcDbLine
10
70.471150844250133
20
574.90928465311845
30
0
11
70.471150844250133
21
556.90328145850754
31
0
0
LINE
5
262
100
AcDbEntity
8
0
100
AcDbLine
10
70.471150844250133
20
500.08251975847884
30
0
11
70.471150844250133
21
497.39250677520096
31
0
0
LINE
5
263
100
AcDbEntity
8
0
100
AcDbLine
10
70.471150844250133
20
550.08251975847884
30
0
11
70.471150844250133
21
502.08251975847884
31
0
0
SPLINE
5
264
100
AcDbEntity
8
0
100
AcDbSpline
70
4
71
3
72
8
73
4
74
0
42
0.000000001
43
0.0000000001
44
0.0000000001
40
0
40
0
40
0
40
0
40
1
40
1
40
1
40
1
41
1
41
1
41
1
41
1
10
319.55078091097971
20
536.96034510192135
30
0
10
319.71382417952987
20
536.32100729952663
30
0
10
324.01026821090318
20
533.09746873968038
30
0
10
324.01026821090318
20
533.0976239187587
30
0
0
LINE
5
265
100
AcDbEntity
8
0
100
AcDbLine
10
267.50000417179018
20
632.33973353816737
30
0
11
-3.4976095916381666
21
632.33972771071194
31
0
0
LINE
5
266
100
AcDbEntity
8
0
100
AcDbLine
10
362.6188000887048
20
623.34001312840064
30
0
11
362.61879348988424
21
562.98389455941674
31
0
0
LINE
5
267
100
AcDbEntity
8
0
100
AcDbLine
10
362.61879348988424
20
542.98389455941685
30
0
11
362.61880008848749
21
482.61371251952318
31
0
0
LINE
5
268
100
AcDbEntity
8
0
100
AcDbLine
10
68.11826911889888
20
566.42752553027753
30
0
11
68.140515076474983
21
566.5077186192816
31
0
0
CIRCLE
5
269
100
AcDbEntity
8
0
100
AcDbCircle
10
67.23223001819153
20
506.98997203321699
30
0
40
1.7000000000000004
210
0
220
0
230
1
0
SPLINE
5
270
100
AcDbEntity
8
0
100
AcDbSpline
70
4
71
3
72
8
73
4
74
0
42
0.000000001
43
0.0000000001
44
0.0000000001
40
0
40
0
40
0
40
0
40
1
40
1
40
1
40
1
41
1
41
1
41
1
41
1
10
310.76215495319627
20
549.7736207191889
30
0
10
312.32688624389982
20
545.19165253483607
30
0
10
319.70068390057031
20
540.51665895224062
30
0
10
319.8897053953869
20
540.07711332126064
30
0
0
SPLINE
5
271
100
AcDbEntity
8
0
100
AcDbSpline
70
0
71
2
72
6
73
3
74
0
42
0.000000001
43
0.0000000001
44
0.0000000001
40
0
40
0
40
0
40
1
40
1
40
1
10
324.01026642723565
20
536.90695814800029
30
0
10
322.47808350227837
20
537.5197656790167
30
0
10
322.00209219191998
20
538.15909991407636
30
0
0
LINE
5
272
100
AcDbEntity
8
0
100
AcDbLine
10
69.471150844250104
20
499.48251975847882
30
0
11
66.444709803926969
21
499.48251975847882
31
0
0
LINE
5
273
100
AcDbEntity
8
0
100
AcDbLine
10
69.471150844250104
20
500.08251975847884
30
0
11
69.471150844250104
21
499.48251975847882
31
0
0
LINE
5
274
100
AcDbEntity
8
0
100
AcDbLine
10
69.471150844250104
20
549.48251975847882
30
0
11
66.444709803926969
21
549.48251975847882
31
0
0
CIRCLE
5
275
100
AcDbEntity
8
0
100
AcDbCircle
10
3.8069507220469161
20
627.33973142962327
30
0
40
1.7000000000000077
210
0
220
0
230
1
0
CIRCLE
5
276
100
AcDbEntity
8
0
100
AcDbCircle
10
3.8062604917591969
20
478.62721665233352
30
0
40
1.6999999999999993
210
0
220
0
230
1
0
ARC
5
277
100
AcDbEntity
8
0
100
AcDbCircle
10
-3.4976093973879401
20
623.33972771071217
30
0
40
8.9999999999999165
210
0
220
0
230
1
100
AcDbArc
50
90.000001236635356
51
179.99891043930751
0
LINE
5
278
100
AcDbEntity
8
0
100
AcDbLine
10
68.140515076474983
20
566.5077186192816
30
0
11
70.471150844250133
21
574.90928465311845
31
0
0
LINE
5
279
100
AcDbEntity
8
0
100
AcDbLine
10
361.1115324794049
20
632.33973514853471
30
0
11
320.5000041717899
21
632.33973425041825
31
0
0
SPLINE
5
280
100
AcDbEntity
8
0
100
AcDbSpline
70
4
71
3
72
8
73
4
74
0
42
0.000000001
43
0.0000000001
44
0.0000000001
40
0
40
0
40
0
40
0
40
1
40
1
40
1
40
1
41
1
41
1
41
1
41
1
10
328.46975283532527
20
536.96034510192135
30
0
10
328.63279610387536
20
537.59968647165113
30
0
10
327.94181220710408
20
539.63756947394791
30
0
10
328.13083281008693
20
540.07711332126064
30
0
0
SPLINE
5
281
100
AcDbEntity
8
0
100
AcDbSpline
70
0
71
3
72
11
73
7
74
0
42
0.000000001
43
0.0000000001
44
0.0000000001
40
0.0097318879816928727
40
0.0097318879816928727
40
0.0097318879816928727
40
0.0097318879816928727
40
0.63723143529929216
40
0.63723143529929216
40
0.63723143529929216
40
0.98136488140250955
40
0.98136488140250955
40
0.98136488140250955
40
0.98136488140250955
10
66.4875954034584
20
540.98687193625983
30
0
10
67.529482733956954
20
533.57659391506138
30
0
10
67.74124127982482
20
526.36431875273593
30
0
10
66.802086721910115
20
519.39842781227617
30
0
10
66.287035363195528
20
515.57819230012797
30
0
10
65.458328588815178
20
511.81827455147385
30
0
10
64.379837339288315
20
508.10900206298953
30
0
0
SPLINE
5
282
100
AcDbEntity
8
0
100
AcDbSpline
70
4
71
3
72
8
73
4
74
0
42
0.000000001
43
0.0000000001
44
0.0000000001
40
0
40
0
40
0
40
0
40
1
40
1
40
1
40
1
41
1
41
1
41
1
41
1
10
337.25838057677629
20
549.77378214110354
30
0
10
333.85508578328546
20
545.19181128124967
30
0
10
325.68578309413749
20
542.56125924659136
30
0
10
325.73147173884331
20
541.80875487179742
30
0
0
LINE
5
283
100
AcDbEntity
8
0
100
AcDbLine
10
362.61880008848749
20
482.61371251952318
30
0
11
191.70522589189775
21
482.61371251960429
31
0
0
LINE
5
284
100
AcDbEntity
8
0
100
AcDbLine
10
70.471150844250133
20
497.39250677520096
30
0
11
63.701574315752232
21
497.39250677520096
31
0
0
LINE
5
285
100
AcDbEntity
8
0
100
AcDbLine
10
370.11248343002813
20
482.62726217965132
30
0
11
370.11198583351722
21
542.98429027435168
31
0
0
LINE
5
286
100
AcDbEntity
8
0
100
AcDbLine
10
66.008782682278479
20
563.87347767317385
30
0
11
70.471150844250161
21
579.9595951602812
31
0
0
CIRCLE
5
287
100
AcDbEntity
8
0
100
AcDbCircle
10
178.8069506141301
20
617.33973142962327
30
0
40
1.7000000000000299
210
0
220
0
230
1
0
CIRCLE
5
288
100
AcDbEntity
8
0
100
AcDbCircle
10
343.80695061413007
20
617.33973142962327
30
0
40
1.7000000000000171
210
0
220
0
230
1
0
CIRCLE
5
289
100
AcDbEntity
8
0
100
AcDbCircle
10
13.806950614130109
20
617.33973142962327
30
0
40
1.6999999999999869
210
0
220
0
230
1
0
CIRCLE
5
290
100
AcDbEntity
8
0
100
AcDbCircle
10
13.806260491759234
20
488.62721665233323
30
0
40
1.6999999999999862
210
0
220
0
230
1
0
CIRCLE
5
291
100
AcDbEntity
8
0
100
AcDbCircle
10
178.80626049175899
20
488.62722575291627
30
0
40
1.700000000000035
210
0
220
0
230
1
0
CIRCLE
5
292
100
AcDbEntity
8
0
100
AcDbCircle
10
343.80626049175902
20
488.62722575291627
30
0
40
1.7000000000000171
210
0
220
0
230
1
0
ENDSEC
0
SECTION
2
OBJECTS
0
DICTIONARY
5
C
100
AcDbDictionary
3
ACAD_GROUP
350
D
3
ACAD_MLINESTYLE
350
17
0
DICTIONARY
5
D
100
AcDbDictionary
0
DICTIONARY
5
1A
330
C
100
AcDbDictionary
0
DICTIONARY
5
17
100
AcDbDictionary
0
ENDSEC
0
EOF
